/* XPM */
static char *image[] = {
"64 64 256 2",
"00 c #000000",
"01 c #010101",
"02 c #020202",
"03 c #030303",
"04 c #040404",
"05 c #050505",
"06 c #060606",
"07 c #070707",
"08 c #080808",
"09 c #090909",
"0a c #0a0a0a",
"0b c #0b0b0b",
"0c c #0c0c0c",
"0d c #0d0d0d",
"0e c #0e0e0e",
"0f c #0f0f0f",
"10 c #101010",
"11 c #111111",
"12 c #121212",
"13 c #131313",
"14 c #141414",
"15 c #151515",
"16 c #161616",
"17 c #171717",
"18 c #181818",
"19 c #191919",
"1a c #1a1a1a",
"1b c #1b1b1b",
"1c c #1c1c1c",
"1d c #1d1d1d",
"1e c #1e1e1e",
"1f c #1f1f1f",
"20 c #202020",
"21 c #212121",
"22 c #222222",
"23 c #232323",
"24 c #242424",
"25 c #252525",
"26 c #262626",
"27 c #272727",
"28 c #282828",
"29 c #292929",
"2a c #2a2a2a",
"2b c #2b2b2b",
"2c c #2c2c2c",
"2d c #2d2d2d",
"2e c #2e2e2e",
"2f c #2f2f2f",
"30 c #303030",
"31 c #313131",
"32 c #323232",
"33 c #333333",
"34 c #343434",
"35 c #353535",
"36 c #363636",
"37 c #373737",
"38 c #383838",
"39 c #393939",
"3a c #3a3a3a",
"3b c #3b3b3b",
"3c c #3c3c3c",
"3d c #3d3d3d",
"3e c #3e3e3e",
"3f c #3f3f3f",
"40 c #404040",
"41 c #414141",
"42 c #424242",
"43 c #434343",
"44 c #444444",
"45 c #454545",
"46 c #464646",
"47 c #474747",
"48 c #484848",
"49 c #494949",
"4a c #4a4a4a",
"4b c #4b4b4b",
"4c c #4c4c4c",
"4d c #4d4d4d",
"4e c #4e4e4e",
"4f c #4f4f4f",
"50 c #505050",
"51 c #515151",
"52 c #525252",
"53 c #535353",
"54 c #545454",
"55 c #555555",
"56 c #565656",
"57 c #575757",
"58 c #585858",
"59 c #595959",
"5a c #5a5a5a",
"5b c #5b5b5b",
"5c c #5c5c5c",
"5d c #5d5d5d",
"5e c #5e5e5e",
"5f c #5f5f5f",
"60 c #606060",
"61 c #616161",
"62 c #626262",
"63 c #636363",
"64 c #646464",
"65 c #656565",
"66 c #666666",
"67 c #676767",
"68 c #686868",
"69 c #696969",
"6a c #6a6a6a",
"6b c #6b6b6b",
"6c c #6c6c6c",
"6d c #6d6d6d",
"6e c #6e6e6e",
"6f c #6f6f6f",
"70 c #707070",
"71 c #717171",
"72 c #727272",
"73 c #737373",
"74 c #747474",
"75 c #757575",
"76 c #767676",
"77 c #777777",
"78 c #787878",
"79 c #797979",
"7a c #7a7a7a",
"7b c #7b7b7b",
"7c c #7c7c7c",
"7d c #7d7d7d",
"7e c #7e7e7e",
"7f c #7f7f7f",
"80 c #808080",
"81 c #818181",
"82 c #828282",
"83 c #838383",
"84 c #848484",
"85 c #858585",
"86 c #868686",
"87 c #878787",
"88 c #888888",
"89 c #898989",
"8a c #8a8a8a",
"8b c #8b8b8b",
"8c c #8c8c8c",
"8d c #8d8d8d",
"8e c #8e8e8e",
"8f c #8f8f8f",
"90 c #909090",
"91 c #919191",
"92 c #929292",
"93 c #939393",
"94 c #949494",
"95 c #959595",
"96 c #969696",
"97 c #979797",
"98 c #989898",
"99 c #999999",
"9a c #9a9a9a",
"9b c #9b9b9b",
"9c c #9c9c9c",
"9d c #9d9d9d",
"9e c #9e9e9e",
"9f c #9f9f9f",
"a0 c #a0a0a0",
"a1 c #a1a1a1",
"a2 c #a2a2a2",
"a3 c #a3a3a3",
"a4 c #a4a4a4",
"a5 c #a5a5a5",
"a6 c #a6a6a6",
"a7 c #a7a7a7",
"a8 c #a8a8a8",
"a9 c #a9a9a9",
"aa c #aaaaaa",
"ab c #ababab",
"ac c #acacac",
"ad c #adadad",
"ae c #aeaeae",
"af c #afafaf",
"b0 c #b0b0b0",
"b1 c #b1b1b1",
"b2 c #b2b2b2",
"b3 c #b3b3b3",
"b4 c #b4b4b4",
"b5 c #b5b5b5",
"b6 c #b6b6b6",
"b7 c #b7b7b7",
"b8 c #b8b8b8",
"b9 c #b9b9b9",
"ba c #bababa",
"bb c #bbbbbb",
"bc c #bcbcbc",
"bd c #bdbdbd",
"be c #bebebe",
"bf c #bfbfbf",
"c0 c #c0c0c0",
"c1 c #c1c1c1",
"c2 c #c2c2c2",
"c3 c #c3c3c3",
"c4 c #c4c4c4",
"c5 c #c5c5c5",
"c6 c #c6c6c6",
"c7 c #c7c7c7",
"c8 c #c8c8c8",
"c9 c #c9c9c9",
"ca c #cacaca",
"cb c #cbcbcb",
"cc c #cccccc",
"cd c #cdcdcd",
"ce c #cecece",
"cf c #cfcfcf",
"d0 c #d0d0d0",
"d1 c #d1d1d1",
"d2 c #d2d2d2",
"d3 c #d3d3d3",
"d4 c #d4d4d4",
"d5 c #d5d5d5",
"d6 c #d6d6d6",
"d7 c #d7d7d7",
"d8 c #d8d8d8",
"d9 c #d9d9d9",
"da c #dadada",
"db c #dbdbdb",
"dc c #dcdcdc",
"dd c #dddddd",
"de c #dedede",
"df c #dfdfdf",
"e0 c #e0e0e0",
"e1 c #e1e1e1",
"e2 c #e2e2e2",
"e3 c #e3e3e3",
"e4 c #e4e4e4",
"e5 c #e5e5e5",
"e6 c #e6e6e6",
"e7 c #e7e7e7",
"e8 c #e8e8e8",
"e9 c #e9e9e9",
"ea c #eaeaea",
"eb c #ebebeb",
"ec c #ececec",
"ed c #ededed",
"ee c #eeeeee",
"ef c #efefef",
"f0 c #f0f0f0",
"f1 c #f1f1f1",
"f2 c #f2f2f2",
"f3 c #f3f3f3",
"f4 c #f4f4f4",
"f5 c #f5f5f5",
"f6 c #f6f6f6",
"f7 c #f7f7f7",
"f8 c #f8f8f8",
"f9 c #f9f9f9",
"fa c #fafafa",
"fb c #fbfbfb",
"fc c #fcfcfc",
"fd c #fdfdfd",
"fe c #fefefe",
"ff c #ffffff",
"00000000000000000000000000000000000000000000000000000000000000000000000000000000000000000000000000000000000000000000000000000000",
"00000000000000000000000000000000000000000000000000000000000000000000000000000000000000000000000000000000000000000000000000000000",
"00000000000000000000000000000000000000000000000000000000000000000000000000000000000000000000000000000000000000000000000000000000",
"00000000000000000000000000000000000000000000000000000000000000000000000000000000000000000000000000000000000000000000000000000000",
"00000000000000000000000000000000000000000000000000000000000000000000000000000000000000000000000000000000000000000000000000000000",
"00000000000000000000000000000000000000000000000000000000000000000000000000000000000000000000000000000000000000000000000000000000",
"00000000000000000000000000000000000000000000000000000000000000000000000000000000000000000000000000000000000000000000000000000000",
"00000000000000000000000000000000000000000000000000000000000000000000000000000000000000000000000000000000000000000000000000000000",
"00000000000000000000000000000000000000000000000000000000000000000000000000000000000000000000000000000000000000000000000000000000",
"00000000000000000000000000000000000000000000000000000000000000000000010000000000000000000000000000000000000000000000000000000000",
"0000000000000000000000000000000000000000000000000000000000000000000000001a000001000000000000000000000000000000000000000000000000",
"00000000000000000000000000000000000000000000000000000000000000000a000110060618080d0000000000000000000000000000000000000000000000",
"000000000000000000000000000000000000000000000000000000000000000104060808090708090a0604390001010000000000000000000000000000000000",
"00000000000000000000000000000000000000000000000000000000000000030100000002020609080908080e12040d00000000000000000000000000000000",
"00000000000000000000000000000000000000000000000000000000000000050000000000010103040408090a07012100000000000000000000000000000000",
"00000000000000000000000000000000000000000000000000000000000000110000000000010101010000010001180000000000000000000000000000000000",
"000000000000000000000000000000000000000000000000000000000000002c00000000000100010101010102002d0000000000000000000000000000000000",
"0000000000000000000000000000000000000000000000000000000000000004000000010100000101010102061a2e0000000000000000000000000000000000",
"00000000000000000000000000000000000000000000000000000000000000030000010101020001010101084627240000000000000000000000000000000000",
"00000000000000000000000000000000000000000000000000000000000000020000000001010101010001356908040000000000000000000000000000000000",
"0000000000000000000000000000000000000000000000000000000000003001000000000f140902010008571a18000000000000000000000000000000000000",
"0000000000000000000000000000000000000000000000000000000000010604000000011a0d0301020134707e00000000000000000000000000000000000000",
"00000000000000000000000000000000000000000000000000000000002108070202060c1d1d1d1b01020c708001000000000000000000000000000000000000",
"0000000000000000000000000000000000000000000000000000000000371312110c0a0f191c2626031671818901000000000000000000000000000000000000",
"00000000000000000000000000000000000000000000000000000000000119130607110d111c29302e5e7c7c0000000000000000000000000000000000000000",
"00000000000000000000000000000000000000000000000000000000000000002c433d14081123302b796e310100000000000000000000000000000000000000",
"00000000000000000000000000000000000000000000000000000000000000260e36412b0a0512242d4427280100010000000000000000000000000000000000",
"00000000000000000000000000000000000000000000000000000000010317111115413b2d061c220828517792aeae3700000000000000000000000000000000",
"000000000000000000000000000000000000000000000000000000011a0b15101212163e422a161c08142652a2ac9a8d5e000000000000000000000000000000",
"0000000000000000000000000000000000000000000000000000001b180d0c0c1012113c3e460d0f091a252e329693995d000000000000000000000000000000",
"00000000000000000000000000000000000000000000000000010b0a0c0c0c0c0c100d0c461a110f091b262930948f9661000000000000000000000000000000",
"00000000000000000000000000000000000000000000000000403008090d0d0c0f0d0c0f0d181d0f0f1e292e357f7b865b000000000000000000000000000000",
"0000000000000000000000000000000000000000000000000037352f08101212110c0c0d111f320c151f2d2c2d8a979750000000000000000000000000000000",
"0000000000000000000000000000000000000000000000000036362c2b0a10120a0d0d101628293b0001003632955b0000000000000000000000000000000000",
"0000000000000000000000000000000000000000000000003e33352f2b2b27170a0b0f1014202628000000000000000000000000000000000000000000000000",
"000000000000000000000000000000000000000000000000363335352e2f46170c0b100f0f2e2c03000000000000000000000000000000000000000000000000",
"0000000000000000000000000000000000000000000000033334343534352c120e0c10101b3d3100000000000000000000000000000000000000000000000000",
"0000000000000000000000000000000000000000000000023535323231481f001d0e0e0f17362d00000000000000000000000000000000000000000000000000",
"0000000000000000000000000000000000000000000001003b322f2e2c4b00011c19140e10270f00000000000000000000000000000000000000000000000000",
"00000000000000000000000000000000000000000000010101212f34324d01011b1a140a11181e38000000000000000000000000000000000000000000000000",
"000000000000000000000000000000000000000000000101010000043423020022170c0a051821234c0100000000000000000000000000000000000000000000",
"0000000000000000000000000000000000000000000000000000000b0f0e131202090b0706062125292400000000000000000000000000000000000000000000",
"000000000000000000000000000000000000000000000000000000050a0c0f080e190c0306060924272312000000000000000000000000000000000000000000",
"0000000000000000000000000000000000000000000000000000000305060905040c08070606060728271f000000000000000000000000000000000000000000",
"00000000000000000000000000000000000000000000000000021d04050605050503060606050504122325250000000000000000000000000000000000000000",
"000000000000000000000000000000000000000000000000002d0306070606050505050604050506051e24260000000000000000000000000000000000000000",
"000000000000000000000000000000000000000000010b1f170c0909090706060202034006050605050326230100000000000000000000000000000000000000",
"00000000000000000000000000000001000101030217191818171612141109050911394345030304040420170000000000000000000000000000000000000000",
"00000000000000000000000000011c1e191e171a1719171716171716141414161b4645360006030303030f153300000000000000000000000000000000000000",
"000000000000000000000000011c1b1a1a1919191818171717161616161616161415234e0029020302010b1c2600000000000000000000000000000000000000",
"00000000000000000000000038191a1a1a19191918181717171616161616161513171201001a03040202038c1c00000000000000000000000000000000000000",
"000000000000000000000000031a1a19191a191817171717171616161615141411000000000003030403056f2200000000000000000000000000000000000000",
"000000000000000000000000001a1a19191a19181717171717161616161602000000000000001902030706176e00000000000000000000000000000000000000",
"000000000000000000000000001b1c1a1a1a18171718191419181116161514130000000000000001110402270000000000000000000000000000000000000000",
"00000000000000000000000000221b19191818181501010000000000020e0f0c01000000000000001905020f0000000000000000000000000000000000000000",
"00000000000000000000000001000000121d18120100000100000000000000000000000000000019161431000000000000000000000000000000000000000000",
"00000000000000000000000000000000000000000000000000000000000000000000000000000001000000000000000000000000000000000000000000000000",
"00000000000000000000000000000000000000000000000000000000000000000000000000000000000000000000000000000000000000000000000000000000",
"00000000000000000000000000000000000000000000000000000000000000000000000000000000000000000000000000000000000000000000000000000000",
"00000000000000000000000000000000000000000000000000000000000000000000000000000000000000000000000000000000000000000000000000000000",
"00000000000000000000000000000000000000000000000000000000000000000000000000000000000000000000000000000000000000000000000000000000",
"00000000000000000000000000000000000000000000000000000000000000000000000000000000000000000000000000000000000000000000000000000000",
"00000000000000000000000000000000000000000000000000000000000000000000000000000000000000000000000000000000000000000000000000000000",
"00000000000000000000000000000000000000000000000000000000000000000000000000000000000000000000000000000000000000000000000000000000",
};
