/* XPM */
static char *image[] = {
"64 64 256 2",
"00 c #000000",
"01 c #010101",
"02 c #020202",
"03 c #030303",
"04 c #040404",
"05 c #050505",
"06 c #060606",
"07 c #070707",
"08 c #080808",
"09 c #090909",
"0a c #0a0a0a",
"0b c #0b0b0b",
"0c c #0c0c0c",
"0d c #0d0d0d",
"0e c #0e0e0e",
"0f c #0f0f0f",
"10 c #101010",
"11 c #111111",
"12 c #121212",
"13 c #131313",
"14 c #141414",
"15 c #151515",
"16 c #161616",
"17 c #171717",
"18 c #181818",
"19 c #191919",
"1a c #1a1a1a",
"1b c #1b1b1b",
"1c c #1c1c1c",
"1d c #1d1d1d",
"1e c #1e1e1e",
"1f c #1f1f1f",
"20 c #202020",
"21 c #212121",
"22 c #222222",
"23 c #232323",
"24 c #242424",
"25 c #252525",
"26 c #262626",
"27 c #272727",
"28 c #282828",
"29 c #292929",
"2a c #2a2a2a",
"2b c #2b2b2b",
"2c c #2c2c2c",
"2d c #2d2d2d",
"2e c #2e2e2e",
"2f c #2f2f2f",
"30 c #303030",
"31 c #313131",
"32 c #323232",
"33 c #333333",
"34 c #343434",
"35 c #353535",
"36 c #363636",
"37 c #373737",
"38 c #383838",
"39 c #393939",
"3a c #3a3a3a",
"3b c #3b3b3b",
"3c c #3c3c3c",
"3d c #3d3d3d",
"3e c #3e3e3e",
"3f c #3f3f3f",
"40 c #404040",
"41 c #414141",
"42 c #424242",
"43 c #434343",
"44 c #444444",
"45 c #454545",
"46 c #464646",
"47 c #474747",
"48 c #484848",
"49 c #494949",
"4a c #4a4a4a",
"4b c #4b4b4b",
"4c c #4c4c4c",
"4d c #4d4d4d",
"4e c #4e4e4e",
"4f c #4f4f4f",
"50 c #505050",
"51 c #515151",
"52 c #525252",
"53 c #535353",
"54 c #545454",
"55 c #555555",
"56 c #565656",
"57 c #575757",
"58 c #585858",
"59 c #595959",
"5a c #5a5a5a",
"5b c #5b5b5b",
"5c c #5c5c5c",
"5d c #5d5d5d",
"5e c #5e5e5e",
"5f c #5f5f5f",
"60 c #606060",
"61 c #616161",
"62 c #626262",
"63 c #636363",
"64 c #646464",
"65 c #656565",
"66 c #666666",
"67 c #676767",
"68 c #686868",
"69 c #696969",
"6a c #6a6a6a",
"6b c #6b6b6b",
"6c c #6c6c6c",
"6d c #6d6d6d",
"6e c #6e6e6e",
"6f c #6f6f6f",
"70 c #707070",
"71 c #717171",
"72 c #727272",
"73 c #737373",
"74 c #747474",
"75 c #757575",
"76 c #767676",
"77 c #777777",
"78 c #787878",
"79 c #797979",
"7a c #7a7a7a",
"7b c #7b7b7b",
"7c c #7c7c7c",
"7d c #7d7d7d",
"7e c #7e7e7e",
"7f c #7f7f7f",
"80 c #808080",
"81 c #818181",
"82 c #828282",
"83 c #838383",
"84 c #848484",
"85 c #858585",
"86 c #868686",
"87 c #878787",
"88 c #888888",
"89 c #898989",
"8a c #8a8a8a",
"8b c #8b8b8b",
"8c c #8c8c8c",
"8d c #8d8d8d",
"8e c #8e8e8e",
"8f c #8f8f8f",
"90 c #909090",
"91 c #919191",
"92 c #929292",
"93 c #939393",
"94 c #949494",
"95 c #959595",
"96 c #969696",
"97 c #979797",
"98 c #989898",
"99 c #999999",
"9a c #9a9a9a",
"9b c #9b9b9b",
"9c c #9c9c9c",
"9d c #9d9d9d",
"9e c #9e9e9e",
"9f c #9f9f9f",
"a0 c #a0a0a0",
"a1 c #a1a1a1",
"a2 c #a2a2a2",
"a3 c #a3a3a3",
"a4 c #a4a4a4",
"a5 c #a5a5a5",
"a6 c #a6a6a6",
"a7 c #a7a7a7",
"a8 c #a8a8a8",
"a9 c #a9a9a9",
"aa c #aaaaaa",
"ab c #ababab",
"ac c #acacac",
"ad c #adadad",
"ae c #aeaeae",
"af c #afafaf",
"b0 c #b0b0b0",
"b1 c #b1b1b1",
"b2 c #b2b2b2",
"b3 c #b3b3b3",
"b4 c #b4b4b4",
"b5 c #b5b5b5",
"b6 c #b6b6b6",
"b7 c #b7b7b7",
"b8 c #b8b8b8",
"b9 c #b9b9b9",
"ba c #bababa",
"bb c #bbbbbb",
"bc c #bcbcbc",
"bd c #bdbdbd",
"be c #bebebe",
"bf c #bfbfbf",
"c0 c #c0c0c0",
"c1 c #c1c1c1",
"c2 c #c2c2c2",
"c3 c #c3c3c3",
"c4 c #c4c4c4",
"c5 c #c5c5c5",
"c6 c #c6c6c6",
"c7 c #c7c7c7",
"c8 c #c8c8c8",
"c9 c #c9c9c9",
"ca c #cacaca",
"cb c #cbcbcb",
"cc c #cccccc",
"cd c #cdcdcd",
"ce c #cecece",
"cf c #cfcfcf",
"d0 c #d0d0d0",
"d1 c #d1d1d1",
"d2 c #d2d2d2",
"d3 c #d3d3d3",
"d4 c #d4d4d4",
"d5 c #d5d5d5",
"d6 c #d6d6d6",
"d7 c #d7d7d7",
"d8 c #d8d8d8",
"d9 c #d9d9d9",
"da c #dadada",
"db c #dbdbdb",
"dc c #dcdcdc",
"dd c #dddddd",
"de c #dedede",
"df c #dfdfdf",
"e0 c #e0e0e0",
"e1 c #e1e1e1",
"e2 c #e2e2e2",
"e3 c #e3e3e3",
"e4 c #e4e4e4",
"e5 c #e5e5e5",
"e6 c #e6e6e6",
"e7 c #e7e7e7",
"e8 c #e8e8e8",
"e9 c #e9e9e9",
"ea c #eaeaea",
"eb c #ebebeb",
"ec c #ececec",
"ed c #ededed",
"ee c #eeeeee",
"ef c #efefef",
"f0 c #f0f0f0",
"f1 c #f1f1f1",
"f2 c #f2f2f2",
"f3 c #f3f3f3",
"f4 c #f4f4f4",
"f5 c #f5f5f5",
"f6 c #f6f6f6",
"f7 c #f7f7f7",
"f8 c #f8f8f8",
"f9 c #f9f9f9",
"fa c #fafafa",
"fb c #fbfbfb",
"fc c #fcfcfc",
"fd c #fdfdfd",
"fe c #fefefe",
"ff c #ffffff",
"00000000000000000000000000000000000000000000000000000000000000000000000000000000000000000000000000000000000000000000000000000000",
"00000000000000000000000000000000000000000000000000000000000000000000000000000000000000000000000000000000000000000000000000000000",
"00000000000000000000000000000000000000000000000000000000000000000000000000000000000000000000000000000000000000000000000000000000",
"00000000000000000000000000000000000000000000000000000000000000000000000000000000000000000000000000000000000000000000000000000000",
"00000000000000000000000000000000000000000000000000000000000000000000000000000000000000000000000000000000000000000000000000000000",
"00000000000000000000000000000000000000000000000000000000000000000000000000000000000000000000000000000000000000000000000000000000",
"00000000000000000000000000000000000000000000000000000000000000000000000000000000000000000000000000000000000000000000000000000000",
"00000000000000000000000000000000000000000000000000000000000000000000000000000000000000000000000000000000000000000000000000000000",
"00000000000000000000000000000000000000000000000000000000000000000000000000000000000000000000000000000000000000000000000000000000",
"00000000000000000000000000000000000000000000000000000000000001000001070000100e00010000000000000000000000000000000000000000000000",
"000000000000000000000000000000000000000000000000000000000000050c0a0804070605080d041301090e05010000000000000000000000000000000000",
"0000000000000000000000000000000000000000000000000000000000200000000000000305070a080806040303000000000000000000000000000000000000",
"00000000000000000000000000000000000000000000000000000000000100000002010000000001020304030402000000000000000000000000000000000000",
"00000000000000000000000000000000000000000000000000000000003e00000002010000010100000204020400000000000000000000000000000000000000",
"0000000000000000000000000000000000000000000000000000000000370000000101000101020001030a260000000000000000000000000000000000000000",
"00000000000000000000000000000000000000000000000000000000003100000001010101010101000b70570801000000000000000000000000000000000000",
"00000000000000000000000000000000000000000000000000000000003000000001050201010101002b60611701000000000000000000000000000000000000",
"00000000000000000000000000000000000000000000000000000000000200000000010902000001016e7a820501000000000000000000000000000000000000",
"00000000000000000000000000000000000000000000000000000000000202020000081201010001050d7f890000000000000000000000000000000000000000",
"00000000000000000000000000000000000000000000000000000000010200010100101507070101047884890000000000000000000000000000000000000000",
"00000000000000000000000000000000000000000000000000000001180905000117161b1a1813026c8689910000000000000000000000000000000000000000",
"00000000000000000000000000000000000000000000000000000000130e0c140e1518181a2f301c7e8b88880000000000000000000000000000000000000000",
"000000000000000000000000000000000000000000000000000000012412130711181513142a2f2f8589704a0000000000000000000000000000000000000000",
"000000000000000000000000000000000000000000000000000000000001001e0f54290a141b2f488545390000004f9400000000000000000000000000000000",
"000000000000000000000000000000000000000000000000000000000113121112533b0d0614151c0c22395ba9ac9baf00000000000000000000000000000000",
"0000000000000000000000000000000000000000000000000000241d0d19161617363e1f0c2024160a152531aeadaea80e000000000000000000000000000000",
"000000000000000000000000000000000000000000000002340a0f130b0f1018171c3b48141f220f07161a30a3aea7a1aa000000000000000000000000000000",
"00000000000000000000000000000000000000000000004933190a0d0c0c0d131215484346191f0b08151b2c319998a4a0010000000000000000000000000000",
"00000000000000000000000000000000000000000000243c3936090f130f0d1111104e3d4916240607161b2f30a6b1b095000000000000000000000000000000",
"00000000000000000000000000000000000000000015373a39321e0d151416120f0f140811133c0e08161c302883710000000000000000000000000000000000",
"0000000000000000000000000000000000000000173238363532300a16191614100b0c111e2b3c0d171b2a110100000000000000000000000000000000000000",
"000000000000000000000000000000000000000037393c384034331c38010014100d0c1829282e37000000000000000000000000000000000000000000000000",
"0000000000000000000000000000000000000000383d3b3b3d3535390001011f100f13142225210b000000000000000000000000000000000000000000000000",
"0000000000000000000000000000000000000000193132343738430100000013130c11130f232400000000000000000000000000000000000000000000000000",
"0000000000000000000000000000000000000000003f3632373b00000000000114100e0f183e3400000000000000000000000000000000000000000000000000",
"000000000000000000000000000000000000000000003e3515000000000000001b13100f17352b00000000000000000000000000000000000000000000000000",
"000000000000000000000000000000000000000000000000000000010000011c1d14141017291c00000000000000000000000000000000000000000000000000",
"0000000000000000000000000000000000000000000000000000000000190d0526221e0d111e1500000000000000000000000000000000000000000000000000",
"000000000000000000000000000000000000000000000000000000160d0b06052320180a0d19132d000000000000000000000000000000000000000000000000",
"000000000000000000000000000000000000000000000100110a070c05040808080b0d080805212c370000000000000000000000000000000000000000000000",
"0000000000000000000000000000000000000000000000590403040405050605041515070504102b2a2300000000000000000000000000000000000000000000",
"0000000000000000000000000000000000000000000068060605050504050505081c0e0905060615272b26000000000000000000000000000000000000000000",
"00000000000000000000000000000000000000000000000207080505050405050f04070505060607222927040000000000000000000000000000000000000000",
"0000000000000000000000000000000000000000000000030106050506040303000014010406050607282b290000010000000000000000000000000000000000",
"000000000000000000000000000000000000000000000000030306050e0100000000002a03050506060f28232601000000000000000000000000000000000000",
"00000000000000000000000000000000000000000000002a04050f0100000000000000001205050606051d212e32010000000000000000000000000000000000",
"0000000000000000000000000000000000000000000c16191308000000000000000000000005060506060a242fc42e0000000000000000000000000000000000",
"000000000000000000000001191c011716160200181a191718191817180d010000000000000104040607090d2bcb383b00000000000000000000000000000000",
"0000000000000000000000000001001b1b1a191a19191918181716161616161c00000000000006030606090a1e34338100000000000000000000000000000000",
"00000000000000000005040000000f1a1a191919191917171716161616161616180100000000001d050508080a1562b900000000000000000000000000000000",
"000000000000000000001c1a1b1b1a1a1a19191918181717171616161616161619000000000000001e060808090a1a1100000000000000000000000000000000",
"0000000000000000001e1b1b1b1b1b1a1a19191918181818171616171718300000000000000000000003080a0a05220000000000000000000000000000000000",
"00000000000000001f1b1b1b1b1b1b1a1a1919191818171817161614141400000000000000000000000101010001000000000000000000000000000000000000",
"0000000000000000001f1f1a1a1a1a19191918190901090415191716141201000000000000000000000000000000000000000000000000000000000000000000",
"000000000000000000000002141d1a1a1a1819010000000000000000000000000000000000000000000000000000000000000000000000000000000000000000",
"000000000000000000000000010000021e2700000000000000000000000000000000000000000000000000000000000000000000000000000000000000000000",
"00000000000000000000000000000000000000000000000000000000000000000000000000000000000000000000000000000000000000000000000000000000",
"00000000000000000000000000000000000000000000000000000000000000000000000000000000000000000000000000000000000000000000000000000000",
"00000000000000000000000000000000000000000000000000000000000000000000000000000000000000000000000000000000000000000000000000000000",
"00000000000000000000000000000000000000000000000000000000000000000000000000000000000000000000000000000000000000000000000000000000",
"00000000000000000000000000000000000000000000000000000000000000000000000000000000000000000000000000000000000000000000000000000000",
"00000000000000000000000000000000000000000000000000000000000000000000000000000000000000000000000000000000000000000000000000000000",
"00000000000000000000000000000000000000000000000000000000000000000000000000000000000000000000000000000000000000000000000000000000",
"00000000000000000000000000000000000000000000000000000000000000000000000000000000000000000000000000000000000000000000000000000000",
};
