/* XPM */
static char *image[] = {
"64 64 256 2",
"00 c #000000",
"01 c #010101",
"02 c #020202",
"03 c #030303",
"04 c #040404",
"05 c #050505",
"06 c #060606",
"07 c #070707",
"08 c #080808",
"09 c #090909",
"0a c #0a0a0a",
"0b c #0b0b0b",
"0c c #0c0c0c",
"0d c #0d0d0d",
"0e c #0e0e0e",
"0f c #0f0f0f",
"10 c #101010",
"11 c #111111",
"12 c #121212",
"13 c #131313",
"14 c #141414",
"15 c #151515",
"16 c #161616",
"17 c #171717",
"18 c #181818",
"19 c #191919",
"1a c #1a1a1a",
"1b c #1b1b1b",
"1c c #1c1c1c",
"1d c #1d1d1d",
"1e c #1e1e1e",
"1f c #1f1f1f",
"20 c #202020",
"21 c #212121",
"22 c #222222",
"23 c #232323",
"24 c #242424",
"25 c #252525",
"26 c #262626",
"27 c #272727",
"28 c #282828",
"29 c #292929",
"2a c #2a2a2a",
"2b c #2b2b2b",
"2c c #2c2c2c",
"2d c #2d2d2d",
"2e c #2e2e2e",
"2f c #2f2f2f",
"30 c #303030",
"31 c #313131",
"32 c #323232",
"33 c #333333",
"34 c #343434",
"35 c #353535",
"36 c #363636",
"37 c #373737",
"38 c #383838",
"39 c #393939",
"3a c #3a3a3a",
"3b c #3b3b3b",
"3c c #3c3c3c",
"3d c #3d3d3d",
"3e c #3e3e3e",
"3f c #3f3f3f",
"40 c #404040",
"41 c #414141",
"42 c #424242",
"43 c #434343",
"44 c #444444",
"45 c #454545",
"46 c #464646",
"47 c #474747",
"48 c #484848",
"49 c #494949",
"4a c #4a4a4a",
"4b c #4b4b4b",
"4c c #4c4c4c",
"4d c #4d4d4d",
"4e c #4e4e4e",
"4f c #4f4f4f",
"50 c #505050",
"51 c #515151",
"52 c #525252",
"53 c #535353",
"54 c #545454",
"55 c #555555",
"56 c #565656",
"57 c #575757",
"58 c #585858",
"59 c #595959",
"5a c #5a5a5a",
"5b c #5b5b5b",
"5c c #5c5c5c",
"5d c #5d5d5d",
"5e c #5e5e5e",
"5f c #5f5f5f",
"60 c #606060",
"61 c #616161",
"62 c #626262",
"63 c #636363",
"64 c #646464",
"65 c #656565",
"66 c #666666",
"67 c #676767",
"68 c #686868",
"69 c #696969",
"6a c #6a6a6a",
"6b c #6b6b6b",
"6c c #6c6c6c",
"6d c #6d6d6d",
"6e c #6e6e6e",
"6f c #6f6f6f",
"70 c #707070",
"71 c #717171",
"72 c #727272",
"73 c #737373",
"74 c #747474",
"75 c #757575",
"76 c #767676",
"77 c #777777",
"78 c #787878",
"79 c #797979",
"7a c #7a7a7a",
"7b c #7b7b7b",
"7c c #7c7c7c",
"7d c #7d7d7d",
"7e c #7e7e7e",
"7f c #7f7f7f",
"80 c #808080",
"81 c #818181",
"82 c #828282",
"83 c #838383",
"84 c #848484",
"85 c #858585",
"86 c #868686",
"87 c #878787",
"88 c #888888",
"89 c #898989",
"8a c #8a8a8a",
"8b c #8b8b8b",
"8c c #8c8c8c",
"8d c #8d8d8d",
"8e c #8e8e8e",
"8f c #8f8f8f",
"90 c #909090",
"91 c #919191",
"92 c #929292",
"93 c #939393",
"94 c #949494",
"95 c #959595",
"96 c #969696",
"97 c #979797",
"98 c #989898",
"99 c #999999",
"9a c #9a9a9a",
"9b c #9b9b9b",
"9c c #9c9c9c",
"9d c #9d9d9d",
"9e c #9e9e9e",
"9f c #9f9f9f",
"a0 c #a0a0a0",
"a1 c #a1a1a1",
"a2 c #a2a2a2",
"a3 c #a3a3a3",
"a4 c #a4a4a4",
"a5 c #a5a5a5",
"a6 c #a6a6a6",
"a7 c #a7a7a7",
"a8 c #a8a8a8",
"a9 c #a9a9a9",
"aa c #aaaaaa",
"ab c #ababab",
"ac c #acacac",
"ad c #adadad",
"ae c #aeaeae",
"af c #afafaf",
"b0 c #b0b0b0",
"b1 c #b1b1b1",
"b2 c #b2b2b2",
"b3 c #b3b3b3",
"b4 c #b4b4b4",
"b5 c #b5b5b5",
"b6 c #b6b6b6",
"b7 c #b7b7b7",
"b8 c #b8b8b8",
"b9 c #b9b9b9",
"ba c #bababa",
"bb c #bbbbbb",
"bc c #bcbcbc",
"bd c #bdbdbd",
"be c #bebebe",
"bf c #bfbfbf",
"c0 c #c0c0c0",
"c1 c #c1c1c1",
"c2 c #c2c2c2",
"c3 c #c3c3c3",
"c4 c #c4c4c4",
"c5 c #c5c5c5",
"c6 c #c6c6c6",
"c7 c #c7c7c7",
"c8 c #c8c8c8",
"c9 c #c9c9c9",
"ca c #cacaca",
"cb c #cbcbcb",
"cc c #cccccc",
"cd c #cdcdcd",
"ce c #cecece",
"cf c #cfcfcf",
"d0 c #d0d0d0",
"d1 c #d1d1d1",
"d2 c #d2d2d2",
"d3 c #d3d3d3",
"d4 c #d4d4d4",
"d5 c #d5d5d5",
"d6 c #d6d6d6",
"d7 c #d7d7d7",
"d8 c #d8d8d8",
"d9 c #d9d9d9",
"da c #dadada",
"db c #dbdbdb",
"dc c #dcdcdc",
"dd c #dddddd",
"de c #dedede",
"df c #dfdfdf",
"e0 c #e0e0e0",
"e1 c #e1e1e1",
"e2 c #e2e2e2",
"e3 c #e3e3e3",
"e4 c #e4e4e4",
"e5 c #e5e5e5",
"e6 c #e6e6e6",
"e7 c #e7e7e7",
"e8 c #e8e8e8",
"e9 c #e9e9e9",
"ea c #eaeaea",
"eb c #ebebeb",
"ec c #ececec",
"ed c #ededed",
"ee c #eeeeee",
"ef c #efefef",
"f0 c #f0f0f0",
"f1 c #f1f1f1",
"f2 c #f2f2f2",
"f3 c #f3f3f3",
"f4 c #f4f4f4",
"f5 c #f5f5f5",
"f6 c #f6f6f6",
"f7 c #f7f7f7",
"f8 c #f8f8f8",
"f9 c #f9f9f9",
"fa c #fafafa",
"fb c #fbfbfb",
"fc c #fcfcfc",
"fd c #fdfdfd",
"fe c #fefefe",
"ff c #ffffff",
"00000000000000000000000000000000000000000000000000000000000000000000000000000000000000000000000000000000000000000000000000000000",
"00000000000000000000000000000000000000000000000000000000000000000000000000000000000000000000000000000000000000000000000000000000",
"00000000000000000000000000000000000000000000000000000000000000000000000000000000000000000000000000000000000000000000000000000000",
"00000000000000000000000000000000000000000000000000000000000000000000000000000000000000000000000000000000000000000000000000000000",
"00000000000000000000000000000000000000000000000000000000000000000000000000000000000000000000000000000000000000000000000000000000",
"00000000000000000000000000000000000000000000000000000000000000000000000000000000000000000000000000000000000000000000000000000000",
"00000000000000000000000000000000000000000000000000000000000000000000000000000000000000000000000000000000000000000000000000000000",
"00000000000000000000000000000000000000000000000000000000000000000000000000000000000000000000000000000000000000000000000000000000",
"00000000000000000000000000000000000000000000000000000000000000000000000000000000000000000000000000000000000000000000000000000000",
"000000000000000000000000000000000000000000000000000000012930110c0909090c0b0b24030b00000e1b00000000000000000000000000000000000000",
"000000000000000000000000000000000000000000000000000000002a0000000001000103030308070405031000000000000000000000000000000000000000",
"0000000000000000000000000000000000000000000000000000000b010000000000000100000000050404030000000000000000000000000000000000000000",
"00000000000000000000000000000000000000000000000000000001010100000000010101010000030303080000000000000000000000000000000000000000",
"000000000000000000000000000000000000000000000000000000001a00000000010101010101030d4939020000000000000000000000000000000000000000",
"000000000000000000000000000000000000000000000000000000001a000000000000000001010429365b070200000000000000000000000000000000000000",
"000000000000000000000000000000000000000000000000000000001b000000000000000001010266606d090100000000000000000000000000000000000000",
"000000000000000000000000000000000000000000000000000000001b0000000004070502010104547542060000000000000000000000000000000000000000",
"0000000000000000000000000000000000000000000000000000000019000000000615000100000408737a6a0000000000000000000000000000000000000000",
"000000000000000000000000000000000000000000000000000000001b000101000b1c17181004087a718c6b0000000000000000000000000000000000000000",
"000000000000000000000000000000000000000000000000000000090906000017191d1f1c1c04677c8c8c6e0000000000000000000000000000000000000000",
"0000000000000000000000000000000000000000000000000000000a0a081006131d1d1d1d1f27727b7f73270000000000000000000000000000000000000000",
"0000000000000000000000000000000000000000000000000000000a12160a07191d16191f34367e7a7751000000870000000000000000000000000000000000",
"000000000000000000000000000000000000000000000000000000000107190c113e170d1b20387e21393900ae7cb11100000000000000000000000000000000",
"00000000000000000000000000000000000000000000000000003917132015141141260a111b1412152b26abb4b4b7ad00000000000000000000000000000000",
"0000000000000000000000000000000000000000000001292d0b1c180f14171b1c3e380c1a2822110e141e7fb4ac9eab01000000000000000000000000000000",
"00000000000000000000000000000000000000000101463d390a0e100e10151c1c4036231e1f290b09141c29a08384a79a000000000000000000000000000000",
"000000000000000000000000000000000000000014383d41390c0c120f0f10171a3732342313260708131d23599cb5b03c000000000000000000000000000000",
"000000000000000000000000000000000000013a3d3e3e4039250c1614121113132c3d423015300708131c242eab550200000000000000000000000000000000",
"000000000000000000000000000000000000443e3e403e3c38390b151b181b10111c220d2d07430d08141c1c3700000000000000000000000000000000000000",
"0000000000000000000000000000000000001c3e4240403d393a0c1b02000014110c0c0d322039101a192d010000000000000000000000000000000000000000",
"00000000000000000000000000000000000000373939403f3d380900000000140f0b0b13342c2e3c010000000000000000000000000000000000000000000000",
"00000000000000000000000000000000000000373b373d3b31000000000000110f121215382b1d01000000000000000000000000000000000000000000000000",
"0000000000000000000000000000000000000000413c3c0100000000000000110f0a111112212600000000000000000000000000000000000000000000000000",
"0000000000000000000000000000000000000000000000010100000000000001130e0d0e103e2c01000000000000000000000000000000000000000000000000",
"000000000000000000000000000000000000000000000000000000000000000017110f0d1a363100000000000000000000000000000000000000000000000000",
"00000000000000000000000000000000000000000000000000000000000002141b15100f14241f00000000000000000000000000000000000000000000000000",
"0000000000000000000000000000000000000000000000000000000001190c07211c1d0c0f181102000000000000000000000000000000000000000000000000",
"00000000000000000000000000000000000000000000000000000019100604032820170b0c101b27010000000000000000000000000000000000000000000000",
"000000000000000000000000000000000000000000000000001c1007060707061a18150709032028280000000000000000000000000000000000000000000000",
"00000000000000000000000000000000000000000000001f08100407070706050409110903060928292f00000000000000000000000000000000000000000000",
"0000000000000000000000000000000000000000000076040105040705080707031b100b0406050e29293a000000000000000000000000000000000000000000",
"0000000000000000000000000000000000000000000034020303040605060304121a090b050505081a2a2a300000000000000000000000000000000000000000",
"0000000000000000000000000000000000000000000000080303040604052000000027030505050608242c2b3900000000000000000000000000000000000000",
"000000000000000000000000000000000000000000000011030205061e0100000000001f06060506060826252111000000000000000000000000000000000000",
"00000000000000000000000000000000000000000000010304031e0100000000000000001805050606060d1e1c2c000000000000000000000000000000000000",
"000000000000000000000000000000000000000000000101130101000000000000000000001e0406060606142965570000000000000000000000000000000000",
"000000000000000000000000000000000000000000000000000000000000000000000000000002040505060720b1843e00000000000000000000000000000000",
"000000000000000000000000000000000000000000060100000000000000000000000000000001020304090a092f39822c000000000000000000000000000000",
"0000000000000000000000000000000000000000000501000000000000000000000000000000000007040505080931bd65000000000000000000000000000000",
"000000000000000000000000000000000000000000000000000000000000000000000000000000000303040605040e2101000000000000000000000000000000",
"00000000000000000000000000000000000000000000000000000000000000000000000000000001001404061507090000000000000000000000000000000000",
"0000000000000000000000000000000000000000000000000000000000000000000000000000000000000e040001010000000000000000000000000000000000",
"00000000000000000000000000000000000000000000000000000000000000000000000000000000000000000000000000000000000000000000000000000000",
"00000000000000000000000000000000000000000000000000000000000000000000000000000000000102000000000000000000000000000000000000000000",
"00000000000000000000000000000000000000000000000000000000000000000000000000000000000e17000000000000000000000000000000000000000000",
"00000000000000000000000000000000000000000000000000000000000000000000000000000000011216000000000000000000000000000000000000000000",
"00000000000000000000000000000000000000000000000000000000000000000000000000000000000000000000000000000000000000000000000000000000",
"00000000000000000000000000000000000000000000000000000000000000000000000000000000000000000000000000000000000000000000000000000000",
"00000000000000000000000000000000000000000000000000000000000000000000000000000000000000000000000000000000000000000000000000000000",
"00000000000000000000000000000000000000000000000000000000000000000000000000000000000000000000000000000000000000000000000000000000",
"00000000000000000000000000000000000000000000000000000000000000000000000000000000000000000000000000000000000000000000000000000000",
"00000000000000000000000000000000000000000000000000000000000000000000000000000000000000000000000000000000000000000000000000000000",
"00000000000000000000000000000000000000000000000000000000000000000000000000000000000000000000000000000000000000000000000000000000",
"00000000000000000000000000000000000000000000000000000000000000000000000000000000000000000000000000000000000000000000000000000000",
};
