/* XPM */
static char *image[] = {
"64 64 256 2",
"00 c #000000",
"01 c #010101",
"02 c #020202",
"03 c #030303",
"04 c #040404",
"05 c #050505",
"06 c #060606",
"07 c #070707",
"08 c #080808",
"09 c #090909",
"0a c #0a0a0a",
"0b c #0b0b0b",
"0c c #0c0c0c",
"0d c #0d0d0d",
"0e c #0e0e0e",
"0f c #0f0f0f",
"10 c #101010",
"11 c #111111",
"12 c #121212",
"13 c #131313",
"14 c #141414",
"15 c #151515",
"16 c #161616",
"17 c #171717",
"18 c #181818",
"19 c #191919",
"1a c #1a1a1a",
"1b c #1b1b1b",
"1c c #1c1c1c",
"1d c #1d1d1d",
"1e c #1e1e1e",
"1f c #1f1f1f",
"20 c #202020",
"21 c #212121",
"22 c #222222",
"23 c #232323",
"24 c #242424",
"25 c #252525",
"26 c #262626",
"27 c #272727",
"28 c #282828",
"29 c #292929",
"2a c #2a2a2a",
"2b c #2b2b2b",
"2c c #2c2c2c",
"2d c #2d2d2d",
"2e c #2e2e2e",
"2f c #2f2f2f",
"30 c #303030",
"31 c #313131",
"32 c #323232",
"33 c #333333",
"34 c #343434",
"35 c #353535",
"36 c #363636",
"37 c #373737",
"38 c #383838",
"39 c #393939",
"3a c #3a3a3a",
"3b c #3b3b3b",
"3c c #3c3c3c",
"3d c #3d3d3d",
"3e c #3e3e3e",
"3f c #3f3f3f",
"40 c #404040",
"41 c #414141",
"42 c #424242",
"43 c #434343",
"44 c #444444",
"45 c #454545",
"46 c #464646",
"47 c #474747",
"48 c #484848",
"49 c #494949",
"4a c #4a4a4a",
"4b c #4b4b4b",
"4c c #4c4c4c",
"4d c #4d4d4d",
"4e c #4e4e4e",
"4f c #4f4f4f",
"50 c #505050",
"51 c #515151",
"52 c #525252",
"53 c #535353",
"54 c #545454",
"55 c #555555",
"56 c #565656",
"57 c #575757",
"58 c #585858",
"59 c #595959",
"5a c #5a5a5a",
"5b c #5b5b5b",
"5c c #5c5c5c",
"5d c #5d5d5d",
"5e c #5e5e5e",
"5f c #5f5f5f",
"60 c #606060",
"61 c #616161",
"62 c #626262",
"63 c #636363",
"64 c #646464",
"65 c #656565",
"66 c #666666",
"67 c #676767",
"68 c #686868",
"69 c #696969",
"6a c #6a6a6a",
"6b c #6b6b6b",
"6c c #6c6c6c",
"6d c #6d6d6d",
"6e c #6e6e6e",
"6f c #6f6f6f",
"70 c #707070",
"71 c #717171",
"72 c #727272",
"73 c #737373",
"74 c #747474",
"75 c #757575",
"76 c #767676",
"77 c #777777",
"78 c #787878",
"79 c #797979",
"7a c #7a7a7a",
"7b c #7b7b7b",
"7c c #7c7c7c",
"7d c #7d7d7d",
"7e c #7e7e7e",
"7f c #7f7f7f",
"80 c #808080",
"81 c #818181",
"82 c #828282",
"83 c #838383",
"84 c #848484",
"85 c #858585",
"86 c #868686",
"87 c #878787",
"88 c #888888",
"89 c #898989",
"8a c #8a8a8a",
"8b c #8b8b8b",
"8c c #8c8c8c",
"8d c #8d8d8d",
"8e c #8e8e8e",
"8f c #8f8f8f",
"90 c #909090",
"91 c #919191",
"92 c #929292",
"93 c #939393",
"94 c #949494",
"95 c #959595",
"96 c #969696",
"97 c #979797",
"98 c #989898",
"99 c #999999",
"9a c #9a9a9a",
"9b c #9b9b9b",
"9c c #9c9c9c",
"9d c #9d9d9d",
"9e c #9e9e9e",
"9f c #9f9f9f",
"a0 c #a0a0a0",
"a1 c #a1a1a1",
"a2 c #a2a2a2",
"a3 c #a3a3a3",
"a4 c #a4a4a4",
"a5 c #a5a5a5",
"a6 c #a6a6a6",
"a7 c #a7a7a7",
"a8 c #a8a8a8",
"a9 c #a9a9a9",
"aa c #aaaaaa",
"ab c #ababab",
"ac c #acacac",
"ad c #adadad",
"ae c #aeaeae",
"af c #afafaf",
"b0 c #b0b0b0",
"b1 c #b1b1b1",
"b2 c #b2b2b2",
"b3 c #b3b3b3",
"b4 c #b4b4b4",
"b5 c #b5b5b5",
"b6 c #b6b6b6",
"b7 c #b7b7b7",
"b8 c #b8b8b8",
"b9 c #b9b9b9",
"ba c #bababa",
"bb c #bbbbbb",
"bc c #bcbcbc",
"bd c #bdbdbd",
"be c #bebebe",
"bf c #bfbfbf",
"c0 c #c0c0c0",
"c1 c #c1c1c1",
"c2 c #c2c2c2",
"c3 c #c3c3c3",
"c4 c #c4c4c4",
"c5 c #c5c5c5",
"c6 c #c6c6c6",
"c7 c #c7c7c7",
"c8 c #c8c8c8",
"c9 c #c9c9c9",
"ca c #cacaca",
"cb c #cbcbcb",
"cc c #cccccc",
"cd c #cdcdcd",
"ce c #cecece",
"cf c #cfcfcf",
"d0 c #d0d0d0",
"d1 c #d1d1d1",
"d2 c #d2d2d2",
"d3 c #d3d3d3",
"d4 c #d4d4d4",
"d5 c #d5d5d5",
"d6 c #d6d6d6",
"d7 c #d7d7d7",
"d8 c #d8d8d8",
"d9 c #d9d9d9",
"da c #dadada",
"db c #dbdbdb",
"dc c #dcdcdc",
"dd c #dddddd",
"de c #dedede",
"df c #dfdfdf",
"e0 c #e0e0e0",
"e1 c #e1e1e1",
"e2 c #e2e2e2",
"e3 c #e3e3e3",
"e4 c #e4e4e4",
"e5 c #e5e5e5",
"e6 c #e6e6e6",
"e7 c #e7e7e7",
"e8 c #e8e8e8",
"e9 c #e9e9e9",
"ea c #eaeaea",
"eb c #ebebeb",
"ec c #ececec",
"ed c #ededed",
"ee c #eeeeee",
"ef c #efefef",
"f0 c #f0f0f0",
"f1 c #f1f1f1",
"f2 c #f2f2f2",
"f3 c #f3f3f3",
"f4 c #f4f4f4",
"f5 c #f5f5f5",
"f6 c #f6f6f6",
"f7 c #f7f7f7",
"f8 c #f8f8f8",
"f9 c #f9f9f9",
"fa c #fafafa",
"fb c #fbfbfb",
"fc c #fcfcfc",
"fd c #fdfdfd",
"fe c #fefefe",
"ff c #ffffff",
"00000000000000000000000000000000000000000000000000000000000000000000000000000000000000000000000000000000000000000000000000000000",
"00000000000000000000000000000000000000000000000000000000000000000000000000000000000000000000000000000000000000000000000000000000",
"00000000000000000000000000000000000000000000000000000000000000000000000000000000000000000000000000000000000000000000000000000000",
"00000000000000000000000000000000000000000000000000000000000000000000000000000000000000000000000000000000000000000000000000000000",
"00000000000000000000000000000000000000000000000000000000000000000000000000000000000000000000000000000000000000000000000000000000",
"00000000000000000000000000000000000000000000000000000000000000000000000000000000000000000000000000000000000000000000000000000000",
"00000000000000000000000000000000000000000000000000000000000000000000000000000000000000000000000000000000000000000000000000000000",
"00000000000000000000000000000000000000000000000000000000000000000000000000000000000000000000000000000000000000000000000000000000",
"00000000000000000000000000000000000000000000000000000000000000000000000000000000000000000000000000000000000000000000000000000000",
"00000000000000000000000000000000000000000000000000000000000000000000021500000100000000000000000000000000000000000000000000000000",
"0000000000000000000000000000000000000000000000000000000000002d371a0d080b07060837510700010100000000000000000000000000000000000000",
"000000000000000000000000000000000000000000000000000000000000160101020205080907080c080b192702030000000000000000000000000000000000",
"00000000000000000000000000000000000000000000000000000000001401000000000000010404070807090201000000000000000000000000000000000000",
"00000000000000000000000000000000000000000000000000000000000201000000000000010101010204030113000000000000000000000000000000000000",
"00000000000000000000000000000000000000000000000000000000000001000000010101000001010102020219000000000000000000000000000000000000",
"00000000000000000000000000000000000000000000000000000000000000000000010001000001010102030217000000000000000000000000000000000000",
"0000000000000000000000000000000000000000000000000000000000000100000001010101010201044b0a2828000000000000000000000000000000000000",
"00000000000000000000000000000000000000000000000000000000000000000000000001000101000642670f1e000000000000000000000000000000000000",
"00000000000000000000000000000000000000000000000000000000000f0100000000140a050100003b70170511000001000000000000000000000000000000",
"00000000000000000000000000000000000000000000000000000000013900000000011602010001011c827f5600000000000000000000000000000000000000",
"00000000000000000000000000000000000000000000000000000000010606010101002020161b0001317a880101000000000000000000000000000000000000",
"00000000000000000000000000000000000000000000000000000000020a0703010d1b1e20272601397a89890000000000000000000000000000000000000000",
"000000000000000000000000000000000000000000000000000000000111120b0a1215141d282a29718184840001010000000000000000000000000000000000",
"0000000000000000000000000000000000000000000000000000000001012c0904121b0c13242e30858267390001000000000000000000000000000000000000",
"00000000000000000000000000000000000000000000000000000000000000280f52390c051a27328725322d0000085d00000000000000000000000000000000",
"00000000000000000000000000000000000000000000000000000000061c15111039411f0414231208223274a9a994a701000000000000000000000000000000",
"00000000000000000000000000000000000000000000000000001b1a0d12131516193e3c121b211c060d1f2aaaaaa9a662000000000000000000000000000000",
"000000000000000000000000000000000000000000000001020d0a140c0c0c1214124437381b1b0f05101f2845a9a2a0a5000000000000000000000000000000",
"0000000000000000000000000000000000000000000000003731070c0c0c0d0c1114234547311a05070f20272996949799010000000000000000000000000000",
"00000000000000000000000000000000000000000000003e39341508120f0d0f0f0d0e420c0f220e081522292b9aa8aa98000000000000000000000000000000",
"0000000000000000000000000000000000000000000026373a35320b13141613100d100c1214360b0d1826282c83a10100000000000000000000000000000000",
"00000000000000000000000000000000000000000000393638352f280a132c12110c0b151c28381a000000000000000000000000000000000000000000000000",
"0000000000000000000000000000000000000000003937393835312b2931011b101111121f292229000000000000000000000000000000000000000000000000",
"0000000000000000000000000000000000000000003737393938353541000039100c111119222501000000000000000000000000000000000000000000000000",
"0000000000000000000000000000000000000000003735353538363e00000014120f11110f352901000000000000000000000000000000000000000000000000",
"00000000000000000000000000000000000000000000343030343d00000000001813120f193e2d00000000000000000000000000000000000000000000000000",
"000000000000000000000000000000000000000000000137363c0000000001011d12111118302200000000000000000000000000000000000000000000000000",
"0000000000000000000000000000000000000000000000002402000000000107211e1c0f13271200000000000000000000000000000000000000000000000000",
"0000000000000000000000000000000000000000000000000000000000001c042420170c1114193c000000000000000000000000000000000000000000000000",
"0000000000000000000000000000000000000000000000000000191215080401211b14080a131828030000010000000000000000000000000000000000000000",
"000000000000000000000000000000000000000000000001370d100b09050503050b100907031d26270100000000000000000000000000000000000000000000",
"00000000000000000000000000000000000000000000016e09050605050405050c190f0607060425292700000000000000000000000000000000000000000000",
"0000000000000000000000000000000000000000000000070305060506040505040c0a0906050606252626000000000000000000000000000000000000000000",
"000000000000000000000000000000000000000000000000020506050605050507011005060506061225283b0000000100000000000000000000000000000000",
"00000000000000000000000000000000000000000000000e07050605070505050100010606060505062229280001000000000000000000000000000000000000",
"00000000000000000000000000000000000000000000002d06050606060301000000000104050505050428222300000000000000000000000000000000000000",
"0000000000000000000000000000000000000000001217180613360101000000000000000103050505050d263229000000000000000000000000000000000000",
"00000000000000000000000000000000000000001a191919171818171610010000000000001f05050505052130ac2b0000000000000000000000000000000000",
"0000000000000000000001090708121a1d191a1918181918181716161715141800000000000007030407060948bb350000000000000000000000000000000000",
"000000000000000000001f1e1b1a1a1a1b1919191918171717171717171514141404000000000105060505042f347b0300000000000000000000000000000000",
"0000000000000000211f1b1a1b1a1a191a191919181817171717171717151415151a000000000020060606050630bc1301000000000000000000000000000000",
"0000000000000001051c1a1a1c1c1919191919191918161616161616161c1906000000000000000005050605060e360000000000000000000000000000000000",
"000000000000000000001d1a1c1a1a19191819171818161616161616141736000000000000000000010618240709030000000000000000000000000000000000",
"0000000000000000001e1d1b1b1b19181a1819141904042f14161714161618000000000000000000000037350100000000000000000000000000000000000000",
"000000000000000000000001261b1a191818171a0000000000000001020001000000000000000000000001020000000000000000000000000000000000000000",
"00000000000000000000000001000003151722000000000001010000000000000000000000000000000000000000000000000000000000000000000000000000",
"00000000000000000000000000000000000000000000000000000000000000000000000000000000000000000000000000000000000000000000000000000000",
"00000000000000000000000000000000000000000000000000000000000000000000000000000000000100000000000000000000000000000000000000000000",
"00000000000000000000000000000000000000000000000000000000000000000000000000000000000000000000000000000000000000000000000000000000",
"00000000000000000000000000000000000000000000000000000000000000000000000000000000000000000000000000000000000000000000000000000000",
"00000000000000000000000000000000000000000000000000000000000000000000000000000000000000000000000000000000000000000000000000000000",
"00000000000000000000000000000000000000000000000000000000000000000000000000000000000000000000000000000000000000000000000000000000",
"00000000000000000000000000000000000000000000000000000000000000000000000000000000000000000000000000000000000000000000000000000000",
"00000000000000000000000000000000000000000000000000000000000000000000000000000000000000000000000000000000000000000000000000000000",
};
