/* XPM */
static char *image[] = {
"64 64 256 2",
"00 c #000000",
"01 c #010101",
"02 c #020202",
"03 c #030303",
"04 c #040404",
"05 c #050505",
"06 c #060606",
"07 c #070707",
"08 c #080808",
"09 c #090909",
"0a c #0a0a0a",
"0b c #0b0b0b",
"0c c #0c0c0c",
"0d c #0d0d0d",
"0e c #0e0e0e",
"0f c #0f0f0f",
"10 c #101010",
"11 c #111111",
"12 c #121212",
"13 c #131313",
"14 c #141414",
"15 c #151515",
"16 c #161616",
"17 c #171717",
"18 c #181818",
"19 c #191919",
"1a c #1a1a1a",
"1b c #1b1b1b",
"1c c #1c1c1c",
"1d c #1d1d1d",
"1e c #1e1e1e",
"1f c #1f1f1f",
"20 c #202020",
"21 c #212121",
"22 c #222222",
"23 c #232323",
"24 c #242424",
"25 c #252525",
"26 c #262626",
"27 c #272727",
"28 c #282828",
"29 c #292929",
"2a c #2a2a2a",
"2b c #2b2b2b",
"2c c #2c2c2c",
"2d c #2d2d2d",
"2e c #2e2e2e",
"2f c #2f2f2f",
"30 c #303030",
"31 c #313131",
"32 c #323232",
"33 c #333333",
"34 c #343434",
"35 c #353535",
"36 c #363636",
"37 c #373737",
"38 c #383838",
"39 c #393939",
"3a c #3a3a3a",
"3b c #3b3b3b",
"3c c #3c3c3c",
"3d c #3d3d3d",
"3e c #3e3e3e",
"3f c #3f3f3f",
"40 c #404040",
"41 c #414141",
"42 c #424242",
"43 c #434343",
"44 c #444444",
"45 c #454545",
"46 c #464646",
"47 c #474747",
"48 c #484848",
"49 c #494949",
"4a c #4a4a4a",
"4b c #4b4b4b",
"4c c #4c4c4c",
"4d c #4d4d4d",
"4e c #4e4e4e",
"4f c #4f4f4f",
"50 c #505050",
"51 c #515151",
"52 c #525252",
"53 c #535353",
"54 c #545454",
"55 c #555555",
"56 c #565656",
"57 c #575757",
"58 c #585858",
"59 c #595959",
"5a c #5a5a5a",
"5b c #5b5b5b",
"5c c #5c5c5c",
"5d c #5d5d5d",
"5e c #5e5e5e",
"5f c #5f5f5f",
"60 c #606060",
"61 c #616161",
"62 c #626262",
"63 c #636363",
"64 c #646464",
"65 c #656565",
"66 c #666666",
"67 c #676767",
"68 c #686868",
"69 c #696969",
"6a c #6a6a6a",
"6b c #6b6b6b",
"6c c #6c6c6c",
"6d c #6d6d6d",
"6e c #6e6e6e",
"6f c #6f6f6f",
"70 c #707070",
"71 c #717171",
"72 c #727272",
"73 c #737373",
"74 c #747474",
"75 c #757575",
"76 c #767676",
"77 c #777777",
"78 c #787878",
"79 c #797979",
"7a c #7a7a7a",
"7b c #7b7b7b",
"7c c #7c7c7c",
"7d c #7d7d7d",
"7e c #7e7e7e",
"7f c #7f7f7f",
"80 c #808080",
"81 c #818181",
"82 c #828282",
"83 c #838383",
"84 c #848484",
"85 c #858585",
"86 c #868686",
"87 c #878787",
"88 c #888888",
"89 c #898989",
"8a c #8a8a8a",
"8b c #8b8b8b",
"8c c #8c8c8c",
"8d c #8d8d8d",
"8e c #8e8e8e",
"8f c #8f8f8f",
"90 c #909090",
"91 c #919191",
"92 c #929292",
"93 c #939393",
"94 c #949494",
"95 c #959595",
"96 c #969696",
"97 c #979797",
"98 c #989898",
"99 c #999999",
"9a c #9a9a9a",
"9b c #9b9b9b",
"9c c #9c9c9c",
"9d c #9d9d9d",
"9e c #9e9e9e",
"9f c #9f9f9f",
"a0 c #a0a0a0",
"a1 c #a1a1a1",
"a2 c #a2a2a2",
"a3 c #a3a3a3",
"a4 c #a4a4a4",
"a5 c #a5a5a5",
"a6 c #a6a6a6",
"a7 c #a7a7a7",
"a8 c #a8a8a8",
"a9 c #a9a9a9",
"aa c #aaaaaa",
"ab c #ababab",
"ac c #acacac",
"ad c #adadad",
"ae c #aeaeae",
"af c #afafaf",
"b0 c #b0b0b0",
"b1 c #b1b1b1",
"b2 c #b2b2b2",
"b3 c #b3b3b3",
"b4 c #b4b4b4",
"b5 c #b5b5b5",
"b6 c #b6b6b6",
"b7 c #b7b7b7",
"b8 c #b8b8b8",
"b9 c #b9b9b9",
"ba c #bababa",
"bb c #bbbbbb",
"bc c #bcbcbc",
"bd c #bdbdbd",
"be c #bebebe",
"bf c #bfbfbf",
"c0 c #c0c0c0",
"c1 c #c1c1c1",
"c2 c #c2c2c2",
"c3 c #c3c3c3",
"c4 c #c4c4c4",
"c5 c #c5c5c5",
"c6 c #c6c6c6",
"c7 c #c7c7c7",
"c8 c #c8c8c8",
"c9 c #c9c9c9",
"ca c #cacaca",
"cb c #cbcbcb",
"cc c #cccccc",
"cd c #cdcdcd",
"ce c #cecece",
"cf c #cfcfcf",
"d0 c #d0d0d0",
"d1 c #d1d1d1",
"d2 c #d2d2d2",
"d3 c #d3d3d3",
"d4 c #d4d4d4",
"d5 c #d5d5d5",
"d6 c #d6d6d6",
"d7 c #d7d7d7",
"d8 c #d8d8d8",
"d9 c #d9d9d9",
"da c #dadada",
"db c #dbdbdb",
"dc c #dcdcdc",
"dd c #dddddd",
"de c #dedede",
"df c #dfdfdf",
"e0 c #e0e0e0",
"e1 c #e1e1e1",
"e2 c #e2e2e2",
"e3 c #e3e3e3",
"e4 c #e4e4e4",
"e5 c #e5e5e5",
"e6 c #e6e6e6",
"e7 c #e7e7e7",
"e8 c #e8e8e8",
"e9 c #e9e9e9",
"ea c #eaeaea",
"eb c #ebebeb",
"ec c #ececec",
"ed c #ededed",
"ee c #eeeeee",
"ef c #efefef",
"f0 c #f0f0f0",
"f1 c #f1f1f1",
"f2 c #f2f2f2",
"f3 c #f3f3f3",
"f4 c #f4f4f4",
"f5 c #f5f5f5",
"f6 c #f6f6f6",
"f7 c #f7f7f7",
"f8 c #f8f8f8",
"f9 c #f9f9f9",
"fa c #fafafa",
"fb c #fbfbfb",
"fc c #fcfcfc",
"fd c #fdfdfd",
"fe c #fefefe",
"ff c #ffffff",
"00000000000000000000000000000000000000000000000000000000000000000000000000000000000000000000000000000000000000000000000000000000",
"00000000000000000000000000000000000000000000000000000000000000000000000000000000000000000000000000000000000000000000000000000000",
"00000000000000000000000000000000000000000000000000000000000000000000000000000000000000000000000000000000000000000000000000000000",
"00000000000000000000000000000000000000000000000000000000000000000000000000000000000000000000000000000000000000000000000000000000",
"00000000000000000000000000000000000000000000000000000000000000000000000000000000000000000000000000000000000000000000000000000000",
"00000000000000000000000000000000000000000000000000000000000000000000000000000000000000000000000000000000000000000000000000000000",
"00000000000000000000000000000000000000000000000000000000000000000000000000000000000000000000000000000000000000000000000000000000",
"00000000000000000000000000000000000000000000000000000000000000000000000000000000000000000000000000000000000000000000000000000000",
"00000000000000000000000000000000000000000000000000000000000000000000000000000000000000000000000000000000000000000000000000000000",
"00000000000000000000000000000000000000000000000000000000000000000000000000000100000000000000000000000000000000000000000000000000",
"00000000000000000000000000000000000000000000000000000000000000010000010621000000000000000000000000000000000000000000000000000000",
"00000000000000000000000000000000000000000000000000000000000000000a11060408070909433f17000000000000000000000000000000000000000000",
"0000000000000000000000000000000000000000000000000000000000000014000403040605090a090907253f1d070000000000000000000000000000000000",
"00000000000000000000000000000000000000000000000000000000000000020001010101020508090909060606040e00000000000000000000000000000000",
"000000000000000000000000000000000000000000000000000000000000010200010100010102010303050805030a0100000000000000000000000000000000",
"00000000000000000000000000000000000000000000000000000000000000000001010101010101010001030103010000000000000000000000000000000000",
"00000000000000000000000000000000000000000000000000000000000000000001040001010101010100000101010000000000000000000000000000000000",
"00000000000000000000000000000000000000000000000000000000000000000000010101000001010101210708040000000000000000000000000000000000",
"0000000000000000000000000000000000000000000000000000000000000100000000010100000101010352340f030000000000000000000000000000000000",
"0000000000000000000000000000000000000000000000000000000000002d01000000000f04020101001e523903010000000000000000000000000000000000",
"0000000000000000000000000000000000000000000000000000000000010500000000001404000101025f7b7802000000000000000000000000000000000000",
"0000000000000000000000000000000000000000000000000000000000300702010000031f0c030100000b727b00000000000000000000000000000000000000",
"0000000000000000000000000000000000000000000000000000000000140a070501141422211f210131717c7e00000000000000000000000000000000000000",
"0000000000000000000000000000000000000000000000000000000000191213070c1115151e292a08637a815e00000000000000000000000000000000000000",
"000000000000000000000000000000000000000000000000000000000000011d050a2b0f0e1a282e2e7d7e680200000000000000000000000000000000000000",
"00000000000000000000000000000000000000000000000000000000000001000c3e3e11080f242e357b332f0000000000000000000000000000000000000000",
"0000000000000000000000000000000000000000000000000000000100011e0e101f39350b071813301b28350101000000000000000000000000000000000000",
"000000000000000000000000000000000000000000000000000000010716161114163f34320b19230b3877a0a09e9a9076000000000000000000000000000000",
"00000000000000000000000000000000000000000000000000000119160d0c0d131415373f30170f0715252c349e999481000000000000000000000000000000",
"00000000000000000000000000000000000000000000000000010b12110b0c0c0f10103f39370b060714232b2b9c999c88000000000000000000000000000000",
"00000000000000000000000000000000000000000000000000300c070c0c0b0c0d0d0c0b0f21110b0d16272b2e8c848990000000000000000000000000000000",
"0000000000000000000000000000000000000000000000000f31340a090f0f10120d0c0c0e122c0c121d2a2b2f85919b87000000000000000000000000000000",
"0000000000000000000000000000000000000000000000003d36342f0b0e1115100a0c10172a33120c252d272d9b9b7300000000000000000000000000000000",
"0000000000000000000000000000000000000000000000013437362d290f170d0a0d1013152a2127010000000000000000000000000000000000000000000000",
"000000000000000000000000000000000000000000000050353536312e2c23150e0b101116222a28000000000000000000000000000000000000000000000000",
"0000000000000000000000000000000000000000000000363535373435431c010f0f100f11383101000000000000000000000000000000000000000000000000",
"00000000000000000000000000000000000000000000003635373536364401001612100f1b3c3401010000000000000000000000000000000000000000000000",
"00000000000000000000000000000000000000000000003332322f32434900001d110f0d172d1e00010000000000000000000000000000000000000000000000",
"0000000000000000000000000000000000000000000000013e313030540000001d1f160d0f2a1400010100000000000000000000000000000000000000000000",
"0000000000000000000000000000000000000000000001000000393800000000261a130a1116182b010100000000000000000000000000000000000000000000",
"0000000000000000000000000000000000000000000000000000001418181f3e110e0b0703151e272f0000000000000000000000000000000000000000000000",
"00000000000000000000000000000000000000000000000000002a1214160f07060d0f0704061b28252e00000000000000000000000000000000000000000000",
"0000000000000000000000000000000000000000000000000000040c101109060b180b070405041d252a32000000000000000000000000000000000000000000",
"000000000000000000000000000000000000000000000000000001040606030507070b0504040507212628010000000000000000000000000000000000000000",
"000000000000000000000000000000000000000000000000002c0704040504050505070405050506072529220000000000000000000000000000000000000000",
"00000000000000000000000000000000000000000000000000040504040404050505080804050505051628220000000000000000000000000000000000000000",
"00000000000000000000000000000000000000000001091b140c0905050506040505000104040505060525213c00000000000000000000000000000000000000",
"0000000000000000000000000000030000020000001919181717161213160c0d0000000000020405060916162501010000000000000000000000000000000000",
"0000000000000000000000000419191b1b1918191b19191818171614161616110500000000140105060509133101010000000000000000000000000000000000",
"0000000000000000000000031b1a19191919191919191717171616161616161614130100000203040404061da01e000000000000000000000000000000000000",
"00000000000000000000001a191819191919191918181817171616161616151614141b00000002040403031c6a14000000000000000000000000000000000000",
"0000000000000000000001191a19191a1a1919191818171717161617171714161401000000002b04040405141b17000000000000000000000000000000000000",
"0000000000000000000001021a19191a1a1919191818171717161614141316200701000000000502030404099d00000000000000000000000000000000000000",
"000000000000000000000000181a1919191918181816191518111414141414141516151515161900001004043f00000000000000000000000000000000000000",
"0000000000000000000000001f1b1818181818181f000000000000001b191615151614141414161f012611220200000000000000000000000000000000000000",
"00000000000000000000000001000002191318190000000000000000000000000002141914141416141415010000000000000000000000000000000000000000",
"00000000000000000000000000000000000000000000000000000000000000000000000000000000000101000000000000000000000000000000000000000000",
"00000000000000000000000000000000000000000000000000000000000000000000000000000001010100000000000000000000000000000000000000000000",
"00000000000000000000000000000000000000000000000000000000000000000000000000000000000000000000000000000000000000000000000000000000",
"00000000000000000000000000000000000000000000000000000000000000000000000000000000000000000000000000000000000000000000000000000000",
"00000000000000000000000000000000000000000000000000000000000000000000000000000000000000000000000000000000000000000000000000000000",
"00000000000000000000000000000000000000000000000000000000000000000000000000000000000000000000000000000000000000000000000000000000",
"00000000000000000000000000000000000000000000000000000000000000000000000000000000000000000000000000000000000000000000000000000000",
"00000000000000000000000000000000000000000000000000000000000000000000000000000000000000000000000000000000000000000000000000000000",
};
