/* XPM */
static char *_3b0d0277dc34150b43b627e04b8469d5xMC1sgBaBL1bklC[] = {
/* columns rows colors chars-per-pixel */
"64 63 256 2 ",
"   c #000000",
".  c #887A67",
"X  c #8B7C6A",
"o  c #41424A",
"O  c #8A7D6A",
"+  c #8C7D6A",
"@  c #884931",
"#  c #8B7D6A",
"$  c #6A331E",
"%  c #28292D",
"&  c #743923",
"*  c #2A3B17",
"=  c #283715",
"-  c #77503B",
";  c #4A6528",
":  c #897C67",
">  c #897B68",
",  c #3C5320",
"<  c #52732C",
"1  c #26282C",
"2  c #6B3520",
"3  c #874830",
"4  c #6B341F",
"5  c #80432B",
"6  c #6B331E",
"7  c #394524",
"8  c #69311C",
"9  c #793D27",
"0  c #502514",
"q  c #7C412A",
"w  c #8A6E5A",
"e  c #7D7B5A",
"r  c #364B1E",
"t  c #4F6A2C",
"y  c #807464",
"u  c #764E3A",
"i  c #66311E",
"p  c #847764",
"a  c #6F794B",
"s  c #854730",
"d  c #716B54",
"f  c #6F3621",
"g  c #2D2E33",
"h  c #6A7747",
"j  c #4E3024",
"k  c #857866",
"l  c #3F4047",
"z  c #84462E",
"x  c #3C3D43",
"c  c #837B62",
"v  c #46464B",
"b  c #61753C",
"n  c #7B7162",
"m  c #3F5821",
"M  c #30421A",
"N  c #2E4019",
"B  c #836B58",
"V  c #875A45",
"C  c #2A2A2D",
"Z  c #40414A",
"A  c #606045",
"S  c #605B57",
"D  c #817662",
"F  c #6F3923",
"G  c #867B65",
"H  c #512614",
"J  c #706951",
"K  c #37383E",
"L  c #354222",
"P  c #BCBAB8",
"I  c #383439",
"U  c #496128",
"Y  c #243314",
"T  c #394E1C",
"R  c #51712B",
"E  c #846E5B",
"W  c #896752",
"Q  c #8B5C47",
"!  c #80644F",
"~  c #894A31",
"^  c #89553E",
"/  c #4A5F2B",
"(  c #2B2B2F",
")  c #897663",
"_  c #332B2B",
"`  c #6A3824",
"'  c #55573C",
"]  c #7B5A48",
"[  c #7D745E",
"{  c #3B511F",
"}  c #744731",
"|  c #767853",
" . c #AFACAA",
".. c #81462F",
"X. c #928572",
"o. c #8B816C",
"O. c #867C65",
"+. c #4D4844",
"@. c #3D3E46",
"#. c #565353",
"$. c #525937",
"%. c #313237",
"&. c #98918F",
"*. c #314419",
"=. c #435D23",
"-. c #3C4A2A",
";. c #2D3D1A",
":. c #293916",
">. c #506E2B",
",. c #6E3D28",
"<. c #5B5652",
"1. c #826854",
"2. c #50362F",
"3. c #675F59",
"4. c #857461",
"5. c #7A7A57",
"6. c #8A7B68",
"7. c #79705A",
"8. c #46271A",
"9. c #603120",
"0. c #755E4C",
"q. c #4A5530",
"w. c #5D7536",
"e. c #587132",
"r. c #7D735E",
"t. c #543225",
"y. c #929C76",
"u. c #60341F",
"i. c #5A5B5C",
"p. c #70422C",
"a. c #344022",
"s. c #BDB8B5",
"d. c #B7B6B6",
"f. c #323A19",
"g. c #414D2F",
"h. c #485A30",
"j. c #2C3C18",
"k. c #B6CB0B",
"l. c #896B57",
"z. c #70675E",
"x. c #795541",
"c. c #69625B",
"v. c #7A5743",
"b. c #72645B",
"n. c #877461",
"m. c #776D61",
"M. c #746D57",
"N. c #7D5D49",
"B. c #3D4827",
"V. c #514F4F",
"C. c #89725F",
"Z. c #766E53",
"A. c #683420",
"S. c #724937",
"D. c #9CA57B",
"F. c #7A8F56",
"G. c #68644C",
"H. c #513A30",
"J. c #4D4B4E",
"K. c #978D79",
"L. c #4B5033",
"P. c #B6BE97",
"I. c #B2B793",
"U. c #434241",
"Y. c #562C1B",
"T. c #9C9183",
"R. c #3B371B",
"E. c #657541",
"W. c #4B5134",
"Q. c #66634A",
"!. c #8A7E7A",
"~. c #2F3415",
"^. c #526632",
"/. c #5E5A3F",
"(. c #303F1C",
"). c #5A351C",
"_. c #505537",
"`. c #414A2B",
"'. c #423D1E",
"]. c #403A1B",
"[. c #5B3224",
"{. c #5C391F",
"}. c #4B6729",
"|. c #A09E9E",
" X c #303B23",
".X c #587532",
"XX c #5A693D",
"oX c #76880E",
"OX c #9FB611",
"+X c #465D1F",
"@X c #3D3B3A",
"#X c #884F37",
"$X c #312A2B",
"%X c #382B2A",
"&X c #4B3730",
"*X c #6F5A48",
"=X c #412D27",
"-X c #827E6B",
";X c #786356",
":X c #B8B4B0",
">X c #8A8C69",
",X c #A7A4A4",
"<X c #494042",
"1X c #695241",
"2X c #424047",
"3X c #383031",
"4X c #A9A195",
"5X c #A09689",
"6X c #ADB08D",
"7X c #939090",
"8X c #C8C5C4",
"9X c #A7A4A3",
"0X c #40331F",
"qX c #8B7A6D",
"wX c #6A674E",
"eX c #411F11",
"rX c #A49B8E",
"tX c #6E7561",
"yX c #444227",
"uX c #54612C",
"iX c #435329",
"pX c #3F1F0F",
"aX c #636F41",
"sX c #6B4A34",
"dX c #C1BDB8",
"fX c #61723D",
"gX c #AFA89F",
"hX c #7C6340",
"jX c #764D2E",
"kX c #64634A",
"lX c #363E1D",
"zX c #8A7D68",
"xX c #AAA7A7",
"cX c #5C4124",
"vX c #9AAA87",
"bX c #3E4E2B",
"nX c #8D8887",
"mX c #9E9486",
"MX c #859671",
"NX c #707173",
"BX c #233013",
"VX c #72815F",
"CX c #50603D",
"ZX c #202E0F",
"AX c #70800F",
"SX c #869F18",
"DX c #889E13",
"FX c #93AE1A",
"GX c #AFC40B",
"HX c #DAEC01",
"JX c #A1B913",
"KX c #F4FF00",
"LX c #3F5A69",
"PX c #567C67",
"IX c #8A7A6A",
"UX c #887C4A",
/* pixels */
"                                                                                                                                ",
"                                                                                                                                ",
"                                                                                                                                ",
"                                                                                                                                ",
"                                                                                                                                ",
"                                                                                                                                ",
"                                                                                                                                ",
"                                                                                                                                ",
"                                                                                                                                ",
"                                                                                                                                ",
"                                                                                                                                ",
"                                                                                                                                ",
"                                                                                                                                ",
"                                                                                                                                ",
"                                                                                                                                ",
"                                                                                                                                ",
"                                                                                                                                ",
"                                                                        y p                                                     ",
"                                                  X                   . <.S p                                                   ",
"                                                . D c : X             . #.o V.k                                                 ",
"                                              # d B.; | O.c G :       k +.K v n >         G G                                   ",
"                                              # d L N U e.e.w.5.O.O.  . +.%.I v n zX    X h a X                                 ",
"                                                p d 7 M r , R w.b h > G XXg.%.K XXe       E.h X                                 ",
"                                                    J B.:.N { t < t $.E..Xt h.h.>.b | O.a / A #                                 ",
"                                                    + d g.:.j.r U >.m , }.< < < < R ^.$.>.T ' +                                 ",
"                                                      + 7.' ;.:.M =.t *.DXk.JX+Xt FXSX=., M ' +                                 ",
"                                                        + D A 7 :.M T *.k.KXHXT r k.GXm ;.L.M.X                                 ",
"                                                        O # > kX`.* * N oXOXOX+X;.oXAX;.:.Q.+                                   ",
"                                            X X X X X C.w w w w /.:.= :.* r ; R , r *.;.`.d #                                   ",
"                                        X   e e e e e hXjX} @ z cXY Y CXL :.M U R < U W.r.                                      ",
"                                    X G e 5.w.t ; ; ; ; T '...9 {.~.L y.g.ZX* ;.=.>.h G                                         ",
"                                  > c a < }.; T * * * j.* '.q 3 5 {.:.Y -.-.= :.* m aX>                                         ",
"                                # X.a R ; M 7 7 7 7 7 lXf.].F 5 @ p.f.(.MXVXBXbX;.* _..                                         ",
"                    . p p .     X.6XF.; M a.J [ r.r.[ sXu.` ..3 @ 5 ).f.-.a. XvX-.Y _.G                                         ",
"                  # *Xj j 0.  K.I.P.D.h 7 d . # # # # u & z @ @ @ 5 4 ).R. XU.i.a.:.{ fXc                                       ",
"                  # 1XeXpX8.Z.I.P.D.y.>X7.            4.V 3 @ @ @ s q 4 u.H.l I t.].M r t |                                     ",
"                    4.J uXU e.F.y.o.o.o.#             O W @ s 3 q f f $ 6 t.I [.2 0./.(.*.U a : : : :                           ",
"                    # [ iX; < .Xb q.J X                 ) 0.&X` f 8 $ $ $ 9.[.2 N.) D G.L *./ b b b |   :                       ",
"                      p Q.q.{ , T j.A #             + z.S V.( 8.0 0 0 0 0 0 Y.] ) O X k G.A $.{ { { ^.h a :                     ",
"                          W.:.~.R.tX-X              z.J.Z x C 8.H 0 H H H H Y.3.k #     # + M.q., , m m / k                     ",
"                        : wXyX0Xb.8X4X.         y c.v o x %.C =Xu.9 9 9 f 9.j 2XS y + #     + 5.< =.h.L.L p                     ",
"                          # qX!.&. . .rX      # m.v o K g 1 % 1 2.~ @ 3 & j ( l Z <.3.c.k # + Z.m $.M.[ A G                     ",
"                          > 5X:X,X7XP dX    # n S v o %.1 % % 1 2.~ @ 3 & j ( K l Z Z v 3.y + 7.' D #   +                       ",
"                            6.T.s.9X:X:XT.# n #.o o x g % % % 1 2.3 5 5 F j % C x o o o o S m.n >                               ",
"                              # K.P  .xXP o.J.@.@.x g % % % % 1 H.s 4 4 6 t.$XC K @.l Z @.l l #.                                ",
"                                  X.gXs.|.nX#.I % % % % % % % %.<.1.,.4 $ $ 9.%X_ _ I <X3X_ _ +.                                ",
"                                    + mXP |.d.NXx v g 1 1 ( @Xb..   B 2 $ $ $ i i A.9 ..F A.i S.                                ",
"                                      6.X.s.&.!.&.P i.g ( U.y >   O C.,.2 $ $ $ $ q @ @ z & 2 -                                 ",
"                                    O w ^ Q } p.] &. .i.+.y >       . E } 2 2 4 4 5 @ z & 6 u n.                                ",
"                                    O w s & 6 8 ` S.V ;Xn #             E 1.! ..5 s 5 & 4 8 x.#                                 ",
"                                  6.W ^ z 4 $ $ $ 4 v.n.#               O w V ~ @ 9 f F N.! E                                   ",
"                                ) Q #X5 & 6 $ $ p.! . O                   W s & & 4 } 1.. # O                                   ",
"                          O l.V ^ @ q F $ $ $ - B                         ! & $ $ $ ,.- 4.O                                     ",
"                          l.^ 3 z 9 f 8 ` v.] E O                       O N.$ $ $ $ 8 2 u E O                                   ",
"                          W Q Q V - - u x.. O                             B - - - - - - u B O                                   ",
"                                                                                                                                ",
"                                                                                                                                ",
"                                                                                                                                ",
"                                                                                                                                ",
"                                                                                                                                ",
"                                                                                                                                ",
"                                                                                                                                ",
"                                                                                                                                "
};
