/* XPM */
static char *image[] = {
"64 64 714 2",
"00 c #ffffff",
"01 c #b6eab9",
"02 c #d5e0db",
"03 c #d8dede",
"04 c #bae7be",
"05 c #e7fcea",
"06 c #eff4f2",
"07 c #dcdde1",
"08 c #eef8ef",
"09 c #f1f8f3",
"0a c #ebf0ec",
"0b c #dcdddd",
"0c c #dcddde",
"0d c #dbdedd",
"0e c #fdfefd",
"0f c #f8fcfa",
"10 c #e5f7e7",
"11 c #c6f2ca",
"12 c #cff8d0",
"13 c #d7f4d8",
"14 c #b6eabd",
"15 c #b9ecba",
"16 c #d4e5da",
"17 c #e8edea",
"18 c #fdfefe",
"19 c #dcdede",
"1a c #dadedc",
"1b c #dbdedb",
"1c c #fcfefc",
"1d c #fafcfb",
"1e c #e4f3e7",
"1f c #edf6ef",
"20 c #b5ebb8",
"21 c #eaeeec",
"22 c #dddfdf",
"23 c #dadddc",
"24 c #d9deda",
"25 c #d6e0db",
"26 c #fafdfc",
"27 c #f4fbf6",
"28 c #ebf4ed",
"29 c #cdf0cf",
"2a c #d3e0d8",
"2b c #dedee2",
"2c c #dddfe0",
"2d c #d9dedc",
"2e c #bce2bf",
"2f c #fbfdfd",
"30 c #d5e1da",
"31 c #d7e0de",
"32 c #bee6c1",
"33 c #b4eebb",
"34 c #fbfdfc",
"35 c #d8e0df",
"36 c #f9fef9",
"37 c #cdfad3",
"38 c #f7fcf8",
"39 c #e9efeb",
"3a c #dadedd",
"3b c #dadfdb",
"3c c #effcf0",
"3d c #eef8f0",
"3e c #d9dfdc",
"3f c #f3f8f5",
"40 c #b6ecb9",
"41 c #fcfefd",
"42 c #e3efe5",
"43 c #dddee0",
"44 c #c4f3c7",
"45 c #dbdedc",
"46 c #dddedf",
"47 c #fcfdfd",
"48 c #ecf5ee",
"49 c #c8e1cb",
"4a c #10fd11",
"4b c #00fe02",
"4c c #eaffea",
"4d c #91f294",
"4e c #d9dede",
"4f c #d9dedd",
"50 c #d9f6dd",
"51 c #10fe11",
"52 c #00fe01",
"53 c #10fd10",
"54 c #36fe36",
"55 c #c3f2c6",
"56 c #c4e4c9",
"57 c #bce9bf",
"58 c #d5e0da",
"59 c #dddede",
"5a c #cdfed1",
"5b c #04fc0b",
"5c c #00fd07",
"5d c #24f930",
"5e c #e0e2e3",
"5f c #b4f0b6",
"60 c #00fe00",
"61 c #02fc07",
"62 c #fafdfb",
"63 c #fbfcfc",
"64 c #d5e4db",
"65 c #d0e2d6",
"66 c #d7dfde",
"67 c #dbdede",
"68 c #01fd03",
"69 c #00fd01",
"6a c #00fd02",
"6b c #00fd00",
"6c c #1afa25",
"6d c #58f85d",
"6e c #a1fea1",
"6f c #f6f7f8",
"70 c #f5fbf6",
"71 c #f1faf2",
"72 c #f4faf5",
"73 c #03fb16",
"74 c #00fd08",
"75 c #09fa1c",
"76 c #00fd0b",
"77 c #01fc14",
"78 c #00fd06",
"79 c #05fc14",
"7a c #d6f1d8",
"7b c #bdecbf",
"7c c #08fc16",
"7d c #02fb02",
"7e c #55fe56",
"7f c #f0f9f1",
"80 c #d6e0da",
"81 c #1ff735",
"82 c #00fd09",
"83 c #01fc02",
"84 c #00fd03",
"85 c #01fd0a",
"86 c #01fd02",
"87 c #01fc0f",
"88 c #00fd05",
"89 c #73fd74",
"8a c #cbe0d0",
"8b c #f6f8f7",
"8c c #f4fbf5",
"8d c #ebf3ec",
"8e c #d3e1d8",
"8f c #00fe03",
"90 c #11f72b",
"91 c #01fd04",
"92 c #01fc0d",
"93 c #16fa1f",
"94 c #01fc01",
"95 c #27f55b",
"96 c #01fd12",
"97 c #16fc18",
"98 c #dbdddc",
"99 c #f7faf9",
"9a c #d6f6da",
"9b c #d1ddd5",
"9c c #01fd0c",
"9d c #1ef738",
"9e c #18f63a",
"9f c #00fd04",
"a0 c #0cf923",
"a1 c #01fc10",
"a2 c #01fe07",
"a3 c #16fa15",
"a4 c #cce2d0",
"a5 c #d8deda",
"a6 c #fefefe",
"a7 c #dbdddd",
"a8 c #dedfe0",
"a9 c #e1e3e4",
"aa c #d9dedf",
"ab c #afeab1",
"ac c #7af77e",
"ad c #e1f5e4",
"ae c #01fd0d",
"af c #54f77d",
"b0 c #01fc03",
"b1 c #24ef56",
"b2 c #0df825",
"b3 c #02fd05",
"b4 c #05fa19",
"b5 c #02fc04",
"b6 c #d4e0d9",
"b7 c #dcdedd",
"b8 c #e1e2e5",
"b9 c #97ef99",
"ba c #5bf95b",
"bb c #02fb03",
"bc c #01fc0e",
"bd c #00fd0a",
"be c #04fc07",
"bf c #06fa1b",
"c0 c #68f875",
"c1 c #19fa18",
"c2 c #fdfdfd",
"c3 c #dadede",
"c4 c #e2e3e5",
"c5 c #b7e5ba",
"c6 c #8bf28e",
"c7 c #0efa0e",
"c8 c #03fb05",
"c9 c #03fb04",
"ca c #09fc0a",
"cb c #dadedb",
"cc c #fefffe",
"cd c #fcfdfc",
"ce c #dfe1e0",
"cf c #dcdddc",
"d0 c #06fc08",
"d1 c #04fb15",
"d2 c #00fe04",
"d3 c #0ef826",
"d4 c #02fd04",
"d5 c #79f77d",
"d6 c #95ed98",
"d7 c #c2e1c5",
"d8 c #dee0e0",
"d9 c #23fa29",
"da c #01fb02",
"db c #03fc0f",
"dc c #57ee77",
"dd c #0ef827",
"de c #10f712",
"df c #2cf939",
"e0 c #17f924",
"e1 c #6df771",
"e2 c #cfdfd5",
"e3 c #f8fbf9",
"e4 c #02fb04",
"e5 c #02fc0c",
"e6 c #18e940",
"e7 c #09f91f",
"e8 c #acfcac",
"e9 c #a6f7b4",
"ea c #72ed82",
"eb c #c8dfcc",
"ec c #d7dfda",
"ed c #f9fbf9",
"ee c #dddedd",
"ef c #fafcfa",
"f0 c #dedfdf",
"f1 c #f5f6f7",
"f2 c #dbdddf",
"f3 c #e6f6e7",
"f4 c #a3f2a5",
"f5 c #4df950",
"f6 c #3ff944",
"f7 c #8cf28e",
"f8 c #e4fee4",
"f9 c #80fd81",
"fa c #00fc02",
"fb c #01fd01",
"fc c #dddfde",
"fd c #dfe1e1",
"fe c #dfdfe3",
"ff c #d8dfde",
"10 c #dadfde",
"10 c #5ffb5e",
"10 c #06fb15",
"10 c #dedfde",
"10 c #dde0de",
"10 c #d5e1db",
"10 c #c6e2c9",
"10 c #d8f6dd",
"10 c #d2f5d7",
"10 c #c8e5cc",
"10 c #02fd03",
"10 c #01fd13",
"10 c #2af557",
"10 c #02fb15",
"10 c #01fc04",
"10 c #1afa1a",
"11 c #dfe1e2",
"11 c #dfe2e2",
"11 c #e0e1e3",
"11 c #b4ebb7",
"11 c #13fa15",
"11 c #16f929",
"11 c #f0f1f1",
"11 c #dfdfe1",
"11 c #dedfe1",
"11 c #e1e7e4",
"11 c #e8eeea",
"11 c #feffff",
"11 c #dcdedf",
"11 c #a3f0a6",
"11 c #0df90f",
"11 c #21f73b",
"12 c #5ded7a",
"12 c #01fb03",
"12 c #0ff710",
"12 c #fdfffd",
"12 c #e6e7e8",
"12 c #f9fbfa",
"12 c #dedee1",
"12 c #dddde0",
"12 c #ecedee",
"12 c #d6e1db",
"12 c #fcfefe",
"12 c #caf2ce",
"12 c #b0edb3",
"12 c #92f094",
"12 c #5cf861",
"12 c #16fa20",
"13 c #e6e7e9",
"13 c #dcdee0",
"13 c #d2dfd7",
"13 c #55f85b",
"13 c #16fa14",
"13 c #e5e7e7",
"13 c #f6f8f8",
"13 c #e2e5e5",
"13 c #e1e2e4",
"13 c #dfe0e3",
"13 c #e2e2e5",
"13 c #f0fff1",
"13 c #e3e8e6",
"13 c #e1e1e4",
"13 c #f7f9fa",
"13 c #e3e6e6",
"14 c #07fc09",
"14 c #e0e0e3",
"14 c #dfe0e0",
"14 c #f7faf8",
"14 c #f4f7f6",
"14 c #f8f9fa",
"14 c #dadcdc",
"14 c #dddde1",
"14 c #2bf83a",
"14 c #05fc08",
"14 c #dbddde",
"14 c #dbdfe0",
"14 c #01fd10",
"14 c #dfebe3",
"14 c #dee1df",
"14 c #dcdddf",
"15 c #f4f4f5",
"15 c #77fc7b",
"15 c #00fc03",
"15 c #c6fec8",
"15 c #f2faf3",
"15 c #02fd11",
"15 c #85f488",
"15 c #dbe2dd",
"15 c #d8dfdf",
"15 c #c4e0c8",
"15 c #ecf5ed",
"15 c #04fd06",
"15 c #05fc07",
"15 c #0afb0d",
"15 c #d5dfda",
"15 c #ecf0ef",
"16 c #56f958",
"16 c #27f559",
"16 c #5fed7a",
"16 c #0bf822",
"16 c #55f956",
"16 c #d4e1d9",
"16 c #dbe1de",
"16 c #bfe7c2",
"16 c #67f369",
"16 c #20fa24",
"16 c #17f91d",
"16 c #c7fec8",
"16 c #84f387",
"16 c #1ff923",
"16 c #8ffc92",
"16 c #ecf3ef",
"17 c #0ba826",
"17 c #02fc0d",
"17 c #01fd08",
"17 c #74eb83",
"17 c #a0e9a4",
"17 c #0cf824",
"17 c #12f816",
"17 c #e9fbe9",
"17 c #e9eaeb",
"17 c #eaebeb",
"17 c #eef0f0",
"17 c #f5f5f6",
"17 c #f0f0f1",
"17 c #cae5ce",
"17 c #c2e0c5",
"17 c #aee8b0",
"18 c #59f55e",
"18 c #0ff711",
"18 c #aefcb4",
"18 c #f8f9f9",
"18 c #19f920",
"18 c #e8feea",
"18 c #19fa27",
"18 c #11f612",
"18 c #02470a",
"18 c #056e13",
"18 c #55ee75",
"18 c #12f42f",
"18 c #16ed3a",
"18 c #94eb99",
"18 c #0cf823",
"18 c #0afc0f",
"19 c #1bfa1c",
"19 c #2af933",
"19 c #99ed9c",
"19 c #cfded5",
"19 c #dcdcdd",
"19 c #83f886",
"19 c #1bf924",
"19 c #0afc0d",
"19 c #05fa07",
"19 c #04fb06",
"19 c #d7e0dc",
"19 c #56f75b",
"19 c #fafff9",
"19 c #a6fca6",
"19 c #08fc0a",
"19 c #09fa1f",
"1a c #a6f7b5",
"1a c #26f35a",
"1a c #046711",
"1a c #10f72a",
"1a c #01fd05",
"1a c #12f52e",
"1a c #10f713",
"1a c #77f97a",
"1a c #a1f5a4",
"1a c #68f86d",
"1a c #c4e1c7",
"1a c #c7dfca",
"1a c #0af90b",
"1a c #03fc05",
"1a c #dbdedf",
"1a c #f5f5f7",
"1b c #e0fde1",
"1b c #01fd06",
"1b c #8dfc92",
"1b c #27f92f",
"1b c #07fb0b",
"1b c #01fc05",
"1b c #1ae546",
"1b c #02fc12",
"1b c #03fc04",
"1b c #bcfcbe",
"1b c #93f095",
"1b c #c3e2c6",
"1b c #c7e1cb",
"1b c #afebb2",
"1b c #17fa17",
"1b c #6ff873",
"1c c #6ff774",
"1c c #1bfa25",
"1c c #f5f9f7",
"1c c #eff3f1",
"1c c #03fb13",
"1c c #17f637",
"1c c #03fb06",
"1c c #13f72e",
"1c c #3ff754",
"1c c #cee1d2",
"1c c #2ef838",
"1c c #15fb19",
"1c c #abf0ad",
"1c c #b6edb8",
"1c c #1cfa29",
"1c c #7af57b",
"1d c #eef2f0",
"1d c #dadedf",
"1d c #d1e3d7",
"1d c #31f73f",
"1d c #04fc06",
"1d c #36f656",
"1d c #04fb18",
"1d c #7cf781",
"1d c #0bfa0c",
"1d c #9bf19c",
"1d c #d8dfdc",
"1d c #b8e9bb",
"1d c #cee8d1",
"1d c #d2e0d7",
"1d c #65f766",
"1d c #61f76a",
"1e c #f3f5f4",
"1e c #7ff584",
"1e c #07fa1c",
"1e c #50f956",
"1e c #1ff736",
"1e c #08fc09",
"1e c #78d87b",
"1e c #09fb0b",
"1e c #55f85d",
"1e c #dbdde0",
"1e c #73f176",
"1e c #56f95b",
"1e c #f1f4f3",
"1e c #d9dfde",
"1e c #10f611",
"1e c #f5fef7",
"1f c #08fa1d",
"1f c #06fc0a",
"1f c #f0fef0",
"1f c #11f728",
"1f c #62ec7d",
"1f c #04fc08",
"1f c #12f62e",
"1f c #6ffb74",
"1f c #bde5c1",
"1f c #25fa29",
"1f c #33f742",
"1f c #95e798",
"1f c #e7e9e9",
"1f c #e3e8e5",
"1f c #e8eaeb",
"1f c #e4e8e5",
"20 c #75f479",
"20 c #33f93c",
"20 c #d6e9da",
"20 c #e4e8e7",
"20 c #ecf2ed",
"20 c #f4f8f5",
"20 c #edfeed",
"20 c #0bfa0d",
"20 c #05fc06",
"20 c #02fc0e",
"20 c #54ee75",
"20 c #01fc11",
"20 c #05fc0e",
"20 c #3dfc3d",
"20 c #8dfa92",
"20 c #c2fcc5",
"21 c #dcdde0",
"21 c #69f46a",
"21 c #04fc0e",
"21 c #82f486",
"21 c #d5e0d9",
"21 c #e7e9ea",
"21 c #eafeea",
"21 c #30fa32",
"21 c #e5e7e6",
"21 c #ededed",
"21 c #a1f3a3",
"21 c #b6e9b9",
"21 c #f2f9f3",
"21 c #1ef648",
"21 c #15f926",
"21 c #62f764",
"22 c #a1f2a6",
"22 c #b6f1b9",
"22 c #abf3b3",
"22 c #39f844",
"22 c #16fa19",
"22 c #e1e2e2",
"22 c #d9e0df",
"22 c #e5e6e6",
"22 c #c0efc2",
"22 c #1ef921",
"22 c #19f823",
"22 c #9dee9f",
"22 c #d3dfd8",
"22 c #d6dfdc",
"22 c #8bf38f",
"22 c #00fc06",
"23 c #03fc06",
"23 c #0dfb0d",
"23 c #d8e0db",
"23 c #0dfa0f",
"23 c #d9dedb",
"23 c #d7e0dd",
"23 c #05fb06",
"23 c #11f712",
"23 c #31f741",
"23 c #32f64c",
"23 c #02fc14",
"23 c #63fb68",
"23 c #07fc0a",
"23 c #02fc13",
"23 c #14f82a",
"23 c #52f45b",
"24 c #fafffa",
"24 c #01fd0f",
"24 c #08fb09",
"24 c #0dfb11",
"24 c #fafafa",
"24 c #dadddd",
"24 c #d1e2d6",
"24 c #bde4c0",
"24 c #e9e9ea",
"24 c #ebecec",
"24 c #05fb0c",
"24 c #00fd0d",
"24 c #5ef86a",
"24 c #23f92f",
"24 c #12f912",
"24 c #fafafb",
"25 c #d9dfdd",
"25 c #e9e9eb",
"25 c #e2e3e3",
"25 c #0bfb0c",
"25 c #1ef92f",
"25 c #e8e9e9",
"25 c #14f815",
"25 c #07fb08",
"25 c #d1fcd2",
"25 c #ebeceb",
"25 c #ebebeb",
"25 c #ececec",
"25 c #13fa12",
"25 c #03fd0f",
"25 c #01fe01",
"25 c #3bf74d",
"26 c #bce7c0",
"26 c #dde2e0",
"26 c #dbdcdc",
"26 c #e4e7e7",
"26 c #eceded",
"26 c #08f91e",
"26 c #2df747",
"26 c #d1e3d6",
"26 c #e2e2e6",
"26 c #dadddb",
"26 c #e4e9e8",
"26 c #17f639",
"26 c #0af921",
"26 c #dfe2e1",
"26 c #29f837",
"26 c #27f83b",
"27 c #a5fbb0",
"27 c #b1ebb4",
"27 c #d9e0dd",
"27 c #26f558",
"27 c #f9fff9",
"27 c #dbdcdb",
"27 c #9dee9e",
"27 c #1dfa2a",
"27 c #0cf80e",
"27 c #f0f0f0",
"27 c #e6e7e6",
"27 c #f3f3f3",
"27 c #12fb11",
"27 c #4ef851",
"27 c #8ff991",
"27 c #aefcb2",
"28 c #a5f5b5",
"28 c #11f825",
"28 c #16f91c",
"28 c #27f92c",
"28 c #dfdfe2",
"28 c #dedfe2",
"28 c #f8f8f8",
"28 c #d5ded8",
"28 c #94f197",
"28 c #2cf83a",
"28 c #05fc09",
"28 c #cbdfce",
"28 c #dbdee0",
"28 c #88fb89",
"28 c #01fe06",
"28 c #1cfa23",
"29 c #5afb5e",
"29 c #c3e7c7",
"29 c #d3e2d9",
"29 c #d7ddda",
"29 c #eeeff0",
"29 c #d9dfdf",
"29 c #d8e0de",
"29 c #c4e5c8",
"29 c #dadfdf",
"29 c #57f957",
"29 c #58f958",
"29 c #9ff5a7",
"29 c #dadcdb",
"29 c #e7e8e7",
"29 c #ececed",
"29 c #ebecee",
"2a c #e8ecec",
"2a c #e3e4e5",
"2a c #ededef",
"2a c #ededee",
"2a c #eaeceb",
"2a c #65f871",
"2a c #7efc86",
"2a c #e1e2e3",
"2a c #d1ddd3",
"2a c #d3dcd6",
"2a c #d5dcd8",
"2a c #d8dcda",
"2a c #fbfbfb",
"2a c #e0fee1",
"2a c #dddee1",
"2a c #e1e4e4",
"2b c #d9ddda",
"2b c #d6ddda",
"2b c #bef1c0",
"2b c #12f712",
"2b c #0ef70f",
"2b c #dddddf",
"2b c #cddad1",
"2b c #d2ddd4",
"2b c #d9dddc",
"2b c #dae0de",
"2b c #d4ddd8",
"2b c #cfdbd3",
"2b c #cddad0",
"2b c #d6ddd9",
"2b c #92f095",
"2b c #19fa28",
"2c c #11fa19",
"2c c #ccdacf",
"2c c #c9ddcc",
"2c c #2cf933",
"2c c #05fb07",
"2c c #f6f7f7",
"2c c #edeeed",
"2c c #f5f6f6",
"2c c #7cfa86",
"2c c #1ef923",
"00000000000000000000000000000000000000000000000000000000000102030400000000000000000000000000000000000000000000000000000000000000",
"00000000000000000000000000000000000000000000000000000000050607070708000000000000000000000000000000000000000000000000000000000000",
"00000000000000000000000000000000000000000000000000000000090a0b0c0d0e0f1011120000000000000000000000000000001314150000000000000000",
"00000000000000000000000000000000000000000000000000000000161718181819191a1b1c0e1d1e00000000000000000000001f0e181d2000000000000000",
"00000000000000000000000000000000000000000000000000000000032118181822232425262728290000000000000000000000182618262a00000000000000",
"000000000000000000000000000000000000000000000000000000002b211818182c2d2e00000000000000000000000000000000180e0e2f3000000000000000",
"00000000000000000000000000000000000000000000000000000000312118181825320000000000000000000000000000000033341818183536000000000037",
"0000000000000000000000000000000000000000000000000000000038393a193b343c0000000000000000000000000000003d180c3e1919183f000000004041",
"0000000000000000000000000000000000000000000000000000000000420d3b430f000000000000000000000000000000442f18194519461847480000491a18",
"000000004a4b4b4c000000000000000000000000000000000000000000004d4e4f50000051525300000000000000005452552618191919221818265657585918",
"4b4b4b4b4b4b4b4b4b4b00000000000000000000000000000000005a5b5c5d195e5f006060606060000000000000005261006218191919466318186465666718",
"4b4b4b4b4b4b4b4b4b4b4b52000000000000000000000000000068696a6b6c180e6d606060606060600000000000004b4b6e00590e1818185919596f7071723a",
"4b4b4b4b4b4b4b4b4b4b4b607374000000000000606060757677786a6a6a797a7b7c7d606060606060607e000000744b6a00003e181818185919596f0e727f80",
"4b4b4b4b4b4b4b4b4b4b4b526052810000000068826083606974846a6a6a4b858669696060606060606087886060608900008a190e1818185919598b188c8d8e",
"4b4b4b608f9060916a6b524b4b4b929300004b4b4b606060606060606060606069606060606060609474959660970041000000191818180e599859990e289a9b",
"4b4b4b914b959c52699d9e4b529f529f00004b4b4b606060606060606060606060a0a160606060606b91a260a300a4a5a6000000a79819a8181834a9aaabacad",
"4b4b4b60604b524b4bae874b4b609f9faf00684b4b6060606060606060606060b0b1b2606060606052b3b4b500b63b3e0e000000a71919b7181818b858b9ba00",
"4b8f69bb4b4b4b4b4b52524b60bca14bbdbebd91604b606060606060606060606a914b6a606060606abfc0c100c219c300000000191919460e1818c43ac5c600",
"c752c8c9604b4b4b608868ae52525260526a9160606a60606060606060606060606088a14b76606060609fca000000cbcc00000019191919cd1818ce0bcf3ea6",
"00d06a6a6a4b4b4b4bd19e825291d260606052606060606060606060606060606a604bd360d26060524b4bd400000000d5d6d7d84718182f98989899180e4746",
"0000d952da60604b4b4b82dbdc60604b4b60606060606060606060608fdd686a60606060606060604b90c8de00000000dfe0e1e218181818191959e3181818b7",
"00000000e4c86a4b4b4b4be5e66060524b60606060606060606060694be76060606060606060606060a160e800000000e9eaebec1818180e190b19ed18181846",
"a6a6a6a60000006860526b6b6a69914b4b606060605252606060606060606a91606060606060606060605200000000000000ee3e471d47efa8f0f0f147cd1df0",
"f24ea70ecd0ff3f4f5f6f7000000f8f94b526869694b6b60526060694b52686060606060606a606060fafb000000b70b000000000d1919fc18180efd59191900",
"c3c34618411818feff2b1000000000000010b368605283b3606060698452526060696a1052696a6960604b0000101959000000000d19191018180efd19191900",
"c3c34618181818fe46671000000000000010101010100010606a6b60607610606a60821010696910606b681000001959000000000d19191018180efd19195900",
"11111163470e4711111111000000000000111d470ecd1111bb69b0b5e4605260696084696069a111606060b000000011000000001111a81118180e11fda84611",
"1818184646464618000000114646630000a6fe4646193411114b845252e46a6a6a60606060601112126060601212000012981998181818129819196f0e180e59",
"18181859464612180000001246111200000012114646123412121212784b52606060608f526088766b6060609112000013191998181818125919196f0e180e59",
"1818184646462b1800000012460c0000000035464646181847471313134b52606060606b6b6b60606060606052130000131919980e181812591959130e180e59",
"63636313131313632f2f6313000000130000131313fe126313121313008252606060606b6b6b60606060606060140000001414001d633414d8a8a814141212a8",
"4e4e1400000e18461443fe000000144b14002f181818121466140000001091526a60524b52606069604b144b6014b914000000000d98191418180efd19191900",
"c3c314180000184646fe150000156915bb1515181818463e66350000008252157760824b6052bb606b4b904b60b0154f0000000059191915181800fd19191900",
"c3c34600000000461515150015d0156a4b1500181818151235150000164b5252bd604b5260ae16161652604b6a4b16160000000059191916180000fd19195900",
"00000000000000161616161600160016866b1600000000001600000017835268a1174b5260171717176014106086171700000000000000a61717170000171700",
"00000017171718186b524b180018000018525c0000000000181890181818846018186a4b6091181818605252be181919191914190000000019191900000000a7",
"000019191919684b9184190000190000191010190000001919191a1a1a18826b1a1a605260606a1a4b4b1a1a0000001a1a1a581a000000005919590000000059",
"00001a521a60fb528f52b000001a1a001b6a1b151b001b1b1b1be61b1b6b6060606060606060525252101b00000000001b1b191b000000005919190000000059",
"001be4681b1b1c1c60691000001c1c47cc144b4be41c1c526a101c52689160606060606060521ca1171c00000000c2c2000000000000000000000000c2c2c200",
"4f1c1c1c1c0e411c1c52101c47411d1d1d1d1d4b69681769944bb060606060606060606060601d1dfa000000000cc346000000001d1d1d000000000019194600",
"1df21d1d4741181d1d6a4b1d18181e354e1e1460b0924b52526b69bb6a606015b0681e521e1e9f1e1e00000000191998000000001e1e1e000000000059591900",
"14111e0e181818461e604b1e0e471e1effb91e4b60001e741f88604b601f1f131d1f1f1f7373601f1f00000000591998000000001f1f1f1f0000000059191100",
"0000001f1f1f1f1e206952202020201e20202052200000202020916a2000000000000000206a4b60000000000000000000000000002020000000000000000000",
"000000592bfe211821c84b21212121410021d06b521a524b605274d4000000000000a60000144b2100432b350000000021a71914000000002159590000000021",
"000021210c35c3211c9f5221212122222222864be469605260848422000000000022c3b800006900006722350000000022981924000000002119590000000021",
"2222152222222222866960226010b0832323196a847869b0106817000000000000220d2300002300002335230000000021980bc300000000450b590000000059",
"234b6b60232323196a606023ae60601023000000236b6a6a6a232300000000c2c2000000000023240000000000c2c2c200000000a6c2000000000000c2c2c200",
"605c4b60529452606a6060245c8560150000000000246a6a6060240000240746590000000024242424000000a6191919000000001919c3240000000019191900",
"6052606b60604b24246060609c1b606a240000000024e460c86a240000243a3a19000000001a253e25000000a619191900000000191919250000000019191900",
"52526060606b607315606060606060692500000000256a6a6ae4b500000012126700000000a767c3250000000019191900000000191919c20000000059195900",
"5252606060696986606069606a696b6b6b25000000256a6ab0e41a25000000000000252500000000002446250000000000002400000000001725170000000000",
"525260606060916060606060606a60606a4b6a2525e4c82523ca25263a000000002619191900000000260b2400000000263a1411000000001919590000000026",
"52526060609160e46060606026606060606060dd002600000000260c130000000026124619000000002658140000000026cf1919000000001919590000000021",
"52526060604b23606060604b266a6060606b602600000000000014451a00000000264ff211000000004fc3130000262627272719000000001959590000000021",
"52521d914b73276b606b60601078606ae46bbb270000ec140c0000000000c2c2c200000000a62798000000000027274b602700002727c200000000005927c200",
"2727270027684b106052606b2828152828f500000000284643280000002866353a0000000067191925000000002828282728000067cf19000000000019191900",
"282328000028288f601b282900000029292900000000284646290000002829293a000000000b19192500000000191a2900000000144e19000000000019195900",
"29c32b00000000292929000000000067fe1200000000432b461700000000c33e1100000000299898290000000019982900000000a798980000000000594f2b00",
"0000002829292a000000002afe2a0000000024241725000000002a252500000000002924000000000024252a0000000000cf0c25000000002924a60000002a2a",
"00000012462b5900000000fe4646000000002814141400000000194614000000002a59191900000000981998000000002a2a2a2a000000001919592a2a1a6b52",
"000000594646460000000012464600000000282b4646000000002a4614000000002219190b00000000292a2a0000000098a7a7a7000000002b142b2b2bbe2b6b",
"000000cf2a2a2a00000000464643000000001146464600000000432a2b000000002a1959a7000000002b2a2b000000002b2b2b2b000000002b2b2b2b2b2ce4c8",
"462a4600000000b7141143000000a6190b1400000000215946a600000000594659000000002726a7a6000000182c1a2b000000002c292c000000002c1e2cbbbb",
"c3c34600000000a746142a0000002c464646000000004646142c000000c24646460000000059591925000000a619191900000000b719192c00002c836a6a692c",
};
