/* XPM */
static char *image[] = {
"64 64 339 2",
"00 c #ffffff",
"01 c #fcfefc",
"02 c #fcfefd",
"03 c #c1e7cb",
"04 c #c1e5c9",
"05 c #c2e1c6",
"06 c #bde4c4",
"07 c #9feeb3",
"08 c #9df4b6",
"09 c #8df3ae",
"0a c #89f1ad",
"0b c #8ff3af",
"0c c #98edad",
"0d c #a2f0b0",
"0e c #a8e6b2",
"0f c #a1f2b1",
"10 c #a7ecb4",
"11 c #9ff0b0",
"12 c #9fefaf",
"13 c #9eefae",
"14 c #96ecab",
"15 c #88efab",
"16 c #e9f2ea",
"17 c #ddebde",
"18 c #90f2af",
"19 c #b1ebbf",
"1a c #bbf0c6",
"1b c #c3ebca",
"1c c #c9e6cd",
"1d c #c2e7cc",
"1e c #c2e1c4",
"1f c #b7ddbf",
"20 c #b7dbbf",
"21 c #c1dbc2",
"22 c #c4dcc4",
"23 c #c4dcc5",
"24 c #c2ddc2",
"25 c #c4d7c3",
"26 c #93e7a7",
"27 c #d8efdd",
"28 c #deecde",
"29 c #96f5b1",
"2a c #c1e9ca",
"2b c #cae6cd",
"2c c #c4e1c7",
"2d c #c2dbc2",
"2e c #b8d8be",
"2f c #b7dcbf",
"30 c #c1d8c2",
"31 c #c3dac2",
"32 c #c5d5c4",
"33 c #95ebab",
"34 c #dceede",
"35 c #8ef3af",
"36 c #c2e8cb",
"37 c #c3e7cc",
"38 c #bdd8c0",
"39 c #c2d9c2",
"3a c #c6dacc",
"3b c #c3d3c3",
"3c c #95ecac",
"3d c #92f4b0",
"3e c #c6e6cd",
"3f c #cee5d0",
"40 c #c3dcc3",
"41 c #b4d1b9",
"42 c #bed5c1",
"43 c #c3d2c3",
"44 c #bdcec0",
"45 c #cadecd",
"46 c #a2f6b8",
"47 c #88f2ad",
"48 c #cbe5ce",
"49 c #cee2ce",
"4a c #cfe4d1",
"4b c #c3e0c7",
"4c c #c0d6c2",
"4d c #b5d0ba",
"4e c #b9d1be",
"4f c #a1f4b6",
"50 c #94f4b0",
"51 c #cbdfcd",
"52 c #cce5ce",
"53 c #cde2ce",
"54 c #cce5cf",
"55 c #c6dec9",
"56 c #b6cfbc",
"57 c #bcd0c0",
"58 c #c3d2c2",
"59 c #c9ddcd",
"5a c #9cf6b6",
"5b c #c6e6cc",
"5c c #cce1cd",
"5d c #c9decc",
"5e c #c2d2c3",
"5f c #c9dccd",
"60 c #cbdecd",
"61 c #90ecab",
"62 c #c7e3cc",
"63 c #c1eac9",
"64 c #bbcec0",
"65 c #b9cebe",
"66 c #c4d5c4",
"67 c #94eaaa",
"68 c #dfecdf",
"69 c #8ee8a6",
"6a c #c6e7cc",
"6b c #cfe3d0",
"6c c #c1e8c8",
"6d c #bfcfc1",
"6e c #b8cebd",
"6f c #b4cdba",
"70 c #b9cdbd",
"71 c #c8dbcc",
"72 c #95edac",
"73 c #a2ecb0",
"74 c #c7e9cc",
"75 c #c2e3c7",
"76 c #c2e9cb",
"77 c #b7cdbc",
"78 c #92eaa9",
"79 c #b5e5bd",
"7a c #bcedc7",
"7b c #d6e0db",
"7c c #cae8cd",
"7d c #c1d1c2",
"7e c #97e9a9",
"7f c #a8f8be",
"80 c #b1eebf",
"81 c #c1ecc9",
"82 c #c8eacc",
"83 c #9ee7ad",
"84 c #a6f5ba",
"85 c #abf8c0",
"86 c #bde9c8",
"87 c #9af5b4",
"88 c #c8ddcc",
"89 c #c5d6c5",
"8a c #c3d4c4",
"8b c #c2d0c2",
"8c c #84eea8",
"8d c #d3e2d6",
"8e c #92f1af",
"8f c #c2e0c6",
"90 c #c6dbcb",
"91 c #c5d8c9",
"92 c #c1d3c3",
"93 c #bfd1c1",
"94 c #91eda9",
"95 c #d8e1dc",
"96 c #8bf2ae",
"97 c #c1dfc2",
"98 c #b9d4bf",
"99 c #b7d5be",
"9a c #99f0ad",
"9b c #d8f2dd",
"9c c #99f5b4",
"9d c #c3dfc8",
"9e c #c2d1c2",
"9f c #bad0bf",
"a0 c #b9d3bf",
"a1 c #b8d6be",
"a2 c #a9f8be",
"a3 c #d9dfdd",
"a4 c #e6eae8",
"a5 c #cde3ce",
"a6 c #bad1bf",
"a7 c #bbd4c0",
"a8 c #b7d4be",
"a9 c #aef6c0",
"aa c #95f4b0",
"ab c #bfd5c1",
"ac c #aef6c1",
"ad c #d7e7dc",
"ae c #93f3af",
"af c #cbe6cd",
"b0 c #c0d5c2",
"b1 c #a5f1b5",
"b2 c #d5e1d8",
"b3 c #86eea9",
"b4 c #c3e1c7",
"b5 c #c7e1ca",
"b6 c #c1d5c3",
"b7 c #9bf2b0",
"b8 c #d6e1db",
"b9 c #85eea9",
"ba c #c4dfc7",
"bb c #c1d9c2",
"bc c #9cf3b3",
"bd c #d8e0dc",
"be c #c5dfc8",
"bf c #cadfcc",
"c0 c #c2d5c3",
"c1 c #bad8bf",
"c2 c #a6edb7",
"c3 c #99f5b1",
"c4 c #c6ddc9",
"c5 c #c2e1c5",
"c6 c #c2dcc2",
"c7 c #bdf0c8",
"c8 c #fcfdfd",
"c9 c #b7e0bd",
"ca c #c1dfc4",
"cb c #c3d5c4",
"cc c #c6d9ca",
"cd c #badbc0",
"ce c #cbf1d2",
"cf c #f5faf6",
"d0 c #a2f1b0",
"d1 c #b3f4c2",
"d2 c #c0dfc2",
"d3 c #c2dec2",
"d4 c #c1dcc3",
"d5 c #aef4be",
"d6 c #c9e4cd",
"d7 c #d4e1d8",
"d8 c #d8dfdc",
"d9 c #e4ebe7",
"da c #b3e4ba",
"db c #a8f5b9",
"dc c #d0efd5",
"dd c #cbeace",
"de c #b4e3bc",
"df c #c6dec8",
"e0 c #c1d7c2",
"e1 c #d2ecd7",
"e2 c #d2efd7",
"e3 c #b2f5c3",
"e4 c #9ff4b3",
"e5 c #a3f2b2",
"e6 c #d7ebd7",
"e7 c #d8f2dc",
"e8 c #bef1c6",
"e9 c #d5f0da",
"ea c #cfeed4",
"eb c #cdecd0",
"ec c #c1e0c3",
"ed c #bfd0c1",
"ee c #cadfcd",
"ef c #d4eed9",
"f0 c #d0eed4",
"f1 c #cbedcf",
"f2 c #d4f0d9",
"f3 c #cceed0",
"f4 c #baf2c5",
"f5 c #b4f2c1",
"f6 c #c7edca",
"f7 c #c8edcb",
"f8 c #cdeacf",
"f9 c #d0e9d4",
"fa c #c5dec9",
"fb c #cce0cd",
"fc c #d2ebd6",
"fd c #d2efd6",
"fe c #b6debe",
"ff c #cbeed1",
"10 c #b7f3c4",
"10 c #beeec7",
"10 c #c4ebca",
"10 c #d0e4d0",
"10 c #c4d6c3",
"10 c #c7dbcb",
"10 c #c4dbc4",
"10 c #d9f1dd",
"10 c #d6f0db",
"10 c #d4efd9",
"10 c #d7f1dc",
"10 c #d0edd4",
"10 c #c4d8c8",
"10 c #bce6c3",
"10 c #d2f0d7",
"10 c #b7f3c5",
"11 c #bdedc7",
"11 c #cee3cf",
"11 c #c2d3c2",
"11 c #c0d0c1",
"11 c #b6d3bc",
"11 c #c0eac9",
"11 c #d2e9d5",
"11 c #d3edd8",
"11 c #cbe2cd",
"11 c #b2e4ba",
"11 c #daf2de",
"11 c #a7edb5",
"11 c #cae0cc",
"11 c #b5d1bb",
"11 c #8cf0ad",
"11 c #ccecce",
"12 c #b2dcba",
"12 c #cff5d7",
"12 c #a3e8b0",
"12 c #d0e4d1",
"12 c #c9decb",
"12 c #b8d0bd",
"12 c #c1d0c2",
"12 c #90e5a9",
"12 c #b4f3c3",
"12 c #cce2cd",
"12 c #cfe5d1",
"12 c #a5d9b1",
"12 c #d6eedb",
"12 c #caeed0",
"12 c #b4edc0",
"12 c #c7e4cc",
"13 c #d4e6d8",
"13 c #c3dec7",
"13 c #bacfbe",
"13 c #96e0a8",
"13 c #cfe4d0",
"13 c #bbd1c0",
"13 c #89e4a3",
"13 c #fafefb",
"13 c #90e5a6",
"13 c #a2efb2",
"13 c #b0e5b7",
"13 c #a2f0b4",
"13 c #b8f3c3",
"13 c #cfe3cf",
"13 c #d6e2db",
"13 c #ccdfcd",
"14 c #8bd59d",
"14 c #b8f3c4",
"14 c #cde4cf",
"14 c #d1ead6",
"14 c #d7eadc",
"14 c #b2d8b8",
"14 c #edfdf1",
"14 c #9cebac",
"14 c #b8eac2",
"14 c #cbe6ce",
"14 c #cde5cf",
"14 c #cadecc",
"14 c #9feeb0",
"14 c #c7eece",
"14 c #a2efb6",
"14 c #90e0a3",
"15 c #9ceaac",
"15 c #eef0f0",
"15 c #e8edeb",
"00000000000000000000000000000000000000000000000000000000000000000000000000000000000000000000000000000000000000000000000000000000",
"00000000000000000000000000000000000000000000000000000000000000000000000000000000000000000000000000000000000000000000000000000000",
"00000000000000000000000000000000000000000000000000000000000000000000000000000000000000000000000000000000000000000000000000000000",
"00000000000000000000000000000000000000000000000000000000000000000000000000000000000000000000000000000000000000000000000000000000",
"00000000000000000000000000000000000000000000000000000000000000000000000000000000000000000000000000000000000000000000000000000000",
"00000000000000000000000000000000000000000000000000000000000000000000000000000000000000000000000000000000000000000000000000000000",
"00000000000000000000000000000000000000000000000000000000000000000000000000000000000000000000000000000000000000000000000000000000",
"00000000000000000000000000000000000000000000000000000000000000000000000000000000000000000000000000000000000000000000000000000000",
"00000000000000000000000000000000000000000000000000000000000000000000000000000000000000000000000000000000000000000000000000000000",
"00000000000000000000000000000000000000000000000000000000000000000000000000000000000000000000000000000000000000000000000000000000",
"00000000000000000000000000000000000000000000000000000000000000000000000000000000000000000000000000000000000000000000000000000000",
"00000000000000000000000000000000000000000000000000000000000000000000000000000000000000000000000000000000000000000000000000000000",
"00000000000000000000000000000000000000000000000000000000000000000000000000000000000000000000000000000000000000000000000000000000",
"00000000000000000000000000000000000000000000000000000000000000000000000000000000000000000000000000000000000000000000000000000000",
"00000000000000000000000000000000000000000000000000000000000102010103030405010100000000000000000000000000000000000000000000000000",
"000000000000000000000000000000000000000000000000060708090a0b0c0d0e0f101112131415160000000000000000000000000000000000000000000000",
"00000000000000000000000000000000000000000000001718191a1b1c1d1e1f201f212223242526270000000000000000000000000000000000000000000000",
"000000000000000000000000000000000000000000000028292a1d2b1d1d2c2d2e2f303131303233340000000000000000000000000000000000000000000000",
"000000000000000000000000000000000000000000000000351d362b2b1d3730382e393a323b3a3c000000000000000000000000000000000000000000000000",
"0000000000000000000000000000000000000000000000003d3e2b3f3f1d37403041423a43444546000000000000000000000000000000000000000000000000",
"00000000000000000000000000000000000000000000000047483f493f4a2b4b4c4d4e3a3244454f000000000000000000000000000000000000000000000000",
"0000000000000000000000000000000000000000000000005051525354543f554c5657325844594f000000000000000000000000000000000000000000000000",
"0000000000000000000000000000000000000000000000005a5b5c554b2b2b5d3a325e44445f604f000000000000000000000000000000000000000000000000",
"00000000000000000000000000000000000000000000000061622b4b631d2b5d3a5e646565326667680000000000000000000000000000000000000000000000",
"000000000000000000000000000000000000000000000000696a6b4b6c1d2b5d3a6d6e6f6f707172680000000000000000000000000000000000000000000000",
"00000000000000000000000000000000000000000000000073746b4b75762b5d3a6d656f6f773278280000000000000000000000000000000000000000000000",
"000000000000000000000000000000000000000000000000797a7b5c637c2b5c3a6d656465447d7e000000000000000000000000000000000000000000000000",
"000000000000000000000000000000000000000000000000007f808182372b5c5d5e7d3283848500000000000000000000000000000000000000000000000000",
"000000000000000000000000000000000000000000000000000086872b1d2b5388898a8b8c000000000000000000000000000000000000000000000000000000",
"00000000000000000000000000000000000000000000000000008d8e558f55609091929394000000000000000000000000000000000000000000000000000000",
"00000000000000000000000000000000000000000000000000009596409755555e5e98999a000000000000000000000000000000000000000000000000000000",
"00000000000000000000000000000000000000000000000000009b9c9d9755559e9fa0a1a20000a3a40000000000000000000000000000000000000000000000",
"00000000000000000000000000000000000000000000000000009b9c1da52b556da6a7a8a90000a3a40000000000000000000000000000000000000000000000",
"00000000000000000000000000000000000000000000000000009baa1d2b2b5c32ab4c1fac0000a3a40000000000000000000000000000000000000000000000",
"0000000000000000000000000000000000000000000000000000adae1daf3f5c4cb04c1fb1000000000000000000000000000000000000000000000000000000",
"0000000000000000000000000000000000000000000000000000b2b3b4b53f5c4cb64c20b7000000000000000000000000000000000000000000000000000000",
"0000000000000000000000000000000000000000000000000000b8b9ba2b3f5d4cb64cbbbc000000000000000000000000000000000000000000000000000000",
"0000000000000000000000000000000000000000000000000000bdb3babe53bf30b6c0c1c2000000000000000000000000000000000000000000000000000000",
"00000000000000000000000000000000000000000000000000009bc3c4c55d5d4c3232c6c70000c8000000000000000000000000000000000000000000000000",
"00000000000000000000000000000000000000000000000000009baa9dc9ca404ccbcccdcea3a3a3a30000000000000000000000000000000000000000000000",
"00000000000000000000000000000000000000000000000000cfd0d19dd2d3554cb632d4d5d6d7d8d90000000000000000000000000000000000000000000000",
"000000000000000000000000000000000000000000000000dadbdcddde1e97df30a0e0e1e2e3e4e5e60000000000000000000000000000000000000000000000",
"0000000000000000000000000000000000000000000000e7e8e9eaeb97ec8f554cedeeeff0f1f2f3f40000000000000000000000000000000000000000000000",
"0000000000000000000000000000000000000000000000f5f6f7f8f9fafb536089fc9b9be99bfdfeff0000000000000000000000000000000000000000000000",
"00000000000000000000000000000000000000000000001010103f10301010104b10101010101010100000000000000000000000000000000000000000000000",
"000000000000000000000000000000000000000000000010116352113011111111e1111110113911110000000000000000000000000000000000000000000000",
"000000000000000000000000000000000000000000000011631d3f114c8b1111d1113f3fe139b612120000000000000000000000000000000000000000000000",
"0000000000000000000000000000000000000000000000122a5b121212121200122b12af124c8b12120000000000000000000000000000000000000000000000",
"0000000000000000000000000000000000000000000000121212131313130000d12b2b13a5a01313000000000000000000000000000000000000000000000000",
"000000000000000000000000000000000000000000000000131313131300000013133f13138b1400000000000000000000000000000000000000000000000000",
"00000000000000000000000000000000000000000000000000000000000000001414141453141400000000000000000000000000000000000000000000000000",
"00000000000000000000000000000000000000000000000000000000000000001414141414140000000000000000000000000000000000000000000000000000",
"00000000000000000000000000000000000000000000000000000000000000000014141415000000000000000000000000000000000000000000000000000000",
"00000000000000000000000000000000000000000000000000000000000000000000151500000000000000000000000000000000000000000000000000000000",
"00000000000000000000000000000000000000000000000000000000000000000000000000000000000000000000000000000000000000000000000000000000",
"00000000000000000000000000000000000000000000000000000000000000000000000000000000000000000000000000000000000000000000000000000000",
"00000000000000000000000000000000000000000000000000000000000000000000000000000000000000000000000000000000000000000000000000000000",
"00000000000000000000000000000000000000000000000000000000000000000000000000000000000000000000000000000000000000000000000000000000",
"00000000000000000000000000000000000000000000000000000000000000000000000000000000000000000000000000000000000000000000000000000000",
"00000000000000000000000000000000000000000000000000000000000000000000000000000000000000000000000000000000000000000000000000000000",
"00000000000000000000000000000000000000000000000000000000000000000000000000000000000000000000000000000000000000000000000000000000",
"00000000000000000000000000000000000000000000000000000000000000000000000000000000000000000000000000000000000000000000000000000000",
"00000000000000000000000000000000000000000000000000000000000000000000000000000000000000000000000000000000000000000000000000000000",
"00000000000000000000000000000000000000000000000000000000000000000000000000000000000000000000000000000000000000000000000000000000",
};
