/* XPM */
static char *image[] = {
"64 64 496 2",
"00 c #ffffff",
"01 c #f4f5f5",
"02 c #f3f5f5",
"03 c #63ce78",
"04 c #41ab5d",
"05 c #44ad5e",
"06 c #44ad5f",
"07 c #56af66",
"08 c #42b060",
"09 c #44af5f",
"0a c #52c067",
"0b c #51c268",
"0c c #4ec76c",
"0d c #50c469",
"0e c #54cb71",
"0f c #53b567",
"10 c #61be6f",
"11 c #54b161",
"12 c #299246",
"13 c #008020",
"14 c #018522",
"15 c #028823",
"16 c #1f913e",
"17 c #54a462",
"18 c #7aa579",
"19 c #81a57f",
"1a c #6ab072",
"1b c #4da45d",
"1c c #369f54",
"1d c #3aa057",
"1e c #2b7739",
"1f c #368543",
"20 c #126f2b",
"21 c #028825",
"22 c #089334",
"23 c #019129",
"24 c #028e27",
"25 c #1d923f",
"26 c #399756",
"27 c #377d42",
"28 c #4a9e5b",
"29 c #48a25a",
"2a c #34944a",
"2b c #338d43",
"2c c #68a56d",
"2d c #89b289",
"2e c #dadddf",
"2f c #d9dedf",
"30 c #0f7425",
"31 c #017a1f",
"32 c #02912a",
"33 c #06922e",
"34 c #0a9232",
"35 c #219f49",
"36 c #1b732e",
"37 c #0b6c29",
"38 c #409e55",
"39 c #43a15a",
"3a c #358a44",
"3b c #7ba67a",
"3c c #79aa7b",
"3d c #c3f4c7",
"3e c #dadedf",
"3f c #1e913c",
"40 c #068d2b",
"41 c #004b0c",
"42 c #00480b",
"43 c #014c0d",
"44 c #1a732e",
"45 c #1a722d",
"46 c #004c0d",
"47 c #00490c",
"48 c #024f12",
"49 c #88a786",
"4a c #69b470",
"4b c #259643",
"4c c #018824",
"4d c #00470b",
"4e c #00430b",
"4f c #003e0c",
"50 c #226832",
"51 c #1b722d",
"52 c #00400c",
"53 c #003b0d",
"54 c #01410d",
"55 c #144a1f",
"56 c #88a686",
"57 c #5ec472",
"58 c #1d9e46",
"59 c #038e28",
"5a c #00440b",
"5b c #032a08",
"5c c #021301",
"5d c #11491d",
"5e c #027e1e",
"5f c #032105",
"60 c #021601",
"61 c #042507",
"62 c #00380d",
"63 c #5aa864",
"64 c #45b15f",
"65 c #279f4c",
"66 c #0b9233",
"67 c #014d0e",
"68 c #023109",
"69 c #021f04",
"6a c #154d21",
"6b c #2e883f",
"6c c #25893c",
"6d c #347a3f",
"6e c #0a3711",
"6f c #052007",
"70 c #01330a",
"71 c #003d0d",
"72 c #409c58",
"73 c #45ba65",
"74 c #39a357",
"75 c #399856",
"76 c #368944",
"77 c #3f9354",
"78 c #57a562",
"79 c #38894e",
"7a c #01420e",
"7b c #77a877",
"7c c #6fad73",
"7d c #2a7638",
"7e c #1c6f2e",
"7f c #3a9354",
"80 c #4ab765",
"81 c #3ea85b",
"82 c #4ea25d",
"83 c #398044",
"84 c #2d773a",
"85 c #2b6d37",
"86 c #104c1f",
"87 c #031f05",
"88 c #031c04",
"89 c #31673b",
"8a c #306f3f",
"8b c #3a874a",
"8c c #378f4c",
"8d c #50a35e",
"8e c #43b561",
"8f c #49ae5e",
"90 c #397e43",
"91 c #32773e",
"92 c #032807",
"93 c #000600",
"94 c #000300",
"95 c #1b5127",
"96 c #3c8e52",
"97 c #429d58",
"98 c #67a66c",
"99 c #52c76c",
"9a c #4ec167",
"9b c #55a961",
"9c c #367040",
"9d c #021501",
"9e c #010e00",
"9f c #010d00",
"a0 c #011001",
"a1 c #021802",
"a2 c #348b43",
"a3 c #41784a",
"a4 c #3fae5c",
"a5 c #4da75e",
"a6 c #388344",
"a7 c #35713f",
"a8 c #010f00",
"a9 c #378a47",
"aa c #288e40",
"ab c #4fb765",
"ac c #45b662",
"ad c #3b9f58",
"ae c #409854",
"af c #032b08",
"b0 c #21582d",
"b1 c #063c12",
"b2 c #01340a",
"b3 c #1b712e",
"b4 c #037420",
"b5 c #34934c",
"b6 c #6ccb7c",
"b7 c #44b762",
"b8 c #1e9f48",
"b9 c #349c50",
"ba c #01470e",
"bb c #30783e",
"bc c #6cb071",
"bd c #5eac67",
"be c #4a8b53",
"bf c #154b20",
"c0 c #01400e",
"c1 c #126e2b",
"c2 c #086d27",
"c3 c #4dc169",
"c4 c #72d786",
"c5 c #1c9f47",
"c6 c #099538",
"c7 c #0e9b3e",
"c8 c #319f52",
"c9 c #098c30",
"ca c #076d24",
"cb c #025317",
"cc c #10501e",
"cd c #164e22",
"ce c #00380e",
"cf c #0d531c",
"d0 c #196d2d",
"d1 c #74cc81",
"d2 c #02781e",
"d3 c #047e1d",
"d4 c #39a256",
"d5 c #076b22",
"d6 c #055918",
"d7 c #08561a",
"d8 c #024e10",
"d9 c #195929",
"da c #0f5620",
"db c #b5e4bd",
"dc c #02761e",
"dd c #03611b",
"de c #076d25",
"df c #134e1f",
"e0 c #11501e",
"e1 c #065419",
"e2 c #00420c",
"e3 c #105620",
"e4 c #bee6c5",
"e5 c #047b1b",
"e6 c #319448",
"e7 c #037222",
"e8 c #00460b",
"e9 c #164c21",
"ea c #12501e",
"eb c #015217",
"ec c #024f11",
"ed c #00490b",
"ee c #094d16",
"ef c #c0e3c5",
"f0 c #0f9235",
"f1 c #239e48",
"f2 c #047123",
"f3 c #00430c",
"f4 c #003d0c",
"f5 c #08551a",
"f6 c #115823",
"f7 c #d2eed7",
"f8 c #0a9537",
"f9 c #02932c",
"fa c #2e8f42",
"fb c #0e6a29",
"fc c #00450b",
"fd c #00390e",
"fe c #025013",
"ff c #156426",
"10 c #0b9738",
"10 c #139d42",
"10 c #2d8f42",
"10 c #076b23",
"10 c #015216",
"10 c #05932e",
"10 c #018924",
"10 c #0f9b3f",
"10 c #1d9e47",
"10 c #066b22",
"10 c #075819",
"10 c #10511d",
"10 c #135422",
"10 c #10541f",
"10 c #015115",
"10 c #0d4d1c",
"11 c #2e753b",
"11 c #038b24",
"11 c #008120",
"11 c #068b2a",
"11 c #035f19",
"11 c #086d25",
"11 c #165626",
"11 c #075519",
"11 c #185b2a",
"11 c #134c1f",
"11 c #2c7039",
"11 c #00811c",
"11 c #34a254",
"11 c #3ca058",
"11 c #2a8f41",
"11 c #096926",
"12 c #0e491b",
"12 c #1f622f",
"12 c #045818",
"12 c #1d592c",
"12 c #2e733b",
"12 c #03791c",
"12 c #037321",
"12 c #1f8136",
"12 c #4ea35e",
"12 c #2f823f",
"12 c #1d5329",
"12 c #1f602f",
"12 c #1f6731",
"12 c #1f6430",
"12 c #09581b",
"12 c #1d5d2e",
"13 c #459252",
"13 c #cbf2d0",
"13 c #158f33",
"13 c #00801b",
"13 c #0e521d",
"13 c #1c5329",
"13 c #1e5d2f",
"13 c #1a5b2b",
"13 c #1f642f",
"13 c #499955",
"13 c #def4dd",
"13 c #66da84",
"13 c #00821d",
"13 c #0e9235",
"13 c #0f501d",
"13 c #194f24",
"14 c #1b5d2d",
"14 c #145222",
"14 c #74de8e",
"14 c #50d778",
"14 c #51d274",
"14 c #039029",
"14 c #099435",
"14 c #175a29",
"14 c #0f541f",
"14 c #45a655",
"14 c #5ccb72",
"14 c #81e296",
"14 c #69d27e",
"14 c #4cce6f",
"14 c #028924",
"14 c #035118",
"15 c #0d531d",
"15 c #065919",
"15 c #84d190",
"15 c #78de8f",
"15 c #53d87a",
"15 c #79df91",
"15 c #a0eaaa",
"15 c #5dca71",
"15 c #38a055",
"15 c #149d43",
"15 c #65db85",
"15 c #0c983c",
"15 c #119a40",
"15 c #0c983b",
"15 c #035b17",
"15 c #015617",
"16 c #075719",
"16 c #014a10",
"16 c #126624",
"16 c #3f9c58",
"16 c #80cf8e",
"16 c #2f9346",
"16 c #4bc86a",
"16 c #4ccd6e",
"16 c #51d879",
"16 c #68dc86",
"16 c #c5f0ce",
"16 c #55cc72",
"16 c #11963c",
"16 c #3aa357",
"16 c #13742d",
"16 c #4fa55e",
"17 c #3a9f56",
"17 c #035e19",
"17 c #015516",
"17 c #3b8d49",
"17 c #85dd96",
"17 c #7ed48e",
"17 c #7adb8f",
"17 c #83e097",
"17 c #319447",
"17 c #3ca759",
"17 c #6dde8a",
"17 c #69d280",
"17 c #015915",
"17 c #95dda2",
"17 c #5cc36f",
"17 c #0e973a",
"18 c #429d59",
"18 c #1e612f",
"18 c #3a8246",
"18 c #248b3c",
"18 c #4ba15c",
"18 c #7ed08d",
"18 c #42a15c",
"18 c #50b361",
"18 c #4fd172",
"18 c #4fd474",
"18 c #79de90",
"18 c #88e099",
"18 c #35954c",
"18 c #014e11",
"18 c #64d57e",
"18 c #40a55a",
"19 c #5eb469",
"19 c #0a6d28",
"19 c #1e5a2d",
"19 c #093f15",
"19 c #55a462",
"19 c #6caf72",
"19 c #a8edac",
"19 c #72d585",
"19 c #4db966",
"19 c #4ed373",
"19 c #50b764",
"19 c #0f6723",
"19 c #075e1d",
"19 c #fefefe",
"19 c #fdfdfd",
"19 c #fdfdfe",
"1a c #62d880",
"1a c #45a55b",
"1a c #68b270",
"1a c #1a5c2c",
"1a c #022d08",
"1a c #378c46",
"1a c #53ac60",
"1a c #1c9e44",
"1a c #6ed987",
"1a c #7ce193",
"1a c #44b462",
"1a c #015616",
"1a c #0e521e",
"1a c #115521",
"1a c #207633",
"1a c #dbdfe0",
"1b c #e2f7e6",
"1b c #389e53",
"1b c #64af6d",
"1b c #3c9a57",
"1b c #023009",
"1b c #031a03",
"1b c #031903",
"1b c #48b460",
"1b c #119c40",
"1b c #147730",
"1b c #014c0e",
"1b c #045316",
"1b c #175828",
"1b c #10511e",
"1b c #1b5529",
"1b c #174e23",
"1c c #5abf6a",
"1c c #032607",
"1c c #12481d",
"1c c #65b66e",
"1c c #028f28",
"1c c #0b9234",
"1c c #1e9f47",
"1c c #106f27",
"1c c #0c531c",
"1c c #195a2a",
"1c c #1e5e2e",
"1c c #032a07",
"1c c #154e22",
"1c c #fafdfa",
"1c c #f8faf9",
"1c c #7cce8a",
"1d c #3da75a",
"1d c #56ad62",
"1d c #0d6924",
"1d c #035618",
"1d c #175225",
"1d c #032206",
"1d c #effbf2",
"1d c #54a461",
"1d c #7ba679",
"1d c #13702a",
"1d c #06601c",
"1d c #015417",
"1d c #031b03",
"1d c #06370f",
"1d c #4da25d",
"1d c #80ab7f",
"1e c #379e54",
"1e c #177632",
"1e c #004210",
"1e c #041e04",
"1e c #0e3f17",
"1e c #5db668",
"1e c #24903d",
"1e c #88b28a",
"1e c #096321",
"1e c #195626",
"1e c #54b762",
"1e c #0b6524",
"1e c #013c0c",
"1e c #255b2f",
"1e c #ceded1",
"1e c #dde0e1",
"00000000000000000000000000000000000000000000000000000000000000000000000000000000000000000000000000000000000000000000000000000000",
"00000000000000000000000000000000000000000000000000000000000000000000000000000000000000000000000000000000000000000000000000000000",
"00000000000000000000000000000000000000000000000000000000000000000000000000000000000000000000000000000000000000000000000000000000",
"00000000000000000000000000000000000000000000000000000000000000000000000000000000000000000000000000000000000000000000000000000000",
"00000000000000000000000000000000000000000000000000000000000000000000000000000000000000000000000000000000000000000000000000000000",
"00000000000000000000000000000000000000000000000000000000000000000000000000000000000000000000000000000000000000000000000000000000",
"00000000000000000000000000000000000000000000000000000000000000000000000000000000000000000000000000000000000000000000000000000000",
"00000000000000000000000000000000000000000000000000000000000000000000000000000000000000000000000000000000000000000000000000000000",
"00000100000000000000000000000000000000000000000000000000000000000000000000000000000000000000000000000000000000000000000000000000",
"00000200000000000000000000000000000000000000000000000000000000000000000000000000000000000000000000000000000000000000000000000000",
"00000000000000000000000000000000000000000000000000000000000000000000000000000000000000000000000000000000000000000000000000000000",
"00000000000000000000000000000000000000000000000000000000000000000000000000000000000000000000000000000000000000000000000000000000",
"0000000000000000000000000000000000000000000000000003040506070809080a0b0c0d0e0f10000000000000000000000000000000000000000000000000",
"000000000000000000000000000000000000000000000000001112131415161718191a1b1c1d1e1f000000000000000000000000000000000000000000000000",
"0000000000000000000000000000000000000000000000000020212223242526272728292a2b2c2d000000000000000000000000000000000000000000000000",
"002e2f0000000000000000000000000000000000000000000030313233343526363738392b3a3b3c3d0000000000000000000000000000000000000000000000",
"3e3e3e000000000000000000000000000000000000000000003f404142434439364546474748494a000000000000000000000000000000000000000000000000",
"2f3e3e000000000000000000000000000000000000000000004b4c4d4e4f50293651525354555657000000000000000000000000000000000000000000000000",
"0000000000000000000000000000000000000000000000000058595a5b5c5d395e455f6061626364000000000000000000000000000000000000000000000000",
"0000000000000000000000000000000000000000000000000065666768696a6b6c6d6e6f70717273000000000000000000000000000000000000000000000000",
"000000000000000000000000000000000000000000000000007475767778794f4f7a7b7c7d7e7f80000000000000000000000000000000000000000000000000",
"00000000000000000000000000000000000000000000000000818283848586878887898a8b8c8d8e000000000000000000000000000000000000000000000000",
"000000000000000000000000000000000000000000000000008f7890915592939493955596979899000000000000000000000000000000000000000000000000",
"000000000000000000000000000000000000000000000000009a9b909c9d9e93939fa0a196a2a3a4000000000000000000000000000000000000000000000000",
"000000000000000000000000000000000000000000000000009aa5a6a79f9fa8a8a89f5ca9aa90ab000000000000000000000000000000000000000000000000",
"00000000000000000000000000000000000000000000000000ac1cadaeafb0181818b1b2b3b4b5b6000000000000000000000000000000000000000000000000",
"00000000000000000000000000000000000000000000000000b7b81cb9babbbcbdbebfc0c1c2c300000000000000000000000000000000000000000000000000",
"00000000000000000000000000000000000000000000000000c4c5c6c7c8c9cacbcccdcecfd00000000000000000000000000000000000000000000000000000",
"00000000000000000000000000000000000000000000000000d1d2d2d3d4d5d6d7d8d94f54da0000000000000000000000000000000000000000000000000000",
"00000000000000000000000000000000000000000000000000dbdcdcddde4e53dfe0e14de2e30000000000000000000000000000000000000000000000000000",
"00000000000000000000000000000000000000000000000000e4e566e6e7e84fe9eaebecedee0000000000000000000000000000000000000000000000000000",
"00000000000000000000000000000000000000000000000000ef24f0f1f2f3f44ff5ebec46f60000000000000000000000000000000000000000000000000000",
"00000000000000000000000000000000000000000000000000f7f8f9b8fafbfcfd4f4dd8feff0000000000000000000000000000000000000000000000000000",
"000000000000000000000000000000000000000000000000000010f9101010427a7a424110840000000000000000000000000000000000000000000000000000",
"00000000000000000000000000000000000000000000000000001010101010101010101010110000000000000000000000000000000000000000000000000000",
"00000000000000000000000000000000000000000000000000001111b8111111111111eb11110000000000000000000000000000000000000000000000000000",
"00000000000000000000000000000000000000000000000000001111111111eb7a12121212120000000000000000000000000000000000000000000000000000",
"00000000000000000000000000000000000000000000000000001212121212121212121212130000000000000000000000000000000000000000000000000000",
"0000000000000000000000000000000000000000000000000013131313f21313131312eb13130000000000000000000000000000000000000000000000000000",
"0000000000000000000000000000000000000000000000001313101313131355551314eb14130000000000000000000000000000000000000000000000000000",
"000000000000000000000000000000000000000000000014141414131314137a7a7a1414eb140000000000000000000000000000000000000000000000000000",
"00000000000000000000000000000000000000000000141414141313241410eb147a151515151515150000000000000000000000000000000000000000000000",
"00000000000000000000000000000000000000000000151515151515151315151616161616161616161616000000000000000000000000000000000000000000",
"00000000000000000000000000000000000000000000161610164116161717171717171717171717171717000000000000000000000000000000000000000000",
"000000000000000000000000000000000000000000001717c81841d7181818181818181818181818181600000000000000000000000000000000000000000000",
"0000000000000000000000000000000000000000000018181919ebf619191919191919191619194d481900000000000000000000000000000000000000000000",
"191919000000000000000000000000000000000000001a1a1a261a551a5c1a1a1c1a1a1a1a1a1a4d1a1a00000000000000000000000000000000000000000000",
"3e3e1a000000000000000000000000000000000000001b1b1b1b1b1b1b001b1b10c6c81b1b1b1b1b1b1b00000000000000000000000000000000000000000000",
"3e2e1a0000000000000000000000000000000000000000001cc11c1c00001c1cc71c1c1cd81c1c1c1c1c00000000000000000000000000000000000000000000",
"2f3e1a000000000000000000000000000000000000000000001c1c0000001c1a1d1d341d1d1d121c1d0000000000000000000000000000000000000000000000",
"0000000000000000000000000000000000000000000000000000000000001d1c1d1d1d1d1d551d1d000000000000000000000000000000000000000000000000",
"000000000000000000000000000000000000000000000000000000000000001a1d1d1e1e1e1e1e00000000000000000000000000000000000000000000000000",
"000000000000000000000000000000000000000000000000000000000000001e1e1e261ea11e0000000000000000000000000000000000000000000000000000",
"0000000000000000000000000000000000000000000000000000000000000000001e1e1e1e000000000000000000000000000000000000000000000000000000",
"19191900000000000000000000000000000000000000000000000000000000000000001e00000000000000000000000000000000000000000000000000000000",
"2f3e1a00000000000000000000000000000000000000000000000000000000000000000000000000000000000000000000000000000000000000000000000000",
"2f3e1a00000000000000000000000000000000000000000000000000000000000000000000000000000000000000000000000000000000000000000000000000",
"1a3e1e00000000000000000000000000000000000000000000000000000000000000000000000000000000000000000000000000000000000000000000000000",
"00000000000000000000000000000000000000000000000000000000000000000000000000000000000000000000000000000000000000000000000000000000",
"00000000000000000000000000000000000000000000000000000000000000000000000000000000000000000000000000000000000000000000000000000000",
"00000000000000000000000000000000000000000000000000000000000000000000000000000000000000000000000000000000000000000000000000000000",
"00000000000000000000000000000000000000000000000000000000000000000000000000000000000000000000000000000000000000000000000000000000",
"00000000000000000000000000000000000000000000000000000000000000000000000000000000000000000000000000000000000000000000000000000000",
"00000000000000000000000000000000000000000000000000000000000000000000000000000000000000000000000000000000000000000000000000000000",
};
