/* XPM */
static char *image[] = {
"64 64 377 2",
"00 c #ffffff",
"01 c #96f8b4",
"02 c #8bf4ad",
"03 c #89f1aa",
"04 c #88f1aa",
"05 c #88f0a9",
"06 c #8af4ad",
"07 c #90f6b1",
"08 c #93f2ad",
"09 c #93f7b3",
"0a c #a9f8be",
"0b c #bcf5ca",
"0c c #bfe4c7",
"0d c #c3dfc7",
"0e c #c3e0c8",
"0f c #cce5d1",
"10 c #cae7d0",
"11 c #cee2d1",
"12 c #cee2d4",
"13 c #d1e4d6",
"14 c #cfe3d5",
"15 c #cde7d3",
"16 c #cde9d3",
"17 c #cde9d2",
"18 c #d0e1d5",
"19 c #a3f8bb",
"1a c #b8f0c6",
"1b c #c2e0c7",
"1c c #c8dfcc",
"1d c #cce4d1",
"1e c #cae8d0",
"1f c #cfe2d5",
"20 c #cee7d2",
"21 c #d5e7d8",
"22 c #d6ead9",
"23 c #d7ecda",
"24 c #daebdc",
"25 c #aaf7bf",
"26 c #aff7c1",
"27 c #cfe1d5",
"28 c #d3e5d8",
"29 c #cde8d3",
"2a c #cde7d2",
"2b c #d4e7d8",
"2c c #d8eada",
"2d c #a9f8bf",
"2e c #a2f5b8",
"2f c #cee3d3",
"30 c #c6e1cb",
"31 c #c7e0cb",
"32 c #d2e4d8",
"33 c #cfe1d2",
"34 c #cee1d1",
"35 c #dbebdd",
"36 c #9df7b6",
"37 c #a1f5b8",
"38 c #c5ddc8",
"39 c #c1dcc6",
"3a c #c2dbc6",
"3b c #d0e8d5",
"3c c #d4e6d8",
"3d c #cfe2d4",
"3e c #cddbcc",
"3f c #c9dac9",
"40 c #cedcd1",
"41 c #d3e4d8",
"42 c #ddeddf",
"43 c #9cf8b7",
"44 c #9bf8b7",
"45 c #d1e2d2",
"46 c #cde2d1",
"47 c #c6d9c7",
"48 c #cee8d3",
"49 c #d7eddc",
"4a c #c7d9c8",
"4b c #cddccf",
"4c c #cee5d0",
"4d c #d9e7dc",
"4e c #a0f8ba",
"4f c #96f7b3",
"50 c #d1e5d0",
"51 c #c6dcc9",
"52 c #c3dcc7",
"53 c #cee3d4",
"54 c #d2e2d6",
"55 c #d0e2d7",
"56 c #cddccc",
"57 c #c7d4c6",
"58 c #c8d9c8",
"59 c #c9dcca",
"5a c #cce8d2",
"5b c #d0e2d6",
"5c c #8ff1ac",
"5d c #a2f9bb",
"5e c #d2e5d0",
"5f c #d2e5d7",
"60 c #cce3d1",
"61 c #cbdccb",
"62 c #cfded1",
"63 c #cfdfd3",
"64 c #d6e7d9",
"65 c #d1e4d7",
"66 c #cee1d2",
"67 c #9efab8",
"68 c #d3ebd7",
"69 c #c6dac7",
"6a c #d2e3d5",
"6b c #dcedde",
"6c c #cee1d3",
"6d c #d5e7d9",
"6e c #9dfab8",
"6f c #a1f9bb",
"70 c #ccdbcb",
"71 c #c7d6c6",
"72 c #c8d5c6",
"73 c #cedfd1",
"74 c #d0e5d2",
"75 c #d6ebda",
"76 c #9cf9b8",
"77 c #97f8b5",
"78 c #d3e4d1",
"79 c #cedbcc",
"7a c #c7d7c6",
"7b c #c7d3c8",
"7c c #ccd7c9",
"7d c #d1e0d4",
"7e c #d2e8d6",
"7f c #8ef4ae",
"80 c #d6ebd9",
"81 c #d3e4d3",
"82 c #cedccd",
"83 c #c8d6c6",
"84 c #c8d3c7",
"85 c #c9d3c7",
"86 c #d1dfd3",
"87 c #d4e3d9",
"88 c #cee4d3",
"89 c #96f0ae",
"8a c #94f7b3",
"8b c #cddfcf",
"8c c #c6d8c7",
"8d c #cdd9ca",
"8e c #cfdbd2",
"8f c #cdd8cc",
"90 c #ccd8cb",
"91 c #d1dfd4",
"92 c #d6e2db",
"93 c #d0e7d6",
"94 c #93f0ae",
"95 c #8bf3ac",
"96 c #cedfcf",
"97 c #dbeadd",
"98 c #d3e0d6",
"99 c #cedad2",
"9a c #d2e0d5",
"9b c #cfe6d1",
"9c c #93f2af",
"9d c #d1e9d5",
"9e c #d3e6d4",
"9f c #d2e4d1",
"a0 c #d4e1d8",
"a1 c #96ebad",
"a2 c #c3ebcb",
"a3 c #98f9b5",
"a4 c #cfdcd1",
"a5 c #dff5e1",
"a6 c #cbe8d1",
"a7 c #d2e3d2",
"a8 c #d0e0d3",
"a9 c #d0e0d2",
"aa c #d5e2da",
"ab c #d0dfd3",
"ac c #d0ded2",
"ad c #cfdfd2",
"ae c #d3e0d7",
"af c #affac5",
"b0 c #cbe6d0",
"b1 c #cfe1d1",
"b2 c #d0ded3",
"b3 c #d0ded0",
"b4 c #98f8b5",
"b5 c #c1fbd3",
"b6 c #cfe7d1",
"b7 c #d1e6d0",
"b8 c #cfddd1",
"b9 c #d0ddd3",
"ba c #92f6b1",
"bb c #b9f6cc",
"bc c #c7eacf",
"bd c #cde4d1",
"be c #cfe0d2",
"bf c #cedcd0",
"c0 c #cfdcd2",
"c1 c #8cf1ab",
"c2 c #e4ece7",
"c3 c #cde7d0",
"c4 c #cdddcd",
"c5 c #cfddd0",
"c6 c #cfddd3",
"c7 c #bff7cf",
"c8 c #c0e3c7",
"c9 c #cfe4d5",
"ca c #cfddd2",
"cb c #ceddd1",
"cc c #cfdcd0",
"cd c #8df1aa",
"ce c #cef7d7",
"cf c #b8ebc5",
"d0 c #d0e1d6",
"d1 c #cfe3d1",
"d2 c #9bf5b5",
"d3 c #eaf7eb",
"d4 c #d4fadd",
"d5 c #b8edc5",
"d6 c #c8e2cd",
"d7 c #cde5d1",
"d8 c #cee3d1",
"d9 c #d0e0d5",
"da c #cae9d1",
"db c #b1f6c3",
"dc c #eaf8eb",
"dd c #baeec6",
"de c #c0e5c8",
"df c #b6f5c7",
"e0 c #b4f3c4",
"e1 c #d2e1d3",
"e2 c #d1e0d5",
"e3 c #b8ecc4",
"e4 c #cbf4d3",
"e5 c #d0f7da",
"e6 c #b7edc4",
"e7 c #b6f4c6",
"e8 c #eaf5eb",
"e9 c #c6e6cc",
"ea c #93eaab",
"eb c #8bf3ad",
"ec c #cce6d2",
"ed c #cde1d1",
"ee c #d0dfd2",
"ef c #d1dfd2",
"f0 c #afe9bb",
"f1 c #aeeebd",
"f2 c #8ceeaa",
"f3 c #bff2ca",
"f4 c #d0ead5",
"f5 c #d2e1d4",
"f6 c #aaf0ba",
"f7 c #b7eec4",
"f8 c #8bf0aa",
"f9 c #c2f3cf",
"fa c #d6ecdb",
"fb c #d2e5d8",
"fc c #d1e2d6",
"fd c #d9eadb",
"fe c #b9f1c6",
"ff c #c0e4c7",
"10 c #95f6b3",
"10 c #cbead2",
"10 c #d6e9d9",
"10 c #d4e6d4",
"10 c #cee8d2",
"10 c #d0dfd1",
"10 c #d8eedd",
"10 c #dbf0de",
"10 c #deeedf",
"10 c #dcf4df",
"10 c #a8f7bd",
"10 c #93f6b1",
"10 c #dfede1",
"10 c #a1f3b5",
"10 c #cbeacf",
"10 c #d0e3d0",
"11 c #d1e2d1",
"11 c #dcecde",
"11 c #e0f1e1",
"11 c #ddf2df",
"11 c #d9f0dd",
"11 c #ddf6e0",
"11 c #c7f3d1",
"11 c #9ef3b2",
"11 c #bde6c6",
"11 c #a4f3b5",
"11 c #c1f1cb",
"11 c #d0e2d1",
"11 c #dcefde",
"11 c #ddf1df",
"11 c #d8eedc",
"11 c #dbecdd",
"12 c #bae9c5",
"12 c #a2eeb3",
"12 c #b3f6c4",
"12 c #c5eecc",
"12 c #cee6d0",
"12 c #cfdfd0",
"12 c #cddacb",
"12 c #c5dbc8",
"12 c #c5dfc9",
"12 c #d3e9d5",
"12 c #def3e0",
"12 c #dcf1de",
"12 c #ddf3df",
"12 c #d8eddb",
"12 c #d6eada",
"12 c #caddcc",
"13 c #a3eeb3",
"13 c #a8e9b6",
"13 c #acf1bd",
"13 c #c4dec8",
"13 c #cad3c6",
"13 c #bbdbc4",
"13 c #d6ecd9",
"13 c #d5ead9",
"13 c #bbe8c5",
"13 c #c5f3d0",
"13 c #96e7ab",
"13 c #b1f0c0",
"13 c #cbd2c5",
"13 c #aad7b5",
"13 c #a2d7af",
"13 c #a9eeb9",
"14 c #cae4cf",
"14 c #cde4d2",
"14 c #b5f0c4",
"14 c #f5fcf6",
"14 c #abefbb",
"14 c #9be3ad",
"14 c #aff6c1",
"14 c #d5f7dd",
"14 c #8ef5af",
"14 c #cce9d3",
"14 c #cbe7d0",
"14 c #cfe2d6",
"14 c #d0ded1",
"14 c #aff2bf",
"14 c #98f9b6",
"14 c #cbdbca",
"15 c #ccddcc",
"15 c #cfdcd3",
"15 c #a0edb0",
"15 c #c4eacc",
"15 c #cfe5d0",
"15 c #ceddce",
"15 c #cedbcf",
"15 c #c9d5cb",
"15 c #98e3ab",
"15 c #88f1a9",
"15 c #bdf2c9",
"15 c #cfe9d4",
"15 c #d2e3d1",
"15 c #cedbcd",
"15 c #c9d7c7",
"15 c #cbd5c7",
"16 c #ace4ba",
"16 c #89f0a9",
"16 c #9ff0b5",
"16 c #a5eeb6",
"16 c #ccdccc",
"16 c #c8d8c8",
"16 c #ccd7cb",
"16 c #c7d9c7",
"16 c #9fe6b1",
"16 c #a4f7ba",
"16 c #cff7d9",
"16 c #b0f7c2",
"16 c #c7d3c7",
"16 c #b9dcc3",
"16 c #98dcaa",
"16 c #b5f9c8",
"17 c #a1eab1",
"17 c #b8f1c6",
"17 c #c6d3c8",
"17 c #a1e4b2",
"17 c #a4f7bb",
"17 c #9de6ae",
"17 c #9be2ab",
"17 c #95f8b4",
"17 c #fbfefc",
"00000000000000000000000000000000000000000000000000000000000000000000000000000000000000000000000000000000000000000000000000000000",
"00000000000000000000000000000000000000000000000000000000000000000000000000000000000000000000000000000000000000000000000000000000",
"00000000000000000000000000000000000000000000000000000000000000000000000000000000000000000000000000000000000000000000000000000000",
"00000000000000000000000000000000000000000000000000000000000000000000000000000000000000000000000000000000000000000000000000000000",
"00000000000000000000000000000000000000000000000000000000000000000000000000000000000000000000000000000000000000000000000000000000",
"00000000000000000000000000000000000000000000000000000000000000000000000000000000000000000000000000000000000000000000000000000000",
"00000000000000000000000000000000000000000000000000000000000000000000000000000000000000000000000000000000000000000000000000000000",
"00000000000000000000000000000000000000000000000000000000000000000000000000000000000000000000000000000000000000000000000000000000",
"00000000000000000000000000000000000000000000000000000000000000000000000000000000000000000000000000000000000000000000000000000000",
"00000000000000000000000000000000000000000000000000000000000000000000000000000000000000000000000000000000000000000000000000000000",
"00000000000000000000000000000000000000000000000000000000000000000000000000000000000000000000000000000000000000000000000000000000",
"000000000000000000000000000000000000000000000000010203040503060604040505050708090a0000000000000000000000000000000000000000000000",
"0000000000000000000000000000000000000000000000000b0c0d0e0f1011121314151616171618190000000000000000000000000000000000000000000000",
"0000000000000000000000000000000000000000000000001a1b1c1d1e1e1e1d1d1f202122222324250000000000000000000000000000000000000000000000",
"000000000000000000000000000000000000000000000000261e2728292a16162b2828212221222c2d0000000000000000000000000000000000000000000000",
"0000000000000000000000000000000000000000000000002e1d1f2f30312916291f323233342835360000000000000000000000000000000000000000000000",
"00000000000000000000000000000000000000000000000037343438393a3b223c283d3e3f404142430000000000000000000000000000000000000000000000",
"00000000000000000000000000000000000000000000000044454638394748492b281f4a474b4c4d4e0000000000000000000000000000000000000000000000",
"0000000000000000000000000000000000000000000000004f504651524753325455565758595a5b5c0000000000000000000000000000000000000000000000",
"0000000000000000000000000000000000000000000000005d5e1d1f555f1d606162636465662928670000000000000000000000000000000000000000000000",
"0000000000000000000000000000000000000000000000005d6822553221623869396a6b226c1f6d6e0000000000000000000000000000000000000000000000",
"0000000000000000000000000000000000000000000000006f2322281f6270715757727332287475760000000000000000000000000000000000000000000000",
"00000000000000000000000000000000000000000000000077162278797a577b57577b7c7d21327e6f0000000000000000000000000000000000000000000000",
"0000000000000000000000000000000000000000000000007f802281828357848485858386218788890000000000000000000000000000000000000000000000",
"0000000000000000000000000000000000000000000000008a2322328b8c8d79828e8f9091929293940000000000000000000000000000000000000000000000",
"0000000000000000000000000000000000000000000000009580212896473221219798999a92929b9c0000000000000000000000000000000000000000000000",
"00000000000000000000000000000000000000000000000003169d9e219f78782135a07d919a9aa1a20000000000000000000000000000000000000000000000",
"000000000000000000000000000000000000000000000000a329291f2832787878929aa462919977a50000000000000000000000000000000000000000000000",
"0000000000000000000000000000000000000000000000006ea61e1fa762a818a9aaabacad91ae8aa50000000000000000000000000000000000000000000000",
"000000000000000000000000000000000000000000000000afb01d34b1626262b29aa8b362b292b4a50000000000000000000000000000000000000000000000",
"000000000000000000000000000000000000000000000000b5b6b734b1706262b29a9ab3b840b9baa50000000000000000000000000000000000000000000000",
"000000000000000000000000000000000000000000000000bbbcb7bdbebf62c040b3b3b3a4c099c1c20000000000000000000000000000000000000000000000",
"000000000000000000000000000000000000000000000000bbc3b71f34c4c54040c0b2b8a4c64005c20000000000000000000000000000000000000000000000",
"000000000000000000000000000000000000000000000000c7c829c91db1624040c0a8cac0cbcccdc20000000000000000000000000000000000000000000000",
"000000000000000000000000000000000000000000000000cecf1e294c1873c0cb18d0abcaa8d1d2d30000000000000000000000000000000000000000000000",
"000000000000000000000000000000000000000000000000d4d5d6d7d81834a8b218d0d9caaddadbdc0000000000000000000000000000000000000000000000",
"00000000000000000000000000000000000000000000000000dd1d1d781f9a9a5b18333462a8dedfdc0000000000000000000000000000000000000000000000",
"00000000000000000000000000000000000000000000000000e060b1e1b9b29ae25518a86262e3e4dc0000000000000000000000000000000000000000000000",
"000000000000000000000000000000000000000000000000e5251eb191c0b29a1855a8a8a8a8e6e7e80000000000000000000000000000000000000000000000",
"00000000000000000000000000000000000000000000e9eaeb1aecedeeb3b3ef9a9a9aa8a8a8f0f1920000000000000000000000000000000000000000000000",
"00000000000000000000000000000000000000000000f2f3f4292966f59ab2a8b29a9aeea8c5f6f7920000000000000000000000000000000000000000000000",
"00000000000000000000000000000000000000000000f8f9fa29b7fb9a9aa8a8b29ab29afcfdfe05ff0000000000000000000000000000000000000000000000",
"00000000000000000000000000000000000000000000101010102810b778107d9a9a874d10101010101010000000000000000000000000000000000000000000",
"0000000000000000000000000000000000000000000010102210115e7878783511111111a5101111111111110000000000000000000000000000000000000000",
"00000000000000000000000000000000000000000000111121348234115e24111111a5a5a511a5a511a612120000000000000000000000000000000000000000",
"000000000000000000000000000000000000000000001212121212121212121112121211a5a5121218a912130000000000000000000000000000000000000000",
"00000000000000000000000000000000000000000000131378131313131e16132311234913214634adb213130000000000000000000000000000000000000000",
"00000000000000000000000000000000000000000000001313131313131e1ea612f41414141f461db3b314140000000000000000000000000000000000000000",
"00000000000000000000000000000000000000000000000014141414145a141614133146461d1466149914000000000000000000000000000000000000000000",
"00000000000000000000000000000000000000000000000000000000141e16161e141560343427cb157c15000000000000000000000000000000000000000000",
"00000000000000000000000000000000000000000000000000000000051529b61515737334b8153f151315000000000000000000000000000000000000000000",
"000000000000000000000000000000000000000000000000000000001515101515b3b3b215991515161600000000000000000000000000000000000000000000",
"00000000000000000000000000000000000000000000000000000000161678b71616168513161616000000000000000000000000000000000000000000000000",
"00000000000000000000000000000000000000000000000000000000001616b7127b161616160000000000000000000000000000000000000000000000000000",
"00000000000000000000000000000000000000000000000000000000000017175717171700000000000000000000000000000000000000000000000000000000",
"00000000000000000000000000000000000000000000000000000000000000171717170000000000000000000000000000000000000000000000000000000000",
"00000000000000000000000000000000000000000000000000000000000000000000000000000000000000000000000000000000000000000000000000000000",
"00000000000000000000000000000000000000000000000000000000000000000000000000000000000000000000000000000000000000000000000000000000",
"00000000000000000000000000000000000000000000000000000000000000000000000000000000000000000000000000000000000000000000000000000000",
"00000000000000000000000000000000000000000000000000000000000000000000000000000000000000000000000000000000000000000000000000000000",
"00000000000000000000000000000000000000000000000000000000000000000000000000000000000000000000000000000000000000000000000000000000",
"00000000000000000000000000000000000000000000000000000000000000000000000000000000000000000000000000000000000000000000000000000000",
"00000000000000000000000000000000000000000000000000000000000000000000000000000000000000000000000000000000000000000000000000000000",
"00000000000000000000000000000000000000000000000000000000000000000000000000000000000000000000000000000000000000000000000000000000",
};
