/* XPM */
static char *image[] = {
"64 64 399 2",
"00 c #ffffff",
"01 c #f7fdf9",
"02 c #fdfefd",
"03 c #99e3aa",
"04 c #45a95d",
"05 c #37a754",
"06 c #107f2d",
"07 c #1b8236",
"08 c #48a85e",
"09 c #4ca75f",
"0a c #4ba75f",
"0b c #46a65c",
"0c c #45a55c",
"0d c #3f9955",
"0e c #398e4d",
"0f c #dfe7e0",
"10 c #51b366",
"11 c #34904a",
"12 c #248539",
"13 c #02721b",
"14 c #097724",
"15 c #0e7a28",
"16 c #3c8f51",
"17 c #3c8c4f",
"18 c #499c5a",
"19 c #44a159",
"1a c #3a9350",
"1b c #3d8b51",
"1c c #469357",
"1d c #a8c9ae",
"1e c #47a45b",
"1f c #026d1a",
"20 c #05721e",
"21 c #097d27",
"22 c #178a37",
"23 c #1d7f36",
"24 c #217435",
"25 c #216e34",
"26 c #40864e",
"27 c #418650",
"28 c #3e8b51",
"29 c #6ebc7e",
"2a c #b9ebc5",
"2b c #4ba65d",
"2c c #117b2c",
"2d c #067922",
"2e c #075d1d",
"2f c #0a561e",
"30 c #024d13",
"31 c #3d8c51",
"32 c #237536",
"33 c #1d672f",
"34 c #105320",
"35 c #13481b",
"36 c #1c5a2a",
"37 c #4caa60",
"38 c #044211",
"39 c #083b0d",
"3a c #044413",
"3b c #3d8a51",
"3c c #2d793f",
"3d c #063709",
"3e c #145122",
"3f c #57b36a",
"40 c #2c8e40",
"41 c #012301",
"42 c #011801",
"43 c #408750",
"44 c #307c42",
"45 c #011301",
"46 c #134b1d",
"47 c #5dae6c",
"48 c #37974e",
"49 c #308b40",
"4a c #024611",
"4b c #082f0a",
"4c c #072808",
"4d c #378247",
"4e c #2a753c",
"4f c #317d43",
"50 c #0e3212",
"51 c #0d4318",
"52 c #155422",
"53 c #4ea85f",
"54 c #63bd78",
"55 c #3a9550",
"56 c #58aa65",
"57 c #5cac6a",
"58 c #0a3d11",
"59 c #063809",
"5a c #0a4213",
"5b c #1c632e",
"5c c #217237",
"5d c #3d9e55",
"5e c #b5dbbd",
"5f c #429d57",
"60 c #3c854b",
"61 c #266836",
"62 c #134b1e",
"63 c #011a01",
"64 c #011e01",
"65 c #08541d",
"66 c #368046",
"67 c #3a8a4d",
"68 c #41a459",
"69 c #4da65f",
"6a c #59ab66",
"6b c #205a2d",
"6c c #0f3b11",
"6d c #010800",
"6e c #000100",
"6f c #010c01",
"70 c #0b4013",
"71 c #3e864d",
"72 c #3f9755",
"73 c #44a45b",
"74 c #bbe2c2",
"75 c #51a861",
"76 c #60b26f",
"77 c #0d370f",
"78 c #011001",
"79 c #2f7c41",
"7a c #358849",
"7b c #cbf0d4",
"7c c #2f9749",
"7d c #54a964",
"7e c #348244",
"7f c #0a3f13",
"80 c #011b01",
"81 c #22602d",
"82 c #296532",
"83 c #337441",
"84 c #012101",
"85 c #216f34",
"86 c #048226",
"87 c #419d57",
"88 c #dfe6e0",
"89 c #3ba756",
"8a c #1b993e",
"8b c #1a993e",
"8c c #115e26",
"8d c #053508",
"8e c #3c8e51",
"8f c #428d50",
"90 c #073709",
"91 c #2b8a3e",
"92 c #69b878",
"93 c #bfe6c6",
"94 c #ededed",
"95 c #64c076",
"96 c #129d41",
"97 c #109a3a",
"98 c #52ac63",
"99 c #49ad61",
"9a c #055219",
"9b c #215e2f",
"9c c #1a5829",
"9d c #7ed792",
"9e c #f5f5f5",
"9f c #5fb670",
"a0 c #139339",
"a1 c #028426",
"a2 c #178b37",
"a3 c #41a658",
"a4 c #0f6729",
"a5 c #025216",
"a6 c #1b602c",
"a7 c #09591d",
"a8 c #82db96",
"a9 c #55ae67",
"aa c #02701b",
"ab c #016919",
"ac c #016718",
"ad c #0c6225",
"ae c #07521a",
"af c #025112",
"b0 c #d0f0d6",
"b1 c #66c078",
"b2 c #027a1f",
"b3 c #17973e",
"b4 c #035017",
"b5 c #025315",
"b6 c #025413",
"b7 c #d4f3db",
"b8 c #7ad08c",
"b9 c #088a2b",
"ba c #119838",
"bb c #27a34b",
"bc c #0c6f27",
"bd c #034512",
"be c #034e16",
"bf c #0c6023",
"c0 c #d5f3dc",
"c1 c #ceeed4",
"c2 c #109a39",
"c3 c #119a3a",
"c4 c #2ba24c",
"c5 c #34984b",
"c6 c #15632b",
"c7 c #024811",
"c8 c #014b0f",
"c9 c #135c25",
"ca c #cbecd2",
"cb c #11993a",
"cc c #38974f",
"cd c #3a9450",
"ce c #18612b",
"cf c #034712",
"d0 c #024d14",
"d1 c #0f5d25",
"d2 c #dbefdf",
"d3 c #7dcd8e",
"d4 c #058728",
"d5 c #078428",
"d6 c #36994d",
"d7 c #3a914e",
"d8 c #15622a",
"d9 c #215b2e",
"da c #045718",
"db c #095e21",
"dc c #7ec68c",
"dd c #058226",
"de c #1a7d33",
"df c #45a55b",
"e0 c #1a5f2b",
"e1 c #0e4c1c",
"e2 c #14622a",
"e3 c #0d5d21",
"e4 c #7bce8c",
"e5 c #0c7928",
"e6 c #379d4f",
"e7 c #49a55d",
"e8 c #1d622e",
"e9 c #225f30",
"ea c #215f31",
"eb c #206a33",
"ec c #cce9d2",
"ed c #096f24",
"ee c #0b6f26",
"ef c #0d7427",
"f0 c #136129",
"f1 c #215e31",
"f2 c #216431",
"f3 c #2b773e",
"f4 c #7ad690",
"f5 c #0e852f",
"f6 c #02751c",
"f7 c #02781e",
"f8 c #0c7227",
"f9 c #014c11",
"fa c #225b2e",
"fb c #1b6a30",
"fc c #79d58e",
"fd c #4abb67",
"fe c #027c20",
"ff c #038525",
"10 c #034f17",
"10 c #0b4416",
"10 c #216631",
"10 c #18672e",
"10 c #6ecc82",
"10 c #61c475",
"10 c #43b863",
"10 c #038425",
"10 c #028324",
"10 c #168a36",
"10 c #025515",
"10 c #6fc680",
"10 c #6ecd82",
"10 c #79d98e",
"10 c #80de98",
"10 c #48a95f",
"11 c #8dd29c",
"11 c #37a853",
"11 c #49bb66",
"11 c #027f22",
"11 c #0b7927",
"11 c #025114",
"11 c #0c5d21",
"11 c #3d934f",
"11 c #6bc47d",
"11 c #6dc780",
"11 c #62c979",
"11 c #5cc775",
"11 c #39a251",
"11 c #38a854",
"11 c #109c3e",
"11 c #36a653",
"12 c #6ace80",
"12 c #13993a",
"12 c #3fa758",
"12 c #2a9243",
"12 c #0e6628",
"12 c #70c482",
"12 c #77d48b",
"12 c #74cf86",
"12 c #7ddb92",
"12 c #87de9c",
"12 c #7fda94",
"12 c #1a6b2f",
"12 c #33a751",
"12 c #2a9a47",
"12 c #299345",
"12 c #025815",
"13 c #04631a",
"13 c #12682a",
"13 c #196a2e",
"13 c #2d7a3f",
"13 c #56ad67",
"13 c #47a65c",
"13 c #61c274",
"13 c #5dc675",
"13 c #54b568",
"13 c #09671f",
"13 c #1f7033",
"13 c #129b3c",
"13 c #2e9a49",
"13 c #2f8e46",
"13 c #036319",
"13 c #116429",
"14 c #043007",
"14 c #012001",
"14 c #62b973",
"14 c #49a85e",
"14 c #37a553",
"14 c #2d8d3f",
"14 c #86de9b",
"14 c #086a1f",
"14 c #08621f",
"14 c #287a3a",
"14 c #34a04f",
"14 c #3aa855",
"14 c #5eb16d",
"14 c #0b6423",
"14 c #025215",
"14 c #032806",
"15 c #012202",
"15 c #29a54d",
"15 c #27a24a",
"15 c #149c41",
"15 c #229e45",
"15 c #359a4d",
"15 c #025715",
"15 c #1f602e",
"15 c #dbdedf",
"15 c #dcdedf",
"15 c #2da74e",
"15 c #39a855",
"15 c #61b370",
"15 c #398c4b",
"15 c #043209",
"15 c #188b38",
"16 c #119a3c",
"16 c #129638",
"16 c #36a852",
"16 c #025e16",
"16 c #215c2e",
"16 c #145321",
"16 c #3ba857",
"16 c #3a8b4c",
"16 c #67b876",
"16 c #3d8a4e",
"16 c #022303",
"16 c #209d43",
"16 c #119b3b",
"16 c #30a650",
"16 c #1b8837",
"16 c #026117",
"17 c #0d380f",
"17 c #b0d2b9",
"17 c #70cd83",
"17 c #56aa65",
"17 c #035316",
"17 c #f6f9f6",
"17 c #3ba855",
"17 c #28a34b",
"17 c #49a65d",
"17 c #4aa65d",
"17 c #0d7a28",
"17 c #024b12",
"17 c #1c5e2a",
"17 c #3caa57",
"17 c #129c3f",
"17 c #47a95e",
"18 c #52a963",
"18 c #21903f",
"18 c #84cb92",
"18 c #1d8b3a",
"18 c #429155",
"18 c #3e8d4f",
"18 c #58a667",
"18 c #e2f3e5",
"18 c #4ea760",
"18 c #27753a",
"18 c #fdfdfd",
"18 c #dcdfdf",
"18 c #dbdede",
"18 c #dee0e0",
"18 c #dbdddd",
"00000000000000000000000000000000000000000000000000000000000000000000000000000000000000000000000000000000000000000000000000000000",
"00000000000000000000000000000000000000000000000000000000000000000000000000000000000000000000000000000000000000000000000000000000",
"00000000000000000000000000000000000000000000000000000000000000000000000000000000000000000000000000000000000000000000000000000000",
"00000000000000000000000000000000000000000000000000000000000000000000000000000000000000000000000000000000000000000000000000000000",
"00000000000000000000000000000000000000000000000000000000000000000000000000000000000000000000000000000000000000000000000000000000",
"00000000000000000000000000000000000000000000000000000000000000000000000000000000000000000000000000000000000000000000000000000000",
"00000000000000000000000000000000000000000000000000000000000000000000000000000000000000000000000000000000000000000000000000000000",
"00000000000000000000000000000000000000000000000000000000000000000000000000000000000000000000000000000000000000000000000000000000",
"00000000000000000000000000000000000000000000000000000000000000000000000000000000000000000000000000000000000000000000000000000000",
"00000000000000000000000000000000000000000000000000000000000000000000000000000000000000000000000000000000000000000000000000000000",
"00000000000000000000000000000000000000000000000000000000000000000000000000000000000000000000000000000000000000000000000000000000",
"00000000000000000000000000000000000000000000000000000000000000000000000000000000000000000000000000000000000000000000000000000000",
"00000000000000000000000000000000000000000000000000000000000000000000000000000000000000000000000000000000000000000000000000000000",
"00000000000000000000000000000000000000000000000000000000000000000000000000000000000000000000000000000000000000000000000000000000",
"00000000000000000000000000000000000000000000000000000000000000000001010200000000000000000000000000000000000000000000000000000000",
"000000000000000000000000000000000000000000000000000003040506060708090a0b0c0d0e0f000000000000000000000000000000000000000000000000",
"0000000000000000000000000000000000000000000000000000101112131415161718191a1b1c1d000000000000000000000000000000000000000000000000",
"00000000000000000000000000000000000000000000000000001e1f20212223162425262728292a000000000000000000000000000000000000000000000000",
"00000000000000000000000000000000000000000000000000002b2c2d2e2f303132333435362900000000000000000000000000000000000000000000000000",
"000000000000000000000000000000000000000000000000000037222238393a3b323c3d393e2900000000000000000000000000000000000000000000000000",
"00000000000000000000000000000000000000000000000000003f40223841424344444541464700000000000000000000000000000000000000000000000000",
"00000000000000000000000000000000000000000000000000003f48494a4b4c4d4e4f5051525300000000000000000000000000000000000000000000000000",
"000000000000000000000000000000000000000000000000000054551627565758595a575b5c5d00000000000000000000000000000000000000000000000000",
"00000000000000000000000000000000000000000000000000005e5f166061626345646566676800000000000000000000000000000000000000000000000000",
"00000000000000000000000000000000000000000000000000005e696a446b6c6d6e6f7071727300000000000000000000000000000000000000000000000000",
"00000000000000000000000000000000000000000000000000007475764477786d6d6d7844797a00000000000000000000000000000000000000000000000000",
"00000000000000000000000000000000000000000000000000007b7c7d7e7f808182838485868700000000000000000000000000000000000000000000000000",
"000000000000000000000000000000000000000000000000000088898a8b8c8d8e6a8f9091929300000000000000000000000000000000000000000000000000",
"0000000000000000000000000000000000000000000000000000949596972298999a9b9c9d000000000000000000000000000000000000000000000000000000",
"00000000000000000000000000000000000000000000000000009e9fa0a1a2a3a4a5a6a7a8000000000000000000000000000000000000000000000000000000",
"000000000000000000000000000000000000000000000000000000a9aaabacaa59adaeafb0000000000000000000000000000000000000000000000000000000",
"000000000000000000000000000000000000000000000000000000b1b2a1b3ac59b4b5b6b7000000000000000000000000000000000000000000000000000000",
"000000000000000000000000000000000000000000000000000000b8b9babbbcbdbeb4bfc0000000000000000000000000000000000000000000000000000000",
"000000000000000000000000000000000000000000000000000000c1c2c3c4c5c6c7c8c9c0000000000000000000000000000000000000000000000000000000",
"000000000000000000000000000000000000000000000000000000cac2cbcccdcecfd0d1d2000000000000000000000000000000000000000000000000000000",
"000000000000000000000000000000000000000000000000000000d3d4d5d6d7d8d9dadb00000000000000000000000000000000000000000000000000000000",
"000000000000000000000000000000000000000000000000000000dcdddedf24e0e1e2e300000000000000000000000000000000000000000000000000000000",
"000000000000000000000000000000000000000000000000000000e4e5e6dfe7e8e9eaeb00000000000000000000000000000000000000000000000000000000",
"000000000000000000000000000000000000000000000000000000ecaaedeeeff0f1f2f300000000000000000000000000000000000000000000000000000000",
"000000000000000000000000000000000000000000000000000000f4f5f6f7f8f9faf2fb00000000000000000000000000000000000000000000000000000000",
"0000000000000000000000000000000000000000000000000000fcfda1feff221010101000000000000000000000000000000000000000000000000000000000",
"00000000000000000000000000000000000000000000000000101010ff10101010c7e21010101010000000000000000000000000000000000000000000000000",
"00000000000000000000000000000000000000000000000010111111ff11c2111111111111111111000000000000000000000000000000000000000000000000",
"00000000000000000000000000000000000000000000000011111112121269121212121212121212000000000000000000000000000000000000000000000000",
"00000000000000000000000000000000000000000000000012c21212121313131313131313131313000000000000000000000000000000000000000000000000",
"00000000000000000000000000000000000000000000000022131313131314141414141414141414000000000000000000000000000000000000000000000000",
"0000000000000000000000000000000000000000000000001414141414141500151515151515e215000000000000000000000000000000000000000000000000",
"15151500000000000000000000000000000000000000000015151515154200001597161616161616000000000000000000000000000000000000000000000000",
"00000000000000000000000000000000000000000000000016161616160000001616161016161717000000000000000000000000000000000000000000000000",
"00000000000000000000000000000000000000000000000000171717170000001717171717171700000000000000000000000000000000000000000000000000",
"00000000000000000000000000000000000000000000000000000000000000001717171818160000000000000000000000000000000000000000000000000000",
"00000000000000000000000000000000000000000000000000000000000000001818171818180000000000000000000000000000000000000000000000000000",
"00000000000000000000000000000000000000000000000000000000000000000000181818000000000000000000000000000000000000000000000000000000",
"00000000000000000000000000000000000000000000000000000000000000000000000000000000000000000000000000000000000000000000000000000000",
"18181800000000000000000000000000000000000000000000000000000000000000000000000000000000000000000000000000000000000000000000000000",
"18151800000000000000000000000000000000000000000000000000000000000000000000000018000000000000000000000000000000000000000000000000",
"18151800000000000000000000000000000000000000000000000000000000000000000000001818000000000000000000000000000000000000000000000000",
"18151800000000000000000000000000000000000000000000000000000000000000000000001818000000000000000000000000000000000000000000000000",
"00000000000000000000000000000000000000000000000000000000000000000000000000000000000000000000000000000000000000000000000000000000",
"00000000000000000000000000000000000000000000000000000000000000000000000000000000000000000000000000000000000000000000000000000000",
"00000000000000000000000000000000000000000000000000000000000000000000000000000000000000000000000000000000000000000000000000000000",
"00000000000000000000000000000000000000000000000000000000000000000000000000000000000000000000000000000000000000000000000000000000",
"00000000000000000000000000000000000000000000000000000000000000000000000000000000000000000000000000000000000000000000000000000000",
"00000000000000000000000000000000000000000000000000000000000000000000000000000000000000000000000000000000000000000000000000000000",
};
