/* XPM */
static char *image[] = {
"64 64 467 2",
"00 c #dcdddf",
"01 c #dcdedd",
"02 c #d7e0dd",
"03 c #fdfefe",
"04 c #fefefe",
"05 c #d8e0de",
"06 c #d6e0dd",
"07 c #d9dfdd",
"08 c #fdfefd",
"09 c #eff1f0",
"0a c #dbdedd",
"0b c #d6dfdd",
"0c c #fbfefe",
"0d c #dcdfde",
"0e c #dcdde0",
"0f c #fcfdfc",
"10 c #eceeee",
"11 c #d9dede",
"12 c #dddee0",
"13 c #dbdddd",
"14 c #d9dedf",
"15 c #dadedf",
"16 c #e4e7e6",
"17 c #d9dee0",
"18 c #dadfdd",
"19 c #fdfdfd",
"1a c #dadddc",
"1b c #dbdfdf",
"1c c #fcfefc",
"1d c #dfe2e1",
"1e c #dbdede",
"1f c #d7dfdd",
"20 c #dbdddc",
"21 c #eff2f1",
"22 c #dce0df",
"23 c #dbe0e1",
"24 c #d9dfe0",
"25 c #edf0ef",
"26 c #dde0df",
"27 c #e5e7e6",
"28 c #dae0df",
"29 c #fcfefd",
"2a c #dcddde",
"2b c #d7dfde",
"2c c #d8dedc",
"2d c #dadedd",
"2e c #fbfdfd",
"2f c #dadfde",
"30 c #d8dcdb",
"31 c #d9dedc",
"32 c #dbe1e0",
"33 c #dbe1e1",
"34 c #eceeed",
"35 c #d8dddd",
"36 c #fafdfc",
"37 c #d8dfde",
"38 c #e6e8e8",
"39 c #dbdfe0",
"3a c #fafcfa",
"3b c #d8dedd",
"3c c #dedfe1",
"3d c #d8dfdd",
"3e c #d9e0df",
"3f c #e7ebea",
"40 c #dadfdf",
"41 c #fbfdfc",
"42 c #d9dcdc",
"43 c #d8dddb",
"44 c #eaeded",
"45 c #dddfdf",
"46 c #dbe0e0",
"47 c #dadedc",
"48 c #d9dfdf",
"49 c #f3f3f5",
"4a c #f9fcfb",
"4b c #f9fcfa",
"4c c #f8fbfa",
"4d c #dcdfdf",
"4e c #dee0e0",
"4f c #f9fbfa",
"50 c #dee0df",
"51 c #dde1e0",
"52 c #d9dddc",
"53 c #e9eaea",
"54 c #ebeded",
"55 c #f2f4f3",
"56 c #f8fcfb",
"57 c #dbdfde",
"58 c #f9fbf9",
"59 c #fcfefe",
"5a c #dfe1e1",
"5b c #d9dedd",
"5c c #e7ebeb",
"5d c #fcfdfd",
"5e c #dadede",
"5f c #dbddde",
"60 c #f1f4f3",
"61 c #d9dfde",
"62 c #fbfefc",
"63 c #dddedf",
"64 c #dedfe0",
"65 c #eef1f0",
"66 c #d6dbd9",
"67 c #f6f5f7",
"68 c #fafdfd",
"69 c #d7dddc",
"6a c #dcdee0",
"6b c #f0f3f1",
"6c c #dce1e0",
"6d c #dddfde",
"6e c #e8eaea",
"6f c #dae0de",
"70 c #f0f2f1",
"71 c #dadfe0",
"72 c #eef0ef",
"73 c #dbdee0",
"74 c #d6dedc",
"75 c #d7e0de",
"76 c #dcdede",
"77 c #dee1e0",
"78 c #dae0e0",
"79 c #fbfefd",
"7a c #f0f1f1",
"7b c #d9dddd",
"7c c #eeeff0",
"7d c #dcdddd",
"7e c #e5e8e7",
"7f c #dadddd",
"80 c #dde0de",
"81 c #fdfdfe",
"82 c #dde0e0",
"83 c #d8dcdc",
"84 c #dbdedc",
"85 c #dce0de",
"86 c #fbfdfb",
"87 c #e9ebeb",
"88 c #f8fbfb",
"89 c #dee2e1",
"8a c #e7eae9",
"8b c #f8fafa",
"8c c #dae1df",
"8d c #d7dedd",
"8e c #e5eae9",
"8f c #fbfdfe",
"90 c #d8dddc",
"91 c #dbdedf",
"92 c #dde1e1",
"93 c #f8faf8",
"94 c #d7dcda",
"95 c #d9dcdb",
"96 c #f3f5f4",
"97 c #d9ddde",
"98 c #e7e9e8",
"99 c #e0e2e3",
"9a c #dddfe0",
"9b c #d8dfdf",
"9c c #eff3f0",
"9d c #dae3e0",
"9e c #d7dedc",
"9f c #e6e8e7",
"a0 c #dee2e2",
"a1 c #d9dddb",
"a2 c #dbe2e0",
"a3 c #d7dbda",
"a4 c #eff0f0",
"a5 c #fcfcfc",
"a6 c #dbdddf",
"a7 c #edefef",
"a8 c #e8ebea",
"a9 c #dfe3e2",
"aa c #f2f5f4",
"ab c #f8fbf9",
"ac c #e7e9e9",
"ad c #fcfdfe",
"ae c #f8fafb",
"af c #e0e2e1",
"b0 c #dddee1",
"b1 c #dbdfdd",
"b2 c #dce2e1",
"b3 c #fafcfb",
"b4 c #fafbfa",
"b5 c #e3e6e5",
"b6 c #e6e9e8",
"b7 c #fafcfd",
"b8 c #dfe3e1",
"b9 c #dce0e1",
"ba c #dce2e2",
"bb c #dee0e1",
"bc c #dfe0e2",
"bd c #dee1e1",
"be c #fbfcfc",
"bf c #dee3e2",
"c0 c #f0f2f2",
"c1 c #f7fbfa",
"c2 c #dce3e1",
"c3 c #f6f9f8",
"c4 c #f3f5f3",
"c5 c #dce0e0",
"c6 c #dde0e1",
"c7 c #dde2e1",
"c8 c #dbdde0",
"c9 c #d8e0df",
"ca c #f7faf7",
"cb c #f1f2f1",
"cc c #e9ecec",
"cd c #dee1e2",
"ce c #dfe1e0",
"cf c #e6e9e9",
"d0 c #e0e1e3",
"d1 c #e0e3e2",
"d2 c #d6dfdc",
"d3 c #dee4e2",
"d4 c #fafcfc",
"d5 c #dee3e3",
"d6 c #f4f6f5",
"d7 c #f9f8f9",
"d8 c #dfe2e3",
"d9 c #eaedec",
"da c #e0e2e2",
"db c #f7faf8",
"dc c #eaeeed",
"dd c #dcdfdd",
"de c #f9fdfc",
"df c #f9fcfc",
"e0 c #dcdedf",
"e1 c #e9e9e9",
"e2 c #f5f5f6",
"e3 c #f9fbfb",
"e4 c #ebedec",
"e5 c #d8e0dd",
"e6 c #dddde0",
"e7 c #ebeeed",
"e8 c #f8faf9",
"e9 c #f9faf9",
"ea c #e1e4e3",
"eb c #f9fbfc",
"ec c #ebecec",
"ed c #e3e5e4",
"ee c #dbe0de",
"ef c #e1e4e4",
"f0 c #e2e5e4",
"f1 c #edf0ee",
"f2 c #f9fafa",
"f3 c #fbfcfb",
"f4 c #dfe2e2",
"f5 c #f7f9f9",
"f6 c #e3e4e3",
"f7 c #f4f8f7",
"f8 c #e1e5e4",
"f9 c #d7dfdc",
"fa c #dae2df",
"fb c #d7dddb",
"fc c #f1f3f2",
"fd c #dfe0e1",
"fe c #dbe0df",
"ff c #eff3f1",
"10 c #f0f3f2",
"10 c #ecefef",
"10 c #e8edec",
"10 c #edefee",
"10 c #ecefee",
"10 c #eff1f1",
"10 c #ebefee",
"10 c #eaeceb",
"10 c #eff0f1",
"10 c #eef2f1",
"10 c #e9edee",
"10 c #e9eded",
"10 c #e8eaeb",
"10 c #e9ebea",
"10 c #eff2f2",
"10 c #ecf0ef",
"11 c #e9eceb",
"11 c #f0f3f3",
"11 c #f1f3f3",
"11 c #eef0f0",
"11 c #eaecec",
"11 c #e8ebeb",
"11 c #eaeced",
"11 c #ebeced",
"11 c #edf1f0",
"11 c #e9edeb",
"11 c #eaeeec",
"11 c #ebf1ee",
"11 c #eef1ef",
"11 c #eef2f0",
"11 c #dcdfe0",
"11 c #d7dcdb",
"12 c #eef0ee",
"12 c #fafbfb",
"12 c #e5eae7",
"12 c #fafafa",
"12 c #e4e8e8",
"12 c #dde1df",
"12 c #d7dedb",
"12 c #dae1e0",
"12 c #e2e6e4",
"12 c #e5e8e8",
"12 c #f7f8f7",
"12 c #e4e6e5",
"12 c #f7f7f7",
"12 c #f7f8f9",
"12 c #f1f1f2",
"12 c #f1f5f4",
"13 c #f4f5f5",
"13 c #f2f4f4",
"13 c #e7e7e9",
"13 c #f3f6f5",
"13 c #e5e7e7",
"13 c #e3e7e7",
"13 c #e4e8e7",
"13 c #d5e1db",
"13 c #c0e0cd",
"13 c #d4f5e0",
"13 c #e2eae6",
"13 c #d8e1de",
"13 c #e4e7e7",
"13 c #d0e2d7",
"13 c #b3dbc3",
"13 c #c3ebd3",
"14 c #d2ebdb",
"14 c #cef1d9",
"14 c #e8e8ea",
"14 c #a2d2b5",
"14 c #ccf4d9",
"14 c #d2eedb",
"14 c #dee7e2",
"14 c #eeedf0",
"14 c #96c2aa",
"14 c #d3eddc",
"14 c #e5e8e6",
"14 c #d8e8de",
"14 c #d7e3dd",
"14 c #f4f7f7",
"14 c #f5f6f6",
"14 c #f5f6f5",
"15 c #f3f5f5",
"15 c #f6f7f6",
"15 c #e4eae8",
"15 c #f0f4f3",
"15 c #e3e8e7",
"15 c #e9eae9",
"15 c #e8e9ea",
"15 c #e3e6e6",
"15 c #f2f5f5",
"15 c #e4e6e6",
"15 c #e5e7e8",
"15 c #e6e7e8",
"15 c #f4f6f6",
"15 c #dce6e0",
"15 c #e2e7e5",
"15 c #cef1da",
"16 c #cfe2d5",
"16 c #e4f0e9",
"16 c #dce9e4",
"16 c #bee3cd",
"16 c #c2e4d0",
"16 c #d6dcdb",
"16 c #e8eae9",
"16 c #e1e3e2",
"16 c #dee2e0",
"16 c #f4f5f4",
"16 c #f7f9f8",
"16 c #e0e4e4",
"16 c #e0e4e3",
"16 c #f6f7f7",
"16 c #f7faf9",
"16 c #e2e3e2",
"17 c #dfe3e3",
"17 c #f7f8f8",
"17 c #e2e4e3",
"17 c #e2e4e4",
"17 c #e0e4e5",
"17 c #dee4e1",
"17 c #f6f6f7",
"17 c #e2e6e6",
"17 c #cedad5",
"17 c #b7ddc6",
"17 c #d4e0da",
"17 c #d5e0db",
"17 c #d8dedb",
"17 c #d5dcda",
"17 c #d8dfdc",
"17 c #dde2e0",
"18 c #c2f1d5",
"18 c #c2f0d5",
"18 c #c8f8da",
"18 c #c9f8da",
"18 c #e6e7e7",
"18 c #e2e6e5",
"18 c #e1e5e6",
"18 c #e1e6e4",
"18 c #d7e6de",
"18 c #d3dfd9",
"18 c #f8f9f9",
"18 c #eaebeb",
"18 c #d7e5dd",
"18 c #e6eae8",
"18 c #dadee0",
"18 c #fbfbfb",
"19 c #e7e8e9",
"19 c #e4e7e8",
"19 c #cdefd9",
"19 c #c0e5cf",
"19 c #dbe4df",
"19 c #b5dcc5",
"19 c #d9e0de",
"19 c #b0d9c1",
"19 c #dfe6e5",
"19 c #eeeeef",
"19 c #d5dad8",
"19 c #e9ebec",
"19 c #c0ecd2",
"19 c #f5f8f6",
"19 c #d9e2df",
"19 c #efedf0",
"1a c #f6e7f6",
"1a c #dce6e2",
"1a c #ceddd4",
"1a c #cddad4",
"1a c #dae6df",
"1a c #d0f0da",
"1a c #e2e6e7",
"1a c #d0e2d6",
"1a c #dcdddc",
"1a c #e7eae8",
"1a c #fbfefb",
"1a c #f3f7f5",
"1a c #c6f5d8",
"1a c #c7f6d9",
"1a c #d2eedc",
"1a c #c6e4d1",
"1b c #bbe5cc",
"1b c #c0ebd1",
"1b c #d9e1df",
"1b c #d6dcda",
"1b c #d6dcd9",
"1b c #d4dcda",
"1b c #dee8e2",
"1b c #c4f4d7",
"1b c #f8fbf8",
"1b c #daddde",
"1b c #d6dbda",
"1b c #e0e5e5",
"1b c #f8f9f8",
"1b c #d5dbd9",
"1b c #f6faf9",
"1b c #f7f7f8",
"1c c #c5f5d8",
"1c c #e7eaea",
"1c c #dddede",
"1c c #cfd8d4",
"1c c #e1e5e5",
"1c c #d3dbd8",
"1c c #d2d9d6",
"1c c #f3f4f4",
"1c c #f4f6f4",
"1c c #f2f3f4",
"1c c #f6f6f6",
"1c c #d4dad8",
"1c c #e9ebe9",
"1c c #d5dcd9",
"1c c #d2d9d7",
"1c c #f5f7f6",
"1d c #d4e1da",
"1d c #d6e0dc",
"1d c #f4f7f6",
"0001020304040405060607040803090a010b0c0808080d0e0e050f080810111201080804081314151504040416170518040308191a17151b04031c1d0e0e0e08",
"121e06040404040a061f20041c03210a22231908080801000e24191c0825121226040804080015151504040427172428080808291517171504031c1d2a0e0e29",
"2b2c2d2e030f042f30310a190404211a0a32030808040d121233040404343035110c04193637052f0a04040338390a15193a030c012d3b2c04040f1d0d3c3c03",
"04040426153d0a2919040c283e263f0c2919224011014103030342430744080841451146471c0c03030a48024904044a262d1a284b0c294c4d014e4f04041950",
"04041c5115313d040404190b06525303033a0d0a4801410304030048155404081c5052012d04030303011511550304560a2c002d08040404573d0a580804192f",
"0404595a0013430804031c110a5b5c0c59080a2f4801410304041515155404195d3c5e5f5b0404030301151160080456526115240c0403031315155808041905",
"595904450a0a0a41030c192c3d5e2762040f0020301229045903633c6465040404665b113b5904040420260d6704031c570b0b1168040304013057581c08191a",
"69056a411c0429113e1f01030c086b5b6c200c0804036d0a462603030310630101030359591a02022c0403046e01392f080404044839126d04040f1d0d390d03",
"24241e410404042b06056f03590370482f222e0404046d0a713c5903047212120a290403041a0a011a03030427011f37190403047312120d2904044e63610203",
"061774410404040b061f1b5d04040907310b290404086d0a15260303037212120d030303031a0a0a1a03030327010675030303036d1212762904047763377559",
"282c05595903045b15780d0c79047a7b313104190403010a2d6d0303197c12124d790c0c037d010a0a2904047e017f2d2e0c595d80010a018103042640151504",
"0404048243332d1c04041c7746835329030c132d3901290303036412125403030c52480020030303030d0120600404030a0a152a5d03030c15482f5808040484",
"041919850571318604040873714887030329262d48014103030364123954040404766a1201590303030d0120600404045757152d3608030c15151588290f0884",
"0404048906063b040404033c6a408a035904450a4801410303034e1271720404042a12120108030303010120601904045757155e0c29030c1714718b04081c0a",
"0836190d398c3d080459411a128d8e19048f71120001040404041b12901004045d910a0b0d5d04040c300d20550304041a200d4d030c41629217899319040494",
"3c7b400f0419044d0d0a95030303967b14460c0303290111973c1903081015123c030304042d010157030404980d010a0f08030c0d5724570f03419912719a04",
"0e00021c0f045911179b170804049c57739d0c0803036d15153903030325481500030404039e5b0a0a0404049f01010103030308013d0657040329a03d753708",
"0e1215030304042f242b390404046b48150a030303036d1500260303032571151503040403a13d0a0a0304049f01010108030319010a062d040429a206050529",
"7b5b0a19292919a33b7537684a86a4185701a503290384a62a26080304a7396a12190403030a396a5f5d0304a801011a19030c59570a2d5b2e4141a957015b29",
"0404049a010d20040404294d5b2c5304040452000000190404031d3c4e5404045d5a1212151904040845524daa0404040d13310a5d04044f2f1500ab04083a2d",
"1904047700010d0303030331063dac03030326121212ad030303641212540303591b151515030404590a0a57600303030d0d0a1a0304040c311739ae04040476",
"1c0404af01010104030308135b1a8703080320b0b0128f030303451282540303594048151503040429b10a525503030301010a0a03030459b23e058804190476",
"41b3b4b53c12770f5db3b30d266cb6b76868b839b9ba2e191919bb3cbc725d1919bb3cbdb9be191968bfb9b9c0be195d45262263b76868c152bac2c3864bc10d",
"150078040404042a5e0a01030303c43cc50d040404042612123c5d030325121212040303039a1212630303046e1212000329290c463948c60c0419c75e3b7b81",
"0ec8c92904ca0464150a2f080404cb2f3711030404040112123c2e0303cc0a15120303030300010a1a0303039f1515000303030c1b1515cd410404ce1e913703",
"155e0b030429040a154840290404cb2f06710404040401121226410303540a1512030308032d010a1a030308cf5215000403030c151515d003081cd10100d259",
"d31dc7c3d4364b510d6cd541290fd62682a9d7190fa5ce1dd8771c08bed9d3a22d0f03080851ceceda5d4adbdc7726dd080c0c2e92bd262768dedf9f5a5ac229",
"0819084d31d24841030403153ce0e10303032f0d0d01290303030d0d0a1004040f501bc57f03030329132d0ae2040403571e571a59040888521139e303042911",
"040404515e1b6a040404046a122ae4030304e50a0a2f0c1c1c0490393910040404c5c8c815030303030a0a0a600303030d3915110304044c2f483c880404032f",
"04040446156a1204040404e61276e7030304823d0ad20304040440244065040404c515a600080303592d0a0a60030303dd5715110804044f57612de804040476",
"4fb3e916a9a9eaebbebe2eaf0d51ecb3b3a516edddee3ae9e9beefeaf0f1e93ae9f012da5a4f4fbef2a95a77e7e9f34ff477f422f3f388f5f62650f74a4f4cf8",
"3d0df9040359033c6a0012030404090a0101040303035e520a12040304543d224d040404031301010a040304cf0d0101290303031b15154d040403fafb182f03",
"3d3d3d0403040415151148030304fc01010104032929120a2d7f040404d9313d11040404590215152a5d03032712000003030303393915fd040404ce31061f03",
"06060a03030c1939151111030304213d00121903030312017100040404252f0615080404045b48152a030304271215150c030319111515fe0c04045a02067559",
"ff1065101010107010656510101010102121e7101010cbcb7070d91010c0101010118787111011111111113410a4cb09111110111110cb7211dc1111111111ec",
"040404a031572d0f0403036a2411b60303291148001503030404260101120808290a3d0a0d080359032a1590e20303413c3c117b030304128c3d2fc31c080f12",
"040304640a012f0c0341031b2443120304290a151739190404041115011203030c2d0a2d1e0404045d0015056004030311711f11040404121b7105e304040448",
"0404041d0a5757035d03412f37481229030378171500b304040811157b72030303122d0a5704040419e031d2110403290d1205150404044f3905128804040437",
"127e12e2129667b512b5121296121227127e67676712d91212ac1267121012272712671312102727271396aa9fb513ac13aa96131327121312969613271227fc",
"11131313130f5da1572d46590404605e13300803033671c5c513040403a70ddd52030403191f2b405203030313573c0d0808040457131722040404da0d570a08",
"131313141465043d3d5e6a040404fc612d2c0c0303082239121f0404047c0a0a57030308195b370518030304145e1513291c04e9320a15510408041d0d0a0a04",
"141414381411048c1f0aa604040f0906062f0c03040476123cd204040414484857b3030404012805952903049f2648155908081c0a1500260404041d0d0a0d04",
"141427141414381496141416b67e34aa15151513b5121513131215b6ac1013141515981515961515d638151510151314159f157ed61515151327121313159615",
"1415151615162d0c04030857a21facb3040439121b0a8603030c0e3cc5540303036d0d0d0a030404a5424811600403048c48a615190408e3713d57120303035e",
"161616161606110c0404042f061fcf0f040439484871ad0303040e0039440303036d0d010a0304041930481160040304281671111904044c0a2c2f4f0303030d",
"0404596105406a590404033b753e160404190d050506ad03035d0e006a1103035d0a01010a0804191911615f110404048cd20207413a044f0d18284f03030822",
"16161616db16db8989161616abdb12161216161216164e161517f56717251617161212121616d11617db671254171616dbe816e8170d17da12161717161713ab",
"17753d04040c040d06d23e080404094713070304190f0a0015710808082501010103030303fe06020a040404160e01014104040401520a22030303ba05c56404",
"1717174c190804f94317e5190304112c43170c0404041a3911570404032501010d030303048d48485e030304cf0001521c040404171f3117041919d117159159",
"1418181818ca043139150586080821391548360404041a1212010303032501010d030303035ed252950404041801015229030404152f43315d0303f4401a0a0c",
"1818131818181d1618f236229a1e1841040c0d500db1b303ad8657404d100303032276762d030304194550771319030c2f3d3dee3619044f642252165d191922",
"1818273818160e04030408072d2f18080c0c120a13204104041c18151154030303010100070404042901130055040303266f2f2f04040418152d0de80304044d",
"273819191919485959290c2f1e3516080341393d012f4104040c483911540303030101760a0403042901010a670403290a110a0719040412050b71e803040471",
"38389f381919060c0304089012407e861919171a13200304042948334654030303010d0d0d0804040420a1281319040482574751042908b4190612e803040439",
"9f9f9f141719192030173903032e192c20158f04043a3b7f52205d0c0ce7203019792941290d1a200d04040418520a0603040304a33015310303295701201703",
"9f9f1414191919190b145204030421061f3d0c03040418391226080419103d0a31030359593e2f0a2f0803081226012f190403088c1148d11904048913072d19",
"272710191a1a041a1a3e710404031161480a290304041b63120d291986543b01d2030404292815000d0404041694201e0cb403040a903951030403d1130a4004",
"1a1a1acf1815041a060b40040f41700b782d563629290a01201a2904041a283911033a081a2d570d30f33a0417570b480c041a10175b3131030f04ed461e3004",
"1a1a1a161602150404040447267610790c2911065701290303030d0a1a72030329070a1a260c03035d527f32670c0c5d0d2b1a1b1b658688c50a328803030326",
"1a8603280a0105040c03041b375e1004040439151515410303030a0a2ff10304043106060d0404041906069b600404121b1b1b161b127a18173971b30308030d",
"1b1b04334807520304032e4848151304040412154801290303030a2d19120f04043911111b040419031b1b17670f0403011ad2d214041b931b43111b18f31b0d",
"1cab190d2f1a302e0408290d2f3b1c0404044518487d29292903527848100404041ca6184e08035d0c1c1c1c5508030376261c1c101c121c1c19a17a1c1c1c1c",
"19066f0404040c57835e4e08292e602a1376040c0c414301010d597936d93d3131038f0c8f1a902d5e1c6e381c1c0a1c6e124f151c431c1c17106e431c1c191c",
"1d481d080808033124176a0404049c0a0101030303048c001526290308253e244804040359460a3d3112151d89170a0a5d4104040715154704032989220a0679",
};
