/* XPM */
static char *image[] = {
"64 64 424 2",
"00 c #ffffff",
"01 c #8add9a",
"02 c #86d996",
"03 c #7fd092",
"04 c #8de09c",
"05 c #8de49c",
"06 c #8de49d",
"07 c #8ae39a",
"08 c #76da8b",
"09 c #82e194",
"0a c #84e196",
"0b c #86da97",
"0c c #8fe29e",
"0d c #fbfdfb",
"0e c #4eb565",
"0f c #109137",
"10 c #068223",
"11 c #06882a",
"12 c #098b2e",
"13 c #4ca25f",
"14 c #5ca368",
"15 c #43a45c",
"16 c #339c52",
"17 c #349c51",
"18 c #187a33",
"19 c #318e49",
"1a c #14943c",
"1b c #08862b",
"1c c #028b28",
"1d c #078b2b",
"1e c #3e9e56",
"1f c #31773f",
"20 c #2e763f",
"21 c #40a15a",
"22 c #319c51",
"23 c #319b51",
"24 c #53a364",
"25 c #5cb96f",
"26 c #20863b",
"27 c #078223",
"28 c #098b2f",
"29 c #0e802d",
"2a c #349d52",
"2b c #309a4f",
"2c c #30994f",
"2d c #6fa77c",
"2e c #60c276",
"2f c #36a255",
"30 c #057921",
"31 c #00490f",
"32 c #01490f",
"33 c #05581a",
"34 c #3ca056",
"35 c #0e812e",
"36 c #0a6f24",
"37 c #01460f",
"38 c #074b14",
"39 c #7fa48b",
"3a c #6cc984",
"3b c #30a150",
"3c c #0a7222",
"3d c #01440f",
"3e c #053b11",
"3f c #044611",
"40 c #3b9e54",
"41 c #10802f",
"42 c #1a7934",
"43 c #06380f",
"44 c #104b19",
"45 c #6da178",
"46 c #76cc8b",
"47 c #339e52",
"48 c #0b7829",
"49 c #024110",
"4a c #031303",
"4b c #031c05",
"4c c #3f9e57",
"4d c #21863b",
"4e c #33753f",
"4f c #031403",
"50 c #031d05",
"51 c #07360e",
"52 c #5aa368",
"53 c #70d285",
"54 c #40ac5c",
"55 c #2b8f49",
"56 c #196d32",
"57 c #25612d",
"58 c #25622e",
"59 c #1c622b",
"5a c #0b5c1f",
"5b c #1f612b",
"5c c #37743e",
"5d c #215d29",
"5e c #135120",
"5f c #75d98b",
"60 c #49ae61",
"61 c #47a15c",
"62 c #347741",
"63 c #59a266",
"64 c #043d11",
"65 c #033f11",
"66 c #7eac8b",
"67 c #3f834b",
"68 c #1a6430",
"69 c #3c9e55",
"6a c #70d888",
"6b c #58bd6f",
"6c c #47a05c",
"6d c #337640",
"6e c #144c1a",
"6f c #0f4918",
"70 c #010e01",
"71 c #031503",
"72 c #104f1e",
"73 c #247036",
"74 c #359b51",
"75 c #4fa362",
"76 c #66d381",
"77 c #57c371",
"78 c #56a365",
"79 c #0f4315",
"7a c #07280c",
"7b c #010901",
"7c c #010c01",
"7d c #104416",
"7e c #286a34",
"7f c #329b51",
"80 c #51a363",
"81 c #65d281",
"82 c #63c97c",
"83 c #54a565",
"84 c #31733d",
"85 c #24622f",
"86 c #22743a",
"87 c #72d386",
"88 c #68cf80",
"89 c #46a15a",
"8a c #3a9c54",
"8b c #062f0d",
"8c c #082b0d",
"8d c #4b9057",
"8e c #498e55",
"8f c #05260a",
"90 c #1c672f",
"91 c #0e7f2c",
"92 c #16983f",
"93 c #ddf5e3",
"94 c #84d498",
"95 c #379e53",
"96 c #3fa159",
"97 c #034613",
"98 c #58a668",
"99 c #054212",
"9a c #1e6c34",
"9b c #157b2f",
"9c c #74cf89",
"9d c #e5e5e5",
"9e c #45ab5d",
"9f c #239b49",
"a0 c #058d2c",
"a1 c #15903a",
"a2 c #50a363",
"a3 c #398047",
"a4 c #165423",
"a5 c #18612f",
"a6 c #105421",
"a7 c #4eb066",
"a8 c #2d984c",
"a9 c #07882a",
"aa c #058725",
"ab c #128d36",
"ac c #45a159",
"ad c #1d6a32",
"ae c #0d4b19",
"af c #17612f",
"b0 c #59bb6e",
"b1 c #278e44",
"b2 c #04661e",
"b3 c #056720",
"b4 c #0c4e19",
"b5 c #135624",
"b6 c #034a11",
"b7 c #71c084",
"b8 c #269144",
"b9 c #0b7a23",
"ba c #078c2c",
"bb c #269648",
"bc c #06390f",
"bd c #085f24",
"be c #0e501c",
"bf c #0d4e19",
"c0 c #7ed58f",
"c1 c #349d50",
"c2 c #14953c",
"c3 c #25a34c",
"c4 c #066921",
"c5 c #024410",
"c6 c #00480f",
"c7 c #0b4d17",
"c8 c #094c16",
"c9 c #84da95",
"ca c #43ab5e",
"cb c #068d2d",
"cc c #1fa549",
"cd c #309a50",
"ce c #0a6a25",
"cf c #044a12",
"d0 c #d5f2db",
"d1 c #49ad61",
"d2 c #14973d",
"d3 c #1aa447",
"d4 c #056620",
"d5 c #084c15",
"d6 c #054a13",
"d7 c #094c15",
"d8 c #d6f4dc",
"d9 c #39a257",
"da c #048724",
"db c #058727",
"dc c #29964b",
"dd c #056421",
"de c #076024",
"df c #11521f",
"e0 c #3ca157",
"e1 c #07892c",
"e2 c #13953b",
"e3 c #187a32",
"e4 c #086024",
"e5 c #135d2c",
"e6 c #3b994f",
"e7 c #128934",
"e8 c #40a159",
"e9 c #47a45a",
"ea c #57a568",
"eb c #29723a",
"ec c #105d29",
"ed c #145f2d",
"ee c #2d713a",
"ef c #4dad63",
"f0 c #056e1f",
"f1 c #0d7524",
"f2 c #0a6925",
"f3 c #2f984e",
"f4 c #0b4e18",
"f5 c #44ae5e",
"f6 c #06801e",
"f7 c #077f1c",
"f8 c #0c7525",
"f9 c #044a13",
"fa c #135523",
"fb c #2a723a",
"fc c #145623",
"fd c #eefbf0",
"fe c #56c271",
"ff c #0e9236",
"10 c #06811f",
"10 c #1d893b",
"10 c #004a10",
"10 c #004510",
"10 c #1b6a34",
"10 c #f3fcf4",
"10 c #8de49e",
"10 c #6bd484",
"10 c #5fd07d",
"10 c #078728",
"10 c #09852c",
"10 c #04641d",
"10 c #0e5d26",
"10 c #55b46b",
"10 c #6ed787",
"10 c #5cd07c",
"11 c #88e399",
"11 c #9ae5a8",
"11 c #5fc878",
"11 c #67cb7c",
"11 c #54ba6b",
"11 c #109639",
"11 c #077f1d",
"11 c #0e9134",
"11 c #0b5c23",
"11 c #318a48",
"11 c #59bb6f",
"11 c #7bd98e",
"11 c #47ac5f",
"11 c #58c875",
"11 c #58c976",
"11 c #6bce81",
"12 c #62d280",
"12 c #31a352",
"12 c #1ea449",
"12 c #5bbd71",
"12 c #269a49",
"12 c #18a145",
"12 c #2da651",
"12 c #27a24d",
"12 c #15923b",
"12 c #41a35b",
"12 c #78db8c",
"12 c #6fd888",
"12 c #7dde91",
"12 c #7adc8e",
"12 c #93e6a2",
"12 c #0f6c29",
"13 c #71cf85",
"13 c #67d482",
"13 c #169a41",
"13 c #2d9c50",
"13 c #08611e",
"13 c #054a12",
"13 c #0a6b25",
"13 c #0f672a",
"13 c #3e9f56",
"13 c #29954b",
"13 c #5eb66c",
"13 c #3c9a54",
"13 c #49af61",
"13 c #5ec878",
"13 c #5dc274",
"13 c #2d9148",
"14 c #06611f",
"14 c #74d68b",
"14 c #66c277",
"14 c #108d35",
"14 c #199c44",
"14 c #309b50",
"14 c #1a7034",
"14 c #25733a",
"14 c #021c05",
"14 c #042b0a",
"14 c #5bb46c",
"14 c #55a664",
"14 c #55b66a",
"14 c #1c9943",
"14 c #7fde92",
"14 c #7fde93",
"15 c #085119",
"15 c #0c5f26",
"15 c #b2e9bd",
"15 c #68cb7e",
"15 c #3ba056",
"15 c #54b467",
"15 c #238c43",
"15 c #056520",
"15 c #115c29",
"15 c #072b0b",
"15 c #042006",
"15 c #43a55c",
"15 c #189f45",
"15 c #159940",
"15 c #045918",
"15 c #0f521e",
"16 c #0e511c",
"16 c #aadeb6",
"16 c #dbdddf",
"16 c #dadddf",
"16 c #dddee0",
"16 c #6dd183",
"16 c #329b50",
"16 c #5bb16a",
"16 c #419f59",
"16 c #14933b",
"16 c #041f06",
"16 c #062b0d",
"16 c #2c9a4f",
"16 c #13943a",
"16 c #058b2a",
"16 c #389e54",
"17 c #045418",
"17 c #0e5e28",
"17 c #08320e",
"17 c #b0e7bb",
"17 c #c1eeca",
"17 c #24a04b",
"17 c #6da77a",
"17 c #52a261",
"17 c #167230",
"17 c #092e0e",
"17 c #289f4e",
"17 c #14983d",
"17 c #339c51",
"17 c #4da75e",
"17 c #128c36",
"17 c #105221",
"18 c #144b1f",
"18 c #dbdedf",
"18 c #e7e8e9",
"18 c #f6fcf7",
"18 c #5ab26a",
"18 c #358b4a",
"18 c #134b1b",
"18 c #f7fbf8",
"18 c #39a053",
"18 c #25a24c",
"18 c #58a365",
"18 c #7bb28a",
"18 c #09561d",
"18 c #08280d",
"18 c #fafdfb",
"18 c #4fb666",
"19 c #319b4f",
"19 c #59a366",
"19 c #64a970",
"19 c #359d52",
"19 c #053b0f",
"19 c #5ca66b",
"19 c #6dcb83",
"19 c #14963d",
"19 c #51a364",
"19 c #79aa86",
"19 c #124d1d",
"19 c #ebf9ee",
"19 c #75d589",
"19 c #4fab61",
"19 c #135922",
"19 c #bee9c7",
"1a c #fdfdfd",
"1a c #fdfdfe",
"1a c #dddfe0",
"1a c #dee0e1",
"1a c #dcdee0",
"1a c #f9f9f9",
"1a c #dfe1e2",
"1a c #ececee",
"00000000000000000000000000000000000000000000000000000000000000000000000000000000000000000000000000000000000000000000000000000000",
"00000000000000000000000000000000000000000000000000000000000000000000000000000000000000000000000000000000000000000000000000000000",
"00000000000000000000000000000000000000000000000000000000000000000000000000000000000000000000000000000000000000000000000000000000",
"00000000000000000000000000000000000000000000000000000000000000000000000000000000000000000000000000000000000000000000000000000000",
"00000000000000000000000000000000000000000000000000000000000000000000000000000000000000000000000000000000000000000000000000000000",
"00000000000000000000000000000000000000000000000000000000000000000000000000000000000000000000000000000000000000000000000000000000",
"00000000000000000000000000000000000000000000000000000000000000000000000000000000000000000000000000000000000000000000000000000000",
"00000000000000000000000000000000000000000000000000000000000000000000000000000000000000000000000000000000000000000000000000000000",
"00000000000000000000000000000000000000000000000000000000000000000000000000000000000000000000000000000000000000000000000000000000",
"00000000000000000000000000000000000000000000000000000000000000000000000000000000000000000000000000000000000000000000000000000000",
"00000000000000000000000000000000000000000000000000000000000000000000000000000000000000000000000000000000000000000000000000000000",
"00000000000000000000000000000000000000000000000000000000000000000000000000000000000000000000000000000000000000000000000000000000",
"00000000000000000000000000000000000000000000000000000000000000000000000000000000000000000000000000000000000000000000000000000000",
"00000000000000000000000000000000000000000000000000000000000000000000000000000000000000000000000000000000000000000000000000000000",
"00000000000000000000000000000000000000000000000000000102030405060708090a0b0c0d00000000000000000000000000000000000000000000000000",
"00000000000000000000000000000000000000000000000000000e0f101112131414151617181900000000000000000000000000000000000000000000000000",
"00000000000000000000000000000000000000000000000000001a1b1c1c1d1e1f20212223242500000000000000000000000000000000000000000000000000",
"000000000000000000000000000000000000000000000000000026271c1c281629292a2b2c2d2e00000000000000000000000000000000000000000000000000",
"00000000000000000000000000000000000000000000000000002f30313233343536373138393a00000000000000000000000000000000000000000000000000",
"00000000000000000000000000000000000000000000000000003b3c3d3e3f404142434344454600000000000000000000000000000000000000000000000000",
"00000000000000000000000000000000000000000000000000004748494a4b4c4d4e4f5051525300000000000000000000000000000000000000000000000000",
"00000000000000000000000000000000000000000000000000005455565758595a5b5c5d5e4c5f00000000000000000000000000000000000000000000000000",
"00000000000000000000000000000000000000000000000000006061621463646564666768696a00000000000000000000000000000000000000000000000000",
"00000000000000000000000000000000000000000000000000006b6c6d6e6f707071727374757600000000000000000000000000000000000000000000000000",
"0000000000000000000000000000000000000000000000000000777862797a7b7b7c7d7e7f808100000000000000000000000000000000000000000000000000",
"00000000000000000000000000000000000000000000000000008283844b7c7b7c7c7c854d868700000000000000000000000000000000000000000000000000",
"000000000000000000000000000000000000000000000000000088898a8b8c8d8d8e8f9091929300000000000000000000000000000000000000000000000000",
"00000000000000000000000000000000000000000000000000009495963797981414999a9b9c0000000000000000000000000000000000000000000000000000",
"00000000000000000000000000000000000000000000000000009d9e9fa0a1a2a3a4a5a6a7000000000000000000000000000000000000000000000000000000",
"000000000000000000000000000000000000000000000000000000a8a9aaabacadaeaf38b0000000000000000000000000000000000000000000000000000000",
"000000000000000000000000000000000000000000000000000000b1b2b2b2b364b4b5b6b7000000000000000000000000000000000000000000000000000000",
"000000000000000000000000000000000000000000000000000000b8b9babbb2bcbdbebfc0000000000000000000000000000000000000000000000000000000",
"000000000000000000000000000000000000000000000000000000c11cc2c3c4c5c6c7c8c9000000000000000000000000000000000000000000000000000000",
"000000000000000000000000000000000000000000000000000000ca1ccbcccdce32b6cfd0000000000000000000000000000000000000000000000000000000",
"000000000000000000000000000000000000000000000000000000d11cd2d3cdd4d5d6d7d8000000000000000000000000000000000000000000000000000000",
"000000000000000000000000000000000000000000000000000000d9dadbc3dcdddededfd0000000000000000000000000000000000000000000000000000000",
"000000000000000000000000000000000000000000000000000000e0e1e295e3dedee4e5d0000000000000000000000000000000000000000000000000000000",
"000000000000000000000000000000000000000000000000000000e6e7e8e9eaebecedee00000000000000000000000000000000000000000000000000000000",
"000000000000000000000000000000000000000000000000000000eff0f1f2f3f4ebeeee00000000000000000000000000000000000000000000000000000000",
"000000000000000000000000000000000000000000000000000000f5f6f7f7f8f9fafbfc00000000000000000000000000000000000000000000000000000000",
"00000000000000000000000000000000000000000000000000fdfefff6101c10101010c810000000000000000000000000000000000000000000000000000000",
"00000000000000000000000000000000000000000000000010101010f7101c1010cf101010101011000000000000000000000000000000000000000000000000",
"00000000000000000000000000000000000000000000001111111111f6111110b211111111111111110000000000000000000000000000000000000000000000",
"0000000000000000000000000000000000000000000000121212121212121212f212121212121212130000000000000000000000000000000000000000000000",
"000000000000000000000000000000000000000000000013c3131313131313131313131313131314140000000000000000000000000000000000000000000000",
"00000000000000000000000000000000000000000000001414141414f21414141414141414141515150000000000000000000000000000000000000000000000",
"000000000000000000000000000000000000000000000015151515151515150015d3151515151516160000000000000000000000000000000000000000000000",
"16161600000000000000000000000000000000000000001616161616161600001616c21616171717170000000000000000000000000000000000000000000000",
"16161600000000000000000000000000000000000000001717171717170000001717171717de1718000000000000000000000000000000000000000000000000",
"18001800000000000000000000000000000000000000000018181818180000001818181829181818000000000000000000000000000000000000000000000000",
"00000000000000000000000000000000000000000000000000000000000000001819191919191900000000000000000000000000000000000000000000000000",
"0000000000000000000000000000000000000000000000000000000000000000191919191e190000000000000000000000000000000000000000000000000000",
"00000000000000000000000000000000000000000000000000000000000000000019191919190000000000000000000000000000000000000000000000000000",
"00000000000000000000000000000000000000000000000000000000000000000000000000000000000000000000000000000000000000000000000000000000",
"1a1a1a00000000000000000000000000000000000000000000000000000000000000000000000000000000000000000000000000000000000000000000000000",
"16161a00000000000000000000000000000000000000000000000000000000000000000000000000000000000000000000000000000000000000000000000000",
"16161a00000000000000000000000000000000000000000000000000000000000000000000000000000000000000000000000000000000000000000000000000",
"1a161a00000000000000000000000000000000000000000000000000000000000000000000000000000000000000000000000000000000000000000000000000",
"00000000000000000000000000000000000000000000000000000000000000000000000000000000000000000000000000000000000000000000000000000000",
"00000000000000000000000000000000000000001a1a000000000000000000000000000000000000000000000000000000000000000000000000000000000000",
"000000000000000000000000000000000000001a161a000000000000000000000000000000000000000000000000000000000000000000000000000000000000",
"00000000000000000000000000000000000000001a00000000000000000000000000000000000000000000000000000000000000000000000000000000000000",
"00000000000000000000000000000000000000000000000000000000000000000000000000000000000000000000000000000000000000000000000000000000",
"00000000000000000000000000000000000000000000000000000000000000000000000000000000000000000000000000000000000000000000000000000000",
};
