/* XPM */
static char *image[] = {
"64 64 302 2",
"00 c #ffffff",
"01 c #98e7b2",
"02 c #8ceaad",
"03 c #94e7b0",
"04 c #a0f3b8",
"05 c #abf9bc",
"06 c #aef9c0",
"07 c #95e7b1",
"08 c #87e9a7",
"09 c #87eaa8",
"0a c #a8f8ba",
"0b c #dffbe5",
"0c c #a9f8bc",
"0d c #c4e6c8",
"0e c #bfe9c6",
"0f c #c0ecc8",
"10 c #c0e9c7",
"11 c #c9eacf",
"12 c #c9ead0",
"13 c #cae8cb",
"14 c #c4e5c9",
"15 c #89eaaa",
"16 c #a8f9bc",
"17 c #c4e3c8",
"18 c #c4e2c8",
"19 c #cee2d0",
"1a c #d1e3d1",
"1b c #cfe5ce",
"1c c #d0e5d3",
"1d c #d1e6d4",
"1e c #cbe5d1",
"1f c #8ee9ad",
"20 c #a6f8bc",
"21 c #cbe3ca",
"22 c #cae1cb",
"23 c #d2e4d2",
"24 c #cde5d1",
"25 c #92e9ad",
"26 c #a4f8bd",
"27 c #c9dfca",
"28 c #c3dcc7",
"29 c #c8ddc9",
"2a c #d4e6d5",
"2b c #cadecb",
"2c c #c7d8c8",
"2d c #c3d7c6",
"2e c #c6dac7",
"2f c #d4e7d6",
"30 c #a3f5bb",
"31 c #cbe2cf",
"32 c #c6d7c7",
"33 c #c2d5c5",
"34 c #c8dbc8",
"35 c #c3d5c4",
"36 c #c0d4c3",
"37 c #c0d4c2",
"38 c #d5e8d8",
"39 c #9cf6b9",
"3a c #a0efb8",
"3b c #cbe3d1",
"3c c #c5d6c6",
"3d c #bed1c1",
"3e c #bccfbf",
"3f c #c7dac9",
"40 c #bfd2c1",
"41 c #c1d4c4",
"42 c #d5e9d7",
"43 c #9cf7ba",
"44 c #a1f3ba",
"45 c #d0e4d4",
"46 c #c8dbcb",
"47 c #c5d9c7",
"48 c #c8dcc9",
"49 c #c6d8c8",
"4a c #c8dbc9",
"4b c #cbdecd",
"4c c #c6dbc9",
"4d c #c3d5c7",
"4e c #d5e9da",
"4f c #9cf7b9",
"50 c #a5f6bc",
"51 c #d0e3d3",
"52 c #d3e5d5",
"53 c #c6d7c9",
"54 c #c7d9c9",
"55 c #cde2d1",
"56 c #c5dac8",
"57 c #d5ecdb",
"58 c #d4e9d8",
"59 c #c9ddca",
"5a c #bdd0c0",
"5b c #cee3d1",
"5c c #d4ead9",
"5d c #89eba9",
"5e c #cbe7d1",
"5f c #cae0cb",
"60 c #c5d6c8",
"61 c #c4d6c6",
"62 c #c9deca",
"63 c #d2e4d4",
"64 c #88eba8",
"65 c #aaf9bc",
"66 c #d2e5d5",
"67 c #c0d3c3",
"68 c #d1e4d4",
"69 c #cbe4d1",
"6a c #a6f9bb",
"6b c #d3e9d7",
"6c c #cfe2d1",
"6d c #d3e6d6",
"6e c #d0e4d3",
"6f c #cbddce",
"70 c #c1d3c3",
"71 c #cadecc",
"72 c #a1efb7",
"73 c #95efb3",
"74 c #c9e9d0",
"75 c #c1d5c3",
"76 c #bed0c0",
"77 c #c4d6c5",
"78 c #bfe6c5",
"79 c #b4f7c4",
"7a c #e2fbe7",
"7b c #a5ebba",
"7c c #aef7bf",
"7d c #d2e5d4",
"7e c #c4d8c6",
"7f c #84e3a2",
"80 c #cde4cf",
"81 c #cce3d1",
"82 c #d0e2d1",
"83 c #c8dcca",
"84 c #c3dac7",
"85 c #89e9a9",
"86 c #eaf5ec",
"87 c #a4f5ba",
"88 c #c3d9c6",
"89 c #91e9b0",
"8a c #acf7bd",
"8b c #c6dec9",
"8c c #cadfcb",
"8d c #c2d5c4",
"8e c #a5f4b7",
"8f c #adf8be",
"90 c #cbe2ce",
"91 c #c2d5c6",
"92 c #c3d8c6",
"93 c #a7f7bb",
"94 c #adf9be",
"95 c #c6d7c8",
"96 c #c3dec8",
"97 c #a8f8be",
"98 c #a2f7ba",
"99 c #cce4d1",
"9a c #c3dbc7",
"9b c #a0f2b8",
"9c c #ecf4ed",
"9d c #97ebb3",
"9e c #d0e3d2",
"9f c #c3d8c5",
"a0 c #98eeb3",
"a1 c #98ebb4",
"a2 c #cde3d1",
"a3 c #c2d7c5",
"a4 c #9aedb5",
"a5 c #dfeee2",
"a6 c #8fefaf",
"a7 c #d0e3d1",
"a8 c #c4dac7",
"a9 c #9bebb4",
"aa c #f3fbf5",
"ab c #9cf8b8",
"ac c #c4dcc8",
"ad c #b9f6c6",
"ae c #e4f5e8",
"af c #c4ddc8",
"b0 c #bff8cb",
"b1 c #f3fcf5",
"b2 c #9ef6b9",
"b3 c #b5f5c3",
"b4 c #c7e1c9",
"b5 c #c8e0ca",
"b6 c #c3dac6",
"b7 c #c4dfc8",
"b8 c #a4f7bb",
"b9 c #f1f7f2",
"ba c #94e8b1",
"bb c #d5efdc",
"bc c #cde9cd",
"bd c #c4e0c8",
"be c #def1e2",
"bf c #c7f7d3",
"c0 c #9bf7b8",
"c1 c #9bf7b7",
"c2 c #c3f1ce",
"c3 c #adf2bd",
"c4 c #bef5ca",
"c5 c #d7ecdd",
"c6 c #d4eedb",
"c7 c #d0e9d6",
"c8 c #cae2ce",
"c9 c #c8e3cd",
"ca c #c7e5cc",
"cb c #c6dbc8",
"cc c #cee2cf",
"cd c #d7f0dd",
"ce c #d8f0df",
"cf c #d4eedc",
"d0 c #d2f0da",
"d1 c #a2f8ba",
"d2 c #9cf7b8",
"d3 c #cbe3cc",
"d4 c #d4e8d7",
"d5 c #d6efdd",
"d6 c #daf1e0",
"d7 c #c7e2c9",
"d8 c #aaf8bd",
"d9 c #ebf7ee",
"da c #9df8b8",
"db c #d0e4d1",
"dc c #cce8cc",
"dd c #cfe3d1",
"de c #cde2d0",
"df c #c4e5c8",
"e0 c #e0f2e4",
"e1 c #cadecd",
"e2 c #c6e0c9",
"e3 c #abf7bd",
"e4 c #ebf8ee",
"e5 c #cde8cc",
"e6 c #cae7d0",
"e7 c #c6d9c9",
"e8 c #a5e3b3",
"e9 c #c1f5cc",
"ea c #d1ebd5",
"eb c #d3ead8",
"ec c #c7dbc9",
"ed c #c5dbc9",
"ee c #b2f8c2",
"ef c #cce8cf",
"f0 c #c7d9c8",
"f1 c #bad0be",
"f2 c #8bebab",
"f3 c #b9f2c5",
"f4 c #cae7d1",
"f5 c #d5e7d6",
"f6 c #c4d8c8",
"f7 c #a8f2bd",
"f8 c #85e5a4",
"f9 c #cde7cc",
"fa c #cfe5d0",
"fb c #c5e3c8",
"fc c #bfd2c2",
"fd c #bfddc4",
"fe c #97e3ad",
"ff c #fcfefd",
"10 c #b1f0c1",
"10 c #c6eacc",
"10 c #c9e8cf",
"10 c #cfe4d2",
"10 c #d3e6d5",
"10 c #c2d6c4",
"10 c #c1d5c4",
"10 c #b2d7ba",
"10 c #bbf0c9",
"10 c #8ceaab",
"10 c #c0efca",
"10 c #d4e9d7",
"10 c #c4e1c8",
"10 c #b3dbbc",
"10 c #9becb3",
"10 c #aff6c0",
"11 c #c8e8ce",
"11 c #c9e8d0",
"11 c #d3e5d4",
"11 c #85e1a1",
"11 c #b1edc1",
"11 c #86dea0",
"11 c #a3edb8",
"11 c #bbf0c7",
"11 c #a9ecb9",
"11 c #baf2c5",
"11 c #97dfa9",
"11 c #acf0be",
"11 c #cbe6d1",
"11 c #d3e6d7",
"11 c #bfd3c2",
"11 c #aaf6bd",
"12 c #a1e9b3",
"12 c #c5e9cd",
"12 c #d2e7d5",
"12 c #d4e9d9",
"12 c #cfe2d2",
"12 c #96e7b0",
"12 c #b3eec1",
"12 c #99e3ae",
"12 c #8cdca1",
"12 c #98e6b1",
"12 c #ddfae4",
"12 c #e7f2e9",
"12 c #d1e5d5",
"12 c #f6f9f6",
"00000000000000000000000000000000000000000000000000000000000000000000000000000000000000000000000000000000000000000000000000000000",
"00000000000000000000000000000000000000000000000000000000000000000000000000000000000000000000000000000000000000000000000000000000",
"00000000000000000000000000000000000000000000000000000000000000000000000000000000000000000000000000000000000000000000000000000000",
"00000000000000000000000000000000000000000000000000000000000000000000000000000000000000000000000000000000000000000000000000000000",
"00000000000000000000000000000000000000000000000000000000000000000000000000000000000000000000000000000000000000000000000000000000",
"00000000000000000000000000000000000000000000000000000000000000000000000000000000000000000000000000000000000000000000000000000000",
"00000000000000000000000000000000000000000000000000000000000000000000000000000000000000000000000000000000000000000000000000000000",
"00000000000000000000000000000000000000000000000000000000000000000000000000000000000000000000000000000000000000000000000000000000",
"00000000000000000000000000000000000000000000000000000000000000000000000000000000000000000000000000000000000000000000000000000000",
"00000000000000000000000000000000000000000000000000000000000000000000000000000000000000000000000000000000000000000000000000000000",
"00000000000000000000000000000000000000000000000000000000000000000000000000000000000000000000000000000000000000000000000000000000",
"00000000000000000000000000000000000000000000000000000000000000000000000000000000000000000000000000000000000000000000000000000000",
"00000000000000000000000000000000000000000000000000000000000000000000000000000000000000000000000000000000000000000000000000000000",
"00000000000000000000000000000000000000000000000000000000000000000000000000000000000000000000000000000000000000000000000000000000",
"000000000000000000000000000000000000000000000000000001020304050606070809030a0b00000000000000000000000000000000000000000000000000",
"00000000000000000000000000000000000000000000000000000c0d0e0e0e0e0f10111213141500000000000000000000000000000000000000000000000000",
"0000000000000000000000000000000000000000000000000000161718170d191a1a1b1c1d1e1f00000000000000000000000000000000000000000000000000",
"000000000000000000000000000000000000000000000000000020212222221a231a232323242500000000000000000000000000000000000000000000000000",
"000000000000000000000000000000000000000000000000000026212728292a192b2c2d2e2f1f00000000000000000000000000000000000000000000000000",
"0000000000000000000000000000000000000000000000000000303132332d2f1934353637383900000000000000000000000000000000000000000000000000",
"00000000000000000000000000000000000000000000000000003a3b3c3d3e23193f403e41424300000000000000000000000000000000000000000000000000",
"000000000000000000000000000000000000000000000000000044453f464748494a4b4c4d4e4f00000000000000000000000000000000000000000000000000",
"0000000000000000000000000000000000000000000000000000502f51522a535354525556574f00000000000000000000000000000000000000000000000000",
"0000000000000000000000000000000000000000000000000000265855592c3e3e5a3c595b5c5d00000000000000000000000000000000000000000000000000",
"0000000000000000000000000000000000000000000000000000205e5f603e3e3e3d6162635c6400000000000000000000000000000000000000000000000000",
"0000000000000000000000000000000000000000000000000000656659673e3e3e3e3d1968695d00000000000000000000000000000000000000000000000000",
"00000000000000000000000000000000000000000000000000006a6b6c3e3e6d6e6f707168697200000000000000000000000000000000000000000000000000",
"000000000000000000000000000000000000000000000000000073741a7576525271617778797a00000000000000000000000000000000000000000000000000",
"00000000000000000000000000000000000000000000000000007b7c7d527d2f1a3f327e7f000000000000000000000000000000000000000000000000000000",
"00000000000000000000000000000000000000000000000000008030811982238335328485000000000000000000000000000000000000000000000000000000",
"000000000000000000000000000000000000000000000000000086874862595935352d8889000000000000000000000000000000000000000000000000000000",
"0000000000000000000000000000000000000000000000000000008a8b5f8c59358d61288e000000000000000000000000000000000000000000000000000000",
"0000000000000000000000000000000000000000000000000000008f90696c629161928493000000000000000000000000000000000000000000000000000000",
"0000000000000000000000000000000000000000000000000000009469697d663f95929697000000000000000000000000000000000000000000000000000000",
"00000000000000000000000000000000000000000000000000000098699966665632929a9b000000000000000000000000000000000000000000000000000000",
"00000000000000000000000000000000000000000000000000009c9d69699e6688329f75a0000000000000000000000000000000000000000000000000000000",
"000000000000000000000000000000000000000000000000000038a13ba27d99532c32a3a4000000000000000000000000000000000000000000000000000000",
"0000000000000000000000000000000000000000000000000000a5a65f90a722472c3fa8a9000000000000000000000000000000000000000000000000000000",
"0000000000000000000000000000000000000000000000000000aaab22592222923f53acad000000000000000000000000000000000000000000000000000000",
"0000000000000000000000000000000000000000000000000000aeab5f5f5f22923f53afb0000000000000000000000000000000000000000000000000000000",
"00000000000000000000000000000000000000000000000000b1b2b3b4b55f2188b653b7b80000b9000000000000000000000000000000000000000000000000",
"000000000000000000000000000000000000000000000000ba94bbbc18bd5f229a9a95bebf06c0c1c20000000000000000000000000000000000000000000000",
"0000000000000000000000000000000000000000000000c3c4c5c6c7c8c9ca22b6cbcccdcecfc6d0d10000000000000000000000000000000000000000000000",
"0000000000000000000000000000000000000000000000d25e5e5e6b3b81d32134d4d5bbbbd6bed7d80000000000000000000000000000000000000000000000",
"00000000000000000000000000000000000000000000d9dadbdc5edd8c19de18dfe0d5c6d6d6e1e2e30000000000000000000000000000000000000000000000",
"00000000000000000000000000000000000000000000e4da1ae5e61e48e732e8e9c6ea6bd6ebecedee0000000000000000000000000000000000000000000000",
"0000000000000000000000000000000000000000000000641ae5efc8f095f1f2f35ef41cf58853f6f70000000000000000000000000000000000000000000000",
"0000000000000000000000000000000000000000000000f8f9bcfafbfcfdfeff1010101010101010100000000000000000000000000000000000000000000000",
"00000000000000000000000000000000000000000000001010f91010101000001011111123365a11000000000000000000000000000000000000000000000000",
"0000000000000000000000000000000000000000000000001111111111000000111e2f2a6c2d1111000000000000000000000000000000000000000000000000",
"000000000000000000000000000000000000000000000000000000000000000011112f3811111100000000000000000000000000000000000000000000000000",
"00000000000000000000000000000000000000000000000000000000000000001212121212120000000000000000000000000000000000000000000000000000",
"00000000000000000000000000000000000000000000000000000000000000000012121212120000000000000000000000000000000000000000000000000000",
"00000000000000000000000000000000000000000000000000000000000000000000121212000000000000000000000000000000000000000000000000000000",
"00000000000000000000000000000000000000000000000000000000000000000000000000000000000000000000000000000000000000000000000000000000",
"00000000000000000000000000000000000000000000000000000000000000000000000000000000000000000000000000000000000000000000000000000000",
"00000000000000000000000000000000000000000000000000000000000000000000000000000000000000000000000000000000000000000000000000000000",
"00000000000000000000000000000000000000000000000000000000000000000000000000000000000000000000000000000000000000000000000000000000",
"00000000000000000000000000000000000000000000000000000000000000000000000000000000000000000000000000000000000000000000000000000000",
"00000000000000000000000000000000000000000000000000000000000000000000000000000000000000000000000000000000000000000000000000000000",
"00000000000000000000000000000000000000000000000000000000000000000000000000000000000000000000000000000000000000000000000000000000",
"00000000000000000000000000000000000000000000000000000000000000000000000000000000000000000000000000000000000000000000000000000000",
"00000000000000000000000000000000000000000000000000000000000000000000000000000000000000000000000000000000000000000000000000000000",
"00000000000000000000000000000000000000000000000000000000000000000000000000000000000000000000000000000000000000000000000000000000",
};
