/* XPM */
static char *image[] = {
"64 64 334 2",
"00 c #ffffff",
"01 c #b2f5c2",
"02 c #93f3b3",
"03 c #92f2b2",
"04 c #8df1ae",
"05 c #8ff1af",
"06 c #94f4b5",
"07 c #91f2b1",
"08 c #92f3b3",
"09 c #94f4b4",
"0a c #97f6b7",
"0b c #a2f5bc",
"0c c #cbf2d1",
"0d c #d7e3d4",
"0e c #d6e3d4",
"0f c #cce4d3",
"10 c #cfe4d3",
"11 c #cfe5d4",
"12 c #d1e8d4",
"13 c #d6e6da",
"14 c #d6e8da",
"15 c #d5e6da",
"16 c #d3e6d7",
"17 c #d5e6d9",
"18 c #cae9d2",
"19 c #95eeb1",
"1a c #88eea9",
"1b c #cfe3ce",
"1c c #cce6cd",
"1d c #d2e8d3",
"1e c #d8e6d8",
"1f c #d1e5d4",
"20 c #d0e5d4",
"21 c #cbead4",
"22 c #9bf2b7",
"23 c #cae8ce",
"24 c #cbe2cc",
"25 c #cbe9d2",
"26 c #a5ebbb",
"27 c #89f0ab",
"28 c #c9eacb",
"29 c #cae1cc",
"2a c #cbdbcc",
"2b c #c8dac8",
"2c c #cedfd0",
"2d c #d6e4d3",
"2e c #d4e5d5",
"2f c #c9dac9",
"30 c #c4d7c7",
"31 c #c5d7c7",
"32 c #d4e7d7",
"33 c #cdedd3",
"34 c #a6ebbb",
"35 c #9ff6bb",
"36 c #c9e9cf",
"37 c #cadfcd",
"38 c #c4d6c6",
"39 c #d5e4d3",
"3a c #d2e4d4",
"3b c #cce0cf",
"3c c #c6d9c8",
"3d c #d5e5d6",
"3e c #cfedd5",
"3f c #c3f2cd",
"40 c #a0f6bb",
"41 c #ceeed5",
"42 c #c7d4c9",
"43 c #c5d3c7",
"44 c #d3e4d3",
"45 c #ceddd0",
"46 c #c7d5c9",
"47 c #d4e4d3",
"48 c #caf1ce",
"49 c #a8f4bf",
"4a c #d0ebd7",
"4b c #d1e4d4",
"4c c #cedccf",
"4d c #d2e0d1",
"4e c #d0e0d1",
"4f c #ccdcce",
"50 c #ccdccd",
"51 c #d0dfd1",
"52 c #d2e0d2",
"53 c #ceddcf",
"54 c #caf1d1",
"55 c #d7f9df",
"56 c #a9f5c0",
"57 c #cbedd4",
"58 c #d8e7d8",
"59 c #d2e3d2",
"5a c #cad7cb",
"5b c #d8e4d5",
"5c c #c1f2cd",
"5d c #daf9e0",
"5e c #97eeb2",
"5f c #cdecd5",
"60 c #d6e6d9",
"61 c #ccdacc",
"62 c #c5d4c7",
"63 c #c9d6ca",
"64 c #cfded0",
"65 c #d8e5d7",
"66 c #b8f1c4",
"67 c #cef2d9",
"68 c #93edaf",
"69 c #c8d8c9",
"6a c #cad9cb",
"6b c #d9e4d6",
"6c c #b3eec2",
"6d c #cdf6d9",
"6e c #ccefd4",
"6f c #cadacb",
"70 c #b1efc1",
"71 c #b8eac3",
"72 c #bff0cd",
"73 c #cbf1ce",
"74 c #d5e7da",
"75 c #d6e6d8",
"76 c #d3e0d2",
"77 c #d1e0d3",
"78 c #d6e7da",
"79 c #b1edc1",
"7a c #dbf4df",
"7b c #9cf5b9",
"7c c #d5e9da",
"7d c #cfdcd1",
"7e c #cddcce",
"7f c #c8d5ca",
"80 c #c8dfcb",
"81 c #9ef5ba",
"82 c #a9f5be",
"83 c #8befac",
"84 c #cdefd4",
"85 c #d6e9d9",
"86 c #cfdcd0",
"87 c #cad8cb",
"88 c #aceabd",
"89 c #dcf9e1",
"8a c #9eecb7",
"8b c #c8ebcb",
"8c c #cee6d4",
"8d c #d2ead4",
"8e c #cde3d2",
"8f c #cbdbcd",
"90 c #cad7ca",
"91 c #a8e9ba",
"92 c #ade9bd",
"93 c #c6e9cb",
"94 c #c9e2cd",
"95 c #c6d5c7",
"96 c #99efb5",
"97 c #c8f1cf",
"98 c #c3f1cc",
"99 c #cde8d0",
"9a c #cee7d4",
"9b c #d0e8d2",
"9c c #c6e3ce",
"9d c #c8d7c9",
"9e c #9cf5ba",
"9f c #cef1d3",
"a0 c #cfe8d4",
"a1 c #d0e9d2",
"a2 c #c9e3cd",
"a3 c #c5d8c7",
"a4 c #d0f2d3",
"a5 c #bff4cb",
"a6 c #d1ebd6",
"a7 c #d2ebd5",
"a8 c #c9dfcb",
"a9 c #ccdbcd",
"aa c #c3edcc",
"ab c #bcf4c8",
"ac c #cfe7d3",
"ad c #cee8d1",
"ae c #c9e0cd",
"af c #cadbca",
"b0 c #8ff1b0",
"b1 c #b5eac2",
"b2 c #bbf3c8",
"b3 c #cbe8d0",
"b4 c #cae0ce",
"b5 c #86eba7",
"b6 c #bbf1c7",
"b7 c #d1e8d3",
"b8 c #cbdfce",
"b9 c #cedcd0",
"ba c #bde5c8",
"bb c #b5e8c2",
"bc c #cce3ce",
"bd c #d1e9d4",
"be c #87efa9",
"bf c #d2f1d3",
"c0 c #b0f3c1",
"c1 c #9af5ba",
"c2 c #b2f2c2",
"c3 c #bfeec8",
"c4 c #cbe7ce",
"c5 c #cce1ce",
"c6 c #cde6d4",
"c7 c #a4f5bc",
"c8 c #d7e5d8",
"c9 c #e5ede4",
"ca c #8ef2af",
"cb c #b4f5c4",
"cc c #cce7cd",
"cd c #cdddcf",
"ce c #9bf1b6",
"cf c #a7eabc",
"d0 c #c2e3c8",
"d1 c #d2e3d1",
"d2 c #e3ede2",
"d3 c #abe9bc",
"d4 c #96f6b8",
"d5 c #c8f3d1",
"d6 c #d3eed4",
"d7 c #cbe8cf",
"d8 c #cee6d3",
"d9 c #d7e8d7",
"da c #dbf0db",
"db c #bdf4c8",
"dc c #a8f5bd",
"dd c #98f3b7",
"de c #cff4d2",
"df c #b5f4c4",
"e0 c #ccf0d4",
"e1 c #c8ecd0",
"e2 c #cae9cf",
"e3 c #c9eacf",
"e4 c #cde7d2",
"e5 c #c9e0cc",
"e6 c #cfe1d1",
"e7 c #daefda",
"e8 c #b7f4c5",
"e9 c #c8f3ce",
"ea c #ceefd0",
"eb c #d6ecd6",
"ec c #d5edd6",
"ed c #daeed9",
"ee c #d1e8d2",
"ef c #cae8cf",
"f0 c #c9ebd0",
"f1 c #d4e7d9",
"f2 c #d7eed9",
"f3 c #b5f5c5",
"f4 c #c7f3ce",
"f5 c #c9f0cf",
"f6 c #d8ebd7",
"f7 c #cddfcf",
"f8 c #cbe2ce",
"f9 c #cce8d0",
"fa c #c7eccb",
"fb c #dbefda",
"fc c #d2e4d5",
"fd c #b5f2c5",
"fe c #c6f0cd",
"ff c #d2ead5",
"10 c #d0e0d2",
"10 c #9fedb8",
"10 c #c2f4c9",
"10 c #daeeda",
"10 c #cfe5d0",
"10 c #ccdece",
"10 c #b5f1c5",
"10 c #b4e9c1",
"10 c #caf0d0",
"10 c #cedacf",
"10 c #9fe7b2",
"10 c #a3ebb7",
"10 c #c0f4c9",
"10 c #daedd9",
"10 c #d3ecd6",
"10 c #d6ecd8",
"11 c #cee9d1",
"11 c #caddcc",
"11 c #a9e9bc",
"11 c #aee9bf",
"11 c #c2f4c8",
"11 c #d3e9d5",
"11 c #d6ebd6",
"11 c #cbd8cc",
"11 c #b2ddbc",
"11 c #b3e6c0",
"11 c #c5e3cd",
"11 c #d8ead7",
"11 c #d1ebd7",
"11 c #d0e8d3",
"11 c #cfe8d1",
"11 c #c9dcca",
"12 c #89eda9",
"12 c #b8e6c4",
"12 c #b1f4c2",
"12 c #d1e6d1",
"12 c #d8ebd8",
"12 c #d6e9d8",
"12 c #bfe4c6",
"12 c #aef1c0",
"12 c #d2e5d6",
"12 c #cce6d3",
"12 c #bff4c9",
"12 c #d3e7d3",
"12 c #cfe8d2",
"12 c #bce7c7",
"12 c #b7f4ca",
"12 c #aee8be",
"13 c #92e2a8",
"13 c #96e5ad",
"13 c #caf3d2",
"13 c #b7e7c2",
"13 c #b0f4c1",
"13 c #baf5c7",
"13 c #d6e9da",
"13 c #d8ead8",
"13 c #c7e3cd",
"13 c #85e19f",
"13 c #f4fbf5",
"13 c #e9f8ed",
"13 c #fdfefd",
"13 c #bef4c9",
"13 c #e0f5e4",
"13 c #b6f4c5",
"14 c #c5eeca",
"14 c #d8e9d7",
"14 c #d9ecd8",
"14 c #c9e1cc",
"14 c #a1f5bc",
"14 c #f4fdf5",
"14 c #9fe8b3",
"14 c #90daa0",
"14 c #bceec7",
"14 c #cde0cf",
"14 c #a4f0bc",
"14 c #e3ece5",
"14 c #c4e8cc",
"14 c #abeabd",
"00000000000000000000000000000000000000000000000000000000000000000000000000000000000000000000000000000000000000000000000000000000",
"00000000000000000000000000000000000000000000000000000000000000000000000000000000000000000000000000000000000000000000000000000000",
"00000000000000000000000000000000000000000000000000000000000000000000000000000000000000000000000000000000000000000000000000000000",
"00000000000000000000000000000000000000000000000000000000000000000000000000000000000000000000000000000000000000000000000000000000",
"00000000000000000000000000000000000000000000000000000000000000000000000000000000000000000000000000000000000000000000000000000000",
"00000000000000000000000000000000000000000000000000000000000000000000000000000000000000000000000000000000000000000000000000000000",
"00000000000000000000000000000000000000000000000000000000000000000000000000000000000000000000000000000000000000000000000000000000",
"00000000000000000000000000000000000000000000000000000000000000000000000000000000000000000000000000000000000000000000000000000000",
"00000000000000000000000000000000000000000000000000000000000000000000000000000000000000000000000000000000000000000000000000000000",
"00000000000000000000000000000000000000000000000000000000000000000000000000000000000000000000000000000000000000000000000000000000",
"00000000000000000000000000000000000000000000000000000000000000000000000000000000000000000000000000000000000000000000000000000000",
"00000000000000000000000000000000000000000000000000000000000000000000000000000000000000000000000000000000000000000000000000000000",
"00000000000000000000000000000000000000000000000000000000000000000000000000000000000000000000000000000000000000000000000000000000",
"00000000000000000000000000000000000000000000000000000000000000000000000000000000000000000000000000000000000000000000000000000000",
"000000000000000000000000000000000000000000000000000102030405060607050805090a0b0c000000000000000000000000000000000000000000000000",
"00000000000000000000000000000000000000000000000000080d0e0f1011121314141516171819000000000000000000000000000000000000000000000000",
"000000000000000000000000000000000000000000000000001a1b1c1c1c1d1d1e1f1f1f20202122000000000000000000000000000000000000000000000000",
"000000000000000000000000000000000000000000000000001a231c1c241d1d1f1f202020202526000000000000000000000000000000000000000000000000",
"000000000000000000000000000000000000000000000000002728292a2b2c2d2e202f3031323334000000000000000000000000000000000000000000000000",
"000000000000000000000000000000000000000000000000003536372b382b393a3b3c30383d3e3f000000000000000000000000000000000000000000000000",
"00000000000000000000000000000000000000000000000000404137424343443a4538434647483f000000000000000000000000000000000000000000000000",
"00000000000000000000000000000000000000000000000000494a4b4c4d4e4f504f5152534d5455000000000000000000000000000000000000000000000000",
"0000000000000000000000000000000000000000000000000056570d4458595a5a5a0e0d5b5b5c5d000000000000000000000000000000000000000000000000",
"000000000000000000000000000000000000000000000000005e5f60445161434362636465656667000000000000000000000000000000000000000000000000",
"00000000000000000000000000000000000000000000000000685713396943434343436a6b656c6d000000000000000000000000000000000000000000000000",
"000000000000000000000000000000000000000000000000005e6e1e394343434343436f6b1e7071000000000000000000000000000000000000000000000000",
"00000000000000000000000000000000000000000000000000727374754343763d7763634b78797a000000000000000000000000000000000000000000000000",
"00000000000000000000000000000000000000000000000000007b7c657d7d1e74137e7f80818200000000000000000000000000000000000000000000000000",
"00000000000000000000000000000000000000000000000000008384153a1f853a7e868788890000000000000000000000000000000000000000000000000000",
"00000000000000000000000000000000000000000000000000008a8b8c8c8c8d8e8f7e9091000000000000000000000000000000000000000000000000000000",
"0000000000000000000000000000000000000000000000000000929394941c942b3c2b9596000000000000000000000000000000000000000000000000000000",
"00000000000000000000000000000000000000000000000000009798999a9b9c3c3c2b9d9e000000000000000000000000000000000000000000000000000000",
"00000000000000000000000000000000000000000000000000009f3fa0a18da23ca32b2b9e000000000000000000000000000000000000000000000000000000",
"0000000000000000000000000000000000000000000000000000a4a5a68da79ba82ba92f9e000000000000000000000000000000000000000000000000000000",
"0000000000000000000000000000000000000000000000000000aaabacad8d9bae6fa9afb0000000000000000000000000000000000000000000000000000000",
"0000000000000000000000000000000000000000000000000000b1b28cb38d9bb44f8787b5000000000000000000000000000000000000000000000000000000",
"0000000000000000000000000000000000000000000000000000b1b68c9b8db73bb8b9b91a000000000000000000000000000000000000000000000000000000",
"0000000000000000000000000000000000000000000000000000babbbc3a1fbd3b457d7ebe000000000000000000000000000000000000000000000000000000",
"0000000000000000000000000000000000000000000000000000bfc03b3b8c8cb44f537ec1000000000000000000000000000000000000000000000000000000",
"0000000000000000000000000000000000000000000000000000c2c3c4c5c4c6a9a9b92fc7c86b6bc90000000000000000000000000000000000000000000000",
"00000000000000000000000000000000000000000000000000cacbccc4948c8cb47ea9cdcecfd0d1d20000000000000000000000000000000000000000000000",
"0000000000000000000000000000000000000000000000d3d4d5d69a9494d7d8b4b9a9d9dadadbdcdd0000000000000000000000000000000000000000000000",
"00000000000000000000000000000000000000000000dedfd6e0d6e1e2d7e3e4e545e6dadae7e7e7e80000000000000000000000000000000000000000000000",
"00000000000000000000000000000000000000000000e9eaebecedee1cd7eff094f1dadadadadaf2f30000000000000000000000000000000000000000000000",
"00000000000000000000000000000000000000000000f4f51d8df63af7c5f8f9fadadadadadafbfcfd0000000000000000000000000000000000000000000000",
"00000000000000000000000000000000000000000000e9febdffa73b10b9421010da10dadada1010100000000000000000000000000000000000000000000000",
"000000000000000000000000000000000000000000001010bda7bd537d10101010f61010101111a9110000000000000000000000000000000000000000000000",
"00000000000000000000000000000000000000000000111111101145111111111011111111111111120000000000000000000000000000000000000000000000",
"000000000000000000000000000000000000000000001212121212a9121212121210141212c4a812120000000000000000000000000000000000000000000000",
"0000000000000000000000000000000000000000000000121313131313006b121313131339133013000000000000000000000000000000000000000000000000",
"000000000000000000000000000000000000000000000000000013130000001313f6581313103413000000000000000000000000000000000000000000000000",
"00000000000000000000000000000000000000000000000000000000000000001314141475141400000000000000000000000000000000000000000000000000",
"00000000000000000000000000000000000000000000000000000000000000001414141414140000000000000000000000000000000000000000000000000000",
"00000000000000000000000000000000000000000000000000000000000000000000141414000000000000000000000000000000000000000000000000000000",
"00000000000000000000000000000000000000000000000000000000000000000000000000000000000000000000000000000000000000000000000000000000",
"00000000000000000000000000000000000000000000000000000000000000000000000000000000000000000000000000000000000000000000000000000000",
"00000000000000000000000000000000000000000000000000000000000000000000000000000000000000000000000000000000000000000000000000000000",
"00000000000000000000000000000000000000000000000000000000000000000000000000000000000000000000000000000000000000000000000000000000",
"00000000000000000000000000000000000000000000000000000000000000000000000000000000000000000000000000000000000000000000000000000000",
"00000000000000000000000000000000000000000000000000000000000000000000000000000000000000000000000000000000000000000000000000000000",
"00000000000000000000000000000000000000000000000000000000000000000000000000000000000000000000000000000000000000000000000000000000",
"00000000000000000000000000000000000000000000000000000000000000000000000000000000000000000000000000000000000000000000000000000000",
"00000000000000000000000000000000000000000000000000000000000000000000000000000000000000000000000000000000000000000000000000000000",
"00000000000000000000000000000000000000000000000000000000000000000000000000000000000000000000000000000000000000000000000000000000",
};
