/* XPM */
static char *image[] = {
"64 64 664 2",
"00 c #dbdddf",
"01 c #dcdedc",
"02 c #d7dfdf",
"03 c #fdfefe",
"04 c #fefefe",
"05 c #d4e0dc",
"06 c #97bc9e",
"07 c #cad8cf",
"08 c #c2dccc",
"09 c #daf3df",
"0a c #fefefd",
"0b c #fdfefd",
"0c c #eef1f0",
"0d c #d9dedd",
"0e c #dbdedd",
"0f c #d6dfdd",
"10 c #fbfefe",
"11 c #fdfefc",
"12 c #dddfdc",
"13 c #dcdde0",
"14 c #dae0e0",
"15 c #fbfdfb",
"16 c #e9eeec",
"17 c #d9dede",
"18 c #dddde0",
"19 c #dcdedd",
"1a c #fefefc",
"1b c #d9dee0",
"1c c #d9dedf",
"1d c #fdfefb",
"1e c #e3e8e5",
"1f c #d6dedd",
"20 c #dcdfdc",
"21 c #fdfdfc",
"22 c #d9dddc",
"23 c #dbdfdf",
"24 c #fcfefb",
"25 c #e0e2de",
"26 c #dadede",
"27 c #d7dfdc",
"28 c #d6e0dc",
"29 c #a0e0b5",
"2a c #a1deb5",
"2b c #acebbf",
"2c c #f7fcf9",
"2d c #eff1f2",
"2e c #dadfde",
"2f c #dbe0e1",
"30 c #fdfdfd",
"31 c #dcdddf",
"32 c #eeefef",
"33 c #dddfe1",
"34 c #dce0e0",
"35 c #e4e8e5",
"36 c #d9e0e0",
"37 c #fcfefd",
"38 c #dadedf",
"39 c #dadee0",
"3a c #e0e3df",
"3b c #dcddde",
"3c c #d7dfde",
"3d c #d8dddc",
"3e c #dadedc",
"3f c #fbfdfd",
"40 c #fcfefe",
"41 c #d6dedb",
"42 c #d3e2db",
"43 c #d9ddde",
"44 c #f0f2f2",
"45 c #dcdfde",
"46 c #dddfde",
"47 c #dbe0e0",
"48 c #eceeed",
"49 c #d8dcdc",
"4a c #d8dedf",
"4b c #fbfefd",
"4c c #fafdfb",
"4d c #d8dede",
"4e c #d8dfde",
"4f c #e8e8e9",
"50 c #dbdfdc",
"51 c #fafcfa",
"52 c #dbdedc",
"53 c #e0e2e1",
"54 c #dde0df",
"55 c #dcdfdf",
"56 c #e8ebeb",
"57 c #dadfdf",
"58 c #fbfdfc",
"59 c #dee0dd",
"5a c #d9dedc",
"5b c #d9dfdf",
"5c c #f3f4f4",
"5d c #dde0e0",
"5e c #dadddc",
"5f c #dbe0df",
"60 c #f8fcfa",
"61 c #dcdede",
"62 c #dee1e0",
"63 c #f9fbfa",
"64 c #dfe0e0",
"65 c #d8dedc",
"66 c #e7eaea",
"67 c #ebeded",
"68 c #fcfefc",
"69 c #f2f3f3",
"6a c #dadedd",
"6b c #f9fcf9",
"6c c #dfe1e2",
"6d c #d9e0de",
"6e c #dbe1e1",
"6f c #e7ecea",
"70 c #fcfdfd",
"71 c #dcdfe1",
"72 c #f0f4f3",
"73 c #f8fdfb",
"74 c #d8dfdf",
"75 c #dde0e1",
"76 c #ecf5ed",
"77 c #e2f4e6",
"78 c #d7dedc",
"79 c #e5e9e8",
"7a c #dcdee0",
"7b c #dee0e1",
"7c c #eef2f1",
"7d c #d5dcda",
"7e c #daddde",
"7f c #f4f8f5",
"80 c #d8ddde",
"81 c #dbdcdb",
"82 c #d7dedd",
"83 c #bdebcc",
"84 c #a1e1b6",
"85 c #c0e4cc",
"86 c #d2d8d6",
"87 c #dcdddb",
"88 c #dee0df",
"89 c #ecf0ef",
"8a c #dddddf",
"8b c #e8eaea",
"8c c #dbdfdd",
"8d c #dadfe0",
"8e c #fcfdfc",
"8f c #dddfdd",
"90 c #dbdfde",
"91 c #dbdedf",
"92 c #fbfefb",
"93 c #bfebcc",
"94 c #dfe0de",
"95 c #a6e5bb",
"96 c #b6e7c5",
"97 c #f0f3f1",
"98 c #dbdddc",
"99 c #e5e7e6",
"9a c #d8dfdd",
"9b c #dbdee0",
"9c c #dfe1e0",
"9d c #dddedf",
"9e c #d7dfdd",
"9f c #d7dede",
"a0 c #d5dfdb",
"a1 c #b2eec6",
"a2 c #aeebc1",
"a3 c #c5e7cd",
"a4 c #eef7f0",
"a5 c #eef2ef",
"a6 c #d6dfdc",
"a7 c #dddede",
"a8 c #dcdfdb",
"a9 c #ade7bf",
"aa c #c0ebce",
"ab c #b2efc6",
"ac c #f0f9f3",
"ad c #fafdfc",
"ae c #eff2f1",
"af c #dbddde",
"b0 c #dadfdc",
"b1 c #dce0df",
"b2 c #e6e8e7",
"b3 c #dddedd",
"b4 c #d9dddd",
"b5 c #d7dcdb",
"b6 c #f4faf6",
"b7 c #abe9be",
"b8 c #c8dacf",
"b9 c #b2e7c4",
"ba c #e8ebea",
"bb c #f9fbf8",
"bc c #dcdddc",
"bd c #aeeec1",
"be c #a8e5ba",
"bf c #d5dbd9",
"c0 c #d7e1db",
"c1 c #e9eceb",
"c2 c #ebefec",
"c3 c #dcdedf",
"c4 c #f8fbfa",
"c5 c #dee1e1",
"c6 c #d7dddc",
"c7 c #c0f5cd",
"c8 c #a6e2b9",
"c9 c #dcdfd9",
"ca c #bfe4cb",
"cb c #b7e2c4",
"cc c #e7e9e9",
"cd c #ecefed",
"ce c #dddee0",
"cf c #f7fbfa",
"d0 c #e4f3e7",
"d1 c #c5f5d0",
"d2 c #e4f4e7",
"d3 c #e6eaea",
"d4 c #f9fbfb",
"d5 c #dce1e1",
"d6 c #d6dcdb",
"d7 c #e8efeb",
"d8 c #d8dcdb",
"d9 c #e0e2e3",
"da c #f8fbf8",
"db c #d5e0dd",
"dc c #d7dcda",
"dd c #f3f6f4",
"de c #ebeeee",
"df c #e7e9e8",
"e0 c #d7e0dd",
"e1 c #f0f3f2",
"e2 c #dbe1e0",
"e3 c #dbdfe0",
"e4 c #d7dedb",
"e5 c #e5e8e6",
"e6 c #dde2e2",
"e7 c #d8dddb",
"e8 c #dce1e0",
"e9 c #d9dcdc",
"ea c #d6dede",
"eb c #f9fdfb",
"ec c #dadfdd",
"ed c #dce0dd",
"ee c #fbfcfc",
"ef c #edf0ef",
"f0 c #e9ebea",
"f1 c #dfe3e3",
"f2 c #dcdfe0",
"f3 c #eaecec",
"f4 c #dfe1e1",
"f5 c #f1f5f4",
"f6 c #dbdddd",
"f7 c #d9dfde",
"f8 c #f8fbf9",
"f9 c #fafcfb",
"fa c #dee0e0",
"fb c #dbdede",
"fc c #f8fbfb",
"fd c #e2e2e2",
"fe c #eaedec",
"ff c #dddee1",
"10 c #dddfe0",
"10 c #f2f6f4",
"10 c #d8e0df",
"10 c #e4e5e4",
"10 c #dedee1",
"10 c #dfe2e1",
"10 c #e6eae9",
"10 c #fafdfd",
"10 c #dee1e2",
"10 c #dedfe2",
"10 c #dde1e1",
"10 c #dce0e1",
"10 c #dee0e2",
"10 c #f7fbf9",
"10 c #f6f9f7",
"10 c #fbfdfa",
"11 c #f9fcfa",
"11 c #f7fcfa",
"11 c #f2f4f4",
"11 c #dde2e0",
"11 c #d8dedd",
"11 c #d8dddd",
"11 c #dbdde0",
"11 c #f6fbf8",
"11 c #f0f1f1",
"11 c #e9edec",
"11 c #e4e8e6",
"11 c #eff1f1",
"11 c #e4e9e6",
"11 c #e0e1e3",
"11 c #e1e3e3",
"11 c #d5e0dc",
"12 c #dee4e2",
"12 c #e2e4e3",
"12 c #fafcfc",
"12 c #dee2e2",
"12 c #f4f6f6",
"12 c #dfe2e2",
"12 c #f8faf8",
"12 c #e0e1e1",
"12 c #e0e2e2",
"12 c #eaeeed",
"12 c #dfe4e2",
"12 c #f5faf8",
"12 c #e8f2ed",
"12 c #dde1e2",
"12 c #e3e7e5",
"12 c #f9fdfc",
"13 c #e5e8e7",
"13 c #e0e0e2",
"13 c #dde4e1",
"13 c #ecf0ed",
"13 c #dadddd",
"13 c #f4f7f5",
"13 c #ebedec",
"13 c #ebefed",
"13 c #eceded",
"13 c #d6dedc",
"13 c #d9dfe0",
"13 c #dadde0",
"13 c #f1f4f3",
"13 c #f8fafa",
"13 c #e4e7e6",
"13 c #e1e3e4",
"14 c #e3e3e4",
"14 c #f9fcfc",
"14 c #fbfcfd",
"14 c #e1e2e2",
"14 c #dbe0de",
"14 c #fcfcfc",
"14 c #e5e6e5",
"14 c #e3e5e6",
"14 c #dddedc",
"14 c #dae0de",
"14 c #ecf1ee",
"14 c #e2e4e5",
"14 c #eceeef",
"14 c #fbfcfb",
"14 c #e0e4e2",
"14 c #f7faf9",
"15 c #dee1df",
"15 c #f4f8f6",
"15 c #e3e5e4",
"15 c #d9dfdd",
"15 c #f1f3f2",
"15 c #ebeeed",
"15 c #dfe0e2",
"15 c #d8dfdc",
"15 c #f0f2f0",
"15 c #f1f4f2",
"15 c #eef1ef",
"15 c #edf1ef",
"15 c #e9edea",
"15 c #edeeee",
"15 c #eceeee",
"15 c #f0f2f1",
"16 c #eff1f0",
"16 c #eef0f0",
"16 c #eaeded",
"16 c #eaeeee",
"16 c #f1f3f3",
"16 c #f1f2f2",
"16 c #eff2f2",
"16 c #e9ecec",
"16 c #f0f3f3",
"16 c #eff0f1",
"16 c #e9ebec",
"16 c #ecf0ee",
"16 c #eff0f0",
"16 c #eaebed",
"16 c #e8eaec",
"16 c #ebeced",
"17 c #f0f1f2",
"17 c #f1f2f0",
"17 c #e8eceb",
"17 c #edf0ee",
"17 c #d8dfe0",
"17 c #d6dcda",
"17 c #dddfdf",
"17 c #edf1ee",
"17 c #d7dddb",
"17 c #fafbfb",
"17 c #f7faf8",
"17 c #e6e9e8",
"17 c #fcfcfd",
"17 c #d6dfde",
"17 c #fafafa",
"17 c #dce0de",
"18 c #e5e9e9",
"18 c #edf2ef",
"18 c #d6dddb",
"18 c #e4e7e5",
"18 c #e7e7e8",
"18 c #c0e2ca",
"18 c #b4efc7",
"18 c #e6f4e8",
"18 c #f3f4f3",
"18 c #f7f9fa",
"18 c #e4e6e5",
"18 c #e3e6e4",
"18 c #f5f8f5",
"18 c #f6f9f8",
"18 c #f7f9f9",
"18 c #f5f9f7",
"19 c #f3f5f4",
"19 c #e8ecea",
"19 c #e2e6e4",
"19 c #e7e8e8",
"19 c #f4f6f4",
"19 c #e6e7e7",
"19 c #e6e9e7",
"19 c #e3e7e4",
"19 c #f1f5f3",
"19 c #a1e0b5",
"19 c #c1e3cb",
"19 c #b7f4c9",
"19 c #caf5d2",
"19 c #eff8f3",
"19 c #dcdfdd",
"19 c #edefef",
"1a c #dee3e1",
"1a c #a7e3b9",
"1a c #e5f0e7",
"1a c #e7e4e4",
"1a c #e2eae5",
"1a c #cbf3d3",
"1a c #eff4f1",
"1a c #f9fafa",
"1a c #dfe0df",
"1a c #dce2e2",
"1a c #bfdec9",
"1a c #c4e4cd",
"1a c #e8ebe9",
"1a c #f4eff3",
"1a c #c8f6d1",
"1a c #dbdfda",
"1b c #edf1f0",
"1b c #efecef",
"1b c #edf8f3",
"1b c #e5f4e8",
"1b c #c6e6ce",
"1b c #cfe8d8",
"1b c #a9cdad",
"1b c #a8e3b9",
"1b c #e6e6e5",
"1b c #edebed",
"1b c #b3f1c7",
"1b c #f2f6f3",
"1b c #f6f6f7",
"1b c #f4f5f5",
"1b c #e3e7e6",
"1b c #e4e9e8",
"1c c #f3f6f5",
"1c c #f3f5f5",
"1c c #f6f7f7",
"1c c #e4e8e7",
"1c c #e2e6e5",
"1c c #e2e7e6",
"1c c #f1f7f3",
"1c c #e7eae8",
"1c c #f5f7f6",
"1c c #e9e9ea",
"1c c #e5e8e8",
"1c c #e6e9e9",
"1c c #e6e8e8",
"1c c #e5e7e7",
"1c c #f4f6f5",
"1c c #f4f7f6",
"1d c #bdf1cc",
"1d c #e2f3e6",
"1d c #e8f5ed",
"1d c #dbf3df",
"1d c #cff4d6",
"1d c #d3f2da",
"1d c #e3e6e6",
"1d c #bcdcc6",
"1d c #a7ddb6",
"1d c #b0efc4",
"1d c #a2e1b6",
"1d c #a8e5bb",
"1d c #a4e0b7",
"1d c #d0e7d8",
"1d c #e7eae9",
"1d c #dedfdf",
"1e c #bbeccd",
"1e c #f5f9f9",
"1e c #d5f2db",
"1e c #c3f3cf",
"1e c #e4e5e3",
"1e c #e8ece9",
"1e c #d3e1db",
"1e c #dde0dc",
"1e c #e5eae9",
"1e c #dbdfe1",
"1e c #ceead7",
"1e c #cdf6d5",
"1e c #d4f3db",
"1e c #d0f2d7",
"1e c #dbf3e0",
"1e c #e4e9e5",
"1f c #d9e0df",
"1f c #d6e0dd",
"1f c #d5dfdd",
"1f c #dae0df",
"1f c #d9e0db",
"1f c #fafbfa",
"1f c #e5e5e4",
"1f c #b7eec8",
"1f c #f5f8f6",
"1f c #f8f9f9",
"1f c #f1f3f4",
"1f c #e4e5e5",
"1f c #dfe2e3",
"1f c #e2e2e3",
"1f c #e2e4e4",
"1f c #e1e2e3",
"20 c #e1e4e3",
"20 c #e1e4e5",
"20 c #e4e3e4",
"20 c #f5f9f6",
"20 c #f7f9f8",
"20 c #e3e4e3",
"20 c #afecc3",
"20 c #e4e6e4",
"20 c #dde1e0",
"20 c #f6faf7",
"20 c #e7f5eb",
"20 c #d8e3de",
"20 c #e7e5e6",
"20 c #e1e4e2",
"20 c #ace6bf",
"20 c #caf3d3",
"21 c #cff2d6",
"21 c #f3faf6",
"21 c #d5dfdc",
"21 c #ebecec",
"21 c #d5ddda",
"21 c #dbe2e2",
"21 c #baf3d0",
"21 c #e5e9e7",
"21 c #e3ebe6",
"21 c #e2ede5",
"21 c #e2eee5",
"21 c #c7f6d1",
"21 c #ecf4ec",
"21 c #a2e2b7",
"21 c #b1edc4",
"21 c #f8faf9",
"22 c #dedfe1",
"22 c #dfe2e0",
"22 c #f9faf9",
"22 c #d1dfd7",
"22 c #bbe9c9",
"22 c #e5f5ea",
"22 c #dde1de",
"22 c #bae0c7",
"22 c #f9fdfa",
"22 c #dde0dd",
"22 c #dce0dc",
"22 c #fbfbfb",
"22 c #fefefb",
"22 c #e5e6e6",
"22 c #e5e5e6",
"22 c #b9ddc5",
"23 c #bee2c9",
"23 c #d1f2d8",
"23 c #e6f5e9",
"23 c #f6fbf9",
"23 c #e1e7e5",
"23 c #e3e5e5",
"23 c #d2d8d7",
"23 c #cbf1d3",
"23 c #d5e1db",
"23 c #e8e7e9",
"23 c #d2d7d5",
"23 c #d2dad7",
"23 c #c2f5d0",
"23 c #ebefee",
"23 c #d4d9d7",
"23 c #dadcdb",
"24 c #d3dcd9",
"24 c #e6e5e5",
"24 c #e7e5e5",
"24 c #dcddda",
"24 c #bedec9",
"24 c #9ac0a1",
"24 c #9fc5a5",
"24 c #a7d4b1",
"24 c #d8f3dd",
"24 c #e2e5e3",
"24 c #e1e3e2",
"24 c #dde2e1",
"24 c #cef2d5",
"24 c #c5f3d0",
"24 c #c8f2d4",
"24 c #cdf3d4",
"25 c #c1f1ce",
"25 c #a8e7bb",
"25 c #8db094",
"25 c #9dc8a6",
"25 c #c8f5d3",
"25 c #f4fbf7",
"25 c #e3f3e6",
"25 c #f4faf7",
"25 c #dce2e0",
"25 c #ecf8f2",
"25 c #f5fbf8",
"25 c #c3e4cc",
"25 c #cee8d7",
"25 c #d7e0da",
"25 c #e6ebe8",
"25 c #f4f9f5",
"26 c #b9f3cf",
"26 c #bedfc9",
"26 c #e3e4e5",
"26 c #e3e9e5",
"26 c #cdf5d5",
"26 c #dee1de",
"26 c #e9eced",
"26 c #dbdddb",
"26 c #cbe4d4",
"26 c #bcebc9",
"26 c #edf7f1",
"26 c #dff3e3",
"26 c #c9f3d2",
"26 c #e6e8e6",
"26 c #e9eaea",
"26 c #d8dbd9",
"27 c #d8dcd8",
"27 c #f9fbfc",
"27 c #e3e6e5",
"27 c #e2f2e6",
"27 c #d0f5d8",
"27 c #d3d9d7",
"27 c #edf2ee",
"27 c #d5dcdb",
"27 c #d3dad7",
"27 c #f6faf8",
"27 c #f7fafa",
"27 c #c2e2cc",
"27 c #bdf3cb",
"27 c #f0f7f2",
"27 c #dce0db",
"27 c #d5dad8",
"28 c #d3d9d8",
"28 c #edf3f0",
"28 c #f2f5f4",
"28 c #d4dbd9",
"28 c #f2f2f3",
"28 c #abdfbb",
"28 c #dbdcdd",
"28 c #ffffff",
"28 c #d8dcdd",
"28 c #d9dcdb",
"28 c #e8edea",
"28 c #d1d7d5",
"28 c #d4d8d7",
"28 c #d6dbd9",
"28 c #d6dbda",
"28 c #d4d9d8",
"29 c #e9f3ea",
"29 c #d8dee0",
"29 c #f0f4f2",
"29 c #e0f0e4",
"29 c #f6f8f8",
"29 c #f4f6f7",
"29 c #d1e5d9",
"29 c #e3f4e7",
"0001020304040405060708090a0b0c0d0e0f10111111121313141511111617181911111a11001b1b1c041d1d1e1f022004031121221b1b23040324251313000b",
"1826270404040428292a2b2c0b032d0d2e2f3011111119311302212424323318340b110b11311b1b1b040b04351b023611111137381b1b390403243a3b13130b",
"3c3d3e3f0321402e414243040304442245140311110b46181847041a0b48494a174b0b214c4d4e2e0e0404034f3350262151031001520d3d041a215346333340",
"04040a5426221710030404172e5556100b0b2e571719580303033d1f0d480b0b585917475a581003030e5b3c5c0404105d0d5e5f601037605461626304040b64",
"1a0b245d262265031a0a303c282266030351460d1c1958030403312626671a21686222190d040303030e2617690304606a3d310d1a0b04042e0d0d6b110b302e",
"0404406c18386d1a110b376e0d0d6f37101d0d0d1c1958030404262626671a21707126610d0404030319261772110473225b1b74030403031926266b1d1d304e",
"404004750d181b7677114b780d6579240421315e4946370440037a337b7c0404047d7e170d400404045e62467f0403242e0f0f805804030419812e6b24113022",
"82367a5824040483848586734b702d17348710030a03540d1488030303898a1919030340402227275a0303048b52478c110404045b8d184604048e538f8d9003",
"027491580b049293949596370b11975b2e454b0b110a540d573340030432181888030303045e0d0e9803030499199a4d0304030a9b1818453704049c9d179e0b",
"029fa04c0b3730a1a2a329a41d11a50d65a6370b0b11540d26620303033218184603030303980d0d5e0303039919289e03030303881818a73704049c8a749e40",
"573d4e40403773a8a929aaabacadaeafb02204300403450e0d46030303327a7ab14b1010030e190e0e370404b2b3b40d3f10403788190e61030304885b1c3804",
"040a0462b53414b6b7ab81b8b981ba370337196a8d19370303037b181867030310223831980303030346195e720404030d0d2631400303ad1b1c2ebb1d0a0abc",
"043030234eaf28bdbebf8aa6c00fc1030337880d1c19580303037b188dc2040404c31318194003030346195e720404042e2e260d4c1103101b2626c437241d52",
"040404c52828c6c7c8c9cacb9e14cc0b4004620d1c1958030303751857cd0404047acece190b03030319195e723004042e2e2617106803101b1b8dcf0411246a",
"684c21548da61768d0d1d20d1882d33004d4d5333119040404042318d6d7040440230da65470040410d84698690304045e5e46b1031058ad6c1bd9da3004047d",
"7bb423150404035f0ddbdc030340ddb41b5b400303374517b47530030ade2618330303040419191990030404df460e198e0b0337462e0290210358d9188d3304",
"1331e0582104400f029e170b0b1ae12e91e237110303542626e3030303321c263103040403e40d0d0d040404e51919190303030b190d28260b0337e60d3c0204",
"133326030304042e0202710b0b0be11c1b0d03030303542631620303033214262603040403e70d0d0e030404e51919190b030330190d286a040437e828024e03",
"b46a0d03373730e99eea4e58eb4c0ceced19ee0337030eaf3b620b0304efe37a180b0403030e8d133b700304f01919bc300310372e0d0d22585815f1230e3e03",
"0a0b0bf219465e04040437e30dc6f3040b0b22313131210404036c33f4670404406c3318260304040b542223f504040446f6650d70040460f72631f8041af90d",
"211a0bfa3119460303030365284d6603030362181818400303037b1818670303402326fb26030404400d0d2e7203030346460d2203040b10651b33fc04040446",
"24110bfd1919190403030bb40d22fe030b035effff181003030310183367030340571c2626030404372e0d3d100303030eb30d260303044036104efc04300419",
"58f9d41010ce108e70f9f94588471010105810232fe63f3030307b10106770303010101010ee303010d9102f723f307045885fce10105810b4e6e6101011116a",
"26314704040b0431266a2003030b1133342304040404621818334003033218181804030303ce1818c30303048b1818310337371034571c75100430110d111103",
"13113637041104331c0d8c0b0404112e4d170304040419ce18334b0303110d26310403030331190d5e0303031126263103030310572626c5580404620e394e03",
"2626ea030b37040e261c57370404112e28140404040419ce1862580303fe0d26310403110319190d5e0303111122263104030310382626110311241101311137",
"12125d1012ad60b1b112f158378e125d3412123021ee12126cf4240b121212140d8e030b0bf41264128e1112125dfa450b10373f1012fa124c12f91353131370",
"031a1d54651f1c5803040338339d8b0303032e4646193703030346460d131a1a215957341303030337f60d0d130404032e262e22400411c422178dfc03043717",
"0404046c2657130404040431183b130303040d0d6a574b2424043d8d8d13041d0b34111126030303036a6a0d72030303458d26170b0b0b63f71c18fc0404032e",
"0a0a0a47269b180404040418186113030304620d0d13030b0b04571338cd0b0b0be81b13310b0303400d0d0d130303038f2e26170b1a0b6390170dcf04040446",
"11f9131313131414ee143f14141013f9f9141414141451c4133f1313131413511314ce12106311ee63111010141314631410105f1014c414141588151111c415",
"0d2327040340033313311803040aef6a19190403030317226a1804030432275f8d04040403bc19190d04030b4f46191937030303571c1cb11a11036d78152e03",
"0d0d0d040304042626171c03030b1519191904033737ce0d0d2204040415b5281704040437e026263b70030311183131030303038d333915041a049c65281503",
"28280d030310308d26171703030a440d311830030303ce1914310b0404320d282603040404111c263b03030414182626100303031726265f1004045327289e40",
"151515151515151511161615defe161144151616dede16164444f38bc115164489c1c1c1164416161667164816161611161614160c1717ef17fe1116ef151716",
"1a0404c5652e0d21040303ce17f279030337171c261440030404171901172411370d0d0db10b0340033126177f030358337517b440030b175f0d2e172411ee7a",
"0403043428192e370358035702b5170304370d1b133440040404d80d19170303106a0d0dfb0404041731264e72040303f214171704041a17578d14c41a0b1a1c",
"030415558117504040034c2e021c18700303471b9b17580b040b1726b418030303620d0d2e04040430c365a6720403374518023804040b638d4a14fc0404044a",
"181818181818181018181e7f18189718181e7f5c7f5c17cc1eb21818181518181818131918191818185c18f5e51918195c1818191918181915f5f51918189919",
"9a9d19191919190d0e0d47400b041326f6d86803031180147419040b03195446bc0304030b783c575a03030312233345681104049000331503040b1a54900d0b",
"02741a1a1a1a1a2811267a03040a1a150d78100303376a74266d040404320d0d2e03031130114e023e04030417172600700b0a1a470d261a048e681af2195737",
"1a1a291a1a1a1a1a115e000404701b28282e10030303fa2600650404041b1c1c2e4c030404195702b55803114f621c264011112426172653031b1b1b1a1b9e04",
"1b1b291b1b141b191b1b1b1b791b151c1c1c181c1c1c191c1c1c1bdf1c171b1c1c1cdf1a1cdd1b1c1c1c1c1c141c1b1b1c1c1c1c1c1c1cdd131d1d1d1d1d1d1d",
"1d1d1d1d1d1d1d04040311ed14821d4c04048d182e8d581103107a3347c20303031d46450d03040430b41c26690b0304361caf38210411d45b1e721e1b1e1e34",
"1e1e1e15051e1b1004040b1e289e1e8e04048d1b57478e11030400311e670303031d460e0d37040430b51c17691a030457181480211a04c42e1e1e1ed01e1e5f",
"1a1e1e010d1f5730040a0b119e74660a0b3017741f1f700b037013317115030370a719190d0b04300417f738130b04041fa61f0d15510417231fdb1f110b041f",
"1a1f1f1f1f1f1162c56c6c1010141f191013101f18187b141f1f1818181b1f1f19181818181fd91f20141818122014201113201462461f147f18181dd5191020",
"1a20200430111a2028051f110b0a446a190d0304308e19311b8d11111132191919030303035f280f0e04040b201119191504040401220d2004202020ffd55d04",
"2020201a20212121a6d86530030b213db52110040404228de3570404033219194603030304821c1c380303114f31192268041a116517d8212421d22b4d573940",
"e521192121211e2e2e1f1f1103117c33261c4c0b1a0b5e18ce45030303321919460303030317a63d810b0b0b1119192237030b0b5b2ea615372121211f57264b",
"e5194f35111121c41f2160142290c1580a37231719464c0340152357551403030b4645450e03030430171d22dd3003108c112714ad3011227b222222100a8e22",
"19141111191922222124032e01131c111010330d198758040424392617670303036119310d04040437191931690b110b22902e220b0b0b222631181804042223",
"192211113522222323232357177e23110358330d192e580404105b8d17670303036119460d1103043719190d7f0b03376abf0d0d30040b1702a62e1003042213",
"1a4f19141923231b1b231a239b231714303013221920030404375bd547670303031946461e6804040498e75f7f30040454220d2004370b1f2e1f5b1a10040be3",
"1ae599141823022323231b23100b15215e2610040451115e495e703710235e81237037588e6a22234504040b19220d7d040410033d0d26b503040346195e2403",
"2411244f8b1f8b242424242424044428270d1003040b7a3318620b040b150d0d3d030340405b2e0d2e0b03112420190d70ad0b0447171c2404040424130d0d30",
"e535242424242425252525252511ae0d1c0d3703041a578a1846373015110d1918110b1a68572631900b0b0b1917650d122525f8f70d2625371a03f1196a5704",
"1b1e292525112525252525248e21e117020d604c3737190e5e52370404255f8d4904111d920d2e23e7d41104142e0f141025261a26af20620430042647fb1b04",
"352626c331450e040404035e15262637103717282e1937030303460d22180b03370d0d265d1003037022b4147f10035898172626263026269e0d47fc03030310",
"261c1e8d1b18b11d0404044eaf572604040b8d26262658030303190d2e17030b1dd82828b104040470110202720b03182627b5b5891f7c2605e2142703113718",
"272727fb1c0d22030403581c1c171c040b0418261c19370303030d502727210b0b8d17177e040430032714137f150403190d1f4e200b1fbb2765172727ee2027",
"1b2727270d22d858040b10902ec66604040454381cf6373737033d575b190411044500387b0a037040231427dd0b0304453428862828101c2328220c69281c28",
"5b2810282828282e2826c5282828198a1946041010582819195437684c11652265377310105e3d0d26284fb228230d288b18d4102381232818238b2823282729",
"111c212828282865022913282828296a19190303030b47311c62372c1e29021b1c04040340340e1122291c295d1b0d0d7058040b0d38260d04282824234d2929",
};
