/* XPM */
static char *image[] = {
"64 64 377 2",
"00 c #ffffff",
"01 c #f9fdf9",
"02 c #8dd898",
"03 c #31a551",
"04 c #157e30",
"05 c #168b2f",
"06 c #309d4d",
"07 c #3ea357",
"08 c #40a659",
"09 c #40a658",
"0a c #30a553",
"0b c #2fa14f",
"0c c #168232",
"0d c #59ba6d",
"0e c #6eca80",
"0f c #168031",
"10 c #077725",
"11 c #077624",
"12 c #127a30",
"13 c #3a974e",
"14 c #3c904b",
"15 c #428b4f",
"16 c #42904e",
"17 c #3a8d4b",
"18 c #38924b",
"19 c #65c87c",
"1a c #6bbd77",
"1b c #02741f",
"1c c #127d34",
"1d c #1c7f33",
"1e c #167331",
"1f c #418f4e",
"20 c #3d8b4c",
"21 c #5ba563",
"22 c #6ad082",
"23 c #6ec77f",
"24 c #0c7e28",
"25 c #035d19",
"26 c #08571c",
"27 c #035113",
"28 c #1c8034",
"29 c #0b4d18",
"2a c #0c4c1a",
"2b c #60a468",
"2c c #6bc17d",
"2d c #0d9231",
"2e c #054314",
"2f c #034610",
"30 c #208237",
"31 c #1b6b30",
"32 c #06320f",
"33 c #0b3510",
"34 c #0c3812",
"35 c #60a569",
"36 c #86da94",
"37 c #034710",
"38 c #032206",
"39 c #011203",
"3a c #498954",
"3b c #338e47",
"3c c #2d8943",
"3d c #021904",
"3e c #032c07",
"3f c #47a65b",
"40 c #6ecb81",
"41 c #219d42",
"42 c #0f541d",
"43 c #144d1f",
"44 c #14451c",
"45 c #367944",
"46 c #257537",
"47 c #30753e",
"48 c #0f3715",
"49 c #0c3f15",
"4a c #104319",
"4b c #40924e",
"4c c #bdeac8",
"4d c #4b9d5a",
"4e c #458450",
"4f c #4c8e56",
"50 c #5fa367",
"51 c #0c3b12",
"52 c #042d08",
"53 c #5aa562",
"54 c #28723a",
"55 c #1f632f",
"56 c #369a50",
"57 c #c3eccc",
"58 c #58a660",
"59 c #318644",
"5a c #1f622e",
"5b c #0f4d1e",
"5c c #011503",
"5d c #021a04",
"5e c #1d5c2b",
"5f c #2c8240",
"60 c #458951",
"61 c #3fa557",
"62 c #b8e9c3",
"63 c #5fa466",
"64 c #3a8c4b",
"65 c #1f572a",
"66 c #0f3e15",
"67 c #000900",
"68 c #011103",
"69 c #13481c",
"6a c #397744",
"6b c #458b51",
"6c c #3ba455",
"6d c #d2f2d6",
"6e c #60a469",
"6f c #2c8441",
"70 c #074416",
"71 c #021704",
"72 c #011102",
"73 c #3a7644",
"74 c #3c8b4c",
"75 c #127c32",
"76 c #d3f2d6",
"77 c #49a55b",
"78 c #408e4d",
"79 c #12511f",
"7a c #021f05",
"7b c #2d733b",
"7c c #367040",
"7d c #377442",
"7e c #042608",
"7f c #1d622e",
"80 c #1a7d33",
"81 c #1f9d41",
"82 c #d9eddd",
"83 c #2fa353",
"84 c #38994f",
"85 c #136f2c",
"86 c #03340a",
"87 c #498a54",
"88 c #58a661",
"89 c #0a4315",
"8a c #1b5627",
"8b c #2b8e40",
"8c c #84d792",
"8d c #4aac5f",
"8e c #229c42",
"8f c #2e9145",
"90 c #44a559",
"91 c #57af64",
"92 c #4a9457",
"93 c #145723",
"94 c #1b5829",
"95 c #1f622f",
"96 c #70cb81",
"97 c #4fb168",
"98 c #0c8228",
"99 c #0e8128",
"9a c #21943b",
"9b c #42a659",
"9c c #19632b",
"9d c #0c5e22",
"9e c #175925",
"9f c #06571b",
"a0 c #87d894",
"a1 c #4a9f58",
"a2 c #02721e",
"a3 c #026a1b",
"a4 c #05691e",
"a5 c #032d07",
"a6 c #0c5d21",
"a7 c #034a13",
"a8 c #85d692",
"a9 c #5fb771",
"aa c #02751f",
"ab c #109233",
"ac c #22973d",
"ad c #135521",
"ae c #055c1a",
"af c #035016",
"b0 c #96d5a3",
"b1 c #6cc37b",
"b2 c #118e30",
"b3 c #0e9a37",
"b4 c #2ea452",
"b5 c #03350a",
"b6 c #115822",
"b7 c #025916",
"b8 c #d3f1d8",
"b9 c #8adb96",
"ba c #0c9834",
"bb c #139f3f",
"bc c #2fa154",
"bd c #299a44",
"be c #167231",
"bf c #034810",
"c0 c #095a1f",
"c1 c #dcf3df",
"c2 c #88d397",
"c3 c #0d9936",
"c4 c #349e52",
"c5 c #379a50",
"c6 c #196e30",
"c7 c #064617",
"c8 c #034d14",
"c9 c #0c571f",
"ca c #ddf2e0",
"cb c #84cc95",
"cc c #11892d",
"cd c #37a154",
"ce c #38964c",
"cf c #0c5f22",
"d0 c #1b5527",
"d1 c #175725",
"d2 c #025315",
"d3 c #dbf4de",
"d4 c #70c880",
"d5 c #0a7e25",
"d6 c #117d30",
"d7 c #40a759",
"d8 c #067423",
"d9 c #025b17",
"da c #0b4d1c",
"db c #1e582a",
"dc c #0d5c21",
"dd c #6cc279",
"de c #158637",
"df c #1e612e",
"e0 c #20602e",
"e1 c #1c6930",
"e2 c #83cc8b",
"e3 c #056a1e",
"e4 c #117c33",
"e5 c #0b5e21",
"e6 c #1e6630",
"e7 c #1f612e",
"e8 c #1b7932",
"e9 c #74ca81",
"ea c #0e8a31",
"eb c #127c33",
"ec c #015415",
"ed c #1e602d",
"ee c #17672c",
"ef c #7dd78e",
"f0 c #2da54f",
"f1 c #14892e",
"f2 c #047721",
"f3 c #127e34",
"f4 c #1e642f",
"f5 c #08601e",
"f6 c #f4fcf5",
"f7 c #60cd7d",
"f8 c #21a74a",
"f9 c #0d9131",
"fa c #07661f",
"fb c #6ec97f",
"fc c #6dd182",
"fd c #61cd7e",
"fe c #99e1a1",
"ff c #46a75b",
"10 c #7cd28a",
"10 c #37a957",
"10 c #45bd67",
"10 c #097726",
"10 c #08581d",
"10 c #319446",
"10 c #6fc77c",
"10 c #6dc67d",
"10 c #5fcc7d",
"10 c #49ad61",
"10 c #bce9c3",
"10 c #2fa552",
"10 c #209d42",
"10 c #38a555",
"10 c #58c473",
"10 c #0d9b37",
"11 c #39a857",
"11 c #3ea758",
"11 c #208735",
"11 c #76c484",
"11 c #7ad288",
"11 c #76d286",
"11 c #72d082",
"11 c #75d488",
"11 c #96df9f",
"11 c #0c6623",
"11 c #bbebc0",
"11 c #24a048",
"11 c #309f51",
"11 c #2c8d43",
"11 c #116227",
"11 c #1d6b31",
"12 c #218338",
"12 c #2a8b41",
"12 c #5ead6b",
"12 c #52a55d",
"12 c #5cbb70",
"12 c #69d07f",
"12 c #5cbc70",
"12 c #12712b",
"12 c #0e7227",
"12 c #149737",
"12 c #0d9d39",
"12 c #299944",
"12 c #2f9149",
"12 c #075e1d",
"12 c #072f0b",
"12 c #032606",
"13 c #5eb973",
"13 c #4da85f",
"13 c #3fa658",
"13 c #2c9444",
"13 c #9adfa3",
"13 c #1c8b35",
"13 c #1a7531",
"13 c #1d9e41",
"13 c #30a654",
"13 c #54ab65",
"13 c #17662b",
"13 c #032907",
"13 c #021e05",
"13 c #2cad55",
"13 c #35a857",
"13 c #299d47",
"14 c #1b9e41",
"14 c #44a85a",
"14 c #115a22",
"14 c #136328",
"14 c #dadedf",
"14 c #dcdfe0",
"14 c #41a859",
"14 c #60ae6c",
"14 c #368d48",
"14 c #042f0a",
"14 c #011303",
"14 c #178b30",
"14 c #0c9b37",
"14 c #215a2c",
"14 c #115121",
"14 c #dbdedf",
"15 c #31ab56",
"15 c #3b964e",
"15 c #60a96a",
"15 c #377f47",
"15 c #042307",
"15 c #129a39",
"15 c #179f41",
"15 c #2ea352",
"15 c #3ea858",
"15 c #178031",
"15 c #04651c",
"15 c #09340f",
"15 c #94bf9b",
"15 c #dbdfe0",
"15 c #66c579",
"15 c #4fa55f",
"16 c #084919",
"16 c #f7faf7",
"16 c #32a855",
"16 c #4aa65c",
"16 c #48a65a",
"16 c #1b8430",
"16 c #034e13",
"16 c #135221",
"16 c #38a958",
"16 c #2c9c49",
"16 c #55a75f",
"16 c #5da666",
"16 c #3d9850",
"16 c #032406",
"16 c #82cb92",
"16 c #1e8c36",
"17 c #59a264",
"17 c #449253",
"17 c #4ea15b",
"17 c #e2f4e6",
"17 c #47a95d",
"17 c #19712e",
"17 c #fdfdfd",
"17 c #fdfefe",
"17 c #dde0e1",
"00000000000000000000000000000000000000000000000000000000000000000000000000000000000000000000000000000000000000000000000000000000",
"00000000000000000000000000000000000000000000000000000000000000000000000000000000000000000000000000000000000000000000000000000000",
"00000000000000000000000000000000000000000000000000000000000000000000000000000000000000000000000000000000000000000000000000000000",
"00000000000000000000000000000000000000000000000000000000000000000000000000000000000000000000000000000000000000000000000000000000",
"00000000000000000000000000000000000000000000000000000000000000000000000000000000000000000000000000000000000000000000000000000000",
"00000000000000000000000000000000000000000000000000000000000000000000000000000000000000000000000000000000000000000000000000000000",
"00000000000000000000000000000000000000000000000000000000000000000000000000000000000000000000000000000000000000000000000000000000",
"00000000000000000000000000000000000000000000000000000000000000000000000000000000000000000000000000000000000000000000000000000000",
"00000000000000000000000000000000000000000000000000000000000000000000000000000000000000000000000000000000000000000000000000000000",
"00000000000000000000000000000000000000000000000000000000000000000000000000000000000000000000000000000000000000000000000000000000",
"00000000000000000000000000000000000000000000000000000000000000000000000000000000000000000000000000000000000000000000000000000000",
"00000000000000000000000000000000000000000000000000000000000000000000000000000000000000000000000000000000000000000000000000000000",
"00000000000000000000000000000000000000000000000000000000000000000000000000000000000000000000000000000000000000000000000000000000",
"00000000000000000000000000000000000000000000000000000000000000000000000000000000000000000000000000000000000000000000000000000000",
"00000000000000000000000000000000000000000000000000000000010000000001010101010000000000000000000000000000000000000000000000000000",
"00000000000000000000000000000000000000000000000000000203040405060708090a0b0c0d00000000000000000000000000000000000000000000000000",
"00000000000000000000000000000000000000000000000000000e0f101112131415161617181900000000000000000000000000000000000000000000000000",
"00000000000000000000000000000000000000000000000000001a1b1c1c1c161d1e1f1620212200000000000000000000000000000000000000000000000000",
"0000000000000000000000000000000000000000000000000000232425262716281e292a2a2b2200000000000000000000000000000000000000000000000000",
"00000000000000000000000000000000000000000000000000002c2d2e2e2f163031323334353600000000000000000000000000000000000000000000000000",
"0000000000000000000000000000000000000000000000000000232d3738393a3b3c3d383e3f3600000000000000000000000000000000000000000000000000",
"0000000000000000000000000000000000000000000000000000404142434445464748494a4b3600000000000000000000000000000000000000000000000000",
"00000000000000000000000000000000000000000000000000004c4d4e4f50515252535455563600000000000000000000000000000000000000000000000000",
"00000000000000000000000000000000000000000000000000005758595a5b5c5c5d5e5f60616200000000000000000000000000000000000000000000000000",
"00000000000000000000000000000000000000000000000000005763646566676768696a6b6c6200000000000000000000000000000000000000000000000000",
"00000000000000000000000000000000000000000000000000006d6e6f7071676772397374750000000000000000000000000000000000000000000000000000",
"0000000000000000000000000000000000000000000000000000767778797a7b7c7d7e7f80810000000000000000000000000000000000000000000000000000",
"00000000000000000000000000000000000000000000000000008283848586875388898a8b8c0000000000000000000000000000000000000000000000000000",
"0000000000000000000000000000000000000000000000000000008d8e8f90919293949596000000000000000000000000000000000000000000000000000000",
"0000000000000000000000000000000000000000000000000000009798999a9b9c9d9e9fa0000000000000000000000000000000000000000000000000000000",
"000000000000000000000000000000000000000000000000000000a1a2a3a3a4a59da6a7a8000000000000000000000000000000000000000000000000000000",
"000000000000000000000000000000000000000000000000000000a9aaabaca2a5adaeafb0000000000000000000000000000000000000000000000000000000",
"000000000000000000000000000000000000000000000000000000b1b2b3b411b5b6afb7b8000000000000000000000000000000000000000000000000000000",
"000000000000000000000000000000000000000000000000000000b9babbbcbdbe2ebfc0c1000000000000000000000000000000000000000000000000000000",
"000000000000000000000000000000000000000000000000000000c2bac3c4c5c6c7c8c9ca000000000000000000000000000000000000000000000000000000",
"000000000000000000000000000000000000000000000000000000cb2dcccdcecfd0d1d2d3000000000000000000000000000000000000000000000000000000",
"000000000000000000000000000000000000000000000000000000d4d5d6d7d8d9dadbdc00000000000000000000000000000000000000000000000000000000",
"000000000000000000000000000000000000000000000000000000ddde9b9090cfdfe0e100000000000000000000000000000000000000000000000000000000",
"000000000000000000000000000000000000000000000000000000e2aaa3e3e4e5e6e7e800000000000000000000000000000000000000000000000000000000",
"000000000000000000000000000000000000000000000000000000e9eaaaaaebecede6ee00000000000000000000000000000000000000000000000000000000",
"0000000000000000000000000000000000000000000000000000eff0f1aaf2f3d9c8f4f5f6000000000000000000000000000000000000000000000000000000",
"00000000000000000000000000000000000000000000000000f7f7f8aaaaaaf9d937fafbfcf7fdfe000000000000000000000000000000000000000000000000",
"000000000000000000000000000000000000000000000000ff101010aaaa2d10af1010101010f710000000000000000000000000000000000000000000000000",
"0000000000000000000000000000000000000000000000101010101010111111a411111111111111000000000000000000000000000000000000000000000000",
"00000000000000000000000000000000000000000000001111ba1111d91111121212121212121212000000000000000000000000000000000000000000000000",
"0000000000000000000000000000000000000000000000001212121212f412121313131313131113000000000000000000000000000000000000000000000000",
"00000000000000000000000000000000000000000000000013131313ec1313001313131414ec1414000000000000000000000000000000000000000000000000",
"1414140000000000000000000000000000000000000000001314141414140000141410ba11d91414000000000000000000000000000000000000000000000000",
"14141400000000000000000000000000000000000000000015151515150000001515151515151515000000000000000000000000000000000000000000000000",
"141415000000000000000000000000000000000000000000001515161600000016c4161616161600000000000000000000000000000000000000000000000000",
"00000000000000000000000000000000000000000000000000000000000000001616161616160000000000000000000000000000000000000000000000000000",
"00000000000000000000000000000000000000000000000000000000000000001616351717170000000000000000000000000000000000000000000000000000",
"00000000000000000000000000000000000000000000000000000000000000000000171717000000000000000000000000000000000000000000000000000000",
"00000000000000000000000000000000000000000000000000000000000000000000000000000000000000000000000000000000000000000000000000000000",
"17171700000000000000000000000000000000000000000000000000000000000000000000000000000000000000000000000000000000000000000000000000",
"14141500000000000000000000000000000000000000000000000000000000000000000000000000000000000000000000000000000000000000000000000000",
"14141500000000000000000000000000000000000000000000000000000000000000000000000000000000000000000000000000000000000000000000000000",
"15141700000000000000000000000000000000000000000000000000000000000000000000000000000000000000000000000000000000000000000000000000",
"00000000000000000000000000000000000000000000000000000000000000000000000000000000000000000000000000000000000000000000000000000000",
"00000000000000000000000000000000000000000000000000000000000000000000000000000000000000000000000000000000000000000000000000000000",
"00000000000000000000000000000000000000000000000000000000000000000000000000000000000000000000000000000000000000000000000000000000",
"00000000000000000000000000000000000000000000000000000000000000000000000000000000000000000000000000000000000000000000000000000000",
"00000000000000000000000000000000000000000000000000000000000000000000000000000000000000000000000000000000000000000000000000000000",
"00000000000000000000000000000000000000000000000000000000000000000000000000000000000000000000000000000000000000000000000000000000",
};
