/* XPM */
static char *image[] = {
"64 64 482 2",
"00 c #ffffff",
"01 c #fcfcfc",
"02 c #dddddd",
"03 c #dbdbdb",
"04 c #b8d6bd",
"05 c #bdd0c0",
"06 c #ced3cf",
"07 c #b9e8c2",
"08 c #b3dcbb",
"09 c #c0e1c6",
"0a c #5bca7c",
"0b c #43ab5a",
"0c c #048724",
"0d c #068d2a",
"0e c #0d9136",
"0f c #1c9240",
"10 c #3aa757",
"11 c #52b973",
"12 c #53b974",
"13 c #4bb061",
"14 c #3aa958",
"15 c #39a857",
"16 c #31a351",
"17 c #25853f",
"18 c #6dc684",
"19 c #4dc073",
"1a c #43a45b",
"1b c #007d21",
"1c c #01851e",
"1d c #02882a",
"1e c #128d38",
"1f c #5ea066",
"20 c #6ea276",
"21 c #73a47b",
"22 c #629f69",
"23 c #4aa35c",
"24 c #469a57",
"25 c #449454",
"26 c #2d793d",
"27 c #5eb971",
"28 c #3a9c50",
"29 c #027922",
"2a c #079232",
"2b c #069131",
"2c c #048a2d",
"2d c #138d38",
"2e c #38934e",
"2f c #297a3d",
"30 c #17702f",
"31 c #459e58",
"32 c #359b4f",
"33 c #2d9349",
"34 c #429052",
"35 c #74a57c",
"36 c #65ce81",
"37 c #3da555",
"38 c #037d26",
"39 c #037622",
"3a c #036f1f",
"3b c #036f20",
"3c c #127e31",
"3d c #479e58",
"3e c #1b7e38",
"3f c #0e6e26",
"40 c #1c7833",
"41 c #1f7835",
"42 c #257c3a",
"43 c #3d894c",
"44 c #6fdc88",
"45 c #54b36b",
"46 c #068f31",
"47 c #00410d",
"48 c #00400d",
"49 c #01400e",
"4a c #155424",
"4b c #4da75e",
"4c c #257f3a",
"4d c #024212",
"4e c #024415",
"4f c #1e572b",
"50 c #7cbf88",
"51 c #75dc8b",
"52 c #51c16d",
"53 c #013c0d",
"54 c #002d0b",
"55 c #043c12",
"56 c #499c5a",
"57 c #287a3d",
"58 c #012808",
"59 c #012908",
"5a c #01370f",
"5b c #12461e",
"5c c #65a06c",
"5d c #83df96",
"5e c #65d77f",
"5f c #069031",
"60 c #01380f",
"61 c #001101",
"62 c #06320d",
"63 c #2f8141",
"64 c #31793e",
"65 c #001502",
"66 c #001201",
"67 c #01340f",
"68 c #0b4519",
"69 c #45a359",
"6a c #a2e7ae",
"6b c #6edc88",
"6c c #259a49",
"6d c #298842",
"6e c #328243",
"6f c #559f60",
"70 c #3c874b",
"71 c #013d0d",
"72 c #013c0f",
"73 c #70a378",
"74 c #6fa377",
"75 c #1c602d",
"76 c #338545",
"77 c #32a252",
"78 c #c6f3ce",
"79 c #76de90",
"7a c #469b57",
"7b c #3b904e",
"7c c #388b4a",
"7d c #5ba264",
"7e c #419152",
"7f c #013b0f",
"80 c #013a0f",
"81 c #013e11",
"82 c #6fa77a",
"83 c #63a06a",
"84 c #1b672f",
"85 c #217937",
"86 c #46a45b",
"87 c #c5f3ce",
"88 c #79df92",
"89 c #4da15b",
"8a c #2f7d40",
"8b c #31783e",
"8c c #0d4e1e",
"8d c #0e4a1d",
"8e c #000a00",
"8f c #000800",
"90 c #134f21",
"91 c #0c4c1c",
"92 c #419451",
"93 c #469d58",
"94 c #55a560",
"95 c #67d980",
"96 c #58a362",
"97 c #073811",
"98 c #002106",
"99 c #000700",
"9a c #000900",
"9b c #0a3b17",
"9c c #044013",
"9d c #39934e",
"9e c #429753",
"9f c #4aa35e",
"a0 c #c0f1c9",
"a1 c #6dda87",
"a2 c #609f67",
"a3 c #307a3e",
"a4 c #3e894d",
"a5 c #001001",
"a6 c #000c00",
"a7 c #001c04",
"a8 c #2b8b44",
"a9 c #2a7d3d",
"aa c #7ada8f",
"ab c #48a05a",
"ac c #3c914f",
"ad c #449554",
"ae c #002005",
"af c #043611",
"b0 c #549d5e",
"b1 c #5a9b62",
"b2 c #489758",
"b3 c #022d0a",
"b4 c #01310d",
"b5 c #097e2b",
"b6 c #138635",
"b7 c #289f4c",
"b8 c #caf0d1",
"b9 c #2ca850",
"ba c #2e9f4d",
"bb c #42a458",
"bc c #003d0e",
"bd c #054616",
"be c #5ba164",
"bf c #67a06d",
"c0 c #024213",
"c1 c #054918",
"c2 c #0a7124",
"c3 c #249f49",
"c4 c #50c472",
"c5 c #55c672",
"c6 c #28a34b",
"c7 c #099034",
"c8 c #249c4a",
"c9 c #5dcf7c",
"ca c #56ab6d",
"cb c #034617",
"cc c #2a7a3d",
"cd c #024716",
"ce c #64cb78",
"cf c #178939",
"d0 c #068e31",
"d1 c #0d9237",
"d2 c #45a55c",
"d3 c #136a2a",
"d4 c #054c1a",
"d5 c #00400f",
"d6 c #257439",
"d7 c #65c777",
"d8 c #047723",
"d9 c #057220",
"da c #025814",
"db c #0d6f25",
"dc c #003c0e",
"dd c #145023",
"de c #205c2e",
"df c #00400e",
"e0 c #1b5c2c",
"e1 c #73c988",
"e2 c #0e7127",
"e3 c #136d2a",
"e4 c #0d6f26",
"e5 c #022d09",
"e6 c #155225",
"e7 c #104f1f",
"e8 c #024a18",
"e9 c #185b2a",
"ea c #c1f0cc",
"eb c #03882c",
"ec c #048d2f",
"ed c #249d4a",
"ee c #298a42",
"ef c #097322",
"f0 c #0a5421",
"f1 c #025214",
"f2 c #175f2a",
"f3 c #c3f1cc",
"f4 c #148e3a",
"f5 c #34994e",
"f6 c #0e5423",
"f7 c #013e0d",
"f8 c #024414",
"f9 c #237337",
"fa c #c7efcf",
"fb c #118c37",
"fc c #27a14b",
"fd c #29a04c",
"fe c #01400f",
"ff c #024516",
"10 c #247238",
"10 c #c7efce",
"10 c #099133",
"10 c #038b2d",
"10 c #259e4a",
"10 c #269e4b",
"10 c #1a672e",
"10 c #07511b",
"10 c #0b5220",
"10 c #2b7c3e",
"10 c #c8edcf",
"10 c #03892b",
"10 c #017a20",
"10 c #249e4a",
"10 c #299f4b",
"10 c #1e7d39",
"11 c #0a561f",
"11 c #0a5521",
"11 c #135325",
"11 c #29763b",
"11 c #c8eecf",
"11 c #028026",
"11 c #259f4b",
"11 c #2a8942",
"11 c #0a561e",
"11 c #155226",
"11 c #185027",
"11 c #28773b",
"11 c #c8eccf",
"11 c #07691e",
"11 c #238a3f",
"11 c #409a54",
"12 c #4ca35c",
"12 c #509f5e",
"12 c #1c592b",
"12 c #1f612f",
"12 c #1f5f2f",
"12 c #21552c",
"12 c #409251",
"12 c #d1f5d8",
"12 c #027f21",
"12 c #0e6e25",
"12 c #1d642f",
"12 c #205d2f",
"12 c #205e2f",
"12 c #21562d",
"12 c #4e9d5c",
"12 c #7bde8f",
"13 c #01801f",
"13 c #01841d",
"13 c #028626",
"13 c #298741",
"13 c #135021",
"13 c #1a5529",
"13 c #21562c",
"13 c #bad8c1",
"13 c #8ade99",
"13 c #62d983",
"13 c #4fd075",
"13 c #058720",
"13 c #01811e",
"13 c #028729",
"13 c #064819",
"13 c #155124",
"14 c #69c97e",
"14 c #d3f5da",
"14 c #e0f8e5",
"14 c #67db86",
"14 c #59d67a",
"14 c #4ab05e",
"14 c #42d171",
"14 c #01851d",
"14 c #035818",
"14 c #08531f",
"14 c #4baa67",
"14 c #81d490",
"14 c #5cca7c",
"14 c #5fd881",
"14 c #55d576",
"14 c #80dd91",
"15 c #66ae77",
"15 c #8bdf9a",
"15 c #279e4a",
"15 c #52d47a",
"15 c #028725",
"15 c #079132",
"15 c #047823",
"15 c #025916",
"15 c #09561c",
"15 c #39934d",
"15 c #4bae63",
"15 c #94e7a3",
"15 c #51b76e",
"15 c #50c075",
"15 c #53d478",
"15 c #2aa04c",
"16 c #79de8e",
"16 c #74de8e",
"16 c #30a350",
"16 c #28a34c",
"16 c #5ab774",
"16 c #047e27",
"16 c #2fa954",
"16 c #38a958",
"16 c #46a25b",
"16 c #3a9650",
"16 c #035918",
"16 c #64b87a",
"16 c #71db89",
"16 c #64da85",
"16 c #64da84",
"16 c #77de89",
"17 c #87d594",
"17 c #8edb9c",
"17 c #035815",
"17 c #7cde8e",
"17 c #84e095",
"17 c #17923d",
"17 c #3ba255",
"17 c #025715",
"17 c #106c29",
"17 c #1d6c31",
"17 c #2b7b3d",
"17 c #60bf7b",
"17 c #298c43",
"17 c #24a24a",
"17 c #48d174",
"17 c #39d06d",
"18 c #58c278",
"18 c #06671d",
"18 c #0c551e",
"18 c #ecfaef",
"18 c #88dd97",
"18 c #0b8f34",
"18 c #269748",
"18 c #3d9c53",
"18 c #43a058",
"18 c #055119",
"18 c #1d612e",
"18 c #1b582a",
"18 c #6c7f6f",
"18 c #66b17a",
"18 c #48ab5c",
"18 c #60cf7c",
"19 c #269e4a",
"19 c #4fc273",
"19 c #16682a",
"19 c #0d6323",
"19 c #1e6e32",
"19 c #85de96",
"19 c #32aa55",
"19 c #47a85c",
"19 c #56b775",
"19 c #0b7123",
"19 c #065118",
"19 c #1e5029",
"19 c #001301",
"19 c #2d653e",
"19 c #51a85e",
"19 c #259f4a",
"1a c #32a853",
"1a c #3d9d58",
"1a c #055919",
"1a c #105521",
"1a c #205d2e",
"1a c #a2e0ad",
"1a c #47a95c",
"1a c #46a55c",
"1a c #59b877",
"1a c #37964e",
"1a c #125023",
"1a c #001b04",
"1a c #355d3f",
"1a c #269a49",
"1a c #0c9035",
"1a c #2da952",
"1b c #277e3c",
"1b c #07571c",
"1b c #205f2f",
"1b c #0a4318",
"1b c #4cae5f",
"1b c #499857",
"1b c #60b275",
"1b c #469b56",
"1b c #002908",
"1b c #0b3b15",
"1b c #17903c",
"1b c #089132",
"1b c #269f4a",
"1b c #319f4f",
"1b c #25a049",
"1b c #277d3b",
"1c c #115223",
"1c c #0d4a1d",
"1c c #7bac84",
"1c c #fafdfb",
"1c c #62c57c",
"1c c #4aae5d",
"1c c #024817",
"1c c #0c4419",
"1c c #44a75a",
"1c c #31a853",
"1c c #5d9f66",
"1c c #6dab7b",
"1c c #077423",
"1c c #07621d",
"1c c #0b3d18",
"1c c #4aaf5e",
"1d c #65a06b",
"1d c #70a97c",
"1d c #32974c",
"1d c #177330",
"1d c #001d04",
"1d c #49ad5e",
"1d c #278942",
"1d c #619f69",
"1d c #389b50",
"1d c #01460f",
"1d c #2c6a38",
"1d c #4eb26d",
"1d c #439855",
"1d c #71ab7d",
"1d c #12752b",
"1d c #003f0e",
"1e c #bae8c2",
"1e c #50925d",
"00000000000000000000000000000000000000000000000000000000000000000000000000000000000000000000000000000000000000000000000000000000",
"00000000000000000000000000000000000000000000000000000000000000000000000000000000000000000000000000000000000000000000000000000000",
"00000000000000000000000000000000000000000000000000000000000000000000000000000000000000000000000000000000000000000000000000000000",
"00000000000000000000000000000000000000000000000000000000000000000000000000000000000000000000000000000000000000000000000000000000",
"00000000000000000000000000000000000000000000000000000000000000000000000000000000000000000000000000000000000000000000000000000000",
"00000000000000000000000000000000000000000000000000000000000000000000000000000000000000000000000000000000000000000000000000000000",
"00000000000000000000000000000000000000000000000000000000000000000000000000000000000000000000000000000000000000000000000000000000",
"00000000000000000000000000000000000000000000000000000000000000000000000000000000000000000000000000000000000000000000000000000000",
"00000000000000000000000000000000000000000000000000000000000000000000000000000000000000000000000000000000000000000000000000000000",
"00000000000000000000000000000000000000000000000000000000000000000000000000000000000000000000000000000000000000000000000000000000",
"00000000000000000000000000000000000000000000000000000000000000000000000000000000000000000000000000000000000000000000000000000000",
"00000000000000000000000000000000000000000000000000000102030000000000000000000000000000000000000000000000000000000000000000000000",
"00000000000000000000000000000000000000000000000000000405060000000007080900000000000000000000000000000000000000000000000000000000",
"000000000000000000000000000000000000000000000000000a0b0c0d0e0f101112131415161718000000000000000000000000000000000000000000000000",
"00000000000000000000000000000000000000000000000000191a1b1c1d1e1f2021222324252627000000000000000000000000000000000000000000000000",
"0000000000000000000000000000000000000000000000000028292a2b2c2d2e2f30313233343536000000000000000000000000000000000000000000000000",
"000000000000000000000000000000000000000000000000003738393a3b3c3d3e3f404142433544000000000000000000000000000000000000000000000000",
"0000000000000000000000000000000000000000000000000045464748494a4b4c3e484d4e4f5051000000000000000000000000000000000000000000000000",
"00000000000000000000000000000000000000000000000000522a48535455564c5758595a5b5c5d000000000000000000000000000000000000000000000000",
"000000000000000000000000000000000000000000000000005e5f4860616256636465666768696a000000000000000000000000000000000000000000000000",
"000000000000000000000000000000000000000000000000006b6c6d6e6f70487172737475767778000000000000000000000000000000000000000000000000",
"00000000000000000000000000000000000000000000000000797a7b7c7d7e7f8081828384858687000000000000000000000000000000000000000000000000",
"0000000000000000000000000000000000000000000000000088898a8b8c8d8e8f8e909192939487000000000000000000000000000000000000000000000000",
"0000000000000000000000000000000000000000000000000095968b8b979899999a9b9c9d9e9fa0000000000000000000000000000000000000000000000000",
"00000000000000000000000000000000000000000000000000a1a2a3a4a58e9a8e8ea6a7a8a93e87000000000000000000000000000000000000000000000000",
"00000000000000000000000000000000000000000000000000aaabacadaeafb0b1b2b3b4b5b6b7b8000000000000000000000000000000000000000000000000",
"0000000000000000000000000000000000000000000000000000b9babbbcbd22bebfc0c1c2c3c400000000000000000000000000000000000000000000000000",
"0000000000000000000000000000000000000000000000000000c5c62ac7c8c9cacbcccd26000000000000000000000000000000000000000000000000000000",
"0000000000000000000000000000000000000000000000000000cecfd02ad1d2d3d48bd5d6000000000000000000000000000000000000000000000000000000",
"0000000000000000000000000000000000000000000000000000d7d8d9dadadbdcdddedfe0000000000000000000000000000000000000000000000000000000",
"0000000000000000000000000000000000000000000000000000e1d81be2e3e4e5e6e7e8e9000000000000000000000000000000000000000000000000000000",
"0000000000000000000000000000000000000000000000000000eaebecedeeef67e8f0f1f2000000000000000000000000000000000000000000000000000000",
"0000000000000000000000000000000000000000000000000000f3f42aedf5a8f6f7f8f1f9000000000000000000000000000000000000000000000000000000",
"0000000000000000000000000000000000000000000000000000fafb2afcfd2e84feffe810000000000000000000000000000000000000000000000000000000",
"000000000000000000000000000000000000000000000000000010101010102e1010108c10000000000000000000000000000000000000000000000000000000",
"0000000000000000000000000000000000000000000000000000101010101010d311111111000000000000000000000000000000000000000000000000000000",
"00000000000000000000000000000000000000000000000000001111ed11321111e8111111000000000000000000000000000000000000000000000000000000",
"00000000000000000000000000000000000000000000000000001111111112121212121212000000000000000000000000000000000000000000000000000000",
"00000000000000000000000000000000000000000000000000001212d8d812128c12121212000000000000000000000000000000000000000000000000000000",
"0000000000000000000000000000000000000000000000000000122a13131313ff13131313000000000000000000000000000000000000000000000000000000",
"00000000000000000000000000000000000000000000000013131313131313a813c0131214141400000000000000000000000000000000000000000000000000",
"000000000000000000000000000000000000000000000014141414141314ebeb14ff141414141414140000000000000000000000000000000000000000000000",
"00000000000000000000000000000000000000000000141515151515131015151515151515151515151600000000000000000000000000000000000000000000",
"0000000000000000000000000000000000000000000016162a161616161616161616161616161717171700000000000000000000000000000000000000000000",
"0000000000000000000000000000000000000000000017172a6c17481717171f1717171717171818181800000000000000000000000000000000000000000000",
"000000000000000000000000000000000000000000001818181818181818ae181818181919161919190000000000000000000000000000000000000000000000",
"000000000000000000000000000000000000000000001919191919191919190019fc19101a1a1a1a1a0000000000000000000000000000000000000000000000",
"000000000000000000000000000000000000000000001a1a1a1a1a1a1a1a00001a1a2a2a1a1b1b1b1b0000000000000000000000000000000000000000000000",
"00000000000000000000000000000000000000000000001b1b1b1b1b1b0000001b1b1b1b1b1b1c1c1c0000000000000000000000000000000000000000000000",
"00000000000000000000000000000000000000000000001c1c1c1c1c000000001c1c1c1c1c1ccd1c000000000000000000000000000000000000000000000000",
"00000000000000000000000000000000000000000000000000000000000000001cd21d1d1d1d1d00000000000000000000000000000000000000000000000000",
"00000000000000000000000000000000000000000000000000000000000000001d1d1d1d1d1d1d00000000000000000000000000000000000000000000000000",
"0000000000000000000000000000000000000000000000000000000000000000001d1d1d1d1d0000000000000000000000000000000000000000000000000000",
"00000000000000000000000000000000000000000000000000000000000000000000001e1e000000000000000000000000000000000000000000000000000000",
"00000000000000000000000000000000000000000000000000000000000000000000000000000000000000000000000000000000000000000000000000000000",
"00000000000000000000000000000000000000000000000000000000000000000000000000000000000000000000000000000000000000000000000000000000",
"00000000000000000000000000000000000000000000000000000000000000000000000000000000000000000000000000000000000000000000000000000000",
"00000000000000000000000000000000000000000000000000000000000000000000000000000000000000000000000000000000000000000000000000000000",
"00000000000000000000000000000000000000000000000000000000000000000000000000000000000000000000000000000000000000000000000000000000",
"00000000000000000000000000000000000000000000000000000000000000000000000000000000000000000000000000000000000000000000000000000000",
"00000000000000000000000000000000000000000000000000000000000000000000000000000000000000000000000000000000000000000000000000000000",
"00000000000000000000000000000000000000000000000000000000000000000000000000000000000000000000000000000000000000000000000000000000",
"00000000000000000000000000000000000000000000000000000000000000000000000000000000000000000000000000000000000000000000000000000000",
"00000000000000000000000000000000000000000000000000000000000000000000000000000000000000000000000000000000000000000000000000000000",
};
