/* XPM */
static char *image[] = {
"64 64 326 2",
"00 c #ffffff",
"01 c #fbfefc",
"02 c #fcfefc",
"03 c #fafefb",
"04 c #fbfdfb",
"05 c #fcfefd",
"06 c #b2e8bc",
"07 c #99f6b7",
"08 c #8cf4b2",
"09 c #8ff6b2",
"0a c #94f7b3",
"0b c #9cf3b5",
"0c c #99f5b3",
"0d c #9af6b3",
"0e c #9ff6b6",
"0f c #aaf9bf",
"10 c #9df4b5",
"11 c #8aecad",
"12 c #d1f2d6",
"13 c #98f9b5",
"14 c #c2f1ca",
"15 c #cbe3cd",
"16 c #cfe3cf",
"17 c #cce2ce",
"18 c #cae4c8",
"19 c #cae2c9",
"1a c #cae1cb",
"1b c #d0e2d3",
"1c c #d4e3d2",
"1d c #d4e3d4",
"1e c #d4e5d8",
"1f c #d3e4d5",
"20 c #d3e3d6",
"21 c #9eebb2",
"22 c #d4eed9",
"23 c #cdf4d5",
"24 c #b9f2c5",
"25 c #cfe7d1",
"26 c #d1e2d4",
"27 c #cee1d3",
"28 c #d1e2d3",
"29 c #d5e4da",
"2a c #99f0b3",
"2b c #b6f6c5",
"2c c #d3ebd8",
"2d c #d5ead9",
"2e c #d4eada",
"2f c #d2e2d4",
"30 c #cee0d3",
"31 c #cde0d1",
"32 c #d0dfd3",
"33 c #d3e4d9",
"34 c #d5e2d5",
"35 c #d0ddd3",
"36 c #d9e2dc",
"37 c #98f1b1",
"38 c #d3ecda",
"39 c #dae9dc",
"3a c #d4e3d3",
"3b c #ccdecf",
"3c c #c9dbcb",
"3d c #d3e1d3",
"3e c #d2ded5",
"3f c #cedccf",
"40 c #dae1dc",
"41 c #a1f4b4",
"42 c #dbe9dd",
"43 c #d4e9da",
"44 c #d3e3d4",
"45 c #cddccf",
"46 c #cad8cc",
"47 c #d6e3d9",
"48 c #cad9cc",
"49 c #cbdacd",
"4a c #d7e3db",
"4b c #9ef6b6",
"4c c #b3f8c3",
"4d c #cbd9cd",
"4e c #d1dfd1",
"4f c #d1dfd5",
"50 c #d5e3da",
"51 c #94f9b4",
"52 c #d0e7d1",
"53 c #cee8d1",
"54 c #d4ebda",
"55 c #d7e3da",
"56 c #c9d7cb",
"57 c #cfddd1",
"58 c #d6e3da",
"59 c #9ef6b5",
"5a c #cdead1",
"5b c #d1e7d4",
"5c c #cedbd0",
"5d c #d0ded3",
"5e c #93f1ae",
"5f c #e7f2e8",
"60 c #8ef6b2",
"61 c #cee7d2",
"62 c #d4e9d9",
"63 c #d4e2d3",
"64 c #c7d8ca",
"65 c #c6d8c9",
"66 c #c8d8ca",
"67 c #cddcd0",
"68 c #92f2af",
"69 c #deeee0",
"6a c #d0e6d2",
"6b c #d3e5d1",
"6c c #c8d7ca",
"6d c #cddacf",
"6e c #d3e5da",
"6f c #e2ede0",
"70 c #8ef5b2",
"71 c #cfe5d4",
"72 c #d3e6d3",
"73 c #d3e8da",
"74 c #cfdcd1",
"75 c #d3e0d2",
"76 c #cedfd3",
"77 c #90f1af",
"78 c #e2fae8",
"79 c #93f7b2",
"7a c #b7f6c5",
"7b c #d2ecda",
"7c c #d4e6d9",
"7d c #ccdccf",
"7e c #a8ecb6",
"7f c #9ff6b4",
"80 c #adf6be",
"81 c #cce3cf",
"82 c #a9f5bb",
"83 c #d5e9da",
"84 c #d3e7da",
"85 c #d5e9d9",
"86 c #cfddd2",
"87 c #d5e2d2",
"88 c #8deaab",
"89 c #d0e3d3",
"8a c #a5f6b8",
"8b c #cee7d1",
"8c c #d3e4d2",
"8d c #d0e1d3",
"8e c #cdddd0",
"8f c #cadbcc",
"90 c #94f2ae",
"91 c #d7e4db",
"92 c #8ff1b0",
"93 c #cce3cd",
"94 c #cce3ce",
"95 c #cce0d3",
"96 c #cdddcf",
"97 c #c3e0c8",
"98 c #9af7b0",
"99 c #ddf2e1",
"9a c #97f9b4",
"9b c #cde2d3",
"9c c #cbe4cc",
"9d c #c9decb",
"9e c #acf7be",
"9f c #e6ebe8",
"a0 c #f0f9f2",
"a1 c #99f9b4",
"a2 c #cfe7d2",
"a3 c #d4e5d6",
"a4 c #ccddcf",
"a5 c #c9e0ca",
"a6 c #93f9b3",
"a7 c #cbebcf",
"a8 c #d4e6da",
"a9 c #c3e0c7",
"aa c #aef6bf",
"ab c #e1ece3",
"ac c #91f7b3",
"ad c #ccefd2",
"ae c #ccdcce",
"af c #c1e0c6",
"b0 c #a6f0b8",
"b1 c #d2e4d7",
"b2 c #8df3b1",
"b3 c #cff0d4",
"b4 c #c6ddca",
"b5 c #a0ebb3",
"b6 c #d9e2db",
"b7 c #8cf0b0",
"b8 c #d1ecd8",
"b9 c #cfded3",
"ba c #cedcd0",
"bb c #8cebac",
"bc c #d4e8da",
"bd c #cae3ca",
"be c #a2edb5",
"bf c #a1f4b5",
"c0 c #cfe7d3",
"c1 c #bfe8c8",
"c2 c #c3f3cb",
"c3 c #99f7b2",
"c4 c #cee5d2",
"c5 c #cae4c9",
"c6 c #c7f1d1",
"c7 c #f4fbf6",
"c8 c #a2f2b4",
"c9 c #b6f7c4",
"ca c #cde9d1",
"cb c #cde4cf",
"cc c #cce0d2",
"cd c #cfded2",
"ce c #cbe4ca",
"cf c #aff5bf",
"d0 c #f6fcf7",
"d1 c #d8e2db",
"d2 c #b0e9b9",
"d3 c #abf6bc",
"d4 c #cdf1d2",
"d5 c #d1ecd9",
"d6 c #cde9d0",
"d7 c #cbdfce",
"d8 c #dbf1e0",
"d9 c #d0efd6",
"da c #a0f4b5",
"db c #9cf6b0",
"dc c #d4ecd9",
"dd c #d1f6da",
"de c #c3f4cb",
"df c #cdf3d1",
"e0 c #d1edd7",
"e1 c #cbe0ce",
"e2 c #cfe1d3",
"e3 c #cfe6d2",
"e4 c #dcf1e1",
"e5 c #d0efd7",
"e6 c #cdf2d1",
"e7 c #d2f1d6",
"e8 c #b9f4c5",
"e9 c #baf2c5",
"ea c #c2f2cb",
"eb c #caecce",
"ec c #d2e8d9",
"ed c #dbf0df",
"ee c #dcf2e1",
"ef c #d4ebd9",
"f0 c #cff1d5",
"f1 c #bae2c0",
"f2 c #c7f3d1",
"f3 c #b9f5c5",
"f4 c #beeec7",
"f5 c #c4e9c8",
"f6 c #d4e5da",
"f7 c #c7e0c9",
"f8 c #b8e9c1",
"f9 c #d2f2d6",
"fa c #bbf4c6",
"fb c #c3eeca",
"fc c #c6eecd",
"fd c #d2e8d5",
"fe c #c9dfce",
"ff c #c5dec9",
"10 c #aee4b5",
"10 c #c3edcb",
"10 c #d1ebd6",
"10 c #d1edd8",
"10 c #d1e6d4",
"10 c #c4dfc8",
"10 c #b4ebbe",
"10 c #d4f1d9",
"10 c #afecbb",
"10 c #cbeecf",
"10 c #caeccf",
"10 c #d4e8d9",
"10 c #d1e5d2",
"10 c #c9deca",
"10 c #c4dec8",
"10 c #8ee4a8",
"11 c #cbeccf",
"11 c #d0ecd6",
"11 c #d3ebda",
"11 c #d7ebdb",
"11 c #cbe1ce",
"11 c #cce1ce",
"11 c #b8e2bf",
"11 c #c5eecd",
"11 c #99e8b0",
"11 c #ccebd0",
"11 c #c9dcca",
"11 c #8fe6a9",
"11 c #ecf6ec",
"11 c #b6f0c5",
"11 c #cee7d0",
"11 c #daf0df",
"12 c #cce2cd",
"12 c #a1e3af",
"12 c #d2efd9",
"12 c #caedce",
"12 c #b8efc3",
"12 c #cfe7d4",
"12 c #d5e8d7",
"12 c #cee1cd",
"12 c #b9e3c0",
"12 c #91ebac",
"12 c #b6f2c5",
"12 c #cce5ce",
"12 c #d3ebd9",
"12 c #d0ebd6",
"12 c #c3dfc8",
"12 c #8ee3a7",
"13 c #92f1af",
"13 c #aeeeba",
"13 c #a7f4b9",
"13 c #dce9de",
"13 c #d3e3d2",
"13 c #8fdca3",
"13 c #d5e9d8",
"13 c #d4e2d7",
"13 c #b5e4bd",
"13 c #caf9d5",
"13 c #94e6ab",
"13 c #b4e7c0",
"13 c #d2e4cf",
"13 c #d3e2d2",
"13 c #d2e2d1",
"13 c #95f1b0",
"14 c #cae9cb",
"14 c #9ef0b2",
"14 c #90daa2",
"14 c #8fe4a8",
"14 c #eaeeeb",
"14 c #e6eae7",
"00000000000000000000000000000000000000000000000000000000000000000000000000000000000000000000000000000000000000000000000000000000",
"00000000000000000000000000000000000000000000000000000000000000000000000000000000000000000000000000000000000000000000000000000000",
"00000000000000000000000000000000000000000000000000000000000000000000000000000000000000000000000000000000000000000000000000000000",
"00000000000000000000000000000000000000000000000000000000000000000000000000000000000000000000000000000000000000000000000000000000",
"00000000000000000000000000000000000000000000000000000000000000000000000000000000000000000000000000000000000000000000000000000000",
"00000000000000000000000000000000000000000000000000000000000000000000000000000000000000000000000000000000000000000000000000000000",
"00000000000000000000000000000000000000000000000000000000000000000000000000000000000000000000000000000000000000000000000000000000",
"00000000000000000000000000000000000000000000000000000000000000000000000000000000000000000000000000000000000000000000000000000000",
"00000000000000000000000000000000000000000000000000000000000000000000000000000000000000000000000000000000000000000000000000000000",
"00000000000000000000000000000000000000000000000000000000000000000000000000000000000000000000000000000000000000000000000000000000",
"00000000000000000000000000000000000000000000000000000000000000000000000000000000000000000000000000000000000000000000000000000000",
"00000000000000000000000000000000000000000000000000000000000000000000000000000000000000000000000000000000000000000000000000000000",
"00000000000000000000000000000000000000000000000000000000000000000000000000000000000000000000000000000000000000000000000000000000",
"00000000000000000000000000000000000000000000000000000000000000000000000000000000000000000000000000000000000000000000000000000000",
"00000000000000000000000000000000000000000000000000000000000102020203030304050200000000000000000000000000000000000000000000000000",
"00000000000000000000000000000000000000000000000000060708090a0b0c0d0e0f0f0f101011000000000000000000000000000000000000000000000000",
"00000000000000000000000000000000000000000000000012131415161718191a1b1c1d1e1f2021220000000000000000000000000000000000000000000000",
"0000000000000000000000000000000000000000000000002324252626271726272826262627292a000000000000000000000000000000000000000000000000",
"000000000000000000000000000000000000000000000000002b2c2d2e2f30313032333435323637000000000000000000000000000000000000000000000000",
"000000000000000000000000000000000000000000000000002b38392d3a323b3c353d3e3f3f4041000000000000000000000000000000000000000000000000",
"000000000000000000000000000000000000000000000000002b2d422d4344454635473548494a4b000000000000000000000000000000000000000000000000",
"000000000000000000000000000000000000000000000000004c2d2d2d2d1d3f4d35354e354f504b000000000000000000000000000000000000000000000000",
"000000000000000000000000000000000000000000000000005152532d5443295535563f57582959000000000000000000000000000000000000000000000000",
"00000000000000000000000000000000000000000000000000085a535b542d29474556565c5d295e5f0000000000000000000000000000000000000000000000",
"00000000000000000000000000000000000000000000000000605316612d62634564656656672968690000000000000000000000000000000000000000000000",
"00000000000000000000000000000000000000000000000000096a6b6a542d265656666c566d6e686f0000000000000000000000000000000000000000000000",
"000000000000000000000000000000000000000000000000007071722d38731d5656743575763b77000000000000000000000000000000000000000000000000",
"0000000000000000000000000000000000000000000000000078797a387b7c26677d55407e7f8000000000000000000000000000000000000000000000000000",
"00000000000000000000000000000000000000000000000000008182438384852630868788000000000000000000000000000000000000000000000000000000",
"0000000000000000000000000000000000000000000000000000898a8b6b6b8c8d308e8f90000000000000000000000000000000000000000000000000000000",
"0000000000000000000000000000000000000000000000000000919293179426953b969798000000000000000000000000000000000000000000000000000000",
"0000000000000000000000000000000000000000000000000000999a9b9c942696963b9d9e0000409f0000000000000000000000000000000000000000000000",
"0000000000000000000000000000000000000000000000000000a0a1a2a3626aa49696a59e0000409f0000000000000000000000000000000000000000000000",
"0000000000000000000000000000000000000000000000000000a0a6a7732da8958e96a9aa0000409f0000000000000000000000000000000000000000000000",
"0000000000000000000000000000000000000000000000000000abacad7343a8953baeafb0000000000000000000000000000000000000000000000000000000",
"0000000000000000000000000000000000000000000000000000b1b2b3a873a8953b8eb4b5000000000000000000000000000000000000000000000000000000",
"0000000000000000000000000000000000000000000000000000b6b7b884736a308eb9bab5000000000000000000000000000000000000000000000000000000",
"000000000000000000000000000000000000000000000000000040bbbc6e6e6e8e9535bdbe000000000000000000000000000000000000000000000000000000",
"000000000000000000000000000000000000000000000000000099bfc0266e6e303032c1c2000000000000000000000000000000000000000000000000000000",
"000000000000000000000000000000000000000000000000000099c3c4616a6e953030c5c6000000000000000000000000000000000000000000000000000000",
"00000000000000000000000000000000000000000000000000c7c8c9cacbca6195cccdcecfd000d1000000000000000000000000000000000000000000000000",
"000000000000000000000000000000000000000000000000d2d3d4d5d66153619530d7d8d94cdadbdc0000000000000000000000000000000000000000000000",
"0000000000000000000000000000000000000000000000dddedfe0386a615353e1e2e3e4e5dfe6e7e80000000000000000000000000000000000000000000000",
"0000000000000000000000000000000000000000000000e9eaeb25836aec5a5a94ed99eeefeef0f1f20000000000000000000000000000000000000000000000",
"0000000000000000000000000000000000000000000000f3f4f56bf6959526cb6199eeeeeeeff7f8f90000000000000000000000000000000000000000000000",
"0000000000000000000000000000000000000000000000fafbfcfd84fe8fff101010102d99101010100000000000000000000000000000000000000000000000",
"00000000000000000000000000000000000000000000001010101010106610107a11111111111111110000000000000000000000000000000000000000000000",
"000000000000000000000000000000000000000000000011b3112d871156111111ca11b811124512120000000000000000000000000000000000000000000000",
"00000000000000000000000000000000000000000000001212121212121200001212d51212a41210000000000000000000000000000000000000000000000000",
"00000000000000000000000000000000000000000000000003121313130000004c5a2d1313561302000000000000000000000000000000000000000000000000",
"00000000000000000000000000000000000000000000000000000000000000007a8b131313131300000000000000000000000000000000000000000000000000",
"00000000000000000000000000000000000000000000000000000000000000001313131313130000000000000000000000000000000000000000000000000000",
"00000000000000000000000000000000000000000000000000000000000000000014141414000000000000000000000000000000000000000000000000000000",
"00000000000000000000000000000000000000000000000000000000000000000000141400000000000000000000000000000000000000000000000000000000",
"00000000000000000000000000000000000000000000000000000000000000000000000000000000000000000000000000000000000000000000000000000000",
"00000000000000000000000000000000000000000000000000000000000000000000000000000000000000000000000000000000000000000000000000000000",
"00000000000000000000000000000000000000000000000000000000000000000000000000000000000000000000000000000000000000000000000000000000",
"00000000000000000000000000000000000000000000000000000000000000000000000000000000000000000000000000000000000000000000000000000000",
"00000000000000000000000000000000000000000000000000000000000000000000000000000000000000000000000000000000000000000000000000000000",
"00000000000000000000000000000000000000000000000000000000000000000000000000000000000000000000000000000000000000000000000000000000",
"00000000000000000000000000000000000000000000000000000000000000000000000000000000000000000000000000000000000000000000000000000000",
"00000000000000000000000000000000000000000000000000000000000000000000000000000000000000000000000000000000000000000000000000000000",
"00000000000000000000000000000000000000000000000000000000000000000000000000000000000000000000000000000000000000000000000000000000",
"00000000000000000000000000000000000000000000000000000000000000000000000000000000000000000000000000000000000000000000000000000000",
};
