/* XPM */
static char *_16485e3e219434e8e40f4ea311f5115ycUvZuk61PHzllx7[] = {
/* columns rows colors chars-per-pixel */
"16 16 93 2 ",
"   c #758333",
".  c #98B145",
"X  c #809038",
"o  c #5A672A",
"O  c #708535",
"+  c #9EAE41",
"@  c #969737",
"#  c #74722B",
"$  c #8C8E32",
"%  c #9CA23C",
"&  c #919839",
"*  c #8A9A3D",
"=  c #91A643",
"-  c #657030",
";  c #858F36",
":  c #D29A1E",
">  c #EE8D0B",
",  c #E68409",
"<  c #E7870A",
"1  c #C78B19",
"2  c #616828",
"3  c #828F38",
"4  c #8D8D34",
"5  c #DC9F21",
"6  c #FBA809",
"7  c #FFB305",
"8  c #F9A407",
"9  c #B87912",
"0  c #768533",
"q  c #F7A407",
"w  c #FFA803",
"e  c #FFA302",
"r  c #FFA303",
"t  c #FFA403",
"y  c #F7A306",
"u  c #C98B18",
"i  c #9CAF42",
"p  c #CD8F1A",
"a  c #F6A206",
"s  c #FF9C01",
"d  c #FF9700",
"f  c #FFA31C",
"g  c #FFAE37",
"h  c #FFA420",
"j  c #FAA708",
"k  c #E1AB29",
"l  c #B0BB4A",
"z  c #888D36",
"x  c #8A8E34",
"c  c #CF951D",
"v  c #FF9800",
"b  c #FF9E0E",
"n  c #FFAD35",
"m  c #FFB344",
"M  c #C28616",
"N  c #646927",
"B  c #83832E",
"V  c #FF9D0D",
"C  c #FFAD34",
"Z  c #EC8909",
"A  c #75722B",
"S  c #82832E",
"D  c #EE8F0C",
"F  c #EA890A",
"G  c #6A6A26",
"H  c #8E8E32",
"J  c #B5B845",
"K  c #F4950F",
"L  c #7E8330",
"P  c #CC901B",
"I  c #F8A306",
"U  c #FAA607",
"Y  c #FFAA03",
"T  c #F7A907",
"R  c #D39A1D",
"E  c #8F993A",
"W  c #8F993B",
"Q  c #BD7D15",
"!  c #F8A507",
"~  c #F8A907",
"^  c #C29117",
"/  c #95A540",
"(  c #6B712E",
")  c #C28617",
"_  c #F9A507",
"`  c #B87A12",
"'  c #859036",
"]  c #ED8B0A",
"[  c #E48208",
"{  c #C88B19",
"}  c #6C712E",
"|  c #8D8E32",
" . c #888F34",
/* pixels */
"  . X o O + @ # $ % & o O . * o ",
"  = X - ; : > , < > 1 2 O = * - ",
"3 = X 4 5 6 7 7 7 7 8 9 0 = * - ",
"3 . ; 9 q w e r t r w y u i = - ",
"3 i p a w s d f g h s w j k l z ",
"x c 8 w s d v b n m h s w 8 M N ",
"B > 7 e d v v v V C m h r 7 Z A ",
"S D 7 e d v v v d V n g t 7 F G ",
"H D 7 e d v v v v v b f r 7 F G ",
"J K 7 e d v v v v v v d e 7 Z A ",
"L P I w s d v v v v d s w U 1 N ",
"  i p a w s d d d d s Y T R E o ",
"3 . W Q ! w e e e e w ~ ^ / * o ",
"3 . X ( ) _ 7 7 7 7 I ` ' = * - ",
"  = X o 0 c ] [ < > { } X = X - ",
"  = * o O + | # $ %  .- O . X o "
};
