/* XPM */
static char *dd83e7e181fc4c18c7c7fc35207d2e314NT97nlIKRPoW4KS[] = {
/* columns rows colors chars-per-pixel */
"16 16 116 2 ",
"   c #758333",
".  c #98B145",
"X  c #809038",
"o  c #5A672A",
"O  c #222020",
"+  c #260F0B",
"@  c #2B100B",
"#  c #3B2520",
"$  c #91A643",
"%  c #8A9A3D",
"&  c #708535",
"*  c #373535",
"=  c #3C150D",
"-  c #C22B0C",
";  c #D92F0C",
":  c #C42D0E",
">  c #623B33",
",  c #657030",
"<  c #828F38",
"1  c #493730",
"2  c #A9260C",
"3  c #D42C0B",
"4  c #D72D0B",
"5  c #D42C0A",
"6  c #A9270C",
"7  c #483734",
"8  c #ACA991",
"9  c #523933",
"0  c #43281F",
"q  c #442920",
"w  c #40261D",
"e  c #2A130E",
"r  c #3A3531",
"t  c #D4BEA4",
"y  c #D5BB9E",
"u  c #D6BD9F",
"i  c #BEA88D",
"p  c #50483E",
"a  c #BEAA93",
"s  c #888D36",
"d  c #ADBE4D",
"f  c #B9DB5F",
"g  c #EFD4B6",
"h  c #F4D6B4",
"j  c #F4D9BA",
"k  c #F0D6B8",
"l  c #DEC6AB",
"z  c #EBD4BB",
"x  c #F2EBE4",
"c  c #F2EDE9",
"v  c #F1E5E1",
"b  c #EDE9E5",
"n  c #D3BDA3",
"m  c #D8C3A8",
"M  c #EFEEEB",
"N  c #F0EAEA",
"B  c #E5B4B4",
"V  c #EBE4E5",
"C  c #D4BCCE",
"Z  c #533733",
"A  c #573835",
"S  c #DDC1C0",
"D  c #F3D6D6",
"F  c #F0CBCB",
"G  c #EAD3D0",
"H  c #C0B7B6",
"J  c #C762A7",
"K  c #C1BABB",
"L  c #D52222",
"P  c #DA0C0D",
"I  c #F02525",
"U  c #F12C2C",
"Y  c #F12B2C",
"T  c #DE3D33",
"R  c #72B251",
"E  c #4BBF2E",
"W  c #59C74E",
"Q  c #D52323",
"!  c #D60A0A",
"~  c #D20D0D",
"^  c #C02020",
"/  c #C12622",
"(  c #D55238",
")  c #C4C19C",
"_  c #968133",
"`  c #44D12A",
"'  c #542323",
"]  c #420A0A",
"[  c #430D0D",
"{  c #3F0E10",
"}  c #562510",
"|  c #C9AB1A",
" . c #73C94E",
".. c #48D131",
"X. c #59CA4F",
"o. c #D5090A",
"O. c #D50A0B",
"+. c #D50A0A",
"@. c #DA0E0A",
"#. c #E83720",
"$. c #DA2723",
"%. c #F1240D",
"&. c #F12521",
"*. c #EC2020",
"=. c #DE110D",
"-. c #EC3823",
";. c #513922",
":. c #BA9F1B",
">. c #BEA28C",
",. c #51351F",
"<. c #BAA21F",
"1. c #262823",
"2. c #24260C",
"3. c #3C3E3A",
"4. c #272924",
"5. c #3C3C38",
/* pixels */
"  . X o O + @ # X $ % o & . % o ",
"  $ X * = - ; : > $ X o & $ % , ",
"< $ X 1 2 3 4 5 6 7 X o & $ % , ",
"< . X 8 9 0 q w e r X , X . $ , ",
"< . % o t y u i p a % s d f d s ",
"< $ % o g h j k l z % o   %   o ",
"  $ % , g j x c v b X o X $ < , ",
"  . % , n m M N B V < C X $ < o ",
"< . $ , Z A S D F G H J K $ X o ",
"d f d s L P I U Y T R E W . X , ",
"  %   o Q ! ~ ^ / ( ) _ ` . X o ",
"  . % o ' ] [ { } |  ...X.. % o ",
"< . % , Q o.O.+.@.#.d s & $ % o ",
"< . X , $.%.&.*.=.-.  o X $ % , ",
"  $ X o ;.:.>.o ,.<.< , X $ X , ",
"  $ % o 1.2.3., 4.2.5., & . X o "
};
