/* XPM */
static char *image[] = {
"64 64 245 2",
"00 c #716493",
"01 c #7059a9",
"02 c #6e49cd",
"03 c #79749d",
"04 c #716198",
"05 c #705e9f",
"06 c #3eddff",
"07 c #c1fffa",
"08 c #bef9f6",
"09 c #e3b765",
"0a c #6e4aca",
"0b c #33daff",
"0c c #57e3fe",
"0d c #82968a",
"0e c #966257",
"0f c #e7bb62",
"10 c #25565c",
"11 c #3d2310",
"12 c #35aec6",
"13 c #3a5e5c",
"14 c #387d85",
"15 c #4d383a",
"16 c #8d524e",
"17 c #a88c80",
"18 c #b3845d",
"19 c #6f52ba",
"1a c #3a524e",
"1b c #61506b",
"1c c #9a695b",
"1d c #bb8f82",
"1e c #1e1006",
"1f c #301b0c",
"20 c #35b4cd",
"21 c #4d3b45",
"22 c #8c81a3",
"23 c #b19188",
"24 c #c5a8a0",
"25 c #c5a89f",
"26 c #6e4cc5",
"27 c #6e618d",
"28 c #2d190b",
"29 c #271609",
"2a c #b4acba",
"2b c #d4cecd",
"2c c #d4cecc",
"2d c #472899",
"2e c #271a16",
"2f c #39210f",
"30 c #867a87",
"31 c #8b7f7e",
"32 c #e8bc61",
"33 c #4f2ea3",
"34 c #6945c7",
"35 c #623fbd",
"36 c #6f6290",
"37 c #331d0d",
"38 c #3e2413",
"39 c #aca3a1",
"3a c #a89e9c",
"3b c #48299a",
"3c c #706293",
"3d c #6c5e88",
"3e c #c5bebd",
"3f c #a79d9b",
"40 c #503598",
"41 c #5f5275",
"42 c #4b3534",
"43 c #9b9099",
"44 c #a79d9a",
"45 c #785588",
"46 c #645295",
"47 c #a48287",
"48 c #e7bb61",
"49 c #b5887b",
"4a c #7058ab",
"4b c #5e3bb7",
"4c c #5735ae",
"4d c #584196",
"4e c #b18376",
"4f c #b98e82",
"50 c #6e4cc7",
"51 c #5d3ab6",
"52 c #3b3377",
"53 c #463d7d",
"54 c #956862",
"55 c #b68a7d",
"56 c #6b5f90",
"57 c #5a38b2",
"58 c #716492",
"59 c #966960",
"5a c #97675b",
"5b c #251e53",
"5c c #6e49cc",
"5d c #2a235c",
"5e c #544984",
"5f c #29225a",
"60 c #706393",
"61 c #2b245d",
"62 c #4a417f",
"63 c #4f2fa5",
"64 c #5837b0",
"65 c #524883",
"66 c #665a8a",
"67 c #463c6e",
"68 c #312a67",
"69 c #412d88",
"6a c #6441c0",
"6b c #56367a",
"6c c #361e0d",
"6d c #2c1e35",
"6e c #31233e",
"6f c #574659",
"70 c #4e4475",
"71 c #393173",
"72 c #c7c4c4",
"73 c #5c4b64",
"74 c #2f2037",
"75 c #30285c",
"76 c #261f54",
"77 c #512c93",
"78 c #5f3e91",
"79 c #321c0c",
"7a c #624f62",
"7b c #70548c",
"7c c #6f1f73",
"7d c #a07a7a",
"7e c #6e4a3d",
"7f c #a5656b",
"80 c #544661",
"81 c #615479",
"82 c #261509",
"83 c #6d5f89",
"84 c #70518a",
"85 c #7c2681",
"86 c #904a6e",
"87 c #e0dfdf",
"88 c #704585",
"89 c #99369e",
"8a c #e5e4e4",
"8b c #5a4759",
"8c c #862c8b",
"8d c #8c8681",
"8e c #615477",
"8f c #261814",
"90 c #3d2311",
"91 c #381826",
"92 c #884a99",
"93 c #68597d",
"94 c #53514f",
"95 c #332a23",
"96 c #2b1218",
"97 c #775c95",
"98 c #706392",
"99 c #7f5497",
"9a c #49322e",
"9b c #5e5e5e",
"9c c #383357",
"9d c #661f6f",
"9e c #5b4e6f",
"9f c #281810",
"a0 c #85358e",
"a1 c #381e5b",
"a2 c #802885",
"a3 c #8f429b",
"a4 c #4e1e65",
"a5 c #3f367a",
"a6 c #765e94",
"a7 c #754282",
"a8 c #2f1a0b",
"a9 c #372a53",
"aa c #362d6c",
"ab c #4d1e64",
"ac c #864b99",
"ad c #5e1f6c",
"ae c #3e2b3f",
"af c #351e5a",
"b0 c #812985",
"b1 c #785b95",
"b2 c #621f6d",
"b3 c #2e2761",
"b4 c #2c180a",
"b5 c #3e3367",
"b6 c #3a3273",
"b7 c #913296",
"b8 c #785c95",
"b9 c #953b9d",
"ba c #6e1f73",
"bb c #302546",
"bc c #2a235b",
"bd c #451e61",
"be c #953a9d",
"bf c #2d1f3c",
"c0 c #685c8b",
"c1 c #342c69",
"c2 c #701f74",
"c3 c #431e26",
"c4 c #1f1319",
"c5 c #3b3273",
"c6 c #231a40",
"c7 c #311d18",
"c8 c #5e5383",
"c9 c #383070",
"ca c #371e5b",
"cb c #362e6d",
"cc c #4b4180",
"cd c #4a3d70",
"ce c #442f2d",
"cf c #3c251a",
"d0 c #321c0d",
"d1 c #615585",
"d2 c #5b4a62",
"d3 c #493f71",
"d4 c #5b5080",
"d5 c #544762",
"d6 c #2e1a0b",
"d7 c #6e608b",
"d8 c #695c8c",
"d9 c #322b67",
"da c #3d3477",
"db c #2b170a",
"dc c #5a495e",
"dd c #6b5c83",
"de c #402b25",
"df c #655679",
"e0 c #675779",
"e1 c #342c5f",
"e2 c #311b0b",
"e3 c #312326",
"e4 c #281a16",
"e5 c #231307",
"e6 c #62557a",
"e7 c #5e5173",
"e8 c #564455",
"e9 c #201106",
"ea c #48312c",
"eb c #504054",
"ec c #1f1106",
"ed c #47394b",
"ee c #36221a",
"ef c #382b33",
"f0 c #241408",
"f1 c #36282f",
"f2 c #2f2224",
"f3 c #361f0e",
"f4 c #533f48",
"00000000000000000000000000000000000000000000000000000000000000000000000000000000000000000000000000000000000000000000000000000000",
"00000000000000000000000000000000000000000000000000000000000000000000000000000000000000000000000000000000000000000000000000000000",
"00000000000000000000000000000000000000000000000000000000000000000000000000000000000000000000000000000000000000000000000000000000",
"00000000000000000000000000000000000000000000000000000000000000000000000000000000000000000000000000000000000000000000000000000000",
"00000000000000000000000000000000000000000000000000000000000000000000000000000000000000000000000000000000000000000000000000000000",
"00000000000000000000000000000000000000000000000000000000000000000000000000000000000000000000000000000000000000000000000000000000",
"00000000000000000000000000000000000000000000000000000000000000000000000000000000000000000000000000000000000000000000000000000000",
"00000000000000000000000000000000000000000000000000000000000000000000000000000000000000000000000000000000000000000000000000000000",
"00000000000000000000000000000000000000000000000000000000000000000000000000000000000000000000000000000000000000000000000000000000",
"00000000000000000000000000000000000000000000000000000000000000000000000000000000000000000000000000000000000000000000000000000000",
"00000000000000000000000000000000000000000000000000000000000000000000000000000000000000000000000000000000000000000000000000000000",
"00000000000000000000000000000000000000000000000000000000000001010100000000000000000000000000000000000000000000000000000000000000",
"00000000000000000000000000000000000000000000000000000000020202020202020000000000000000000000000000000000000000000000000000000000",
"00000000000000000003030000000000000000000000000000000402020202020202020500000000000000000000000000000000000000000000000000000000",
"0000000000000000000607080800000000000000000000000000090202020202020202020a000000000000000000000000000000000000000000000000000000",
"0000000000000000000b0b0c070d0000000000000000000000000e0f020202020202020202000000000000000000000000000000000000000000000000000000",
"00000000000000000010111213141500000000000000000000161718020202020202020202190000000000000000000000000000000000000000000000000000",
"00000000000000000011111a110b111b0000000000000000001c1d1d020202020202020202020000000000000000000000000000000000000000000000000000",
"0000000000000000001e1f1111201121000000000000000022232425020202020202020202022600000000000000000000000000000000000000000000000000",
"000000000000000000271e1e1e28112900000000000000002a2b2b2c2d0202020202020202020202000000000000000000000000000000000000000000000000",
"0000000000000000000000002e1e2f29000000000000000030312b2b32333402020202020234352d000000000000000000000000000000000000000000000000",
"00000000000000000000000000361e3738000000000000002b2b393a322d2d3b3b3b3b3b3b2d2d3c000000000000000000000000000000000000000000000000",
"0000000000000000000000000000001e113d0000000000003e2b3f3f322d2d2d2d2d2d2d2d2d4000000000000000000000000000000000000000000000000000",
"000000000000000000000000000000411e42000000000000433f3f44452d2d2d2d2d2d2d2d460000000000000000000000000000000000000000000000000000",
"000000000000000000000000000000471d1d000000000000000000482d0202022d2d2d2d2d000000000000000000000000000000000000000000000000000000",
"00000000000000000000000000001c491d1d0000000000000000004a020202024b02024c4d000000000000000000000000000000000000000000000000000000",
"00000000000000000000000000001c4e1d1d4f000000000000005002020202512d02020252525300000000000000000000000000000000000000000000000000",
"000000000000000000000000000000541c551d525600000000000202020202572d02020202525200000000000000000000000000000000000000000000000000",
"0000000000000000000000000000000058595a5b520000000000020202022d2d5c020202025b5252000000000000000000000000000000000000000000000000",
"0000000000000000000000000000000000005a5b5d525e000002020202022d2d02020202025b5f52000000000000000000000000000000000000000000000000",
"000000000000000000000000000000000000605b5b5b61526202020202632d640202020202025b52650000000000000000000000000000000000000000000000",
"00000000000000000000000000000000000000005b5b5b5b52522d2d022d2d020202020202025b5b650000000000000000000000000000000000000000000000",
"000000000000000000000000000000000000000066675b5b5b68692d2d2d2d6a02026b6c6c6c6c6d6e6f00000000000000000000000000000000000000000000",
"00000000000000000000000000000000000000000000705b5b5b715b2d2d2d2d2d026c726c6c6c6c6c6c73000000000000000000000000000000000000000000",
"00000000000000000000000000000000000000000000001e7475765b2d77782d2d2d6c726c1e1e1e79797a000000000000000000000000000000000000000000",
"00000000000000000000000000000000000000000000000037000000007b7c7d2d2d6c726c1e1e1e1e1e7e000000000000000000000000000000000000000000",
"0000000000000000000000000000000000000000000000001e11000000007c7f2d2d6c726c1e1e1e1e1e80000000000000000000000000000000000000000000",
"000000000000000000000000000000000000000000000000818283000000848586866c876c1e1e1e1e1e80000000000000000000000000000000000000000000",
"000000000000000000000000000000000000000000000000001e11000000008889896c8a6c1e1e1e1e1e80000000000000000000000000000000000000000000",
"0000000000000000000000000000000000000000000000000000288b000000888c896c8d6c1e1e1e1e1e8e000000000000000000000000000000000000000000",
"00000000000000000000000000000000000000000000000000008f90000000007c891e1e1e1e9189920000000000000000000000000000000000000000000000",
"0000000000000000000000000000000000000000000000000000001e9300000094951e1e96898989899700000000000000000000000000000000000000000000",
"00000000000000000000000000000000000000000000000000000098110000001e951e7c7c898989898999000000000000000000000000000000000000000000",
"000000000000000000000000000000000000000000000000000000001e9a00009b9c5b9d7c898989898989000000000000000000000000000000000000000000",
"000000000000000000000000000000000000000000000000000000009e9f00a0a15b5b5ba17ca289898989a30000000000000000000000000000000000000000",
"00000000000000000000000000000000000000000000000000000000001e11a4a55b5b5b5b7c7c8989898989a600000000000000000000000000000000000000",
"0000000000000000000000000000000000000000000000000000000000a7a8a9a5aa5b5b5bab7c7c89898989ac00000000000000000000000000000000000000",
"0000000000000000000000000000000000000000000000000000000089ad1eaea5a55b5b5ba5af7cb08989898989000000000000000000000000000000000000",
"000000000000000000000000000000000000000000000000000000b1b2b3a5b4b55b5b5b5bb6b6b27cb789898989b80000000000000000000000000000000000",
"0000000000000000000000000000000000000000000000000000b9baa5a5a5bb115b5b5b5b5bbca5bd7c7c7c897c000000000000000000000000000000000000",
"0000000000000000000000000000000000000000000000000000bebaa5a5a55b11bf5bc0005b5ba5c17c7c7c7c5b000000000000000000000000000000000000",
"0000000000000000000000000000000000000000000000000000c2c3c4c55b5bc6c7c80000c85b5bc1c9cacacbc9cccdcece0000000000000000000000000000",
"0000000000000000000000000000000000000000000000000000cf6c1e5b5b5b00d011000000d15b5b5ba5a5a5a5a56c6c6c6cd2000000000000000000000000",
"00000000000000000000000000000000000000000000000000006c6c1e1ed3d400d5d6d70000d85b5b5b5bd9daa51edbdbdb6c6c6c6c6c6cdc00000000000000",
"00000000000000000000000000000000000000000000000000006c6c1e1e000000001edd000000005b5b5b5b5b5b5b1e1e1e1e1e1e796c6cde00000000000000",
"00000000000000000000000000000000000000000000000000df6c6c1e1e00000000002fe00000000000e1e15b5b5b1e1e1e1e1e1e1e1ee2de00000000000000",
"000000000000000000000000000000000000000000000000006c6c6c1ee30000000000e4110000000000000000005b1e1e1e1e1e1e001e1e1e00000000000000",
"000000000000000000000000000000000000000000000000006c6c6c1ee30000000000001e0000000000000000000000000000000000001e1e00000000000000",
"000000000000000000000000000000000000000000000000006c6ce51ee6000000000000e79a000000000000000000000000000000000000e700000000000000",
"00000000000000000000000000000000000000000000e86c6c6ce91e1e000000000000000011ea00000000000000000000000000000000000000000000000000",
"00000000000000000000000000000000000000000000eb1e1e1eec1e1e0000000000000000edee00000000000000000000000000000000000000000000000000",
"000000000000000000000000000000000000000000000000ef1e1e1e00000000000000000000f000000000000000000000000000000000000000000000000000",
"0000000000000000000000000000000000000000000000000000f1f20000000000000000000041f3dd0000000000000000000000000000000000000000000000",
"0000000000000000000000000000000000000000000000000000000000000000000000000000001ef40000000000000000000000000000000000000000000000",
};
