/* XPM */
static char *image[] = {
"64 64 229 2",
"00 c #716493",
"01 c #c1fffa",
"02 c #33daff",
"03 c #b2fbfa",
"04 c #79749d",
"05 c #716392",
"06 c #716394",
"07 c #716199",
"08 c #378691",
"09 c #3c2a19",
"0a c #39dbff",
"0b c #6c5e88",
"0c c #6e4aca",
"0d c #6e4acb",
"0e c #6e49cd",
"0f c #1e1006",
"10 c #38838d",
"11 c #3a5b59",
"12 c #3d2310",
"13 c #3c3324",
"14 c #6e4cc7",
"15 c #281609",
"16 c #321c0c",
"17 c #3c3527",
"18 c #3c3224",
"19 c #29180c",
"1a c #c2a071",
"1b c #7651c5",
"1c c #6f51bd",
"1d c #6f52ba",
"1e c #712334",
"1f c #e0b460",
"20 c #3f313e",
"21 c #281a17",
"22 c #3c2210",
"23 c #3c2310",
"24 c #7c4b5d",
"25 c #a4b5a5",
"26 c #c89c65",
"27 c #9e76a2",
"28 c #705ba5",
"29 c #8d676d",
"2a c #bb8f82",
"2b c #e7bb62",
"2c c #6f4fc1",
"2d c #2e2021",
"2e c #1f1006",
"2f c #6c5e87",
"30 c #957378",
"31 c #be968b",
"32 c #6e4ec2",
"33 c #6d608c",
"34 c #493330",
"35 c #d4cecd",
"36 c #e7bb61",
"37 c #48299a",
"38 c #817573",
"39 c #d4cecc",
"3a c #472899",
"3b c #8d676c",
"3c c #a48287",
"3d c #b5acaa",
"3e c #a79d9a",
"3f c #623fbd",
"40 c #5332a9",
"41 c #48299b",
"42 c #503598",
"43 c #9b6a5c",
"44 c #55414c",
"45 c #a79d9b",
"46 c #896772",
"47 c #ad7f72",
"48 c #b18376",
"49 c #443031",
"4a c #918598",
"4b c #8f7ab0",
"4c c #5d3ab6",
"4d c #9a695b",
"4e c #2c190a",
"4f c #966860",
"50 c #664b67",
"51 c #6a5d8f",
"52 c #5a38b2",
"53 c #4c2ca0",
"54 c #4c2f99",
"55 c #261f53",
"56 c #251e53",
"57 c #3b3377",
"58 c #60548a",
"59 c #6e49cc",
"5a c #71619a",
"5b c #5f548a",
"5c c #675b8a",
"5d c #3e3081",
"5e c #5231a8",
"5f c #5232a8",
"60 c #342c6b",
"61 c #462996",
"62 c #6541c1",
"63 c #5837b0",
"64 c #2f285c",
"65 c #312a67",
"66 c #3d3467",
"67 c #393173",
"68 c #361e0d",
"69 c #453b6e",
"6a c #362e6e",
"6b c #6844c5",
"6c c #4b3728",
"6d c #6e608c",
"6e c #c7c4c4",
"6f c #5c4b64",
"70 c #261e53",
"71 c #201207",
"72 c #402530",
"73 c #613ebb",
"74 c #544661",
"75 c #3a3164",
"76 c #2e2166",
"77 c #332a58",
"78 c #2d190b",
"79 c #bc9370",
"7a c #3e2211",
"7b c #a07a7a",
"7c c #594e86",
"7d c #322a5e",
"7e c #2e2661",
"7f c #534983",
"80 c #675a81",
"81 c #301a0c",
"82 c #814757",
"83 c #b27669",
"84 c #e7e7e7",
"85 c #584d86",
"86 c #3e2311",
"87 c #99369e",
"88 c #e5e4e4",
"89 c #b6897b",
"8a c #2f2763",
"8b c #443b7b",
"8c c #6c6091",
"8d c #321915",
"8e c #8a3387",
"8f c #462225",
"90 c #201109",
"91 c #21130b",
"92 c #2c1e1d",
"93 c #736592",
"94 c #b38678",
"95 c #4c3f54",
"96 c #1f1108",
"97 c #471d39",
"98 c #6f1f73",
"99 c #726492",
"9a c #69617b",
"9b c #1f1107",
"9c c #423870",
"9d c #231b40",
"9e c #331d0e",
"9f c #5a1b57",
"a0 c #6c1f70",
"a1 c #3f367a",
"a2 c #481d3a",
"a3 c #3e2412",
"a4 c #742278",
"a5 c #544984",
"a6 c #2d255f",
"a7 c #46214f",
"a8 c #301b0d",
"a9 c #6f2070",
"aa c #70528a",
"ab c #703c81",
"ac c #685b8e",
"ad c #3c2012",
"ae c #661f61",
"af c #703d81",
"b0 c #393071",
"b1 c #281214",
"b2 c #443a7c",
"b3 c #4b4180",
"b4 c #842a88",
"b5 c #5c1b59",
"b6 c #4f4582",
"b7 c #7d2781",
"b8 c #482326",
"b9 c #241a36",
"ba c #22172e",
"bb c #481e62",
"bc c #76237b",
"bd c #45183a",
"be c #381c18",
"bf c #251409",
"c0 c #3c220f",
"c1 c #4f3c46",
"c2 c #41356d",
"c3 c #6f2c79",
"c4 c #651f6f",
"c5 c #601f6d",
"c6 c #241b44",
"c7 c #2e190b",
"c8 c #361f0d",
"c9 c #655679",
"ca c #312326",
"cb c #8b2e8f",
"cc c #2f1a0b",
"cd c #2b180a",
"ce c #331c0c",
"cf c #412c27",
"d0 c #311b0b",
"d1 c #6f317b",
"d2 c #7f318d",
"d3 c #1e1008",
"d4 c #211207",
"d5 c #5e5173",
"d6 c #261914",
"d7 c #231307",
"d8 c #3c251b",
"d9 c #2f2224",
"da c #5f4d65",
"db c #564456",
"dc c #271509",
"dd c #483b4d",
"de c #47394b",
"df c #493539",
"e0 c #2e2022",
"e1 c #706392",
"e2 c #301b0b",
"e3 c #46394b",
"e4 c #48312c",
"00000000000000000000000000000000000000000000000000000000000000000000000000000000000000000000000000000000000000000000000000000000",
"00000000000000000000000000000000000000000000000000000000000000000000000000000000000000000000000000000000000000000000000000000000",
"00000000000000000000000000000000000000000000000000000000000000000000000000000000000000000000000000000000000000000000000000000000",
"00000000000000000000000000000000000000000000000000000000000000000000000000000000000000000000000000000000000000000000000000000000",
"00000000000000000000000000000000000000000000000000000000000000000000000000000000000000000000000000000000000000000000000000000000",
"00000000000000000000000000000000000000000000000000000000000000000000000000000000000000000000000000000000000000000000000000000000",
"00000000000000000000000000000000000000000000000000000000000000000000000000000000000000000000000000000000000000000000000000000000",
"00000000000000000000000000000000000000000000000000000000000000000000000000000000000000000000000000000000000000000000000000000000",
"00000000000000000000000000000000000000000000000000000000000000000000000000000000000000000000000000000000000000000000000000000000",
"00000000000000000000000000000000000000000000000000000000000000000000000000000000000000000000000000000000000000000000000000000000",
"00000000000000000000000000000000000000000000000000000000000000000000000000000000000000000000000000000000000000000000000000000000",
"00000000000000000000000000000000000000000000000000000000000000000000000000000000000000000000000000000000000000000000000000000000",
"00000000000000000000000001010000000000000000000000000000000000000000000000000000000000000000000000000000000000000000000000000000",
"00000000000000000000000002030301040500000000000000000000000607070000000000000000000000000000000000000000000000000000000000000000",
"0000000000000000000000000208090a0a0b000000000000000000000c0d0e0e0c0c000000000000000000000000000000000000000000000000000000000000",
"0000000000000000000000000f10021112130000000000000000140e0e0e0e0e0e0e0e0000000000000000000000000000000000000000000000000000000000",
"000000000000000000000000151612170218190000000000001a1b0e0e0e0e0e0e0e0e1c1d000000000000000000000000000000000000000000000000000000",
"0000000000000000000000000f0f12121213120000000000001e1f0e0e0e0e0e0e0e0e0e0e000000000000000000000000000000000000000000000000000000",
"000000000000000000000000002020210f22230000000000242526270e0e0e0e0e0e0e0e0e0e2800000000000000000000000000000000000000000000000000",
"000000000000000000000000000000000f0f220000000000292a2a2b0e0e0e0e0e0e0e0e0e0e2c00000000000000000000000000000000000000000000000000",
"00000000000000000000000000000000002d2e122f0000003031312b0e0e0e0e0e0e0e0e0e0e3200000000000000000000000000000000000000000000000000",
"000000000000000000000000000000000000332e34000000353535360e0e0e0e0e0e0e0e0e0e3700000000000000000000000000000000000000000000000000",
"000000000000000000000000000000000000000f12000000383535393a0e0e0e0e0e0e0e0e3a3a00000000000000000000000000000000000000000000000000",
"0000000000000000000000000000000000003b2a2a3c003535353d3e3f0e0e0e404040413a3a4200000000000000000000000000000000000000000000000000",
"000000000000000000000000000000000000432a2a2a44453545453e0e0e0e0e3a3a3a3a3a000000000000000000000000000000000000000000000000000000",
"0000000000000000000000000000000000004647482a494a4545454b0e0e0e4c3a3a3a3a3a000000000000000000000000000000000000000000000000000000",
"00000000000000000000000000000000000000004d2a4e000000140e0e0e0e4c3a3a3a3a3a000000000000000000000000000000000000000000000000000000",
"00000000000000000000000000000000000000004f4d505100000e0e0e0e0e523a0e535400000000000000000000000000000000000000000000000000000000",
"00000000000000000000000000000000000000000055565758590e0e0e0e0e3a590e0e5a00000000000000000000000000000000000000000000000000000000",
"0000000000000000000000000000000000000000000056575b0e0e0e0e0e0e3a0e0e0e0e00000000000000000000000000000000000000000000000000000000",
"000000000000000000000000000000000000000000005c56575d5e5f0e0e3a400e0e0e0e0e000000000000000000000000000000000000000000000000000000",
"0000000000000000000000000000000000000000000000566057613a0e623a630e0e0e0e0e000000000000000000000000000000000000000000000000000000",
"0000000000000000000000000000000000000000000000006465573a3a3a3a0e0e0e0e0e0e000000000000000000000000000000000000000000000000000000",
"000000000000000000000000000000000000000000000000665667573a3a0e0e0e0e0e6868686800000000000000000000000000000000000000000000000000",
"00000000000000000000000000000000000000000000000069566a573a3a6b0e0e0e686c6868686868686d000000000000000000000000000000000000000000",
"000000000000000000000000000000000000000000000000000056563a3a3a3a0e0e686e680f0f0f68686f000000000000000000000000000000000000000000",
"0000000000000000000000000000000000000000000000000000567071723a3a3a73686e680f0f0f0f0f74000000000000000000000000000000000000000000",
"000000000000000000000000000000000000000000000000007556767778793a3a3a686e680f0f0f0f0f74000000000000000000000000000000000000000000",
"00000000000000000000000000000000000000000000000000565656000f7a7b3a3a686e680f0f0f0f0f74000000000000000000000000000000000000000000",
"00000000000000000000000000000000000000000000007c7d567e577f80818283836884680f0f0f0f0f74000000000000000000000000000000000000000000",
"0000000000000000000000000000000000000000000085565657575700000f8687876888680f0f0f0f0f74000000000000000000000000000000000000000000",
"000000000000000000000000000000000000002a892a8a56568b8c000000008d8e878f90160f9192929200000000000000000000000000000000000000000000",
"000000000000000000000000000000000000932a944d4d00000000000000009596970f0f0f0f9800000000000000000000000000000000000000000000000000",
"000000000000000000000000000000000000992a4d4d0000000000000000009a9b150f0f0f989800000000000000000000000000000000000000000000000000",
"000000000000000000000000000000000000000000000000000000000000009c9d9e9fa098989898000000000000000000000000000000000000000000000000",
"000000000000000000000000000000000000000000000000000000000000a1a156a2a3a498989898000000000000000000000000000000000000000000000000",
"0000000000000000000000000000000000000000000000000000000000a5a1a656a7a8a998989898aa0000000000000000000000000000000000000000000000",
"00000000000000000000000000000000000000000000000000000000a1a1a1565687967a98989898ab0000000000000000000000000000000000000000000000",
"000000000000000000000000000000000000000000000000000000aca1a15656568787adae989898af0000000000000000000000000000000000000000000000",
"000000000000000000000000000000000000000000000000000000a1a1b05656568787b17a989898000000000000000000000000000000000000000000000000",
"0000000000000000000000000000000000000000000000000000b2a1a1565656568798989b989898000000000000000000000000000000000000000000000000",
"00000000000000000000000000000000000000000000000000b3a1a15656565656b49898b57a9898000000000000000000000000000000000000000000000000",
"000000000000000000000000000000000000000000000000b6a1a1565656565687b79898989bb800000000000000000000000000000000000000000000000000",
"000000000000000000000000000000000000000000000000a1a1b9ba565656bb87bc989898bdbe00000000000000000000000000000000000000000000000000",
"000000000000000000000000000000000000000000000000a1a168680f560098989898989856bfc0c10000000000000000000000000000000000000000000000",
"000000000000000000000000000000000000000000000000c26868680f000000c3c4c5c556c6c7c8686868686868c90000000000000000000000000000000000",
"000000000000000000000000000000000000000000000000006868680fca000000cb5656560f0f0fcc6868686868680000000000000000000000000000000000",
"000000000000000000000000000000000000000000000000006868680fca0000009856560f0f0f0fcd0f0f0fce6868cf00000000000000000000000000000000",
"00000000000000000000000000000000000000000000000000006868d00f000000d1d2d30f0f0f0fd4c0d5d5d60fd7cf00000000000000000000000000000000",
"0000000000000000000000000000000000000000000000000000d868680f0000000000210f0fd900000fda0000000f2d00000000000000000000000000000000",
"0000000000000000000000000000000000000000000000000000db6868dcdd00000000000000000000dedf0000000fe000000000000000000000000000000000",
"000000000000000000000000000000000000000000000000000000e168e20f00000000000000000000000f120000000000000000000000000000000000000000",
"00000000000000000000000000000000000000000000000000000068680f0f0000000000000000000000e3e40000000000000000000000000000000000000000",
"000000000000000000000000000000000000000000000000000068680f0f00000000000000000000000000000000000000000000000000000000000000000000",
};
