/* XPM */
static char *image[] = {
"64 64 242 2",
"00 c #716493",
"01 c #c1fffa",
"02 c #70eafd",
"03 c #b2fbfa",
"04 c #bcfefa",
"05 c #6d5f88",
"06 c #716394",
"07 c #716199",
"08 c #33daff",
"09 c #3c2a19",
"0a c #3aa5b9",
"0b c #39dbff",
"0c c #3d3324",
"0d c #6e4aca",
"0e c #6e4acb",
"0f c #6e49cd",
"10 c #28707d",
"11 c #3d2310",
"12 c #34caea",
"13 c #3e2413",
"14 c #6e4cc7",
"15 c #281609",
"16 c #3b4c45",
"17 c #3c2210",
"18 c #c2a071",
"19 c #7651c5",
"1a c #6f51bd",
"1b c #6f52ba",
"1c c #1e1006",
"1d c #712334",
"1e c #e0b460",
"1f c #594c6b",
"20 c #3f313e",
"21 c #2f1a0b",
"22 c #7c4b5d",
"23 c #a4b5a5",
"24 c #c89c65",
"25 c #9e76a2",
"26 c #705ba5",
"27 c #1f1006",
"28 c #8d676d",
"29 c #bb8f82",
"2a c #e7bb62",
"2b c #6f4fc1",
"2c c #271916",
"2d c #39210f",
"2e c #48312c",
"2f c #957378",
"30 c #be968b",
"31 c #6e4ec2",
"32 c #261508",
"33 c #d4cecd",
"34 c #e7bb61",
"35 c #48299a",
"36 c #251408",
"37 c #817573",
"38 c #d4cecc",
"39 c #472899",
"3a c #716492",
"3b c #8d676c",
"3c c #8d748d",
"3d c #b5acaa",
"3e c #a79d9a",
"3f c #623fbd",
"40 c #5332a9",
"41 c #48299b",
"42 c #503598",
"43 c #726492",
"44 c #815d4d",
"45 c #a79d9b",
"46 c #9a695b",
"47 c #ad7f72",
"48 c #7b594b",
"49 c #7b6a61",
"4a c #8f7ab0",
"4b c #5d3ab6",
"4c c #7b6585",
"4d c #735449",
"4e c #7a6587",
"4f c #93645a",
"50 c #3b3377",
"51 c #6e6292",
"52 c #5a38b2",
"53 c #4c2ca0",
"54 c #4c2f99",
"55 c #251e53",
"56 c #71619a",
"57 c #4e4475",
"58 c #6a46c8",
"59 c #5b5080",
"5a c #342c6b",
"5b c #462996",
"5c c #53497a",
"5d c #3a3275",
"5e c #5837b0",
"5f c #30285c",
"60 c #383072",
"61 c #6642b0",
"62 c #361e0d",
"63 c #68597f",
"64 c #281f5a",
"65 c #c7c4c4",
"66 c #5c4b64",
"67 c #e8bc61",
"68 c #26150a",
"69 c #613ebb",
"6a c #3a3164",
"6b c #2e2166",
"6c c #492d76",
"6d c #4e1a44",
"6e c #3f2511",
"6f c #544661",
"70 c #5e5173",
"71 c #1f1107",
"72 c #43264d",
"73 c #594e86",
"74 c #322a5e",
"75 c #2e2661",
"76 c #534983",
"77 c #715b8f",
"78 c #421737",
"79 c #604422",
"7a c #b27669",
"7b c #d6d4d4",
"7c c #584d86",
"7d c #2d190c",
"7e c #3e2412",
"7f c #99369e",
"80 c #e5e4e4",
"81 c #b6897b",
"82 c #2f2763",
"83 c #443b7b",
"84 c #6c6091",
"85 c #511a4b",
"86 c #392110",
"87 c #943596",
"88 c #c4c2c0",
"89 c #594b69",
"8a c #736592",
"8b c #b38678",
"8c c #704585",
"8d c #1f1108",
"8e c #1e1007",
"8f c #6f1f73",
"90 c #69617b",
"91 c #3f367a",
"92 c #321c0c",
"93 c #685c8f",
"94 c #4c4280",
"95 c #423870",
"96 c #823695",
"97 c #321422",
"98 c #3d2210",
"99 c #6c1f70",
"9a c #583071",
"9b c #706393",
"9c c #332b68",
"9d c #692068",
"9e c #4f1e65",
"9f c #61558b",
"a0 c #5a4f87",
"a1 c #3c3376",
"a2 c #57224d",
"a3 c #53203f",
"a4 c #412364",
"a5 c #695c8f",
"a6 c #3f3679",
"a7 c #3a2010",
"a8 c #3e2211",
"a9 c #5f548a",
"aa c #685c8e",
"ab c #554a85",
"ac c #3a3273",
"ad c #272056",
"ae c #582974",
"af c #351525",
"b0 c #662374",
"b1 c #5a4e87",
"b2 c #65598d",
"b3 c #7d2781",
"b4 c #4b4180",
"b5 c #362e6c",
"b6 c #3f2364",
"b7 c #79247d",
"b8 c #261509",
"b9 c #3a2221",
"ba c #706392",
"bb c #862c8b",
"bc c #251409",
"bd c #493f71",
"be c #6d6090",
"bf c #852b89",
"c0 c #241825",
"c1 c #302033",
"c2 c #3a2b46",
"c3 c #554353",
"c4 c #6f6290",
"c5 c #211629",
"c6 c #594e7e",
"c7 c #70548c",
"c8 c #7f2e7e",
"c9 c #3c2211",
"ca c #3e2c3e",
"cb c #392633",
"cc c #706290",
"cd c #311b0b",
"ce c #241b44",
"cf c #6f2c79",
"d0 c #78247c",
"d1 c #201316",
"d2 c #3a2734",
"d3 c #291d2f",
"d4 c #70558c",
"d5 c #2b180b",
"d6 c #64265d",
"d7 c #301b0b",
"d8 c #3c2e38",
"d9 c #7b287c",
"da c #251509",
"db c #5f4d65",
"dc c #564864",
"dd c #625579",
"de c #36282e",
"df c #65587e",
"e0 c #443747",
"e1 c #704685",
"e2 c #3c2f3a",
"e3 c #64577e",
"e4 c #271508",
"e5 c #47394b",
"e6 c #5a4d6c",
"e7 c #362522",
"e8 c #574452",
"e9 c #6b5d88",
"ea c #3b2e38",
"eb c #6a5b82",
"ec c #645576",
"ed c #311b0c",
"ee c #2f2224",
"ef c #6b5d85",
"f0 c #201106",
"f1 c #322428",
"00000000000000000000000000000000000000000000000000000000000000000000000000000000000000000000000000000000000000000000000000000000",
"00000000000000000000000000000000000000000000000000000000000000000000000000000000000000000000000000000000000000000000000000000000",
"00000000000000000000000000000000000000000000000000000000000000000000000000000000000000000000000000000000000000000000000000000000",
"00000000000000000000000000000000000000000000000000000000000000000000000000000000000000000000000000000000000000000000000000000000",
"00000000000000000000000000000000000000000000000000000000000000000000000000000000000000000000000000000000000000000000000000000000",
"00000000000000000000000000000000000000000000000000000000000000000000000000000000000000000000000000000000000000000000000000000000",
"00000000000000000000000000000000000000000000000000000000000000000000000000000000000000000000000000000000000000000000000000000000",
"00000000000000000000000000000000000000000000000000000000000000000000000000000000000000000000000000000000000000000000000000000000",
"00000000000000000000000000000000000000000000000000000000000000000000000000000000000000000000000000000000000000000000000000000000",
"00000000000000000000000000000000000000000000000000000000000000000000000000000000000000000000000000000000000000000000000000000000",
"00000000000000000000000000000000000000000000000000000000000000000000000000000000000000000000000000000000000000000000000000000000",
"00000000000000000000000000000000000000000000000000000000000000000000000000000000000000000000000000000000000000000000000000000000",
"00000000000000000000000000010100000000000000000000000000000000000000000000000000000000000000000000000000000000000000000000000000",
"00000000000000000000000000020304010500000000000000000000000607070000000000000000000000000000000000000000000000000000000000000000",
"0000000000000000000000000008090a0b0c000000000000000000000d0e0f0f0d0d000000000000000000000000000000000000000000000000000000000000",
"0000000000000000000000000010110811121300000000000000140f0f0f0f0f0f0f0f0000000000000000000000000000000000000000000000000000000000",
"0000000000000000000000000015111611081700000000000018190f0f0f0f0f0f0f0f1a1b000000000000000000000000000000000000000000000000000000",
"000000000000000000000000001c1c111112111100000000001d1e0f0f0f0f0f0f0f0f0f0f000000000000000000000000000000000000000000000000000000",
"000000000000000000000000001f20201c21111c00000000222324250f0f0f0f0f0f0f0f0f0f2600000000000000000000000000000000000000000000000000",
"00000000000000000000000000000000001c271c000000002829292a0f0f0f0f0f0f0f0f0f0f2b00000000000000000000000000000000000000000000000000",
"0000000000000000000000000000000000002c2d2e0000002f30302a0f0f0f0f0f0f0f0f0f0f3100000000000000000000000000000000000000000000000000",
"000000000000000000000000000000000000001c32000000333333340f0f0f0f0f0f0f0f0f0f3500000000000000000000000000000000000000000000000000",
"00000000000000000000000000000000000000003611000037333338390f0f0f0f0f0f0f0f393900000000000000000000000000000000000000000000000000",
"0000000000000000000000000000000000003a3b29293c3333333d3e3f0f0f0f4040404139394200000000000000000000000000000000000000000000000000",
"0000000000000000000000000000000000004329292944453345453e0f0f0f0f3939393939000000000000000000000000000000000000000000000000000000",
"0000000000000000000000000000000000004346472948494545454a0f0f0f4b3939393939000000000000000000000000000000000000000000000000000000",
"00000000000000000000000000000000000000004c464d110000140f0f0f0f4b3939393939000000000000000000000000000000000000000000000000000000",
"00000000000000000000000000000000000000004e464f5051000f0f0f0f0f52390f535400000000000000000000000000000000000000000000000000000000",
"0000000000000000000000000000000000000000003a555550000f0f0f0f0f39390f0f5600000000000000000000000000000000000000000000000000000000",
"0000000000000000000000000000000000000000000057555000580f0f0f3939390f0f0f00000000000000000000000000000000000000000000000000000000",
"0000000000000000000000000000000000000000000000595a505b390f0f39390f0f0f0f0f000000000000000000000000000000000000000000000000000000",
"00000000000000000000000000000000000000000000000055505039390f39390f0f0f0f0f000000000000000000000000000000000000000000000000000000",
"0000000000000000000000000000000000000000000000005c555d503939395e0f0f0f0f0f000000000000000000000000000000000000000000000000000000",
"000000000000000000000000000000000000000000000000005555503939390f0f0f0f0f0f000000000000000000000000000000000000000000000000000000",
"000000000000000000000000000000000000000000000000005f55605039390f0f0f616262626263636300000000000000000000000000000000000000000000",
"00000000000000000000000000000000000000000000000000006455553939390f0f626562626262626266000000000000000000000000000000000000000000",
"000000000000000000000000000000000000000000000000000055556768393939696265621c1c1c626266000000000000000000000000000000000000000000",
"000000000000000000000000000000000000000000000000006a556b6c6d6e3939396265621c1c1c1c1c6f000000000000000000000000000000000000000000",
"000000000000000000000000000000000000000000000000005555550070717239396265621c1c1c1c1c6f000000000000000000000000000000000000000000",
"00000000000000000000000000000000000000000000007374557550767778797a7a627b621c1c1c1c1c6f000000000000000000000000000000000000000000",
"000000000000000000000000000000000000000000007c55555050500000007d7e7f6280621c1c1c1c1c6f000000000000000000000000000000000000000000",
"000000000000000000000000000000000000002981298255558384000000008586876288621c1c1c1c1c89000000000000000000000000000000000000000000",
"0000000000000000000000000000000000008a298b464600000000000000008c8d8e1c1c1c1c8f00000000000000000000000000000000000000000000000000",
"000000000000000000000000000000000000432946460000000000000000009091921c1c1c8f8f00000000000000000000000000000000000000000000000000",
"0000000000000000000000000000000000000000000000000000000000939495969798998f8f8f8f9a0000000000000000000000000000000000000000000000",
"0000000000000000000000000000000000000000000000000000009b9191919c7f7f8d9d8f8f8f8f9e0000000000000000000000000000000000000000000000",
"0000000000000000000000000000000000000000000000009fa0919191a19c557f7fa2a38f8f8f8fa4a0a5000000000000000000000000000000000000000000",
"000000000000000000000000000000000000000000000091919191a6555555557f7f7fa7a88f8f8f9191a9000000000000000000000000000000000000000000",
"000000000000000000000000000000000000000000aaab9191acad55555555ae7f7f8fafa88f8fb09191b1000000000000000000000000000000000000000000",
"0000000000000000000000000000000000000000b2919191555555555555557f7fb38f8f718f8f91919191000000000000000000000000000000000000000000",
"0000000000000000000000000000000000000000919191555555555555557f7f7fb38f8f8fa88f91919191910000000000000000000000000000000000000000",
"00000000000000000000000000000000000000b49191b5555555555555b67f7fb78f8f8f8fb8b991919191910000000000000000000000000000000000000000",
"000000000000000000000000000000000000ba919191555555555555557f7fbb8f8f8f8f8f8fbc91919191910000000000000000000000000000000000000000",
"000000000000000000000000000000000000ba919155555555bdbe0000bfbf8f8f8f8f8f8f8fc0c1919191c2c3c3000000000000000000000000000000000000",
"000000000000000000000000000000000000c462621cc555c600000000c78f8f8f8f8f8f8f8fc8c9ca91cb626262626262626262000000000000000000000000",
"000000000000000000000000000000000000cc6262cd1cce0000000000000000cfcfcfcf0000d0d1d291d31c21cdcd6262626262620000000000000000000000",
"000000000000000000000000000000000000cc62621c1c000000000000000000000000000000d47fd5911c1c1c1c1c1c1c1c6262626300000000000000000000",
"0000000000000000000000000000000000006262621c1c000000000000000000000000000000008fd6c91c1c1c1c1c1c1c1c1c1c626300000000000000000000",
"0000000000000000000000000000000000006262d71cd800000000000000000000000000000000c7d9dadb1cdc7070dd000070de1cdf00000000000000000000",
"0000000000000000000000000000000000006262d71ce00000000000000000000000000000000000e17f920000000000000000e21ce300000000000000000000",
"0000000000000000000000000000000000006262e4e5e600000000000000000000000000000000000000e7e80000000000000000e5e900000000000000000000",
"00000000000000000000000000000000006262621c000000000000000000000000000000000000000000ea1ceb00000000000000000000000000000000000000",
"00000000000000000000000000000000ec6262ed1c00000000000000000000000000000000000000000000eeef00000000000000000000000000000000000000",
"0000000000000000000000000000006262f01c1cf100000000000000000000000000000000000000000000000000000000000000000000000000000000000000",
};
