/* XPM */
static char *image[] = {
"64 64 220 2",
"00 c #716493",
"01 c #7e7ea5",
"02 c #a6cbd7",
"03 c #8d9ab7",
"04 c #6182af",
"05 c #c1fffa",
"06 c #8993b2",
"07 c #33daff",
"08 c #3794a3",
"09 c #8bf1fc",
"0a c #3d2310",
"0b c #7059a9",
"0c c #705e9f",
"0d c #5b4e6f",
"0e c #387a82",
"0f c #6c5e88",
"10 c #6e4cc7",
"11 c #6e49cd",
"12 c #635371",
"13 c #3a210f",
"14 c #34c7e7",
"15 c #36a2b6",
"16 c #7d6d8e",
"17 c #6f4acc",
"18 c #716199",
"19 c #5c4e6f",
"1a c #1e1006",
"1b c #2d190b",
"1c c #3d2816",
"1d c #3c2210",
"1e c #402718",
"1f c #762936",
"20 c #dcb064",
"21 c #706199",
"22 c #201209",
"23 c #713852",
"24 c #d4cecd",
"25 c #e6be6c",
"26 c #2f2123",
"27 c #3b220f",
"28 c #8d676d",
"29 c #9c8f7a",
"2a c #b08375",
"2b c #e7bb62",
"2c c #6f52ba",
"2d c #bb8f82",
"2e c #433645",
"2f c #6b4ac1",
"30 c #6f6290",
"31 c #493330",
"32 c #817573",
"33 c #d4cecc",
"34 c #472899",
"35 c #75658d",
"36 c #77658c",
"37 c #ab8685",
"38 c #cfc8c7",
"39 c #a79d9a",
"3a c #4b2c9f",
"3b c #6a45c7",
"3c c #503498",
"3d c #966860",
"3e c #ba8e81",
"3f c #3e2413",
"40 c #a89e9c",
"41 c #a79d9b",
"42 c #48299a",
"43 c #706393",
"44 c #9b6a5c",
"45 c #a69c9b",
"46 c #5c3ab6",
"47 c #7d6582",
"48 c #9a695b",
"49 c #a97b6d",
"4a c #55414c",
"4b c #817595",
"4c c #7f64b9",
"4d c #544a84",
"4e c #5d3ab6",
"4f c #81606c",
"50 c #251e53",
"51 c #362e6f",
"52 c #5a5087",
"53 c #5735ae",
"54 c #71619a",
"55 c #2f2863",
"56 c #3b3377",
"57 c #2a2357",
"58 c #422c8b",
"59 c #6945c6",
"5a c #492a9c",
"5b c #4e4475",
"5c c #6542c1",
"5d c #5837b0",
"5e c #342c6b",
"5f c #462995",
"60 c #2b245d",
"61 c #3e3080",
"62 c #633fbe",
"63 c #53497a",
"64 c #302965",
"65 c #322a68",
"66 c #8c6881",
"67 c #5d3bb6",
"68 c #56367a",
"69 c #574659",
"6a c #706392",
"6b c #3f2511",
"6c c #613ebb",
"6d c #361e0d",
"6e c #391f0f",
"6f c #614124",
"70 c #5f3e91",
"71 c #c7c4c4",
"72 c #321c0c",
"73 c #5c4b64",
"74 c #251408",
"75 c #6f1f73",
"76 c #a07a7a",
"77 c #544661",
"78 c #a5656b",
"79 c #e8bc61",
"7a c #5e5173",
"7b c #6f2b60",
"7c c #8d2f92",
"7d c #662b50",
"7e c #99369e",
"7f c #e9e9e9",
"80 c #261509",
"81 c #752b71",
"82 c #e5e5e5",
"83 c #4c3f55",
"84 c #3e2411",
"85 c #695c8f",
"86 c #5f548a",
"87 c #3f367a",
"88 c #302546",
"89 c #1f1107",
"8a c #281609",
"8b c #231619",
"8c c #671d68",
"8d c #923297",
"8e c #775c95",
"8f c #736194",
"90 c #331d0e",
"91 c #78247c",
"92 c #5a4f87",
"93 c #321c0e",
"94 c #282158",
"95 c #765e94",
"96 c #685c8e",
"97 c #211520",
"98 c #3c2211",
"99 c #271e4d",
"9a c #742278",
"9b c #7a257e",
"9c c #90409c",
"9d c #2b245c",
"9e c #281e4b",
"9f c #332b68",
"a0 c #2d1e32",
"a1 c #261e4f",
"a2 c #483e70",
"a3 c #3a2110",
"a4 c #4d1e64",
"a5 c #96349b",
"a6 c #834f98",
"a7 c #805397",
"a8 c #22182f",
"a9 c #291b17",
"aa c #451e61",
"ab c #332a5e",
"ac c #22172f",
"ad c #321b0c",
"ae c #351d0c",
"af c #66577b",
"b0 c #35272d",
"b1 c #371f0e",
"b2 c #621f6d",
"b3 c #913296",
"b4 c #933398",
"b5 c #755f94",
"b6 c #432e2b",
"b7 c #615585",
"b8 c #884999",
"b9 c #5e5383",
"ba c #5d5071",
"bb c #3f2617",
"bc c #695d8c",
"bd c #351e5a",
"be c #4a3078",
"bf c #411e21",
"c0 c #574557",
"c1 c #241408",
"c2 c #453849",
"c3 c #2b170a",
"c4 c #5f5275",
"c5 c #574c7d",
"c6 c #67587b",
"c7 c #291609",
"c8 c #5d4c66",
"c9 c #533f48",
"ca c #311b0b",
"cb c #5b4c65",
"cc c #2e2021",
"cd c #39210f",
"ce c #2b1d1c",
"cf c #4c3e54",
"d0 c #554863",
"d1 c #4d4056",
"d2 c #3c2720",
"d3 c #695c86",
"d4 c #221307",
"d5 c #3c2f3a",
"d6 c #402a25",
"d7 c #47394b",
"d8 c #3b2419",
"d9 c #2a1c1b",
"da c #2f2224",
"db c #24150c",
"00000000000000000000000000000000000000000000000000000000000000000000000000000000000000000000000000000000000000000000000000000000",
"00000000000000000000000000000000000000000000000000000000000000000000000000000000000000000000000000000000000000000000000000000000",
"00000000000000000000000000000000000000000000000000000000000000000000000000000000000000000000000000000000000000000000000000000000",
"00000000000000000000000000000000000000000000000000000000000000000000000000000000000000000000000000000000000000000000000000000000",
"00000000000000000000000000000000000000000000000000000000000000000000000000000000000000000000000000000000000000000000000000000000",
"00000000000000000000000000000000000000000000000000000000000000000000000000000000000000000000000000000000000000000000000000000000",
"00000000000000000000000000000000000000000000000000000000000000000000000000000000000000000000000000000000000000000000000000000000",
"00000000000000000000000000000000000000000000000000000000000000000000000000000000000000000000000000000000000000000000000000000000",
"00000000000000000000000000000000000000000000000000000000000000000000000000000000000000000000000000000000000000000000000000000000",
"00000000000000000000000102030000000000000000000000000000000000000000000000000000000000000000000000000000000000000000000000000000",
"00000000000000000000000405050506000000000000000000000000000000000000000000000000000000000000000000000000000000000000000000000000",
"000000000000000000000004070809090a00000000000000000000000b0b0b0c0000000000000000000000000000000000000000000000000000000000000000",
"00000000000000000000000d070e070a070f00000000000000001011111111111100000000000000000000000000000000000000000000000000000000000000",
"000000000000000000000012130a1415071300000000000000161711111111111111180000000000000000000000000000000000000000000000000000000000",
"0000000000000000000000191a1b0a1c071d1e0000000000001f2011111111111111112100000000000000000000000000000000000000000000000000000000",
"0000000000000000000000001a1a1a1a0a0a22000000000023242511111111111111111100000000000000000000000000000000000000000000000000000000",
"000000000000000000000000000000261a2722000000000028292a2b11111111111111112c000000000000000000000000000000000000000000000000000000",
"00000000000000000000000000000000001a0a0000000000282d2d2b111111111111111111000000000000000000000000000000000000000000000000000000",
"00000000000000000000000000000000002e1a0a000000002424242b111111111111111111112f00000000000000000000000000000000000000000000000000",
"000000000000000000000000000000000000300a3100000032242433341111111111111111113400000000000000000000000000000000000000000000000000",
"000000000000000000000000000000000035362d37000024242438393a1111111111113b34343c00000000000000000000000000000000000000000000000000",
"00000000000000000000000000000000003d3e2d2d3f004024404139111111114242423434344300000000000000000000000000000000000000000000000000",
"00000000000000000000000000000000003d442d2d0a004141414145111111463434343434340000000000000000000000000000000000000000000000000000",
"0000000000000000000000000000000000004748491a4a004b4b4c11111111463434343434000000000000000000000000000000000000000000000000000000",
"000000000000000000000000000000000000004848484d00000011111111114e3411343434000000000000000000000000000000000000000000000000000000",
"00000000000000000000000000000000000000004f50515200001111111111345311115400000000000000000000000000000000000000000000000000000000",
"00000000000000000000000000000000000000000050555600111111111111341111111100000000000000000000000000000000000000000000000000000000",
"000000000000000000000000000000000000000000005756585911111111345a1111111111000000000000000000000000000000000000000000000000000000",
"000000000000000000000000000000000000000000005b5056563411115c345d1111111111000000000000000000000000000000000000000000000000000000",
"0000000000000000000000000000000000000000000000505e565f34113434111111111111000000000000000000000000000000000000000000000000000000",
"00000000000000000000000000000000000000000000000050606134343462111111111111000000000000000000000000000000000000000000000000000000",
"00000000000000000000000000000000000000000000000050505656343411111111111111110000000000000000000000000000000000000000000000000000",
"00000000000000000000000000000000000000000000000063506465663434671111116868686900000000000000000000000000000000000000000000000000",
"0000000000000000000000000000000000000000000000000000506a6b343434346c6d6d6d6d6d6d6d6d00000000000000000000000000000000000000000000",
"0000000000000000000000000000000000000000000000000000006a6e6f703434346d716d7272726d6d73000000000000000000000000000000000000000000",
"000000000000000000000000000000000000000000000000000000001a74757634346d716d1a1a1a1a1a77000000000000000000000000000000000000000000",
"000000000000000000000000000000000000000000000000000000000074757879796d716d1a1a1a1a1a77000000000000000000000000000000000000000000",
"00000000000000000000000000000000000000000000000000000000007a0a7b7c7c6d716d1a1a1a1a1a77000000000000000000000000000000000000000000",
"0000000000000000000000000000000000000000000000000000000000001a7d7e7e6d7f6d1a1a1a1a1a77000000000000000000000000000000000000000000",
"00000000000000000000000000000000000000000000000000000000000000807e816d826d1a1a1a1a1a77000000000000000000000000000000000000000000",
"0000000000000000000000000000000000000000000000000000000000000083841a6d1a6d1a1a1a1a1a00000000000000000000000000000000000000000000",
"0000000000000000000000000000000000000000000000000000008585868788898a8b8c758d7e7e7e8e8f000000000000000000000000000000000000000000",
"0000000000000000000000000000000000000000000000008787878787878787879087757575917e7e7e7e000000000000000000000000000000000000000000",
"000000000000000000000000000000000000000000009287878787878787878787938794757575757e7e7e7e9500000000000000000000000000000000000000",
"000000000000000000000000000000000000000096878787878787876060606060979899507575759a9b7e7e9c00000000000000000000000000000000000000",
"00000000000000000000000000000000000000009d87878787875050505050505050899e505075757575757e7e7e000000000000000000000000000000000000",
"000000000000000000000000000000000000005b9d879f50a0a0a1505050505050a2a2a3505050a475757575a57ea6a700000000000000000000000000000000",
"00000000000000000000000000000000000000505087a86d6d6d6d5050500000000000a998505050aa75757575757e7e00000000000000000000000000000000",
"00000000000000000000000000000000000000ab5050acadae6d6d6daf000000000000b0b150505050b275757575b3b47eb50000000000000000000000000000",
"000000000000000000000000000000000000000050501a1a1a1a6d6d6db6000000000000000ab75050505075757575757eb80000000000000000000000000000",
"000000000000000000000000000000000000000050501a1a1a1a1a1a6d6d6d0000000000000a0050505050507575757500000000000000000000000000000000",
"000000000000000000000000000000000000000000b9bababa1a1a1a1a8a6d6d00000000001abb00bc505050bd75bebf6dc00000000000000000000000000000",
"0000000000000000000000000000000000000000000000000000001a1a1a6d6d000000000000c1000000505050501a6d6d6d0000000000000000000000000000",
"00000000000000000000000000000000000000000000000000000000c21ac36d6d0000000000c40a0000c55050501a1ac36d6dc6000000000000000000000000",
"00000000000000000000000000000000000000000000000000000000007a1ac76dc800000000001ac900000050501a1a1a8a6d6d6d6d6d000000000000000000",
"000000000000000000000000000000000000000000000000000000000000001acacb0000000000cccd000000000000ce1a1a1aca6d6d6d000000000000000000",
"00000000000000000000000000000000000000000000000000000000000000cf1ad0000000000000d10a0000000000001a1a1a1a1a6d6d000000000000000000",
"00000000000000000000000000000000000000000000000000000000000000000000000000000000d10a000000000000001a1a1a1a726d6d0000000000000000",
"00000000000000000000000000000000000000000000000000000000000000000000000000000000001ad2000000000000d31a1a1ad46d6d0000000000000000",
"000000000000000000000000000000000000000000000000000000000000000000000000000000000000720000000000000000d51a1a1a6dd600000000000000",
"00000000000000000000000000000000000000000000000000000000000000000000000000000000000000000000000000000000d71a1a6dd800000000000000",
"0000000000000000000000000000000000000000000000000000000000000000000000000000000000000000000000000000000000d91a1a6d00000000000000",
"000000000000000000000000000000000000000000000000000000000000000000000000000000000000000000000000000000000000da1adb00000000000000",
"00000000000000000000000000000000000000000000000000000000000000000000000000000000000000000000000000000000000000000000000000000000",
};
