/* XPM */
static char *image[] = {
"64 64 204 2",
"00 c #716493",
"01 c #736896",
"02 c #79749d",
"03 c #756c98",
"04 c #716199",
"05 c #6e49cd",
"06 c #6283af",
"07 c #c1fffa",
"08 c #bffcf8",
"09 c #bef9f6",
"0a c #8891b1",
"0b c #6e4aca",
"0c c #706199",
"0d c #6182af",
"0e c #33daff",
"0f c #3d2310",
"10 c #6e4cc7",
"11 c #5d5f83",
"12 c #3a5e5d",
"13 c #3a5e5c",
"14 c #369fb2",
"15 c #6e608b",
"16 c #b07f5a",
"17 c #c09684",
"18 c #635371",
"19 c #36a2b6",
"1a c #712334",
"1b c #d4cecd",
"1c c #e7bb62",
"1d c #5b4e6f",
"1e c #1e1006",
"1f c #361f0e",
"20 c #396f74",
"21 c #2c180a",
"22 c #5d4b60",
"23 c #9a695b",
"24 c #a37a6b",
"25 c #a8796a",
"26 c #6e4cc5",
"27 c #201209",
"28 c #bb8f82",
"29 c #21130b",
"2a c #b4acba",
"2b c #d4cecc",
"2c c #6945c7",
"2d c #6d48cb",
"2e c #706291",
"2f c #6f6290",
"30 c #1f1006",
"31 c #3c2210",
"32 c #7d717f",
"33 c #837775",
"34 c #e4b862",
"35 c #5030a6",
"36 c #48299a",
"37 c #472899",
"38 c #251712",
"39 c #d3cdcd",
"3a c #e8bc61",
"3b c #564966",
"3c c #55424e",
"3d c #cac3c2",
"3e c #a89e9d",
"3f c #a79d9b",
"40 c #675694",
"41 c #736593",
"42 c #a98586",
"43 c #5d3ab6",
"44 c #966960",
"45 c #a8796c",
"46 c #867b96",
"47 c #918598",
"48 c #c2a983",
"49 c #5735ae",
"4a c #966860",
"4b c #9b6a5c",
"4c c #956862",
"4d c #b68a7d",
"4e c #80647d",
"4f c #6a5d8f",
"50 c #4c2ca0",
"51 c #716492",
"52 c #7b6585",
"53 c #261f53",
"54 c #3b3377",
"55 c #60548a",
"56 c #251e53",
"57 c #42396b",
"58 c #2b245d",
"59 c #393174",
"5a c #5231a8",
"5b c #633fbe",
"5c c #463c6e",
"5d c #312a67",
"5e c #3e307f",
"5f c #4e2ea3",
"60 c #5837b0",
"61 c #361e0d",
"62 c #3a210f",
"63 c #8b3389",
"64 c #423555",
"65 c #2a1f5d",
"66 c #6b46c9",
"67 c #4b3728",
"68 c #6e608c",
"69 c #261814",
"6a c #3d2311",
"6b c #6f1f73",
"6c c #c39a6e",
"6d c #c7c4c4",
"6e c #5c4b64",
"6f c #261914",
"70 c #99369e",
"71 c #544661",
"72 c #5a4c6c",
"73 c #4b3534",
"74 c #784f84",
"75 c #904a6e",
"76 c #886382",
"77 c #706392",
"78 c #49322e",
"79 c #a5656b",
"7a c #39251d",
"7b c #703e81",
"7c c #77237b",
"7d c #b27669",
"7e c #e7e7e7",
"7f c #251408",
"80 c #704585",
"81 c #e5e4e4",
"82 c #5e5173",
"83 c #6b3f79",
"84 c #923297",
"85 c #462225",
"86 c #32161f",
"87 c #321c0c",
"88 c #2c1e1d",
"89 c #54404a",
"8a c #2f131d",
"8b c #5e5e5e",
"8c c #332a23",
"8d c #403240",
"8e c #351e0d",
"8f c #292147",
"90 c #231a3f",
"91 c #6c1f70",
"92 c #8e3093",
"93 c #4c3e54",
"94 c #2d203c",
"95 c #884a99",
"96 c #4f4576",
"97 c #211629",
"98 c #301e26",
"99 c #652b7c",
"9a c #321c0d",
"9b c #3f367a",
"9c c #4e1e65",
"9d c #291d2d",
"9e c #6e1f71",
"9f c #691f67",
"a0 c #913e9c",
"a1 c #371e5b",
"a2 c #2c1512",
"a3 c #532832",
"a4 c #8f3194",
"a5 c #332b69",
"a6 c #271213",
"a7 c #622b7a",
"a8 c #572a76",
"a9 c #44173a",
"aa c #6d2d5a",
"ab c #7f2b7f",
"ac c #554353",
"ad c #3c251b",
"ae c #332b68",
"af c #362e6d",
"b0 c #661f6f",
"b1 c #281e44",
"b2 c #302964",
"b3 c #3a3172",
"b4 c #2c255e",
"b5 c #2a235b",
"b6 c #3c220f",
"b7 c #311b0b",
"b8 c #221207",
"b9 c #675a83",
"ba c #241408",
"bb c #403340",
"bc c #3d3061",
"bd c #221939",
"be c #231b43",
"bf c #615377",
"c0 c #281609",
"c1 c #2a1d1b",
"c2 c #605484",
"c3 c #2c2459",
"c4 c #251d4f",
"c5 c #473439",
"c6 c #645474",
"c7 c #6c5f8b",
"c8 c #3c2c30",
"c9 c #574452",
"ca c #4d4056",
"cb c #554352",
"00000000000000000000000000000000000000000000000000000000000000000000000000000000000000000000000000000000000000000000000000000000",
"00000000000000000000000000000000000000000000000000000000000000000000000000000000000000000000000000000000000000000000000000000000",
"00000000000000000000000000000000000000000000000000000000000000000000000000000000000000000000000000000000000000000000000000000000",
"00000000000000000000000000000000000000000000000000000000000000000000000000000000000000000000000000000000000000000000000000000000",
"00000000000000000000000000000000000000000000000000000000000000000000000000000000000000000000000000000000000000000000000000000000",
"00000000000000000000000000000000000000000000000000000000000000000000000000000000000000000000000000000000000000000000000000000000",
"00000000000000000000000000000000000000000000000000000000000000000000000000000000000000000000000000000000000000000000000000000000",
"00000000000000000000000000000000000000000000000000000000000000000000000000000000000000000000000000000000000000000000000000000000",
"00000000000000000000000000000000000000000000000000000000000000000000000000000000000000000000000000000000000000000000000000000000",
"00000000000000000000000000000000000000000000000000000000000000000000000000000000000000000000000000000000000000000000000000000000",
"00000000000000000000000000000000000000000000000000000000000000000000000000000000000000000000000000000000000000000000000000000000",
"00000000000000000000000000000000000000000000000000000000000000000000000000000000000000000000000000000000000000000000000000000000",
"00000000000000000000000000000000000000000000000000000000000000000000000000000000000000000000000000000000000000000000000000000000",
"00000000000000000000000102030000000000000000000000000000040405050504040000000000000000000000000000000000000000000000000000000000",
"0000000000000000000000060708090a00000000000000000000000b050505050505050c00000000000000000000000000000000000000000000000000000000",
"00000000000000000000000d0e0e07070f0000000000000000001005050505050505050505000000000000000000000000000000000000000000000000000000",
"0000000000000000000000110e120e13141500000000000000001617050505050505050505000000000000000000000000000000000000000000000000000000",
"0000000000000000000000180f0f0e190e0f000000000000001a1b1c050505050505050505050000000000000000000000000000000000000000000000000000",
"00000000000000000000001d1e1f0f200e2122000000000000232425050505050505050505052600000000000000000000000000000000000000000000000000",
"0000000000000000000000001e1e1e1e0f0f27000000000000232828050505050505050505050505000000000000000000000000000000000000000000000000",
"000000000000000000000000000000291e0f2700000000002a1b1b2b2c0505050505050505052d2c000000000000000000000000000000000000000000000000",
"0000000000000000000000000000002e2f3031000000000032331b1b343505050505050505363637000000000000000000000000000000000000000000000000",
"000000000000000000000000000000000038300f000000001b1b1b393a3737050505373737373700000000000000000000000000000000000000000000000000",
"0000000000000000000000000000000000003b0f3c0000003d1b3e3f3a3737373737373737374000000000000000000000000000000000000000000000000000",
"0000000000000000000000000000000000004128420000003f3f3f3f3a0505433737373737000000000000000000000000000000000000000000000000000000",
"00000000000000000000000000000000004445282800000046474748490505053737373737000000000000000000000000000000000000000000000000000000",
"00000000000000000000000000000000004a4b282828000000000005050505433705053737000000000000000000000000000000000000000000000000000000",
"0000000000000000000000000000000000004c234d284e4f00001005050505433705055000000000000000000000000000000000000000000000000000000000",
"00000000000000000000000000000000000000515223535455000505050505373705050500000000000000000000000000000000000000000000000000000000",
"00000000000000000000000000000000000000000023565654540505050505373705050505000000000000000000000000000000000000000000000000000000",
"0000000000000000000000000000000000000000000057565658595405055a375b05050505000000000000000000000000000000000000000000000000000000",
"00000000000000000000000000000000000000000000005656565654540537370505050505000000000000000000000000000000000000000000000000000000",
"0000000000000000000000000000000000000000000000005c5656565d5e375f0505050505050000000000000000000000000000000000000000000000000000",
"000000000000000000000000000000000000000000000000001e5656565637600505056161616100000000000000000000000000000000000000000000000000",
"00000000000000000000000000000000000000000000000000006263646537660505616761616161616168000000000000000000000000000000000000000000",
"0000000000000000000000000000000000000000000000000000696a6b6c37373705616d611e1e1e61616e000000000000000000000000000000000000000000",
"00000000000000000000000000000000000000000000000000006f1e706c37373737616d611e1e1e1e1e71000000000000000000000000000000000000000000",
"00000000000000000000000000000000000000000000000000000072737475763737616d611e1e1e1e1e71000000000000000000000000000000000000000000",
"000000000000000000000000000000000000000000000000000000770f786b793737616d611e1e1e1e1e71000000000000000000000000000000000000000000",
"000000000000000000000000000000000000000000000000000000001e7a7b7c7d7d617e611e1e1e1e1e71000000000000000000000000000000000000000000",
"00000000000000000000000000000000000000000000000000000000007f008070706181611e1e1e1e1e71000000000000000000000000000000000000000000",
"0000000000000000000000000000000000000000000000000000000000820f8384708586871e1e88888800000000000000000000000000000000000000000000",
"0000000000000000000000000000000000000000000000000000000000001e896b701e1e1e1e8a00000000000000000000000000000000000000000000000000",
"00000000000000000000000000000000000000000000000000000000000000218b8c1e1e1e6b6b70000000000000000000000000000000000000000000000000",
"000000000000000000000000000000000000000000000000000000000000008d8e8f909192707070000000000000000000000000000000000000000000000000",
"00000000000000000000000000000000000000000000000000000000000000931e94566b70707070950000000000000000000000000000000000000000000000",
"00000000000000000000000000000000000000000000000000000000000000969798566b70707070950000000000000000000000000000000000000000000000",
"0000000000000000000000000000000000000000000000000000000000000099569a9b6b70707070950000000000000000000000000000000000000000000000",
"000000000000000000000000000000000000000000000000000000000000009c569d0f9e70707070950000000000000000000000000000000000000000000000",
"000000000000000000000000000000000000000000000000000000000000709c569b1e9f70707070950000000000000000000000000000000000000000000000",
"000000000000000000000000000000000000000000000000000000000000709c569b9b0f70707070000000000000000000000000000000000000000000000000",
"0000000000000000000000000000000000000000000000000000000000a0a156569b9ba2a3707000000000000000000000000000000000000000000000000000",
"0000000000000000000000000000000000000000000000000000000000a456a5569b9ba60f707000000000000000000000000000000000000000000000000000",
"00000000000000000000000000000000000000000000000000000000a7a89ba5569b9b6ba9aaab61616161acac6161ad00000000000000000000000000000000",
"000000000000000000000000000000000000000000000000000000009b9b9bae56af9bb06b0fb16161616161611e1e6161000000000000000000000000000000",
"000000000000000000000000000000000000000000000000000000009b9b9bb25656b3b4b51eb6b7b7b77f1e1e1e1eb861b90000000000000000000000000000",
"000000000000000000000000000000000000000000000000000000009b9b9b56565656569b56ba1e1e1e1e1e1e1e1e1e1ebb0000000000000000000000000000",
"0000000000000000000000000000000000000000000000000000000000bc611e1ebd56565656be0f1e1e1e1e1e0000bf1ebb0000000000000000000000000000",
"00000000000000000000000000000000000000000000000000000000006161c01ec1c2c35656c47fc58282000000000000000000000000000000000000000000",
"00000000000000000000000000000000000000000000000000000000006161611e1e1e000000001e0f0000000000000000000000000000000000000000000000",
"0000000000000000000000000000000000000000000000000000000000c6616161b81ec700000000c8c900000000000000000000000000000000000000000000",
"0000000000000000000000000000000000000000000000000000000000006161611e1e1e00000000ca0f00000000000000000000000000000000000000000000",
"0000000000000000000000000000000000000000000000000000000000000061611e1e1e00000000001ecb000000000000000000000000000000000000000000",
"0000000000000000000000000000000000000000000000000000000000c661611e1e1e1e00000000000087000000000000000000000000000000000000000000",
};
