/* XPM */
static char *image[] = {
"64 64 229 2",
"00 c #716493",
"01 c #b0fbfb",
"02 c #c1fffa",
"03 c #8f9fba",
"04 c #8f9eb9",
"05 c #7059a9",
"06 c #33daff",
"07 c #b5fcfa",
"08 c #3d2310",
"09 c #6e49cd",
"0a c #32d4f7",
"0b c #34ccec",
"0c c #34c7e7",
"0d c #3c3528",
"0e c #6d5f89",
"0f c #716198",
"10 c #705e9f",
"11 c #3c2816",
"12 c #34cbeb",
"13 c #3d2715",
"14 c #3d2311",
"15 c #e3b765",
"16 c #6e4aca",
"17 c #1e1006",
"18 c #351e0d",
"19 c #966257",
"1a c #e7bb62",
"1b c #2f2123",
"1c c #281609",
"1d c #3a5e5c",
"1e c #8d524e",
"1f c #a88c80",
"20 c #b3845d",
"21 c #6e4bc9",
"22 c #9a695b",
"23 c #bb8f82",
"24 c #706391",
"25 c #3f313e",
"26 c #221307",
"27 c #2a170a",
"28 c #665677",
"29 c #8c81a3",
"2a c #b19188",
"2b c #c5a8a0",
"2c c #c5a89f",
"2d c #7059aa",
"2e c #5d5071",
"2f c #b4acba",
"30 c #d4cecd",
"31 c #d4cecc",
"32 c #472899",
"33 c #6642c2",
"34 c #271a16",
"35 c #2c190a",
"36 c #6b5c84",
"37 c #867a87",
"38 c #8b7f7e",
"39 c #e8bc61",
"3a c #4f2ea3",
"3b c #6945c7",
"3c c #4c2f98",
"3d c #b88c7f",
"3e c #aca3a1",
"3f c #a89e9c",
"40 c #6d48cc",
"41 c #48299a",
"42 c #7b6585",
"43 c #ccbab5",
"44 c #a79d9b",
"45 c #a47567",
"46 c #987f76",
"47 c #a79c9b",
"48 c #623fbd",
"49 c #645295",
"4a c #654534",
"4b c #5d3ab6",
"4c c #846679",
"4d c #6f4c40",
"4e c #3c2a3b",
"4f c #5735ae",
"50 c #584196",
"51 c #4a3655",
"52 c #3b3377",
"53 c #6b5f90",
"54 c #613ebc",
"55 c #282155",
"56 c #251e53",
"57 c #613ebb",
"58 c #706393",
"59 c #393173",
"5a c #3c3478",
"5b c #2b245d",
"5c c #402e86",
"5d c #3e307f",
"5e c #91768c",
"5f c #b18476",
"60 c #ba8e80",
"61 c #90768c",
"62 c #362e64",
"63 c #422d8a",
"64 c #6f4fc1",
"65 c #a47467",
"66 c #b88d82",
"67 c #2c255e",
"68 c #2a235b",
"69 c #6e4ec1",
"6a c #946863",
"6b c #8a5f5a",
"6c c #544984",
"6d c #373072",
"6e c #30285c",
"6f c #2a1f5d",
"70 c #6844c5",
"71 c #6642b0",
"72 c #6647a6",
"73 c #2b2458",
"74 c #312966",
"75 c #261e53",
"76 c #675694",
"77 c #43265c",
"78 c #361e0d",
"79 c #6f6291",
"7a c #6f1f73",
"7b c #4b1842",
"7c c #c7c4c4",
"7d c #5c4b64",
"7e c #5c5181",
"7f c #4f4476",
"80 c #70518a",
"81 c #722473",
"82 c #743d4e",
"83 c #251408",
"84 c #564862",
"85 c #584d7e",
"86 c #704585",
"87 c #99369e",
"88 c #321d0c",
"89 c #544661",
"8a c #473d6f",
"8b c #862c8b",
"8c c #3c1d20",
"8d c #e9e9e9",
"8e c #695c8f",
"8f c #3f367a",
"90 c #291d2d",
"91 c #e5e5e5",
"92 c #5a4f87",
"93 c #7d2781",
"94 c #2c1418",
"95 c #493f7f",
"96 c #272056",
"97 c #4b266c",
"98 c #702074",
"99 c #473e7e",
"9a c #332b68",
"9b c #302864",
"9c c #706392",
"9d c #5a2975",
"9e c #692c7f",
"9f c #76237b",
"a0 c #2f1a0b",
"a1 c #472225",
"a2 c #564b85",
"a3 c #393071",
"a4 c #261e54",
"a5 c #42397c",
"a6 c #352d6b",
"a7 c #332a5e",
"a8 c #892e8e",
"a9 c #241512",
"aa c #291f47",
"ab c #3c3376",
"ac c #3e3470",
"ad c #231b43",
"ae c #32212d",
"af c #483336",
"b0 c #78247c",
"b1 c #33212d",
"b2 c #3d3164",
"b3 c #3a2317",
"b4 c #351d0d",
"b5 c #1f1319",
"b6 c #5e5383",
"b7 c #716091",
"b8 c #79247d",
"b9 c #2b180a",
"ba c #292259",
"bb c #382427",
"bc c #3c251a",
"bd c #442f2d",
"be c #372f62",
"bf c #715c8f",
"c0 c #4c1844",
"c1 c #635474",
"c2 c #1f1106",
"c3 c #453849",
"c4 c #50435b",
"c5 c #5e5173",
"c6 c #2e1a0b",
"c7 c #792f6c",
"c8 c #5c2977",
"c9 c #312965",
"ca c #322b67",
"cb c #201107",
"cc c #2b170a",
"cd c #412b25",
"ce c #554353",
"cf c #321c0c",
"d0 c #402b25",
"d1 c #655679",
"d2 c #59485d",
"d3 c #241308",
"d4 c #2d1f1f",
"d5 c #342015",
"d6 c #675779",
"d7 c #8c3192",
"d8 c #913195",
"d9 c #2e2021",
"da c #20120a",
"db c #6e618d",
"dc c #3b2d38",
"dd c #6a5b82",
"de c #412a25",
"df c #584a68",
"e0 c #6a5b81",
"e1 c #6c5f8b",
"e2 c #39200f",
"e3 c #291b19",
"e4 c #4c3f55",
"00000000000000000000000000000000000000000000000000000000000000000000000000000000000000000000000000000000000000000000000000000000",
"00000000000000000000000000000000000000000000000000000000000000000000000000000000000000000000000000000000000000000000000000000000",
"00000000000000000000000000000000000000000000000000000000000000000000000000000000000000000000000000000000000000000000000000000000",
"00000000000000000000000000000000000000000000000000000000000000000000000000000000000000000000000000000000000000000000000000000000",
"00000000000000000000000000000000000000000000000000000000000000000000000000000000000000000000000000000000000000000000000000000000",
"00000000000000000000000000000000000000000000000000000000000000000000000000000000000000000000000000000000000000000000000000000000",
"00000000000000000000000000000000000000000000000000000000000000000000000000000000000000000000000000000000000000000000000000000000",
"00000000000000000000000000000000000000000000000000000000000000000000000000000000000000000000000000000000000000000000000000000000",
"00000000000000000000000000000000000000000000000000000000000000000000000000000000000000000000000000000000000000000000000000000000",
"00000000000000000000000000000000000000000000000000000000000000000000000000000000000000000000000000000000000000000000000000000000",
"00000000000000000000000000000000000000000000000000000000000000000000000000000000000000000000000000000000000000000000000000000000",
"00000000000000000000000000000001020304000000000000000000000005050500000000000000000000000000000000000000000000000000000000000000",
"00000000000000000000000000000006060702080000000000000000090909090909090000000000000000000000000000000000000000000000000000000000",
"0000000000000000000000000000000a080b0c0d0e00000000000f09090909090909091000000000000000000000000000000000000000000000000000000000",
"00000000000000000000000000000011081213061400000000001509090909090909090916000000000000000000000000000000000000000000000000000000",
"0000000000000000000000000000001708081306180000000000191a090909090909090909090000000000000000000000000000000000000000000000000000",
"0000000000000000000000000000001b171c1c1d081c0000001e1f20090909090909090909092100000000000000000000000000000000000000000000000000",
"00000000000000000000000000000000000017170817000000222323090909090909090909090900000000000000000000000000000000000000000000000000",
"000000000000000000000000000000000000242526272800292a2b2c09090909090909090909092d000000000000000000000000000000000000000000000000",
"00000000000000000000000000000000000000002e1708002f303031320909090909090909093332000000000000000000000000000000000000000000000000",
"00000000000000000000000000000000000000000034353637383030393a3b09090909093b32323c000000000000000000000000000000000000000000000000",
"000000000000000000000000000000000000000000003d3d30303e3f394040414141414132323200000000000000000000000000000000000000000000000000",
"00000000000000000000000000000000000000004222232343304444090909093232323232320000000000000000000000000000000000000000000000000000",
"00000000000000000000000000000000000000004245232346444447090909483232323232490000000000000000000000000000000000000000000000000000",
"0000000000000000000000000000000000000000002222234a0000090909094b3232323232000000000000000000000000000000000000000000000000000000",
"000000000000000000000000000000000000000000004c224d4e00000909094b3209094f50000000000000000000000000000000000000000000000000000000",
"000000000000000000000000000000000000000000000022515253000909094b3254090900000000000000000000000000000000000000000000000000000000",
"000000000000000000000000000000000000000000000000555652000909094b3257090909000000000000000000000000000000000000000000000000000000",
"0000000000000000000000000000000000000000000000005856595a090909323257090909000000000000000000000000000000000000000000000000000000",
"00000000000000000000000000000000000000000000000000005952090909323257090909000000000000000000000000000000000000000000000000000000",
"0000000000000000000000000000000000000000000000000000565b525c32323257090909090000000000000000000000000000000000000000000000000000",
"00000000000000000000000000000000000000000000000000565656525d32323257090909090000000000000000000000000000000000000000000000000000",
"00000000000000000000000000005e5f236061000000000062565656565263323209090909096400000000000000000000000000000000000000000000000000",
"00000000000000000000000000002365223d66520000000067565656566852323209090909096900000000000000000000000000000000000000000000000000",
"0000000000000000000000000000006a226b565652526c6d5b5656566e566f323232707171717200000000000000000000000000000000000000000000000000",
"00000000000000000000000000000000007356565652745656565675007632770832787878787878787800000000000000000000000000000000000000000000",
"0000000000000000000000000000000000007956565674565656560000007a7b0832787c7878787878787d000000000000000000000000000000000000000000",
"000000000000000000000000000000000000007e7f565656567e0000000080811782787c78171717838384000000000000000000000000000000000000000000",
"00000000000000000000000000000000000000000056565685000000000000868788787c78171717171789000000000000000000000000000000000000000000",
"000000000000000000000000000000000000000000008a0000000000000000868b8c787c78171717171789000000000000000000000000000000000000000000",
"00000000000000000000000000000000000000000000000000000000000000007a87788d78171717171789000000000000000000000000000000000000000000",
"000000000000000000000000000000000000000000000000538e8f8f8f8f8f8f8f90789178171717171789000000000000000000000000000000000000000000",
"00000000000000000000000000000000000000000000928f8f8f8f8f8f8f8f8f8f93781778171717171700000000000000000000000000000000000000000000",
"0000000000000000000000000000000000000000008f8f8f8f8f8f565656565687877a94087a7a7a560000000000000000000000000000000000000000000000",
"0000000000000000000000000000000000000000958f8f5b965656565656569787878798177a7a7a568f99000000000000000000000000000000000000000000",
"000000000000000000000000000000000000008f8f8f9a56565656565656878787877a7a7a087a569b8f8f8f0000000000000000000000000000000000000000",
"0000000000000000000000000000000000009c8f8f9a5656565656569d9e8787879f7a7a7aa0a1568f8f8f8fa200000000000000000000000000000000000000",
"0000000000000000000000000000000000008f8fa3565656565656a48787877a7a7a7a7a7a7a088f8f8f8f8f8f8f000000000000000000000000000000000000",
"0000000000000000000000000000000000a58f8fa656565656a7a78787a87a7a7a7a7a7a7a7aa9aaab8f8f8f8f8f000000000000000000000000000000000000",
"0000000000000000000000000000000078ac8f5656565656000000877a7a7a7a7a7a7a7a7a7aad08ae8f8f8f8f8f8f0000000000000000000000000000000000",
"000000000000000000000000000000af78788f5656565600000000877a7a7a7a7a7a7a7a7a7ab017b1568f8f8f8f8fb200000000000000000000000000000000",
"000000000000000000000000000000b37878b4b556b60000000000007a7a7a7a7a7a7a7a7a00b7b8b956ba8f8f8fbb7878bcbdbdbd0000000000000000000000",
"0000000000000000000000000000787878781717be0000000000000000007a7a7a7a7abf00000000c00856568f8f787878787878787878000000000000000000",
"00000000000000000000000000c1787878c217c3c400000000000000000000000000000000000000c5c6c7c8c9ca17cbcccc787878787878cd00000000000000",
"00000000000000000000000000ce78781717170000000000000000000000000000000000000000000000cf7a875617171717171717cf7878d000000000000000",
"000000000000000000d1d1d2787878d317d4000000000000000000000000000000000000000000000000d5d6d7d8d9d9d9d9d9d9d9da17787800000000000000",
"000000000000000000db1717787817170000000000000000000000000000000000000000000000000000dc08dd0000000000000000001717de00000000000000",
"000000000000000000db1717171717df00000000000000000000000000000000000000000000000000000017e00000000000000000000017d400000000000000",
"0000000000000000000000e11717c50000000000000000000000000000000000000000000000000000000000e200000000000000000000c50000000000000000",
"0000000000000000000000000000000000000000000000000000000000000000000000000000000000000000e308000000000000000000000000000000000000",
"0000000000000000000000000000000000000000000000000000000000000000000000000000000000000000e417000000000000000000000000000000000000",
"00000000000000000000000000000000000000000000000000000000000000000000000000000000000000000000000000000000000000000000000000000000",
"00000000000000000000000000000000000000000000000000000000000000000000000000000000000000000000000000000000000000000000000000000000",
"00000000000000000000000000000000000000000000000000000000000000000000000000000000000000000000000000000000000000000000000000000000",
};
