/* XPM */
static char *image[] = {
"64 64 215 2",
"00 c #716493",
"01 c #a4f7fb",
"02 c #c1fffa",
"03 c #8f9fba",
"04 c #7059a9",
"05 c #6e49cd",
"06 c #70609a",
"07 c #33daff",
"08 c #96f4fb",
"09 c #483624",
"0a c #6e4cc7",
"0b c #32cff2",
"0c c #3d2310",
"0d c #36a8bd",
"0e c #34c7e7",
"0f c #3b4239",
"10 c #6c5d86",
"11 c #dfb360",
"12 c #7a55c2",
"13 c #716494",
"14 c #3c2614",
"15 c #36a4b9",
"16 c #33d9fe",
"17 c #712537",
"18 c #d1cac8",
"19 c #e7bb62",
"1a c #6e4acb",
"1b c #1e1006",
"1c c #3c2210",
"1d c #9a695b",
"1e c #946d5c",
"1f c #9b695b",
"20 c #3b2e38",
"21 c #281609",
"22 c #385755",
"23 c #bb8f82",
"24 c #6f52ba",
"25 c #b4acba",
"26 c #d4cecd",
"27 c #d4cecc",
"28 c #3f313e",
"29 c #2a170a",
"2a c #61506b",
"2b c #9e94a2",
"2c c #b3aaa9",
"2d c #876383",
"2e c #623fbd",
"2f c #6e4cc5",
"30 c #6f6290",
"31 c #e8bc61",
"32 c #472899",
"33 c #271a16",
"34 c #251408",
"35 c #6b5c84",
"36 c #d2cccb",
"37 c #aba19f",
"38 c #a79d9b",
"39 c #b78c7f",
"3a c #b88c7f",
"3b c #a89e9c",
"3c c #6d48cc",
"3d c #726492",
"3e c #997b8a",
"3f c #968b98",
"40 c #a79d9a",
"41 c #a47567",
"42 c #815d4d",
"43 c #957e84",
"44 c #675694",
"45 c #735449",
"46 c #5d3ab6",
"47 c #7b6585",
"48 c #835d50",
"49 c #3c2a3b",
"4a c #6e4ac9",
"4b c #644657",
"4c c #3b3377",
"4d c #60548a",
"4e c #2a2357",
"4f c #251e53",
"50 c #6d49cc",
"51 c #6945c6",
"52 c #342c6b",
"53 c #47289a",
"54 c #6e49cc",
"55 c #462995",
"56 c #362e61",
"57 c #2b245d",
"58 c #3f3081",
"59 c #5231a8",
"5a c #5332a9",
"5b c #393173",
"5c c #5837b0",
"5d c #6f4fc1",
"5e c #422d8a",
"5f c #5130a6",
"60 c #5d3bb6",
"61 c #6e4ec1",
"62 c #30285c",
"63 c #422584",
"64 c #d6a564",
"65 c #543494",
"66 c #442684",
"67 c #361e0d",
"68 c #68597f",
"69 c #3d3467",
"6a c #3e2211",
"6b c #a5656b",
"6c c #c7c4c4",
"6d c #5c4b64",
"6e c #5e5173",
"6f c #6f1f73",
"70 c #a78386",
"71 c #3b336f",
"72 c #5e5389",
"73 c #62568b",
"74 c #6c5f8a",
"75 c #582441",
"76 c #8d2f92",
"77 c #544661",
"78 c #736592",
"79 c #2c180b",
"7a c #99369e",
"7b c #726592",
"7c c #a8796b",
"7d c #886774",
"7e c #5b4f88",
"7f c #3f367a",
"80 c #2e1f26",
"81 c #d6d4d4",
"82 c #5a4f87",
"83 c #1f1107",
"84 c #291709",
"85 c #e5e4e4",
"86 c #695c8f",
"87 c #3d3477",
"88 c #201313",
"89 c #221207",
"8a c #c4c2c0",
"8b c #594b69",
"8c c #332b68",
"8d c #6f6291",
"8e c #481d3a",
"8f c #5f548a",
"90 c #383063",
"91 c #272056",
"92 c #7b308b",
"93 c #1f1108",
"94 c #732571",
"95 c #282157",
"96 c #4c4280",
"97 c #393070",
"98 c #2d1e33",
"99 c #592874",
"9a c #3a2010",
"9b c #6a5e8f",
"9c c #302863",
"9d c #2d1e32",
"9e c #483e70",
"9f c #755f94",
"a0 c #834f98",
"a1 c #852b8a",
"a2 c #321a12",
"a3 c #3b3375",
"a4 c #231b40",
"a5 c #2b180a",
"a6 c #321b0c",
"a7 c #401e20",
"a8 c #651f61",
"a9 c #2d131a",
"aa c #661f61",
"ab c #4f1e65",
"ac c #3a3273",
"ad c #473d7e",
"ae c #482125",
"af c #704585",
"b0 c #482126",
"b1 c #2a235a",
"b2 c #544984",
"b3 c #5f5274",
"b4 c #5c4f70",
"b5 c #1f1106",
"b6 c #70538b",
"b7 c #5d1f6b",
"b8 c #3b2c4d",
"b9 c #442f2d",
"ba c #5f5275",
"bb c #2f1e57",
"bc c #685a7f",
"bd c #241308",
"be c #2b170a",
"bf c #685b83",
"c0 c #2e1a0b",
"c1 c #533f48",
"c2 c #715f91",
"c3 c #493f71",
"c4 c #503d49",
"c5 c #554353",
"c6 c #322019",
"c7 c #675779",
"c8 c #2e2021",
"c9 c #271916",
"ca c #2e190b",
"cb c #311b0b",
"cc c #4d4056",
"cd c #5f4d65",
"ce c #321c0c",
"cf c #271508",
"d0 c #3b2d37",
"d1 c #4d3a42",
"d2 c #564864",
"d3 c #6a5b82",
"d4 c #47394b",
"d5 c #2a1709",
"d6 c #62557a",
"00000000000000000000000000000000000000000000000000000000000000000000000000000000000000000000000000000000000000000000000000000000",
"00000000000000000000000000000000000000000000000000000000000000000000000000000000000000000000000000000000000000000000000000000000",
"00000000000000000000000000000000000000000000000000000000000000000000000000000000000000000000000000000000000000000000000000000000",
"00000000000000000000000000000000000000000000000000000000000000000000000000000000000000000000000000000000000000000000000000000000",
"00000000000000000000000000000000000000000000000000000000000000000000000000000000000000000000000000000000000000000000000000000000",
"00000000000000000000000000000000000000000000000000000000000000000000000000000000000000000000000000000000000000000000000000000000",
"00000000000000000000000000000000000000000000000000000000000000000000000000000000000000000000000000000000000000000000000000000000",
"00000000000000000000000000000000000000000000000000000000000000000000000000000000000000000000000000000000000000000000000000000000",
"00000000000000000000000000000000000000000000000000000000000000000000000000000000000000000000000000000000000000000000000000000000",
"00000000000000000000000000000000000000000000000000000000000000000000000000000000000000000000000000000000000000000000000000000000",
"00000000000000000000000000000000000000000000000000000000000000000000000000000000000000000000000000000000000000000000000000000000",
"00000000000000000000000000010203030000000000000000000004050505050506000000000000000000000000000000000000000000000000000000000000",
"00000000000000000000000000070708020900000000000000000a05050505050505000000000000000000000000000000000000000000000000000000000000",
"000000000000000000000000000b0c0d0e0f10000000000000001112050505050505051300000000000000000000000000000000000000000000000000000000",
"00000000000000000000000000140c150c160c000000000000171819050505050505051a00000000000000000000000000000000000000000000000000000000",
"000000000000000000000000001b0c0c0c071c0000000000001d1e1f050505050505050505000000000000000000000000000000000000000000000000000000",
"00000000000000000000000000201b2121220c2100000000001d2323050505050505050505240000000000000000000000000000000000000000000000000000",
"000000000000000000000000000000001b1b0c1b0000000025262627050505050505050505050000000000000000000000000000000000000000000000000000",
"0000000000000000000000000000000000281b292a0000002b2c26272d2e05050505050505052f00000000000000000000000000000000000000000000000000",
"000000000000000000000000000000000000301b0c00000026262626313232050505050505050500000000000000000000000000000000000000000000000000",
"00000000000000000000000000000000000000333435000036263738313232323232323232323232000000000000000000000000000000000000000000000000",
"0000000000000000000000000000000000000000393a00003b3b3838313c3c323232323232323232000000000000000000000000000000000000000000000000",
"0000000000000000000000000000000000003d1d23233e003f383840050505053232323232323200000000000000000000000000000000000000000000000000",
"0000000000000000000000000000000000003d4123234200000000430505052e322e2e3232324400000000000000000000000000000000000000000000000000",
"000000000000000000000000000000000000001d1d23450c00000005050505463205053232000000000000000000000000000000000000000000000000000000",
"0000000000000000000000000000000000000000471d484900004a05050505463205050500000000000000000000000000000000000000000000000000000000",
"0000000000000000000000000000000000000000001d4b4c4d000505050505323205050505000000000000000000000000000000000000000000000000000000",
"000000000000000000000000000000000000000000004e4f4c325005050551323205050505000000000000000000000000000000000000000000000000000000",
"00000000000000000000000000000000000000000000004f524c3253050532325405050505000000000000000000000000000000000000000000000000000000",
"000000000000000000000000000000000000000000000000524c5532050532320505050505050000000000000000000000000000000000000000000000000000",
"00000000000000000000000000000000000000000000000056574c583259325a0505050505050000000000000000000000000000000000000000000000000000",
"000000000000000000000000000000000000000000000000004f5b4c3232325c0505050505055d00000000000000000000000000000000000000000000000000",
"000000000000000000000000000000000000000000000000004f4f4c5e32325f6005050505055d00000000000000000000000000000000000000000000000000",
"00000000000000000000000000000000000000000000000000004f4f4c3232323232050505056100000000000000000000000000000000000000000000000000",
"000000000000000000000000000000000000000000000000004f4f4f626364653232666767676768686800000000000000000000000000000000000000000000",
"000000000000000000000000000000000000000000000000694f4f4c4c346a6b3232676c6767676767676d000000000000000000000000000000000000000000",
"00000000000000000000000000000000000000000000004c4f4f5b4c006e6a6f3131676c671b1b1b67676d000000000000000000000000000000000000000000",
"00000000000000000000000000000000000000707070714f4f4c727300741b757676676c671b1b1b1b1b77000000000000000000000000000000000000000000",
"00000000000000000000000000000000000078231d234f4f4f000000000000797a7a676c671b1b1b1b1b77000000000000000000000000000000000000000000",
"0000000000000000000000000000000000007b237c1d7d000000007e7e7e7f806a7a6781671b1b1b1b1b77000000000000000000000000000000000000000000",
"00000000000000000000000000000000000000000000827f7f7f7f7f7f7f7f7f83846785671b1b1b1b1b77000000000000000000000000000000000000000000",
"0000000000000000000000000000000000000000867f7f7f7f7f7f7f7f7f7f878889678a671b1b1b1b1b8b000000000000000000000000000000000000000000",
"00000000000000000000000000000000000000007f7f7f7f7f7f7f7f7f7f7f8c4f836a6f6f6f6f6f7f7f00000000000000000000000000000000000000000000",
"0000000000000000000000000000000000008d7f7f7f7f7f7f7f7f4f4f4f4f4f4f8e6a7a6f6f6f6f7f7f8f000000000000000000000000000000000000000000",
"000000000000000000000000000000000000907f7f7f5757914f4f4f4f4f4f4f927a93946f6f6f6f957f7f960000000000000000000000000000000000000000",
"0000000000000000000000000000000000004f7f974f9867674f4f4f4f4f4f997a7a7a9a6f6f6f6f4f4f7f7f9b00000000000000000000000000000000000000",
"0000000000000000000000000000000000004f4f9c1b676767679d9e9e9fa07a7aa16fa26a6f6f6f4f4f4f8c7f7f000000000000000000000000000000000000",
"0000000000000000000000000000000000008d4f4f1b1b67676767677a7a7a7a6f6f6f6f6a6f6f6f4f4f4f4fa37f7f0000000000000000000000000000000000",
"0000000000000000000000000000000000008d4fa41b1b1ba5a6a66767a7a86f6f6f6f6fa9aa6f6fab4f4f4f4fac7fad00000000000000000000000000000000",
"0000000000000000000000000000000000000000a41b1b1b1b1b1b1b6767676f6f6f6f6f6f6aae6f6f4f4f4f4f4f4f7f7f000000000000000000000000000000",
"0000000000000000000000000000000000000000000000001b1b1b1b1b6767af6f6f6f6f6f83b06f6f6f4f4f4f4f4fb17fb20000000000000000000000000000",
"0000000000000000000000000000000000000000000000000000b3b41bb567670000b6b6b6b634b600b66fb74f4f4f4f7fb867b9000000000000000000000000",
"00000000000000000000000000000000000000000000000000000000001b1b67670000000000ba0c0000006fbb4f4f4f4f21676767bc00000000000000000000",
"0000000000000000000000000000000000000000000000000000000000001bbdbe0000000000bfc0c1000000c2c34f4f1b1b1ba667c4c5c50000000000000000",
"000000000000000000000000000000000000000000000000000000000000001b1b00000000000000a500000000004f4f1b1b1b1b676767676700000000000000",
"00000000000000000000000000000000000000000000000000000000000000000000000000000000c6c7000000000000c8c91b1b1bcacb676767000000000000",
"00000000000000000000000000000000000000000000000000000000000000000000000000000000cc0ccd00000000000000001b1b1b1b676767000000000000",
"00000000000000000000000000000000000000000000000000000000000000000000000000000000001bcd00000000000000001b1b1b1b1b6767000000000000",
"000000000000000000000000000000000000000000000000000000000000000000000000000000000000ce0000000000000000006e331b1bcf67000000000000",
"000000000000000000000000000000000000000000000000000000000000000000000000000000000000d00c000000000000000000001b1b1b67d10000000000",
"000000000000000000000000000000000000000000000000000000000000000000000000000000000000d21bd3000000000000000000d41b1bd5d10000000000",
"000000000000000000000000000000000000000000000000000000000000000000000000000000000000000000000000000000000000001b1b1bd10000000000",
"0000000000000000000000000000000000000000000000000000000000000000000000000000000000000000000000000000000000000000d61bc50000000000",
"00000000000000000000000000000000000000000000000000000000000000000000000000000000000000000000000000000000000000000000000000000000",
};
