/* XPM */
static char *image[] = {
"64 64 219 2",
"00 c #716493",
"01 c #716593",
"02 c #79749d",
"03 c #77709b",
"04 c #716199",
"05 c #6e49cd",
"06 c #6f6997",
"07 c #c1fffa",
"08 c #c0fdf9",
"09 c #bef9f6",
"0a c #99b2c7",
"0b c #6e4aca",
"0c c #706199",
"0d c #6e6997",
"0e c #33daff",
"0f c #3d2310",
"10 c #6e4cc7",
"11 c #6e6390",
"12 c #3b433a",
"13 c #3a5e5c",
"14 c #369fb2",
"15 c #665778",
"16 c #b07f5a",
"17 c #c09684",
"18 c #6f618e",
"19 c #387a82",
"1a c #712334",
"1b c #d4cecd",
"1c c #e7bb62",
"1d c #6e618d",
"1e c #1e1006",
"1f c #341d0d",
"20 c #3a5754",
"21 c #301b0c",
"22 c #5c4a5f",
"23 c #9a695b",
"24 c #a37a6b",
"25 c #a8796a",
"26 c #6e4cc5",
"27 c #bb8f82",
"28 c #23150f",
"29 c #3c2210",
"2a c #b4acba",
"2b c #d4cecc",
"2c c #6945c7",
"2d c #6d48cb",
"2e c #706391",
"2f c #6f6290",
"30 c #6c5e88",
"31 c #7d717f",
"32 c #837775",
"33 c #e4b862",
"34 c #5030a6",
"35 c #48299a",
"36 c #472899",
"37 c #372a31",
"38 c #d3cdcd",
"39 c #e8bc61",
"3a c #584a68",
"3b c #3a210f",
"3c c #4e383a",
"3d c #cac3c2",
"3e c #a89e9d",
"3f c #a79d9b",
"40 c #675694",
"41 c #b98e82",
"42 c #5d3ab6",
"43 c #8d676c",
"44 c #a7796b",
"45 c #867b96",
"46 c #918598",
"47 c #c2a983",
"48 c #5735ae",
"49 c #956862",
"4a c #99695b",
"4b c #b68a7d",
"4c c #9c797f",
"4d c #6a5d8f",
"4e c #6e4bc8",
"4f c #5a38b2",
"50 c #4c2ca0",
"51 c #716492",
"52 c #726491",
"53 c #261f53",
"54 c #3b3377",
"55 c #544a84",
"56 c #6e49cc",
"57 c #251e53",
"58 c #4e4475",
"59 c #2b245d",
"5a c #362e6f",
"5b c #5132a6",
"5c c #5232a8",
"5d c #6844c5",
"5e c #6541c1",
"5f c #5837b0",
"60 c #463c6e",
"61 c #302965",
"62 c #5d3bb6",
"63 c #5836b0",
"64 c #56367a",
"65 c #3f304d",
"66 c #361e0d",
"67 c #331d0d",
"68 c #695a7f",
"69 c #30285c",
"6a c #5f3e91",
"6b c #6b46c9",
"6c c #c7c4c4",
"6d c #321c0c",
"6e c #5c4b64",
"6f c #382b33",
"70 c #6f1f73",
"71 c #544661",
"72 c #392b33",
"73 c #6c5d86",
"74 c #99369e",
"75 c #c39a6e",
"76 c #5a4d6c",
"77 c #47322f",
"78 c #784f84",
"79 c #904a6e",
"7a c #886382",
"7b c #3d2311",
"7c c #a5656b",
"7d c #e9e9e9",
"7e c #261814",
"7f c #2f1b0c",
"80 c #703e81",
"81 c #77237b",
"82 c #b27669",
"83 c #e5e5e5",
"84 c #704585",
"85 c #706392",
"86 c #6a5c82",
"87 c #923297",
"88 c #853085",
"89 c #775c95",
"8a c #49322e",
"8b c #2f131d",
"8c c #251408",
"8d c #5e5e5e",
"8e c #332a23",
"8f c #78247c",
"90 c #4d4057",
"91 c #4a3432",
"92 c #361e5a",
"93 c #7a257e",
"94 c #8f429b",
"95 c #5e5173",
"96 c #54404a",
"97 c #69346c",
"98 c #443747",
"99 c #412e2d",
"9a c #852b8a",
"9b c #292259",
"9c c #7f5497",
"9d c #2c180a",
"9e c #3f367a",
"9f c #785c95",
"a0 c #97359c",
"a1 c #621f6d",
"a2 c #241a34",
"a3 c #3f3574",
"a4 c #2a225a",
"a5 c #641f6e",
"a6 c #5e1f6c",
"a7 c #3e3056",
"a8 c #351e5a",
"a9 c #953a9d",
"aa c #2b235c",
"ab c #493178",
"ac c #393171",
"ad c #383070",
"ae c #362e6d",
"af c #25161b",
"b0 c #372220",
"b1 c #3d3578",
"b2 c #812985",
"b3 c #765e94",
"b4 c #201520",
"b5 c #281e4b",
"b6 c #41387b",
"b7 c #493f71",
"b8 c #453849",
"b9 c #53404c",
"ba c #352d6b",
"bb c #5b1f6a",
"bc c #852b89",
"bd c #622b7a",
"be c #554353",
"bf c #6d5f89",
"c0 c #3c251a",
"c1 c #1f1317",
"c2 c #473d6f",
"c3 c #39210f",
"c4 c #2a235b",
"c5 c #342c69",
"c6 c #281a16",
"c7 c #311b0b",
"c8 c #2d190a",
"c9 c #351d0d",
"ca c #615377",
"cb c #3c2f3a",
"cc c #3c251b",
"cd c #615585",
"ce c #1f1210",
"cf c #513c43",
"d0 c #605484",
"d1 c #271916",
"d2 c #42323e",
"d3 c #574452",
"d4 c #312326",
"d5 c #5f5275",
"d6 c #645576",
"d7 c #311b0c",
"d8 c #4b373b",
"d9 c #564455",
"da c #2b180a",
"00000000000000000000000000000000000000000000000000000000000000000000000000000000000000000000000000000000000000000000000000000000",
"00000000000000000000000000000000000000000000000000000000000000000000000000000000000000000000000000000000000000000000000000000000",
"00000000000000000000000000000000000000000000000000000000000000000000000000000000000000000000000000000000000000000000000000000000",
"00000000000000000000000000000000000000000000000000000000000000000000000000000000000000000000000000000000000000000000000000000000",
"00000000000000000000000000000000000000000000000000000000000000000000000000000000000000000000000000000000000000000000000000000000",
"00000000000000000000000000000000000000000000000000000000000000000000000000000000000000000000000000000000000000000000000000000000",
"00000000000000000000000000000000000000000000000000000000000000000000000000000000000000000000000000000000000000000000000000000000",
"00000000000000000000000000000000000000000000000000000000000000000000000000000000000000000000000000000000000000000000000000000000",
"00000000000000000000000000000000000000000000000000000000000000000000000000000000000000000000000000000000000000000000000000000000",
"00000000000000000000000000000000000000000000000000000000000000000000000000000000000000000000000000000000000000000000000000000000",
"00000000000000000000000000000000000000000000000000000000000000000000000000000000000000000000000000000000000000000000000000000000",
"00000000000000000000000000000000000000000000000000000000000000000000000000000000000000000000000000000000000000000000000000000000",
"00000000000000000000000000000000000000000000000000000000000000000000000000000000000000000000000000000000000000000000000000000000",
"00000000000000000001020300000000000000000000000000000000040405050504040000000000000000000000000000000000000000000000000000000000",
"000000000000000000060708090a000000000000000000000000000b050505050505050c00000000000000000000000000000000000000000000000000000000",
"0000000000000000000d0e0e07070f00000000000000000000001005050505050505050505000000000000000000000000000000000000000000000000000000",
"000000000000000000110e120e131415000000000000000000001617050505050505050505000000000000000000000000000000000000000000000000000000",
"000000000000000000180f0f0e190e0f0000000000000000001a1b1c050505050505050505050000000000000000000000000000000000000000000000000000",
"0000000000000000001d1e1f0f200e21220000000000000000232425050505050505050505052600000000000000000000000000000000000000000000000000",
"000000000000000000001e1e1e1e0f0f1e0000000000000000232727050505050505050505050505000000000000000000000000000000000000000000000000",
"00000000000000000000000000281e291e000000000000002a1b1b2b2c0505050505050505052d2c000000000000000000000000000000000000000000000000",
"000000000000000000000000002e2f1e293000000000000031321b1b333405050505050505353536000000000000000000000000000000000000000000000000",
"000000000000000000000000000000371e0f0000000000001b1b1b38393636050505363636363600000000000000000000000000000000000000000000000000",
"000000000000000000000000000000003a3b3c00000000003d1b3e3f393636363636363636364000000000000000000000000000000000000000000000000000",
"0000000000000000000000000000000000274100000000003f3f3f3f390505423636363636000000000000000000000000000000000000000000000000000000",
"00000000000000000000000000000043442727000000000045464647480505053636363636000000000000000000000000000000000000000000000000000000",
"00000000000000000000000000000043232727270000000000000005050505423605053636000000000000000000000000000000000000000000000000000000",
"00000000000000000000000000000000494a4b274c4d000000004e050505054f3605055000000000000000000000000000000000000000000000000000000000",
"00000000000000000000000000000000005152235354550000000505050536365605050500000000000000000000000000000000000000000000000000000000",
"00000000000000000000000000000000000000235757545400000505050536360505050505000000000000000000000000000000000000000000000000000000",
"0000000000000000000000000000000000000000585757595a545b5c055d36360505050505000000000000000000000000000000000000000000000000000000",
"00000000000000000000000000000000000000000057575757545436055e365f0505050505540000000000000000000000000000000000000000000000000000",
"000000000000000000000000000000000000000000006057575761546263365f0505056464646500000000000000000000000000000000000000000000000000",
"00000000000000000000000000000000000000000000001e57575757363636050505666666666666666600000000000000000000000000000000000000000000",
"000000000000000000000000000000000000000000000000676869696a36366b0505666c666d6d6d66666e000000000000000000000000000000000000000000",
"0000000000000000000000000000000000000000000000006f0f0000703636363605666c661e1e1e1e1e71000000000000000000000000000000000000000000",
"000000000000000000000000000000000000000000000000721e7300747536363636666c661e1e1e1e1e71000000000000000000000000000000000000000000",
"000000000000000000000000000000000000000000000000007677000078797a3636666c661e1e1e1e1e71000000000000000000000000000000000000000000",
"00000000000000000000000000000000000000000000000000003b7b0000707c3636667d661e1e1e1e1e71000000000000000000000000000000000000000000",
"00000000000000000000000000000000000000000000000000007e7f0000808182826683661e1e1e1e1e71000000000000000000000000000000000000000000",
"0000000000000000000000000000000000000000000000000000001e000000847474661e661e1e1e1e1e00000000000000000000000000000000000000000000",
"000000000000000000000000000000000000000000000000000000850f86008487747474881e1e89000000000000000000000000000000000000000000000000",
"000000000000000000000000000000000000000000000000000000001e8a000070741e1e1e1e8b74740000000000000000000000000000000000000000000000",
"00000000000000000000000000000000000000000000000000000000008c00008d8e1e1e1e708f74740000000000000000000000000000000000000000000000",
"00000000000000000000000000000000000000000000000000000000009091001e8e1e9270937474749400000000000000000000000000000000000000000000",
"0000000000000000000000000000000000000000000000000000000000951e968d97705757707474747400000000000000000000000000000000000000000000",
"00000000000000000000000000000000000000000000000000000000000098999a9b575757708f7474749c000000000000000000000000000000000000000000",
"000000000000000000000000000000000000000000000000000000000000749d579e575757577074747474000000000000000000000000000000000000000000",
"000000000000000000000000000000000000000000000000000000009fa0a1a20fa3a45757a4a5747474749f0000000000000000000000000000000000000000",
"0000000000000000000000000000000000000000000000000000007470a69e9e1ea79e57579ea874747474740000000000000000000000000000000000000000",
"0000000000000000000000000000000000000000000000000000a97057aa9e9e9e0f5757579eab70747474740000000000000000000000000000000000000000",
"0000000000000000000000000000000000000000000000000000acad9e9e9eae57afb057579eb170b2747474b300000000000000000000000000000000000000",
"00000000000000000000000000000000000000000000000000009e9e9e9e575757b40fb557579e57707474747400000000000000000000000000000000000000",
"0000000000000000000000000000000000000000000000000000b69e9e575757b7b7b8b9b757ba9ebb70bcbd66666666bebe666666bf00000000000000000000",
"0000000000000000000000000000000000000000000000000000c06666c157c2000000c30057c49ec557579e6666666666661e1e666600000000000000000000",
"0000000000000000000000000000000000000000000000000000c066661e1e00000000c60f57579e9e9e9e1ec7c7c7c81e1e1e1e1ec9ca000000000000000000",
"0000000000000000000000000000000000000000000000000000c0661e1e1e00000000001e005757575757571e1e1e1e1e1e1ecb1e1e1e000000000000000000",
"0000000000000000000000000000000000000000000000000000cc661e1e1e0000000000000fcd5757575757ce1e1e1e1e1e0000001e1e000000000000000000",
"000000000000000000000000000000000000000000000000000066661e1e950000000000008ccfd0d0575757ce95959500000000000000000000000000000000",
"000000000000000000000000000000000000000000000000000066661e1e000000000000001e0f00000000000000000000000000000000000000000000000000",
"000000000000000000000000000000000000000000000000000066661ed10000000000000000d2d3000000000000000000000000000000000000000000000000",
"0000000000000000000000000000000000000000000000000066661e1ed40000000000000000d50f000000000000000000000000000000000000000000000000",
"0000000000000000000000000000000000000000000000d66666d71e1ed40000000000000000001ed80000000000000000000000000000000000000000000000",
"00000000000000000000000000000000000000000000d966661e1e1e1e0000000000000000000000da0000000000000000000000000000000000000000000000",
};
