/* XPM */
static char *image[] = {
"64 64 259 2",
"00 c #000000",
"01 c #1a1f1c",
"02 c #1b211d",
"03 c #1e231f",
"04 c #204129",
"05 c #1f422b",
"06 c #1c3f2a",
"07 c #1b3b29",
"08 c #234a2d",
"09 c #305a33",
"0a c #348642",
"0b c #318143",
"0c c #216e3e",
"0d c #1b603a",
"0e c #1c3c29",
"0f c #1a1e1c",
"10 c #1a1e1b",
"11 c #20442b",
"12 c #3a9547",
"13 c #56b850",
"14 c #4aae4d",
"15 c #428e44",
"16 c #235a34",
"17 c #1a492f",
"18 c #1b271f",
"19 c #1a1d1b",
"1a c #1b3626",
"1b c #2f7f43",
"1c c #4eb24e",
"1d c #6ac657",
"1e c #399a48",
"1f c #286738",
"20 c #1b2820",
"21 c #1b3225",
"22 c #1e663b",
"23 c #459446",
"24 c #4baf4d",
"25 c #4dad4d",
"26 c #286a39",
"27 c #1b2e23",
"28 c #1a5736",
"29 c #28713d",
"2a c #328743",
"2b c #3fa14a",
"2c c #499646",
"2d c #1d3525",
"2e c #1b3e2b",
"2f c #1a5033",
"30 c #255f36",
"31 c #479546",
"32 c #1b482f",
"33 c #1a1c1b",
"34 c #348c45",
"35 c #207040",
"36 c #1c2c22",
"37 c #1a1b1a",
"38 c #1d3625",
"39 c #348d45",
"3a c #489646",
"3b c #2c773e",
"3c c #263d2b",
"3d c #1b1c1b",
"3e c #1b2c21",
"3f c #297b42",
"40 c #3da34b",
"41 c #3ea34b",
"42 c #4a9746",
"43 c #2c442d",
"44 c #1e3424",
"45 c #1b2b21",
"46 c #2b753e",
"47 c #3da24b",
"48 c #5bc151",
"49 c #70ca59",
"4a c #4db14e",
"4b c #3da14a",
"4c c #489445",
"4d c #1b422d",
"4e c #1b2a20",
"4f c #1f6d3f",
"50 c #3ca14a",
"51 c #9cdf68",
"52 c #8fd763",
"53 c #6ec958",
"54 c #256639",
"55 c #256338",
"56 c #469346",
"57 c #5ec351",
"58 c #74cd5a",
"59 c #4f9b48",
"5a c #4c9a47",
"5b c #2b7d43",
"5c c #1d3726",
"5d c #1d3023",
"5e c #256137",
"5f c #318141",
"60 c #459145",
"61 c #4daf4d",
"62 c #6dc858",
"63 c #5ac051",
"64 c #4fb44e",
"65 c #43a74c",
"66 c #3b9347",
"67 c #223e28",
"68 c #1f271f",
"69 c #1b241e",
"6a c #1c2f22",
"6b c #317f40",
"6c c #389345",
"6d c #3a9b48",
"6e c #4aac4d",
"6f c #6bc356",
"70 c #88d361",
"71 c #98dd67",
"72 c #6eca58",
"73 c #2d4d30",
"74 c #1c2e22",
"75 c #243427",
"76 c #276e3d",
"77 c #418540",
"78 c #2d3d2a",
"79 c #266c3c",
"7a c #379044",
"7b c #66c055",
"7c c #68c456",
"7d c #56bd50",
"7e c #58be50",
"7f c #a7e26d",
"80 c #ace56f",
"81 c #9ee069",
"82 c #71cb59",
"83 c #337f41",
"84 c #307d3f",
"85 c #1b3c2a",
"86 c #2f7a3e",
"87 c #469a47",
"88 c #46a74b",
"89 c #4dac4c",
"8a c #448641",
"8b c #2c3c2a",
"8c c #245b35",
"8d c #40823f",
"8e c #368c43",
"8f c #449845",
"90 c #66c356",
"91 c #a5e16c",
"92 c #a0df6a",
"93 c #90da64",
"94 c #b2e771",
"95 c #88d660",
"96 c #55b750",
"97 c #40a64c",
"98 c #286d3d",
"99 c #243327",
"9a c #49aa4c",
"9b c #4aaf4d",
"9c c #3fa04a",
"9d c #266f3e",
"9e c #1b261f",
"9f c #2f773d",
"a0 c #52b54e",
"a1 c #76cc5a",
"a2 c #69c556",
"a3 c #4dab4c",
"a4 c #3a8d44",
"a5 c #3f7f3e",
"a6 c #358942",
"a7 c #379547",
"a8 c #40a04a",
"a9 c #65c156",
"aa c #82d05f",
"ab c #7ed25d",
"ac c #c3ee77",
"ad c #ade56f",
"ae c #a2e26b",
"af c #73cc59",
"b0 c #469947",
"b1 c #318844",
"b2 c #31793f",
"b3 c #2e753c",
"b4 c #3e7d3d",
"b5 c #2c3b29",
"b6 c #276437",
"b7 c #429444",
"b8 c #48a94c",
"b9 c #41a64c",
"ba c #233628",
"bb c #1a4b31",
"bc c #439346",
"bd c #5cc251",
"be c #75cd5a",
"bf c #57b851",
"c0 c #49ae4d",
"c1 c #409f4a",
"c2 c #62c453",
"c3 c #7acf5c",
"c4 c #41a74c",
"c5 c #4a9d48",
"c6 c #5cbb52",
"c7 c #82d25f",
"c8 c #a9e46d",
"c9 c #95db65",
"ca c #70cb59",
"cb c #398f45",
"cc c #3b9d49",
"cd c #4daa4c",
"ce c #469545",
"cf c #45a24a",
"d0 c #66bd54",
"d1 c #74cb5a",
"d2 c #67c456",
"d3 c #369246",
"d4 c #2a6639",
"d5 c #256539",
"d6 c #1e5e38",
"d7 c #1c5434",
"d8 c #1c2c21",
"d9 c #1b3c29",
"da c #1a5737",
"db c #2b7b42",
"dc c #388f46",
"dd c #469f4b",
"de c #3c9748",
"df c #4fa349",
"e0 c #2f8645",
"e1 c #287f43",
"e2 c #358b43",
"e3 c #379347",
"e4 c #409c49",
"e5 c #30763e",
"e6 c #2d8444",
"e7 c #3d9149",
"e8 c #53a550",
"e9 c #62ac50",
"ea c #50a34e",
"eb c #2d8545",
"ec c #236f3e",
"ed c #22673b",
"ee c #2a733d",
"ef c #4a9e48",
"f0 c #55a64b",
"f1 c #5aa84d",
"f2 c #22673a",
"f3 c #1f6038",
"f4 c #206a3d",
"f5 c #276d3c",
"f6 c #1b5e39",
"f7 c #1b5a37",
"f8 c #1b4c30",
"f9 c #1a4a30",
"fa c #1a2720",
"fb c #1a2e23",
"fc c #1f3927",
"fd c #223f28",
"fe c #294228",
"ff c #223c26",
"10 c #1e3324",
"10 c #1e3927",
"10 c #1a3225",
"00000000000000000000000000000000000000000000000000000000000000000000000000000000000000000000000000000000000000000000000000000000",
"00000000000000000000000000000000000000000000000000000000000000000000000000000000000000000000000000000000000000000000000000000000",
"00000000000000000000000000000000000000000000000000000000000000000000000000000000000000000000000000000000000000000000000000000000",
"00000000000000000000000000000000000000000000000000000000000000000000000000000000000000000000000000000000000000000000000000000000",
"00000000000000000000000000000000000000000000000000000000000000000000000000000000000000000000000000000000000000000000000000000000",
"00000000000000000000000000000000000000000000000000000000000000000000000000000000000000000000000000000000000000000000000000000000",
"00000000000000000000000000000000000000000000000000000000000000000000000000000000000000000000000000000000000000000000000000000000",
"00000000000000000000000000000000000000000000000000000000000000000000000000000000000000000000000000000000000000000000000000000000",
"00000000000000000000000000000000000000000000000000000000000000000000000000000000000000000000000000000000000000000000000000000000",
"00000000000000000000000000000000000000000000000000000000000000000000000000000000000000000000000000000000000000000000000000000000",
"00000000000000000000000000000000000000000000000000000000000000000000000000000000000000000000000000000000000000000000000000000000",
"00000000000000000000000000000000000000000000000000000000000000000000000000000000000000000000000000000000000000000000000000000000",
"00000000000000000000000000000000000000000000000000000000000000000000000000000000000000000000000000000000000000000000000000000000",
"00000000000000000000000000000000000000000000000000000000000000000000000000000000000000000000000000000000000000000000000000000000",
"00000000000000000000000000000000000000000000000000000000000000000000000000000000000000000000000000000000000000000000000000000000",
"00000000000000000000000000000000000000000000000000000000000000000000000000000000000000000000000000000000000000000000000000000000",
"00000000000000000000000000000000000000000000000000000000000000000000000000000000000000000000000000000000000000000000000000000000",
"00000000000000000000000000000000000000000000000000000000000000000000000000000000000000000000000000000000000000000000000000000000",
"00000000000000000000000000000000000000000000000000000000000000000000000000000000000000000000000000000000000000000000000000000000",
"00000000000000000000000000000000000000000000000000000000000000000000000000000000000000000000000000000000000000000000000000000000",
"00000000000000000000000000000000000000000000000000000000000000000000000000000000000000000000000000000000000000000000000000000000",
"00000000000000000000000000000000000000000000000000000000000000000001010101000000000000000000000000000000000000000000000000000000",
"00000000000000000000000000000000000000000000000000000000000000020304050607020000000000000000000000000000000000000000000000000000",
"0000000000000000000000000000000000000000000000000000000000000208090a0b0c0d0e0f00000000000000000000000000000000000000000000000000",
"00000000000000000000000000000000000000000000000000000000001011121314151617171800000000000000000000000000000000000000000000000000",
"00000000000000000000000000000000000000000000000000000000191a1b1c1d1e1f2000000000000000000000000000000000000000000000000000000000",
"00000000000000000000000000000000000000000000000000000019212223242526200000000000000000000000000000000000000000000000000000000000",
"0000000000000000000000000000000000000000000000000000002728292a2b2c2d000000000000000000000000000000000000000000000000000000000000",
"0000000000000000000000000000000000000000000000000000002e2f2f30312c32330000000000000000000000000000000000000000000000000000000000",
"00000000000000000000000000000000000000000000000000000000000033342c35360000000000000000000000000000000000000000000000000000000000",
"00000000000000000000000000000000000000000000000000000000003738393a3b3c3d37000000000000000000000000000000000000000000000000000000",
"00000000000000000000000000000000000000000000000000000000003e3f4041423f4344370000000000000000000000000000000000000000000000000000",
"000000000000000000000000000000000000000000000000000000004546474849494a4b4c4d0000000000000000000000000000000000000000000000000000",
"0000000000000000000000000000000000000000000000000000004e4f504a495151525347544e00000000000000000000000000000000000000000000000000",
"000000000000000000000000000000000000000000000000004e4e55564a1c575858595a5b5c3700000000000000000000000000000000000000000000000000",
"00000000000000000000000000000000000000000000005d5d5e5f60616263646566676869190000000000000000000000000000000000000000000000000000",
"000000000000006a6a0000000000000000000000206a6a6b6c6d6e6f7071721c4073190000000000000000006a6a6a6a00000000000000000000000000000000",
"000000000074757677780000000000207474747579777a7b7c7d7e7f8081821c408375000000000000000074847a777785000000000000000000000000000000",
"0000000074868788898a8b747474748c8d8e8f878889909191929394949596974023989920202000207474869a9b899c9d200000000000000000000000000000",
"0000009e9fa0a1a21ca3a4a5a5a6a6a7a8a9aaa21c1cab94acacad94aeaf1cb0b02cb1b2b3b3b4b5b6a5b7b81cb9b940b1ba1818181800000000000000000000",
"00009ebbbcbdbebf1c7ec0c1c140c04040c2c3c2c4c5c6c7c8c8c7c7c9cac42ccbcb3434bccccdcecfd0d1d2c4d3d3b034d4d5d5d6d7d89e9e9e9e9e00000000",
"0000d9dadbdcdddededfdee0e1e0dee2e3e4dde4e1e5e6e7e8e9ddddeaddebe5ecededeedbe2deefeff0f1dde1f2ece5ecf3f4f5f6f7f8f9f9f9f9f900000000",
"0000fafb1afcfdfdfdfefdfc1afcfdfffdfdfdfd1a101a10fdfefdfdfdfd101010fbfb101afffdfefefefefd1afb101010fb1010fbfbfbfbfbfbfbfb00000000",
"00000000000000000000000000000000000000000000000000000000000000000000000000000000000000000000000000000000000000000000000000000000",
"00000000000000000000000000000000000000000000000000000000000000000000000000000000000000000000000000000000000000000000000000000000",
"00000000000000000000000000000000000000000000000000000000000000000000000000000000000000000000000000000000000000000000000000000000",
"00000000000000000000000000000000000000000000000000000000000000000000000000000000000000000000000000000000000000000000000000000000",
"00000000000000000000000000000000000000000000000000000000000000000000000000000000000000000000000000000000000000000000000000000000",
"00000000000000000000000000000000000000000000000000000000000000000000000000000000000000000000000000000000000000000000000000000000",
"00000000000000000000000000000000000000000000000000000000000000000000000000000000000000000000000000000000000000000000000000000000",
"00000000000000000000000000000000000000000000000000000000000000000000000000000000000000000000000000000000000000000000000000000000",
"00000000000000000000000000000000000000000000000000000000000000000000000000000000000000000000000000000000000000000000000000000000",
"00000000000000000000000000000000000000000000000000000000000000000000000000000000000000000000000000000000000000000000000000000000",
"00000000000000000000000000000000000000000000000000000000000000000000000000000000000000000000000000000000000000000000000000000000",
"00000000000000000000000000000000000000000000000000000000000000000000000000000000000000000000000000000000000000000000000000000000",
"00000000000000000000000000000000000000000000000000000000000000000000000000000000000000000000000000000000000000000000000000000000",
"00000000000000000000000000000000000000000000000000000000000000000000000000000000000000000000000000000000000000000000000000000000",
"00000000000000000000000000000000000000000000000000000000000000000000000000000000000000000000000000000000000000000000000000000000",
"00000000000000000000000000000000000000000000000000000000000000000000000000000000000000000000000000000000000000000000000000000000",
"00000000000000000000000000000000000000000000000000000000000000000000000000000000000000000000000000000000000000000000000000000000",
"00000000000000000000000000000000000000000000000000000000000000000000000000000000000000000000000000000000000000000000000000000000",
"00000000000000000000000000000000000000000000000000000000000000000000000000000000000000000000000000000000000000000000000000000000",
"00000000000000000000000000000000000000000000000000000000000000000000000000000000000000000000000000000000000000000000000000000000",
"00000000000000000000000000000000000000000000000000000000000000000000000000000000000000000000000000000000000000000000000000000000",
};
