/* XPM */
static char *image[] = {
"64 64 231 2",
"00 c #000000",
"01 c #1a1e1c",
"02 c #1a1e1b",
"03 c #1b3024",
"04 c #1a1d1b",
"05 c #1a1f1c",
"06 c #1b2f24",
"07 c #1b3b2a",
"08 c #1b2720",
"09 c #1c1f1d",
"0a c #1b3626",
"0b c #1f3c27",
"0c c #21442b",
"0d c #1c3425",
"0e c #1b3c2a",
"0f c #1b1e1c",
"10 c #1e3e29",
"11 c #28462f",
"12 c #227542",
"13 c #339348",
"14 c #318c46",
"15 c #235e37",
"16 c #1b2820",
"17 c #1b1d1c",
"18 c #29412d",
"19 c #2d472f",
"1a c #2b462e",
"1b c #2b7f43",
"1c c #3fa44b",
"1d c #3da34b",
"1e c #3b9e4a",
"1f c #286e3b",
"20 c #1a1c1b",
"21 c #263e2c",
"22 c #489a47",
"23 c #71cc58",
"24 c #5ec451",
"25 c #4db34e",
"26 c #4bb14e",
"27 c #3ba04a",
"28 c #267440",
"29 c #1d3224",
"2a c #1d3626",
"2b c #329147",
"2c c #4cb24e",
"2d c #80d25d",
"2e c #5ac250",
"2f c #3ca24b",
"30 c #267640",
"31 c #1d3324",
"32 c #245634",
"33 c #3da24b",
"34 c #329047",
"35 c #1d3425",
"36 c #1a1b1a",
"37 c #2a763e",
"38 c #25362a",
"39 c #1e6e40",
"3a c #6eca57",
"3b c #29512d",
"3c c #318c45",
"3d c #29502d",
"3e c #243529",
"3f c #308d46",
"40 c #8ed863",
"41 c #a9e26d",
"42 c #49aa4b",
"43 c #244430",
"44 c #294f2c",
"45 c #1d3124",
"46 c #318644",
"47 c #69c556",
"48 c #88d361",
"49 c #7bcf5c",
"4a c #7dd05c",
"4b c #ade46f",
"4c c #c4ee78",
"4d c #6cc857",
"4e c #318844",
"4f c #308643",
"50 c #6ac756",
"51 c #68be53",
"52 c #2f542d",
"53 c #2f8342",
"54 c #48ad4d",
"55 c #9cdb69",
"56 c #bfec76",
"57 c #aae36d",
"58 c #9edd6a",
"59 c #b1e670",
"5a c #b4e771",
"5b c #70cb58",
"5c c #27402b",
"5d c #1c3023",
"5e c #bbea74",
"5f c #84c75c",
"60 c #2e512f",
"61 c #1c2f23",
"62 c #276839",
"63 c #399848",
"64 c #47ac4d",
"65 c #58c050",
"66 c #94da65",
"67 c #b5e772",
"68 c #a5df6d",
"69 c #8bd662",
"6a c #308342",
"6b c #2e8041",
"6c c #23402e",
"6d c #65c155",
"6e c #a6e16c",
"6f c #c3ed77",
"70 c #c7ef79",
"71 c #beeb75",
"72 c #47a349",
"73 c #225b36",
"74 c #2e7d40",
"75 c #399a48",
"76 c #49af4d",
"77 c #58bf50",
"78 c #6cc956",
"79 c #91d964",
"7a c #97db66",
"7b c #8cd762",
"7c c #77ce5a",
"7d c #aee46f",
"7e c #c2ed77",
"7f c #bcea75",
"80 c #66c355",
"81 c #47ab4c",
"82 c #449c48",
"83 c #368c43",
"84 c #2d7b3f",
"85 c #276638",
"86 c #1d603a",
"87 c #a4e06b",
"88 c #c3ee77",
"89 c #b5e872",
"8a c #69c656",
"8b c #389046",
"8c c #263b29",
"8d c #1b261f",
"8e c #1c2e22",
"8f c #266337",
"90 c #2d7a3f",
"91 c #379547",
"92 c #46aa4c",
"93 c #48ae4d",
"94 c #5bc350",
"95 c #7fd25c",
"96 c #78ce5b",
"97 c #59ba52",
"98 c #54b850",
"99 c #98dc67",
"9a c #97d967",
"9b c #68c556",
"9c c #81d05f",
"9d c #64c155",
"9e c #3a9f4a",
"9f c #308a45",
"a0 c #2d8845",
"a1 c #c2ee77",
"a2 c #c8f079",
"a3 c #89d661",
"a4 c #307e41",
"a5 c #24663a",
"a6 c #1b3929",
"a7 c #232323",
"a8 c #214b30",
"a9 c #1d5c38",
"aa c #266136",
"ab c #2c783e",
"ac c #389747",
"ad c #3a9e4a",
"ae c #41a74c",
"af c #45ab4c",
"b0 c #5bbb52",
"b1 c #79cf5b",
"b2 c #56b851",
"b3 c #399949",
"b4 c #53b152",
"b5 c #87d461",
"b6 c #ace26f",
"b7 c #96da66",
"b8 c #b7e972",
"b9 c #b7e872",
"ba c #2f8a46",
"bb c #2c7c40",
"bc c #1b3829",
"bd c #1e3a2c",
"be c #245735",
"bf c #1c5f3a",
"c0 c #1c683e",
"c1 c #1f613a",
"c2 c #227240",
"c3 c #277e43",
"c4 c #2d8545",
"c5 c #2b7940",
"c6 c #256f3e",
"c7 c #328a45",
"c8 c #44a24c",
"c9 c #3a9a49",
"ca c #22693c",
"cb c #3f8f46",
"cc c #53a752",
"cd c #5daa4f",
"ce c #28733e",
"cf c #47a24b",
"d0 c #66ae52",
"d1 c #67af52",
"d2 c #50a64f",
"d3 c #257a42",
"d4 c #2c7d41",
"d5 c #1c5b38",
"d6 c #1b4b31",
"d7 c #254831",
"d8 c #1e3f2e",
"d9 c #21492f",
"da c #1a251f",
"db c #1a2720",
"dc c #1d2e23",
"dd c #1a2e24",
"de c #1a3325",
"df c #1b3526",
"e0 c #1e3927",
"e1 c #1f3826",
"e2 c #1d3325",
"e3 c #224129",
"e4 c #294328",
"e5 c #234128",
"e6 c #1a2a22",
"00000000000000000000000000000000000000000000000000000000000000000000000000000000000000000000000000000000000000000000000000000000",
"00000000000000000000000000000000000000000000000000000000000000000000000000000000000000000000000000000000000000000000000000000000",
"00000000000000000000000000000000000000000000000000000000000000000000000000000000000000000000000000000000000000000000000000000000",
"00000000000000000000000000000000000000000000000000000000000000000000000000000000000000000000000000000000000000000000000000000000",
"00000000000000000000000000000000000000000000000000000000000000000000000000000000000000000000000000000000000000000000000000000000",
"00000000000000000000000000000000000000000000000000000000000000000000000000000000000000000000000000000000000000000000000000000000",
"00000000000000000000000000000000000000000000000000000000000000000000000000000000000000000000000000000000000000000000000000000000",
"00000000000000000000000000000000000000000000000000000000000000000000000000000000000000000000000000000000000000000000000000000000",
"00000000000000000000000000000000000000000000000000000000000000000000000000000000000000000000000000000000000000000000000000000000",
"00000000000000000000000000000000000000000000000000000000000000000000000000000000000000000000000000000000000000000000000000000000",
"00000000000000000000000000000000000000000000000000000000000000000000000000000000000000000000000000000000000000000000000000000000",
"00000000000000000000000000000000000000000000000000000000000000000000000000000000000000000000000000000000000000000000000000000000",
"00000000000000000000000000000000000000000000000000000000000000000000000000000000000000000000000000000000000000000000000000000000",
"00000000000000000000000000000000000000000000000000000000000000000000000000000000000000000000000000000000000000000000000000000000",
"00000000000000000000000000000000000000000000000000000000000000000000000000000000000000000000000000000000000000000000000000000000",
"00000000000000000000000000000000000000000000000000000000000000000000000000000000000000000000000000000000000000000000000000000000",
"00000000000000000000000000000000000000000000000000000000000000000000000000000000000000000000000000000000000000000000000000000000",
"00000000000000000000000000000000000000000000000000000000000000000000000000000000000000000000000000000000000000000000000000000000",
"00000000000000000000000000000000000000000000000000000000000000000000000000000000000000000000000000000000000000000000000000000000",
"00000000000000000000000000000000000000000000000000000000000000000000000000000000000000000000000000000000000000000000000000000000",
"00000000000000000000000000000000000000000000000000000000000000000000000000000000000000000000000000000000000000000000000000000000",
"00000000000000000000000000000000000000000000000000000000000000000000000000000000000000000000000000000000000000000000000000000000",
"00000000000000000000000000000000000000000000000000000000000000000000000000000000000000000000000000000000000000000000000000000000",
"00000000000000000000000000000000000000000000000000000000000000000000000000000001000000000000000000000000000000000000000000000000",
"00000000000000000000000000000000000000000000000000000000000000000000000000020003020000000000000000000000000000000000000000000000",
"00000000000000000000000000000000000000000000000004040504000000000000000000060407080000000000000000000000000000000000000000000000",
"0000000000000000000000000000000000000000000001090a0b0c0d0400000000000000000e0800000000000000000000000000000000000000000000000000",
"000000000000000000000000000000000000000f0f0f101112131415160000000000000000000000000000000000000000000000000000000000000000000000",
"0000000000000000000000000000000000001718191a1b1c1d1e1f16000000000000000000000000000000000000000000000000000000000000000000000000",
"00000000000000000000000000000000002021222324252627282900000000000000000000000000000000000000000000000000000000000000000000000000",
"00000000000000000000000000000000002a2b2c2d2d2e2f30310000000000000000000000000000000000000000000000000000000000000000000000000000",
"000000000000000000000000000000000032332c2c2c2c3435000000000000000000000000000000000000000000000000000000000000000000000000000000",
"000000000000000000000000000000000036371d1d2c2c1d35000000000000000000000000000038000000000000000000000000000000000000000000000000",
"000000000000000000000000000000000000392b1d2c3a263b00000000000000000000000000003c3d0000000000000000000000000000000000000000000000",
"00000000000000000000000000000000003e3f2f1d2c40414243000000000000000000000000292f424400000000000000000000000000000000000000000000",
"0000000000000000000000000000001645464748494a4b4c4d4e1600000000000000000000004f504a5152000000000000000000000000000000000000000000",
"00000000000000000000000000001615535455565758595a5b275c5d0000000000000000005d345b575e5f600000000000000000000000000000000000000000",
"000000000000000000000000086162636465666759666859691d6a6b6c61080808080808086b6d6e6f7071726c00000000000000000000000000000000000000",
"000000000000000000086161737475767778797a7b7c7d7e7f8081818283848586868686848187887070898a8b8c080000000000000000000000000000000000",
"0000008d8d8d8d8d8e8f90909192932c9495799697989970709a9b9b9c9d9e9fa0a0a0a09e9ba1a2a27059a393a4a5a600000000000000000000000000000000",
"0000a7a8a9a9a9aaabacadad1daeaeaeafb0b1b2aeb3b4b5b6b75bb2b15b1d34343434341d5bb8b8b8b959792cadbabbbc8da7a78d8d8d8d0000000000000000",
"0000bdbebfc0bfc1c2c3c46ac5c5c5c6c5c7c8c9c5cac6cbcccdc8c9c8c8c4cecacacace6acfd0d1d0d1d1d2c7c3d3d4d5d6d7d8d9d9d9d6da00000000000000",
"0000dbdcdddedddddedfe0e1e2e2e2dde2e0e3e3e2dddde1e3e4e3e3e3e3e0e2dddddde2e1e5e4e4e4e4e4e5e0df0ae1dedddce6dcdcdcdd0500000000000000",
"00000000000000000000000000000000000000000000000000000000000000000000000000000000000000000000000000000000000000000000000000000000",
"00000000000000000000000000000000000000000000000000000000000000000000000000000000000000000000000000000000000000000000000000000000",
"00000000000000000000000000000000000000000000000000000000000000000000000000000000000000000000000000000000000000000000000000000000",
"00000000000000000000000000000000000000000000000000000000000000000000000000000000000000000000000000000000000000000000000000000000",
"00000000000000000000000000000000000000000000000000000000000000000000000000000000000000000000000000000000000000000000000000000000",
"00000000000000000000000000000000000000000000000000000000000000000000000000000000000000000000000000000000000000000000000000000000",
"00000000000000000000000000000000000000000000000000000000000000000000000000000000000000000000000000000000000000000000000000000000",
"00000000000000000000000000000000000000000000000000000000000000000000000000000000000000000000000000000000000000000000000000000000",
"00000000000000000000000000000000000000000000000000000000000000000000000000000000000000000000000000000000000000000000000000000000",
"00000000000000000000000000000000000000000000000000000000000000000000000000000000000000000000000000000000000000000000000000000000",
"00000000000000000000000000000000000000000000000000000000000000000000000000000000000000000000000000000000000000000000000000000000",
"00000000000000000000000000000000000000000000000000000000000000000000000000000000000000000000000000000000000000000000000000000000",
"00000000000000000000000000000000000000000000000000000000000000000000000000000000000000000000000000000000000000000000000000000000",
"00000000000000000000000000000000000000000000000000000000000000000000000000000000000000000000000000000000000000000000000000000000",
"00000000000000000000000000000000000000000000000000000000000000000000000000000000000000000000000000000000000000000000000000000000",
"00000000000000000000000000000000000000000000000000000000000000000000000000000000000000000000000000000000000000000000000000000000",
"00000000000000000000000000000000000000000000000000000000000000000000000000000000000000000000000000000000000000000000000000000000",
"00000000000000000000000000000000000000000000000000000000000000000000000000000000000000000000000000000000000000000000000000000000",
"00000000000000000000000000000000000000000000000000000000000000000000000000000000000000000000000000000000000000000000000000000000",
"00000000000000000000000000000000000000000000000000000000000000000000000000000000000000000000000000000000000000000000000000000000",
"00000000000000000000000000000000000000000000000000000000000000000000000000000000000000000000000000000000000000000000000000000000",
};
