/* XPM */
static char *image[] = {
"64 64 258 2",
"00 c #ff000000",
"01 c #1a1e1b",
"02 c #1b201c",
"03 c #1a1d1b",
"04 c #1d3726",
"05 c #22472c",
"06 c #1d251f",
"07 c #1a1e1c",
"08 c #1d3525",
"09 c #1e3a27",
"0a c #29723d",
"0b c #3a9a48",
"0c c #2b5b36",
"0d c #1a1c1b",
"0e c #203f29",
"0f c #2a733d",
"10 c #308d47",
"11 c #3b9a49",
"12 c #48aa4b",
"13 c #399948",
"14 c #1f3526",
"15 c #1c2f23",
"16 c #378a43",
"17 c #4cae50",
"18 c #4eb54d",
"19 c #3fa54b",
"1a c #2a4a30",
"1b c #265232",
"1c c #3da04a",
"1d c #52bb4e",
"1e c #53bc4e",
"1f c #5dc252",
"20 c #4fb64e",
"21 c #2d8a46",
"22 c #1b2c22",
"23 c #1a1b1a",
"24 c #307f41",
"25 c #4cb34d",
"26 c #6fca58",
"27 c #3fa34b",
"28 c #1d452d",
"29 c #1b2b21",
"2a c #2a763e",
"2b c #47a84b",
"2c c #54bc4e",
"2d c #5dc152",
"2e c #6eca58",
"2f c #4bac50",
"30 c #1b2a21",
"31 c #266a3b",
"32 c #389648",
"33 c #81d35e",
"34 c #81d45e",
"35 c #5cc152",
"36 c #4cb44d",
"37 c #389748",
"38 c #266b3b",
"39 c #1d3225",
"3a c #1b2920",
"3b c #1d3224",
"3c c #449745",
"3d c #6cc857",
"3e c #8ed863",
"3f c #9edf68",
"40 c #90d964",
"41 c #399848",
"42 c #1e673c",
"43 c #1b2d22",
"44 c #307b3f",
"45 c #1d3124",
"46 c #256639",
"47 c #3b9a48",
"48 c #8bd461",
"49 c #ade56e",
"4a c #afe66f",
"4b c #84d55f",
"4c c #60c353",
"4d c #297d42",
"4e c #1b2e23",
"4f c #348040",
"50 c #4ab04c",
"51 c #29502d",
"52 c #243626",
"53 c #4f9048",
"54 c #56b74f",
"55 c #7bcf5c",
"56 c #aee56f",
"57 c #c7ef79",
"58 c #b2e770",
"59 c #49ab4c",
"5a c #3a9948",
"5b c #287b42",
"5c c #449744",
"5d c #6bc757",
"5e c #48a94a",
"5f c #284d2c",
"60 c #233426",
"61 c #519546",
"62 c #a5dc6b",
"63 c #bae974",
"64 c #abe46d",
"65 c #b5e871",
"66 c #a2e16a",
"67 c #4aab4f",
"68 c #49b04c",
"69 c #369347",
"6a c #283f2b",
"6b c #55a24a",
"6c c #a8e36d",
"6d c #a3e06b",
"6e c #65b952",
"6f c #2e5231",
"70 c #1b2720",
"71 c #1c2e23",
"72 c #266f3d",
"73 c #459f47",
"74 c #a2db6a",
"75 c #c6ee78",
"76 c #caf07a",
"77 c #93da65",
"78 c #51b94e",
"79 c #69c656",
"7a c #56ba50",
"7b c #358943",
"7c c #273c2a",
"7d c #2d3d2a",
"7e c #7fb658",
"7f c #64b752",
"80 c #27492a",
"81 c #245e36",
"82 c #328341",
"83 c #45a84b",
"84 c #77cd5a",
"85 c #b7e972",
"86 c #98dc66",
"87 c #9fe069",
"88 c #aee66f",
"89 c #abe46e",
"8a c #86d460",
"8b c #69c756",
"8c c #95dc65",
"8d c #a0df6a",
"8e c #64bf55",
"8f c #358642",
"90 c #273b29",
"91 c #3e843e",
"92 c #7dbb59",
"93 c #a9de6c",
"94 c #3a9345",
"95 c #1c3b28",
"96 c #1c2d22",
"97 c #223225",
"98 c #266437",
"99 c #368942",
"9a c #43a349",
"9b c #47ad4c",
"9c c #51ba4e",
"9d c #82d45e",
"9e c #a3e26b",
"9f c #7ed15e",
"a0 c #77cd5b",
"a1 c #c4ee78",
"a2 c #bceb75",
"a3 c #a2e06a",
"a4 c #aee56e",
"a5 c #94db65",
"a6 c #4db34c",
"a7 c #358342",
"a8 c #25683a",
"a9 c #28743e",
"aa c #3d8c42",
"ab c #7fca5d",
"ac c #5db251",
"ad c #287840",
"ae c #263928",
"af c #1b261f",
"b0 c #2b6b39",
"b1 c #3c8941",
"b2 c #358541",
"b3 c #317c3f",
"b4 c #429343",
"b5 c #479944",
"b6 c #3f8c45",
"b7 c #399747",
"b8 c #4db54d",
"b9 c #58bd50",
"ba c #55b850",
"bb c #4eb64d",
"bc c #74cd59",
"bd c #9add67",
"be c #5ac051",
"bf c #4bad4e",
"c0 c #76c259",
"c1 c #aae46d",
"c2 c #b8e973",
"c3 c #a4e26b",
"c4 c #5abf51",
"c5 c #2b8445",
"c6 c #2b8344",
"c7 c #399c4a",
"c8 c #50b74d",
"c9 c #91d964",
"ca c #52af51",
"cb c #359347",
"cc c #348141",
"cd c #246539",
"ce c #1d5c38",
"cf c #1c5535",
"d0 c #1c2c22",
"d1 c #182232",
"d2 c #1a3e2c",
"d3 c #1a4930",
"d4 c #2c783f",
"d5 c #378b44",
"d6 c #2e8745",
"d7 c #2d8344",
"d8 c #388f45",
"d9 c #48a147",
"da c #4aa348",
"db c #3e9d4a",
"dc c #358a44",
"dd c #3e9745",
"de c #419847",
"df c #409646",
"e0 c #3c9445",
"e1 c #479b48",
"e2 c #5cac4e",
"e3 c #52aa50",
"e4 c #3b9145",
"e5 c #277740",
"e6 c #3c8944",
"e7 c #55a14d",
"e8 c #66b052",
"e9 c #67bb56",
"ea c #60ae50",
"eb c #2b783f",
"ec c #216f3f",
"ed c #308342",
"ee c #73b856",
"ef c #519f4c",
"f0 c #317e41",
"f1 c #2e8041",
"f2 c #26703d",
"f3 c #1d683d",
"f4 c #1b5b38",
"f5 c #1b4c31",
"f6 c #194837",
"f7 c #1a2921",
"f8 c #1a2e23",
"f9 c #1f3826",
"fa c #213b27",
"fb c #233e27",
"fc c #284328",
"fd c #244329",
"fe c #1b3225",
"ff c #29482a",
"10 c #1e3425",
"10 c #2e472a",
"00000000000000000000000000000000000000000000000000000000000000000000000000000000000000000000000000000000000000000000000000000000",
"00000000000000000000000000000000000000000000000000000000000000000000000000000000000000000000000000000000000000000000000000000000",
"00000000000000000000000000000000000000000000000000000000000000000000000000000000000000000000000000000000000000000000000000000000",
"00000000000000000000000000000000000000000000000000000000000000000000000000000000000000000000000000000000000000000000000000000000",
"00000000000000000000000000000000000000000000000000000000000000000000000000000000000000000000000000000000000000000000000000000000",
"00000000000000000000000000000000000000000000000000000000000000000000000000000000000000000000000000000000000000000000000000000000",
"00000000000000000000000000000000000000000000000000000000000000000000000000000000000000000000000000000000000000000000000000000000",
"00000000000000000000000000000000000000000000000000000000000000000000000000000000000000000000000000000000000000000000000000000000",
"00000000000000000000000000000000000000000000000000000000000000000000000000000000000000000000000000000000000000000000000000000000",
"00000000000000000000000000000000000000000000000000000000000000000000000000000000000000000000000000000000000000000000000000000000",
"00000000000000000000000000000000000000000000000000000000000000000000000000000000000000000000000000000000000000000000000000000000",
"00000000000000000000000000000000000000000000000000000000000000000000000000000000000000000000000000000000000000000000000000000000",
"00000000000000000000000000000000000000000000000000000000000000000000000000000000000000000000000000000000000000000000000000000000",
"00000000000000000000000000000000000000000000000000000000000000000000000000000000000000000000000000000000000000000000000000000000",
"00000000000000000000000000000000000000000000000000000000000000000000000000000000000000000000000000000000000000000000000000000000",
"00000000000000000000000000000000000000000000000000000000000000000000000000000000000000000000000000000000000000000000000000000000",
"00000000000000000000000000000000000000000000000000000000000000000000000000000000000000000000000000000000000000000000000000000000",
"00000000000000000000000000000000000000000000000000000000000000000000000000000000000000000000000000000000000000000000000000000000",
"00000000000000000000000000000000000000000000000000000000000000000000000000000000000000000000000000000000000000000000000000000000",
"00000000000000000000000000000000000000000000000000000000000000000000000000000000000000000000000000000000000000000000000000000000",
"00000000000000000000000000000000000000000000000000000000000000000000000000000000000000000000000000000000000000000000000000000000",
"00000000000000000000000000000000000000000000000000000000000000000000000000000000000000000000000000000000000000000000000000000000",
"00000000000000000000000000000000000000000000000000000000000000000000000000000000000000000000000000000000000000000000000000000000",
"00000000000000000000000000000000000000000000000000000000000000000000000000000000000000000000000000000000000000000000000000000000",
"00000000000000000000000000000000000000000000000000000102000000000000000000000000000000000000000000000000000000000000000000000000",
"00000000000000000000000000000000000000000000000003030405060000000000000000000000000000000000000000000000000000000000000000000000",
"00000000000000000000000000000000000000000000000708090a0b0c0700000000000000000000000000000000000000000000000000000000000000000000",
"000000000000000000000000000000000000000000000d0e0f101112131400000000000000000000000000000000000000000000000000000000000000000000",
"00000000000000000000000000000000000000000000151612171718191a0d000000000000000000000000000000000000000000000000000000000000000000",
"000000000000000000000000000000000000000000001b1c1d1e1e1f202122000000000000000000000000000000000000000000000000000000000000000000",
"000000000000000000000000000000000000000000002324251e1e26262728230000000000000000000000000000000000000000000000000000000000000000",
"00000000000000000000000000000000000000000000292a2b2c2d262e2f2a300000000000000000000000000000000000000000000000000000000000000000",
"0000000000000000000000000000000000000000000031321e333435363738300000000000000000003900000000000000000000000000000000000000000000",
"00000000000000000000000000000000000000003a3b3c3d3e3f40354142432300000000000000003b443b000000000000000000000000000000000000000000",
"0000000000000000000000000000000000000045464748494a4b4c124d4e230000000000000000004f5051000000000000000000000000000000000000000000",
"000000000000000000000000000000000000525354555657584c595a5b30000000000000000000005c5d5e5f0000000000000000000000000000000000000000",
"00000000000000000000000000000000156061626364586566356768696a000000000000000000006b6c6d6e6f00000000000000000000000000000000000000",
"000000000000000000000000000070717273747576586666773578797a7b7c00000000000000717d7e7575637f80000000000000000000000000000000000000",
"000000000000000000000000707181828384588585868788898a8b8c8d8e8f907070707071719192937676768c94950000000000000000000000000000000000",
"00000000969696969697979698999a9b9c9d589e9fa087a1a1a2a3a458a5a6a7a89898a8a9aaaba2a1767676a4acadaeafafaf00000000000000000000000000",
"0000afafb0b1b2b3b2b4b5b6b7b8b9babbbcbda5bebfc0c1c2c2c3bdc3a5c437c5c6c6c5c7c8c9c2c2c2c2c2bdcacbcccdcecfd0d1d1afafafafafaf00000000",
"0000d2d3d4d5d6d7d8d9dadbdcdddedfe0e1e2e3e4e5e6e7e8e9eae2eae2deebececececeddde3e8e8e8eee9eff0ebf1f2f3f4f5f6f6d3d3d3d3d3d300000000",
"0000f7f8f9fa0909fbfcfcfdfafbfbfbfbfbfcfdfafef9fbfcfffcfcfcfcfb10fefefefef9fbfdfcfcfc10fffb1010f910fef8f8f8f8f8f8f8f8f8f800000000",
"00000000000000000000000000000000000000000000000000000000000000000000000000000000000000000000000000000000000000000000000000000000",
"00000000000000000000000000000000000000000000000000000000000000000000000000000000000000000000000000000000000000000000000000000000",
"00000000000000000000000000000000000000000000000000000000000000000000000000000000000000000000000000000000000000000000000000000000",
"00000000000000000000000000000000000000000000000000000000000000000000000000000000000000000000000000000000000000000000000000000000",
"00000000000000000000000000000000000000000000000000000000000000000000000000000000000000000000000000000000000000000000000000000000",
"00000000000000000000000000000000000000000000000000000000000000000000000000000000000000000000000000000000000000000000000000000000",
"00000000000000000000000000000000000000000000000000000000000000000000000000000000000000000000000000000000000000000000000000000000",
"00000000000000000000000000000000000000000000000000000000000000000000000000000000000000000000000000000000000000000000000000000000",
"00000000000000000000000000000000000000000000000000000000000000000000000000000000000000000000000000000000000000000000000000000000",
"00000000000000000000000000000000000000000000000000000000000000000000000000000000000000000000000000000000000000000000000000000000",
"00000000000000000000000000000000000000000000000000000000000000000000000000000000000000000000000000000000000000000000000000000000",
"00000000000000000000000000000000000000000000000000000000000000000000000000000000000000000000000000000000000000000000000000000000",
"00000000000000000000000000000000000000000000000000000000000000000000000000000000000000000000000000000000000000000000000000000000",
"00000000000000000000000000000000000000000000000000000000000000000000000000000000000000000000000000000000000000000000000000000000",
"00000000000000000000000000000000000000000000000000000000000000000000000000000000000000000000000000000000000000000000000000000000",
"00000000000000000000000000000000000000000000000000000000000000000000000000000000000000000000000000000000000000000000000000000000",
"00000000000000000000000000000000000000000000000000000000000000000000000000000000000000000000000000000000000000000000000000000000",
"00000000000000000000000000000000000000000000000000000000000000000000000000000000000000000000000000000000000000000000000000000000",
"00000000000000000000000000000000000000000000000000000000000000000000000000000000000000000000000000000000000000000000000000000000",
"00000000000000000000000000000000000000000000000000000000000000000000000000000000000000000000000000000000000000000000000000000000",
"00000000000000000000000000000000000000000000000000000000000000000000000000000000000000000000000000000000000000000000000000000000",
};
