/* XPM */
static char *image[] = {
"64 64 279 2",
"00 c #000000",
"01 c #1a1e1c",
"02 c #193527",
"03 c #1a1d1b",
"04 c #1a201d",
"05 c #1c3727",
"06 c #185838",
"07 c #184d32",
"08 c #184931",
"09 c #1a251f",
"0a c #1c3526",
"0b c #1e472e",
"0c c #256b3c",
"0d c #185135",
"0e c #1a2520",
"0f c #1a2c23",
"10 c #1a3025",
"11 c #22673c",
"12 c #2a8445",
"13 c #286b3a",
"14 c #1b3125",
"15 c #183c2b",
"16 c #184f34",
"17 c #1b5a38",
"18 c #1e643b",
"19 c #1b3226",
"1a c #1a1b1a",
"1b c #1a1c1b",
"1c c #1a1b1b",
"1d c #1b2c22",
"1e c #1c3a29",
"1f c #1b1c1b",
"20 c #1a2b22",
"21 c #1a2921",
"22 c #1b3728",
"23 c #26392b",
"24 c #2c773e",
"25 c #309148",
"26 c #264831",
"27 c #1c663d",
"28 c #1a2821",
"29 c #24673c",
"2a c #359448",
"2b c #57b651",
"2c c #66c554",
"2d c #56c14f",
"2e c #369549",
"2f c #1b3528",
"30 c #25362a",
"31 c #307d41",
"32 c #449845",
"33 c #264631",
"34 c #1a2720",
"35 c #1b623c",
"36 c #5ac050",
"37 c #9cde68",
"38 c #b1e66f",
"39 c #66c655",
"3a c #307f42",
"3b c #1b3628",
"3c c #1b3427",
"3d c #358542",
"3e c #5abf50",
"3f c #79cd5b",
"40 c #56b350",
"41 c #243529",
"42 c #185436",
"43 c #2b8545",
"44 c #43a84c",
"45 c #73cc59",
"46 c #b3e770",
"47 c #b5e871",
"48 c #59b952",
"49 c #263c2c",
"4a c #2e7840",
"4b c #50b74d",
"4c c #92da64",
"4d c #bdeb74",
"4e c #7fd25d",
"4f c #25372a",
"50 c #1a2620",
"51 c #23663b",
"52 c #359449",
"53 c #44aa4c",
"54 c #68c755",
"55 c #a8e36c",
"56 c #5bc151",
"57 c #264530",
"58 c #1b3326",
"59 c #358843",
"5a c #79cf5b",
"5b c #76ce5a",
"5c c #2b8344",
"5d c #439846",
"5e c #55bc4f",
"5f c #87d660",
"60 c #a8e36d",
"61 c #5cc251",
"62 c #2b7f43",
"63 c #233328",
"64 c #327d3f",
"65 c #42a54b",
"66 c #4db54d",
"67 c #51b74f",
"68 c #4fb150",
"69 c #45a94d",
"6a c #1e6c3f",
"6b c #349348",
"6c c #44a74b",
"6d c #4ab14d",
"6e c #4cb44d",
"6f c #5abf51",
"70 c #72cb59",
"71 c #40a44b",
"72 c #264b2c",
"73 c #233227",
"74 c #286839",
"75 c #318543",
"76 c #399045",
"77 c #4fa24b",
"78 c #4db24c",
"79 c #4bb34d",
"7a c #3fa64b",
"7b c #389949",
"7c c #2f8d47",
"7d c #2b7d42",
"7e c #243f2d",
"7f c #233127",
"80 c #2c6f3d",
"81 c #3d9144",
"82 c #41a64b",
"83 c #54bc4e",
"84 c #57bd50",
"85 c #4ea34b",
"86 c #3e9245",
"87 c #308242",
"88 c #2b7e41",
"89 c #49954a",
"8a c #4e9e4a",
"8b c #469748",
"8c c #368d44",
"8d c #44a64a",
"8e c #54b94f",
"8f c #69c457",
"90 c #6fc958",
"91 c #45ac4c",
"92 c #3da34b",
"93 c #2c8846",
"94 c #409545",
"95 c #4ea14b",
"96 c #26472a",
"97 c #1b3025",
"98 c #286638",
"99 c #243e2c",
"9a c #1a3125",
"9b c #223026",
"9c c #32763d",
"9d c #429645",
"9e c #52b24d",
"9f c #56b84e",
"a0 c #4fb74d",
"a1 c #4cb54d",
"a2 c #6fca58",
"a3 c #88d361",
"a4 c #6fc758",
"a5 c #4bb24d",
"a6 c #44ab4c",
"a7 c #87d161",
"a8 c #aae06d",
"a9 c #92d665",
"aa c #68c356",
"ab c #6bc757",
"ac c #89d661",
"ad c #8fd863",
"ae c #75cd5a",
"af c #4fb64e",
"b0 c #40a74b",
"b1 c #3ea54b",
"b2 c #439b46",
"b3 c #2f9048",
"b4 c #2e8e47",
"b5 c #7dce5d",
"b6 c #9fdd6a",
"b7 c #63b050",
"b8 c #2b4b29",
"b9 c #1b2f25",
"ba c #28753f",
"bb c #43a549",
"bc c #51b64f",
"bd c #3d9345",
"be c #233c2c",
"bf c #1a241f",
"c0 c #266538",
"c1 c #3c8b43",
"c2 c #52b34d",
"c3 c #5fc153",
"c4 c #59c050",
"c5 c #46ac4c",
"c6 c #63c553",
"c7 c #8dd762",
"c8 c #80d35d",
"c9 c #56b951",
"ca c #aee56f",
"cb c #a6e26c",
"cc c #8ed863",
"cd c #84d35f",
"ce c #97dc66",
"cf c #6bc856",
"d0 c #339549",
"d1 c #338c46",
"d2 c #349449",
"d3 c #84d45f",
"d4 c #aae36d",
"d5 c #58a94a",
"d6 c #469844",
"d7 c #419244",
"d8 c #2f7c40",
"d9 c #27723e",
"da c #236439",
"db c #266e3c",
"dc c #338944",
"dd c #6eca58",
"de c #56bb4f",
"df c #378a44",
"e0 c #276e3c",
"e1 c #1b2e24",
"e2 c #183e2e",
"e3 c #266c3c",
"e4 c #368b45",
"e5 c #419a47",
"e6 c #449b48",
"e7 c #469c49",
"e8 c #55a94c",
"e9 c #41a34b",
"ea c #3c9546",
"eb c #399848",
"ec c #4ea850",
"ed c #4ca84f",
"ee c #409747",
"ef c #2a8144",
"f0 c #348842",
"f1 c #4c9f4b",
"f2 c #57ac53",
"f3 c #62af51",
"f4 c #5dad4f",
"f5 c #59ab4d",
"f6 c #6ab551",
"f7 c #4fa64a",
"f8 c #3a9346",
"f9 c #27743f",
"fa c #26693c",
"fb c #26663b",
"fc c #217240",
"fd c #267b43",
"fe c #49a348",
"ff c #47a147",
"10 c #26713f",
"10 c #256d3e",
"10 c #256139",
"10 c #29723e",
"10 c #388e45",
"10 c #489d4a",
"10 c #389145",
"10 c #237742",
"10 c #214e32",
"10 c #184a31",
"10 c #192922",
"10 c #1d3325",
"10 c #213b27",
"10 c #233e27",
"10 c #284328",
"10 c #234229",
"11 c #224129",
"11 c #1b3626",
"11 c #1f3826",
"11 c #2e4729",
"11 c #1d2e23",
"11 c #1a3325",
"11 c #192e24",
"00000000000000000000000000000000000000000000000000000000000000000000000000000000000000000000000000000000000000000000000000000000",
"00000000000000000000000000000000000000000000000000000000000000000000000000000000000000000000000000000000000000000000000000000000",
"00000000000000000000000000000000000000000000000000000000000000000000000000000000000000000000000000000000000000000000000000000000",
"00000000000000000000000000000000000000000000000000000000000000000000000000000000000000000000000000000000000000000000000000000000",
"00000000000000000000000000000000000000000000000000000000000000000000000000000000000000000000000000000000000000000000000000000000",
"00000000000000000000000000000000000000000000000000000000000000000000000000000000000000000000000000000000000000000000000000000000",
"00000000000000000000000000000000000000000000000000000000000000000000000000000000000000000000000000000000000000000000000000000000",
"00000000000000000000000000000000000000000000000000000000000000000000000000000000000000000000000000000000000000000000000000000000",
"00000000000000000000000000000000000000000000000000000000000000000000000000000000000000000000000000000000000000000000000000000000",
"00000000000000000000000000000000000000000000000000000000000000000000000000000000000000000000000000000000000000000000000000000000",
"00000000000000000000000000000000000000000000000000000000000000000000000000000000000000000000000000000000000000000000000000000000",
"00000000000000000000000000000000000000000000000000000000000000000000000000000000000000000000000000000000000000000000000000000000",
"00000000000000000000000000000000000000000000000000000000000000000000000000000000000000000000000000000000000000000000000000000000",
"00000000000000000000000000000000000000000000000000000000000000000000000000000000000000000000000000000000000000000000000000000000",
"00000000000000000000000000000000000000000000000000000000000000000000000000000000000000000000000000000000000000000000000000000000",
"00000000000000000000000000000000000000000000000000000000000000000000000000000000000000000000000000000000000000000000000000000000",
"00000000000000000000000000000000000000000000000000000000000000000000000000000000000000000000000000000000000000000000000000000000",
"00000000000000000000000000000000000000000000000000000000000000000000000000000000000000000000000000000000000000000000000000000000",
"00000000000000000000000000000000000000000000000000000000000000000000000000000000000000000000000000000000000000000000000000000000",
"00000000000000000000000000000000000000000000000000000000000000000000000000000000000000000000000000000000000000000000000000000000",
"00000000000000000000000000000000000000000000000000000000000000000000000000000000000000000000000000000000000000000000000000000000",
"00000000000000000000000000000000000000000000000000000000000000000000000000000000000000000000000000000000000000000000000000000000",
"00000000000000000000000000000000000000000000000000000000000000000000000001010100000000000000000000000000000000000000000000000000",
"00000000000000000000000000000000000000000000000000000000000000000000000102020201000000000000000000000000000000000000000000000000",
"00000000000000000000000000000000000000000000000000000000000000000003040506070809000000000000000000000000000000000000000000000000",
"0000000000000000000000000000000000000000000000000000000000000003030a0b0c0d0e0000000000000000000000000000000000000000000000000000",
"000000000000000000000000000000000000000000000000000000000000000f1011121314000000000000000000000000000000000000000000000000000000",
"00000000000000000000000000000000000000000000000000000000000000151617181900000000000000000000000000000000000000000000000000000000",
"00000000000000000000000000000000000000000000000000000000000000000000000000000000000000000000000000000000000000000000000000000000",
"0000000000000000000000000000001a1b0000000000000000000000000000000000001a00000000000000000000000000000000000000000000000000000000",
"0000000000000000000000001a1c1c1d1e1f000000000000000000000000000000001c201a000000000000000000000000000000000000000000000000000000",
"00000000000000000000000021222324252600000000000000000000000000000000222728000000000000000000000000000000000000000000000000000000",
"000000000000000000000028292a2b2c2d2e2f000000000000000000000000000030313233000000000000000000000000000000000000000000000000000000",
"0000000000000000000034352a363738393a3b000000000000000000000000003c3d3e3f40410000000000000000000000000000000000000000000000000000",
"0000000000000000000042434445464748491b000000000000000000000000004a4b4c4d4e4f0000000000000000000000000000000000000000000000000000",
"000000000000000000505152535455475657000000000000000000000000005859565a375b4f0000000000000000000000000000000000000000000000000000",
"0000000000000000000d5c5d535e5f60616250000000000000000050196363646566676869570000000000000000000000000000000000000000000000000000",
"0000000000000000146a6b6c6d6e6f70617172731414147373731474757677786d797a7b7c7d7e7300000000000000000000000e140000000000000000000000",
"0000000000007f7f8081826d79796e6783848586878887898a8b8c8d8e8f9036799192259394958a9600000000000000000e9798889900000000000000000000",
"000000009a9b9c9d9e9fa07979797979a1a2a3a4a5a6a5a7a8a9aaabacadaeafb0b1b2b3b48db5b6b7b89b9b9bb9b9b90907babbbcbdbe090000000000000000",
"000000bfc0c1c2c35445c479c5c57979c5c6c7c8c9c5665fcacbcccdcececfc5d0d0d1b3d253d3d4ccd5d6d7c1d8d9d9dadbdc79dddedfe0e1bf000000000000",
"000000e2e3e4e5e6e7e8e9eae4e4eaeaebe5ecedeeeff0f1f2f3f4f5f6f6f7f8f9fafbfcfde4f1f3f4f7fefff8fd10101010101010e510101010bf0000000000",
"00000010101010101010101010101010111010101011111010101010111110101011111111101010101010101011101010111010101010111111010000000000",
"00000000000000000000000000000000000000000000000000000000000000000000000000000000000000000000000000000000000000000000000000000000",
"00000000000000000000000000000000000000000000000000000000000000000000000000000000000000000000000000000000000000000000000000000000",
"00000000000000000000000000000000000000000000000000000000000000000000000000000000000000000000000000000000000000000000000000000000",
"00000000000000000000000000000000000000000000000000000000000000000000000000000000000000000000000000000000000000000000000000000000",
"00000000000000000000000000000000000000000000000000000000000000000000000000000000000000000000000000000000000000000000000000000000",
"00000000000000000000000000000000000000000000000000000000000000000000000000000000000000000000000000000000000000000000000000000000",
"00000000000000000000000000000000000000000000000000000000000000000000000000000000000000000000000000000000000000000000000000000000",
"00000000000000000000000000000000000000000000000000000000000000000000000000000000000000000000000000000000000000000000000000000000",
"00000000000000000000000000000000000000000000000000000000000000000000000000000000000000000000000000000000000000000000000000000000",
"00000000000000000000000000000000000000000000000000000000000000000000000000000000000000000000000000000000000000000000000000000000",
"00000000000000000000000000000000000000000000000000000000000000000000000000000000000000000000000000000000000000000000000000000000",
"00000000000000000000000000000000000000000000000000000000000000000000000000000000000000000000000000000000000000000000000000000000",
"00000000000000000000000000000000000000000000000000000000000000000000000000000000000000000000000000000000000000000000000000000000",
"00000000000000000000000000000000000000000000000000000000000000000000000000000000000000000000000000000000000000000000000000000000",
"00000000000000000000000000000000000000000000000000000000000000000000000000000000000000000000000000000000000000000000000000000000",
"00000000000000000000000000000000000000000000000000000000000000000000000000000000000000000000000000000000000000000000000000000000",
"00000000000000000000000000000000000000000000000000000000000000000000000000000000000000000000000000000000000000000000000000000000",
"00000000000000000000000000000000000000000000000000000000000000000000000000000000000000000000000000000000000000000000000000000000",
"00000000000000000000000000000000000000000000000000000000000000000000000000000000000000000000000000000000000000000000000000000000",
"00000000000000000000000000000000000000000000000000000000000000000000000000000000000000000000000000000000000000000000000000000000",
"00000000000000000000000000000000000000000000000000000000000000000000000000000000000000000000000000000000000000000000000000000000",
};
