/* XPM */
static char *image[] = {
"64 64 247 2",
"00 c #000000",
"01 c #1a1e1c",
"02 c #1a1d1b",
"03 c #1a3426",
"04 c #1b3928",
"05 c #1b3727",
"06 c #23653b",
"07 c #227441",
"08 c #1a4e33",
"09 c #1a2620",
"0a c #1a1f1c",
"0b c #1c3425",
"0c c #1e3a27",
"0d c #267742",
"0e c #469948",
"0f c #369047",
"10 c #1a2b22",
"11 c #1a1c1b",
"12 c #1f402a",
"13 c #28713d",
"14 c #349248",
"15 c #489b48",
"16 c #43a54c",
"17 c #1c3626",
"18 c #1c2e22",
"19 c #318342",
"1a c #42a54c",
"1b c #50b44f",
"1c c #6bb854",
"1d c #1d3827",
"1e c #2a4f2c",
"1f c #3ca04a",
"20 c #64b251",
"21 c #67b452",
"22 c #72cb59",
"23 c #94da66",
"24 c #6ab753",
"25 c #265135",
"26 c #1a1b1a",
"27 c #307f41",
"28 c #3da34b",
"29 c #91d965",
"2a c #b2e671",
"2b c #90d864",
"2c c #479747",
"2d c #1c3827",
"2e c #1a2a21",
"2f c #2b763e",
"30 c #3ea34b",
"31 c #82d45e",
"32 c #a1de6c",
"33 c #6ec958",
"34 c #3da24b",
"35 c #1e6d40",
"36 c #1a2921",
"37 c #25683b",
"38 c #479647",
"39 c #66b452",
"3a c #6fca58",
"3b c #5dc251",
"3c c #338f47",
"3d c #1a5838",
"3e c #243429",
"3f c #469546",
"40 c #6dc857",
"41 c #81d25d",
"42 c #81d35e",
"43 c #70ca58",
"44 c #3ea44b",
"45 c #339047",
"46 c #1b5a39",
"47 c #1f6d3f",
"48 c #1a2820",
"49 c #328845",
"4a c #8cd463",
"4b c #aee56f",
"4c c #69b653",
"4d c #41a64c",
"4e c #479847",
"4f c #2b783f",
"50 c #1a2d23",
"51 c #2e793f",
"52 c #3a9f4a",
"53 c #224832",
"54 c #243328",
"55 c #3d793b",
"56 c #60a64e",
"57 c #68c356",
"58 c #afe570",
"59 c #b3e771",
"5a c #71cb59",
"5b c #489747",
"5c c #277942",
"5d c #459446",
"5e c #69c656",
"5f c #47a64b",
"60 c #294e2c",
"61 c #1a2720",
"62 c #1c3224",
"63 c #233228",
"64 c #438943",
"65 c #86cc5f",
"66 c #a8e06d",
"67 c #98dd66",
"68 c #a4df6d",
"69 c #3ea14a",
"6a c #4bad4d",
"6b c #439346",
"6c c #28402b",
"6d c #a9e36d",
"6e c #a4df6c",
"6f c #65b952",
"70 c #418842",
"71 c #1b3124",
"72 c #2d723c",
"73 c #459c48",
"74 c #85cd60",
"75 c #ade56f",
"76 c #87d660",
"77 c #49af4d",
"78 c #58ba4f",
"79 c #438942",
"7a c #1a3c2a",
"7b c #233127",
"7c c #87bc5d",
"7d c #c4ee77",
"7e c #a7e26d",
"7f c #214530",
"80 c #233027",
"81 c #1e623a",
"82 c #3f8340",
"83 c #3a9c49",
"84 c #68c556",
"85 c #92d965",
"86 c #99dc67",
"87 c #8cd862",
"88 c #73cc59",
"89 c #8fd863",
"8a c #a5e16c",
"8b c #77cd5b",
"8c c #95dc65",
"8d c #94d866",
"8e c #61ae50",
"8f c #2e7f42",
"90 c #1a3b29",
"91 c #1c3024",
"92 c #418341",
"93 c #60ac4f",
"94 c #acdf6e",
"95 c #c8f079",
"96 c #6bc856",
"97 c #408743",
"98 c #1a251f",
"99 c #1b2f23",
"9a c #222f26",
"9b c #276437",
"9c c #378943",
"9d c #369748",
"9e c #3fa04a",
"9f c #48ae4d",
"a0 c #58ba52",
"a1 c #69b953",
"a2 c #c3ee77",
"a3 c #96d967",
"a4 c #7ccc5b",
"a5 c #46a94c",
"a6 c #2d7d41",
"a7 c #24663a",
"a8 c #3e803f",
"a9 c #74c658",
"aa c #a3e06b",
"ab c #7ed25c",
"ac c #263a28",
"ad c #232323",
"ae c #1b5636",
"af c #2d773e",
"b0 c #3c7d3e",
"b1 c #378642",
"b2 c #429044",
"b3 c #408e44",
"b4 c #48ad4d",
"b5 c #5caf50",
"b6 c #4cb14e",
"b7 c #61c453",
"b8 c #78ce5b",
"b9 c #69ba53",
"ba c #41a74c",
"bb c #509f4a",
"bc c #5fbb54",
"bd c #9bdd68",
"be c #b8e973",
"bf c #96da67",
"c0 c #81d25f",
"c1 c #74cd59",
"c2 c #429547",
"c3 c #308946",
"c4 c #318844",
"c5 c #2f8a46",
"c6 c #a6e06d",
"c7 c #ace36f",
"c8 c #6ebc55",
"c9 c #459a48",
"ca c #307b40",
"cb c #236439",
"cc c #1b2e23",
"cd c #1e3a2c",
"ce c #1a5c39",
"cf c #257943",
"d0 c #338041",
"d1 c #378643",
"d2 c #369548",
"d3 c #499f49",
"d4 c #348a44",
"d5 c #388e45",
"d6 c #429a4a",
"d7 c #3f9e4a",
"d8 c #45a04c",
"d9 c #408f46",
"da c #287f44",
"db c #287440",
"dc c #317e40",
"dd c #4d9a4b",
"de c #68af53",
"df c #4fa550",
"e0 c #2f773e",
"e1 c #227240",
"e2 c #21683c",
"e3 c #337f41",
"e4 c #5eaa50",
"e5 c #63ac52",
"e6 c #55a751",
"e7 c #3d8844",
"e8 c #1e6b3e",
"e9 c #1b4e33",
"ea c #1e4933",
"eb c #1a3f2e",
"ec c #1a4a31",
"ed c #1a2e24",
"ee c #1b3627",
"ef c #1f3826",
"f0 c #213b27",
"f1 c #224029",
"f2 c #294329",
"f3 c #1a3325",
"f4 c #1d3425",
"f5 c #234128",
"f6 c #1a2922",
"00000000000000000000000000000000000000000000000000000000000000000000000000000000000000000000000000000000000000000000000000000000",
"00000000000000000000000000000000000000000000000000000000000000000000000000000000000000000000000000000000000000000000000000000000",
"00000000000000000000000000000000000000000000000000000000000000000000000000000000000000000000000000000000000000000000000000000000",
"00000000000000000000000000000000000000000000000000000000000000000000000000000000000000000000000000000000000000000000000000000000",
"00000000000000000000000000000000000000000000000000000000000000000000000000000000000000000000000000000000000000000000000000000000",
"00000000000000000000000000000000000000000000000000000000000000000000000000000000000000000000000000000000000000000000000000000000",
"00000000000000000000000000000000000000000000000000000000000000000000000000000000000000000000000000000000000000000000000000000000",
"00000000000000000000000000000000000000000000000000000000000000000000000000000000000000000000000000000000000000000000000000000000",
"00000000000000000000000000000000000000000000000000000000000000000000000000000000000000000000000000000000000000000000000000000000",
"00000000000000000000000000000000000000000000000000000000000000000000000000000000000000000000000000000000000000000000000000000000",
"00000000000000000000000000000000000000000000000000000000000000000000000000000000000000000000000000000000000000000000000000000000",
"00000000000000000000000000000000000000000000000000000000000000000000000000000000000000000000000000000000000000000000000000000000",
"00000000000000000000000000000000000000000000000000000000000000000000000000000000000000000000000000000000000000000000000000000000",
"00000000000000000000000000000000000000000000000000000000000000000000000000000000000000000000000000000000000000000000000000000000",
"00000000000000000000000000000000000000000000000000000000000000000000000000000000000000000000000000000000000000000000000000000000",
"00000000000000000000000000000000000000000000000000000000000000000000000000000000000000000000000000000000000000000000000000000000",
"00000000000000000000000000000000000000000000000000000000000000000000000000000000000000000000000000000000000000000000000000000000",
"00000000000000000000000000000000000000000000000000000000000000000000000000000000000000000000000000000000000000000000000000000000",
"00000000000000000000000000000000000000000000000000000000000000000000000000000000000000000000000000000000000000000000000000000000",
"00000000000000000000000000000000000000000000000000000000000000000000000000000000000000000000000000000000000000000000000000000000",
"00000000000000000000000000000000000000000000000000000000000000000000000000000000000000000000000000000000000000000000000000000000",
"00000000000000000000000000000000000000000000000000000000000000000000000000000000000000000000000000000000000000000000000000000000",
"00000000000000000000000000000000000000000000000000000000000000000000000000000000000000000000000000000000000000000000000000000000",
"00000000000000000000000000000000000000000000000000000001010100000000000000000000000000000000000000000000000000000000000000000000",
"00000000000000000000000000000000000000000000000000000203040302000000000000000000000000000000000000000000000000000000000000000000",
"00000000000000000000000000000000000000000000000002020506070809000000000000000000000000000000000000000000000000000000000000000000",
"00000000000000000000000000000000000000000000000a0b0c0d0e0f1000000000000000000000000000000000000000000000000000000000000000000000",
"000000000000000000000000000000000000000000001112131415160e1700000000000000000000000000000000000000000000000000000000000000000000",
"0000000000000000000000000000000000000000000018191a1a1b1c1a1d00000000000000000000000000000000000000000000000000000000000000000000",
"000000000000000000000000000000000000000000001e1f20212223242511000000000000000000000000000000000000000000000000000000000000000000",
"0000000000000000000000000000000000000000000026272821292a2b2c2d260000000000000000000000000000000000000000000000000000000000000000",
"000000000000000000000000000000000000000000002e2f30213132333435360000000000000000000000000000000000000000000000000000000000000000",
"000000000000000000000000000000000000000000003738393a313b303c3d360000000000000000003600000000000000000000000000000000000000000000",
"0000000000000000000000000000000000000000003e3f40414243444546102600000000000000000b4748000000000000000000000000000000000000000000",
"000000000000000000000000000000000000000b3e494a4b314c4d4e4f5026000000000000000000515253000000000000000000000000000000000000000000",
"0000000000000000000000000000000000005455565758595a1a4e5b5c36000000000000000000005d5e5f606100000000000000000000000000000000000000",
"0000000000000000000000000000000062636465666768683a28696a6b6c000000000000000000006a6d6e6f7061000000000000000000000000000000000000",
"0000000000000000000000000000097172737475597676763a77775e78797a000000000000007b7b7c7d7d7e787f000000000000000000000000000000000000",
"00000000000000000000000009808182838485868788896d8a8b848c8d8e8f9009090909918092939495957d9697900000000000000000000000000000000000",
"00000098999999999a9a9a9a9b9c9d9e9f3a858ba0a18559a27ea34b58a4a5a6a79b9ba7a89ca9aa59959595ab9ea6ac98980000000000000000000000000000",
"0000adaeafb0afb0b1b2b2b1b3b4b5b4b6b7b8b9babbbcbdbe59bfc0bdc1b6c2c3c4c4c55bb4c1bdc6c7bec7c8c9c2cacbaeccad989898989898989800000000",
"0000cdcecfd0cfd1d2d3d3d4d0d5d6d5d5d7d8d9dadbdcdddededfd8dfd8d5e0e1e2e2e1e3d5d8e4e5e5dee6e7dbdbcfe8cee9eaebebecececececec00000000",
"000061edeeefeef0f1f2f2f0eff0f1f0f0f1f1f0eef3f4f0f2f2f1f1f1f1f0f4f3ededf3eff0f1f2f2f2f2f5eff3f3eef3edededf6f6edededededed00000000",
"00000000000000000000000000000000000000000000000000000000000000000000000000000000000000000000000000000000000000000000000000000000",
"00000000000000000000000000000000000000000000000000000000000000000000000000000000000000000000000000000000000000000000000000000000",
"00000000000000000000000000000000000000000000000000000000000000000000000000000000000000000000000000000000000000000000000000000000",
"00000000000000000000000000000000000000000000000000000000000000000000000000000000000000000000000000000000000000000000000000000000",
"00000000000000000000000000000000000000000000000000000000000000000000000000000000000000000000000000000000000000000000000000000000",
"00000000000000000000000000000000000000000000000000000000000000000000000000000000000000000000000000000000000000000000000000000000",
"00000000000000000000000000000000000000000000000000000000000000000000000000000000000000000000000000000000000000000000000000000000",
"00000000000000000000000000000000000000000000000000000000000000000000000000000000000000000000000000000000000000000000000000000000",
"00000000000000000000000000000000000000000000000000000000000000000000000000000000000000000000000000000000000000000000000000000000",
"00000000000000000000000000000000000000000000000000000000000000000000000000000000000000000000000000000000000000000000000000000000",
"00000000000000000000000000000000000000000000000000000000000000000000000000000000000000000000000000000000000000000000000000000000",
"00000000000000000000000000000000000000000000000000000000000000000000000000000000000000000000000000000000000000000000000000000000",
"00000000000000000000000000000000000000000000000000000000000000000000000000000000000000000000000000000000000000000000000000000000",
"00000000000000000000000000000000000000000000000000000000000000000000000000000000000000000000000000000000000000000000000000000000",
"00000000000000000000000000000000000000000000000000000000000000000000000000000000000000000000000000000000000000000000000000000000",
"00000000000000000000000000000000000000000000000000000000000000000000000000000000000000000000000000000000000000000000000000000000",
"00000000000000000000000000000000000000000000000000000000000000000000000000000000000000000000000000000000000000000000000000000000",
"00000000000000000000000000000000000000000000000000000000000000000000000000000000000000000000000000000000000000000000000000000000",
"00000000000000000000000000000000000000000000000000000000000000000000000000000000000000000000000000000000000000000000000000000000",
"00000000000000000000000000000000000000000000000000000000000000000000000000000000000000000000000000000000000000000000000000000000",
"00000000000000000000000000000000000000000000000000000000000000000000000000000000000000000000000000000000000000000000000000000000",
};
