/* XPM */
static char *image[] = {
"64 64 250 2",
"00 c #000000",
"01 c #1a1f1c",
"02 c #1b211d",
"03 c #1b3c29",
"04 c #1b3e2a",
"05 c #1e3c29",
"06 c #22472c",
"07 c #234b2d",
"08 c #1f663c",
"09 c #1d6b3f",
"0a c #235734",
"0b c #235332",
"0c c #1b261f",
"0d c #1b201c",
"0e c #22482c",
"0f c #338643",
"10 c #328844",
"11 c #235a35",
"12 c #1b5435",
"13 c #1a1d1b",
"14 c #21422a",
"15 c #369247",
"16 c #3b9e4a",
"17 c #276739",
"18 c #1b2820",
"19 c #1b2e23",
"1a c #2e7a40",
"1b c #3b9c49",
"1c c #307e40",
"1d c #1c2e22",
"1e c #193e2b",
"1f c #245d36",
"20 c #2d703b",
"21 c #1d3223",
"22 c #1a1c1b",
"23 c #1b2f23",
"24 c #1c2f23",
"25 c #1c5a38",
"26 c #1c5536",
"27 c #1b2920",
"28 c #1a1b1a",
"29 c #1e3625",
"2a c #276b3c",
"2b c #287b41",
"2c c #263d2b",
"2d c #1b2b21",
"2e c #307f41",
"2f c #3ea24b",
"30 c #348f46",
"31 c #254931",
"32 c #1d3524",
"33 c #1e3424",
"34 c #1f6f40",
"35 c #3da14b",
"36 c #6ec858",
"37 c #4eb04e",
"38 c #4daf4e",
"39 c #3ca04a",
"3a c #469545",
"3b c #26673b",
"3c c #1b2a21",
"3d c #2f7d41",
"3e c #59bf51",
"3f c #9ddf68",
"40 c #aee46f",
"41 c #80d15d",
"42 c #4eb14e",
"43 c #317f41",
"44 c #1d3525",
"45 c #1d3123",
"46 c #253729",
"47 c #459546",
"48 c #6dc857",
"49 c #92d964",
"4a c #93d965",
"4b c #52b34f",
"4c c #328242",
"4d c #1f3a26",
"4e c #1c221d",
"4f c #1d3023",
"50 c #256138",
"51 c #318342",
"52 c #24422e",
"53 c #2e763e",
"54 c #49a44a",
"55 c #59bc50",
"56 c #5dc252",
"57 c #61c353",
"58 c #3fa44b",
"59 c #1f3b27",
"5a c #1c2f22",
"5b c #2d733d",
"5c c #429044",
"5d c #3c9f4a",
"5e c #428c43",
"5f c #243428",
"60 c #418941",
"61 c #66be55",
"62 c #7dd05c",
"63 c #5bc151",
"64 c #50b34e",
"65 c #469947",
"66 c #19412d",
"67 c #2d713c",
"68 c #3fa04a",
"69 c #3da24b",
"6a c #23442f",
"6b c #1b2720",
"6c c #243327",
"6d c #408640",
"6e c #459b47",
"6f c #479c48",
"70 c #84cd5f",
"71 c #b9e973",
"72 c #aee56f",
"73 c #72cb59",
"74 c #50b44e",
"75 c #40a44b",
"76 c #479746",
"77 c #276c3b",
"78 c #429245",
"79 c #55bb50",
"7a c #4aae4d",
"7b c #388f46",
"7c c #3e833f",
"7d c #2f7a3e",
"7e c #27472a",
"7f c #2c6f3b",
"80 c #368b43",
"81 c #50a549",
"82 c #9bd667",
"83 c #afe370",
"84 c #9ddb69",
"85 c #bdeb75",
"86 c #b6e872",
"87 c #7ccf5d",
"88 c #55b650",
"89 c #40a54c",
"8a c #328944",
"8b c #276c3c",
"8c c #276638",
"8d c #233e2c",
"8e c #1c2d22",
"8f c #2c6c3a",
"90 c #378943",
"91 c #56b74e",
"92 c #7acf5b",
"93 c #67c356",
"94 c #4cab4c",
"95 c #48a94c",
"96 c #4fa749",
"97 c #4ea148",
"98 c #47a54b",
"99 c #3f9f4a",
"9a c #4aad4d",
"9b c #84d25f",
"9c c #c2ee77",
"9d c #c8f079",
"9e c #b1e670",
"9f c #98db67",
"a0 c #56b750",
"a1 c #41a54c",
"a2 c #459947",
"a3 c #429546",
"a4 c #3f9045",
"a5 c #389748",
"a6 c #378d45",
"a7 c #358842",
"a8 c #3d7f3e",
"a9 c #264629",
"aa c #233226",
"ab c #235935",
"ac c #3f8441",
"ad c #223c2c",
"ae c #266337",
"af c #3a9848",
"b0 c #51b54f",
"b1 c #74cc59",
"b2 c #6fc958",
"b3 c #57bd50",
"b4 c #41a64c",
"b5 c #6ac756",
"b6 c #82d25f",
"b7 c #60bb54",
"b8 c #9fde69",
"b9 c #b7e972",
"ba c #99dc67",
"bb c #81d15e",
"bc c #69c756",
"bd c #449a47",
"be c #399046",
"bf c #369347",
"c0 c #409f4a",
"c1 c #49ad4d",
"c2 c #62bf54",
"c3 c #56b64e",
"c4 c #4ea447",
"c5 c #4d9d46",
"c6 c #439144",
"c7 c #379247",
"c8 c #429446",
"c9 c #307b40",
"ca c #246438",
"cb c #266136",
"cc c #1c5b38",
"cd c #233126",
"ce c #1a3c2a",
"cf c #206a3d",
"d0 c #308242",
"d1 c #287f43",
"d2 c #398d45",
"d3 c #459f4b",
"d4 c #53a64b",
"d5 c #409d49",
"d6 c #2f8645",
"d7 c #459e4b",
"d8 c #50a44f",
"d9 c #3d9246",
"da c #2d793f",
"db c #358743",
"dc c #4d994b",
"dd c #66ae52",
"de c #30763e",
"df c #22683b",
"e0 c #22673b",
"e1 c #2a733e",
"e2 c #3a8f43",
"e3 c #4da349",
"e4 c #3c9848",
"e5 c #2b7c42",
"e6 c #337f40",
"e7 c #237240",
"e8 c #1f6b3e",
"e9 c #1f6039",
"ea c #1b5e3a",
"eb c #1e4f33",
"ec c #1a4a30",
"ed c #192820",
"ee c #1a3325",
"ef c #1f3826",
"f0 c #1b3626",
"f1 c #213b27",
"f2 c #224028",
"f3 c #294328",
"f4 c #1f3927",
"f5 c #223f28",
"f6 c #1e3324",
"f7 c #1e3325",
"f8 c #1a2e23",
"f9 c #223c26",
"00000000000000000000000000000000000000000000000000000000000000000000000000000000000000000000000000000000000000000000000000000000",
"00000000000000000000000000000000000000000000000000000000000000000000000000000000000000000000000000000000000000000000000000000000",
"00000000000000000000000000000000000000000000000000000000000000000000000000000000000000000000000000000000000000000000000000000000",
"00000000000000000000000000000000000000000000000000000000000000000000000000000000000000000000000000000000000000000000000000000000",
"00000000000000000000000000000000000000000000000000000000000000000000000000000000000000000000000000000000000000000000000000000000",
"00000000000000000000000000000000000000000000000000000000000000000000000000000000000000000000000000000000000000000000000000000000",
"00000000000000000000000000000000000000000000000000000000000000000000000000000000000000000000000000000000000000000000000000000000",
"00000000000000000000000000000000000000000000000000000000000000000000000000000000000000000000000000000000000000000000000000000000",
"00000000000000000000000000000000000000000000000000000000000000000000000000000000000000000000000000000000000000000000000000000000",
"00000000000000000000000000000000000000000000000000000000000000000000000000000000000000000000000000000000000000000000000000000000",
"00000000000000000000000000000000000000000000000000000000000000000000000000000000000000000000000000000000000000000000000000000000",
"00000000000000000000000000000000000000000000000000000000000000000000000000000000000000000000000000000000000000000000000000000000",
"00000000000000000000000000000000000000000000000000000000000000000000000000000000000000000000000000000000000000000000000000000000",
"00000000000000000000000000000000000000000000000000000000000000000000000000000000000000000000000000000000000000000000000000000000",
"00000000000000000000000000000000000000000000000000000000000000000000000000000000000000000000000000000000000000000000000000000000",
"00000000000000000000000000000000000000000000000000000000000000000000000000000000000000000000000000000000000000000000000000000000",
"00000000000000000000000000000000000000000000000000000000000000000000000000000000000000000000000000000000000000000000000000000000",
"00000000000000000000000000000000000000000000000000000000000000000000000000000000000000000000000000000000000000000000000000000000",
"00000000000000000000000000000000000000000000000000000000000000000000000000000000000000000000000000000000000000000000000000000000",
"00000000000000000000000000000000000000000000000000000000000000000000000000000000000000000000000000000000000000000000000000000000",
"00000000000000000000000000000000000000000000000000000000000000000000000000000000000000000000000000000000000000000000000000000000",
"00000000000000000000000000000000000000000000000000000000000000000000000101010100000000000000000000000000000000000000000000000000",
"00000000000000000000000000000000000000000000000000000000000000000002020304050501000000000000000000000000000000000000000000000000",
"000000000000000000000000000000000000000000000000000000000000000002060708090a0b0c000000000000000000000000000000000000000000000000",
"000000000000000000000000000000000000000000000000000000000000000d0e0f1011120c0000000000000000000000000000000000000000000000000000",
"00000000000000000000000000000000000000000000000000000000000013141516171800000000000000000000000000000000000000000000000000000000",
"000000000000000000000000000000000000000000000000000000000000191a1b1c1d0000000000000000000000000000000000000000000000000000000000",
"0000000000000000000000000000000000000000000000000000000000001e1f2021220000000000000000000000000000000000000000000000000000000000",
"00000000000000000000000000000000000000000000000000000000000000002223232200000000000000000000000000000000000000000000000000000000",
"00000000000000000000000000000000000000000000000000000000000000222425262700000000000000000000000000000000000000000000000000000000",
"00000000000000000000000000000000000000000000000000000000000028292a2b2c2228282800000000000000000000000000000000000000000000000000",
"0000000000000000000000000000000000000000000000000000000000002d2e2f2f303132332d00000000000000000000000000000000000000000000000000",
"000000000000000000000000000000000000000000000000000000000000343536363738393a3b3c000000000000000000000000000000000000000000000000",
"0000000000000000000000000000000000000000000000000000000000003d3e3f40414230434428000000000000000000000000000000000000000000000000",
"0000000000000000002727000000000000000000000000000000000045464748494a4b4c4d4e2200000000000000000000000000000000000000000000000000",
"00000000000000004f5051520000000000000000000000000000004f535455565757585913000000000000000000000000000000000000000000000000000000",
"000000000000005a5b5c5d5e5a000000000000000000005a5a5a5f60614a62636464656600000000000000000000000000000000000000000000000000000000",
"00000000000000671b6869686a1d6b6b1d00001d1d1d6c6d6e6e6f7071727374757576776c6b000000000000001d1d1d1d1d0000000000000000000000000000",
"00000000001d6c78797a7a7a7b7c7d7d7c7e6c7f7c80818283848485868788896969768a8b8c8d1d1d0000006b177c807c7c8d00000000000000000000000000",
"000000008e8f9091929342426994959594969798999a9b9c9d9c9e869fa0a1a2a26976a3a4a5a6a7a8a9aaaaab1099699976acad0c0c0c000000000000000000",
"0000000caeaf69b0b1b2b3b46942424242b5b6b369b4b7b8b9b9babbbcb4bdbebebfbebec0c1c2c2c3c4c5c6c7c8bdbdbdbe76c9cacbcccd0c0c0c0000000000",
"000000cecfd0d1d2d3d4d5d6d1d2d2d2d2d7d8d9d1dadbdcddddd8d7d9d0dedfdfe0e0e1d0e2d7d4e3e3e3e4d0dee5e6dee7dee1e8e9eaebececec0000000000",
"000000edeeeff0f1f2f3f2f4f0f1f1f1f1f5f2f1f0f6eff1f3f3f2f5f1eff7f8f8f8f8f7eff9f5f3f3f3f3f2eff7f0eff7eef7f7eef8f8f8f8f8f80000000000",
"00000000000000000000000000000000000000000000000000000000000000000000000000000000000000000000000000000000000000000000000000000000",
"00000000000000000000000000000000000000000000000000000000000000000000000000000000000000000000000000000000000000000000000000000000",
"00000000000000000000000000000000000000000000000000000000000000000000000000000000000000000000000000000000000000000000000000000000",
"00000000000000000000000000000000000000000000000000000000000000000000000000000000000000000000000000000000000000000000000000000000",
"00000000000000000000000000000000000000000000000000000000000000000000000000000000000000000000000000000000000000000000000000000000",
"00000000000000000000000000000000000000000000000000000000000000000000000000000000000000000000000000000000000000000000000000000000",
"00000000000000000000000000000000000000000000000000000000000000000000000000000000000000000000000000000000000000000000000000000000",
"00000000000000000000000000000000000000000000000000000000000000000000000000000000000000000000000000000000000000000000000000000000",
"00000000000000000000000000000000000000000000000000000000000000000000000000000000000000000000000000000000000000000000000000000000",
"00000000000000000000000000000000000000000000000000000000000000000000000000000000000000000000000000000000000000000000000000000000",
"00000000000000000000000000000000000000000000000000000000000000000000000000000000000000000000000000000000000000000000000000000000",
"00000000000000000000000000000000000000000000000000000000000000000000000000000000000000000000000000000000000000000000000000000000",
"00000000000000000000000000000000000000000000000000000000000000000000000000000000000000000000000000000000000000000000000000000000",
"00000000000000000000000000000000000000000000000000000000000000000000000000000000000000000000000000000000000000000000000000000000",
"00000000000000000000000000000000000000000000000000000000000000000000000000000000000000000000000000000000000000000000000000000000",
"00000000000000000000000000000000000000000000000000000000000000000000000000000000000000000000000000000000000000000000000000000000",
"00000000000000000000000000000000000000000000000000000000000000000000000000000000000000000000000000000000000000000000000000000000",
"00000000000000000000000000000000000000000000000000000000000000000000000000000000000000000000000000000000000000000000000000000000",
"00000000000000000000000000000000000000000000000000000000000000000000000000000000000000000000000000000000000000000000000000000000",
"00000000000000000000000000000000000000000000000000000000000000000000000000000000000000000000000000000000000000000000000000000000",
"00000000000000000000000000000000000000000000000000000000000000000000000000000000000000000000000000000000000000000000000000000000",
};
