/* XPM */
static char *image[] = {
"64 64 216 2",
"00 c #000000",
"01 c #1a1f1c",
"02 c #1a1e1c",
"03 c #1b3626",
"04 c #1a1e1b",
"05 c #1b3526",
"06 c #1c5636",
"07 c #1c4c31",
"08 c #1b271f",
"09 c #1b3023",
"0a c #1c4d32",
"0b c #1c4a30",
"0c c #1b2820",
"0d c #1a3c2a",
"0e c #1b4b31",
"0f c #1a1d1b",
"10 c #1a1c1b",
"11 c #203b27",
"12 c #213f28",
"13 c #203d28",
"14 c #1c3123",
"15 c #203a26",
"16 c #203c27",
"17 c #318042",
"18 c #3da34b",
"19 c #359046",
"1a c #1c5335",
"1b c #1b2a20",
"1c c #1a1b1a",
"1d c #1b1b1b",
"1e c #203826",
"1f c #2c783f",
"20 c #369246",
"21 c #3ea44b",
"22 c #348e45",
"23 c #1e3324",
"24 c #1e3424",
"25 c #273b2b",
"26 c #489846",
"27 c #4eb34e",
"28 c #4db34e",
"29 c #3da24b",
"2a c #25673b",
"2b c #1b2b21",
"2c c #1b2c21",
"2d c #1e3224",
"2e c #348f45",
"2f c #6fc957",
"30 c #91d863",
"31 c #82d35f",
"32 c #307e41",
"33 c #306d3a",
"34 c #1a422d",
"35 c #255635",
"36 c #6dc857",
"37 c #c4ee77",
"38 c #c5ef78",
"39 c #afe56f",
"3a c #6eca57",
"3b c #1f3625",
"3c c #253729",
"3d c #358e45",
"3e c #348c45",
"3f c #1b1f1c",
"40 c #6bb552",
"41 c #c8f079",
"42 c #b1e670",
"43 c #ace46e",
"44 c #7fd15e",
"45 c #1e3123",
"46 c #448f44",
"47 c #6bc656",
"48 c #4bb04d",
"49 c #244731",
"4a c #1d3023",
"4b c #6bb352",
"4c c #b3e771",
"4d c #c0ed76",
"4e c #6ac756",
"4f c #284f2d",
"50 c #1b2920",
"51 c #2e753e",
"52 c #4cb04d",
"53 c #70cb58",
"54 c #59c050",
"55 c #338844",
"56 c #1d2f22",
"57 c #328341",
"58 c #51b34f",
"59 c #89d661",
"5a c #8dd863",
"5b c #b4e771",
"5c c #9cdb69",
"5d c #3a9847",
"5e c #23432e",
"5f c #1c5033",
"60 c #348d45",
"61 c #3fa54b",
"62 c #52b64f",
"63 c #6dca57",
"64 c #3ca04a",
"65 c #244730",
"66 c #1d2e22",
"67 c #318040",
"68 c #56b851",
"69 c #7bd05c",
"6a c #a9e16e",
"6b c #a0e069",
"6c c #67c456",
"6d c #399347",
"6e c #23422e",
"6f c #235d36",
"70 c #266c3c",
"71 c #277440",
"72 c #369347",
"73 c #8cd662",
"74 c #77cc5b",
"75 c #307d3f",
"76 c #3b9f4a",
"77 c #4ab04d",
"78 c #40a64c",
"79 c #389146",
"7a c #378c43",
"7b c #389748",
"7c c #399b49",
"7d c #abe36e",
"7e c #baea74",
"7f c #81ce5f",
"80 c #26472a",
"81 c #1d2d22",
"82 c #2c6b3a",
"83 c #368942",
"84 c #47ab4c",
"85 c #49af4d",
"86 c #41a74c",
"87 c #9bdb69",
"88 c #83d45f",
"89 c #55b950",
"8a c #64c155",
"8b c #8bd064",
"8c c #73c85a",
"8d c #54bb4f",
"8e c #379447",
"8f c #68c556",
"90 c #c2ee77",
"91 c #bbeb74",
"92 c #5fae4e",
"93 c #223f2c",
"94 c #1b261f",
"95 c #2f773d",
"96 c #358541",
"97 c #3a9948",
"98 c #4eb14e",
"99 c #7ed05d",
"9a c #66c754",
"9b c #56b951",
"9c c #96da66",
"9d c #8ed862",
"9e c #67c555",
"9f c #51b74f",
"a0 c #379547",
"a1 c #369447",
"a2 c #ade36f",
"a3 c #b7e972",
"a4 c #ade46f",
"a5 c #95d967",
"a6 c #62c054",
"a7 c #378b44",
"a8 c #256539",
"a9 c #266136",
"aa c #1c5434",
"ab c #1d2c21",
"ac c #1a3c29",
"ad c #1c4930",
"ae c #2d7d40",
"af c #348844",
"b0 c #308342",
"b1 c #379647",
"b2 c #3c9a48",
"b3 c #2f8645",
"b4 c #287f43",
"b5 c #398d45",
"b6 c #398e45",
"b7 c #47a24b",
"b8 c #409f49",
"b9 c #2c7940",
"ba c #51a64f",
"bb c #5daa4f",
"bc c #2a743e",
"bd c #23703e",
"be c #22673b",
"bf c #22683b",
"c0 c #347e3f",
"c1 c #62ac51",
"c2 c #66ae52",
"c3 c #257a42",
"c4 c #206a3d",
"c5 c #205f38",
"c6 c #1c5a37",
"c7 c #1c4b30",
"c8 c #2b5c33",
"c9 c #2e743c",
"ca c #2a5a33",
"cb c #1a2720",
"cc c #1a2d23",
"cd c #1f3826",
"ce c #213a27",
"cf c #234128",
"d0 c #1f3927",
"d1 c #213b27",
"d2 c #1d3325",
"d3 c #294328",
"d4 c #1a3225",
"d5 c #1a2e23",
"d6 c #1e3325",
"d7 c #213524",
"00000000000000000000000000000000000000000000000000000000000000000000000000000000000000000000000000000000000000000000000000000000",
"00000000000000000000000000000000000000000000000000000000000000000000000000000000000000000000000000000000000000000000000000000000",
"00000000000000000000000000000000000000000000000000000000000000000000000000000000000000000000000000000000000000000000000000000000",
"00000000000000000000000000000000000000000000000000000000000000000000000000000000000000000000000000000000000000000000000000000000",
"00000000000000000000000000000000000000000000000000000000000000000000000000000000000000000000000000000000000000000000000000000000",
"00000000000000000000000000000000000000000000000000000000000000000000000000000000000000000000000000000000000000000000000000000000",
"00000000000000000000000000000000000000000000000000000000000000000000000000000000000000000000000000000000000000000000000000000000",
"00000000000000000000000000000000000000000000000000000000000000000000000000000000000000000000000000000000000000000000000000000000",
"00000000000000000000000000000000000000000000000000000000000000000000000000000000000000000000000000000000000000000000000000000000",
"00000000000000000000000000000000000000000000000000000000000000000000000000000000000000000000000000000000000000000000000000000000",
"00000000000000000000000000000000000000000000000000000000000000000000000000000000000000000000000000000000000000000000000000000000",
"00000000000000000000000000000000000000000000000000000000000000000000000000000000000000000000000000000000000000000000000000000000",
"00000000000000000000000000000000000000000000000000000000000000000000000000000000000000000000000000000000000000000000000000000000",
"00000000000000000000000000000000000000000000000000000000000000000000000000000000000000000000000000000000000000000000000000000000",
"00000000000000000000000000000000000000000000000000000000000000000000000000000000000000000000000000000000000000000000000000000000",
"00000000000000000000000000000000000000000000000000000000000000000000000000000000000000000000000000000000000000000000000000000000",
"00000000000000000000000000000000000000000000000000000000000000000000000000000000000000000000000000000000000000000000000000000000",
"00000000000000000000000000000000000000000000000000000000000000000000000000000000000000000000000000000000000000000000000000000000",
"00000000000000000000000000000000000000000000000000000000000000000000000000000000000000000000000000000000000000000000000000000000",
"00000000000000000000000000000000000000000000000000000000000000000000000000000000000000000000000000000000000000000000000000000000",
"00000000000000000000000000000000000000000000000000000000000000000000000000000000000000000000000000000000000000000000000000000000",
"00000000000000000000000000000000000000000000000000000000000000000000000000000000000000000000000000000000000000000000000000000000",
"00000000000000000000000000000000000000000000000000000000000000000000000000000101000000000000000000000000000000000000000000000000",
"00000000000000000000000000000000000000000000000000000000000000000000000002020303020000000000000000000000000000000000000000000000",
"00000000000000000000000000000000000000000000000000000000000000000000000405050607080000000000000000000000000000000000000000000000",
"000000000000000000000000000000000000000000000000000000000000000000000009060a0b0c000000000000000000000000000000000000000000000000",
"00000000000000000000000000000000000000000000000000000000000000000000000d0e0c0000000000000000000000000000000000000000000000000000",
"000000000000000000000000000000000000000f0f0f100000000000000000000000000000000000000000000000000000000000000000000000000000000000",
"00000000000000000000000000000000100f0f111213091000000000000000000000000000000000000000000000000000000000000000000000000000000000",
"000000000000000000000000000000101415161718191a1b00000000000000000000000000000000000000000000000000000000000000000000000000000000",
"000000000000000000000000001c1d1e1f20212118222300000000000000000000000000001c0000000000000000000000000000000000000000000000000000",
"0000000000000000000000000024252627282828292a2b00000000000000000000000000002c1c00000000000000000000000000000000000000000000000000",
"0000000000000000000000002d2e2f30312828283224000000000000000000000000000000333400000000000000000000000000000000000000000000000000",
"00000000000000000000000035363738393a28213b1c00000000000000000000000000003c3d3e1b000000000000000000000000000000000000000000000000",
"0000000000000000000000003f404141424344182300000000000000000000000000004546474849000000000000000000000000000000000000000000000000",
"0000000000000000000000004a4b4c4142384d4e4f000000000000000000000000005051525354554a0000000000000000000000000000000000000000000000",
"0000000000000000000000565758595a595b415c5d5e000000000000000000000c0c5f6061626364650000000000000000000000000000000000000000000000",
"0000000000000000000066676428686868696a6b6c6d6e6666666666666666666f707119722873746d6e00000000000000000000000000000000000000000000",
"00000000000000006666757677282878285359595377797a7a7a757a7a7a7a7a7b7c7c1976287d7e7f7980660000000000000000000000000000000000000000",
"00000000818181818283848586282818285387888986858a8b8c848d8a8a851818188e19188f9041918b92839381818108080800000000000000000000000000",
"000094949596969697852886189828852853999a8618869b9c9d9e9f535386a0a0a119191853a2a3a3a4a5a6a7959595a8a9aaab94ababab9400000000000000",
"0000acadaeafb0b0b1b2b2b3b4b5b2b2b6b7b7b8b4b9b9b5babbb7b2b7b7afbcbdbebfbcc0b7c1c2c2c2c1b7afbcc3bcc4c5c6c7adc8c9c9ca00000000000000",
"0000cbcccdcecdcdcfcfcfd003d1cfcfd1cfcfcf03d2d2cecfd3cfcfcfcfced2d4d5d5d6d7cfd3d3d3d3d3cfced203d2d4ccccccccd7cfcfd700000000000000",
"00000000000000000000000000000000000000000000000000000000000000000000000000000000000000000000000000000000000000000000000000000000",
"00000000000000000000000000000000000000000000000000000000000000000000000000000000000000000000000000000000000000000000000000000000",
"00000000000000000000000000000000000000000000000000000000000000000000000000000000000000000000000000000000000000000000000000000000",
"00000000000000000000000000000000000000000000000000000000000000000000000000000000000000000000000000000000000000000000000000000000",
"00000000000000000000000000000000000000000000000000000000000000000000000000000000000000000000000000000000000000000000000000000000",
"00000000000000000000000000000000000000000000000000000000000000000000000000000000000000000000000000000000000000000000000000000000",
"00000000000000000000000000000000000000000000000000000000000000000000000000000000000000000000000000000000000000000000000000000000",
"00000000000000000000000000000000000000000000000000000000000000000000000000000000000000000000000000000000000000000000000000000000",
"00000000000000000000000000000000000000000000000000000000000000000000000000000000000000000000000000000000000000000000000000000000",
"00000000000000000000000000000000000000000000000000000000000000000000000000000000000000000000000000000000000000000000000000000000",
"00000000000000000000000000000000000000000000000000000000000000000000000000000000000000000000000000000000000000000000000000000000",
"00000000000000000000000000000000000000000000000000000000000000000000000000000000000000000000000000000000000000000000000000000000",
"00000000000000000000000000000000000000000000000000000000000000000000000000000000000000000000000000000000000000000000000000000000",
"00000000000000000000000000000000000000000000000000000000000000000000000000000000000000000000000000000000000000000000000000000000",
"00000000000000000000000000000000000000000000000000000000000000000000000000000000000000000000000000000000000000000000000000000000",
"00000000000000000000000000000000000000000000000000000000000000000000000000000000000000000000000000000000000000000000000000000000",
"00000000000000000000000000000000000000000000000000000000000000000000000000000000000000000000000000000000000000000000000000000000",
"00000000000000000000000000000000000000000000000000000000000000000000000000000000000000000000000000000000000000000000000000000000",
"00000000000000000000000000000000000000000000000000000000000000000000000000000000000000000000000000000000000000000000000000000000",
"00000000000000000000000000000000000000000000000000000000000000000000000000000000000000000000000000000000000000000000000000000000",
"00000000000000000000000000000000000000000000000000000000000000000000000000000000000000000000000000000000000000000000000000000000",
};
