/* XPM */
static char *image[] = {
"64 64 260 2",
"00 c #000000",
"01 c #1a1e1c",
"02 c #1d231f",
"03 c #1f3e29",
"04 c #1e3f2a",
"05 c #1a231e",
"06 c #1a221e",
"07 c #294f32",
"08 c #355834",
"09 c #338542",
"0a c #2d8544",
"0b c #1d442d",
"0c c #1a1d1c",
"0d c #1a1d1b",
"0e c #204c2f",
"0f c #3d9c49",
"10 c #66b952",
"11 c #48ae4d",
"12 c #389848",
"13 c #235935",
"14 c #1a241f",
"15 c #1a1c1b",
"16 c #1a3125",
"17 c #369448",
"18 c #5cbf50",
"19 c #67c555",
"1a c #399a48",
"1b c #276538",
"1c c #1a2f24",
"1d c #1c5c39",
"1e c #3ba04a",
"1f c #5cb150",
"20 c #49af4d",
"21 c #276a3a",
"22 c #1a251f",
"23 c #192b23",
"24 c #195738",
"25 c #28713d",
"26 c #328a45",
"27 c #3da34b",
"28 c #1a3728",
"29 c #16422f",
"2a c #195035",
"2b c #255f37",
"2c c #3ca14b",
"2d c #1a3828",
"2e c #349047",
"2f c #1e462c",
"30 c #1a1b1b",
"31 c #1b3a29",
"32 c #349147",
"33 c #2b773f",
"34 c #1b1c1b",
"35 c #307d41",
"36 c #3ea44b",
"37 c #3ea34b",
"38 c #287b42",
"39 c #2b462d",
"3a c #1a3928",
"3b c #1a1b1a",
"3c c #1a2720",
"3d c #307b40",
"3e c #3da24b",
"3f c #59c150",
"40 c #81d25f",
"41 c #6dc957",
"42 c #62b351",
"43 c #4bb04d",
"44 c #3ca14a",
"45 c #1d412b",
"46 c #1a2620",
"47 c #29713d",
"48 c #61b351",
"49 c #6dca57",
"4a c #9fdb6a",
"4b c #9edb6a",
"4c c #8ed663",
"4d c #6cc956",
"4e c #25663a",
"4f c #256339",
"50 c #3b9f4a",
"51 c #4bb14e",
"52 c #63b451",
"53 c #5bc351",
"54 c #72cb58",
"55 c #43a74d",
"56 c #389548",
"57 c #317f42",
"58 c #1b3b29",
"59 c #1a3426",
"5a c #243428",
"5b c #256138",
"5c c #318543",
"5d c #3a9c49",
"5e c #5fb250",
"5f c #58c050",
"60 c #5bc050",
"61 c #62b551",
"62 c #50b54f",
"63 c #3a9649",
"64 c #1e432c",
"65 c #1d271f",
"66 c #1c251e",
"67 c #1a3326",
"68 c #233328",
"69 c #308343",
"6a c #399446",
"6b c #3a9b49",
"6c c #49ad4d",
"6d c #78cc5c",
"6e c #96da65",
"6f c #94dc65",
"70 c #7cd15d",
"71 c #3fa54b",
"72 c #2c4f30",
"73 c #233227",
"74 c #2c703d",
"75 c #379045",
"76 c #22422e",
"77 c #1a3225",
"78 c #589e4a",
"79 c #64c054",
"7a c #76cb5b",
"7b c #55bd4f",
"7c c #68c655",
"7d c #a7e26c",
"7e c #bfec75",
"7f c #9ee069",
"80 c #71cc58",
"81 c #328342",
"82 c #2f8142",
"83 c #399045",
"84 c #1c3b28",
"85 c #233127",
"86 c #317e41",
"87 c #569a49",
"88 c #59a84e",
"89 c #389146",
"8a c #22402e",
"8b c #245b36",
"8c c #2f7e41",
"8d c #388d44",
"8e c #46a74b",
"8f c #5bb050",
"90 c #87d160",
"91 c #b4e771",
"92 c #b8e973",
"93 c #9ede69",
"94 c #afe56f",
"95 c #b3e771",
"96 c #88d661",
"97 c #53b750",
"98 c #45a64c",
"99 c #47ab4c",
"9a c #256e3d",
"9b c #60bc53",
"9c c #85cf5f",
"9d c #6bc555",
"9e c #57be50",
"9f c #5ab050",
"a0 c #378e45",
"a1 c #358a43",
"a2 c #378a43",
"a3 c #379547",
"a4 c #46aa4c",
"a5 c #62c154",
"a6 c #90d663",
"a7 c #7bcc5b",
"a8 c #5eb350",
"a9 c #90d864",
"aa c #c7f079",
"ab c #c1ec76",
"ac c #abe46d",
"ad c #72cc59",
"ae c #4cb24e",
"af c #2e7b40",
"b0 c #264629",
"b1 c #2b6c3b",
"b2 c #549748",
"b3 c #51b64e",
"b4 c #40a64c",
"b5 c #318b46",
"b6 c #232323",
"b7 c #194a32",
"b8 c #3b9e4a",
"b9 c #6eca57",
"ba c #68c855",
"bb c #66ba52",
"bc c #5ac250",
"bd c #5cbe50",
"be c #59af4f",
"bf c #48ad4d",
"c0 c #41a74c",
"c1 c #5fc452",
"c2 c #89d662",
"c3 c #6bbc54",
"c4 c #47a74d",
"c5 c #5ebc54",
"c6 c #8ed863",
"c7 c #b6e872",
"c8 c #98db67",
"c9 c #7fd15d",
"ca c #369548",
"cb c #338f47",
"cc c #46a94c",
"cd c #56aa4e",
"ce c #549a47",
"cf c #55a54d",
"d0 c #61c054",
"d1 c #84ce5f",
"d2 c #69c855",
"d3 c #266438",
"d4 c #266036",
"d5 c #236439",
"d6 c #235734",
"d7 c #1b5435",
"d8 c #1e3a2c",
"d9 c #347e3f",
"da c #429347",
"db c #3f9f4a",
"dc c #429b4a",
"dd c #308342",
"de c #388c45",
"df c #388e45",
"e0 c #379648",
"e1 c #3e9e4a",
"e2 c #4ba44e",
"e3 c #2d7940",
"e4 c #388240",
"e5 c #58a953",
"e6 c #68af53",
"e7 c #4fa54f",
"e8 c #44a04c",
"e9 c #348744",
"ea c #2a743e",
"eb c #21683c",
"ec c #21673c",
"ed c #227240",
"ee c #3b9a49",
"ef c #519f4b",
"f0 c #509f4a",
"f1 c #55a64c",
"f2 c #5daa4f",
"f3 c #45a14c",
"f4 c #1e603a",
"f5 c #1e6b3e",
"f6 c #1d5c39",
"f7 c #1a5b39",
"f8 c #194d33",
"f9 c #194931",
"fa c #192e24",
"fb c #213524",
"fc c #213a27",
"fd c #224129",
"fe c #1f3826",
"ff c #213b27",
"10 c #224029",
"10 c #1e3325",
"10 c #294329",
"10 c #2a4329",
"00000000000000000000000000000000000000000000000000000000000000000000000000000000000000000000000000000000000000000000000000000000",
"00000000000000000000000000000000000000000000000000000000000000000000000000000000000000000000000000000000000000000000000000000000",
"00000000000000000000000000000000000000000000000000000000000000000000000000000000000000000000000000000000000000000000000000000000",
"00000000000000000000000000000000000000000000000000000000000000000000000000000000000000000000000000000000000000000000000000000000",
"00000000000000000000000000000000000000000000000000000000000000000000000000000000000000000000000000000000000000000000000000000000",
"00000000000000000000000000000000000000000000000000000000000000000000000000000000000000000000000000000000000000000000000000000000",
"00000000000000000000000000000000000000000000000000000000000000000000000000000000000000000000000000000000000000000000000000000000",
"00000000000000000000000000000000000000000000000000000000000000000000000000000000000000000000000000000000000000000000000000000000",
"00000000000000000000000000000000000000000000000000000000000000000000000000000000000000000000000000000000000000000000000000000000",
"00000000000000000000000000000000000000000000000000000000000000000000000000000000000000000000000000000000000000000000000000000000",
"00000000000000000000000000000000000000000000000000000000000000000000000000000000000000000000000000000000000000000000000000000000",
"00000000000000000000000000000000000000000000000000000000000000000000000000000000000000000000000000000000000000000000000000000000",
"00000000000000000000000000000000000000000000000000000000000000000000000000000000000000000000000000000000000000000000000000000000",
"00000000000000000000000000000000000000000000000000000000000000000000000000000000000000000000000000000000000000000000000000000000",
"00000000000000000000000000000000000000000000000000000000000000000000000000000000000000000000000000000000000000000000000000000000",
"00000000000000000000000000000000000000000000000000000000000000000000000000000000000000000000000000000000000000000000000000000000",
"00000000000000000000000000000000000000000000000000000000000000000000000000000000000000000000000000000000000000000000000000000000",
"00000000000000000000000000000000000000000000000000000000000000000000000000000000000000000000000000000000000000000000000000000000",
"00000000000000000000000000000000000000000000000000000000000000000000000000000000000000000000000000000000000000000000000000000000",
"00000000000000000000000000000000000000000000000000000000000000000000000000000000000000000000000000000000000000000000000000000000",
"00000000000000000000000000000000000000000000000000000000000000000000000000000000000000000000000000000000000000000000000000000000",
"00000000000000000000000000000000000000000000000000000000000000000001010000000000000000000000000000000000000000000000000000000000",
"00000000000000000000000000000000000000000000000000000000000000020203040500000000000000000000000000000000000000000000000000000000",
"000000000000000000000000000000000000000000000000000000000000060708090a0b0c000000000000000000000000000000000000000000000000000000",
"00000000000000000000000000000000000000000000000000000000000d0e0f1011121314000000000000000000000000000000000000000000000000000000",
"0000000000000000000000000000000000000000000000000000000015161718191a1b1400000000000000000000000000000000000000000000000000000000",
"000000000000000000000000000000000000000000000000000000151c1d1e1f2021220000000000000000000000000000000000000000000000000000000000",
"00000000000000000000000000000000000000000000000000000023242526272728000000000000000000000000000000000000000000000000000000000000",
"000000000000000000000000000000000000000000000000000000292a2a2b2c272d000000000000000000000000000000000000000000000000000000000000",
"000000000000000000000000000000000000000000000000000000000000152e272f150000000000000000000000000000000000000000000000000000000000",
"00000000000000000000000000000000000000000000000000000000003031322733313430000000000000000000000000000000000000000000000000000000",
"00000000000000000000000000000000000000000000000000000000002d3527363738393a3b0000000000000000000000000000000000000000000000000000",
"000000000000000000000000000000000000000000000000000000003c3d3e3f4041424344450000000000000000000000000000000000000000000000000000",
"00000000000000000000000000000000000000000000000000000046474448494a4b4c4d274e4600000000000000000000000000000000000000000000000000",
"0000000000000000000000000000000000000000000000000046464f505152535454555657583b00000000000000000000000000000000000000000000000000",
"0000000000000000000000000000000000000000000000595a5b5c5d5e5f606162636465660d0000000000000000000000000000000000000000000000000000",
"0000000000000067670000000000000000000000676768696a6b6c6d6e6f70527172010000000000000000006768676700000000000000000000000000000000",
"0000000000737374757600000000002277737373747578797a7b7c7d7e7f80522781770000000000000000738283758284000000000000000000000000000000",
"000000008586878820898a161685858b8c8d87878e8f909192936f949596979827508c161616160016858586992020509a140000000000000000000000000000",
"000000143d9b9c9d9e9fa0a1a1a2a2a3a4a5a6a7a852a991aaabac9494adae2717172eafafafafb0b1a2b2b3a8b4b427b5671414141400000000000000000000",
"0000b6b7b8b9babbbcbdbe272711bebfc0c1c2c3c4c4c5c6c792c8c9c8b9c0ca2ecb2e2eb8cccdcecfd0d1d2c4cacaca2ed3d4d5d6d71c052205050500000000",
"0000d824d9dadbdcdbdbdcddd9dedcdfe0e1e2dcdde3e4e2e5e6e7e8e7e8e9eaebecebedd9eedceff0f1f2f3e3ebebeaebf4f4f5f6f7f8f9f9f9f9f905000000",
"00003cfafbfcfdfdfdfdfdfefbfcfdfffd10fdfdfe10fbfdfd10fd10fd10fc10fafafa77fbfdfd10101010fd10fafa10fafafa77fafafafafafafafa01000000",
"00000000000000000000000000000000000000000000000000000000000000000000000000000000000000000000000000000000000000000000000000000000",
"00000000000000000000000000000000000000000000000000000000000000000000000000000000000000000000000000000000000000000000000000000000",
"00000000000000000000000000000000000000000000000000000000000000000000000000000000000000000000000000000000000000000000000000000000",
"00000000000000000000000000000000000000000000000000000000000000000000000000000000000000000000000000000000000000000000000000000000",
"00000000000000000000000000000000000000000000000000000000000000000000000000000000000000000000000000000000000000000000000000000000",
"00000000000000000000000000000000000000000000000000000000000000000000000000000000000000000000000000000000000000000000000000000000",
"00000000000000000000000000000000000000000000000000000000000000000000000000000000000000000000000000000000000000000000000000000000",
"00000000000000000000000000000000000000000000000000000000000000000000000000000000000000000000000000000000000000000000000000000000",
"00000000000000000000000000000000000000000000000000000000000000000000000000000000000000000000000000000000000000000000000000000000",
"00000000000000000000000000000000000000000000000000000000000000000000000000000000000000000000000000000000000000000000000000000000",
"00000000000000000000000000000000000000000000000000000000000000000000000000000000000000000000000000000000000000000000000000000000",
"00000000000000000000000000000000000000000000000000000000000000000000000000000000000000000000000000000000000000000000000000000000",
"00000000000000000000000000000000000000000000000000000000000000000000000000000000000000000000000000000000000000000000000000000000",
"00000000000000000000000000000000000000000000000000000000000000000000000000000000000000000000000000000000000000000000000000000000",
"00000000000000000000000000000000000000000000000000000000000000000000000000000000000000000000000000000000000000000000000000000000",
"00000000000000000000000000000000000000000000000000000000000000000000000000000000000000000000000000000000000000000000000000000000",
"00000000000000000000000000000000000000000000000000000000000000000000000000000000000000000000000000000000000000000000000000000000",
"00000000000000000000000000000000000000000000000000000000000000000000000000000000000000000000000000000000000000000000000000000000",
"00000000000000000000000000000000000000000000000000000000000000000000000000000000000000000000000000000000000000000000000000000000",
"00000000000000000000000000000000000000000000000000000000000000000000000000000000000000000000000000000000000000000000000000000000",
"00000000000000000000000000000000000000000000000000000000000000000000000000000000000000000000000000000000000000000000000000000000",
};
