/* XPM */
static char *image[] = {
"64 64 291 2",
"00 c #000000",
"01 c #1a241f",
"02 c #1a1e1b",
"03 c #1a231e",
"04 c #192620",
"05 c #194b31",
"06 c #1b2b21",
"07 c #1a211d",
"08 c #19241f",
"09 c #194a30",
"0a c #175839",
"0b c #1b5c3a",
"0c c #1b2820",
"0d c #19412c",
"0e c #185035",
"0f c #1a5c39",
"10 c #1d342a",
"11 c #1b221d",
"12 c #1e271e",
"13 c #1b1d1b",
"14 c #1b2920",
"15 c #1b1e1b",
"16 c #1b211d",
"17 c #1d231d",
"18 c #2c6c3c",
"19 c #489946",
"1a c #449745",
"1b c #213624",
"1c c #2c592f",
"1d c #297d42",
"1e c #428f46",
"1f c #59ba51",
"20 c #74cc5a",
"21 c #49ae4b",
"22 c #203423",
"23 c #1a1b1a",
"24 c #1b1c1b",
"25 c #29673a",
"26 c #3ea44b",
"27 c #55bc4f",
"28 c #75cc5a",
"29 c #7cd25c",
"2a c #66c655",
"2b c #2b542e",
"2c c #245733",
"2d c #439343",
"2e c #74ca59",
"2f c #95da66",
"30 c #83d35f",
"31 c #8ad661",
"32 c #4eac51",
"33 c #1e3123",
"34 c #2a522d",
"35 c #4ca84f",
"36 c #9cd76a",
"37 c #bfec75",
"38 c #c1ed76",
"39 c #96da66",
"3a c #5ec351",
"3b c #2c5930",
"3c c #3f8944",
"3d c #368541",
"3e c #1e3122",
"3f c #233229",
"40 c #81b758",
"41 c #c0ec76",
"42 c #caf17a",
"43 c #b6e972",
"44 c #9dda6b",
"45 c #4cb44d",
"46 c #223825",
"47 c #477c3b",
"48 c #90d564",
"49 c #5dbb52",
"4a c #233824",
"4b c #85b859",
"4c c #c3ee77",
"4d c #cbf17a",
"4e c #c9f079",
"4f c #bfec76",
"50 c #5ebe53",
"51 c #24392b",
"52 c #265e36",
"53 c #7ecb5b",
"54 c #beec75",
"55 c #80d25e",
"56 c #3d8341",
"57 c #1d2f22",
"58 c #265b35",
"59 c #84d05e",
"5a c #caf079",
"5b c #9dde69",
"5c c #3f8840",
"5d c #203222",
"5e c #358442",
"5f c #6bc956",
"60 c #9ddd69",
"61 c #89d661",
"62 c #49ad4c",
"63 c #255934",
"64 c #409e49",
"65 c #77cd5b",
"66 c #a6de6e",
"67 c #ade56e",
"68 c #c4ee77",
"69 c #c5ef78",
"6a c #6cc256",
"6b c #3b7d3f",
"6c c #1d2e21",
"6d c #284b2a",
"6e c #308f47",
"6f c #44a94d",
"70 c #67c655",
"71 c #9cda6a",
"72 c #7ace5c",
"73 c #3b7e3f",
"74 c #255733",
"75 c #3f9c48",
"76 c #51b84e",
"77 c #5fc551",
"78 c #7ecf5d",
"79 c #85d55f",
"7a c #9add68",
"7b c #bbeb74",
"7c c #9dde68",
"7d c #5ab451",
"7e c #397a3e",
"7f c #31723b",
"80 c #2c6a3a",
"81 c #38753c",
"82 c #3b7c3b",
"83 c #348a43",
"84 c #2f9048",
"85 c #379a49",
"86 c #56bd4f",
"87 c #b4e771",
"88 c #aee56f",
"89 c #7bc75b",
"8a c #3c813d",
"8b c #203022",
"8c c #22492e",
"8d c #306f39",
"8e c #43a148",
"8f c #54bd4e",
"90 c #58c14f",
"91 c #64c654",
"92 c #97db67",
"93 c #c5ee78",
"94 c #a7e36c",
"95 c #70c958",
"96 c #53b64c",
"97 c #66bc54",
"98 c #87c862",
"99 c #6fbc59",
"9a c #70be59",
"9b c #76c45a",
"9c c #79c55a",
"9d c #75c558",
"9e c #5fbb51",
"9f c #50b34c",
"a0 c #48aa4b",
"a1 c #3ba04a",
"a2 c #349649",
"a3 c #6dc857",
"a4 c #b9ea73",
"a5 c #c7ef78",
"a6 c #b6e872",
"a7 c #8aca62",
"a8 c #4c8a41",
"a9 c #1f2f22",
"aa c #21472d",
"ab c #366e39",
"ac c #39843f",
"ad c #397439",
"ae c #3c9446",
"af c #53b34d",
"b0 c #6fca58",
"b1 c #63c653",
"b2 c #55be4f",
"b3 c #67c755",
"b4 c #82d35e",
"b5 c #bceb74",
"b6 c #87d660",
"b7 c #5dc052",
"b8 c #8ed763",
"b9 c #bae974",
"ba c #aae36e",
"bb c #b4e871",
"bc c #88d560",
"bd c #52b84f",
"be c #43a94c",
"bf c #41a74b",
"c0 c #3da34b",
"c1 c #369849",
"c2 c #c0ed76",
"c3 c #a0d768",
"c4 c #84c561",
"c5 c #4b8740",
"c6 c #2f6b38",
"c7 c #236037",
"c8 c #245c34",
"c9 c #245231",
"ca c #182a23",
"cb c #193828",
"cc c #26703e",
"cd c #3e9c49",
"ce c #49b04d",
"cf c #45a449",
"d0 c #3f9f49",
"d1 c #45aa4c",
"d2 c #57be50",
"d3 c #68c556",
"d4 c #4fb34e",
"d5 c #44aa4c",
"d6 c #6bc557",
"d7 c #62c354",
"d8 c #78ce5b",
"d9 c #8fd763",
"da c #7acc5d",
"db c #55b651",
"dc c #3fa34b",
"dd c #65bb57",
"de c #82d25f",
"df c #8cd663",
"e0 c #7fd15e",
"e1 c #73cc59",
"e2 c #5dbd53",
"e3 c #3ca04a",
"e4 c #2d8645",
"e5 c #2b8344",
"e6 c #389b4a",
"e7 c #57ba51",
"e8 c #97dc66",
"e9 c #b2e770",
"ea c #ade170",
"eb c #a4e06c",
"ec c #a1df6a",
"ed c #56b54d",
"ee c #369347",
"ef c #318f47",
"f0 c #2a8143",
"f1 c #27743f",
"f2 c #204c30",
"f3 c #18442f",
"f4 c #1a4e32",
"f5 c #245933",
"f6 c #235d36",
"f7 c #21452c",
"f8 c #1a3325",
"f9 c #244831",
"fa c #2a5a31",
"fb c #316131",
"fc c #2d5c31",
"fd c #346432",
"fe c #386534",
"ff c #285730",
"10 c #376633",
"10 c #3f6a3b",
"10 c #2b5930",
"10 c #285133",
"10 c #26532f",
"10 c #305d33",
"10 c #3b6839",
"10 c #426c3c",
"10 c #2f5f31",
"10 c #1d4d30",
"10 c #1c482f",
"10 c #4c703a",
"10 c #59753f",
"10 c #57733f",
"10 c #52723d",
"10 c #496f39",
"11 c #254c32",
"11 c #1e3a27",
"11 c #183528",
"11 c #1a3928",
"11 c #1f4030",
"11 c #21482c",
"11 c #214a2d",
"11 c #244630",
"11 c #1a201c",
"11 c #1d211f",
"11 c #1c241d",
"11 c #1d251d",
"11 c #1e2520",
"11 c #1f2621",
"11 c #19221e",
"11 c #22271f",
"12 c #23281f",
"12 c #21271f",
"12 c #191e1c",
"00000000000000000000000000000000000000000000000000000000000000000000000000000000000000000000000000000000000000000000000000000000",
"00000000000000000000000000000000000000000000000000000000000000000000000000000000000000000000000000000000000000000000000000000000",
"00000000000000000000000000000000000000000000000000000000000000000000000000000000000000000000000000000000000000000000000000000000",
"00000000000000000000000000000000000000000000000000000000000000000000000000000000000000000000000000000000000000000000000000000000",
"00000000000000000000000000000000000000000000000000000000000000000000000000000000000000000000000000000000000000000000000000000000",
"00000000000000000000000000000000000000000000000000000000000000000000000000000000000000000000000000000000000000000000000000000000",
"00000000000000000000000000000000000000000000000000000000000000000000000000000000000000000000000000000000000000000000000000000000",
"00000000000000000000000000000000000000000000000000000000000000000000000000000000000000000000000000000000000000000000000000000000",
"00000000000000000000000000000000000000000000000000000000000000000000000000000000000000000000000000000000000000000000000000000000",
"00000000000000000000000000000000000000000000000000000000000000000000000000000000000000000000000000000000000000000000000000000000",
"00000000000000000000000000000000000000000000000000000000000000000000000000000000000000000000000000000000000000000000000000000000",
"00000000000000000000000000000000000000000000000000000000000000000000000000000000000000000000000000000000000000000000000000000000",
"00000000000000000000000000000000000000000000000000000000000000000000000000000000000000000000000000000000000000000000000000000000",
"00000000000000000000000000000000000000000000000000000000000000000000000000000000000000000000000000000000000000000000000000000000",
"00000000000000000000000000000000000000000000000000000000000000000000000000000000000000000000000000000000000000000000000000000000",
"00000000000000000000000000000000000000000000000000000000000000000000000000000000000000000000000000000000000000000000000000000000",
"00000000000000000000000000000000000000000000000000000000000000000000000000000000000000000000000000000000000000000000000000000000",
"00000000000000000000000000000000000000000000000000000000000000000000000000000000000000000000000000000000000000000000000000000000",
"00000000000000000000000000000000000000000000000000000000000000000000000000000000000000000000000000000000000000000000000000000000",
"00000000000000000000000000000000000000000000000000000000000000000000000000000000000000000000000000000000000000000000000000000000",
"00000000000000000000000000000000000000000000000000000000000000000000000000000000000000000000000000000000000000000000000000000000",
"00000000000000000000000000000000000000000000000000000000000000000000000000000000000000000000000000000000000000000000000000000000",
"00000000000000000000000000000000000000000000000000000000000000000000000000000000000000000000000000000000000000000000000000000000",
"00000000000000000000000000000000000000000000000000000000000000000000000000000000000000000000000000000000000000000000000000000000",
"00000000000000000000000000000000000000000000000000000000000000000000000000000102000000000000000000000000000000000000000000000000",
"00000000000000000000000000000000000000000000000000000000000000000000000003040506000000000000000000000000000000000000000000000000",
"000000000000000000000000000000000000000000000000000000000000000000000708090a0b0c000000000000000000000000000000000000000000000000",
"000000000000000000000000000000000000000000000000000000000000000000000d0e0f0f1000000000000000000000000000000000000000000000000000",
"00000000000000000000000000000000000000111212130000000000000000000000141414140000000000000000000000000000000000000000000000000000",
"0000000000000000000000000000000015161718191a1b0000000000000000000000000000000000000000000000000000000000000000000000000000000000",
"000000000000000000000000000000151c1d1e1f2021220000000000000000000000000000000000000000000000000000000000000000000000000000000000",
"00000000000000000000000000232425262728292a2b000000000000000000000000000000230000000000000000000000000000000000000000000000000000",
"000000000000000000000000002c2d2e2f303129321b0000000000000000000000000000002c3300000000000000000000000000000000000000000000000000",
"000000000000000000000000343536373839293a3b230000000000000000000000000000003c3d3e000000000000000000000000000000000000000000000000",
"0000000000000000000000003f40414242434445460000000000000000000000000000004748494a000000000000000000000000000000000000000000000000",
"000000000000000000000000244b4c4d4d4e4f505100000000000000000000000000005253545556570000000000000000000000000000000000000000000000",
"00000000000000000000000058594c4d4d4d5a5b5c5d000000000000000000000000005e5f6061624a0000000000000000000000000000000000000000000000",
"0000000000000000000000636465666767684d696a6b6c00000000000000000000006d6e6f707172736c00000000000000000000000000000000000000000000",
"000000000000000000007475767778797a7b4d4d7c7d7e7f7f7f807f7f8182828281838485868788898a8b000000000000000000000000000000000000000000",
"00000000000000008c8d8e8f9091282992384d93949596979898999a9b9c9d9e9fa0a1a2a1a3a4a5a6a7a88da900000000000000000000000000000000000000",
"000000aaabacadadaeafb0b1b2b355b492b54db5b6b7b2b8b9b9ba60bbbbbcbdbebfc0c1c028c24d4eb9c3c4c5c6c7c7c8c9ca00000000000000000000000000",
"0000cbcccdcecfd0d1d2d3d4d5d4d6d7d3d8d9dadbdcdcdddedfe0e1dfdee2e36ee4e4e5e6e7e8e9eaebecdfedeeefeff0f1f2f3f3f4f5f6f5f7000000000000",
"0000f8f9fafbfcfafcfdfefcfffcfefdfd1010fe101010101010101010101010101010f910fb101010101010fd10101011101111111111111111000000000000",
"00001111111111111111111111111111111111111111111111111111111111111111111111111112121111121111111111111112111111111111000000000000",
"00000000000000000000000000000000000000000000000000000000000000000000000000000000000000000000000000000000000000000000000000000000",
"00000000000000000000000000000000000000000000000000000000000000000000000000000000000000000000000000000000000000000000000000000000",
"00000000000000000000000000000000000000000000000000000000000000000000000000000000000000000000000000000000000000000000000000000000",
"00000000000000000000000000000000000000000000000000000000000000000000000000000000000000000000000000000000000000000000000000000000",
"00000000000000000000000000000000000000000000000000000000000000000000000000000000000000000000000000000000000000000000000000000000",
"00000000000000000000000000000000000000000000000000000000000000000000000000000000000000000000000000000000000000000000000000000000",
"00000000000000000000000000000000000000000000000000000000000000000000000000000000000000000000000000000000000000000000000000000000",
"00000000000000000000000000000000000000000000000000000000000000000000000000000000000000000000000000000000000000000000000000000000",
"00000000000000000000000000000000000000000000000000000000000000000000000000000000000000000000000000000000000000000000000000000000",
"00000000000000000000000000000000000000000000000000000000000000000000000000000000000000000000000000000000000000000000000000000000",
"00000000000000000000000000000000000000000000000000000000000000000000000000000000000000000000000000000000000000000000000000000000",
"00000000000000000000000000000000000000000000000000000000000000000000000000000000000000000000000000000000000000000000000000000000",
"00000000000000000000000000000000000000000000000000000000000000000000000000000000000000000000000000000000000000000000000000000000",
"00000000000000000000000000000000000000000000000000000000000000000000000000000000000000000000000000000000000000000000000000000000",
"00000000000000000000000000000000000000000000000000000000000000000000000000000000000000000000000000000000000000000000000000000000",
"00000000000000000000000000000000000000000000000000000000000000000000000000000000000000000000000000000000000000000000000000000000",
"00000000000000000000000000000000000000000000000000000000000000000000000000000000000000000000000000000000000000000000000000000000",
"00000000000000000000000000000000000000000000000000000000000000000000000000000000000000000000000000000000000000000000000000000000",
"00000000000000000000000000000000000000000000000000000000000000000000000000000000000000000000000000000000000000000000000000000000",
"00000000000000000000000000000000000000000000000000000000000000000000000000000000000000000000000000000000000000000000000000000000",
};
