/* XPM */
static char *image[] = {
"64 64 283 2",
"00 c #000000",
"01 c #1a1e1c",
"02 c #1a231e",
"03 c #1d3b29",
"04 c #1b3c2a",
"05 c #1d221e",
"06 c #204a2f",
"07 c #1f4d31",
"08 c #24683c",
"09 c #1d6b3f",
"0a c #215735",
"0b c #1a241f",
"0c c #1a211d",
"0d c #294a30",
"0e c #348644",
"0f c #2a8144",
"10 c #225935",
"11 c #1b5435",
"12 c #1a251f",
"13 c #1a1d1b",
"14 c #1e462e",
"15 c #398e45",
"16 c #3b9d4a",
"17 c #245e38",
"18 c #1a2520",
"19 c #1a2d24",
"1a c #2f7a40",
"1b c #41a24a",
"1c c #31793e",
"1d c #233227",
"1e c #18412f",
"1f c #225d37",
"20 c #2e703b",
"21 c #1a3427",
"22 c #1a1b1b",
"23 c #1a1b1a",
"24 c #1b2d23",
"25 c #1b2e23",
"26 c #1b2c22",
"27 c #256b3d",
"28 c #2c783f",
"29 c #1e462d",
"2a c #1a1c1b",
"2b c #1a2921",
"2c c #2b773e",
"2d c #3ea34c",
"2e c #2d8a46",
"2f c #254a32",
"30 c #25392a",
"31 c #1a3929",
"32 c #24673c",
"33 c #43a94c",
"34 c #6cc857",
"35 c #56b951",
"36 c #4bb24d",
"37 c #3da14b",
"38 c #359648",
"39 c #267841",
"3a c #195738",
"3b c #1a2821",
"3c c #307d41",
"3d c #5ac150",
"3e c #9edb6a",
"3f c #aee46f",
"40 c #8ed763",
"41 c #369849",
"42 c #317f41",
"43 c #24693c",
"44 c #1a2a22",
"45 c #1a2720",
"46 c #1a3628",
"47 c #243529",
"48 c #369648",
"49 c #5bc250",
"4a c #92d964",
"4b c #93da65",
"4c c #70ca58",
"4d c #398b44",
"4e c #263e2c",
"4f c #1c221d",
"50 c #1b201c",
"51 c #1a2620",
"52 c #236139",
"53 c #25703e",
"54 c #1d3e2a",
"55 c #243428",
"56 c #337e40",
"57 c #48a649",
"58 c #57bd4f",
"59 c #61c452",
"5a c #42a74d",
"5b c #27402d",
"5c c #1b1d1c",
"5d c #286b3a",
"5e c #339147",
"5f c #3a9d4b",
"60 c #328c45",
"61 c #233328",
"62 c #418843",
"63 c #65bf54",
"64 c #7dd15c",
"65 c #58bb51",
"66 c #4eb64d",
"67 c #379949",
"68 c #1e412c",
"69 c #286839",
"6a c #3a9b49",
"6b c #42a74b",
"6c c #3ca14b",
"6d c #234530",
"6e c #1a3326",
"6f c #408542",
"70 c #4d9a4d",
"71 c #46984b",
"72 c #4ea34a",
"73 c #84cd5f",
"74 c #b6e872",
"75 c #9fe069",
"76 c #71cb58",
"77 c #4eb54e",
"78 c #4cb44d",
"79 c #45ac4c",
"7a c #286d3b",
"7b c #1a3226",
"7c c #233127",
"7d c #349147",
"7e c #55bc4f",
"7f c #4fb84d",
"80 c #4ab24d",
"81 c #49b04d",
"82 c #389047",
"83 c #308141",
"84 c #28753e",
"85 c #308442",
"86 c #264529",
"87 c #2c6c3a",
"88 c #2b7b40",
"89 c #338443",
"8a c #50a648",
"8b c #9bd668",
"8c c #aee171",
"8d c #9dda6a",
"8e c #9fdd6a",
"8f c #a9e26d",
"90 c #b5e872",
"91 c #77ce5b",
"92 c #53b84f",
"93 c #3ea44c",
"94 c #2c8544",
"95 c #246c3d",
"96 c #286638",
"97 c #283b29",
"98 c #388d45",
"99 c #233f2d",
"9a c #1a3125",
"9b c #2c6d3b",
"9c c #378a44",
"9d c #4bb34d",
"9e c #7ad05b",
"9f c #66c655",
"a0 c #51b94e",
"a1 c #42a84c",
"a2 c #47ad4c",
"a3 c #44aa4b",
"a4 c #4fa748",
"a5 c #4ea147",
"a6 c #4aad4b",
"a7 c #3fa44b",
"a8 c #84d35f",
"a9 c #afe56f",
"aa c #c7f079",
"ab c #c1ed76",
"ac c #b1e670",
"ad c #98dc67",
"ae c #5cbd52",
"af c #40a74c",
"b0 c #399c4a",
"b1 c #389a4a",
"b2 c #349448",
"b3 c #329147",
"b4 c #399849",
"b5 c #3e9245",
"b6 c #358a44",
"b7 c #2f7e3f",
"b8 c #254328",
"b9 c #223026",
"ba c #276437",
"bb c #2c8444",
"bc c #3ba04b",
"bd c #328543",
"be c #2f8141",
"bf c #223d2c",
"c0 c #266538",
"c1 c #3a9949",
"c2 c #3da34c",
"c3 c #73cc59",
"c4 c #6dc957",
"c5 c #56ba50",
"c6 c #41a74c",
"c7 c #3fa54b",
"c8 c #4cb24e",
"c9 c #50b94e",
"ca c #68c755",
"cb c #82d35f",
"cc c #59c04f",
"cd c #3fa54c",
"ce c #3c9f4a",
"cf c #5ebd53",
"d0 c #8ed863",
"d1 c #b8e973",
"d2 c #99dc67",
"d3 c #7fd15e",
"d4 c #69c855",
"d5 c #49ae4d",
"d6 c #339549",
"d7 c #2f8d47",
"d8 c #48af4d",
"d9 c #55bb4f",
"da c #53ba4f",
"db c #51b74e",
"dc c #4ea447",
"dd c #4d9d46",
"de c #469844",
"df c #389748",
"e0 c #339448",
"e1 c #389b4a",
"e2 c #3a9d4a",
"e3 c #2a7841",
"e4 c #236339",
"e5 c #266136",
"e6 c #1d5b38",
"e7 c #1a3025",
"e8 c #183e2e",
"e9 c #266c3c",
"ea c #308342",
"eb c #287f44",
"ec c #398e44",
"ed c #469a49",
"ee c #46a64d",
"ef c #3b9c4b",
"f0 c #2b7940",
"f1 c #388c45",
"f2 c #3e9646",
"f3 c #3b9b49",
"f4 c #519f4d",
"f5 c #419847",
"f6 c #297640",
"f7 c #307e41",
"f8 c #49974a",
"f9 c #58a953",
"fa c #68af53",
"fb c #3d9245",
"fc c #328542",
"fd c #27743f",
"fe c #1f663c",
"ff c #217040",
"10 c #41a44b",
"10 c #4ca34a",
"10 c #4ea44a",
"10 c #348944",
"10 c #267c43",
"10 c #247540",
"10 c #26723f",
"10 c #1f6b3e",
"10 c #1e613a",
"10 c #1a5e3a",
"10 c #194e33",
"10 c #194931",
"10 c #194a31",
"10 c #192922",
"10 c #1d3325",
"10 c #1f3826",
"11 c #1b3626",
"11 c #213b27",
"11 c #233e27",
"11 c #234329",
"11 c #214129",
"11 c #213a27",
"11 c #224129",
"11 c #294329",
"11 c #192e24",
"11 c #1a3325",
"11 c #284229",
"00000000000000000000000000000000000000000000000000000000000000000000000000000000000000000000000000000000000000000000000000000000",
"00000000000000000000000000000000000000000000000000000000000000000000000000000000000000000000000000000000000000000000000000000000",
"00000000000000000000000000000000000000000000000000000000000000000000000000000000000000000000000000000000000000000000000000000000",
"00000000000000000000000000000000000000000000000000000000000000000000000000000000000000000000000000000000000000000000000000000000",
"00000000000000000000000000000000000000000000000000000000000000000000000000000000000000000000000000000000000000000000000000000000",
"00000000000000000000000000000000000000000000000000000000000000000000000000000000000000000000000000000000000000000000000000000000",
"00000000000000000000000000000000000000000000000000000000000000000000000000000000000000000000000000000000000000000000000000000000",
"00000000000000000000000000000000000000000000000000000000000000000000000000000000000000000000000000000000000000000000000000000000",
"00000000000000000000000000000000000000000000000000000000000000000000000000000000000000000000000000000000000000000000000000000000",
"00000000000000000000000000000000000000000000000000000000000000000000000000000000000000000000000000000000000000000000000000000000",
"00000000000000000000000000000000000000000000000000000000000000000000000000000000000000000000000000000000000000000000000000000000",
"00000000000000000000000000000000000000000000000000000000000000000000000000000000000000000000000000000000000000000000000000000000",
"00000000000000000000000000000000000000000000000000000000000000000000000000000000000000000000000000000000000000000000000000000000",
"00000000000000000000000000000000000000000000000000000000000000000000000000000000000000000000000000000000000000000000000000000000",
"00000000000000000000000000000000000000000000000000000000000000000000000000000000000000000000000000000000000000000000000000000000",
"00000000000000000000000000000000000000000000000000000000000000000000000000000000000000000000000000000000000000000000000000000000",
"00000000000000000000000000000000000000000000000000000000000000000000000000000000000000000000000000000000000000000000000000000000",
"00000000000000000000000000000000000000000000000000000000000000000000000000000000000000000000000000000000000000000000000000000000",
"00000000000000000000000000000000000000000000000000000000000000000000000000000000000000000000000000000000000000000000000000000000",
"00000000000000000000000000000000000000000000000000000000000000000000000000000000000000000000000000000000000000000000000000000000",
"00000000000000000000000000000000000000000000000000000000000000000000000000000000000000000000000000000000000000000000000000000000",
"00000000000000000000000000000000000000000000000000000000000000000000000101010000000000000000000000000000000000000000000000000000",
"00000000000000000000000000000000000000000000000000000000000000000002020304030100000000000000000000000000000000000000000000000000",
"000000000000000000000000000000000000000000000000000000000000000005060708090a0b00000000000000000000000000000000000000000000000000",
"000000000000000000000000000000000000000000000000000000000000000c0d0e0f1011120000000000000000000000000000000000000000000000000000",
"00000000000000000000000000000000000000000000000000000000000013141516171800000000000000000000000000000000000000000000000000000000",
"000000000000000000000000000000000000000000000000000000000000191a1b1c1d0000000000000000000000000000000000000000000000000000000000",
"0000000000000000000000000000000000000000000000000000000000001e1f2021000000000000000000000000000000000000000000000000000000000000",
"00000000000000000000000000000000000000000000000000000000000000002222000000000000000000000000000000000000000000000000000000000000",
"00000000000000000000000000000000000000000000000000000000000000232425130000000000000000000000000000000000000000000000000000000000",
"00000000000000000000000000000000000000000000000000000000000023262728292a22222323000000000000000000000000000000000000000000000000",
"0000000000000000000000000000000000000000000000000000000000002b2c2d2d2e2f30312b2b000000000000000000000000000000000000000000000000",
"0000000000000000000000000000000000000000000000000000000000003233343435363738393a3b0000000000000000000000000000000000000000000000",
"0000000000000000000000000000000000000000000000000000000000003c3d3e3f403d41424344230000000000000000000000000000000000000000000000",
"00000000000000000045450000000000000000000000000000000000464748494a4b4c4d4e4f5023000000000000000000000000000000000000000000000000",
"000000000000000051525354000000000000000000000000000000555657584959595a5b5c000000000000000000000000000000000000000000000000000000",
"00000000000000515d5e5f6021000000000000000000006161616162634b64656666676800000000000000000000000000000000000000000000000000000000",
"00000000000000696a6b336c6d1818186e000018181d1d6f70717273747576777879417a6e1800000000000000186e1d6e000000000000000000000000000000",
"00000000007b7c7d7e7f80818283848485867c8788898a8b8c8d8e8f90919279799341949596977b180000001896859885997b00000000000000000000000000",
"000000009a9b9c9d9e9fa078a1a2a3a3a2a4a5a6a7a2a8a9aaabacacadaeafb0b0b141b2b3b4b5b6b7b8b9b9babbbca141bdbebf121212000000000000000000",
"0000000bc0c1c266c3c4c5c6c7c8c97878cacbcccdcecfd074d1d2d3d4d5d6d7d7d7d7d7bcd8d9dadbdcdddedfe0e1e241d741e3e4e5e6e712020b0000000000",
"000000e8e9eaebecedeeefeaf0f1f2ecf3edf4f5eaf6f7f8f9faf4edfbfcfdfefefefeffebec1010101010f210f6f610f6ff1010101010101010100b00000000",
"00000010101011111111111010111111111111111010101111111111111010111111111111111111111111111110101110111110111111111111110100000000",
"00000000000000000000000000000000000000000000000000000000000000000000000000000000000000000000000000000000000000000000000000000000",
"00000000000000000000000000000000000000000000000000000000000000000000000000000000000000000000000000000000000000000000000000000000",
"00000000000000000000000000000000000000000000000000000000000000000000000000000000000000000000000000000000000000000000000000000000",
"00000000000000000000000000000000000000000000000000000000000000000000000000000000000000000000000000000000000000000000000000000000",
"00000000000000000000000000000000000000000000000000000000000000000000000000000000000000000000000000000000000000000000000000000000",
"00000000000000000000000000000000000000000000000000000000000000000000000000000000000000000000000000000000000000000000000000000000",
"00000000000000000000000000000000000000000000000000000000000000000000000000000000000000000000000000000000000000000000000000000000",
"00000000000000000000000000000000000000000000000000000000000000000000000000000000000000000000000000000000000000000000000000000000",
"00000000000000000000000000000000000000000000000000000000000000000000000000000000000000000000000000000000000000000000000000000000",
"00000000000000000000000000000000000000000000000000000000000000000000000000000000000000000000000000000000000000000000000000000000",
"00000000000000000000000000000000000000000000000000000000000000000000000000000000000000000000000000000000000000000000000000000000",
"00000000000000000000000000000000000000000000000000000000000000000000000000000000000000000000000000000000000000000000000000000000",
"00000000000000000000000000000000000000000000000000000000000000000000000000000000000000000000000000000000000000000000000000000000",
"00000000000000000000000000000000000000000000000000000000000000000000000000000000000000000000000000000000000000000000000000000000",
"00000000000000000000000000000000000000000000000000000000000000000000000000000000000000000000000000000000000000000000000000000000",
"00000000000000000000000000000000000000000000000000000000000000000000000000000000000000000000000000000000000000000000000000000000",
"00000000000000000000000000000000000000000000000000000000000000000000000000000000000000000000000000000000000000000000000000000000",
"00000000000000000000000000000000000000000000000000000000000000000000000000000000000000000000000000000000000000000000000000000000",
"00000000000000000000000000000000000000000000000000000000000000000000000000000000000000000000000000000000000000000000000000000000",
"00000000000000000000000000000000000000000000000000000000000000000000000000000000000000000000000000000000000000000000000000000000",
"00000000000000000000000000000000000000000000000000000000000000000000000000000000000000000000000000000000000000000000000000000000",
};
