/* XPM */
static char *image[] = {
"64 64 259 2",
"00 c #000000",
"01 c #1e1e1e",
"02 c #1a1f1c",
"03 c #1b211d",
"04 c #1a1e1c",
"05 c #23332a",
"06 c #1e3b28",
"07 c #244b2d",
"08 c #2a4e2d",
"09 c #1b3627",
"0a c #1a1e1b",
"0b c #1b3426",
"0c c #1e5e39",
"0d c #276d3c",
"0e c #358d45",
"0f c #439045",
"10 c #30783d",
"11 c #245633",
"12 c #1a4930",
"13 c #1b261f",
"14 c #1a1d1b",
"15 c #1d3726",
"16 c #1f623a",
"17 c #2d7b3f",
"18 c #287841",
"19 c #2f8242",
"1a c #286738",
"1b c #1d2e22",
"1c c #1d3525",
"1d c #2d713d",
"1e c #388f45",
"1f c #2a773f",
"20 c #1a4f33",
"21 c #1b2720",
"22 c #1b2e23",
"23 c #26683b",
"24 c #489948",
"25 c #2c7d42",
"26 c #1b2a21",
"27 c #1b412e",
"28 c #1d5b37",
"29 c #3ea24b",
"2a c #40a64c",
"2b c #489947",
"2c c #1c2e22",
"2d c #1a1c1b",
"2e c #4c9a48",
"2f c #5dc251",
"30 c #5bc251",
"31 c #3fa54b",
"32 c #295630",
"33 c #1d3224",
"34 c #1a1b1a",
"35 c #203826",
"36 c #69b553",
"37 c #81d35e",
"38 c #6dc957",
"39 c #59bf50",
"3a c #3ea44b",
"3b c #358e45",
"3c c #1e452c",
"3d c #1e3424",
"3e c #4a9947",
"3f c #6fca58",
"40 c #6ec958",
"41 c #4fb04e",
"42 c #3da34b",
"43 c #1e432b",
"44 c #1e3224",
"45 c #348c44",
"46 c #5ac050",
"47 c #5ac150",
"48 c #3ea34b",
"49 c #4a9847",
"4a c #3da24b",
"4b c #499746",
"4c c #274f2e",
"4d c #267640",
"4e c #4eae4d",
"4f c #4fb14e",
"50 c #499847",
"51 c #4faf4e",
"52 c #277741",
"53 c #1e3223",
"54 c #252525",
"55 c #1e3123",
"56 c #273929",
"57 c #348b45",
"58 c #2a6d3c",
"59 c #2d793f",
"5a c #297c43",
"5b c #2a7d43",
"5c c #1f3826",
"5d c #1b5335",
"5e c #1d3023",
"5f c #30783c",
"60 c #54b24c",
"61 c #56bb4f",
"62 c #57be4f",
"63 c #1f3926",
"64 c #1c241e",
"65 c #1b241e",
"66 c #25673b",
"67 c #2a6f3b",
"68 c #1d3e29",
"69 c #1b2820",
"6a c #1d2f22",
"6b c #2f763b",
"6c c #389345",
"6d c #54b84e",
"6e c #7cd15c",
"6f c #4cae4e",
"70 c #68c456",
"71 c #8ad361",
"72 c #6cc957",
"73 c #3fa14a",
"74 c #1e3324",
"75 c #338844",
"76 c #53b64d",
"77 c #389546",
"78 c #317f40",
"79 c #1c3c28",
"7a c #253627",
"7b c #428741",
"7c c #55bc4f",
"7d c #82d45e",
"7e c #6bc857",
"7f c #58be50",
"80 c #8cd462",
"81 c #bfec75",
"82 c #7fd25d",
"83 c #254b2c",
"84 c #469647",
"85 c #a2df6b",
"86 c #76cc5b",
"87 c #4aaa4c",
"88 c #318040",
"89 c #256b3c",
"8a c #378c43",
"8b c #50a648",
"8c c #67c054",
"8d c #6bc856",
"8e c #a7e26c",
"8f c #a4e06b",
"90 c #87d260",
"91 c #abe36e",
"92 c #b6e872",
"93 c #328140",
"94 c #1c3a28",
"95 c #253527",
"96 c #2e7139",
"97 c #57b94e",
"98 c #b1e670",
"99 c #25683b",
"9a c #368942",
"9b c #244329",
"9c c #1d2d22",
"9d c #223225",
"9e c #245a35",
"9f c #40803f",
"a0 c #389949",
"a1 c #53ba4f",
"a2 c #85d15f",
"a3 c #7ed25c",
"a4 c #5fc352",
"a5 c #c3ee77",
"a6 c #aae26d",
"a7 c #92d664",
"a8 c #99da67",
"a9 c #73cc59",
"aa c #4bad4d",
"ab c #459546",
"ac c #338843",
"ad c #2f7b3f",
"ae c #266437",
"af c #276537",
"b0 c #24663a",
"b1 c #2d6f38",
"b2 c #4ea247",
"b3 c #50b24c",
"b4 c #79cf5b",
"b5 c #44aa4c",
"b6 c #328844",
"b7 c #232323",
"b8 c #1a4b31",
"b9 c #318844",
"ba c #338441",
"bb c #358541",
"bc c #449044",
"bd c #3e7d3e",
"be c #418b44",
"bf c #3b9d49",
"c0 c #4eaa4c",
"c1 c #40a04a",
"c2 c #78cd5b",
"c3 c #65c654",
"c4 c #45ab4c",
"c5 c #4ea349",
"c6 c #4fb050",
"c7 c #81d15e",
"c8 c #a0dd69",
"c9 c #8ed963",
"ca c #69c655",
"cb c #42a64c",
"cc c #328743",
"cd c #419046",
"ce c #378d43",
"cf c #4fb04b",
"d0 c #52b94f",
"d1 c #69c856",
"d2 c #77cf5a",
"d3 c #86d460",
"d4 c #469b48",
"d5 c #449546",
"d6 c #3e813f",
"d7 c #246439",
"d8 c #1d5c38",
"d9 c #1c5434",
"da c #1d2c21",
"db c #182232",
"dc c #203a29",
"dd c #1a5737",
"de c #246f3e",
"df c #2d7a40",
"e0 c #2f8041",
"e1 c #358b43",
"e2 c #4b9f49",
"e3 c #398841",
"e4 c #348141",
"e5 c #2d8545",
"e6 c #3a8f43",
"e7 c #3e9444",
"e8 c #449646",
"e9 c #2a733e",
"ea c #3c9148",
"eb c #51a34e",
"ec c #5baa4e",
"ed c #4ca24c",
"ee c #469f4b",
"ef c #22673b",
"f0 c #31773e",
"f1 c #409c48",
"f2 c #4fa44a",
"f3 c #55a74c",
"f4 c #398d43",
"f5 c #20693d",
"f6 c #1b5e3a",
"f7 c #1b5a38",
"f8 c #1b4c30",
"f9 c #194837",
"fa c #1e4832",
"fb c #1b271f",
"fc c #1a2e23",
"fd c #1b3225",
"fe c #1e3425",
"ff c #223c26",
"10 c #2a4329",
"10 c #1e3927",
"10 c #234028",
"00000000000000000000000000000000000000000000000000000000000000000000000000000000000000000000000000000000000000000000000000000000",
"00000000000000000000000000000000000000000000000000000000000000000000000000000000000000000000000000000000000000000000000000000000",
"00000000000000000000000000000000000000000000000000000000000000000000000000000000000000000000000000000000000000000000000000000000",
"00000000000000000000000000000000000000000000000000000000000000000000000000000000000000000000000000000000000000000000000000000000",
"00000000000000000000000000000000000000000000000000000000000000000000000000000000000000000000000000000000000000000000000000000000",
"00000000000000000000000000000000000000000000000000000000000000000000000000000000000000000000000000000000000000000000000000000000",
"00000000000000000000000000000000000000000000000000000000000000000000000000000000000000000000000000000000000000000000000000000000",
"00000000000000000000000000000000000000000000000000000000000000000000000000000000000000000000000000000000000000000000000000000000",
"00000000000000000000000000000000000000000000000000000000000000000000000000000000000000000000000000000000000000000000000000000000",
"00000000000000000000000000000000000000000000000000000000000000000000000000000000000000000000000000000000000000000000000000000000",
"00000000000000000000000000000000000000000000000000000000000000000000000000000000000000000000000000000000000000000000000000000000",
"00000000000000000000000000000000000000000000000000000000000000000000000000000000000000000000000000000000000000000000000000000000",
"00000000000000000000000000000000000000000000000000000000000000000000000000000000000000000000000000000000000000000000000000000000",
"00000000000000000000000000000000000000000000000000000000000000000000000000000000000000000000000000000000000000000000000000000000",
"00000000000000000000000000000000000000000000000000000000000000000000000000000000000000000000000000000000000000000000000000000000",
"00000000000000000000000000000000000000000000000000000000000000000000000000000000000000000000000000000000000000000000000000000000",
"00000000000000000000000000000000000000000000000000000000000000000000000000000000000000000000000000000000000000000000000000000000",
"00000000000000000000000000000000000000000000000000000000000000000000000000000000000000000000000000000000000000000000000000000000",
"00000000000000000000000000000000000000000000000000000000000000000000000000000000000000000000000000000000000000000000000000000000",
"00000000000000000000000000000000000000000000000000000000000000000000000000000000000000000000000000000000000000000000000000000000",
"00000000000000000000000000000000000000000000000000000000000000000000000000000000000000000000000000000000000000000000000000000000",
"00000000000000000000000000000000000000000000000000000000000000000000000000000000000000000000000000000000000000000000000000000000",
"00000000000000000000000000000000000000000000000000000000000102030303020200000000000000000000000000000000000000000000000000000000",
"00000000000000000000000000000000000000000000000000000000040506070807060904000000000000000000000000000000000000000000000000000000",
"0000000000000000000000000000000000000000000000000000000a0b0c0d0e0f10111213000000000000000000000000000000000000000000000000000000",
"00000000000000000000000000000000000000000000000000001415161718191a1b000000000000000000000000000000000000000000000000000000000000",
"00000000000000000000000000000000000000000000000000141c1d1e1e1f202100000000000000000000000000000000000000000000000000000000000000",
"00000000000000000000000000000000000000000000000000222324242425260000000000000000000000000000000000000000000000000000000000000000",
"000000000000000000000000000000000000000000000000002728292a2a2b2c2d00000000000000000000000000000000000000000000000000000000000000",
"00000000000000000000000000000000000000000000000000002d2e2f3031323314000000000000000000000000000000000000000000000000000000000000",
"000000000000000000000000000000000000000000000000003435363738393a3b3c2d0000000000000000000000000000000000000000000000000000000000",
"000000000000000000000000000000000000000000000000003d3e3f40414241420e433400000000000000000000000000000000000000000000000000000000",
"0000000000000000000000000000000000000000000000004445464748494942424a4b4c00000000000000000000000000000000000000000000000000000000",
"0000000000000000000000000000000000000000000000004d4e474f424949505042515253000000000054000000000000000000000000000000000000000000",
"000000000000000000000000000000000000000000005556573a313a42294958595a5b5c2d00000000005d550000000000000000000000000000000000000000",
"00000000000000000000000000000000000000005e5e5f6061424242626249636465651400000000000066676869000000000000000000000000000000000000",
"000000000000000000000000000000000000006a6b6c6d6e476f6f70717273740000000000000000000075767778790000000000000000000000000000000000",
"000000000000000000000000000000001b1b7a7b767c477d7e7f7f80818242832100000000000000001b84858687882100000000000000000000000000000000",
"000000001b1b1b0000000000211b1b1b898a8b8c8d478d8e8f909091927d42931a94212121001b1b959697987d7f5b2600000000000000000000000000000000",
"00000013999a9a9b9c9d9c9c9e109f9fa0a1a2a3a447a398a5a6a7a898a9aaabacadaeafb09bb19ab2b3b4a8a9b5b67913131313000000000000000000000000",
"0000b7b8b94242babbbcbbbdbebfc0c14247c2c3c4c5c6c7c8c9cacac93fcb490e0ecccccdcecfd0d1d27dd3a4d4d5d6d7d8d9d9dadbb7b7b7b7b7b700000000",
"0000dcdddedf4de0e1e2d4e3e4e5e6e1e5e7e8e7dfe9dfeaebece7e7edeee5e9efefefdef0e1f1f2f3ececedf4e9f0f0f5f6f7f7f8f9fafafafafafa00000000",
"0000fbfcfdfefd5cff1010ff5c10ffff10fffffffefdfe101010ffff101010fdfcfcfcfdfeff1010101010105cfdfefefdfcfcfcfcfcfcfcfcfcfcfc00000000",
"00000000000000000000000000000000000000000000000000000000000000000000000000000000000000000000000000000000000000000000000000000000",
"00000000000000000000000000000000000000000000000000000000000000000000000000000000000000000000000000000000000000000000000000000000",
"00000000000000000000000000000000000000000000000000000000000000000000000000000000000000000000000000000000000000000000000000000000",
"00000000000000000000000000000000000000000000000000000000000000000000000000000000000000000000000000000000000000000000000000000000",
"00000000000000000000000000000000000000000000000000000000000000000000000000000000000000000000000000000000000000000000000000000000",
"00000000000000000000000000000000000000000000000000000000000000000000000000000000000000000000000000000000000000000000000000000000",
"00000000000000000000000000000000000000000000000000000000000000000000000000000000000000000000000000000000000000000000000000000000",
"00000000000000000000000000000000000000000000000000000000000000000000000000000000000000000000000000000000000000000000000000000000",
"00000000000000000000000000000000000000000000000000000000000000000000000000000000000000000000000000000000000000000000000000000000",
"00000000000000000000000000000000000000000000000000000000000000000000000000000000000000000000000000000000000000000000000000000000",
"00000000000000000000000000000000000000000000000000000000000000000000000000000000000000000000000000000000000000000000000000000000",
"00000000000000000000000000000000000000000000000000000000000000000000000000000000000000000000000000000000000000000000000000000000",
"00000000000000000000000000000000000000000000000000000000000000000000000000000000000000000000000000000000000000000000000000000000",
"00000000000000000000000000000000000000000000000000000000000000000000000000000000000000000000000000000000000000000000000000000000",
"00000000000000000000000000000000000000000000000000000000000000000000000000000000000000000000000000000000000000000000000000000000",
"00000000000000000000000000000000000000000000000000000000000000000000000000000000000000000000000000000000000000000000000000000000",
"00000000000000000000000000000000000000000000000000000000000000000000000000000000000000000000000000000000000000000000000000000000",
"00000000000000000000000000000000000000000000000000000000000000000000000000000000000000000000000000000000000000000000000000000000",
"00000000000000000000000000000000000000000000000000000000000000000000000000000000000000000000000000000000000000000000000000000000",
"00000000000000000000000000000000000000000000000000000000000000000000000000000000000000000000000000000000000000000000000000000000",
"00000000000000000000000000000000000000000000000000000000000000000000000000000000000000000000000000000000000000000000000000000000",
};
