/* XPM */
static char *image[] = {
"64 64 324 2",
"00 c #ffffff",
"01 c #976eff",
"02 c #8669ce",
"03 c #75659f",
"04 c #8e6ce5",
"05 c #916cee",
"06 c #8a6ada",
"07 c #8d64f3",
"08 c #714ad4",
"09 c #8369c6",
"0a c #835be8",
"0b c #845ce9",
"0c c #855deb",
"0d c #6e4dc5",
"0e c #6e49cd",
"0f c #705ba6",
"10 c #7850db",
"11 c #8961f0",
"12 c #ffffff",
"13 c #716296",
"14 c #7059ab",
"15 c #634292",
"16 c #5c3a84",
"17 c #e3d8ff",
"18 c #946df6",
"19 c #462e26",
"1a c #95877c",
"1b c #946df7",
"1c c #6f56b1",
"1d c #6e4fc0",
"1e c #62526e",
"1f c #e7e4e1",
"20 c #341e0d",
"21 c #b9b0a9",
"22 c #3d2310",
"23 c #7e59bc",
"24 c #714ccf",
"25 c #8c6be1",
"26 c #e8bc61",
"27 c #ad8495",
"28 c #ddd9d6",
"29 c #1e1006",
"2a c #716298",
"2b c #815bbc",
"2c c #dcaf60",
"2d c #c4c2bd",
"2e c #9a695b",
"2f c #ceba90",
"30 c #38200e",
"31 c #3c2210",
"32 c #452d24",
"33 c #2b1926",
"34 c #b89185",
"35 c #bb8f82",
"36 c #ab7c6f",
"37 c #712334",
"38 c #c49a81",
"39 c #6543b7",
"3a c #534660",
"3b c #7158b0",
"3c c #6d48cc",
"3d c #6e49cc",
"3e c #e6bb63",
"3f c #a79d9b",
"40 c #be988c",
"41 c #bb9083",
"42 c #bc9184",
"43 c #ac7f72",
"44 c #742839",
"45 c #934f41",
"46 c #724cca",
"47 c #3f2514",
"48 c #21130a",
"49 c #736592",
"4a c #976efa",
"4b c #7d6bab",
"4c c #756996",
"4d c #5b39b4",
"4e c #e2bb72",
"4f c #a3786c",
"50 c #9b6a5c",
"51 c #d3cdcc",
"52 c #d4cecd",
"53 c #422813",
"54 c #27171b",
"55 c #776792",
"56 c #a67263",
"57 c #ba8e81",
"58 c #472899",
"59 c #7f3b49",
"5a c #8c817f",
"5b c #817573",
"5c c #612329",
"5d c #27161c",
"5e c #986ef3",
"5f c #a57162",
"60 c #6e5f93",
"61 c #492a9c",
"62 c #d0a464",
"63 c #aea4a3",
"64 c #aca2a0",
"65 c #351e0d",
"66 c #64202d",
"67 c #daaf6d",
"68 c #433785",
"69 c #564577",
"6a c #b78a7d",
"6b c #7f59be",
"6c c #bdb5b3",
"6d c #361514",
"6e c #dbaf6d",
"6f c #4e4581",
"70 c #3b3377",
"71 c #433875",
"72 c #6e4bc8",
"73 c #6a46c8",
"74 c #6340be",
"75 c #5f3cb9",
"76 c #5231a7",
"77 c #cca97a",
"78 c #d6b371",
"79 c #422e21",
"7a c #af8974",
"7b c #4a2b9d",
"7c c #342c6b",
"7d c #2b245d",
"7e c #251e53",
"7f c #7b67b1",
"80 c #998fb1",
"81 c #383073",
"82 c #5f42b3",
"83 c #6844c5",
"84 c #692078",
"85 c #6f1f73",
"86 c #2e1a0b",
"87 c #4b2b9f",
"88 c #31226c",
"89 c #393064",
"8a c #2d2660",
"8b c #2e2662",
"8c c #503c9a",
"8d c #5735ae",
"8e c #4c2da0",
"8f c #662757",
"90 c #5e1c5c",
"91 c #775488",
"92 c #5534ac",
"93 c #393164",
"94 c #524779",
"95 c #5a4f80",
"96 c #342d6c",
"97 c #553ea3",
"98 c #613ebc",
"99 c #4c2ca0",
"9a c #281609",
"9b c #31216c",
"9c c #473e70",
"9d c #292156",
"9e c #362e6f",
"9f c #5137a1",
"a0 c #451c36",
"a1 c #99369e",
"a2 c #78247d",
"a3 c #573f97",
"a4 c #5a4496",
"a5 c #695894",
"a6 c #44282b",
"a7 c #8b2e90",
"a8 c #832a88",
"a9 c #3f3669",
"aa c #332c6b",
"ab c #8861b3",
"ac c #5d3c8c",
"ad c #211207",
"ae c #4b3756",
"af c #412584",
"b0 c #7b6389",
"b1 c #b48679",
"b2 c #6d4a91",
"b3 c #deb268",
"b4 c #361e0d",
"b5 c #635095",
"b6 c #58475b",
"b7 c #432d1e",
"b8 c #8f6154",
"b9 c #96625d",
"ba c #b48280",
"bb c #732177",
"bc c #bc9771",
"bd c #321b0c",
"be c #c7c4c4",
"bf c #604e68",
"c0 c #6f337c",
"c1 c #331d0d",
"c2 c #594656",
"c3 c #493536",
"c4 c #702074",
"c5 c #5f5860",
"c6 c #644766",
"c7 c #261813",
"c8 c #46394a",
"c9 c #5e5e5e",
"ca c #4b4744",
"cb c #d6d4d4",
"cc c #251408",
"cd c #90409b",
"ce c #575654",
"cf c #2c2119",
"d0 c #3b332e",
"d1 c #d1cfcf",
"d2 c #5d2454",
"d3 c #3d3630",
"d4 c #675981",
"d5 c #544762",
"d6 c #5d4c65",
"d7 c #241408",
"d8 c #772e6c",
"d9 c #7b267f",
"da c #451e61",
"db c #231938",
"dc c #393071",
"dd c #3f367a",
"de c #41387b",
"df c #742b71",
"e0 c #402617",
"e1 c #2c190b",
"e2 c #883189",
"e3 c #7c2680",
"e4 c #691f70",
"e5 c #282158",
"e6 c #6c6091",
"e7 c #5c495e",
"e8 c #301b0c",
"e9 c #913394",
"ea c #882d8c",
"eb c #511e66",
"ec c #3f1e5e",
"ed c #271f55",
"ee c #893385",
"ef c #7b2680",
"f0 c #3d1e5d",
"f1 c #5f538a",
"f2 c #755f94",
"f3 c #672760",
"f4 c #411b31",
"f5 c #8d2f92",
"f6 c #5a1f6a",
"f7 c #3a3265",
"f8 c #3a1e5c",
"f9 c #301e57",
"fa c #342c6a",
"fb c #63578c",
"fc c #4d2628",
"fd c #742178",
"fe c #3b1e5c",
"ff c #30285c",
"10 c #352d6c",
"10 c #554b85",
"10 c #746094",
"10 c #6d2c5c",
"10 c #431b34",
"10 c #381e5b",
"10 c #3a3164",
"10 c #6f2a78",
"10 c #591f69",
"10 c #3b3274",
"10 c #534982",
"10 c #874b99",
"10 c #706391",
"10 c #4d1e3f",
"10 c #923296",
"10 c #2d1e56",
"11 c #403669",
"11 c #271e54",
"11 c #3e2412",
"11 c #1f1106",
"11 c #51276f",
"11 c #6e6291",
"11 c #351e0f",
"11 c #281e47",
"11 c #6f6392",
"11 c #4f276e",
"11 c #4c4274",
"11 c #271e4b",
"11 c #513c42",
"11 c #341d0c",
"11 c #301e26",
"11 c #301e58",
"12 c #655989",
"12 c #4d3f5a",
"12 c #261509",
"12 c #221207",
"12 c #3c2312",
"12 c #271509",
"12 c #2a170a",
"12 c #2c180a",
"12 c #554b7c",
"12 c #5b5081",
"12 c #70538b",
"12 c #70508a",
"12 c #5f4f6b",
"12 c #201107",
"12 c #493538",
"12 c #291609",
"13 c #4f425a",
"13 c #40323f",
"13 c #341d0d",
"13 c #47394b",
"13 c #2b170a",
"13 c #423443",
"13 c #453748",
"13 c #65587f",
"13 c #5e5173",
"13 c #1f1108",
"13 c #544252",
"13 c #2f1a0b",
"13 c #2e190b",
"13 c #3b2e38",
"13 c #493b4f",
"13 c #67587c",
"14 c #302225",
"14 c #6a5d88",
"14 c #51445d",
"14 c #311b0b",
"00000000000000000000000000000000000000000000000000000000000000000000000000000000000000000000000000000000000000000000000000000000",
"00000000000000000000000000000000000000000000000000000000000000000000000000000000000000000000000000000000000000000000000000000000",
"00000000000000000000000000000000000000000000000000000000000000000000000000000000000000000000000000000000000000000000000000000000",
"00000000000000000000000000000000000000000000000000000000000000000000000000000000000000000000000000000000000000000000000000000000",
"00000000000000000000000000000000000000000000000000000000000000000000000000000000000000000000000102000000000000000000000000000000",
"00000000000000000000000000000000000000000000000000000000000000000000000000000000000000000300040105060600000000000000000000000000",
"00000000000000000000000000000000000000000000000000000000000000000000000000000000000000010100010101010708000000000000000000000000",
"000000000000000000000000000000000000000000000000000000000000000000000000000000000000000901010a0a0b0c0709000000000000000000000000",
"0000000000000000000000000000000000000000000000000000000000000000000d0e0f00000000000000001008111212120100000000000000000000000000",
"00000000000000000000000000000000000000000000000000000000000013140e0e0e0e0e140000000000001516121212121701180000000000000000000000",
"0000000000000000000000000000000000000000000000000000000000000e0e0e0e0e0e0e0e0e0000000000191212121a1201081b0000000000000000000000",
"000000000000000000000000000000000000000000000000000000001c0e0e0e0e0e0e0e0e0e0e1d0000001e1f2021221a232425000000000000000000000000",
"000000000000000000000000000000000000000000000000000000000e0e0e0e0e0e0e2626270e0e0e0022222812222222290000000000000000000000000000",
"00000000000000000000000000000000000000000000000000002a0e0e0e0e0e0e2b2c2d2e2f2b0e0e0030223122303233010000000000000000000000000000",
"00000000000000000000000000000000000000000000000000001c0e0e0e0e0e26343535353637380e39222229293a003b080000000000000000000000000000",
"00000000000000000000000000000000000000000000000000003c0e0e0e3d3e3f4035414243444546224748000000000000000000494a4b1212124c00000000",
"00000000000000000000000000000000000000000000000000004d0e0e0e4e3f3f4f505152525237535400000000000000000000555657121212121200000000",
"0000000000000000000000000000000000000000000000000000580e0e2659523f5a5252525b525c295d000000000000000000015e5f12121212121212000000",
"00000000000000000000000000000000000000000000000000006058612b62633f3f3f6463525265666700000000000000000068696a12121212121212000000",
"0000000000000000000000000000000000000000000000000000005858586b26263f3f3f3f6c226d376e000000006f7070707070715f12121212121212000000",
"000000000000000000000000000000000000000000000000720e0e0e737475587677783f3f79297a267b0e0e0e7070707c7d7d7e7f7f80121212121200000000",
"000000000000000000000000000000000000000000008170820e0e0e0e0e8358588485262286265858870e0e0e0e887e7e7e8900000000001212120000000000",
"0000000000000000000000000000000000000000007e8a8b708c0e0e0e8d58580e8e268f299058918d92585858587e7e93949500000000000000000000000000",
"000000000000000000000000000000000000000000007e7e9670970e9858580e0e99269a298558915858585858589b7e9c000000000000000000000000000000",
"000000000000000000000000000000000000000000009d7e7e7e9e709f58990e0e9922a0a1a2859158585858a3a4a50000000000000000000000000000000000",
"00000000000000000000000000000000000000000000007e7e7e7e70700e0e0e0ea629a7a1a88591000000000000000000000000000000000000000000000000",
"000000000000000000000000000000000000000000000000a9a97e7eaaaaababacad26a7a1a8a191000000000000000000000000000000000000000000000000",
"0000000000000000000000000000000000000000000000000000007eae35353535af26a7a1a88591000000000000000000000000000000000000000000000000",
"00000000000000000000000000000000000000000000000000000000b02e50b1b1b2b3a1a1a88591000000000000000000000000000000000000000000000000",
"0000000000000000000000000000000000000000b4b4b4b4b4000000b52e2e2e353535a1a1a88591000000000000000000000000000000000000000000000000",
"0000000000000000000000000000000000b6b4b4b4b4b4b4b7b400000022b8b9b9babba1a18585bc000000000000000000000000000000000000000000000000",
"0000000000000000000000000000000000b4b4bd292929b4beb40000bf29a1a1a1a1a1a1a18585c0000000000000000000000000000000000000000000000000",
"0000000000000000000000000000000000292929292929b4beb40000c1a1a1a1a1a1a1a1858585c0000000000000000000000000000000000000000000000000",
"0000000000000000000000000000000000292929292929b4beb4c229c3a1a1a1a1a1bbc48585c5c6c70000000000000000000000000000000000000000000000",
"0000000000000000000000000000000000292929292929b4beb4c82200a1a1a1a185858585c929ca290000000000000000000000000000000000000000000000",
"0000000000000000000000000000000000292929292929b4cbb4cccda12929292929292929cecfd0290000000000000000000000000000000000000000000000",
"0000000000000000000000000000000000292929292929b4d1b4d2a1a1a129292929292929d3c9c97e0000000000000000000000000000000000000000000000",
"0000000000000000000000000000000000d4d5d5d5d5d5d6d7d8a1a1a1a1d98585dadbdb7e7e7edcddde00000000000000000000000000000000000000000000",
"000000000000000000000000000000000000000000000022dfa1a1a1a18585857e7e7e7e7e7e7edddddddd000000000000000000000000000000000000000000",
"00000000000000000000000000000000000000000000e0e1e2a1a1a1e385e47e7e7e7e7e7e7e7ee5dddddddde600000000000000000000000000000000000000",
"00000000000000000000000000000000000000000000ada1a1a1a18585857e7e7e7e7e7e7e7e7e7e7edddddddd00000000000000000000000000000000000000",
"0000000000000000000000000000000000000000e7e8e9a1a1ead985eb7e7e7e7eec7e7e7e7e7e7e7eeddddddddd000000000000000000000000000000000000",
"00000000000000000000000000000000000000ee2929a1a1ef85857e7e7e7e7e7e8585f07e7e7e7e7e7e7eddddddf10000000000000000000000000000000000",
"0000000000000000000000000000000000f2a1f3f4a1a1f585f67e7e7e7e7ef785858585f8f97e7e7e7e7e7efaddddfb00000000000000000000000000000000",
"0000000000000000000000000000000000a129fca1a1fd85fe7e7e7e7e7eff008585858585857e7e7e7e7e7e7e7e10dd10000000000000000000000000000000",
"00000000000000000000000000000010a1103010a1a18585107e7e7e7e7e100010858585858585107e7e7e7e7e7e7e1010000000000000000000000000000000",
"00000000000000000000000000000010a129a1a18585857e7e7e7e7e7e00000000858585858585857e7e7e7e7e7e7e7e9c000000000000000000000000000000",
"000000000000000000000000000000102210a1108585107e7e7e7e7e11000000008585858585858511117e7e7e7e7e7e9c000000000000000000000000000000",
"000000000000000000000000000000111111a1c485857e7e7e7e7e1100000000008585858585858585111111117e7e7e11000000000000000000000000000000",
"00000000000000000000000000002229b4118585857e7e7e7e7e11000000000000858585858585858511b4b4b4b47e7e00000000000000000000000000000000",
"00000000000000000000000000112911b41111117e7e7e7e7e12000000000000008585858585858585b4b4b4b4b4120000000000000000000000000000000000",
"000000000000000000000000001229b4b4117e7e7e7e7e7e95000000000000000085858585858585b4b4b4b412293a0000000000000000000000000000000000",
"0000000000000000000010121212b41229297e7e7e7e121200000000000000000012128585120012b4b4b4b42929000000000000000000000000000000000000",
"00000000000000000000b41229b4292929297e7e7e000000000000000000000000000000000000b4b4b4b4292900000000000000000000000000000000000000",
"000000000000000012b4b4129a2929292929139400000000000000000000000000000000000013b4b41329291300000000000000000000000000000000000000",
"00000000000000b4b4b46529292929000000000000000000000000000000000000000000000029b4b42929290000000000000000000000000000000000000000",
"00000000000012b4b41329131313000000000000000000000000000000000000000000000013b4b4292929000000000000000000000000000000000000000000",
"0000000000b4b4b4292913000000000000000000000000000000000000000000000000000013b413292900000000000000000000000000000000000000000000",
"000000000013132929291300000000000000000000000000000000000000000000000000001313292986b4d60000000000000000000000000000000000000000",
"000000000029292929291300000000000000000000000000000000000000000000000000001329292912b4b41300000000000000000000000000000000000000",
"00000000000014292929291400000000000000000000000000000000000000000000000000142929292929141414000000000000000000000000000000000000",
"00000000000000000000000000000000000000000000000000000000000000000000000000000000000000000000000000000000000000000000000000000000",
"00000000000000000000000000000000000000000000000000000000000000000000000000000000000000000000000000000000000000000000000000000000",
"00000000000000000000000000000000000000000000000000000000000000000000000000000000000000000000000000000000000000000000000000000000",
};
