/* XPM */
static char *image[] = {
"64 64 358 2",
"00 c #ffffff",
"01 c #976eff",
"02 c #7a66ac",
"03 c #716493",
"04 c #74659d",
"05 c #8d6be4",
"06 c #906cec",
"07 c #8e6ce7",
"08 c #876ad1",
"09 c #8168c0",
"0a c #8268c4",
"0b c #7e67b8",
"0c c #896ad8",
"0d c #865eeb",
"0e c #8569cc",
"0f c #835be8",
"10 c #7a52de",
"11 c #8d6be2",
"12 c #6e4dc5",
"13 c #6e49cd",
"14 c #705ba6",
"15 c #7850db",
"16 c #714ad4",
"17 c #8961f0",
"18 c #ffffff",
"19 c #716296",
"1a c #7059ab",
"1b c #634292",
"1c c #5c3a84",
"1d c #e3d8ff",
"1e c #9068f7",
"1f c #462e26",
"20 c #95877c",
"21 c #886ad5",
"22 c #8e6ce6",
"23 c #6f56b1",
"24 c #6e4fc0",
"25 c #62526e",
"26 c #e7e4e1",
"27 c #341e0d",
"28 c #b9b0a9",
"29 c #3d2310",
"2a c #7e59bc",
"2b c #7156b5",
"2c c #726495",
"2d c #966efe",
"2e c #8c64f3",
"2f c #714dcc",
"30 c #ddd9d6",
"31 c #1e1006",
"32 c #7765a3",
"33 c #716298",
"34 c #7b55c1",
"35 c #dcaf60",
"36 c #c6c1bc",
"37 c #d5a45a",
"38 c #815bbc",
"39 c #38200e",
"3a c #3c2210",
"3b c #452d24",
"3c c #2b1d1c",
"3d c #9168f8",
"3e c #715f9e",
"3f c #ca9e77",
"40 c #bb8f82",
"41 c #ab7c6f",
"42 c #712334",
"43 c #e8bc61",
"44 c #6543b7",
"45 c #534660",
"46 c #6d48cc",
"47 c #714cca",
"48 c #e7ba62",
"49 c #bb9083",
"4a c #bc9184",
"4b c #ac7f72",
"4c c #742839",
"4d c #3f2514",
"4e c #21130a",
"4f c #74659b",
"50 c #986ffb",
"51 c #976efa",
"52 c #7966aa",
"53 c #726496",
"54 c #716494",
"55 c #5b39b4",
"56 c #d7ac70",
"57 c #9b6a5c",
"58 c #d3cdcc",
"59 c #d4cecd",
"5a c #3f2311",
"5b c #27171b",
"5c c #776792",
"5d c #a67263",
"5e c #ba8e81",
"5f c #715fa1",
"60 c #7a66ab",
"61 c #472899",
"62 c #8f7f70",
"63 c #817573",
"64 c #612329",
"65 c #27161c",
"66 c #986ef3",
"67 c #a57162",
"68 c #715fa0",
"69 c #956cfd",
"6a c #736498",
"6b c #6e5f93",
"6c c #492a9c",
"6d c #a89d9a",
"6e c #a79d9b",
"6f c #aca2a0",
"70 c #aea4a3",
"71 c #351e0d",
"72 c #64202d",
"73 c #daaf6d",
"74 c #433785",
"75 c #564577",
"76 c #b78a7d",
"77 c #bdb5b3",
"78 c #361514",
"79 c #dbaf6d",
"7a c #4e4581",
"7b c #3b3377",
"7c c #433875",
"7d c #6e4bc8",
"7e c #6a46c8",
"7f c #6340be",
"80 c #5f3cb9",
"81 c #5231a7",
"82 c #cca97a",
"83 c #d6b371",
"84 c #422e21",
"85 c #af8974",
"86 c #4a2b9d",
"87 c #342c6b",
"88 c #2b245d",
"89 c #251e53",
"8a c #7b67b1",
"8b c #715da5",
"8c c #825ae7",
"8d c #7b54e0",
"8e c #7b53df",
"8f c #383073",
"90 c #5f42b3",
"91 c #6844c5",
"92 c #692078",
"93 c #6f1f73",
"94 c #2e1a0b",
"95 c #4b2b9f",
"96 c #31226c",
"97 c #393064",
"98 c #875fed",
"99 c #2d2660",
"9a c #2e2662",
"9b c #503c9a",
"9c c #5735ae",
"9d c #4c2da0",
"9e c #662757",
"9f c #5e1c5c",
"a0 c #775488",
"a1 c #5534ac",
"a2 c #393164",
"a3 c #524779",
"a4 c #5a4f80",
"a5 c #8058e5",
"a6 c #7150c4",
"a7 c #7159ad",
"a8 c #342d6c",
"a9 c #553ea3",
"aa c #613ebc",
"ab c #4c2ca0",
"ac c #281609",
"ad c #31216c",
"ae c #473e70",
"af c #7155b9",
"b0 c #292156",
"b1 c #362e6f",
"b2 c #5137a1",
"b3 c #451c36",
"b4 c #99369e",
"b5 c #78247d",
"b6 c #573f97",
"b7 c #5a4496",
"b8 c #695894",
"b9 c #714fc7",
"ba c #7359b5",
"bb c #44282b",
"bc c #8b2e90",
"bd c #832a88",
"be c #8068bd",
"bf c #3f3669",
"c0 c #332c6b",
"c1 c #8861b3",
"c2 c #5d3c8c",
"c3 c #211207",
"c4 c #9269f9",
"c5 c #966dfe",
"c6 c #4b3756",
"c7 c #412584",
"c8 c #8860ee",
"c9 c #7b6389",
"ca c #9a695b",
"cb c #b48679",
"cc c #6d4a91",
"cd c #deb268",
"ce c #714cce",
"cf c #8e66f5",
"d0 c #885fee",
"d1 c #7150c6",
"d2 c #635095",
"d3 c #8f6154",
"d4 c #96625d",
"d5 c #916253",
"d6 c #aa8072",
"d7 c #6a1f69",
"d8 c #903490",
"d9 c #bc9771",
"da c #604e68",
"db c #361e0d",
"dc c #521e3e",
"dd c #6f337c",
"de c #3b210f",
"df c #978d88",
"e0 c #c7c4c4",
"e1 c #594656",
"e2 c #321c0c",
"e3 c #201106",
"e4 c #978e88",
"e5 c #511e3e",
"e6 c #5f5860",
"e7 c #644766",
"e8 c #261813",
"e9 c #46394a",
"ea c #564864",
"eb c #493d34",
"ec c #4b4744",
"ed c #48312d",
"ee c #251408",
"ef c #90409b",
"f0 c #71296c",
"f1 c #43352b",
"f2 c #2c2119",
"f3 c #3b332e",
"f4 c #4c3637",
"f5 c #5d2454",
"f6 c #70296c",
"f7 c #aea6a1",
"f8 c #e9e9e9",
"f9 c #5e5e5e",
"fa c #2c1c16",
"fb c #6f296a",
"fc c #702a6c",
"fd c #2e1e2f",
"fe c #393071",
"ff c #3f367a",
"10 c #41387b",
"10 c #742b71",
"10 c #261408",
"10 c #402617",
"10 c #2c190b",
"10 c #883189",
"10 c #7c2680",
"10 c #481e62",
"10 c #282158",
"10 c #6c6091",
"10 c #5c495e",
"10 c #301b0c",
"10 c #913394",
"10 c #7b267f",
"10 c #4b1e63",
"10 c #3f1e5e",
"11 c #271f55",
"11 c #68597c",
"11 c #3d1e5d",
"11 c #5f538a",
"11 c #4f425a",
"11 c #411b31",
"11 c #78247c",
"11 c #491e62",
"11 c #3a3265",
"11 c #3a1e5c",
"11 c #301e57",
"11 c #342c6a",
"11 c #63578c",
"11 c #4d2628",
"11 c #30285c",
"11 c #352d6c",
"12 c #554b85",
"12 c #574556",
"12 c #431b34",
"12 c #732177",
"12 c #691f70",
"12 c #3a3164",
"12 c #6f2a78",
"12 c #591f69",
"12 c #3b3274",
"12 c #534982",
"12 c #706391",
"12 c #4d1e3f",
"12 c #6d1f72",
"12 c #403669",
"12 c #271e54",
"12 c #3e2412",
"13 c #1f1106",
"13 c #51276f",
"13 c #702074",
"13 c #261e53",
"13 c #6e6291",
"13 c #6f2977",
"13 c #351e0f",
"13 c #281e47",
"13 c #6f6392",
"13 c #4f276e",
"13 c #4c4274",
"13 c #271e4b",
"13 c #513c42",
"13 c #341d0c",
"13 c #301e26",
"13 c #301e58",
"14 c #3b1e5c",
"14 c #261e54",
"14 c #655989",
"14 c #4d3f5a",
"14 c #261509",
"14 c #221207",
"14 c #3c2312",
"14 c #271509",
"14 c #2a170a",
"14 c #2c180a",
"14 c #554b7c",
"14 c #5b5081",
"14 c #70578d",
"14 c #70508a",
"14 c #5f4165",
"14 c #201107",
"15 c #493538",
"15 c #291609",
"15 c #40323f",
"15 c #341d0d",
"15 c #47394b",
"15 c #2b170a",
"15 c #423443",
"15 c #453748",
"15 c #65587f",
"15 c #5e5173",
"15 c #1f1108",
"15 c #544252",
"15 c #2f1a0b",
"15 c #2e190b",
"15 c #3b2e38",
"15 c #5d4c65",
"16 c #493b4f",
"16 c #67587c",
"16 c #302225",
"16 c #6a5d88",
"16 c #51445d",
"16 c #311b0b",
"00010203030303030303030303030303030303030303030303030303030303030303030303030303030303030303030303030303030303030303030303030303",
"03040203030303030303030303030303030303030303030303030303030303030303030303030303030303030503030303030303030303030303030303030303",
"03030303030303030303030303030303030303030303030303030303030303030303030303030303030303030603030303030303030303030303030303030303",
"03030303030303030303030303030303030303030303030303030303030303030303030303030303030303030301030303070803030303030303030303030303",
"03030303030303030303030303030303030303030303030303030303030303030303030303030303030303030303030303010303030303030303030303030303",
"0303030303030303030303030303030303030303030303030303030303030303030303030303030303030303030309030a0b0303030303030303030303030303",
"030303030303030303030303030303030303030303030303030303030303030303030303030303030303030303030c010d030303030303030303030303030303",
"03030303030303030303030303030303030303030303030303030303030303030303030303030303030303030e0e0f0f100e1103030303030303030303030303",
"03030303030303030303030303030303030303030303030303030303030303030312131403030303030303031516171818180103030303030303030803030303",
"030303030303030303030303030303030303030303030303030303030303191a13131313131a0303030303031b1c181818181d03030303030303011e03030303",
"03030303030303030303030303030303030303030303030303030303030313131313131313131303030303031f18181820180103030303030321011603030303",
"030322030303030303030303030303030303030303030303030303032313131313131313131313240303032526272829202a2b032c2d0101012e162f03030303",
"03030103030303030303030303030303030303030303030303030303131313131313131313131313130329293018292929310303010101161616030303030303",
"32010203030303030303030303030303030303030303030303033313131313131313133435363738130339293a29393b3c030303013d163e0303030303030303",
"01010203030303030303030303030303030303030303030303032313131313131313133f40414242434429293131450303030303011603030303030303030303",
"0101020303030303030303030303030303030303030303030303461313131313134748494a4b4c4242294d4e03030303030303034f5051520303030303035353",
"010154030303030303030303030303030303030303030303030355131313131313565758595959425a5b030303030303030303035c5d5e5f0303030303600101",
"01010303030303030303030303030303030303030303030303036113131313131362595959635964316503030303030303030301666767680303030303010169",
"6a030303030303030303030303030303030303030303030303036b616c131313436d6e6f70595971727303030303030303030374757616680303030303013d16",
"6a03030303030303030303030303030303030303030303030303036161611313436e6e6e6e7729784279030303037a7b7b7b7b7b7c6716030303030301010101",
"5403030303030303030303030303030303030303030303037d1313137e7f80618182836e6e84318543861313137b7b7b878888898a8b8b0303030309018c8d8e",
"030303030303030303030303030303030303030303038f7b90131313131391616192934329944361619513131313968989899703030303030303039816161603",
"03030303030303030303030303030303030303030389999a7b9b1313139c6161139d439e319f61a09ca1616161618989a2a3a403030303030303a5a6a7030303",
"030303030303030303030303030303030303030303038989a87ba913aa61611313ab43ac319361a0616161616161ad89ae03030303030301030303af03030303",
"03030303030303030303030303030303030303030303b0898989b17bb261ab1313ab29b3b4b593a061616161b6b7b80303030303030303b901030303030303ba",
"0303030303030303030303030303030303030303030303898989897b7b13131313bb31bcb4bd93a0030303030303030303030303030303b916be030303030301",
"030303030303030303030303030303030303030303030303bfbf8989c0c0c1c1c2c343bcb4bdb4a00303030303030303030303030303030316c40b0b0b4f0bc5",
"03030303030303030303030303030303030303030303030303030389c640404040c743bcb4bd93a00303030303030303030303030303030303c8010101010116",
"03030303030303030303030303030303030303030303030303030303c9ca57cbcbcccdb4b4bd93a00303030303030303030303030303030303cecfcfcfd016d1",
"03030303030303030303030303030303030303030303030303030303d2cacaca404040b4b4bd93a0030303030303030303030303030303030303031616160303",
"030303030303030303030303030303030303030303030303030303030329d3d4d5d6d7d8d89393d9030303030303030303030303030303030303030303030303",
"03030303030303030303030303030303030303030303030303030303dadbdbdbdbdbdbdbdbdc93dd03030303030303030303030303030303030303030303036a",
"03030303030303030303030303030303030303030303030303030303dedbdbdbdbdbdbdfe0dc93dd030303030303030303030303030303030303030303030316",
"0303030303030303030303030303030303030303030303030303e131e2e3e331313131e4e0e5e6e7e80303030303030303030303030303030303030303030303",
"0303030303030303030303030303030303030303030303030303e929ea313131313131dfe0eb31ec310303030303030303030303030303030303030303030303",
"03030303030303030303030303030303030303030303030303edeeeff0313131313131dfe0f1f2f3310303030303030303030303030303030303030303030303",
"030303030303030303030303030303030303030303030303f429f5b4f6313131313131f7f8ebf9f9890303030303030303030303030303030303030303030303",
"030303030303030303030303030303030303030303030303fafbb4b4fc313131313131f7e0fd89feff1003030303030303030303030303030303030303030303",
"03030303030303030303030303030303030303030303032910b4b4b4b43131313131311031fd89ffffffff030303030303030303030303030303030303030303",
"03030303030303030303030303030303030303030303101010b4b4b4109393931089898989898910ffffffff1003030303030303030303030303030303030303",
"03030303030303030303030303030303030303030303c3b4b4b4b49393939389898989898989898989ffffffff03030303030303030303030303030303030303",
"0303030303030303030303030303030303030303101010b4b4b410939393108989108989898989898911ffffffff030303030303030303030303030303030303",
"03030303030303030303030303030303030303113131b4b4b4939393938989898993931189898989898989ffffff110303030303030303030303030303030303",
"030303030303030303030303030303030303031111b4b4b4119393931189891193939393111189898989898911ffff1103030303030303030303030303030303",
"0303030303030303030303030303030303033111b4b4b4939393939389891103939393939393898989898989898911ff12030303030303030303030303030303",
"0303030303030303030303030303030303123912b4b4129393931289898912031293939393939312898989898989891212030303030303030303030303030303",
"03030303030303030303030303030303b431b4b4b4939393939389898903030303939393939393938989898989898989ae030303030303030303030303030303",
"030303030303030303030303030303122912b4b493939393128989891203030303939393939393931212898989898989ae030303030303030303030303030303",
"030303030303030303030303030303121313b4139393939313898913030303030313939393939393931213131389898913030303030303030303030303030303",
"03030303030303030303030303032931db13939393939389898913030303030303139393939393939313dbdbdbdb898903030303030303030303030303030303",
"03030303030303030303030303133113db131314939314898914030303030303030393939393939393dbdbdbdbdb140303030303030303030303030303030303",
"030303030303030303030303031431dbdb13898989898989a4030303030303030303039393939393dbdbdbdb1431450303030303030303030303030303030303",
"0303030303030303030312141414db14313189898989141403030303030303030303031414141414dbdbdbdb3131030303030303030303030303030303030303",
"03030303030303030303db1431db31313131898989030303030303030303030303030303030303dbdbdbdb313103030303030303030303030303030303030303",
"030303030303030315dbdb15ac313131313111a303030303030303030303030303030303030315dbdb1531311503030303030303030303030303030303030303",
"03030303030303dbdbdb7131313131030303030303030303030303030303030303030303030331dbdb3131310303030303030303030303030303030303030303",
"03030303030315dbdb1531151515030303030303030303030303030303030303030303030315dbdb313131030303030303030303030303030303030303030303",
"0303030303dbdbdb313115030303030303030303030303030303030303030303030303030315db15313103030303030303030303030303030303030303030303",
"030303030315153131311503030303030303030303030303030303030303030303030303031515313194db150303030303030303030303030303030303030303",
"030303030331313131311503030303030303030303030303030303030303030303030303031631313114dbdb1603030303030303030303030303030303030303",
"03030303030316313131311603030303030303030303030303030303030303030303030303163131313131161616030303030303030303030303030303030303",
"03030303030303030303030303030303030303030303030303030303030303030303030303030303030303030303030303030303030303030303030303030303",
"03030303030303030303030303030303030303030303030303030303030303030303030303030303030303030303030303030303030303030303030303030303",
"03030303030303030303030303030303030303030303030303030303030303030303030303030303030303030303030303030303030303030303030303030303",
};
