/* XPM */
static char *image[] = {
"64 64 316 2",
"00 c #ffffff",
"01 c #8168bf",
"02 c #8268c4",
"03 c #75659f",
"04 c #7966ab",
"05 c #976eff",
"06 c #7e67b8",
"07 c #8669ce",
"08 c #835be8",
"09 c #845ce9",
"0a c #855deb",
"0b c #8068bd",
"0c c #6e4dc5",
"0d c #6e49cd",
"0e c #705ba6",
"0f c #7850db",
"10 c #714ad4",
"11 c #8961f0",
"12 c #ffffff",
"13 c #716296",
"14 c #7059ab",
"15 c #634292",
"16 c #5c3a84",
"17 c #e3d8ff",
"18 c #462e26",
"19 c #95877c",
"1a c #956dfa",
"1b c #6f56b1",
"1c c #6e4fc0",
"1d c #62526e",
"1e c #e7e4e1",
"1f c #341e0d",
"20 c #b9b0a9",
"21 c #3d2310",
"22 c #7e59bc",
"23 c #7156b5",
"24 c #7766a5",
"25 c #b497ff",
"26 c #c09684",
"27 c #e8bc61",
"28 c #ad8495",
"29 c #ddd9d6",
"2a c #1e1006",
"2b c #d6c6ff",
"2c c #716298",
"2d c #815bbc",
"2e c #d9b762",
"2f c #9a695b",
"30 c #ceba90",
"31 c #d5a45a",
"32 c #38200e",
"33 c #3c2210",
"34 c #452d24",
"35 c #2b1d1c",
"36 c #7765a4",
"37 c #a785ff",
"38 c #d7ac70",
"39 c #bb8f82",
"3a c #ab7c6f",
"3b c #712334",
"3c c #945041",
"3d c #6543b7",
"3e c #534660",
"3f c #e2dfe9",
"40 c #6d48cc",
"41 c #e7bb62",
"42 c #bb9083",
"43 c #bc9184",
"44 c #ac7f72",
"45 c #742839",
"46 c #3f2514",
"47 c #21130a",
"48 c #736592",
"49 c #976efa",
"4a c #5b39b4",
"4b c #e4b864",
"4c c #a6765d",
"4d c #9b6a5c",
"4e c #d3cdcc",
"4f c #d4cecd",
"50 c #422813",
"51 c #27171b",
"52 c #776792",
"53 c #a67263",
"54 c #fcfbfa",
"55 c #472899",
"56 c #a79d9b",
"57 c #8c817f",
"58 c #817573",
"59 c #612329",
"5a c #27161c",
"5b c #986ef3",
"5c c #a57162",
"5d c #6e5f93",
"5e c #492a9c",
"5f c #7f59be",
"60 c #e5bf72",
"61 c #aca2a0",
"62 c #aea4a3",
"63 c #351e0d",
"64 c #64202d",
"65 c #daaf6d",
"66 c #433785",
"67 c #564577",
"68 c #b78a7d",
"69 c #bdb5b3",
"6a c #361514",
"6b c #dbaf6d",
"6c c #4e4581",
"6d c #3b3377",
"6e c #433875",
"6f c #6e4bc8",
"70 c #6a46c8",
"71 c #6340be",
"72 c #5f3cb9",
"73 c #5231a7",
"74 c #cca97a",
"75 c #d6b371",
"76 c #422e21",
"77 c #af8974",
"78 c #4a2b9d",
"79 c #342c6b",
"7a c #2b245d",
"7b c #251e53",
"7c c #7b67b1",
"7d c #383073",
"7e c #5f42b3",
"7f c #6844c5",
"80 c #692078",
"81 c #6f1f73",
"82 c #2e1a0b",
"83 c #4b2b9f",
"84 c #31226c",
"85 c #393064",
"86 c #2d2660",
"87 c #2e2662",
"88 c #503c9a",
"89 c #5735ae",
"8a c #4c2da0",
"8b c #662757",
"8c c #5e1c5c",
"8d c #775488",
"8e c #5534ac",
"8f c #393164",
"90 c #524779",
"91 c #5a4f80",
"92 c #8068bf",
"93 c #342d6c",
"94 c #553ea3",
"95 c #613ebc",
"96 c #4c2ca0",
"97 c #281609",
"98 c #31216c",
"99 c #473e70",
"9a c #292156",
"9b c #362e6f",
"9c c #5137a1",
"9d c #451c36",
"9e c #99369e",
"9f c #78247d",
"a0 c #573f97",
"a1 c #5a4496",
"a2 c #695894",
"a3 c #8168c1",
"a4 c #cebbff",
"a5 c #44282b",
"a6 c #8b2e90",
"a7 c #832a88",
"a8 c #3f3669",
"a9 c #332c6b",
"aa c #8861b3",
"ab c #5d3c8c",
"ac c #211207",
"ad c #8068be",
"ae c #8a6ada",
"af c #dbcdff",
"b0 c #4b3756",
"b1 c #412584",
"b2 c #7b6389",
"b3 c #b48679",
"b4 c #6d4a91",
"b5 c #deb268",
"b6 c #635095",
"b7 c #8f6154",
"b8 c #96625d",
"b9 c #b48280",
"ba c #732177",
"bb c #bc9771",
"bc c #361e0d",
"bd c #442121",
"be c #6f337c",
"bf c #3c261c",
"c0 c #201106",
"c1 c #271509",
"c2 c #c7c4c4",
"c3 c #b2acaa",
"c4 c #702074",
"c5 c #5f5860",
"c6 c #644766",
"c7 c #261813",
"c8 c #271915",
"c9 c #261408",
"ca c #5e5e5e",
"cb c #4b4744",
"cc c #261508",
"cd c #b3adaa",
"ce c #575654",
"cf c #2c2119",
"d0 c #3b332e",
"d1 c #b2adaa",
"d2 c #3d3630",
"d3 c #e9e9e9",
"d4 c #bcb8b5",
"d5 c #231938",
"d6 c #393071",
"d7 c #3f367a",
"d8 c #41387b",
"d9 c #2f1e57",
"da c #402617",
"db c #5f2457",
"dc c #4d1a41",
"dd c #491840",
"de c #4a1940",
"df c #481e62",
"e0 c #282158",
"e1 c #6c6091",
"e2 c #5c495e",
"e3 c #301b0c",
"e4 c #913394",
"e5 c #7b267f",
"e6 c #4b1e63",
"e7 c #3f1e5e",
"e8 c #271f55",
"e9 c #68597c",
"ea c #3d1e5d",
"eb c #5f538a",
"ec c #4f425a",
"ed c #411b31",
"ee c #78247c",
"ef c #491e62",
"f0 c #3a3265",
"f1 c #3a1e5c",
"f2 c #301e57",
"f3 c #342c6a",
"f4 c #63578c",
"f5 c #4d2628",
"f6 c #30285c",
"f7 c #352d6c",
"f8 c #554b85",
"f9 c #574556",
"fa c #431b34",
"fb c #691f70",
"fc c #3a3164",
"fd c #6f2074",
"fe c #591f69",
"ff c #3b3274",
"10 c #534982",
"10 c #6f2977",
"10 c #706391",
"10 c #4d1e3f",
"10 c #6d1f72",
"10 c #403669",
"10 c #271e54",
"10 c #3e2412",
"10 c #1f1106",
"10 c #51276f",
"10 c #261e53",
"10 c #6e6291",
"10 c #716292",
"10 c #351e0f",
"10 c #281e47",
"10 c #6f6392",
"11 c #4f276e",
"11 c #4c4274",
"11 c #271e4b",
"11 c #513c42",
"11 c #341d0c",
"11 c #301e26",
"11 c #301e58",
"11 c #3b1e5c",
"11 c #261e54",
"11 c #655989",
"11 c #6f367d",
"11 c #4d3f5a",
"11 c #261509",
"11 c #221207",
"11 c #3c2312",
"11 c #2a170a",
"12 c #2c180a",
"12 c #554b7c",
"12 c #5b5081",
"12 c #70508a",
"12 c #5f4f6b",
"12 c #201107",
"12 c #493538",
"12 c #291609",
"12 c #40323f",
"12 c #341d0d",
"12 c #47394b",
"12 c #2b170a",
"12 c #423443",
"12 c #453748",
"12 c #65587f",
"12 c #5e5173",
"13 c #1f1108",
"13 c #544252",
"13 c #2f1a0b",
"13 c #2e190b",
"13 c #3b2e38",
"13 c #5d4c65",
"13 c #493b4f",
"13 c #67587c",
"13 c #302225",
"13 c #6a5d88",
"13 c #51445d",
"13 c #311b0b",
"00000000000000000000000000000000000000000000000000000000000000000000000000000000000000000000000000000000000000000000000000000000",
"00000000000000000000000000000000000000000000000000000000000000000000000000000000000000000000000001000000000000000000000000000000",
"00000000000000000000000000000000000000000000000000000000000000000000000000000000000000000000000002000000000000000000000000000000",
"00000000000000000000000000000000000000000000000000000000000000000000000000000000000300000000000004000000000000000000000000000000",
"00000000000000000000000000000000000000000000000000000000000000000000000000000000000305000000000000000000000000000000000000000000",
"00000000000000000000000000000000000000000000000000000000000000000000000000000000000006000000070000000000000000000000000000000000",
"00000000000000000000000000000000000000000000000000000000000000000000000000000000000000050000050507000000000000000000000000000000",
"000000000000000000000000000000000000000000000000000000000000000000000000000000000000050505050808090a0b00000000000000000000000000",
"0000000000000000000000000000000000000000000000000000000000000000000c0d0e00000000000000000f10111212120500000000000000000000000000",
"00000000000000000000000000000000000000000000000000000000000013140d0d0d0d0d140000000000001516121212121700000000000000000000000000",
"0000000000000000000000000000000000000000000000000000000000000d0d0d0d0d0d0d0d0d0000000000181212121912050000000000000000000000001a",
"000000000000000000000000000000000000000000000000000000001b0d0d0d0d0d0d0d0d0d0d1c0000001d1e1f202119222300000000000024052525252525",
"000000000000000000000000000000000000000000000000000000000d0d0d0d0d0d0d2627280d0d0d00212129122121212a000000000000002b121212121212",
"00000000000000000000000000000000000000000000000000002c0d0d0d0d0d0d0d2d2e2f30312d0d0032213321323435000000000000363712121212121212",
"00000000000000000000000000000000000000000000000000001b0d0d0d0d0d0d382739393a3b3c273d21212a2a3e00000000000000003f1212121212121212",
"0000000000000000000000000000000000000000000000000000400d0d0d0d0d0d4139424344453b272146470000000000000000004849121212121212121212",
"00000000000000000000000000000000000000000000000000004a0d0d0d0d0d4b4c4d4e4f4f4f3b505100000000000000000000525354121212121212121212",
"0000000000000000000000000000000000000000000000000000550d0d0d0d2756574f4f4f584f592a5a000000000000000000055b5c12121212121212121212",
"00000000000000000000000000000000000000000000000000005d555e0d5f6056565661624f4f63646500000000000000000066676812121212121212121212",
"0000000000000000000000000000000000000000000000000000005555550d27275656565669216a3b6b000000006c6d6d6d6d6d6e5c12121212121212121212",
"0000000000000000000000000000000000000000000000006f0d0d0d707172557374755656762a7727780d0d0d6d6d6d797a7a7b7c7c12121212121212121212",
"000000000000000000000000000000000000000000007d6d7e0d0d0d0d0d7f55558081272182275555830d0d0d0d847b7b7b8500000012121212121212121212",
"0000000000000000000000000000000000000000007b86876d880d0d0d8955550d8a278b2a8c558d898e555555557b7b8f909100000092121212121212121212",
"000000000000000000000000000000000000000000007b7b936d940d9555550d0d9627972a81558d555555555555987b990000000000003f1212121212121212",
"000000000000000000000000000000000000000000009a7b7b7b9b6d9c55960d0d96219d9e9f818d55555555a0a1a20000000000000000a3a412121212121212",
"00000000000000000000000000000000000000000000007b7b7b7b6d6d0d0d0d0da52aa69ea7818d00000000000000000000000000000000002b121212121212",
"000000000000000000000000000000000000000000000000a8a87b7ba9a9aaaaabac27a69ea79e8d0000000000000000000000000000000000adaeafafafafaf",
"0000000000000000000000000000000000000000000000000000007bb039393939b127a69ea7818d000000000000000000000000000000000000000505050500",
"00000000000000000000000000000000000000000000000000000000b22f4db3b3b4b59e9ea7818d000000000000000000000000000000000000000000000000",
"00000000000000000000000000000000000000000000000000000000b62f2f2f3939399e9ea7818d000000000000000000000000000000000000000000000000",
"000000000000000000000000000000000000000000000000000000000021b7b8b8b9ba9e9e8181bb000000000000000000000000000000000000000000000000",
"0000000000000000000000000000000000000000000000000000bcbcbcbcbd9e9e9e9e9e9e8181be000000000000000000000000000000000000000000000000",
"0000000000000000000000000000000000000000000000bcbcbcbcbcbcbcbc9e9e9e9e9e818181be000000000000000000000000000000000000000000000000",
"00000000000000000000000000000000000000000000bfbcbcc0c0c0c1c2c39e9e9ebac48181c5c6c70000000000000000000000000000000000000000000000",
"00000000000000000000000000000000000000000000c82a2a2a2a2ac9c2c39e9e81818181ca2acb2a0000000000000000000000000000000000000000000000",
"00000000000000000000000000000000000000000000c82a2a2a2a2accc2cd2a2a2a2a2a2acecfd02a0000000000000000000000000000000000000000000000",
"00000000000000000000000000000000000000000000c82a2a2a2a2accc2d12a2a2a2a2a2ad2caca7b0000000000000000000000000000000000000000000000",
"00000000000000000000000000000000000000000000c82a2a2a2a2accd3d4818181d5d57b7b7bd6d7d800000000000000000000000000000000000000000000",
"00000000000000000000000000000000000000000000c82a2a2a2a2ac9d3cd8181d97b7b7b7b7bd7d7d7d7000000000000000000000000000000000000000000",
"00000000000000000000000000000000000000000000da2adbdbdbdbdcddde81df7b7b7b7b7b7be0d7d7d7d7e100000000000000000000000000000000000000",
"00000000000000000000000000000000000000000000ac9e9e9e9e818181817b7b7b7b7b7b7b7b7b7bd7d7d7d700000000000000000000000000000000000000",
"0000000000000000000000000000000000000000e2e3e49e9e9ee5818181e67b7be77b7b7b7b7b7b7be8d7d7d7d7000000000000000000000000000000000000",
"00000000000000000000000000000000000000e92a2a9e9e9e818181817b7b7b7b8181ea7b7b7b7b7b7b7bd7d7d7eb0000000000000000000000000000000000",
"00000000000000000000000000000000000000eced9e9e9eee818181ef7b7bf081818181f1f27b7b7b7b7b7bf3d7d7f400000000000000000000000000000000",
"0000000000000000000000000000000000002af59e9e9e81818181817b7bf6000081818181817b7b7b7b7b7b7b7bf7d7f8000000000000000000000000000000",
"0000000000000000000000000000000000f932fa9e9eba818181fb7b7b7bfc0000fd8181818181fe7b7b7b7b7b7b7bff10000000000000000000000000000000",
"000000000000000000000000000000009e2a9e9e9e81818181817b7b7b00000000108181818181817b7b7b7b7b7b7b7b99000000000000000000000000000000",
"0000000000000000000000000000001021109e9e81818181107b7b7b10000000000081818181818110107b7b7b7b7b7b99000000000000000000000000000000",
"0000000000000000000000000000001010109ec481818181107b7b1000000000000010818181818181101010107b7b7b10000000000000000000000000000000",
"0000000000000000000000000000212abc1181818181817b7b7b11000000000000000081818181818111bcbcbcbc7b7b00000000000000000000000000000000",
"00000000000000000000000000112a11bc1111118181117b7b11000000000000000000118181818181bcbcbcbcbc110000000000000000000000000000000000",
"00000000000000000000000000112abcbc117b7b7b7b7b7b91000000000000000000000081818181bcbcbcbc112a3e0000000000000000000000000000000000",
"000000000000000000001011c111bc122a2a7b7b7b7b121200000000000000000000000012120012bcbcbcbc2a2a000000000000000000000000000000000000",
"00000000000000000000bc122abc2a2a2a2a7b7b7b000000000000000000000000000000000000bcbcbcbc2a2a00000000000000000000000000000000000000",
"000000000000000012bcbc12972a2a2a2a2aec9000000000000000000000000000000000000012bcbc122a2a1200000000000000000000000000000000000000",
"00000000000000bcbcbc632a2a2a2a00000000000000000000000000000000000000000000002abcbc2a2a2a0000000000000000000000000000000000000000",
"00000000000012bcbc122a121212000000000000000000000000000000000000000000000012bcbc2a2a2a000000000000000000000000000000000000000000",
"0000000000bcbcbc2a2a13000000000000000000000000000000000000000000000000000013bc132a2a00000000000000000000000000000000000000000000",
"000000000013132a2a2a13000000000000000000000000000000000000000000000000000013132a2a82bc130000000000000000000000000000000000000000",
"00000000002a2a2a2a2a130000000000000000000000000000000000000000000000000000132a2a2a12bcbc1300000000000000000000000000000000000000",
"000000000000132a2a2a2a1300000000000000000000000000000000000000000000000000132a2a2a2a2a131313000000000000000000000000000000000000",
"00000000000000000000000000000000000000000000000000000000000000000000000000000000000000000000000000000000000000000000000000000000",
"00000000000000000000000000000000000000000000000000000000000000000000000000000000000000000000000000000000000000000000000000000000",
"00000000000000000000000000000000000000000000000000000000000000000000000000000000000000000000000000000000000000000000000000000000",
};
