/* XPM */
static char *image[] = {
"64 64 310 2",
"00 c #ffffff",
"01 c #6e49cd",
"02 c #6f52b9",
"03 c #6e4bc8",
"04 c #6f55b2",
"05 c #74659b",
"06 c #976eff",
"07 c #6f56b2",
"08 c #9b82db",
"09 c #cebbff",
"0a c #886ad5",
"0b c #e8bc61",
"0c c #716199",
"0d c #ffffff",
"0e c #a078a1",
"0f c #b68a7d",
"10 c #bca59e",
"11 c #9f9a8a",
"12 c #aca16f",
"13 c #7151c2",
"14 c #875fed",
"15 c #a47aca",
"16 c #a57bcc",
"17 c #7665a2",
"18 c #634e3f",
"19 c #b0a59e",
"1a c #d5c4ff",
"1b c #c79d7d",
"1c c #a79d9b",
"1d c #bb8f82",
"1e c #935d54",
"1f c #714ad4",
"20 c #a87566",
"21 c #3d2310",
"22 c #a1948b",
"23 c #c5bdb8",
"24 c #f3efff",
"25 c #6340be",
"26 c #9069af",
"27 c #b3a390",
"28 c #d4cecd",
"29 c #b28477",
"2a c #c2a197",
"2b c #a57d76",
"2c c #712334",
"2d c #c79154",
"2e c #724cca",
"2f c #8c6be1",
"30 c #936aeb",
"31 c #ab796b",
"32 c #a87668",
"33 c #b497ff",
"34 c #49322f",
"35 c #c8c1bc",
"36 c #b0aca8",
"37 c #9f9289",
"38 c #b8afa8",
"39 c #734cd6",
"3a c #906cec",
"3b c #472899",
"3c c #deb369",
"3d c #9a695b",
"3e c #7b55c1",
"3f c #3b3377",
"40 c #a57162",
"41 c #c49f94",
"42 c #1e1006",
"43 c #2b1a21",
"44 c #7750db",
"45 c #4d3198",
"46 c #4e2ea2",
"47 c #6844c5",
"48 c #704bcb",
"49 c #7a2f37",
"4a c #b3aaa8",
"4b c #cdc6c5",
"4c c #ada4a3",
"4d c #8e8381",
"4e c #9a908e",
"4f c #803e4c",
"50 c #dbab5c",
"51 c #3d347a",
"52 c #a3707a",
"53 c #b0848d",
"54 c #efe8ff",
"55 c #916cee",
"56 c #64577d",
"57 c #341e0d",
"58 c #38200e",
"59 c #22140c",
"5a c #2b1926",
"5b c #321e39",
"5c c #714eca",
"5d c #916af4",
"5e c #685894",
"5f c #47289a",
"60 c #251e53",
"61 c #3e3568",
"62 c #926cf0",
"63 c #442c22",
"64 c #281609",
"65 c #695894",
"66 c #6a45c7",
"67 c #e3b763",
"68 c #e4b864",
"69 c #a99e99",
"6a c #d2cccb",
"6b c #d7a85e",
"6c c #6d48cb",
"6d c #432b21",
"6e c #21130a",
"6f c #71619a",
"70 c #966dfe",
"71 c #7766a5",
"72 c #48299a",
"73 c #e6bb63",
"74 c #482896",
"75 c #593893",
"76 c #261e55",
"77 c #6e6291",
"78 c #3f2514",
"79 c #716395",
"7a c #705e9f",
"7b c #6f1f73",
"7c c #65587f",
"7d c #825ae7",
"7e c #966efd",
"7f c #6945c6",
"80 c #5131a7",
"81 c #9f797a",
"82 c #99369e",
"83 c #682079",
"84 c #6a5b94",
"85 c #6b5c83",
"86 c #231308",
"87 c #745bb3",
"88 c #774fdb",
"89 c #886ad6",
"8a c #71609d",
"8b c #39200e",
"8c c #7b54df",
"8d c #882c8d",
"8e c #655574",
"8f c #261814",
"90 c #7158b2",
"91 c #4f2fa3",
"92 c #923297",
"93 c #564865",
"94 c #5735ae",
"95 c #6340bf",
"96 c #523d45",
"97 c #261509",
"98 c #8058e5",
"99 c #7565a0",
"9a c #6b46c9",
"9b c #56424f",
"9c c #392b34",
"9d c #715fa0",
"9e c #453972",
"9f c #372378",
"a0 c #5c3ab4",
"a1 c #473290",
"a2 c #412d89",
"a3 c #a27073",
"a4 c #432f2f",
"a5 c #453748",
"a6 c #615686",
"a7 c #a6666b",
"a8 c #923296",
"a9 c #493b4e",
"aa c #675b8a",
"ab c #2f2864",
"ac c #332c6b",
"ad c #793590",
"ae c #843595",
"af c #be8667",
"b0 c #47302a",
"b1 c #574966",
"b2 c #706392",
"b3 c #2d2560",
"b4 c #271609",
"b5 c #726393",
"b6 c #3e2363",
"b7 c #30205a",
"b8 c #362e6f",
"b9 c #7f3776",
"ba c #816d8f",
"bb c #361f0e",
"bc c #584b69",
"bd c #822986",
"be c #392b54",
"bf c #716393",
"c0 c #8d3290",
"c1 c #671e69",
"c2 c #681e69",
"c3 c #5a5856",
"c4 c #645a56",
"c5 c #361e0d",
"c6 c #6b5d86",
"c7 c #271312",
"c8 c #c7c4c4",
"c9 c #321b0c",
"ca c #712075",
"cb c #775d95",
"cc c #812985",
"cd c #e2e1e1",
"ce c #795a95",
"cf c #7a257e",
"d0 c #d1cfcf",
"d1 c #4c4274",
"d2 c #5d204f",
"d3 c #281709",
"d4 c #211626",
"d5 c #5b524b",
"d6 c #322a5e",
"d7 c #26181e",
"d8 c #564b7c",
"d9 c #815297",
"da c #4a222a",
"db c #8a469a",
"dc c #722176",
"dd c #5b204b",
"de c #231307",
"df c #321e58",
"e0 c #431e60",
"e1 c #2f2863",
"e2 c #564b7d",
"e3 c #98359d",
"e4 c #231a3f",
"e5 c #3f367a",
"e6 c #30285c",
"e7 c #98369d",
"e8 c #2a160f",
"e9 c #351425",
"ea c #381e5b",
"eb c #3a1e5c",
"ec c #3f1e5e",
"ed c #393071",
"ee c #5b5081",
"ef c #884999",
"f0 c #201107",
"f1 c #391e5b",
"f2 c #322a67",
"f3 c #8b469a",
"f4 c #6a1e6c",
"f5 c #631f6e",
"f6 c #483e70",
"f7 c #6f2877",
"f8 c #281e54",
"f9 c #3b3274",
"fa c #3c3375",
"fb c #6f6292",
"fc c #863281",
"fd c #2e2660",
"fe c #874a99",
"ff c #98379e",
"10 c #96359a",
"10 c #2b1e55",
"10 c #261f54",
"10 c #261e53",
"10 c #2d255f",
"10 c #5e4b61",
"10 c #1f1106",
"10 c #40357a",
"10 c #403579",
"10 c #716292",
"10 c #6e1f72",
"10 c #282158",
"10 c #351e0f",
"10 c #5e4e68",
"10 c #51435c",
"10 c #3e3679",
"11 c #6f2676",
"11 c #292158",
"11 c #5e4d67",
"11 c #452d24",
"11 c #211207",
"11 c #1f1213",
"11 c #54497a",
"11 c #71598e",
"11 c #6d6090",
"11 c #231618",
"11 c #351e0d",
"11 c #533e47",
"11 c #271509",
"11 c #1e1007",
"11 c #5d4d67",
"11 c #221207",
"12 c #2f1a0b",
"12 c #251408",
"12 c #574b77",
"12 c #331c0c",
"12 c #4f3b45",
"12 c #2d180a",
"12 c #6a5d88",
"12 c #321c0c",
"12 c #241308",
"12 c #50425b",
"12 c #534660",
"12 c #4e4057",
"12 c #312327",
"12 c #312427",
"12 c #2e190b",
"12 c #5d4c65",
"13 c #52404e",
"13 c #302225",
"13 c #251813",
"13 c #2f2123",
"13 c #685b83",
"13 c #311b0b",
"00000000000000000000000000000000000000000000000000000000000000000000000000000000000000000000000000000000000000000000000000000000",
"00000000000000000000000000000000000000000000000000000000000000000000000000000000000000000000000000000000000000000000000000000000",
"00000000000000000000000000000000000000000000000000000000000000000000000000000000000000000000000000000000000000000000000000000000",
"00000000000000000000000000000000000000000000000000000000000000000000000000000000000000000000000000000000000000000000000000000000",
"00000000000000000000000000000001010000000000000000000000000000000000000000000000000000000000000000000000000000000000000000000000",
"00000000000000000000000002030101010102040000000000000000000000000000000000000000000500000000000000000000000000000000000000000000",
"00000000000000000000000301010101010101010000000000000000000000000000000000000000000606060000000000000000000000000000000000000000",
"00000000000000000007010101010101010101010107000000000000000000000000000000000008090906060a00000000000000000000000000000000000000",
"000000000000000000010101010101010b0b0b0101010c0000000000060000000600000000000d0d0d0d0d060606000000000000000000000000000000000000",
"00000000000000000701010101010e0f1011101201010c0000000000131415161417000000180d0d190d1a060606060600000000000000000000000000000000",
"000000000000000001010101011b1c1d1d1d1d1e0b0101000000001f001d201f0600000021222123212406060606060600000000000000000000000000000000",
"0000000000000025010101012627281d292a2a2b2c2d2e000000002f3031320d33000034353621372138060639063a2f00000000000000000000000000000000",
"000000000000003b0101013c281c283d282828282c2c3e01000000003f40410d0d0000212121212142431f06441f060000000000000000000000000000000000",
"000000000000004546474849284a4b4c4b284d4e4f2c50013f3f3f3f5152535455005657425842595a5b1f06555c5d0000000000000000000000000000000000",
"00000000000000005e3b5f3c1c1c1c1c1c1c2828282c50013f606060611f62000063216400000000001f1f060000000000000000000000000000000000000000",
"0000000000000000653b3b666768691c1c1c1c6a1c2c6b6c6060600000000000006d6e0000000000006f1f707100000000000000000000000000000000000000",
"0000000000000000656c6c6c3b722e731c1c1c1c73747576607777000000000078420000000000000000791f7100000000000000000000000000000000000000",
"00000000000000007a010101013b3b7b0b0b0b0b3b3b3b606000000000000021217c00000000000000000000000000007d000000007e06000000000000000000",
"00000000000000457f010101018001817b827b833b0b840000000000000085865600000000000000000000000000000087888900008a88885500000000000000",
"000000000000003b0101010101803b817b827b833b0b00000000000000008b0000000000000000000000000000000000001f8c00000000000000000000000000",
"000000000000003b01010101018001817b827b8d3b0b0000000000008e218f000000000000000000000000000000000000009000000000000000000000000000",
"000000000000003b91010101013b01817b827b923b0b000000000000934200000000000000000000000000000000000000000000000000000000000000000000",
"000000000000003b3b94010101953b817b827b823b0b000000000096970000000000000000000000000000000000000000000000000098990000000000000000",
"00000000000000003b3b3b9a01013b817b827b923b0b000000009b429c00000000000000000000000000000000000000000000000000009d0000000000000000",
"00000000000000009e9f3b3ba0a1a2a382827b923b0b00000000a4a5000000000000000000000000000000000000000000000000000000000000000000000000",
"0000000000000000a66060603f3f3fa782827ba83b0b00000021a900000000000000000000000000000000000000000000000000000000000000000000000000",
"0000000000000000aa60606060abac3fadae7b7baf000000b042b100000000000000000000000000000000000000000000000000000000000000000000000000",
"00000000000000000000b2606060606060b33f7b7b000000b4000000000000000000000000000000000000000000000000000000000000000000000000000000",
"00000000000000000000b58282b6b6b7606060b8b9bababbbc000000000000000000000000000000000000000000000000000000000000000000000000000000",
"00000000000000000000b582828282bd7b6060be1d1d1d1d00000000000000000000000000000000000000000000000000000000000000000000000000000000",
"00000000000000000000bfc0c0c0c1c1c1c2c3c4c5c5c5c5c5c60000000000000000000000000000000000000000000000000000000000000000000000000000",
"00000000000000000000b5c74242424242c5c5c5c5c5c5c5c8c50000000000000000000000000000000000000000000000000000000000000000000000000000",
"00000000000000000000b582828282bd7bc5c5c9424242c5c8c50000000000000000000000000000000000000000000000000000000000000000000000000000",
"000000000000000000008282828282ca7b424242424242c5c8c50000000000000000000000000000000000000000000000000000000000000000000000000000",
"00000000000000000082828282827b7b7b424242424242c5c8c50000000000000000000000000000000000000000000000000000000000000000000000000000",
"0000000000000000cb82828282cc7b7b7b424242424242c5cdc50000000000000000000000000000000000000000000000000000000000000000000000000000",
"0000000000000000ce82828282cf7b7b7b424242424242c5d0c5d100000000000000000000000000000000000000000000000000000000000000000000000000",
"000000000000000082828282827b7bd2d3d44242424242c5d5c5d600000000000000000000000000000000000000000000000000000000000000000000000000",
"000000000000008282828282827b7b21426060606060606060606060000000000000000000000000000000000000000000000000000000000000000000000000",
"000000000000ce82828282827b7b21d7606060606060606060606060d80000000000000000000000000000000000000000000000000000000000000000000000",
"000000000000d982828282827bda4260606060606060606060606060600000000000000000000000000000000000000000000000000000000000000000000000",
"000000000000db82828282dcddde6060606060dfe06060606060e1606060e2000000000000000000000000000000000000000000000000000000000000000000",
"00000000000082828282e37b42e460606060607b7b7b60606060e5e56060e6000000000000000000000000000000000000000000000000000000000000000000",
"00000000008282828282e7e8e9ea60606060eb7b7b7bec606060e5e5ed6060ee0000000000000000000000000000000000000000000000000000000000000000",
"00000000ef828282828221f07bf160606060007b7b7b7b7b6060f2e5e5e560606000000000000000000000000000000000000000000000000000000000000000",
"00000000f3828282825842f4f560606060f600f77b7b7b7bf86060f9e5e5fa6060fb000000000000000000000000000000000000000000000000000000000000",
"0000000082828282fc427b7b60606060000000007b7b7b7b7b606060fde5e5e56060000000000000000000000000000000000000000000000000000000000000",
"00000000feffff10217b7b106060601000000000007b7b7b7b7b106010e5e5e5e560600000000000000000000000000000000000000000000000000000000000",
"0000000000001010de101060606060b20000000000107b7b7b7b10606010e5e5e510101000000000000000000000000000000000000000000000000000000000",
"0000000000001042c5e5106060606000000000000000117b7b7b7b00606011e5e560c51100000000000000000000000000000000000000000000000000000000",
"00000000001111c5c942116060110000000000000000001111110000116060114211c51100000000000000000000000000000000000000000000000000000000",
"00000000114211c542421160600000000000000000000000000000000000424242c5c51100000000000000000000000000000000000000000000000000000000",
"000000001112c5124242421200000000000000000000000000000000000042424212c51100000000000000000000000000000000000000000000000000000000",
"0000000012c512424242421200000000000000000000000000000000000042424212c51100000000000000000000000000000000000000000000000000000000",
"00000000c5c51242424212000000000000000000000000000000000000007c424212c51100000000000000000000000000000000000000000000000000000000",
"000000c5c5424242420000000000000000000000000000000000000000007c424212c51100000000000000000000000000000000000000000000000000000000",
"000012c5c5424242120000000000000000000000000000000000000000007c424242c51100000000000000000000000000000000000000000000000000000000",
"000012c5c5424200000000000000000000000000000000000000000000007c424242c51100000000000000000000000000000000000000000000000000000000",
"0000124212424200000000000000000000000000000000000000000000007c42424212c512000000000000000000000000000000000000000000000000000000",
"0000124242424242000000000000000000000000000000000000000000007c42424242c5c5130000000000000000000000000000000000000000000000000000",
"00000013134242421300000000000000000000000000000000000000000013424242424213131300000000000000000000000000000000000000000000000000",
"00000000000000000000000000000000000000000000000000000000000000000000000000000000000000000000000000000000000000000000000000000000",
"00000000000000000000000000000000000000000000000000000000000000000000000000000000000000000000000000000000000000000000000000000000",
"00000000000000000000000000000000000000000000000000000000000000000000000000000000000000000000000000000000000000000000000000000000",
};
