/* XPM */
static char *image[] = {
"64 64 310 2",
"00 c #ffffff",
"01 c #7d67b6",
"02 c #8e6ce7",
"03 c #976eff",
"04 c #ffffff",
"05 c #b99eff",
"06 c #4f393d",
"07 c #6e49cd",
"08 c #584231",
"09 c #6f56b2",
"0a c #6f53b6",
"0b c #6f52ba",
"0c c #68597c",
"0d c #a4988f",
"0e c #e1dfdd",
"0f c #3d2310",
"10 c #8761d5",
"11 c #835be8",
"12 c #705aa8",
"13 c #7057af",
"14 c #6f4fad",
"15 c #845cea",
"16 c #8b6bdf",
"17 c #705ea0",
"18 c #7059ab",
"19 c #341e0d",
"1a c #301b0c",
"1b c #201207",
"1c c #1e1006",
"1d c #7851dc",
"1e c #8c63f3",
"1f c #714ad4",
"20 c #6f55b3",
"21 c #daaf6d",
"22 c #e8bc61",
"23 c #714dcb",
"24 c #715ca6",
"25 c #705ca3",
"26 c #9069af",
"27 c #c5b0a4",
"28 c #b2bdb1",
"29 c #b79c95",
"2a c #c0b063",
"2b c #65455d",
"2c c #442c3d",
"2d c #7b67b1",
"2e c #7151c2",
"2f c #7665a3",
"30 c #835dba",
"31 c #a79d9b",
"32 c #bb8f82",
"33 c #9a695b",
"34 c #2d190b",
"35 c #7665a2",
"36 c #7152be",
"37 c #8569cb",
"38 c #6a4cb7",
"39 c #815bbc",
"3a c #d4b372",
"3b c #d4cecd",
"3c c #b68a7c",
"3d c #bf998e",
"3e c #ae8679",
"3f c #25120a",
"40 c #d5a45a",
"41 c #7b55c1",
"42 c #71609d",
"43 c #71609c",
"44 c #9a70e8",
"45 c #7c55c7",
"46 c #8166c7",
"47 c #7765a4",
"48 c #523897",
"49 c #9a72a6",
"4a c #cec3c0",
"4b c #6a5648",
"4c c #a1767e",
"4d c #712334",
"4e c #c09684",
"4f c #b48577",
"50 c #716395",
"51 c #533899",
"52 c #472899",
"53 c #6d48cb",
"54 c #bd8551",
"55 c #ccc5c4",
"56 c #d2cccb",
"57 c #827674",
"58 c #cfc9c7",
"59 c #2b190d",
"5a c #837876",
"5b c #a27880",
"5c c #985543",
"5d c #986ffb",
"5e c #a67263",
"5f c #a77465",
"60 c #736695",
"61 c #966dfe",
"62 c #714bd2",
"63 c #6e4acb",
"64 c #48299a",
"65 c #9b73a3",
"66 c #a89e9c",
"67 c #4b3423",
"68 c #1f1106",
"69 c #9e9592",
"6a c #3f3578",
"6b c #e8dad6",
"6c c #bab4cb",
"6d c #71609e",
"6e c #251e53",
"6f c #3b3377",
"70 c #5534ac",
"71 c #bdb5b3",
"72 c #a57162",
"73 c #e1d0cb",
"74 c #8469cb",
"75 c #715f9e",
"76 c #896ad8",
"77 c #53497a",
"78 c #282159",
"79 c #6a47c7",
"7a c #4a2a9d",
"7b c #5332a9",
"7c c #4d3626",
"7d c #857a76",
"7e c #c3aa82",
"7f c #4d2789",
"80 c #b38b73",
"81 c #3d317c",
"82 c #6b5b98",
"83 c #8275a4",
"84 c #716199",
"85 c #6743c4",
"86 c #d2a957",
"87 c #95707e",
"88 c #5b5081",
"89 c #2b235c",
"8a c #453789",
"8b c #6642ac",
"8c c #3b216f",
"8d c #7c3071",
"8e c #99369e",
"8f c #7b2680",
"90 c #6f1f73",
"91 c #625686",
"92 c #38200e",
"93 c #524779",
"94 c #282156",
"95 c #2b245e",
"96 c #2e2662",
"97 c #6a5677",
"98 c #9c72a0",
"99 c #815b88",
"9a c #2b180a",
"9b c #2c1a28",
"9c c #882d8c",
"9d c #5a2386",
"9e c #5a2387",
"9f c #876775",
"a0 c #a97b6d",
"a1 c #ab7d70",
"a2 c #926aaa",
"a3 c #6f2f9b",
"a4 c #a67669",
"a5 c #583829",
"a6 c #8b5e82",
"a7 c #865a7c",
"a8 c #7d5370",
"a9 c #86608c",
"aa c #7e5b86",
"ab c #9d3f98",
"ac c #5a2487",
"ad c #361e0d",
"ae c #392025",
"af c #943399",
"b0 c #5a2486",
"b1 c #655678",
"b2 c #564235",
"b3 c #503c2e",
"b4 c #78247c",
"b5 c #95349a",
"b6 c #a05e6c",
"b7 c #3a2317",
"b8 c #271508",
"b9 c #c7c4c4",
"ba c #aea7a4",
"bb c #241611",
"bc c #715d90",
"bd c #706391",
"be c #201107",
"bf c #261508",
"c0 c #5e5e5e",
"c1 c #392b34",
"c2 c #634b64",
"c3 c #3f3833",
"c4 c #42291c",
"c5 c #1f1108",
"c6 c #241610",
"c7 c #e9e9e9",
"c8 c #b1aaa7",
"c9 c #4b4744",
"ca c #585756",
"cb c #24170e",
"cc c #665778",
"cd c #241711",
"ce c #3e3568",
"cf c #48312d",
"d0 c #5f5274",
"d1 c #7e2e7d",
"d2 c #802f7d",
"d3 c #792b77",
"d4 c #231b42",
"d5 c #2f2122",
"d6 c #402c29",
"d7 c #544762",
"d8 c #953a9d",
"d9 c #463c6f",
"da c #621f6d",
"db c #30285c",
"dc c #574a68",
"dd c #594c6b",
"de c #844d98",
"df c #822986",
"e0 c #481e62",
"e1 c #2a2257",
"e2 c #726393",
"e3 c #61506a",
"e4 c #39282a",
"e5 c #815197",
"e6 c #411e5f",
"e7 c #431e60",
"e8 c #3f367a",
"e9 c #2f2863",
"ea c #312427",
"eb c #7a257e",
"ec c #322a5e",
"ed c #3b1e5c",
"ee c #62526e",
"ef c #372626",
"f0 c #795a95",
"f1 c #8d2f92",
"f2 c #641f6e",
"f3 c #3a3265",
"f4 c #70327c",
"f5 c #3c3376",
"f6 c #6e6190",
"f7 c #3f2616",
"f8 c #5d5072",
"f9 c #40376a",
"fa c #2b1d1c",
"fb c #736194",
"fc c #722176",
"fd c #31295d",
"fe c #6f2776",
"ff c #2a1e55",
"10 c #2d2660",
"10 c #292259",
"10 c #655989",
"10 c #6d608c",
"10 c #815297",
"10 c #98369d",
"10 c #391e5b",
"10 c #6d608d",
"10 c #98379e",
"10 c #97359d",
"10 c #6d1f72",
"10 c #504577",
"10 c #584d7e",
"10 c #382011",
"10 c #391f11",
"10 c #40357a",
"11 c #6e6291",
"11 c #716292",
"11 c #564b7d",
"11 c #3e3679",
"11 c #6f337c",
"11 c #704283",
"11 c #292158",
"11 c #3c251a",
"11 c #321b0c",
"11 c #1f1213",
"11 c #231618",
"11 c #1e1007",
"11 c #58475b",
"11 c #251408",
"11 c #574b77",
"11 c #2d190a",
"12 c #5e4d67",
"12 c #4f3b45",
"12 c #2d180a",
"12 c #321c0c",
"12 c #5d4d67",
"12 c #241308",
"12 c #4f425a",
"12 c #331c0c",
"12 c #695b81",
"12 c #534660",
"12 c #453748",
"12 c #65587f",
"12 c #312327",
"12 c #3e313d",
"12 c #2e190b",
"12 c #5d4c65",
"13 c #52404e",
"13 c #302225",
"13 c #251813",
"13 c #2f2123",
"13 c #685b83",
"13 c #311b0b",
"00000000000000000000000000000000000000000000000000000000000000000000000000000000000000000000000000000000000000000000000000000000",
"00000000000000000000000000000000000000000000000000000000000000000000000000000000000000000000000000000000000000000000000000000000",
"00000000000000000000000000000000000000000000000000000000000000000000000100000000000000000000000000000000000000000000000000000000",
"00000000000000000000000000000000000000000000000000000000000000000002030303030300000000000000000000000000000000000000000000000000",
"00000000000000000000000000000000000000000000000000000000000000000304040503030000000000000000000000000000000000000000000000000000",
"00000000000000000000000000000000000000000000000000000000000006040404040403030000000000000000000000000000000000000000000000000000",
"00000000000000000000000000000000000000000007070000000000000008040408040503030300000000000000000000000000000000000000000000000000",
"000000000000000000000000000000000000090a070707070b0900000c0d0e0f040f041003110300000000000000000000000000000000000000000000000000",
"000000000000000000000000000000000012070707070707070713000f0f040f0f0f0f1403150316000000000000000000000000000000000000000000000000",
"00000000000000000000000000000017070707070707070707070718191a0f1a1a1b1c1d031e1f03000000000000000000000000000000000000000000000000",
"0000000000000000000000000000002007070707070721222207071c0f1c1c1c1c231f1f03000024000000000000000000000000000000000000000000000000",
"000000000000000000000000000025070707070726262728292a2b192c002d0000002e1f032f0000000000000000000000000000000000000000000000000000",
"0000000000000000000000000000070707070730313232323233340707001f00003500361f370000000000000000000000000000000000000000000000000000",
"000000000000000000000000003807070707393a3b323c3d3e0f3f40410000420043424445460000000000000000004700000000000000000000000000000000",
"0000000000000000000000000048070707493b313b334a3b4b1c4c4d4e0700030000324f1f000000000000000000001f03000000000000000000000000000000",
"0000000000000000000050505051525307543b5556575658595a5b4d5c073500005d5e5f04600000000000610000000062000000000000000000000000000000",
"000000000000000000630707070753536465666631316768693b3b4d5c070000006a5e6b046c0000000000506d00000000000000000000000000000000000000",
"000000000000006e6f6f0707070707075270222231310f1c313b714d5c076f6f6f6f727304740000000000007500760000000000000000000000000000000000",
"000000000000776e786f6f790707077a527b5264397c7d3131317e7f808178787882478347000000000000000000840000000000000000000000000000000000",
"000000000000006e6e6e6f6f07075252520707850f1c862222228752526e6e6e0000000000000000000000000000000000000000000000000000000000000000",
"00000000000000886e6e6e896f8a52520707078b1c8c8d8e8f9052226e6e88880000000000000000000000000000000000000000000000000000000000000000",
"0000000000000000916e6e6e6e6f6f000707079207528d8e8f9052226e6e00000000000000000000000000000000000000000000000000000000000000000000",
"0000000000000000009393946e95969798999a9b07528d8e8f9c9d22000000000000000000000000000000000000000000000000000000000000000000000000",
"000000000000000000000000006e333232321c0707528d8e8f8e9e22000000000000000000000000000000000000000000000000000000000000000000000000",
"00000000000000000000000000009f33a0a132a252528d8e8f8ea322000000000000000000000000000000000000000000000000000000000000000000000000",
"0000000000000000000000000000003333a4323252528d8e8f8e9d22000000000000000000000000000000000000000000000000000000000000000000000000",
"000000000000000000000000000000a5a6a7a8a952aaab8e8f8eac22000000000000000000000000000000000000000000000000000000000000000000000000",
"00000000000000000000000000000fadadadadae2222af8e8f8eb022000000000000000000000000000000000000000000000000000000000000000000000000",
"0000000000000000000000b1adadadadadadb2b3b4b4b58e8f90b600000000000000000000000000000000000000000000000000000000000000000000000000",
"0000000000000000000000b7adad1c1c1cb8b9ba8e8e8e8e8f909000000000000000000000000000000000000000000000000000000000000000000000000000",
"0000000000000000000000bb1c1c1c1c1cb8b9ba8e8e8eb5909090bc000000000000000000000000000000000000000000000000000000000000000000000000",
"00000000000000000000bdbe1c1c1c1c1cbfb9ba8e8e90909090c090c10000000000000000000000000000000000000000000000000000000000000000000000",
"000000000000000000000fbe1c1c1c1c1cbfb9ba90909090c2c0c31cc10000000000000000000000000000000000000000000000000000000000000000000000",
"000000000000000000c4c5c61c1c1c1c1cb8c7c81c1c1c1cc9cacbc0c10000000000000000000000000000000000000000000000000000000000000000000000",
"0000000000000000cc1c00cd1c1c1c1c1cb8c7ba1c1c1c1c1cc0c0c0ce0000000000000000000000000000000000000000000000000000000000000000000000",
"00000000000000cf92d00000d0d0d0d1d1d2d1d390906ed46e6e6e6e6e0000000000000000000000000000000000000000000000000000000000000000000000",
"000000000000000fd500000000008e8e8e8e8e90906e6e6e6e6e6e6e6e6e00000000000000000000000000000000000000000000000000000000000000000000",
"000000000000d6d70000000000d88e8e8eb490906e6e6e6e6e6e6e6e6e6ed9000000000000000000000000000000000000000000000000000000000000000000",
"00000000000f1c0000000000008e8e8e909090da6e6e6e6e6e6e6e6e6e6edb000000000000000000000000000000000000000000000000000000000000000000",
"00000000dc1cdd00000000de8e8e8edf9090e06e6e6ee06e6e6e6e6e6e6ee1000000000000000000000000000000000000000000000000000000000000000000",
"000000001a0000000000e28e8e8e8e9090906e6e6e6e906e6e6e6e6e6e6e6e000000000000000000000000000000000000000000000000000000000000000000",
"0000e31ae40000000000e58e8e8e909090e66e6ee79090906e6e6e6ee8e96e6e0000000000000000000000000000000000000000000000000000000000000000",
"0000ea1c00000000008e8e8e8eeb90906e6e6eec00909090ed6e6e6ee8e86e6e6e00000000000000000000000000000000000000000000000000000000000000",
"00eeef0000000000f08e8e8ef19090f26e6ef30000f49090906e6e6ee8e8f56e6ef6000000000000000000000000000000000000000000000000000000000000",
"f70ff800000000008e8e8e8e9090906e6ef900000000909090906e6ee8e8e8e86e6e000000000000000000000000000000000000000000000000000000000000",
"68fa00000000fb8e8e8e8efc90906e6efd0000000000fe909090ff6e10e8e8e8106e100000000000000000000000000000000000000000000000000000000000",
"100000000000108e8e8e109090106e6e00000000000000909090906e6ee8e8e8e86e6e0000000000000000000000000000000000000000000000000000000000",
"10000000000000108e109090106e6e100000000000000090909090906e6ee8e8e8106e1000000000000000000000000000000000000000000000000000000000",
"0000000000000010101090906e6e1100000000000000001190909090116e10e8e8e86e1000000000000000000000000000000000000000000000000000000000",
"00000000000000adade8116e6e6e0000000000000000000011901100006e6ee8e8116ead00000000000000000000000000000000000000000000000000000000",
"00000000000011ad111c116e6ef6000000000000000000000000000000106e6e111cadad00000000000000000000000000000000000000000000000000000000",
"0000000000adadad1c1c116e0000000000000000000000000000000000001c1c1c1cadad00000000000000000000000000000000000000000000000000000000",
"0000000011adad111c1c1c110000000000000000000000000000000000001c1c1c11ad1200000000000000000000000000000000000000000000000000000000",
"0000000012ad121c1c1cc5000000000000000000000000000000000000001c1c1c12ad1200000000000000000000000000000000000000000000000000000000",
"00000000adad121c1c1200000000000000000000000000000000000000001c1c1c12ad1200000000000000000000000000000000000000000000000000000000",
"000000adad1c1c1cd50000000000000000000000000000000000000000001c1c1c12ad0000000000000000000000000000000000000000000000000000000000",
"000012adad1c1c1200000000000000000000000000000000000000000000121c1c12ad0000000000000000000000000000000000000000000000000000000000",
"000012adad1c120000000000000000000000000000000000000000000000121c1c1cad1200000000000000000000000000000000000000000000000000000000",
"0000ea1c111c1c0000000000000000000000000000000000000000000000121c1c1c12ad12000000000000000000000000000000000000000000000000000000",
"0000ea1c1c1c1c1c00000000000000000000000000000000000000000000121c1c1c1cadad130000000000000000000000000000000000000000000000000000",
"00000013131c1c1c13000000000000000000000000000000000000000000131c1c1c1c1c13131300000000000000000000000000000000000000000000000000",
"00000000000000000000000000000000000000000000000000000000000000000000000000000000000000000000000000000000000000000000000000000000",
"00000000000000000000000000000000000000000000000000000000000000000000000000000000000000000000000000000000000000000000000000000000",
"00000000000000000000000000000000000000000000000000000000000000000000000000000000000000000000000000000000000000000000000000000000",
};
