/* XPM */
static char *image[] = {
"64 64 321 2",
"00 c #ffffff",
"01 c #8e6ce7",
"02 c #976eff",
"03 c #8669ce",
"04 c #8a6ada",
"05 c #865eeb",
"06 c #736498",
"07 c #835be8",
"08 c #7a52de",
"09 c #8569cc",
"0a c #7665a0",
"0b c #cebbff",
"0c c #6e4dc5",
"0d c #6e49cd",
"0e c #705ba6",
"0f c #7850db",
"10 c #714ad4",
"11 c #8961f0",
"12 c #ffffff",
"13 c #716296",
"14 c #7059ab",
"15 c #634292",
"16 c #5c3a84",
"17 c #e3d8ff",
"18 c #aba3bf",
"19 c #462e26",
"1a c #95877c",
"1b c #ada5c0",
"1c c #6f56b1",
"1d c #6e4fc0",
"1e c #62526e",
"1f c #e7e4e1",
"20 c #341e0d",
"21 c #b9b0a9",
"22 c #3d2310",
"23 c #7e59bc",
"24 c #7156b5",
"25 c #998fb1",
"26 c #ddd9d6",
"27 c #1e1006",
"28 c #716298",
"29 c #7b55c1",
"2a c #dcaf60",
"2b c #c6c1bc",
"2c c #d5a45a",
"2d c #815bbc",
"2e c #38200e",
"2f c #3c2210",
"30 c #452d24",
"31 c #2b1d1c",
"32 c #8377a0",
"33 c #ca9e77",
"34 c #bb8f82",
"35 c #ab7c6f",
"36 c #712334",
"37 c #e8bc61",
"38 c #6543b7",
"39 c #534660",
"3a c #e2dfe9",
"3b c #6d48cc",
"3c c #714cca",
"3d c #e7ba62",
"3e c #bb9083",
"3f c #bc9184",
"40 c #ac7f72",
"41 c #742839",
"42 c #3f2514",
"43 c #21130a",
"44 c #736592",
"45 c #976efa",
"46 c #5b39b4",
"47 c #d7ac70",
"48 c #9b6a5c",
"49 c #d3cdcc",
"4a c #d4cecd",
"4b c #3f2311",
"4c c #27171b",
"4d c #776792",
"4e c #a67263",
"4f c #fcfbfa",
"50 c #472899",
"51 c #8f7f70",
"52 c #817573",
"53 c #612329",
"54 c #27161c",
"55 c #986ef3",
"56 c #a57162",
"57 c #6e5f93",
"58 c #492a9c",
"59 c #a89d9a",
"5a c #a79d9b",
"5b c #aca2a0",
"5c c #aea4a3",
"5d c #351e0d",
"5e c #64202d",
"5f c #daaf6d",
"60 c #433785",
"61 c #564577",
"62 c #b78a7d",
"63 c #bdb5b3",
"64 c #361514",
"65 c #dbaf6d",
"66 c #4e4581",
"67 c #3b3377",
"68 c #433875",
"69 c #6e4bc8",
"6a c #6a46c8",
"6b c #6340be",
"6c c #5f3cb9",
"6d c #5231a7",
"6e c #cca97a",
"6f c #d6b371",
"70 c #422e21",
"71 c #af8974",
"72 c #4a2b9d",
"73 c #342c6b",
"74 c #2b245d",
"75 c #251e53",
"76 c #7b67b1",
"77 c #383073",
"78 c #5f42b3",
"79 c #6844c5",
"7a c #692078",
"7b c #6f1f73",
"7c c #2e1a0b",
"7d c #4b2b9f",
"7e c #31226c",
"7f c #393064",
"80 c #2d2660",
"81 c #2e2662",
"82 c #503c9a",
"83 c #5735ae",
"84 c #4c2da0",
"85 c #662757",
"86 c #5e1c5c",
"87 c #775488",
"88 c #5534ac",
"89 c #393164",
"8a c #524779",
"8b c #5a4f80",
"8c c #342d6c",
"8d c #553ea3",
"8e c #613ebc",
"8f c #4c2ca0",
"90 c #281609",
"91 c #31216c",
"92 c #473e70",
"93 c #292156",
"94 c #362e6f",
"95 c #5137a1",
"96 c #451c36",
"97 c #99369e",
"98 c #78247d",
"99 c #573f97",
"9a c #5a4496",
"9b c #695894",
"9c c #f1f0f4",
"9d c #44282b",
"9e c #8b2e90",
"9f c #832a88",
"a0 c #3f3669",
"a1 c #332c6b",
"a2 c #8861b3",
"a3 c #5d3c8c",
"a4 c #211207",
"a5 c #cecada",
"a6 c #4b3756",
"a7 c #412584",
"a8 c #c3abff",
"a9 c #7b6389",
"aa c #9a695b",
"ab c #b48679",
"ac c #6d4a91",
"ad c #deb268",
"ae c #e0dde7",
"af c #635095",
"b0 c #8f6154",
"b1 c #96625d",
"b2 c #b48280",
"b3 c #732177",
"b4 c #bc9771",
"b5 c #604e68",
"b6 c #6f337c",
"b7 c #331d0d",
"b8 c #361e0d",
"b9 c #554354",
"ba c #a79f9b",
"bb c #b9b4b3",
"bc c #5c1f51",
"bd c #5f5860",
"be c #644766",
"bf c #261813",
"c0 c #52404e",
"c1 c #b2acaa",
"c2 c #c7c4c4",
"c3 c #5e5e5e",
"c4 c #4b4744",
"c5 c #48312d",
"c6 c #b3adaa",
"c7 c #261508",
"c8 c #575654",
"c9 c #2c2119",
"ca c #3b332e",
"cb c #4c3637",
"cc c #b2adaa",
"cd c #3d3630",
"ce c #2c1c16",
"cf c #6f296a",
"d0 c #5a2250",
"d1 c #c6c1bf",
"d2 c #dddcdc",
"d3 c #291b2a",
"d4 c #393071",
"d5 c #3f367a",
"d6 c #41387b",
"d7 c #742b71",
"d8 c #592250",
"d9 c #d0ccca",
"da c #2b1e3c",
"db c #402617",
"dc c #2c190b",
"dd c #883189",
"de c #7b2d79",
"df c #736962",
"e0 c #6d645f",
"e1 c #2a1e3c",
"e2 c #282158",
"e3 c #6c6091",
"e4 c #5c495e",
"e5 c #301b0c",
"e6 c #913394",
"e7 c #7b267f",
"e8 c #4b1e63",
"e9 c #3f1e5e",
"ea c #271f55",
"eb c #68597c",
"ec c #3d1e5d",
"ed c #5f538a",
"ee c #4f425a",
"ef c #411b31",
"f0 c #78247c",
"f1 c #491e62",
"f2 c #3a3265",
"f3 c #70327c",
"f4 c #3a1e5c",
"f5 c #301e57",
"f6 c #342c6a",
"f7 c #63578c",
"f8 c #4d2628",
"f9 c #30285c",
"fa c #6f2977",
"fb c #352d6c",
"fc c #554b85",
"fd c #574556",
"fe c #431b34",
"ff c #691f70",
"10 c #3a3164",
"10 c #6f327c",
"10 c #591f69",
"10 c #3b3274",
"10 c #534982",
"10 c #706391",
"10 c #4d1e3f",
"10 c #6d1f72",
"10 c #403669",
"10 c #6f2073",
"10 c #271e54",
"10 c #3e2412",
"10 c #1f1106",
"10 c #51276f",
"10 c #702074",
"10 c #261e53",
"11 c #6e6291",
"11 c #6f357d",
"11 c #351e0f",
"11 c #281e47",
"11 c #6f6392",
"11 c #4f276e",
"11 c #4c4274",
"11 c #271e4b",
"11 c #513c42",
"11 c #341d0c",
"11 c #301e26",
"11 c #301e58",
"11 c #3b1e5c",
"11 c #261e54",
"11 c #655989",
"11 c #71598e",
"12 c #4d3f5a",
"12 c #261509",
"12 c #221207",
"12 c #3c2312",
"12 c #271509",
"12 c #2a170a",
"12 c #2c180a",
"12 c #554b7c",
"12 c #5b5081",
"12 c #5f4f6b",
"12 c #201107",
"12 c #493538",
"12 c #291609",
"12 c #40323f",
"12 c #341d0d",
"12 c #47394b",
"13 c #2b170a",
"13 c #423443",
"13 c #453748",
"13 c #65587f",
"13 c #5e5173",
"13 c #1f1108",
"13 c #544252",
"13 c #2f1a0b",
"13 c #2e190b",
"13 c #3b2e38",
"13 c #5d4c65",
"13 c #493b4f",
"13 c #67587c",
"13 c #302225",
"13 c #6a5d88",
"13 c #51445d",
"14 c #311b0b",
"00000000000000000000000000000000000000000000000000000000000000000000000000000000000000000000000000000000000000000000000000000000",
"00000000000000000000000000000000000000000000000000000000000000000000000000000000000000000000000000000000000000000000000000000000",
"00000000000000000000000000000000000000000000000000000000000000000000000000000000000000000000000000000000000000000000000000000000",
"00000000000000000000000000000000000000000000000000000000000000000000000000000000000000000001000000000000000000000000000000000000",
"00000000000000000000000000000000000000000000000000000000000000000000000000000000000000000002000000000000000000000000000000000000",
"00000000000000000000000000000000000000000000000000000000000000000000000000000000000000000002030402000000000000000000000000000000",
"00000000000000000000000000000000000000000000000000000000000000000000000000000000000000000202020205000000000000000000000000000006",
"000000000000000000000000000000000000000000000000000000000000000000000000000000000000000002020707080900000000000000000000000a020b",
"0000000000000000000000000000000000000000000000000000000000000000000c0d0e00000000000000000f10111212120200000000000000000000021212",
"00000000000000000000000000000000000000000000000000000000000013140d0d0d0d0d140000000000001516121212121700000000000000000018121212",
"0000000000000000000000000000000000000000000000000000000000000d0d0d0d0d0d0d0d0d0000000000191212121a120200000000000000001b12121212",
"000000000000000000000000000000000000000000000000000000001c0d0d0d0d0d0d0d0d0d0d1d0000001e1f2021221a232400000000000000251212121212",
"000000000000000000000000000000000000000000000000000000000d0d0d0d0d0d0d0d0d0d0d0d0d0022222612222222270000000000000012121212121212",
"0000000000000000000000000000000000000000000000000000280d0d0d0d0d0d0d0d292a2b2c2d0d002e222f222e3031000000000000321212121212121212",
"00000000000000000000000000000000000000000000000000001c0d0d0d0d0d0d0d0d33343536363738222227273900000000000000003a1212121212121212",
"00000000000000000000000000000000000000000000000000003b0d0d0d0d0d0d3c3d3e3f404136362242430000000000000000004445121212121212121212",
"0000000000000000000000000000000000000000000000000000460d0d0d0d0d0d4748494a4a4a364b4c000000000000000000004d4e4f121212121212121212",
"0000000000000000000000000000000000000000000000000000500d0d0d0d0d0d514a4a4a524a53275400000000000000000002555612121212121212121212",
"00000000000000000000000000000000000000000000000000005750580d0d0d37595a5b5c4a4a5d5e5f00000000000000000060616212121212121212121212",
"0000000000000000000000000000000000000000000000000000005050500d0d375a5a5a5a632264366500000000666767676767685612121212121212121212",
"000000000000000000000000000000000000000000000000690d0d0d6a6b6c506d6e6f5a5a70277137720d0d0d67676773747475767612121212121212121212",
"000000000000000000000000000000000000000000007767780d0d0d0d0d7950507a7b37227c3750507d0d0d0d0d7e7575757f00000012121212121212121212",
"00000000000000000000000000000000000000000075808167820d0d0d8350500d843785278650878388505050507575898a8b00000000121212121212121212",
"0000000000000000000000000000000000000000000075758c678d0d8e50500d0d8f3790277b5087505050505050917592000000000000121212121212121212",
"0000000000000000000000000000000000000000000093757575946795508f0d0d8f229697987b8750505050999a9b00000000000000009c1212121212121212",
"00000000000000000000000000000000000000000000007575757567670d0d0d0d9d279e979f7b87000000000000000000000000000000001212121212121212",
"000000000000000000000000000000000000000000000000a0a07575a1a1a2a2a3a4379e979f97870000000000000000000000000000000000a5121212121212",
"00000000000000000000000000000000000000000000000000000075a634343434a7379e979f7b8700000000000000000000000000000000000000a812121212",
"00000000000000000000000000000000000000000000000000000000a9aa48ababacad97979f7b87000000000000000000000000000000000000000000ae1212",
"00000000000000000000000000000000000000000000000000000000afaaaaaa34343497979f7b87000000000000000000000000000000000000000000000002",
"000000000000000000000000000000000000000000000000000000000022b0b1b1b2b397977b7bb4000000000000000000000000000000000000000000000000",
"00000000000000000000000000000000000000000000000000000000b527979797979797977b7bb6000000000000000000000000000000000000000000000000",
"00000000000000000000000000000000000000000000000000000000b797b8b8b8b8b8977b7b7bb6000000000000000000000000000000000000000000000000",
"0000000000000000000000000000000000000000000000000000b9b8b8b8b8b8b8babbbc7b7bbdbebf0000000000000000000000000000000000000000000000",
"0000000000000000000000000000000000000000000000000000c0b8b827272727c1c2bc7bc327c4270000000000000000000000000000000000000000000000",
"00000000000000000000000000000000000000000000000000c5a4272727272727c6c2c727c8c9ca270000000000000000000000000000000000000000000000",
"000000000000000000000000000000000000000000000000cb2227272727272727ccc2c727cdc3c3750000000000000000000000000000000000000000000000",
"000000000000000000000000000000000000000000000000cecfd0272727272727d1d2d3757575d4d5d600000000000000000000000000000000000000000000",
"000000000000000000000000000000000000000000000022d797d8272727272727d9c2da757575d5d5d5d5000000000000000000000000000000000000000000",
"00000000000000000000000000000000000000000000dbdcdd97de272727272727dfe0e1757575e2d5d5d5d5e300000000000000000000000000000000000000",
"00000000000000000000000000000000000000000000a4979797977b7b7b7b75757575757575757575d5d5d5d500000000000000000000000000000000000000",
"0000000000000000000000000000000000000000e4e5e6979797e77b7b7be87575e975757575757575ead5d5d5d5000000000000000000000000000000000000",
"00000000000000000000000000000000000000eb27279797977b7b7b7b757575757b7bec75757575757575d5d5d5ed0000000000000000000000000000000000",
"00000000000000000000000000000000000000eeef979797f07b7b7bf17575f2f37b7b7bf4f5757575757575f6d5d5f700000000000000000000000000000000",
"00000000000000000000000000000000000027f89797977b7b7b7b7b7575f90000fa7b7b7b7b7575757575757575fbd5fc000000000000000000000000000000",
"0000000000000000000000000000000000fd2efe9797b37b7b7bff757575100000107b7b7b7b7b10757575757575751010000000000000000000000000000000",
"0000000000000000000000000000000097279797977b7b7b7b7b75757500000000007b7b7b7b7b7b757575757575757592000000000000000000000000000000",
"00000000000000000000000000000010221097977b7b7b7b1075757510000000000000107b7b7b7b101075757575757592000000000000000000000000000000",
"00000000000000000000000000000010101097107b7b7b7b1075751100000000000000117b7b7b7b7b1011111175757511000000000000000000000000000000",
"00000000000000000000000000002227b8117b7b7b7b7b757575110000000000000000007b7b7b7b7b11b8b8b8b8757500000000000000000000000000000000",
"00000000000000000000000000112711b81111117b7b1175751100000000000000000000117b7b7b7bb8b8b8b8b8120000000000000000000000000000000000",
"000000000000000000000000001227b8b8117575757575758b0000000000000000000000007b7b7bb8b8b8b81227390000000000000000000000000000000000",
"0000000000000000000010121212b812272775757575121200000000000000000000000000000012b8b8b8b82727000000000000000000000000000000000000",
"00000000000000000000b81227b827272727757575000000000000000000000000000000000000b8b8b8b8272700000000000000000000000000000000000000",
"000000000000000012b8b812902727272727ee8a00000000000000000000000000000000000012b8b81227271200000000000000000000000000000000000000",
"00000000000000b8b8b85d27272727000000000000000000000000000000000000000000000027b8b82727270000000000000000000000000000000000000000",
"00000000000012b8b81327131313000000000000000000000000000000000000000000000013b8b8272727000000000000000000000000000000000000000000",
"0000000000b8b8b8272713000000000000000000000000000000000000000000000000000013b813272700000000000000000000000000000000000000000000",
"00000000001313272727130000000000000000000000000000000000000000000000000000131327277cb8130000000000000000000000000000000000000000",
"000000000027272727271300000000000000000000000000000000000000000000000000001327272712b8b81300000000000000000000000000000000000000",
"00000000000013272727271300000000000000000000000000000000000000000000000000132727272727141414000000000000000000000000000000000000",
"00000000000000000000000000000000000000000000000000000000000000000000000000000000000000000000000000000000000000000000000000000000",
"00000000000000000000000000000000000000000000000000000000000000000000000000000000000000000000000000000000000000000000000000000000",
"00000000000000000000000000000000000000000000000000000000000000000000000000000000000000000000000000000000000000000000000000000000",
};
