/* XPM */
static char *image[] = {
"64 64 318 2",
"00 c #ffffff",
"01 c #705ca3",
"02 c #6f56b2",
"03 c #705aa8",
"04 c #6e49cd",
"05 c #7059ab",
"06 c #976eff",
"07 c #7c67b3",
"08 c #946df7",
"09 c #9069af",
"0a c #8b65b3",
"0b c #705aa9",
"0c c #896ad8",
"0d c #b497ff",
"0e c #ac8cff",
"0f c #e8bc61",
"10 c #d4cecd",
"11 c #9a695b",
"12 c #d7cbbe",
"13 c #ccc7d8",
"14 c #ffffff",
"15 c #705f9d",
"16 c #815bbc",
"17 c #dfb668",
"18 c #9f6f61",
"19 c #8d7a65",
"1a c #977362",
"1b c #d5a45a",
"1c c #70609c",
"1d c #3d2310",
"1e c #c4bcb6",
"1f c #f1efee",
"20 c #fbf9ff",
"21 c #726496",
"22 c #c49a81",
"23 c #a79d9b",
"24 c #c7ada6",
"25 c #bb8f82",
"26 c #b68a7c",
"27 c #712334",
"28 c #7f59be",
"29 c #462e26",
"2a c #4e2da2",
"2b c #724cca",
"2c c #baa68b",
"2d c #c6ada6",
"2e c #ba8e81",
"2f c #ae8c83",
"30 c #d7a65b",
"31 c #6f628f",
"32 c #d8d3d0",
"33 c #341f0f",
"34 c #f9f8f8",
"35 c #54364f",
"36 c #724bd5",
"37 c #956cfd",
"38 c #966dfe",
"39 c #472899",
"3a c #d7ac70",
"3b c #752835",
"3c c #d3cdcc",
"3d c #a9a09e",
"3e c #d2cbc9",
"3f c #837876",
"40 c #742735",
"41 c #e4b864",
"42 c #705ba6",
"43 c #b98e82",
"44 c #432a17",
"45 c #3f2513",
"46 c #2f1b0c",
"47 c #1f1106",
"48 c #8a63ee",
"49 c #946bfc",
"4a c #714ad4",
"4b c #716395",
"4c c #8860ef",
"4d c #6a5a94",
"4e c #daaf6d",
"4f c #b6adab",
"50 c #796991",
"51 c #a57162",
"52 c #1e1006",
"53 c #231307",
"54 c #291709",
"55 c #716494",
"56 c #4c2da0",
"57 c #deb76a",
"58 c #b3aaa9",
"59 c #aea4a3",
"5a c #433b7b",
"5b c #4f406f",
"5c c #38200e",
"5d c #7d5446",
"5e c #64577d",
"5f c #716298",
"60 c #744dd7",
"61 c #716199",
"62 c #71609d",
"63 c #c6ac7f",
"64 c #3f2f82",
"65 c #3b3377",
"66 c #3b316c",
"67 c #533997",
"68 c #492a9b",
"69 c #5231a7",
"6a c #4f2fa4",
"6b c #723e8a",
"6c c #914b6e",
"6d c #d6b371",
"6e c #745289",
"6f c #6e4c8b",
"70 c #332c6a",
"71 c #2b245d",
"72 c #362123",
"73 c #261508",
"74 c #715da5",
"75 c #99369e",
"76 c #6f1f73",
"77 c #30216a",
"78 c #251e53",
"79 c #2c1f3f",
"7a c #271915",
"7b c #584096",
"7c c #5c39b4",
"7d c #5735ae",
"7e c #8a6681",
"7f c #a05f6c",
"80 c #67217a",
"81 c #d1a769",
"82 c #3b3265",
"83 c #524779",
"84 c #311e21",
"85 c #4f425a",
"86 c #5a4396",
"87 c #4e2ea2",
"88 c #6a45c7",
"89 c #b89072",
"8a c #62227f",
"8b c #4a4072",
"8c c #372930",
"8d c #a77170",
"8e c #8f3093",
"8f c #822a87",
"90 c #584097",
"91 c #5a4496",
"92 c #695994",
"93 c #4b3534",
"94 c #52445e",
"95 c #934e6e",
"96 c #832a88",
"97 c #603ebb",
"98 c #8c2f91",
"99 c #842a88",
"9a c #7c5887",
"9b c #655575",
"9c c #321c0d",
"9d c #46384a",
"9e c #d6ac67",
"9f c #852b89",
"a0 c #281609",
"a1 c #3f268a",
"a2 c #4c2ca0",
"a3 c #ce9a65",
"a4 c #792c71",
"a5 c #66217b",
"a6 c #8b6882",
"a7 c #665676",
"a8 c #32211d",
"a9 c #c19f71",
"aa c #442c22",
"ab c #261e50",
"ac c #271e4c",
"ad c #361e0d",
"ae c #903490",
"af c #ddb466",
"b0 c #6c5e87",
"b1 c #221307",
"b2 c #261813",
"b3 c #c7c4c4",
"b4 c #65587f",
"b5 c #321b0c",
"b6 c #272056",
"b7 c #554365",
"b8 c #b48b84",
"b9 c #b38a82",
"ba c #695c86",
"bb c #a57568",
"bc c #825098",
"bd c #e2e1e1",
"be c #3d3630",
"bf c #994e7e",
"c0 c #b18476",
"c1 c #a17163",
"c2 c #ab8586",
"c3 c #d1cfcf",
"c4 c #403d58",
"c5 c #472d22",
"c6 c #522046",
"c7 c #5b524b",
"c8 c #281709",
"c9 c #311d1c",
"ca c #4d3856",
"cb c #7e3f6e",
"cc c #7f6680",
"cd c #746692",
"ce c #8e429b",
"cf c #312030",
"d0 c #2f1e57",
"d1 c #864b99",
"d2 c #8a2e8e",
"d3 c #32212f",
"d4 c #2d190b",
"d5 c #22172f",
"d6 c #481e62",
"d7 c #703f82",
"d8 c #746094",
"d9 c #621f6d",
"da c #22172e",
"db c #715a8e",
"dc c #97389d",
"dd c #903194",
"de c #301d19",
"df c #211625",
"e0 c #2e2661",
"e1 c #4b1e63",
"e2 c #704886",
"e3 c #822986",
"e4 c #271509",
"e5 c #3f367a",
"e6 c #704d88",
"e7 c #471e62",
"e8 c #3a2217",
"e9 c #341e0d",
"ea c #5d1c5c",
"eb c #3a1e5c",
"ec c #382f6f",
"ed c #2c255e",
"ee c #491e62",
"ef c #70508a",
"f0 c #795b95",
"f1 c #211207",
"f2 c #561e68",
"f3 c #292158",
"f4 c #704082",
"f5 c #775d95",
"f6 c #7a257e",
"f7 c #691f70",
"f8 c #291f49",
"f9 c #685b84",
"fa c #6f2274",
"fb c #301e58",
"fc c #3b3274",
"fd c #261f55",
"fe c #431e60",
"ff c #71598e",
"10 c #461e61",
"10 c #641f6e",
"10 c #2e2660",
"10 c #815297",
"10 c #6d1f72",
"10 c #241b44",
"10 c #21130a",
"10 c #6f2073",
"10 c #271e54",
"10 c #3e3579",
"10 c #6f6291",
"10 c #716393",
"10 c #726293",
"10 c #732177",
"10 c #3c2312",
"10 c #371f0e",
"11 c #372e6e",
"11 c #322a67",
"11 c #361f10",
"11 c #655678",
"11 c #391e5b",
"11 c #2e203b",
"11 c #2c1e1e",
"11 c #3d271d",
"11 c #361e0f",
"11 c #2f1c13",
"11 c #675a8a",
"11 c #1f1212",
"11 c #5a495e",
"11 c #351e0d",
"11 c #241d4d",
"11 c #503a3f",
"12 c #2a1709",
"12 c #473233",
"12 c #311b0c",
"12 c #2e1b15",
"12 c #625579",
"12 c #5d5182",
"12 c #402a24",
"12 c #301b0b",
"12 c #5a485a",
"12 c #2b180a",
"12 c #4b3e53",
"12 c #392b34",
"12 c #261509",
"12 c #534660",
"12 c #453748",
"12 c #4e4057",
"13 c #2e1a0b",
"13 c #3a2d36",
"13 c #312327",
"13 c #3e313d",
"13 c #312427",
"13 c #251408",
"13 c #301a0b",
"13 c #5f4e6a",
"13 c #392c34",
"13 c #302225",
"13 c #251813",
"13 c #2f2123",
"13 c #453849",
"13 c #311b0b",
"00000000000000000000000000000000000000000000000000000000000000000000000000000000000000000000000000000000000000000000000000000000",
"00000000000000000000000000000000000000000000000000000000000000000000000000000000000000000000000000000000000000000000000000000000",
"00000000000000000000000000000000000000000000000000000000000000000000000000000000000000000000000000000000000000000000000000000000",
"00000000000000000000000000000000000000000000000000000000000000000000000000000000000000000000000000000000000000000000000000000000",
"00000000000000000000000000000000000000000000000000000000000000000000000000000000000000000000000000000000000000000000000000000000",
"00000000000000000000000000000000000000000000000000000000000000000000000000000000000000000000000000000000000000000000000000000000",
"00000000000000000000000000000000000000000000000000000000000000000000000000000000000000000000000000000000000000000000000000000000",
"00000000000000000000000000000000000000000000000000000102030000000000000000000000000000000000000000000000000000000000000000000000",
"00000000000000000000000000000000000000000000000000040404040400000000000000000000000000000000000000000000000000000000000000000000",
"00000000000000000000000000000000000000000000000504040404040404050000000000000000000000000000000006060700000000000000000000000000",
"00000000000000000000000000000000000000000000040404040404040404040400000000000000000000000000000606060606080000000000000000000000",
"0000000000000000000000000000000000000000000404040404040409090a04040b0000000000000000000000000c060d0d0e06060606000000000000000000",
"0000000000000000000000000000000000000000040404040404040f101112040404000000000000000000000000131414141406060606000000000000000000",
"0000000000000000000000000000000000000015040404040416171819181a1b16041c000000000000000000001d1e141f142006060606210000000000000000",
"000000000000000000000000000000000000000404040404222324252525262727280400000000000000000029141d141d140606060606060600000000000000",
"000000000000000000000000000000000000002a0404042b2c232d2e2f101010273004000000000000000031321433341d343506363738383821000000000000",
"000000000000000000000000000000000000003904043a3b3c233d3e10103f1027404142000000000000431d1d44451d46474806494a4a4b4b4c000000000000",
"000000000000000000000000000000000000004d39394e27102323234f10101010270f420000000000505152531d545252524a0606550000004a060000000000",
"000000000000000000000000000000000000000039395616575723232323581059270f42000000005a5b5c1d5d5e5e5e5f4a4a4a605500000061620000000000",
"000000000000000000000000000000000000001504393939390463232323232323303964656565656566525100000000000000005f3806000000000000000000",
"0000000000000000000000000000000000006768696904046a396b6c6d6d6d6d6e6f39656570717172730000000000000000000000744a000000000000000000",
"000000000000000000000000000000000039393939390404390f757676393a0404040477787878791d7a00000000000000000000000000000000000000000000",
"000000000000000000000000000000007b39393939397c7d7e7f7576803981393939397878828384850000000000000000000000000000000000000000000000",
"000000000000000000000000000000863939398704398839897675768a0f393939393977788b1d8c000000000000000000000000000000000000000000000000",
"0000000000000000000000000000008639390404043939398d758e8f8a0f39393990919200935294000000000000000000000000000000000000000000000000",
"000000000000000000000000000000863939040404393939957596758a0f00000000000000520000000000000000000000000000000000000000000000000000",
"00000000000000000000000000000086393997040439390f987599759a0000000000009b9c9d0000000000000000000000000000000000000000000000000000",
"000000000000000000000000000000863939390404399e7675759f769a000000000000a052000000000000000000000000000000000000000000000000000000",
"00000000000000000000000000000000a13939a204a3a475757675a5a60000000000a7a800000000000000000000000000000000000000000000000000000000",
"00000000000000000000000000000000007839393965657575769639a900000000aa520000000000000000000000000000000000000000000000000000000000",
"0000000000000000000000000000000000abacacadadadadadae76af00000000b0b1b20000000000000000000000000000000000000000000000000000000000",
"0000000000000000000000000000000000adadadadadadadb3ad7600000000001db4000000000000000000000000000000000000000000000000000000000000",
"0000000000000000000000000000000000adadb5525252adb3ad65000000001d5200000000000000000000000000000000000000000000000000000000000000",
"0000000000000000000000000000000052525252525252adb3ad78b6b7b8b952ba00000000000000000000000000000000000000000000000000000000000000",
"0000000000000000000000000000000075525252525252adb3ad7878bb2525250000000000000000000000000000000000000000000000000000000000000000",
"000000000000000000000000000000bc75525252525252adbdadbe52bf11c0c125c2000000000000000000000000000000000000000000000000000000000000",
"0000000000000000000000000000007575525252525252adc3adc478c51111252525000000000000000000000000000000000000000000000000000000000000",
"0000000000000000000000000000757575c65252525252adc7ad78c8c9cacbcccccd000000000000000000000000000000000000000000000000000000000000",
"00000000000000000000000000ce757575757676767678787878cf1d7878d0000000000000000000000000000000000000000000000000000000000000000000",
"000000000000000000000000d175757575d276767678787878d3d4d5787878d6d7d8000000000000000000000000000000000000000000000000000000000000",
"00000000000000000000000075757575757676d9787878787852da787878787878db000000000000000000000000000000000000000000000000000000000000",
"0000000000000000000000dc757575dd7676767878787878dedf78787878e07878e1e20000000000000000000000000000000000000000000000000000000000",
"000000000000000000007575757575e3767678787878781de476787878e5e578787878e600000000000000000000000000000000000000000000000000000000",
"0000000000000000007575757575757676e778787878e8e9ea7676eb78ece5e5ed7878eeef000000000000000000000000000000000000000000000000000000",
"0000000000000000f075757575757676787878787878f10076767676f278f3e5e5f3787878f40000000000000000000000000000000000000000000000000000",
"00000000000000f57575757575f676f778787878f85cf900fa76767676fb7878fce5e5fd78feff00000000000000000000000000000000000000000000000000",
"000000000000007575757575757676107878787852520000007676767676107878fce51078787800000000000000000000000000000000000000000000000000",
"0000000000001075757575757676107878787810100000000000107676767610787810e5e5787810000000000000000000000000000000000000000000000000",
"0000000000001010757575107676787878781010000000000000f4767676767610787811e5117811000000000000000000000000000000000000000000000000",
"000000000000000011787878761178787811521100000000000000767676767600787878787878ad000000000000000000000000000000000000000000000000",
"000000000000000011ad11e57878787878115e000000000000000000ffffff000011787811a0adad000000000000000000000000000000000000000000000000",
"00000000000011adadad1111787878781d110000000000000000000000000000000000525212adad000000000000000000000000000000000000000000000000",
"000000000012adad1252521178787812e41200000000000000000000000000000000005252f1adad000000000000000000000000000000000000000000000000",
"0000000000adadad525252527812005200000000000000000000000000000000000000525252adad000000000000000000000000000000000000000000000000",
"0000000012ad1252525285850012121200000000000000000000000000000000000000125252adad000000000000000000000000000000000000000000000000",
"000000adadad5252520000000012520000000000000000000000000000000000000000125252adad000000000000000000000000000000000000000000000000",
"000012adad52521212000000131300000000000000000000000000000000000000000012525252ad000000000000000000000000000000000000000000000000",
"000013adad52130000000000000000000000000000000000000000000000000000000012525252ad000000000000000000000000000000000000000000000000",
"00001352135252000000000000000000000000000000000000000000000000000000001252525213ad1300000000000000000000000000000000000000000000",
"00001352525252520000000000000000000000000000000000000000000000000000001352525213adad00000000000000000000000000000000000000000000",
"00000013135252521300000000000000000000000000000000000000000000000000001352525252521313130000000000000000000000000000000000000000",
"00000000000000000000000000000000000000000000000000000000000000000000000000000000000000000000000000000000000000000000000000000000",
"00000000000000000000000000000000000000000000000000000000000000000000000000000000000000000000000000000000000000000000000000000000",
"00000000000000000000000000000000000000000000000000000000000000000000000000000000000000000000000000000000000000000000000000000000",
};
