/* XPM */
static char *image[] = {
"64 64 334 2",
"00 c #ffffff",
"01 c #906cec",
"02 c #936df5",
"03 c #8e6ce7",
"04 c #7d5bd4",
"05 c #7154ba",
"06 c #976eff",
"07 c #7159ae",
"08 c #7150c5",
"09 c #8a6ada",
"0a c #8168c0",
"0b c #714ad4",
"0c c #8e65f5",
"0d c #7b66b0",
"0e c #8e66f5",
"0f c #8068bf",
"10 c #8369c6",
"11 c #8569cc",
"12 c #8a62f0",
"13 c #835be8",
"14 c #715ea1",
"15 c #715baa",
"16 c #8e6be6",
"17 c #6e4dc5",
"18 c #6e49cd",
"19 c #705ba6",
"1a c #8961f0",
"1b c #ffffff",
"1c c #715ea2",
"1d c #8669ce",
"1e c #716296",
"1f c #7059ab",
"20 c #7654a7",
"21 c #5c3a84",
"22 c #e3d8ff",
"23 c #7159ad",
"24 c #7155b8",
"25 c #7a66ac",
"26 c #462e26",
"27 c #95877c",
"28 c #7766a5",
"29 c #736499",
"2a c #6f56b1",
"2b c #6e4fc0",
"2c c #62526e",
"2d c #e7e4e1",
"2e c #341e0d",
"2f c #b9b0a9",
"30 c #3d2310",
"31 c #7e59bc",
"32 c #7156b5",
"33 c #7966a9",
"34 c #ddd9d6",
"35 c #1e1006",
"36 c #7c67b3",
"37 c #716298",
"38 c #7b55c1",
"39 c #dcaf60",
"3a c #c6c1bc",
"3b c #d5a45a",
"3c c #815bbc",
"3d c #38200e",
"3e c #3c2210",
"3f c #452d24",
"40 c #2b1d1c",
"41 c #ca9e77",
"42 c #bb8f82",
"43 c #ab7c6f",
"44 c #712334",
"45 c #e8bc61",
"46 c #6543b7",
"47 c #534660",
"48 c #6d48cc",
"49 c #714cca",
"4a c #e7ba62",
"4b c #bb9083",
"4c c #bc9184",
"4d c #ac7f72",
"4e c #742839",
"4f c #3f2514",
"50 c #21130a",
"51 c #736592",
"52 c #976efa",
"53 c #7966aa",
"54 c #5b39b4",
"55 c #d7ac70",
"56 c #9b6a5c",
"57 c #d3cdcc",
"58 c #d4cecd",
"59 c #3f2311",
"5a c #27171b",
"5b c #776792",
"5c c #a67263",
"5d c #ba8e81",
"5e c #715fa1",
"5f c #472899",
"60 c #8f7f70",
"61 c #817573",
"62 c #612329",
"63 c #27161c",
"64 c #986ef3",
"65 c #a57162",
"66 c #7665a0",
"67 c #6e5f93",
"68 c #492a9c",
"69 c #a89d9a",
"6a c #a79d9b",
"6b c #aca2a0",
"6c c #aea4a3",
"6d c #351e0d",
"6e c #64202d",
"6f c #daaf6d",
"70 c #433785",
"71 c #564577",
"72 c #b78a7d",
"73 c #bdb5b3",
"74 c #361514",
"75 c #dbaf6d",
"76 c #4e4581",
"77 c #3b3377",
"78 c #433875",
"79 c #6e4bc8",
"7a c #6a46c8",
"7b c #6340be",
"7c c #5f3cb9",
"7d c #5231a7",
"7e c #cca97a",
"7f c #d6b371",
"80 c #422e21",
"81 c #af8974",
"82 c #4a2b9d",
"83 c #342c6b",
"84 c #2b245d",
"85 c #251e53",
"86 c #7b67b1",
"87 c #715da5",
"88 c #383073",
"89 c #5f42b3",
"8a c #6844c5",
"8b c #692078",
"8c c #6f1f73",
"8d c #2e1a0b",
"8e c #4b2b9f",
"8f c #31226c",
"90 c #393064",
"91 c #2d2660",
"92 c #2e2662",
"93 c #503c9a",
"94 c #5735ae",
"95 c #4c2da0",
"96 c #662757",
"97 c #5e1c5c",
"98 c #775488",
"99 c #5534ac",
"9a c #393164",
"9b c #524779",
"9c c #5a4f80",
"9d c #342d6c",
"9e c #553ea3",
"9f c #613ebc",
"a0 c #4c2ca0",
"a1 c #281609",
"a2 c #31216c",
"a3 c #473e70",
"a4 c #292156",
"a5 c #362e6f",
"a6 c #5137a1",
"a7 c #451c36",
"a8 c #99369e",
"a9 c #78247d",
"aa c #573f97",
"ab c #5a4496",
"ac c #695894",
"ad c #44282b",
"ae c #8b2e90",
"af c #832a88",
"b0 c #3f3669",
"b1 c #332c6b",
"b2 c #8861b3",
"b3 c #5d3c8c",
"b4 c #211207",
"b5 c #4b3756",
"b6 c #412584",
"b7 c #7b6389",
"b8 c #9a695b",
"b9 c #b48679",
"ba c #6d4a91",
"bb c #deb268",
"bc c #635095",
"bd c #8f6154",
"be c #96625d",
"bf c #916253",
"c0 c #aa8072",
"c1 c #6a1f69",
"c2 c #903490",
"c3 c #bc9771",
"c4 c #604e68",
"c5 c #361e0d",
"c6 c #521e3e",
"c7 c #6f337c",
"c8 c #3b210f",
"c9 c #978d88",
"ca c #c7c4c4",
"cb c #594656",
"cc c #321c0c",
"cd c #201106",
"ce c #978e88",
"cf c #511e3e",
"d0 c #5f5860",
"d1 c #644766",
"d2 c #261813",
"d3 c #46394a",
"d4 c #564864",
"d5 c #493d34",
"d6 c #4b4744",
"d7 c #48312d",
"d8 c #251408",
"d9 c #90409b",
"da c #71296c",
"db c #43352b",
"dc c #2c2119",
"dd c #3b332e",
"de c #4c3637",
"df c #5d2454",
"e0 c #70296c",
"e1 c #aea6a1",
"e2 c #e9e9e9",
"e3 c #5e5e5e",
"e4 c #2c1c16",
"e5 c #6f296a",
"e6 c #702a6c",
"e7 c #2e1e2f",
"e8 c #393071",
"e9 c #3f367a",
"ea c #41387b",
"eb c #742b71",
"ec c #261408",
"ed c #402617",
"ee c #2c190b",
"ef c #883189",
"f0 c #7c2680",
"f1 c #481e62",
"f2 c #282158",
"f3 c #6c6091",
"f4 c #5c495e",
"f5 c #301b0c",
"f6 c #913394",
"f7 c #7b267f",
"f8 c #4b1e63",
"f9 c #3f1e5e",
"fa c #271f55",
"fb c #68597c",
"fc c #3d1e5d",
"fd c #5f538a",
"fe c #4f425a",
"ff c #411b31",
"10 c #78247c",
"10 c #491e62",
"10 c #3a3265",
"10 c #3a1e5c",
"10 c #301e57",
"10 c #342c6a",
"10 c #63578c",
"10 c #4d2628",
"10 c #30285c",
"10 c #352d6c",
"10 c #554b85",
"10 c #574556",
"10 c #431b34",
"10 c #732177",
"10 c #691f70",
"10 c #3a3164",
"11 c #591f69",
"11 c #3b3274",
"11 c #534982",
"11 c #706391",
"11 c #4d1e3f",
"11 c #6d1f72",
"11 c #403669",
"11 c #6f2174",
"11 c #271e54",
"11 c #3e2412",
"11 c #1f1106",
"11 c #51276f",
"11 c #702074",
"11 c #261e53",
"11 c #6e6291",
"11 c #351e0f",
"12 c #281e47",
"12 c #6f6392",
"12 c #4f276e",
"12 c #4c4274",
"12 c #271e4b",
"12 c #513c42",
"12 c #341d0c",
"12 c #301e26",
"12 c #301e58",
"12 c #3b1e5c",
"12 c #261e54",
"12 c #655989",
"12 c #4d3f5a",
"12 c #261509",
"12 c #221207",
"12 c #3c2312",
"13 c #271509",
"13 c #2a170a",
"13 c #2c180a",
"13 c #554b7c",
"13 c #5b5081",
"13 c #6f2676",
"13 c #5e1f55",
"13 c #201107",
"13 c #493538",
"13 c #291609",
"13 c #40323f",
"13 c #341d0d",
"13 c #47394b",
"13 c #2b170a",
"13 c #423443",
"13 c #453748",
"14 c #65587f",
"14 c #5e5173",
"14 c #1f1108",
"14 c #544252",
"14 c #2f1a0b",
"14 c #2e190b",
"14 c #3b2e38",
"14 c #5d4c65",
"14 c #493b4f",
"14 c #67587c",
"14 c #302225",
"14 c #6a5d88",
"14 c #51445d",
"14 c #311b0b",
"00000000000000000000000000000000000000000000000000000000000000000000000000000000000000000100000000000000000000000000000000000000",
"00000000000000000000000000000000000000000000000000000000000000000000000000000000000000000000000000020000000000000000000000000000",
"00000000000000000000000000000000000000000000000000000000000000000000000000000000000000000000000000000000000000000000000000000000",
"00000000000000000000000000000000000000000000000000000000000000000000000000000000000000000003000000000000000000000000000403050000",
"00000000000000000000000000000000000000000000000000000000000000000000000000000000000000000000000600000000000000000000000706080000",
"000000060000000000000000000000000000000000000000000000000000000000000000000000000000000000090a060000000000000000000000070b0c0000",
"00000006000000000000000000000000000000000000000000000000000000000000000000000000000000000006060600000d000000000000000000000e0000",
"00000f1000000000000000000000000000000000000000000000000000000000000000000000000000000000110612131111060000000000000000140b150000",
"000016000000000000000000000000000000000000000000000000000000000000171819000000000000000006061a1b1b1b0600000000000000000b001c0000",
"00001d0000000000000000000000000000000000000000000000000000001e1f18181818181f00000000000020211b1b1b1b22000000000000230b2400000000",
"0000250000000000000000000000000000000000000000000000000000001818181818181818180000000000261b1b1b271b060000000000000b000000000000",
"000028000000000029000000000000000000000000000000000000002a181818181818181818182b0000002c2d2e2f3027313200000000000000000000000000",
"0000000000000000330000000000000000000000000000000000000018181818181818181818181818003030341b303030350000000000000000000000000000",
"000000000000000036000000000000000000000000000000000037181818181818181838393a3b3c18003d303e303d3f40000000000000000000000000000000",
"00000000000000000000000000000000000000000000000000002a18181818181818184142434444454630303535470000000000000000000000000000000000",
"000000000000000000000000000000000000000000000000000048181818181818494a4b4c4d4e4444304f500000000000000000005152530000000000000000",
"00000000000000000000000000000000000000000000000000005418181818181855565758585844595a000000000000000000005b5c5d5e0000000000000000",
"00000000000000000000000000000000000000000000000000005f18181818181860585858615862356300000000000000000006646565000000000000000000",
"0000000000000000660000000000000000000000000000000000675f6818181845696a6b6c58586d6e6f0000000000000000007071720b000000000000000000",
"0000000000000000000000000000000000000000000000000000005f5f5f1818456a6a6a6a733074447500000000767777777777786500000000000000000000",
"000000000000000000000000000000000000000000000000791818187a7b7c5f7d7e7f6a6a803581458218181877777783848485868700000000000000000000",
"0000000000000000000000000000000000000000000088778918181818188a5f5f8b8c45308d455f5f8e181818188f8585859000000000000000000000000000",
"0000000000000000000000000000000000000000008591927793181818945f5f1895459635975f9894995f5f5f5f85859a9b9c00000000000000000000000000",
"0000000000000000000000000000000000000000000085859d779e189f5f5f1818a045a1358c5f985f5f5f5f5f5fa285a3000000000000000000000000000000",
"00000000000000000000000000000000000000000000a4858585a577a65fa01818a030a7a8a98c985f5f5f5faaabac0000000000000000000000000000000000",
"000000000000000000000000000000000000000000000085858585777718181818ad35aea8af8c98000000000000000000000000000000000000000000000000",
"000000000000000000000000000000000000000000000000b0b08585b1b1b2b2b3b445aea8afa898000000000000000000000000000000000000000000000000",
"00000000000000000000000000000000000000000000000000000085b542424242b645aea8af8c98000000000000000000000000000000000000000000000000",
"00000000000000000000000000000000000000000000000000000000b7b856b9b9babba8a8af8c98000000000000000000000000000000000000000000000000",
"00000000000000000000000000000000000000000000000000000000bcb8b8b8424242a8a8af8c98000000000000000000000000000000000000000000000000",
"000000000000000000000000000000000000000000000000000000000030bdbebfc0c1c2c28c8cc3000000000000000000000000000000000000000000000000",
"00000000000000000000000000000000000000000000000000000000c4c5c5c5c5c5c5c5c5c68cc7000000000000000000000000000000000000000000000000",
"00000000000000000000000000000000000000000000000000000000c8c5c5c5c5c5c5c9cac68cc7000000000000000000000000000000000000000000000000",
"0000000000000000000000000000000000000000000000000000cb35cccdcd35353535cecacfd0d1d20000000000000000000000000000000000000000000000",
"0000000000000000000000000000000000000000000000000000d330d4353535353535c9cad535d6350000000000000000000000000000000000000000000000",
"00000000000000000000000000000000000000000000000000d7d8d9da353535353535c9cadbdcdd350000000000000000000000000000000000000000000000",
"000000000000000000000000000000000000000000000000de30dfa8e0353535353535e1e2d5e3e3850000000000000000000000000000000000000000000000",
"000000000000000000000000000000000000000000000000e4e5a8a8e6353535353535e1cae785e8e9ea00000000000000000000000000000000000000000000",
"000000000000000000000000000000000000000000000030eba8a8a8a8353535353535ec35e785e9e9e9e9000000000000000000000000000000000000000000",
"00000000000000000000000000000000000000000000edeeefa8a8a8f08c8c8cf1858585858585f2e9e9e9e9f300000000000000000000000000000000000000",
"00000000000000000000000000000000000000000000b4a8a8a8a88c8c8c8c85858585858585858585e9e9e9e900000000000000000000000000000000000000",
"0000000000000000000000000000000000000000f4f5f6a8a8a8f78c8c8cf88585f985858585858585fae9e9e9e9000000000000000000000000000000000000",
"00000000000000000000000000000000000000fb3535a8a8a88c8c8c8c858585858c8cfc85858585858585e9e9e9fd0000000000000000000000000000000000",
"00000000000000000000000000000000000000feffa8a8a8108c8c8c108585108c8c8c8c101085858585858510e9e91000000000000000000000000000000000",
"0000000000000000000000000000000000003510a8a8a88c8c8c8c8c858510008c8c8c8c8c8c858585858585858510e910000000000000000000000000000000",
"0000000000000000000000000000000000103d10a8a8108c8c8c1085858510008c8c8c8c8c8c8c11858585858585851111000000000000000000000000000000",
"00000000000000000000000000000000a835a8a8a88c8c8c8c8c8585850000008c8c8c8c8c8c8c8c8585858585858585a3000000000000000000000000000000",
"000000000000000000000000000000113011a8a88c8c8c8c1185858511000000118c8c8c8c8c8c8c1111858585858585a3000000000000000000000000000000",
"000000000000000000000000000000111111a8118c8c8c8c1185851100000000008c8c8c8c8c8c8c8c1111111285858512000000000000000000000000000000",
"00000000000000000000000000003035c5128c8c8c8c8c858585120000000000008c8c8c8c8c8c8c8c12c5c5c5c5858500000000000000000000000000000000",
"00000000000000000000000000123512c51212128c8c12858512000000000000008c8c8c8c8c8c8c8cc5c5c5c5c5120000000000000000000000000000000000",
"000000000000000000000000001235c5c5128585858585859c00000000000000008c8c8c8c8c8c8cc5c5c5c51235470000000000000000000000000000000000",
"0000000000000000000011121313c5133535858585851313000000000000000000138c8c8c8c8c13c5c5c5c53535000000000000000000000000000000000000",
"00000000000000000000c51335c535353535858585000000000000000000000000000000000000c5c5c5c5353500000000000000000000000000000000000000",
"000000000000000013c5c513a13535353535fe9b00000000000000000000000000000000000013c5c51335351300000000000000000000000000000000000000",
"00000000000000c5c5c56d35353535000000000000000000000000000000000000000000000035c5c53535350000000000000000000000000000000000000000",
"00000000000013c5c51335131314000000000000000000000000000000000000000000000014c5c5353535000000000000000000000000000000000000000000",
"0000000000c5c5c5353514000000000000000000000000000000000000000000000000000014c514353500000000000000000000000000000000000000000000",
"00000000001414353535140000000000000000000000000000000000000000000000000000141435358dc5140000000000000000000000000000000000000000",
"000000000035353535351400000000000000000000000000000000000000000000000000001435353513c5c51400000000000000000000000000000000000000",
"00000000000014353535351400000000000000000000000000000000000000000000000000143535353535141414000000000000000000000000000000000000",
"00000000000000000000000000000000000000000000000000000000000000000000000000000000000000000000000000000000000000000000000000000000",
"00000000000000000000000000000000000000000000000000000000000000000000000000000000000000000000000000000000000000000000000000000000",
"00000000000000000000000000000000000000000000000000000000000000000000000000000000000000000000000000000000000000000000000000000000",
};
