/* XPM */
static char *image[] = {
"64 64 320 2",
"00 c #ffffff",
"01 c #94a8c0",
"02 c #c1fffa",
"03 c #9ab2c7",
"04 c #a1f7fb",
"05 c #33daff",
"06 c #51a0ca",
"07 c #378a96",
"08 c #68597e",
"09 c #98f4fb",
"0a c #36a1b4",
"0b c #3d2310",
"0c c #36a5ba",
"0d c #48312d",
"0e c #706391",
"0f c #543f49",
"10 c #387378",
"11 c #6e608b",
"12 c #3c2a19",
"13 c #331e0f",
"14 c #6c5f8b",
"15 c #716297",
"16 c #6e49cd",
"17 c #3d2715",
"18 c #1f1106",
"19 c #6f628f",
"1a c #6e4aca",
"1b c #716296",
"1c c #e4e4e5",
"1d c #423544",
"1e c #2f1a0b",
"1f c #1e1006",
"20 c #6f51bb",
"21 c #878383",
"22 c #e9e9e9",
"23 c #c3bfce",
"24 c #65587e",
"25 c #261508",
"26 c #392b34",
"27 c #6f4fbf",
"28 c #c89e7d",
"29 c #b8a58c",
"2a c #daaa7d",
"2b c #b88c96",
"2c c #cac7d3",
"2d c #b6b3b3",
"2e c #a7a4a4",
"2f c #a09d9d",
"30 c #bcb9be",
"31 c #c7c4c4",
"32 c #dfdee2",
"33 c #b38a90",
"34 c #a79d9b",
"35 c #9a695b",
"36 c #b9885d",
"37 c #7751c6",
"38 c #6e4ec2",
"39 c #786c98",
"3a c #d1cfcf",
"3b c #d6d4d4",
"3c c #dedddd",
"3d c #e7e6e6",
"3e c #361e0d",
"3f c #716199",
"40 c #6e4bc8",
"41 c #ae8594",
"42 c #c6ac95",
"43 c #d4cecd",
"44 c #a1847c",
"45 c #a67e73",
"46 c #95ad99",
"47 c #b29f84",
"48 c #ad8792",
"49 c #71635a",
"4a c #7b6d64",
"4b c #bdbbbb",
"4c c #a8a5a5",
"4d c #a5a2a2",
"4e c #bab5b2",
"4f c #2e1c0f",
"50 c #e8bc61",
"51 c #a87a6c",
"52 c #bb8f82",
"53 c #b18376",
"54 c #732736",
"55 c #705f9e",
"56 c #2e1a0b",
"57 c #271609",
"58 c #623fbd",
"59 c #6c47ca",
"5a c #704bcb",
"5b c #b5836f",
"5c c #712334",
"5d c #a47f75",
"5e c #b78a7d",
"5f c #c3a299",
"60 c #bb9a90",
"61 c #915a64",
"62 c #d1a675",
"63 c #251408",
"64 c #6c5f8a",
"65 c #9a7c89",
"66 c #695994",
"67 c #6743c3",
"68 c #7550c6",
"69 c #965342",
"6a c #b3958d",
"6b c #873f3c",
"6c c #855eb9",
"6d c #776891",
"6e c #aa7b6e",
"6f c #9d6c5e",
"70 c #9c6b5d",
"71 c #6a5a94",
"72 c #482999",
"73 c #6b46c8",
"74 c #724dc2",
"75 c #9a5947",
"76 c #bbb2b1",
"77 c #d0cac9",
"78 c #847876",
"79 c #887c7b",
"7a c #cfc9c8",
"7b c #793141",
"7c c #281509",
"7d c #20120a",
"7e c #a97a6d",
"7f c #9b6a5c",
"80 c #706393",
"81 c #6d48cc",
"82 c #472899",
"83 c #6441bb",
"84 c #e5b860",
"85 c #a89e9c",
"86 c #706291",
"87 c #b5acaa",
"88 c #b68a7d",
"89 c #b38679",
"8a c #967784",
"8b c #6f51bc",
"8c c #5332a9",
"8d c #6441c0",
"8e c #4c2ca0",
"8f c #8b65b3",
"90 c #d8b46f",
"91 c #c3aa82",
"92 c #684790",
"93 c #624e98",
"94 c #5f5171",
"95 c #5d5071",
"96 c #3a2c35",
"97 c #3c2a3d",
"98 c #3b3377",
"99 c #705ba5",
"9a c #6b47ca",
"9b c #5836b0",
"9c c #6f1f73",
"9d c #a4646b",
"9e c #332637",
"9f c #61558b",
"a0 c #5836af",
"a1 c #8e3093",
"a2 c #99369e",
"a3 c #e0b262",
"a4 c #5c3ab5",
"a5 c #4a2b9d",
"a6 c #6a46c8",
"a7 c #6f55b2",
"a8 c #251e53",
"a9 c #492a9c",
"aa c #6e4bc9",
"ab c #483845",
"ac c #2e2763",
"ad c #60548a",
"ae c #6440bf",
"af c #7c2680",
"b0 c #bf846a",
"b1 c #956eaa",
"b2 c #5837b0",
"b3 c #623ebd",
"b4 c #712076",
"b5 c #523e49",
"b6 c #393173",
"b7 c #462996",
"b8 c #6340bf",
"b9 c #76227a",
"ba c #dcac63",
"bb c #7852c4",
"bc c #6b46c9",
"bd c #5f4e92",
"be c #736491",
"bf c #786891",
"c0 c #b7897c",
"c1 c #7b668a",
"c2 c #342c6c",
"c3 c #452794",
"c4 c #716393",
"c5 c #4e2ea3",
"c6 c #271f56",
"c7 c #ba8f82",
"c8 c #a57162",
"c9 c #b98d80",
"ca c #a47162",
"cb c #ad8785",
"cc c #caa06b",
"cd c #463c6f",
"ce c #2d2064",
"cf c #462898",
"d0 c #675694",
"d1 c #513697",
"d2 c #b28990",
"d3 c #8f3194",
"d4 c #5c5181",
"d5 c #3f3669",
"d6 c #7d6788",
"d7 c #726492",
"d8 c #c3a071",
"d9 c #a4636b",
"da c #877489",
"db c #3d3467",
"dc c #7f3d8d",
"dd c #862c8b",
"de c #a5656b",
"df c #94457d",
"e0 c #82368c",
"e1 c #8c449a",
"e2 c #523e48",
"e3 c #8b318c",
"e4 c #5e5e5e",
"e5 c #565553",
"e6 c #5d5d5d",
"e7 c #695c86",
"e8 c #96349b",
"e9 c #322821",
"ea c #2d2020",
"eb c #5a5958",
"ec c #241408",
"ed c #775d95",
"ee c #97389d",
"ef c #312b55",
"f0 c #432c5d",
"f1 c #6b2c6e",
"f2 c #903195",
"f3 c #923296",
"f4 c #923e9c",
"f5 c #4e1f65",
"f6 c #3c1e5d",
"f7 c #77237b",
"f8 c #371e5b",
"f9 c #2f1e57",
"fa c #6c1f72",
"fb c #722176",
"fc c #943399",
"fd c #96399d",
"fe c #423543",
"ff c #6a1f71",
"10 c #7d5596",
"10 c #4e3c47",
"10 c #7f5497",
"10 c #8f3093",
"10 c #551f68",
"10 c #521f66",
"10 c #8b2e90",
"10 c #3f367a",
"10 c #271f55",
"10 c #8c2f91",
"10 c #453644",
"10 c #825098",
"10 c #933398",
"10 c #411e5f",
"10 c #311e58",
"10 c #6d1f72",
"11 c #882d8d",
"11 c #736193",
"11 c #7d5696",
"11 c #504577",
"11 c #704685",
"11 c #463745",
"11 c #331e59",
"11 c #625686",
"11 c #2d255f",
"11 c #362e6c",
"11 c #3a3172",
"11 c #291e55",
"11 c #3d3477",
"11 c #42397b",
"11 c #635787",
"11 c #443a6d",
"12 c #2f2762",
"12 c #704786",
"12 c #61568b",
"12 c #2a225a",
"12 c #594e7f",
"12 c #3a3173",
"12 c #271f54",
"12 c #41376a",
"12 c #2a2257",
"12 c #2b1e39",
"12 c #221307",
"12 c #221937",
"12 c #271e3c",
"12 c #3a2215",
"12 c #311b0c",
"12 c #23150f",
"13 c #321c0c",
"13 c #6e618d",
"13 c #392214",
"13 c #5e4e69",
"13 c #615478",
"13 c #615479",
"13 c #4d3a42",
"13 c #5a495f",
"13 c #281609",
"13 c #51445d",
"13 c #675a82",
"13 c #5f4a5a",
"13 c #4a3c51",
"13 c #2c1e1d",
"13 c #53455f",
"13 c #392b33",
"00000000000000000000000000000000000000000000000000000000000000000000000000000000000000000000000000000000000000000000000000000000",
"00000000000000000000000000000000000000000000000000000000000000000000000000000000000000000000000000000000000000000000000000000000",
"00000000000000000000000000000000000000000000000000000000000000000000000000000000000000000000000000000000000000000000000000000000",
"00000000000000000000000000000000000102000000000000000000000000000000000000000000000000000000000000000000000000000000000000000000",
"00000000000000000000000000000000030405060000000000000000000000000000000000000000000000000000000000000000000000000000000000000000",
"00000000000000000000000000000002020705050000000000000000000000000000000000000000000000000000000000000000000000000000000000000000",
"00000000000000000000000000000809050a0b0c0d0e000000000000000000000000000000000000000000000000000000000000000000000000000000000000",
"00000000000000000000000000000f050b100b0b0b11000000000000000000000000000000000000000000000000000000000000000000000000000000000000",
"00000000000000000000000000000f0505120b0b1314000000000000000015161616151500000000000000000000000000000000000000000000000000000000",
"00000000000000000000000000000f1205170b181900000000000000001a1616161616161a1b00000000000000001c1c0000001c000000000000000000000000",
"00000000000000000000000000001d0b0b1e1f000000000000000020161616161616161616160000000000000000212222002122230000000000000000000000",
"000000000000000000000000000024250b2600000000000000002716161616282929292a2b161600000000002c2d2e212f302131322c00000000000000000000",
"0000000000000000000000000000001f0b1d000000000000001616161616333435353535363716380000393a21312222313b21223c3d3e000000000000000000",
"0000000000000000000000000000000b0b0000000000003f401616161641424344454635474816403f003e3e3e3e494a224b4c4d4e4f1f000000000000000000",
"0000000000000000000000000000000b1f000000000000161616161650435134435252525354501655003e3e3e3e3e3e3e3e3e3e561f00000000000000000000",
"0000000000000000000000000000000b570000000000005859165a5b5c435d43525e5f5f60615c6216003e631f1f1f1e1e1e3e3e1f6400000000000000000000",
"000000000000000000000000000052525265000000000066671668695c433443356a434343435c6b6c003e631f1f1f1f1f1f3e1f1f6400000000000000000000",
"000000000000000000000000006d6e6f6f70000000000071727374755c43767778774343797a7b6b6c003e631f1f1f1f1f7c1f1f7d1400000000000000000000",
"00000000000000000000000000527e7f7f350000000000008081828384853434343485854343436b6c003e631f1f1f1f1f1f1f1f860000000000000000000000",
"0000000000000000000000000052525252520000000000551616598216505034343434348743346216003e631f1f1f1f1f1f1f1f000000000000000000000000",
"00000000000000000000000000528889898a0000008b16161616168c8d828e8f909134343434909293000e949595961f1f1f9500000000000000000000000000",
"0000000000000000000000000000971f980000009916161616169a5816169b829c9d505050508282660000000000000000000000000000000000000000000000",
"00000000000000000000000000009e1f989f0000161616161616a058161616509ca1a2a29ca3a4a5a6a700000000000000000000000000000000000000000000",
"00000000000000000000000000001d1fa8980016161616161682a916161616509ca2a2a29ca316676716aa000000000000000000000000000000000000000000",
"0000000000000000000000000000ab1fa8acad1616161616ae82a916161616509ca2a2a2afb0b116b216aa000000000000000000000000000000000000000000",
"00000000000000000000000000000f1fa8a8989882821667828282b316161650a2a2a2a2afb45016161616990000000000000000000000000000000000000000",
"0000000000000000000000000000b5a8a8a8b698b78282b882828282a6a616509ca2a2a2afb9babbbc8282bd0000000000000000bebf00c0c100000000000000",
"00000000000000000000000000000f1fa8a8a898c2c3828282c4828282821650a2a2a2a2afa29c62c582c698980000009898c7c7c8c9cacb0000000000000000",
"00000000000000000000000000000f1fa8a8a8a8a8c382826600828282821650a2a2a2a2afa29ccc82a8a8a89898989898a8c8525252c8000000000000000000",
"00000000000000000000000000000f1f00cda8a8cecf82660000d0d18282d2d3a2a2a2a2afa29ccc6600d4a8a8a8a8a8a8d5d6d6d6d700000000000000000000",
"00000000000000000000000000000f1f0000000000000000000000d85082d9a2a2a2a2a2afa29c50da0000dba8a8a80000000000000000000000000000000000",
"00000000000000000000000000000f1f0000000000000000000000dcdddedfa2a2a2a29ca2a2a2e0000000000000000000000000000000000000000000000000",
"00000000000000000000000000000f1f0000000000000000000000e1a2a2a2a2a2a2a29ca2a2a200000000000000000000000000000000000000000000000000",
"00000000000000000000000000000f1f0000000000000000000000e1a2a2a2a2a2a2a29ca2a2a200000000000000000000000000000000000000000000000000",
"00000000000000000000000000000f1f00000000000000000000641f1f1fa2a2a2a2a29ca2a2a200000000000000000000000000000000000000000000000000",
"0000000000000000000000000000e21f00000000000000000000641f1f1f1f1fe3e3e3e4e5e6e3e7000000000000000000000000000000000000000000000000",
"00000000000000000000000000001d0b00000000000000000000e89c9c9c1f1f1f1f1fe4e9e41fea000000000000000000000000000000000000000000000000",
"00000000000000000000000000001d0b000000000000000000a2a2a2a2a29c1f1f1f1fe41feb1fea000000000000000000000000000000000000000000000000",
"00000000000000000000000000001dec00000000000000edeea2a2a2a2a2a29c9c9ca8eff0f1f2f3f40000000000000000000000000000000000000000000000",
"00000000000000000000000000001d1f00000000000000a2a2a2a2a2a2a2a29c9cf5a8a8f69c9ca2a2a200000000000000000000000000000000000000000000",
"00000000000000000000000000001d1f000000000000a2a2a2a2a2a2a2a2f79c9cf8a8a8f9fa9cfbfca2fd000000000000000000000000000000000000000000",
"0000000000000000000000000000fe1f0000000000fda2a2a2a2a2a2a29c9c9c9ca8a8a8a8ff9c9c9ca2a2100000000000000000000000000000000000000000",
"0000000000000000000000000000101f00000010a2a2a2a2a2a2a2109c9c9c10a8a8a8a8a8109c9c9c9c10a21000000000000000000000000000000000000000",
"00000000000000000000000000001d1f0000a2a2a2a2a2a2a2a2e89c9c9c9ca8a8a8a8a81010a89c9c9c9c10a2a2000000000000000000000000000000000000",
"0000000000000000000000000000101f0010a2a2a2a2a2a2a2109c9c9c9c10a8a8a8a8a81010a810109c9c11a2a2110000000000000000000000000000000000",
"00000000000000000000000000000f1f0010a2a2a2a2a2a2f79c9c9c9c9ca8a800a8a8a8101010a8a89c9c9c9ca2100000000000000000000000000000000000",
"00000000000000000000000000000f0b0000000011a2a2a2f79c9c9c9ca8a8a80011a8a8101010a8a89c9c9c9c9c110000000000000000000000000000000000",
"0000000000000000000000000000110b000000000000a8a810119c9ca8a8a811000011a811101011a8a89c9c9c9c110000000000000000000000000000000000",
"00000000000000000000000000001d1f0000000000001011a8a811f6a8a8a80000000000a8111011a8a8119c9c9c110000000000000000000000000000000000",
"00000000000000000000000000001d1f000000000011101010a8a8a8a8a81100000000001112101010a8a8a81200000000000000000000000000000000000000",
"00000000000000000000000000001d0b000000001210101012a8a8a8a80000000000000012a8101012a8a8120000000000000000000000000000000000000000",
"00000000000000000000000000001d0b000000009f101012a8a8121200000000000000000012123e121212000000000000000000000000000000000000000000",
"0000000000000000000000000000fe0b000000003e3e3e1f1fa81200000000000000000000123e121f1f12000000000000000000000000000000000000000000",
"00000000000000000000000000001d0b000000003e3e131f1f1f000000000000000000001313131f1f1f00000000000000000000000000000000000000000000",
"00000000000000000000000000001d0b000000003e3e1f1f1f1f00000000000000000000133e1f1f1f1f00000000000000000000000000000000000000000000",
"00000000000000000000000000001d0b000000003e3e3e1f1f1f000000000000000000003e3e1f1f1f1f00000000000000000000000000000000000000000000",
"00000000000000000000000000001d1f000000003e3e1f1f1f00000000000000000000003e3e1f1f1f1f00000000000000000000000000000000000000000000",
"00000000000000000000000000000f1f000000003e181f1f1300000000000000000000003e3e1f1f1f0000000000000000000000000000000000000000000000",
"0000000000000000000000000000fe1f000000003e181f1f1300000000000000000000133e181f1f1f0000000000000000000000000000000000000000000000",
"00000000000000000000000000001d1f0000003e561f1f1f13000000000000000000003e3e181f1f1f0000000000000000000000000000000000000000000000",
"00000000000000000000000000001d1f0000133e131f1f1f13000000000000000000003e3e181f1f1f1f13130000000000000000000000000000000000000000",
"00000000000000000000000000001d1f00131f1f1f1f1fea00000000000000000000001f561f1f1f1f1f1f1f1f00000000000000000000000000000000000000",
"00000000000000000000000000001313001313131313131300000000000000000000000013131313131313131300000000000000000000000000000000000000",
"00000000000000000000000000000000000000000000000000000000000000000000000000000000000000000000000000000000000000000000000000000000",
};
