/* XPM */
static char *image[] = {
"64 64 323 2",
"00 c #ffffff",
"01 c #94a8c0",
"02 c #c1fffa",
"03 c #9ab2c7",
"04 c #a1f7fb",
"05 c #33daff",
"06 c #51a0ca",
"07 c #378a96",
"08 c #68597e",
"09 c #98f4fb",
"0a c #36a1b4",
"0b c #3d2310",
"0c c #36a5ba",
"0d c #48312d",
"0e c #706391",
"0f c #543f49",
"10 c #387378",
"11 c #6e608b",
"12 c #6e49cd",
"13 c #3c2a19",
"14 c #331e0f",
"15 c #6c5f8b",
"16 c #716297",
"17 c #796d99",
"18 c #3d2715",
"19 c #1f1106",
"1a c #6f628f",
"1b c #6f52b9",
"1c c #6e4aca",
"1d c #6e4acb",
"1e c #e9e9e9",
"1f c #423544",
"20 c #2f1a0b",
"21 c #1e1006",
"22 c #e8bc61",
"23 c #878383",
"24 c #c7c4c4",
"25 c #b4afc3",
"26 c #65587e",
"27 c #261508",
"28 c #392b34",
"29 c #6f50be",
"2a c #a179a0",
"2b c #b8a58c",
"2c c #9d766b",
"2d c #b4825d",
"2e c #c08f67",
"2f c #754fc8",
"30 c #6f54b6",
"31 c #7a718c",
"32 c #e0dfdf",
"33 c #817b87",
"34 c #d0cfcf",
"35 c #948bab",
"36 c #6e4ec2",
"37 c #ddc69e",
"38 c #d4cecd",
"39 c #9a695b",
"3a c #b3958d",
"3b c #e1cdab",
"3c c #7751c6",
"3d c #b2afaf",
"3e c #6f53b6",
"3f c #ae8594",
"40 c #ddc599",
"41 c #ad877c",
"42 c #bcb4b3",
"43 c #beb7b5",
"44 c #ab7d6f",
"45 c #8d8f77",
"46 c #9c7c6b",
"47 c #a76d4b",
"48 c #705f9e",
"49 c #56434f",
"4a c #80726a",
"4b c #5d4e45",
"4c c #7b6d64",
"4d c #cccbcb",
"4e c #d7d6d6",
"4f c #d9d7d7",
"50 c #bbb8b8",
"51 c #dedddd",
"52 c #8f837b",
"53 c #291709",
"54 c #c29883",
"55 c #712334",
"56 c #bb8f82",
"57 c #b18376",
"58 c #732736",
"59 c #d1a675",
"5a c #361e0d",
"5b c #d6d4d4",
"5c c #9a908b",
"5d c #271609",
"5e c #513797",
"5f c #6743c3",
"60 c #7650c6",
"61 c #965342",
"62 c #b5acaa",
"63 c #ae8579",
"64 c #ba8764",
"65 c #7550c7",
"66 c #311b0b",
"67 c #36282e",
"68 c #9a7c89",
"69 c #695994",
"6a c #472899",
"6b c #7550c6",
"6c c #bab2b1",
"6d c #817573",
"6e c #cfc8c7",
"6f c #873f3c",
"70 c #855eb9",
"71 c #251408",
"72 c #6c5f8a",
"73 c #776891",
"74 c #aa7b6e",
"75 c #9d6c5e",
"76 c #9c6b5d",
"77 c #523797",
"78 c #4a2b9d",
"79 c #492a9c",
"7a c #b99088",
"7b c #7b3038",
"7c c #d0cac9",
"7d c #b9b0af",
"7e c #a79d9b",
"7f c #1f1006",
"80 c #341d0c",
"81 c #a97a6d",
"82 c #9b6a5c",
"83 c #705f9d",
"84 c #6b46c9",
"85 c #48289a",
"86 c #714cca",
"87 c #e6bb62",
"88 c #b6adab",
"89 c #a89e9c",
"8a c #cfa474",
"8b c #6e49cc",
"8c c #372a31",
"8d c #5332a9",
"8e c #5d3bb6",
"8f c #4e2ea3",
"90 c #b68a7d",
"91 c #b38679",
"92 c #967784",
"93 c #705da1",
"94 c #6c47ca",
"95 c #5e3cb8",
"96 c #6441c0",
"97 c #5433aa",
"98 c #5030a5",
"99 c #8c456e",
"9a c #ad766f",
"9b c #d8b46f",
"9c c #6e4c8b",
"9d c #60506c",
"9e c #5d5071",
"9f c #3c2a3d",
"a0 c #3b3377",
"a1 c #6b47ca",
"a2 c #623fbd",
"a3 c #6f1f73",
"a4 c #812986",
"a5 c #99369e",
"a6 c #e0b262",
"a7 c #211628",
"a8 c #61558b",
"a9 c #5937b1",
"aa c #48299b",
"ab c #6844c6",
"ac c #5836b0",
"ad c #6f56b0",
"ae c #251e53",
"af c #7c2680",
"b0 c #e3b365",
"b1 c #6e4bc9",
"b2 c #483845",
"b3 c #2e2763",
"b4 c #60548a",
"b5 c #6542c1",
"b6 c #4c2ca0",
"b7 c #6a46c8",
"b8 c #7c2681",
"b9 c #712075",
"ba c #716199",
"bb c #712076",
"bc c #645195",
"bd c #b7897c",
"be c #7b668a",
"bf c #523e49",
"c0 c #393173",
"c1 c #3e3080",
"c2 c #732177",
"c3 c #432890",
"c4 c #6b5f90",
"c5 c #786891",
"c6 c #856980",
"c7 c #ba8d80",
"c8 c #76658e",
"c9 c #b6897d",
"ca c #7a668b",
"cb c #271f56",
"cc c #716393",
"cd c #caa06b",
"ce c #a57162",
"cf c #b28a90",
"d0 c #746590",
"d1 c #695d8c",
"d2 c #5c5181",
"d3 c #675694",
"d4 c #aa8979",
"d5 c #c39a6e",
"d6 c #a76c73",
"d7 c #e1b663",
"d8 c #806e8c",
"d9 c #706392",
"da c #372f62",
"db c #605484",
"dc c #675b8b",
"dd c #6f347d",
"de c #a4636b",
"df c #6f2c79",
"e0 c #8c449a",
"e1 c #862c8b",
"e2 c #913195",
"e3 c #7f5397",
"e4 c #6f6290",
"e5 c #673369",
"e6 c #70296b",
"e7 c #5e5e5e",
"e8 c #523e48",
"e9 c #715a8c",
"ea c #271213",
"eb c #201309",
"ec c #5a5a59",
"ed c #2d2020",
"ee c #5a5958",
"ef c #913f9c",
"f0 c #77237b",
"f1 c #785b95",
"f2 c #241408",
"f3 c #923e9c",
"f4 c #551f68",
"f5 c #3c1e5d",
"f6 c #78247c",
"f7 c #90409c",
"f8 c #4e1f65",
"f9 c #96399d",
"fa c #864b99",
"fb c #812985",
"fc c #6a1f71",
"fd c #7e2782",
"fe c #98379e",
"ff c #785c95",
"10 c #423543",
"10 c #4e3c47",
"10 c #7f5497",
"10 c #98359d",
"10 c #77247c",
"10 c #2e2661",
"10 c #251e54",
"10 c #943399",
"10 c #825098",
"10 c #451e61",
"10 c #3f367a",
"10 c #331e59",
"10 c #8c2f91",
"10 c #453644",
"10 c #2f275b",
"10 c #282158",
"11 c #591e6a",
"11 c #933398",
"11 c #7d5696",
"11 c #504577",
"11 c #704685",
"11 c #611f6d",
"11 c #2d255f",
"11 c #463745",
"11 c #3a3172",
"11 c #362e6c",
"11 c #371e5b",
"11 c #461e61",
"11 c #625686",
"11 c #271f55",
"11 c #3e3578",
"11 c #3a3173",
"12 c #42397b",
"12 c #3d3477",
"12 c #685b8e",
"12 c #40377a",
"12 c #332a67",
"12 c #514778",
"12 c #594e7f",
"12 c #443a6d",
"12 c #61568b",
"12 c #2a2257",
"12 c #221207",
"12 c #60537f",
"12 c #3c2d52",
"12 c #37294d",
"12 c #221937",
"12 c #211207",
"13 c #23150f",
"13 c #3a2215",
"13 c #321c0c",
"13 c #6e618d",
"13 c #392214",
"13 c #5e4e69",
"13 c #615478",
"13 c #615479",
"13 c #4d3a42",
"13 c #2e1a0b",
"13 c #5a495f",
"13 c #281609",
"13 c #51445d",
"13 c #675a82",
"13 c #5f4a5a",
"13 c #4a3c51",
"14 c #2c1e1d",
"14 c #53455f",
"14 c #392b33",
"00000000000000000000000000000000000000000000000000000000000000000000000000000000000000000000000000000000000000000000000000000000",
"00000000000000000000000000000000000000000000000000000000000000000000000000000000000000000000000000000000000000000000000000000000",
"00000000000000000000000000000000000000000000000000000000000000000000000000000000000000000000000000000000000000000000000000000000",
"00000000000000000000000000000000000102000000000000000000000000000000000000000000000000000000000000000000000000000000000000000000",
"00000000000000000000000000000000030405060000000000000000000000000000000000000000000000000000000000000000000000000000000000000000",
"00000000000000000000000000000002020705050000000000000000000000000000000000000000000000000000000000000000000000000000000000000000",
"00000000000000000000000000000809050a0b0c0d0e000000000000000000000000000000000000000000000000000000000000000000000000000000000000",
"00000000000000000000000000000f050b100b0b0b11000000000000000000121212000000000000000000000000000000000000000000000000000000000000",
"00000000000000000000000000000f0505130b0b1415000000000000001612121212121216000000000000000000000017000000000000000000000000000000",
"00000000000000000000000000000f1305180b191a0000000000001b1c12121212121212121d000000000000000000001e000000000000000000000000000000",
"00000000000000000000000000001f0b0b2021000000000000001612121212122222221212121200000000000000002324250000000000000000000000000000",
"000000000000000000000000000026270b280000000000000029121212122a2b2c2c2c2d2e2f1230000000000000312332250033343500000000000000000000",
"000000000000000000000000000000210b1f0000000000003612121212123738393a38393b3c1236000000001e243d23232500231e1e00000000000000000000",
"0000000000000000000000000000000b0b0000000000003e121212123f4041424344454446473f124800494a4b4c4d4e4f50234e515253000000000000000000",
"0000000000000000000000000000000b21000000000000121212125455383938565656565758555912005a5a5a5a5a5a1e5b24235c1921000000000000000000",
"0000000000000000000000000000000b5d0000000000005e5f12606155386238576338383838556465005a662020205a5a5a5a5a536700000000000000000000",
"0000000000000000000000000000565656680000000000696a126b6155386c386d3838386d6e556f70005a712121212121215a5a217200000000000000000000",
"0000000000000000000000000073747575760000000000007778797a7b7c7d7e7e7e7c7c3838386f70005a7121212121217f8021217200000000000000000000",
"0000000000000000000000000056818282390000000000831d1284858687877e7e7e7e7e8838898a8b005a7121212121212121218c0000000000000000000000",
"0000000000000000000000000056565656560000000012121212128d6a6a8e227e7e7e7e7e7e7e598f005a712121212121212121000000000000000000000000",
"0000000000000000000000000056909191920000938b12121212949512969798999a9b9b9b9b9c6a69009d71212121212121219e000000000000000000000000",
"00000000000000000000000000009f21a0000000121212121212a1a212121222a3a4a5a5a3a66a8f1200000000001f2121210000000000000000000000000000",
"0000000000000000000000000000a721a0a800001212121212a9aaab12121222a3a5a5a5a3a612ac5f12ad000000000000000000000000000000000000000000",
"00000000000000000000000000001f21aea0001212121212126a791212121222a3a5a5a5afb012128f12b1000000000000000000000000000000000000000000",
"0000000000000000000000000000b221aeb3b412b5121294b66aaab712121222b8a5a5a5afb9221212121cba0000000000000000000000000000000000000000",
"00000000000000000000000000000f21aeaea0a06a6a125f6a6a6a6a12121222a3a5a5a5afbb2212126a6abc0000000000000000000000bdbe00000000000000",
"0000000000000000000000000000bf21aeaeaec0c16a6a6a6a6a6a6a6a6a1222c2a5a5a5afa5a3598f6ac3a0c4000000c4c4c5c5c6c7c8c9ca00000000000000",
"00000000000000000000000000000f21aeaeaeaea0cb6a6a6acc6a6a6a6a1222a5a5a5a5afa5a3cd6aaeaeaea0a0a0a0a0aece565656ce000000000000000000",
"00000000000000000000000000000f2100aeaeaeaeae6a6a69006a6a6a6acfa3a5a5a5a5afa5a3cd6900aeaeaeaeaeaeaeaecececed000000000000000000000",
"00000000000000000000000000000f2100d1aeaeaed2d369000000d4d56ad6a5a5a5a5a5afa5a3d7d800d9daaeaeaedbdbdc0000000000000000000000000000",
"00000000000000000000000000000f210000000000000000000000dda322dea5a5a5a5a3a5a5a5df000000000000000000000000000000000000000000000000",
"00000000000000000000000000000f210000000000000000000000e0a5e1e2a5a5a5a5a3a5a5a5e3000000000000000000000000000000000000000000000000",
"00000000000000000000000000000f210000000000000000000000e0a5a5a5a5a5a5a5a3a5a5a500000000000000000000000000000000000000000000000000",
"00000000000000000000000000000f2100000000000000000000e4e5e6e6a5a5a5a5a5a3a5a5a500000000000000000000000000000000000000000000000000",
"00000000000000000000000000000f2100000000000000000000722121212121a5a5a5e7e7e7a500000000000000000000000000000000000000000000000000",
"0000000000000000000000000000e82100000000000000000000e9eaeaea2121212121e7ebec21ed000000000000000000000000000000000000000000000000",
"00000000000000000000000000001f0b000000000000000000a5a5a5a5a5a321212121e721ee21ed000000000000000000000000000000000000000000000000",
"00000000000000000000000000001f0b0000000000000000efa5a5a5a5a5a5a3a3a3aee7e7e7a3f0f10000000000000000000000000000000000000000000000",
"00000000000000000000000000001ff200000000000000f3a5a5a5a5a5a5a5a3a3f4aeaef5a3f6a5a5f700000000000000000000000000000000000000000000",
"00000000000000000000000000001f21000000000000a5a5a5a5a5a5a5a5a4a3a3f8aeaef5a3a3f0a5a5f9000000000000000000000000000000000000000000",
"00000000000000000000000000001f210000000000faa5a5a5a5a5a5a5fba3a3a3aeaeaeaefca3a3fda5feff0000000000000000000000000000000000000000",
"0000000000000000000000000000102100000000a5a5a5a5a5a5a5a5a3a3a3a3aeaeaeaeaefca3a3a3a3a5a50000000000000000000000000000000000000000",
"00000000000000000000000000001021000010a5a5a5a5a5a5a51010a3a3a3aeaeaeaeae1010f4a3a3a3b910a510000000000000000000000000000000000000",
"00000000000000000000000000001f210010a5a5a5a5a5a5a5a5a3a3a3a310aeaeaeaeae1010ae10a3a3a310a5a5000000000000000000000000000000000000",
"000000000000000000000000000010210010a5a5a5a5a5a510a3a3a3a3a3aeae10aeaeae101010ae11a3a3a311a5100000000000000000000000000000000000",
"00000000000000000000000000000f210000000011a5a5a5f0a3a3a3a3aeaeae0011aeae101010aeaea3a3a3a3a3110000000000000000000000000000000000",
"00000000000000000000000000000f0b000000000000aeae11a3a3a3aeaeaeae0000aeae111010aeaeaea3a3a3a3110000000000000000000000000000000000",
"0000000000000000000000000000110b0000000000001111aeae1111aeaeae000000001111111011aeae11a3a3a3110000000000000000000000000000000000",
"00000000000000000000000000001f21000000000012101010aeaeaeaeae110000000000ae12101010aeaeaea300000000000000000000000000000000000000",
"00000000000000000000000000001f21000000001212101012aeaeaeae1200000000000012ae101012aeae120000000000000000000000000000000000000000",
"00000000000000000000000000001f0b0000000012101011aeaeaeae00000000000000000012ae5a12ae12000000000000000000000000000000000000000000",
"00000000000000000000000000001f0b000000001212121212ae1200000000000000000000125a80122113000000000000000000000000000000000000000000",
"0000000000000000000000000000100b000000005a5a5a2121ae1200000000000000000000135a21212113000000000000000000000000000000000000000000",
"00000000000000000000000000001f0b000000005a5a132121210000000000000000000013131321212100000000000000000000000000000000000000000000",
"00000000000000000000000000001f0b000000005a5a2121212100000000000000000000135a2121212100000000000000000000000000000000000000000000",
"00000000000000000000000000001f0b000000005a5a5a212121000000000000000000005a5a2121212100000000000000000000000000000000000000000000",
"00000000000000000000000000001f21000000005a5a21212100000000000000000000005a5a2121212100000000000000000000000000000000000000000000",
"00000000000000000000000000000f21000000005a1921211300000000000000000000005a5a2121210000000000000000000000000000000000000000000000",
"00000000000000000000000000001021000000005a1921211300000000000000000000135a192121210000000000000000000000000000000000000000000000",
"00000000000000000000000000001f210000005a1321212113000000000000000000005a5a192121210000000000000000000000000000000000000000000000",
"00000000000000000000000000001f210000135a1321212113000000000000000000005a5a192121212113130000000000000000000000000000000000000000",
"00000000000000000000000000001f2100132121212121ed00000000000000000000002113212121212121212100000000000000000000000000000000000000",
"00000000000000000000000000001314001414141414141400000000000000000000000014141414141414141400000000000000000000000000000000000000",
"00000000000000000000000000000000000000000000000000000000000000000000000000000000000000000000000000000000000000000000000000000000",
};
