/* XPM */
static char *image[] = {
"64 64 336 2",
"00 c #ffffff",
"01 c #94a8c0",
"02 c #c1fffa",
"03 c #9ab2c7",
"04 c #a1f7fb",
"05 c #33daff",
"06 c #51a0ca",
"07 c #378a96",
"08 c #68597e",
"09 c #98f4fb",
"0a c #36a1b4",
"0b c #3d2310",
"0c c #36a5ba",
"0d c #48312d",
"0e c #706391",
"0f c #705ca4",
"10 c #543f49",
"11 c #387378",
"12 c #6e608b",
"13 c #6e49cd",
"14 c #3c2a19",
"15 c #331e0f",
"16 c #6c5f8b",
"17 c #716296",
"18 c #716297",
"19 c #70609a",
"1a c #3d2715",
"1b c #1f1106",
"1c c #6f628f",
"1d c #6e49cc",
"1e c #e3b765",
"1f c #6e4aca",
"20 c #423544",
"21 c #2f1a0b",
"22 c #1e1006",
"23 c #e8bc61",
"24 c #a79d9b",
"25 c #ffcc62",
"26 c #d2a383",
"27 c #65587e",
"28 c #261508",
"29 c #392b34",
"2a c #6f54b6",
"2b c #d2b69a",
"2c c #c8c1c0",
"2d c #9a695b",
"2e c #ad8a80",
"2f c #c5b4af",
"30 c #d7bb97",
"31 c #7751c6",
"32 c #6f4ec2",
"33 c #a09d9d",
"34 c #e9e9e9",
"35 c #cac7d3",
"36 c #817b87",
"37 c #aea8bf",
"38 c #705f9e",
"39 c #b2958d",
"3a c #d4cecd",
"3b c #5b906a",
"3c c #867560",
"3d c #dfb961",
"3e c #878383",
"3f c #b4afc3",
"40 c #c7c4c4",
"41 c #c3bfce",
"42 c #9a72a6",
"43 c #aa6c49",
"44 c #a17163",
"45 c #beb7b5",
"46 c #c7ada6",
"47 c #bb8f82",
"48 c #b08376",
"49 c #732736",
"4a c #a27a9f",
"4b c #6f53b6",
"4c c #756896",
"4d c #a39cb3",
"4e c #b6b4b4",
"4f c #cfcdcd",
"50 c #bab8b8",
"51 c #a8a5a5",
"52 c #cac9c9",
"53 c #d9d7d7",
"54 c #e3e3e3",
"55 c #e8e8e8",
"56 c #523f4d",
"57 c #472899",
"58 c #6743c3",
"59 c #7550c6",
"5a c #965342",
"5b c #712334",
"5c c #bbb2b1",
"5d c #ac7e71",
"5e c #d1a675",
"5f c #361e0d",
"60 c #b2afaf",
"61 c #a39f9f",
"62 c #dedddd",
"63 c #3f2818",
"64 c #271609",
"65 c #695994",
"66 c #5d3ab6",
"67 c #7650c6",
"68 c #ada3a2",
"69 c #926d62",
"6a c #bda6a0",
"6b c #bbb3b2",
"6c c #d2cccb",
"6d c #87403c",
"6e c #855fb9",
"6f c #b2aba6",
"70 c #a59d97",
"71 c #9b918c",
"72 c #6e645f",
"73 c #796c64",
"74 c #1f1006",
"75 c #372931",
"76 c #9a7c89",
"77 c #4f3398",
"78 c #492a9c",
"79 c #c29883",
"7a c #bab2b1",
"7b c #873f3c",
"7c c #855eb9",
"7d c #251408",
"7e c #6c5f8a",
"7f c #776891",
"80 c #aa7b6e",
"81 c #9d6c5e",
"82 c #9c6b5d",
"83 c #716394",
"84 c #716298",
"85 c #4a2b9d",
"86 c #5f3dba",
"87 c #ddb26a",
"88 c #aca096",
"89 c #d1cbca",
"8a c #d0cac9",
"8b c #8d4841",
"8c c #835dba",
"8d c #341d0c",
"8e c #a97a6d",
"8f c #9b6a5c",
"90 c #6e4acb",
"91 c #6b46c9",
"92 c #48299a",
"93 c #4b2b98",
"94 c #603db4",
"95 c #e6bb62",
"96 c #a89e9c",
"97 c #4f2fa4",
"98 c #281609",
"99 c #705ba5",
"9a c #ccae7a",
"9b c #382a32",
"9c c #b68a7d",
"9d c #b38679",
"9e c #967784",
"9f c #6e4dc3",
"a0 c #6c47ca",
"a1 c #623fbd",
"a2 c #6944c6",
"a3 c #c1986f",
"a4 c #6f1f73",
"a5 c #8a377f",
"a6 c #ac568f",
"a7 c #8c456e",
"a8 c #e2b562",
"a9 c #4c2da0",
"aa c #6d4dbf",
"ab c #3c2a3d",
"ac c #3b3377",
"ad c #6b47ca",
"ae c #99369e",
"af c #e0b262",
"b0 c #6d608a",
"b1 c #211628",
"b2 c #61558b",
"b3 c #6f55b2",
"b4 c #5937b1",
"b5 c #76237a",
"b6 c #e2b363",
"b7 c #6b46c8",
"b8 c #5938b1",
"b9 c #6e4bc9",
"ba c #5b4e6e",
"bb c #4b3d52",
"bc c #251e53",
"bd c #7c2680",
"be c #722076",
"bf c #483845",
"c0 c #2e2763",
"c1 c #5e42b1",
"c2 c #6542c1",
"c3 c #4c2ca0",
"c4 c #8b2e90",
"c5 c #712075",
"c6 c #613ebc",
"c7 c #6c58a0",
"c8 c #87708b",
"c9 c #746590",
"ca c #3f3082",
"cb c #4e2ea3",
"cc c #462997",
"cd c #816884",
"ce c #b98d80",
"cf c #b7897c",
"d0 c #7b668a",
"d1 c #523e49",
"d2 c #393173",
"d3 c #432890",
"d4 c #4b2e98",
"d5 c #d0a674",
"d6 c #4d2da2",
"d7 c #442792",
"d8 c #261f55",
"d9 c #6b5f90",
"da c #b98c7f",
"db c #a77465",
"dc c #ba8d80",
"dd c #a57162",
"de c #a78386",
"df c #706392",
"e0 c #695894",
"e1 c #b28991",
"e2 c #702073",
"e3 c #caa06b",
"e4 c #756590",
"e5 c #543b97",
"e6 c #b28a90",
"e7 c #6c5f8f",
"e8 c #463d6f",
"e9 c #605484",
"ea c #675693",
"eb c #675694",
"ec c #824d7a",
"ed c #8a426f",
"ee c #c39a6e",
"ef c #a4646b",
"f0 c #78247d",
"f1 c #923297",
"f2 c #8f3194",
"f3 c #8b4c73",
"f4 c #766891",
"f5 c #655989",
"f6 c #8c449a",
"f7 c #862c8b",
"f8 c #913f9c",
"f9 c #70296b",
"fa c #69346c",
"fb c #854388",
"fc c #5e5e5e",
"fd c #5a5958",
"fe c #2d2020",
"ff c #523e48",
"10 c #755b93",
"10 c #742278",
"10 c #271213",
"10 c #30251e",
"10 c #5d5d5d",
"10 c #6f2c79",
"10 c #3c1e5d",
"10 c #241408",
"10 c #923e9c",
"10 c #4f1e65",
"10 c #7e2782",
"10 c #90409c",
"10 c #6a1f71",
"10 c #77237b",
"10 c #96399d",
"10 c #864b99",
"11 c #812985",
"11 c #451e61",
"11 c #98379e",
"11 c #785c95",
"11 c #423543",
"11 c #7d5596",
"11 c #4e3c47",
"11 c #7f5497",
"11 c #98359d",
"11 c #77247c",
"11 c #551f68",
"11 c #3f367a",
"11 c #3a3172",
"11 c #251e54",
"11 c #96349b",
"11 c #271f55",
"12 c #453644",
"12 c #933398",
"12 c #411e5f",
"12 c #651f6f",
"12 c #6d1f72",
"12 c #882d8d",
"12 c #504577",
"12 c #611f6d",
"12 c #463745",
"12 c #292259",
"12 c #261e53",
"12 c #331e59",
"12 c #625686",
"12 c #2d255f",
"12 c #362e6c",
"12 c #3d3477",
"13 c #291e55",
"13 c #554b85",
"13 c #635787",
"13 c #3d3478",
"13 c #2a2257",
"13 c #42397b",
"13 c #594e7f",
"13 c #3a3173",
"13 c #3f3056",
"13 c #3c2d52",
"13 c #292153",
"13 c #382f63",
"13 c #2b1e3b",
"13 c #311b0c",
"13 c #5e4e69",
"13 c #351e11",
"14 c #5f4e69",
"14 c #2e1a0b",
"14 c #251d49",
"14 c #5d5182",
"14 c #23150f",
"14 c #62557a",
"14 c #615479",
"14 c #615478",
"14 c #5a495f",
"14 c #51445d",
"14 c #675a82",
"14 c #5f4a5a",
"14 c #4a3c51",
"14 c #2c1e1d",
"14 c #53455f",
"14 c #392b33",
"00000000000000000000000000000000000000000000000000000000000000000000000000000000000000000000000000000000000000000000000000000000",
"00000000000000000000000000000000000000000000000000000000000000000000000000000000000000000000000000000000000000000000000000000000",
"00000000000000000000000000000000000000000000000000000000000000000000000000000000000000000000000000000000000000000000000000000000",
"00000000000000000000000000000000000102000000000000000000000000000000000000000000000000000000000000000000000000000000000000000000",
"00000000000000000000000000000000030405060000000000000000000000000000000000000000000000000000000000000000000000000000000000000000",
"00000000000000000000000000000002020705050000000000000000000000000000000000000000000000000000000000000000000000000000000000000000",
"00000000000000000000000000000809050a0b0c0d0e0000000000000000000f0f0f000000000000000000000000000000000000000000000000000000000000",
"000000000000000000000000000010050b110b0b0b12000000000000000013131313131300000000000000000000000000000000000000000000000000000000",
"0000000000000000000000000000100505140b0b1516000000000017181313131313131313190000000000000000000000000000000000000000000000000000",
"00000000000000000000000000001014051a0b1b1c0000000000171d131313131e1e1e1313131f00000000000000000000000000000000000000000000000000",
"0000000000000000000000000000200b0b2122000000000000001313131313232424242526131300000000000000000000000000000000000000000000000000",
"000000000000000000000000000027280b290000000000002a13131313132b2c2d2e2f2d30311332000000000000333435003634370000000000000000000000",
"000000000000000000000000000000220b20000000000038131313131323393a242d3b2d3c3d131338000000003e3e3e343f3e40410000000000000000000000",
"0000000000000000000000000000000b0b0000000000001313131342433a4445464747474849434a4b004c4d4e404f5051523e53545556000000000000000000",
"0000000000000000000000000000000b22000000000000575813595a5b3a5c3a475d3a3a3a3a5b5e13005f5f5f5f604034613e40626322000000000000000000",
"0000000000000000000000000000000b64000000000000656613675a5b3a683a696a3a3a6b6c5b6d6e005f5f5f5f5f5f6f707172737475000000000000000000",
"000000000000000000000000000047474776000000000000775778795b3a7a2424243a3a3a3a3a7b7c005f7d2222225f5f5f5f5f227e00000000000000000000",
"000000000000000000000000007f80818182000000000083848557868788882424242424893a8a8b8c005f7d2222222222225f8d227e00000000000000000000",
"00000000000000000000000000478e8f8f2d00000000901d1313915792939495242424242496245e97005f7d2222222222987422227e00000000000000000000",
"0000000000000000000000000047474747470000991313131313131313575713239a24242424235765005f7d22222222222222229b0000000000000000000000",
"00000000000000000000000000479c9d9d9e00009f1313131313a0a11313a2a3a4a5a6a6a7a857a9aa005f7d2222222222222222000000000000000000000000",
"0000000000000000000000000000ab22ac000000131313131313ada113131323a4aeaeaea4af13575813b07d2222222222222200000000000000000000000000",
"0000000000000000000000000000b122acb200b31313131313b4781313131323a4aeaeaeb5b613b7b813b9000000babbbbbb0000000000000000000000000000",
"00000000000000000000000000002022bcac0013131313131357781313131323a4aeaeaebdbe23131313b9000000000000000000000000000000000000000000",
"0000000000000000000000000000bf22bcc0acc1c21313a0c35757b413131323c4aeaeaebdc5231313c6c6c70000000000000000000000c8c900000000000000",
"00000000000000000000000000001022bcbcacacca5713585757575757571323a4aeaeaebdaea45ecb57ccac0000000000000000cdce00cfd000000000000000",
"0000000000000000000000000000d122bcbcbcd2acd3575757d4575757571323aeaeaeaebdaea4d5d6d7d8d2acd9d9d9acd2da47dbdcddde0000000000000000",
"00000000000000000000000000001022dfbcbcbcbcbc5757e00057575757e1e2aeaeaeaebdaea4e3e0dfbcbcbcbcbcbcbcbcdddddde400000000000000000000",
"0000000000000000000000000000102200bcbcbcbcbc5777000000e55757e6aeaeaeaeaebdaea4e36500e7bcbcbcbcbcbce80000000000000000000000000000",
"000000000000000000000000000010220000e9e9e9eaeb00000000ecedeeefaeaeaeaef0f1aef2f3f40000f5e9e9e90000000000000000000000000000000000",
"000000000000000000000000000010220000000000000000000000f6aea4f7aeaeaeaea4aeaeaef8000000000000000000000000000000000000000000000000",
"000000000000000000000000000010220000000000000000000000f6aeaeaeaeaeaeaea4aeaeae00000000000000000000000000000000000000000000000000",
"000000000000000000000000000010220000000000000000000000f6aeaeaeaeaeaeaea4aeaeae00000000000000000000000000000000000000000000000000",
"00000000000000000000000000001022000000000000000000007e222222f9f9aeaeaefafbfbae00000000000000000000000000000000000000000000000000",
"00000000000000000000000000001022000000000000000000007e2222222222222222fc22fd22fe000000000000000000000000000000000000000000000000",
"0000000000000000000000000000ff2200000000000000000000101010101022222222fc101022fe000000000000000000000000000000000000000000000000",
"0000000000000000000000000000200b000000000000000000aeaeaeaeaeaea4a4a4bcfcfcfca410000000000000000000000000000000000000000000000000",
"0000000000000000000000000000200b0000000000000000f8aeaeaeaeaeaea4a4a4bcbc10a4aeaeae0000000000000000000000000000000000000000000000",
"000000000000000000000000000020100000000000000010aeaeaeaeaeaef7a4a410bcbc10a4a410ae1000000000000000000000000000000000000000000000",
"00000000000000000000000000002022000000000000aeaeaeaeaeaeaeaea4a4a4bcbcbcbc10a410aeae10000000000000000000000000000000000000000000",
"00000000000000000000000000002022000000000010aeaeaeaeaeae11a4a4a411bcbcbcbc10a4a410ae11110000000000000000000000000000000000000000",
"000000000000000000000000000011220000000011aeaeaeaeaeaeaea4a4a4a4bcbcbcbcbcbca4a4a4aeaeae0000000000000000000000000000000000000000",
"0000000000000000000000000000112200000011aeaeaeaeaeae1111a4a4a411bcbcbc11111111a4a4a4c4ae1100000000000000000000000000000000000000",
"000000000000000000000000000020220000aeaeaeaeaeaeaeae11a4a4a411bcbcbcbc111111bca4a4a4beaeae00000000000000000000000000000000000000",
"000000000000000000000000000012220000aeaeaeaeaeaeae12a4a4a4a412bcbcbcbc111111bc1212a4a412aeae000000000000000000000000000000000000",
"00000000000000000000000000001022000000000010aeaeaea4a4a4a4bcbcbcbc12bcbc1111bcbc12a4a4a4a4a4000000000000000000000000000000000000",
"0000000000000000000000000000100b00000000000000bcbca4a4a4a4bcbcbc0000bcbc111111bcbca4a4a4a4a4000000000000000000000000000000000000",
"0000000000000000000000000000120b000000000000001112bc1212bcbcbc12000000bc12111112bca4a4a4a4a4000000000000000000000000000000000000",
"0000000000000000000000000000202200000000000011111111bcbcbcbcbc0000000000bc121111bcbc13a40000000000000000000000000000000000000000",
"0000000000000000000000000000202200000000001311111111bcbcbcbc130000000000bc131111bcbc13000000000000000000000000000000000000000000",
"0000000000000000000000000000200b000000000013111111bcbcbcbc0000000000000013121113bcbc00000000000000000000000000000000000000000000",
"0000000000000000000000000000200b000000000013131313bcbc13000000000000000013135f13222200000000000000000000000000000000000000000000",
"0000000000000000000000000000110b00000000135f5f132222bc13000000000000000013135f22222200000000000000000000000000000000000000000000",
"0000000000000000000000000000200b00000000145f5f14222214140000000000000000145f2222220000000000000000000000000000000000000000000000",
"0000000000000000000000000000200b00000000135f5f22222214000000000000000000135f2222220000000000000000000000000000000000000000000000",
"0000000000000000000000000000200b000000005f5f5f22222200000000000000000000135f2222220000000000000000000000000000000000000000000000",
"00000000000000000000000000002022000000005f5f22222214000000000000000000005f5f2222220000000000000000000000000000000000000000000000",
"00000000000000000000000000001022000000005f1b22222200000000000000000000005f5f2222220000000000000000000000000000000000000000000000",
"00000000000000000000000000001122000000005f1b22221400000000000000000000005f982222220000000000000000000000000000000000000000000000",
"000000000000000000000000000020220000005f1422222214000000000000000000005f5f1b2222220000000000000000000000000000000000000000000000",
"000000000000000000000000000020220000145f9822222214000000000000000000005f5f1b2222222214140000000000000000000000000000000000000000",
"0000000000000000000000000000202200142222222222fe00000000000000000000002214222222222222222200000000000000000000000000000000000000",
"00000000000000000000000000001414001414141414141400000000000000000000000014141414141414141400000000000000000000000000000000000000",
"00000000000000000000000000000000000000000000000000000000000000000000000000000000000000000000000000000000000000000000000000000000",
};
