/* XPM */
static char *image[] = {
"64 64 324 2",
"00 c #ffffff",
"01 c #94a8c0",
"02 c #c1fffa",
"03 c #9ab2c7",
"04 c #a1f7fb",
"05 c #33daff",
"06 c #51a0ca",
"07 c #378a96",
"08 c #68597e",
"09 c #98f4fb",
"0a c #36a1b4",
"0b c #3d2310",
"0c c #36a5ba",
"0d c #48312d",
"0e c #706391",
"0f c #543f49",
"10 c #387378",
"11 c #6e608b",
"12 c #3c2a19",
"13 c #331e0f",
"14 c #6c5f8b",
"15 c #716297",
"16 c #6e49cd",
"17 c #796d99",
"18 c #3d2715",
"19 c #1f1106",
"1a c #6f628f",
"1b c #6e4aca",
"1c c #716296",
"1d c #7f7888",
"1e c #e4e4e5",
"1f c #c3c0c2",
"20 c #cbcaca",
"21 c #726692",
"22 c #423544",
"23 c #2f1a0b",
"24 c #1e1006",
"25 c #6f51bb",
"26 c #e8bc61",
"27 c #807988",
"28 c #e9e9e9",
"29 c #c7c4c4",
"2a c #878383",
"2b c #65587e",
"2c c #261508",
"2d c #392b34",
"2e c #6f4fbf",
"2f c #a179a0",
"30 c #b8a58c",
"31 c #c8c1c0",
"32 c #b6adab",
"33 c #a79d9b",
"34 c #bda98c",
"35 c #c6a988",
"36 c #754fc8",
"37 c #a09d9d",
"38 c #d7d6dc",
"39 c #7c748b",
"3a c #c3aa82",
"3b c #9a695b",
"3c c #b9885d",
"3d c #7751c6",
"3e c #6e4ec2",
"3f c #786c98",
"40 c #d1cfcf",
"41 c #d6d4d4",
"42 c #dedddd",
"43 c #e7e6e6",
"44 c #361e0d",
"45 c #716199",
"46 c #6e4bc8",
"47 c #ae8594",
"48 c #ddc599",
"49 c #b1968e",
"4a c #d4cecd",
"4b c #a1847c",
"4c c #a67e73",
"4d c #95ad99",
"4e c #9d908b",
"4f c #a58d7b",
"50 c #71635a",
"51 c #7b6d64",
"52 c #bdbbbb",
"53 c #a8a5a5",
"54 c #a5a2a2",
"55 c #bab5b2",
"56 c #2e1c0f",
"57 c #c29883",
"58 c #712334",
"59 c #a87a6c",
"5a c #bb8f82",
"5b c #b18376",
"5c c #732736",
"5d c #d1a675",
"5e c #705f9e",
"5f c #2e1a0b",
"60 c #271609",
"61 c #623fbd",
"62 c #6c47ca",
"63 c #7650c6",
"64 c #965342",
"65 c #b5acaa",
"66 c #a47f75",
"67 c #b78a7d",
"68 c #c3a299",
"69 c #bb9a90",
"6a c #915a64",
"6b c #ba977b",
"6c c #7550c7",
"6d c #251408",
"6e c #6c5f8a",
"6f c #9a7c89",
"70 c #695994",
"71 c #6743c3",
"72 c #7550c6",
"73 c #b3958d",
"74 c #873f3c",
"75 c #855eb9",
"76 c #776891",
"77 c #aa7b6e",
"78 c #9d6c5e",
"79 c #9c6b5d",
"7a c #6a5a94",
"7b c #482999",
"7c c #6b46c8",
"7d c #724dc2",
"7e c #9a5947",
"7f c #bbb2b1",
"80 c #d0cac9",
"81 c #847876",
"82 c #887c7b",
"83 c #cfc9c8",
"84 c #793141",
"85 c #281509",
"86 c #20120a",
"87 c #a97a6d",
"88 c #9b6a5c",
"89 c #706393",
"8a c #6d48cc",
"8b c #472899",
"8c c #6441bb",
"8d c #e5b860",
"8e c #a89e9c",
"8f c #706291",
"90 c #b68a7d",
"91 c #b38679",
"92 c #967784",
"93 c #6f51bc",
"94 c #5332a9",
"95 c #6441c0",
"96 c #4c2ca0",
"97 c #8b65b3",
"98 c #d8b46f",
"99 c #684790",
"9a c #624e98",
"9b c #5f5171",
"9c c #5d5071",
"9d c #3a2c35",
"9e c #3c2a3d",
"9f c #3b3377",
"a0 c #705ba5",
"a1 c #6b47ca",
"a2 c #5836b0",
"a3 c #6f1f73",
"a4 c #a4646b",
"a5 c #332637",
"a6 c #61558b",
"a7 c #5836af",
"a8 c #8e3093",
"a9 c #99369e",
"aa c #e0b262",
"ab c #5c3ab5",
"ac c #4a2b9d",
"ad c #6a46c8",
"ae c #6f55b2",
"af c #251e53",
"b0 c #492a9c",
"b1 c #6e4bc9",
"b2 c #483845",
"b3 c #2e2763",
"b4 c #60548a",
"b5 c #6440bf",
"b6 c #7c2680",
"b7 c #bf846a",
"b8 c #956eaa",
"b9 c #5837b0",
"ba c #623ebd",
"bb c #712076",
"bc c #523e49",
"bd c #393173",
"be c #462996",
"bf c #6340bf",
"c0 c #6b46c9",
"c1 c #5f4e92",
"c2 c #736491",
"c3 c #786891",
"c4 c #b7897c",
"c5 c #7b668a",
"c6 c #342c6c",
"c7 c #452794",
"c8 c #716393",
"c9 c #4e2ea3",
"ca c #271f56",
"cb c #ba8f82",
"cc c #a57162",
"cd c #b98d80",
"ce c #a47162",
"cf c #ad8785",
"d0 c #b28a90",
"d1 c #caa06b",
"d2 c #463c6f",
"d3 c #2d2064",
"d4 c #462898",
"d5 c #aa8979",
"d6 c #c39a6e",
"d7 c #a76c73",
"d8 c #e1b663",
"d9 c #806e8c",
"da c #5c5181",
"db c #3f3669",
"dc c #7d6788",
"dd c #726492",
"de c #6f347d",
"df c #a4636b",
"e0 c #6f2c79",
"e1 c #3d3467",
"e2 c #8c449a",
"e3 c #862c8b",
"e4 c #913195",
"e5 c #913e9c",
"e6 c #523e48",
"e7 c #8b318c",
"e8 c #5e5e5e",
"e9 c #565553",
"ea c #5d5d5d",
"eb c #695c86",
"ec c #96349b",
"ed c #322821",
"ee c #2d2020",
"ef c #5a5958",
"f0 c #241408",
"f1 c #775d95",
"f2 c #97389d",
"f3 c #312b55",
"f4 c #432c5d",
"f5 c #6b2c6e",
"f6 c #903195",
"f7 c #923296",
"f8 c #923e9c",
"f9 c #4e1f65",
"fa c #3c1e5d",
"fb c #77237b",
"fc c #371e5b",
"fd c #2f1e57",
"fe c #6c1f72",
"ff c #722176",
"10 c #943399",
"10 c #96399d",
"10 c #423543",
"10 c #6a1f71",
"10 c #7d5596",
"10 c #4e3c47",
"10 c #7f5497",
"10 c #8f3093",
"10 c #551f68",
"10 c #521f66",
"10 c #8b2e90",
"10 c #3f367a",
"10 c #271f55",
"10 c #8c2f91",
"10 c #453644",
"10 c #825098",
"11 c #933398",
"11 c #411e5f",
"11 c #311e58",
"11 c #6d1f72",
"11 c #882d8d",
"11 c #736193",
"11 c #7d5696",
"11 c #504577",
"11 c #704685",
"11 c #463745",
"11 c #331e59",
"11 c #625686",
"11 c #2d255f",
"11 c #362e6c",
"11 c #3a3172",
"11 c #291e55",
"12 c #3d3477",
"12 c #42397b",
"12 c #635787",
"12 c #443a6d",
"12 c #2f2762",
"12 c #704786",
"12 c #61568b",
"12 c #2a225a",
"12 c #594e7f",
"12 c #3a3173",
"12 c #271f54",
"12 c #41376a",
"12 c #2a2257",
"12 c #2b1e39",
"12 c #221307",
"12 c #221937",
"13 c #271e3c",
"13 c #3a2215",
"13 c #311b0c",
"13 c #23150f",
"13 c #321c0c",
"13 c #6e618d",
"13 c #392214",
"13 c #5e4e69",
"13 c #615478",
"13 c #615479",
"13 c #4d3a42",
"13 c #5a495f",
"13 c #281609",
"13 c #51445d",
"13 c #675a82",
"13 c #5f4a5a",
"14 c #4a3c51",
"14 c #2c1e1d",
"14 c #53455f",
"14 c #392b33",
"00000000000000000000000000000000000000000000000000000000000000000000000000000000000000000000000000000000000000000000000000000000",
"00000000000000000000000000000000000000000000000000000000000000000000000000000000000000000000000000000000000000000000000000000000",
"00000000000000000000000000000000000000000000000000000000000000000000000000000000000000000000000000000000000000000000000000000000",
"00000000000000000000000000000000000102000000000000000000000000000000000000000000000000000000000000000000000000000000000000000000",
"00000000000000000000000000000000030405060000000000000000000000000000000000000000000000000000000000000000000000000000000000000000",
"00000000000000000000000000000002020705050000000000000000000000000000000000000000000000000000000000000000000000000000000000000000",
"00000000000000000000000000000809050a0b0c0d0e000000000000000000000000000000000000000000000000000000000000000000000000000000000000",
"00000000000000000000000000000f050b100b0b0b11000000000000000000000000000000000000000000000000000000000000000000000000000000000000",
"00000000000000000000000000000f0505120b0b1314000000000000000015161616151500000000000000000000000000000000170000000000000000000000",
"00000000000000000000000000000f1205180b191a00000000000000001b1616161616161b1c00000000001d1e0000001f00001e202100000000000000000000",
"0000000000000000000000000000220b0b23240000000000000000251616161626262616161600000000002728280000290000282a2100000000000000000000",
"00000000000000000000000000002b2c0b2d00000000000000002e1616162f303132333435361600000000272a37380000002837390000000000000000000000",
"000000000000000000000000000000240b220000000000000016161616163a333b3b3b3b3c3d163e00003f402a29282829412a28424344000000000000000000",
"0000000000000000000000000000000b0b00000000000045461616164748494a4b4c4d3b4e4f4746450044444444505128525354555624000000000000000000",
"0000000000000000000000000000000b240000000000001616161657583359334a5a5a5a5b5c005d5e00444444444444444444445f2400000000000000000000",
"0000000000000000000000000000000b6000000000000061621663645865664a5a676868696a586b6c00446d2424242323234444246e00000000000000000000",
"00000000000000000000000000005a5a5a6f000000000070711672645833334a3b734a4a4a4a58747500446d2424242424244424246e00000000000000000000",
"00000000000000000000000000767778787900000000007a7b7c7d7e584a7f8081804a4a828384747500446d2424242424852424861400000000000000000000",
"000000000000000000000000005a8788883b000000000000898a8b8c8d8e333333338e8e4a4a4a747500446d24242424242424248f0000000000000000000000",
"000000000000000000000000005a5a5a5a5a00000000005e1616628b1626263333333333654a335d1600446d2424242424242424000000000000000000000000",
"000000000000000000000000005a9091919200000093161616161694958b9697983a3333333398999a000e9b9c9c9d2424249c00000000000000000000000000",
"00000000000000000000000000009e249f000000a01616161616a1611616a28ba3a4262626268b8b700000000000000000000000000000000000000000000000",
"0000000000000000000000000000a5249fa60000161616161616a76116161626a3a8a9a9a3aaabacadae00000000000000000000000000000000000000000000",
"00000000000000000000000000002224af9f001616161616168bb01616161626a3a9a9a9a3aa16717116b1000000000000000000000000000000000000000000",
"0000000000000000000000000000b224afb3b41616161616b58bb01616161626a3a9a9a9b6b7b816b916b1000000000000000000000000000000000000000000",
"00000000000000000000000000000f24afaf9f9f8b8b16718b8b8bba16161626a9a9a9a9b6bb2616161616a00000000000000000000000000000000000000000",
"0000000000000000000000000000bcafafafbd9fbe8b8bbf8b8b8b8badad1626a3a9a9a9b6a9a35dc08b8bc10000000000000000c2c300c4c500000000000000",
"00000000000000000000000000000f24afafaf9fc6c78b8b8bc88b8b8b8b1626a9a9a9a9b6a9a35dc98bca9f9f0000009f9fcbcbcccdcecf0000000000000000",
"00000000000000000000000000000f24afafafafafc78b8b70008b8b8b8bd0a3a9a9a9a9b6a9a3d18bafafaf9f9f9f9f9fafcc5a5a5acc000000000000000000",
"00000000000000000000000000000f2400d2afafd3d48b70000000d5d68bd7a9a9a9a9a9b6a9a3d8d900daafafafafafafdbdcdcdcdd00000000000000000000",
"00000000000000000000000000000f240000000000000000000000dea326dfa9a9a9a9a9b6a9a9e0000000e1afafaf0000000000000000000000000000000000",
"00000000000000000000000000000f240000000000000000000000e2a9e3e4a9a9a9a9a3a9a9a9e5000000000000000000000000000000000000000000000000",
"00000000000000000000000000000f240000000000000000000000e2a9a9a9a9a9a9a9a3a9a9a900000000000000000000000000000000000000000000000000",
"00000000000000000000000000000f240000000000000000000000e2a9a9a9a9a9a9a9a3a9a9a900000000000000000000000000000000000000000000000000",
"00000000000000000000000000000f24000000000000000000006e242424a9a9a9a9a9a3a9a9a900000000000000000000000000000000000000000000000000",
"0000000000000000000000000000e624000000000000000000006e2424242424e7e7e7e8e9eae7eb000000000000000000000000000000000000000000000000",
"0000000000000000000000000000220b00000000000000000000eca3a3a32424242424e8ede824ee000000000000000000000000000000000000000000000000",
"0000000000000000000000000000220b000000000000000000a9a9a9a9a9a324242424e824ef24ee000000000000000000000000000000000000000000000000",
"000000000000000000000000000022f000000000000000f1f2a9a9a9a9a9a9a3a3a3aff3f4f5f6f7f80000000000000000000000000000000000000000000000",
"0000000000000000000000000000222400000000000000a9a9a9a9a9a9a9a9a3a3f9afaffaa3a3a9a9a900000000000000000000000000000000000000000000",
"00000000000000000000000000002224000000000000a9a9a9a9a9a9a9a9fba3a3fcafaffdfea3ff10a910000000000000000000000000000000000000000000",
"00000000000000000000000000001024000000000010a9a9a9a9a9a9a9a3a3a3a3afafafaf10a3a3a3a9a9100000000000000000000000000000000000000000",
"0000000000000000000000000000102400000010a9a9a9a9a9a9a910a3a3a310afafafafaf10a3a3a3a310a91000000000000000000000000000000000000000",
"000000000000000000000000000022240000a9a9a9a9a9a9a9a9eca3a3a3a3afafafafaf1010afa3a3a3a310a9a9000000000000000000000000000000000000",
"000000000000000000000000000010240010a9a9a9a9a9a9a911a3a3a3a311afafafafaf1010af1111a3a311a9a9110000000000000000000000000000000000",
"00000000000000000000000000000f240010a9a9a9a9a9a9fba3a3a3a3a3afaf00afafaf101010afafa3a3a3a3a9100000000000000000000000000000000000",
"00000000000000000000000000000f0b0000000011a9a9a9fba3a3a3a3afafaf0011afaf101010afafa3a3a3a3a3110000000000000000000000000000000000",
"0000000000000000000000000000110b000000000000afaf1111a3a3afafaf11000011af11101011afafa3a3a3a3110000000000000000000000000000000000",
"000000000000000000000000000022240000000000001011afaf11faafafaf0000000000af121011afaf11a3a3a3110000000000000000000000000000000000",
"00000000000000000000000000002224000000000012101010afafafafaf1200000000001212101010afafaf1200000000000000000000000000000000000000",
"0000000000000000000000000000220b000000001210101012afafafaf0000000000000012af101012afaf120000000000000000000000000000000000000000",
"0000000000000000000000000000220b00000000a6101012afaf1212000000000000000000121244121213000000000000000000000000000000000000000000",
"0000000000000000000000000000100b000000004444442424af1200000000000000000000134413242413000000000000000000000000000000000000000000",
"0000000000000000000000000000220b000000004444132424240000000000000000000013131324242400000000000000000000000000000000000000000000",
"0000000000000000000000000000220b000000004444242424240000000000000000000013442424242400000000000000000000000000000000000000000000",
"0000000000000000000000000000220b000000004444442424240000000000000000000044442424242400000000000000000000000000000000000000000000",
"00000000000000000000000000002224000000004444242424000000000000000000000044442424242400000000000000000000000000000000000000000000",
"00000000000000000000000000000f24000000004419242413000000000000000000000044442424240000000000000000000000000000000000000000000000",
"00000000000000000000000000001024000000004419242413000000000000000000001344192424240000000000000000000000000000000000000000000000",
"00000000000000000000000000002224000000445f24242413000000000000000000004444192424240000000000000000000000000000000000000000000000",
"00000000000000000000000000002224000013441324242413000000000000000000004444192424242413130000000000000000000000000000000000000000",
"0000000000000000000000000000222400132424242424ee0000000000000000000000245f242424242424242400000000000000000000000000000000000000",
"00000000000000000000000000001414001414141414141400000000000000000000000014141414141414141400000000000000000000000000000000000000",
"00000000000000000000000000000000000000000000000000000000000000000000000000000000000000000000000000000000000000000000000000000000",
};
