/* XPM */
static char *image[] = {
"64 64 338 2",
"00 c #ffffff",
"01 c #94a8c0",
"02 c #c1fffa",
"03 c #9ab2c7",
"04 c #a1f7fb",
"05 c #33daff",
"06 c #51a0ca",
"07 c #378a96",
"08 c #68597e",
"09 c #98f4fb",
"0a c #36a1b4",
"0b c #3d2310",
"0c c #36a5ba",
"0d c #48312d",
"0e c #706391",
"0f c #543f49",
"10 c #387378",
"11 c #6e608b",
"12 c #e9e9e9",
"13 c #3c2a19",
"14 c #331e0f",
"15 c #6c5f8b",
"16 c #716297",
"17 c #7d758a",
"18 c #776b96",
"19 c #716492",
"1a c #3d2715",
"1b c #1f1106",
"1c c #6f628f",
"1d c #6e4aca",
"1e c #6e49cd",
"1f c #c7c4c4",
"20 c #958cad",
"21 c #e4e4e5",
"22 c #423544",
"23 c #2f1a0b",
"24 c #1e1006",
"25 c #8d8989",
"26 c #878383",
"27 c #837d86",
"28 c #65587e",
"29 c #261508",
"2a c #392b34",
"2b c #716396",
"2c c #6e4bc8",
"2d c #c89e7d",
"2e c #b8a58c",
"2f c #daaa7d",
"30 c #b88c96",
"31 c #6f50be",
"32 c #766a97",
"33 c #cecbcf",
"34 c #a09d9d",
"35 c #b6b3b3",
"36 c #b1abb7",
"37 c #bcb7c3",
"38 c #969292",
"39 c #c9c5d1",
"3a c #45302f",
"3b c #b38a90",
"3c c #a79d9b",
"3d c #d4cecd",
"3e c #bbb2b1",
"3f c #c2ac89",
"40 c #7751c6",
"41 c #361e0d",
"42 c #b2afaf",
"43 c #a39f9f",
"44 c #dedddd",
"45 c #3f2818",
"46 c #7058ac",
"47 c #ae8594",
"48 c #b4a38f",
"49 c #beb7b5",
"4a c #9a695b",
"4b c #a78075",
"4c c #b89e97",
"4d c #b79b8e",
"4e c #ae8693",
"4f c #6e4ec2",
"50 c #8b7f76",
"51 c #82756c",
"52 c #7b6d64",
"53 c #5d4e45",
"54 c #615248",
"55 c #1f1006",
"56 c #493c50",
"57 c #705f9e",
"58 c #e8bc61",
"59 c #bb8f82",
"5a c #5b906a",
"5b c #867560",
"5c c #6f6790",
"5d c #251408",
"5e c #6c5f8a",
"5f c #271609",
"60 c #704bcb",
"61 c #b5836f",
"62 c #712334",
"63 c #a47467",
"64 c #b5acaa",
"65 c #ccbbb6",
"66 c #b18376",
"67 c #732736",
"68 c #715076",
"69 c #d1a675",
"6a c #9a7c89",
"6b c #472899",
"6c c #6743c3",
"6d c #7550c6",
"6e c #965342",
"6f c #bab2b1",
"70 c #ac7e71",
"71 c #877489",
"72 c #855eb9",
"73 c #281609",
"74 c #776891",
"75 c #aa7b6e",
"76 c #9d6c5e",
"77 c #9c6b5d",
"78 c #695994",
"79 c #6440bf",
"7a c #7650c6",
"7b c #aba19f",
"7c c #a99f9d",
"7d c #986a5d",
"7e c #b69a92",
"7f c #cdc6c5",
"80 c #d4cdcc",
"81 c #873f3c",
"82 c #3d2f3a",
"83 c #a97a6d",
"84 c #9b6a5c",
"85 c #4f3398",
"86 c #48299a",
"87 c #4a2b9d",
"88 c #c19681",
"89 c #a89e9c",
"8a c #a69c9a",
"8b c #d2cccb",
"8c c #d2cac9",
"8d c #623fbd",
"8e c #855fb9",
"8f c #6d5f8a",
"90 c #b68a7d",
"91 c #b38679",
"92 c #967784",
"93 c #6f4fbf",
"94 c #6e4ec1",
"95 c #6d48cc",
"96 c #5030a5",
"97 c #6e4c8b",
"98 c #7e5aa1",
"99 c #d8b46f",
"9a c #aaa09f",
"9b c #b2a9a7",
"9c c #5635ad",
"9d c #665980",
"9e c #5d5071",
"9f c #3c2a3d",
"a0 c #3b3377",
"a1 c #6e4bc9",
"a2 c #5332a9",
"a3 c #cbae7a",
"a4 c #332637",
"a5 c #61558b",
"a6 c #6f51bb",
"a7 c #6b47ca",
"a8 c #6440c0",
"a9 c #9e787b",
"aa c #6f1f73",
"ab c #914479",
"ac c #bd7482",
"ad c #a7676a",
"ae c #e4b761",
"af c #4b2b9e",
"b0 c #6c50b3",
"b1 c #251e53",
"b2 c #99369e",
"b3 c #e0b262",
"b4 c #483845",
"b5 c #2e2763",
"b6 c #60548a",
"b7 c #492a9c",
"b8 c #732177",
"b9 c #e1b363",
"ba c #6945c6",
"bb c #5f3cb9",
"bc c #4e2ea3",
"bd c #7c2680",
"be c #712076",
"bf c #463c6f",
"c0 c #2e2661",
"c1 c #462995",
"c2 c #6844c5",
"c3 c #953499",
"c4 c #76227a",
"c5 c #dcac63",
"c6 c #7852c4",
"c7 c #6a46c8",
"c8 c #6f5ba3",
"c9 c #786891",
"ca c #726492",
"cb c #302169",
"cc c #716393",
"cd c #462997",
"ce c #816884",
"cf c #b98d80",
"d0 c #b7897c",
"d1 c #7b668a",
"d2 c #261f55",
"d3 c #a57162",
"d4 c #ba8d80",
"d5 c #ad8785",
"d6 c #605484",
"d7 c #42268e",
"d8 c #675694",
"d9 c #513697",
"da c #b28990",
"db c #8f3194",
"dc c #caa06b",
"dd c #614e95",
"de c #2a235b",
"df c #aa7869",
"e0 c #846e8d",
"e1 c #7d6788",
"e2 c #c3a071",
"e3 c #a4636b",
"e4 c #6c608f",
"e5 c #463d6f",
"e6 c #7f3d8d",
"e7 c #862c8b",
"e8 c #a5656b",
"e9 c #94457d",
"ea c #822986",
"eb c #8c2f91",
"ec c #82368c",
"ed c #5a4e7f",
"ee c #4f4576",
"ef c #8c449a",
"f0 c #913e9c",
"f1 c #8c449b",
"f2 c #523e48",
"f3 c #8b318c",
"f4 c #6d2671",
"f5 c #923b96",
"f6 c #5e5e5e",
"f7 c #5a5958",
"f8 c #2d2020",
"f9 c #96349b",
"fa c #322821",
"fb c #241408",
"fc c #8b469a",
"fd c #903195",
"fe c #5e1c5c",
"ff c #231b43",
"10 c #504d4b",
"10 c #5d5d5d",
"10 c #672268",
"10 c #775d95",
"10 c #785b95",
"10 c #3c1e5d",
"10 c #884a99",
"10 c #8b2e90",
"10 c #4f1e65",
"10 c #852b8a",
"10 c #864b99",
"10 c #423543",
"10 c #6a1f71",
"10 c #913296",
"10 c #96399d",
"10 c #4e3c47",
"11 c #7f5497",
"11 c #97389e",
"11 c #8a2e8f",
"11 c #551f68",
"11 c #874a99",
"11 c #722076",
"11 c #453644",
"11 c #736193",
"11 c #691f70",
"11 c #3f367a",
"11 c #2a225a",
"11 c #671f6f",
"11 c #8c2f90",
"11 c #825098",
"11 c #611f6d",
"11 c #77237b",
"12 c #463745",
"12 c #736194",
"12 c #795b95",
"12 c #3c2362",
"12 c #652070",
"12 c #331e59",
"12 c #6a5e8d",
"12 c #312964",
"12 c #704685",
"12 c #2d255f",
"12 c #3a3172",
"12 c #554b85",
"12 c #3d3477",
"12 c #342c6a",
"12 c #271e54",
"12 c #2e1e57",
"13 c #3e3568",
"13 c #3d3478",
"13 c #431e60",
"13 c #704786",
"13 c #70578d",
"13 c #61568b",
"13 c #594e7f",
"13 c #282157",
"13 c #41376a",
"13 c #625686",
"13 c #271f54",
"13 c #352d6b",
"13 c #3c2d52",
"13 c #271d3c",
"13 c #2a2257",
"13 c #221307",
"14 c #23150f",
"14 c #321c0c",
"14 c #6e618d",
"14 c #392214",
"14 c #2f2122",
"14 c #5e4e69",
"14 c #615478",
"14 c #615479",
"14 c #4d3a42",
"14 c #2e1a0b",
"14 c #5a495f",
"14 c #51445d",
"14 c #675a82",
"14 c #5f4a5a",
"14 c #4a3c51",
"14 c #2c1e1d",
"15 c #53455f",
"15 c #392b33",
"00000000000000000000000000000000000000000000000000000000000000000000000000000000000000000000000000000000000000000000000000000000",
"00000000000000000000000000000000000000000000000000000000000000000000000000000000000000000000000000000000000000000000000000000000",
"00000000000000000000000000000000000000000000000000000000000000000000000000000000000000000000000000000000000000000000000000000000",
"00000000000000000000000000000000000102000000000000000000000000000000000000000000000000000000000000000000000000000000000000000000",
"00000000000000000000000000000000030405060000000000000000000000000000000000000000000000000000000000000000000000000000000000000000",
"00000000000000000000000000000002020705050000000000000000000000000000000000000000000000000000000000000000000000000000000000000000",
"00000000000000000000000000000809050a0b0c0d0e000000000000000000000000000000000000000000000000000000000000000000000000000000000000",
"00000000000000000000000000000f050b100b0b0b11000000000000000000000000000000000000000000000000001200000000000000000000000000000000",
"00000000000000000000000000000f0505130b0b1415000000000000000000161616000000000000000000000000171218000000190000000000000000000000",
"00000000000000000000000000000f13051a0b1b1c0000000000000000001d1e1e1e1d1d0000000000000000000017121f000000202121000000000000000000",
"0000000000000000000000000000220b0b2324000000000000000000001e1e1e1e1e1e1e1e160000000000000000171200000000122526270000000000000000",
"000000000000000000000000000028290b2a00000000000000002b2c1e1e1e2d2e2e2e2f301e310000003233343512123637121238393a000000000000000000",
"000000000000000000000000000000240b2200000000000000001e1e1e1e3b3c3d3e3c3c3f401e00000041414141421f1243261f444524000000000000000000",
"0000000000000000000000000000000b0b00000000000000461e1e1e1e4748494a4b4c4a4d4e1e4f000041414141414150515253545556000000000000000000",
"0000000000000000000000000000000b24000000000000571e1e1e1e583d593d3c4a5a4a5b5c581e5700415d2424244141414141245e00000000000000000000",
"0000000000000000000000000000000b5f0000000000001e1e1e6061623c636465595959666768694600415d2424242424244123245e00000000000000000000",
"00000000000000000000000000005959596a00000000006b6c1e6d6e623d6f3d59703d3d3d3d62717200415d2424242424732424245e00000000000000000000",
"000000000000000000000000007475767677000000000078791e7a6e627b7c3d7d7e3d3d7f8062817200415d2424242424242424820000000000000000000000",
"00000000000000000000000000598384844a00000000000085868788623d3e898a893d3d8b3d8c817200415d2424242424242424000000000000000000000000",
"000000000000000000000000005959595959000000000000001e6b8d583c3c3c3c3c3c3c3d3d3d818e008f5d2424242424242400000000000000000000000000",
"0000000000000000000000000059909191920000000093941e1e9596969798993c3c3c3c9a9b3c699c00000000009d9e9e9e0000000000000000000000000000",
"00000000000000000000000000009f24a000000000a11e1e1e1e1ea21e6b6b1e58a33c3c3c3c586b780000000000000000000000000000000000000000000000",
"0000000000000000000000000000a424a0a50000a61e1e1e1e1ea78d1e1ea8a9aaabacacadae6bafb00000000000000000000000000000000000000000000000",
"00000000000000000000000000002224b1a0001e1e1e1e1e1e1e6b8d1e1e1e58aab2b2b2aab31e6b6c1e00000000000000000000000000000000000000000000",
"0000000000000000000000000000b424b1b5b61e1e1e1e1e1e6bb71e1e1e1e58aab2b2b2b8b91ebabb1ea1000000000000000000000000000000000000000000",
"00000000000000000000000000000fb1b1b1a0a06ba71e1ebc6bb71e1e1e1e58aab2b2b2bdbe581e1e1ea1000000000000000000000000000000000000000000",
"0000000000000000000000000000bfb1b1c0a0c16bc21e6b6b6b6bbb1e1e1e58c3b2b2b2bdc4c5c61ec7c7c80000000000000000000000c9ca00000000000000",
"00000000000000000000000000000fb1b1b1a0a0cb6b6b6b6bcc6b6b6b6b1e58aab2b2b2bdb2aa69bc6bcda00000000000000000cecf00d0d100000000000000",
"00000000000000000000000000000fb1b1b1b1b1cb6b6b6b78006b6b6b6b1e58b2b2b2b2bdb2aa69bc6bd2a0a0000000a0a05959d3d4d3d50000000000000000",
"00000000000000000000000000000f24d6b1b1b1d76bd8780000d8d96b6bdadbb2b2b2b2bdb2aadcddd6b1b1dededededeb1d3dfdfe0e1000000000000000000",
"00000000000000000000000000000f240000000000000000000000e2586be3b2b2b2b2b2bdb2aa587100e4b1b1b1b1b1b1e50000000000000000000000000000",
"00000000000000000000000000000f240000000000000000000000e6e7e8e9b2b2b2b2eaebb2b2ec000000edeeeeee0000000000000000000000000000000000",
"00000000000000000000000000000f240000000000000000000000efb2b2b2b2b2b2b2aab2b2b2f0000000000000000000000000000000000000000000000000",
"00000000000000000000000000000f240000000000000000000000efb2b2b2b2b2b2b2aab2b2b200000000000000000000000000000000000000000000000000",
"00000000000000000000000000000f240000000000000000000000f1b2b2b2b2b2b2b2aab2b2b200000000000000000000000000000000000000000000000000",
"0000000000000000000000000000f224000000000000000000005e242424f3f3b2b2b2f4f5f5b200000000000000000000000000000000000000000000000000",
"0000000000000000000000000000220b000000000000000000005e2424242424242424f624f724f8000000000000000000000000000000000000000000000000",
"0000000000000000000000000000220b00000000000000000000f9aaaaaa2424242424f6faf624f8000000000000000000000000000000000000000000000000",
"000000000000000000000000000022fb0000000000000000fcb2b2b2b2b2fdfefefefff61010fe10100000000000000000000000000000000000000000000000",
"000000000000000000000000000022240000000000000010b2b2b2b2b2b2b2aaaaaab1b110aab2b2b20000000000000000000000000000000000000000000000",
"0000000000000000000000000000222400000000000010b2b2b2b2b2b2b210aaaa10b1b110aaaa10b2b210000000000000000000000000000000000000000000",
"00000000000000000000000000001024000000000000b2b2b2b2b2b2b2b2aaaaaab1b1b1b110aaaa10b210000000000000000000000000000000000000000000",
"00000000000000000000000000001024000000001111b2b2b2b2b2b211aaaaaa11b1b1b1b110aaaaaa11b2110000000000000000000000000000000000000000",
"00000000000000000000000000002224000000b2b2b2b2b2b2b2b2bdaaaaaab1b1b1b1b1b1b1aaaaaaaa11b2b200000000000000000000000000000000000000",
"000000000000000000000000000011240011b2b2b2b2b2b2b2b210aaaaaa11b1b1b1b1b11111b111aaaaaa11b2b2000000000000000000000000000000000000",
"00000000000000000000000000000f240011b2b2b2b2b2b2b2aaaaaaaaaab1b1b1b1b1b11111b1b111aaaaaab2b2110000000000000000000000000000000000",
"00000000000000000000000000000f0b0011b2b2b2b2b2b211aaaaaaaaaab1b100b1b1b1111111b1b1aaaaaaaab2110000000000000000000000000000000000",
"0000000000000000000000000000120b000000001212121212aaaaaa12b1b1b10012b1b1121111b1b112aaaaaaaa120000000000000000000000000000000000",
"00000000000000000000000000002224000000000000b1b1b1b1aaaab1b1b100000000b112111112b1b1aaaaaaaa120000000000000000000000000000000000",
"00000000000000000000000000002224000000000012111212b11212b1b1130000000000b113111212b11213aa13130000000000000000000000000000000000",
"0000000000000000000000000000220b000000001311111111b1b1b1b1b100000000000013b1111111b1b1b10000000000000000000000000000000000000000",
"0000000000000000000000000000220b00000000a511111213b1b1b113000000000000001313131313b113130000000000000000000000000000000000000000",
"0000000000000000000000000000100b000000004141412424b11300000000000000000000134141132414000000000000000000000000000000000000000000",
"0000000000000000000000000000220b000000004141142424240000000000000000000014141424242414000000000000000000000000000000000000000000",
"0000000000000000000000000000220b000000004141242424240000000000000000000014412424242400000000000000000000000000000000000000000000",
"0000000000000000000000000000220b000000004141412424240000000000000000000041412424242400000000000000000000000000000000000000000000",
"00000000000000000000000000002224000000004141242424000000000000000000000041412424242400000000000000000000000000000000000000000000",
"00000000000000000000000000000f2400000000411b242414000000000000000000000041412424240000000000000000000000000000000000000000000000",
"0000000000000000000000000000102400000000411b2424140000000000000000000014411b2424240000000000000000000000000000000000000000000000",
"000000000000000000000000000022240000004114242424140000000000000000000041411b2424240000000000000000000000000000000000000000000000",
"000000000000000000000000000022240000144173242424140000000000000000000041411b2424242414140000000000000000000000000000000000000000",
"0000000000000000000000000000222400142424242424f800000000000000000000002414242424242424242400000000000000000000000000000000000000",
"00000000000000000000000000001414001514141414141500000000000000000000000014141414141414141400000000000000000000000000000000000000",
"00000000000000000000000000000000000000000000000000000000000000000000000000000000000000000000000000000000000000000000000000000000",
};
