/* XPM */
static char *image[] = {
"64 64 327 2",
"00 c #ffffff",
"01 c #94a8c0",
"02 c #c1fffa",
"03 c #9ab2c7",
"04 c #a1f7fb",
"05 c #33daff",
"06 c #51a0ca",
"07 c #378a96",
"08 c #68597e",
"09 c #98f4fb",
"0a c #36a1b4",
"0b c #3d2310",
"0c c #36a5ba",
"0d c #48312d",
"0e c #706391",
"0f c #543f49",
"10 c #387378",
"11 c #6e608b",
"12 c #6e49cd",
"13 c #3c2a19",
"14 c #331e0f",
"15 c #6c5f8b",
"16 c #716297",
"17 c #796d99",
"18 c #3d2715",
"19 c #1f1106",
"1a c #6f628f",
"1b c #6f52b9",
"1c c #6e4aca",
"1d c #e3b765",
"1e c #6e4acb",
"1f c #e9e9e9",
"20 c #423544",
"21 c #2f1a0b",
"22 c #1e1006",
"23 c #e8bc61",
"24 c #a79d9b",
"25 c #ffcc62",
"26 c #d2a383",
"27 c #878383",
"28 c #c7c4c4",
"29 c #b4afc3",
"2a c #65587e",
"2b c #261508",
"2c c #392b34",
"2d c #6f50be",
"2e c #bfa285",
"2f c #a98378",
"30 c #a27c71",
"31 c #9d766b",
"32 c #bc9168",
"33 c #7751c6",
"34 c #6f54b6",
"35 c #7a718c",
"36 c #e0dfdf",
"37 c #817b87",
"38 c #d0cfcf",
"39 c #948bab",
"3a c #6e4ec2",
"3b c #d4cecd",
"3c c #9a695b",
"3d c #b3958d",
"3e c #b5adbb",
"3f c #e0b664",
"40 c #b2afaf",
"41 c #6f53b6",
"42 c #9a72a6",
"43 c #aa6c49",
"44 c #bcb4b3",
"45 c #b18476",
"46 c #beb7b5",
"47 c #ab7d6f",
"48 c #8d8f77",
"49 c #9c7c6b",
"4a c #714561",
"4b c #aa8e7b",
"4c c #a27a9f",
"4d c #705f9e",
"4e c #56434f",
"4f c #80726a",
"50 c #5d4e45",
"51 c #7b6d64",
"52 c #cccbcb",
"53 c #d7d6d6",
"54 c #d9d7d7",
"55 c #bbb8b8",
"56 c #dedddd",
"57 c #8f837b",
"58 c #291709",
"59 c #7550c6",
"5a c #965342",
"5b c #712334",
"5c c #bb8f82",
"5d c #b18376",
"5e c #732736",
"5f c #d1a675",
"60 c #361e0d",
"61 c #d6d4d4",
"62 c #9a908b",
"63 c #271609",
"64 c #513797",
"65 c #6743c3",
"66 c #7650c6",
"67 c #c6bfbe",
"68 c #b5acaa",
"69 c #ae8579",
"6a c #876472",
"6b c #855fb9",
"6c c #311b0b",
"6d c #36282e",
"6e c #9a7c89",
"6f c #695994",
"70 c #472899",
"71 c #bab2b1",
"72 c #817573",
"73 c #cfc8c7",
"74 c #873f3c",
"75 c #855eb9",
"76 c #251408",
"77 c #6c5f8a",
"78 c #776891",
"79 c #aa7b6e",
"7a c #9d6c5e",
"7b c #9c6b5d",
"7c c #523797",
"7d c #4a2b9d",
"7e c #492a9c",
"7f c #b99088",
"80 c #7b3038",
"81 c #d0cac9",
"82 c #b9b0af",
"83 c #1f1006",
"84 c #341d0c",
"85 c #a97a6d",
"86 c #9b6a5c",
"87 c #705f9d",
"88 c #6b46c9",
"89 c #48289a",
"8a c #714cca",
"8b c #e6bb62",
"8c c #b6adab",
"8d c #a89e9c",
"8e c #cfa474",
"8f c #6e49cc",
"90 c #372a31",
"91 c #5332a9",
"92 c #5d3bb6",
"93 c #4e2ea3",
"94 c #b68a7d",
"95 c #b38679",
"96 c #967784",
"97 c #705da1",
"98 c #6c47ca",
"99 c #5e3cb8",
"9a c #6441c0",
"9b c #5433aa",
"9c c #5030a5",
"9d c #8c456e",
"9e c #ad766f",
"9f c #d8b46f",
"a0 c #6e4c8b",
"a1 c #60506c",
"a2 c #5d5071",
"a3 c #3c2a3d",
"a4 c #3b3377",
"a5 c #6b47ca",
"a6 c #623fbd",
"a7 c #6f1f73",
"a8 c #812986",
"a9 c #99369e",
"aa c #e0b262",
"ab c #211628",
"ac c #61558b",
"ad c #5937b1",
"ae c #48299b",
"af c #6844c6",
"b0 c #5836b0",
"b1 c #6f56b0",
"b2 c #251e53",
"b3 c #7c2680",
"b4 c #e3b365",
"b5 c #6e4bc9",
"b6 c #483845",
"b7 c #2e2763",
"b8 c #60548a",
"b9 c #6542c1",
"ba c #4c2ca0",
"bb c #6a46c8",
"bc c #7c2681",
"bd c #712075",
"be c #716199",
"bf c #645195",
"c0 c #b7897c",
"c1 c #7b668a",
"c2 c #523e49",
"c3 c #393173",
"c4 c #3e3080",
"c5 c #732177",
"c6 c #432890",
"c7 c #6b5f90",
"c8 c #786891",
"c9 c #856980",
"ca c #ba8d80",
"cb c #76658e",
"cc c #b6897d",
"cd c #7a668b",
"ce c #271f56",
"cf c #716393",
"d0 c #b28991",
"d1 c #702073",
"d2 c #caa06b",
"d3 c #a57162",
"d4 c #543b97",
"d5 c #b28a90",
"d6 c #746590",
"d7 c #695d8c",
"d8 c #5c5181",
"d9 c #675694",
"da c #824d7a",
"db c #8a426f",
"dc c #c39a6e",
"dd c #a4646b",
"de c #8f3194",
"df c #8b4c73",
"e0 c #766891",
"e1 c #706392",
"e2 c #372f62",
"e3 c #605484",
"e4 c #675b8b",
"e5 c #8c449a",
"e6 c #862c8b",
"e7 c #913f9c",
"e8 c #7f5397",
"e9 c #6f6290",
"ea c #673369",
"eb c #70296b",
"ec c #5e5e5e",
"ed c #523e48",
"ee c #715a8c",
"ef c #271213",
"f0 c #201309",
"f1 c #5a5a59",
"f2 c #2d2020",
"f3 c #5a5958",
"f4 c #77237b",
"f5 c #785b95",
"f6 c #241408",
"f7 c #923e9c",
"f8 c #551f68",
"f9 c #3c1e5d",
"fa c #78247c",
"fb c #90409c",
"fc c #4e1f65",
"fd c #96399d",
"fe c #864b99",
"ff c #812985",
"10 c #6a1f71",
"10 c #7e2782",
"10 c #98379e",
"10 c #785c95",
"10 c #423543",
"10 c #4e3c47",
"10 c #7f5497",
"10 c #98359d",
"10 c #77247c",
"10 c #2e2661",
"10 c #251e54",
"10 c #943399",
"10 c #825098",
"10 c #451e61",
"10 c #3f367a",
"10 c #331e59",
"11 c #8c2f91",
"11 c #453644",
"11 c #2f275b",
"11 c #282158",
"11 c #591e6a",
"11 c #933398",
"11 c #7d5696",
"11 c #504577",
"11 c #704685",
"11 c #611f6d",
"11 c #2d255f",
"11 c #463745",
"11 c #3a3172",
"11 c #362e6c",
"11 c #371e5b",
"11 c #461e61",
"12 c #625686",
"12 c #271f55",
"12 c #3e3578",
"12 c #3a3173",
"12 c #42397b",
"12 c #3d3477",
"12 c #685b8e",
"12 c #40377a",
"12 c #332a67",
"12 c #514778",
"12 c #594e7f",
"12 c #443a6d",
"12 c #61568b",
"12 c #2a2257",
"12 c #221207",
"12 c #60537f",
"13 c #3c2d52",
"13 c #37294d",
"13 c #221937",
"13 c #211207",
"13 c #23150f",
"13 c #3a2215",
"13 c #321c0c",
"13 c #6e618d",
"13 c #392214",
"13 c #5e4e69",
"13 c #615478",
"13 c #615479",
"13 c #4d3a42",
"13 c #2e1a0b",
"13 c #5a495f",
"13 c #281609",
"14 c #51445d",
"14 c #675a82",
"14 c #5f4a5a",
"14 c #4a3c51",
"14 c #2c1e1d",
"14 c #53455f",
"14 c #392b33",
"00000000000000000000000000000000000000000000000000000000000000000000000000000000000000000000000000000000000000000000000000000000",
"00000000000000000000000000000000000000000000000000000000000000000000000000000000000000000000000000000000000000000000000000000000",
"00000000000000000000000000000000000000000000000000000000000000000000000000000000000000000000000000000000000000000000000000000000",
"00000000000000000000000000000000000102000000000000000000000000000000000000000000000000000000000000000000000000000000000000000000",
"00000000000000000000000000000000030405060000000000000000000000000000000000000000000000000000000000000000000000000000000000000000",
"00000000000000000000000000000002020705050000000000000000000000000000000000000000000000000000000000000000000000000000000000000000",
"00000000000000000000000000000809050a0b0c0d0e000000000000000000000000000000000000000000000000000000000000000000000000000000000000",
"00000000000000000000000000000f050b100b0b0b11000000000000000000121212000000000000000000000000000000000000000000000000000000000000",
"00000000000000000000000000000f0505130b0b1415000000000000001612121212121216000000000000000000000017000000000000000000000000000000",
"00000000000000000000000000000f1305180b191a0000000000001b1c1212121d1d1d12121e000000000000000000001f000000000000000000000000000000",
"0000000000000000000000000000200b0b2122000000000000001612121212232424242526121200000000000000002728290000000000000000000000000000",
"00000000000000000000000000002a2b0b2c000000000000002d121212122e242f30313132331234000000000000352736290037383900000000000000000000",
"000000000000000000000000000000220b200000000000003a1212121223243b3c3d3b3c3e3f123a000000001f284027272900271f1f00000000000000000000",
"0000000000000000000000000000000b0b00000000000041121212424344454446474847494a4b4c4d004e4f5051525354552753565758000000000000000000",
"0000000000000000000000000000000b22000000000000121212595a5b243c3b5c5c5c5c5d5e5b5f12006060606060601f612827621922000000000000000000",
"0000000000000000000000000000000b63000000000000646512665a5b67683b5d693b3b3b3b5b6a6b00606c2121216060606060586d00000000000000000000",
"00000000000000000000000000005c5c5c6e00000000006f7012595a5b3b713b723b3b3b72735b74750060762222222222226060227700000000000000000000",
"0000000000000000000000000078797a7a7b0000000000007c7d7e7f80818224242481813b3b3b74750060762222222222838422227700000000000000000000",
"000000000000000000000000005c8586863c0000000000871e1288898a8b8b24242424248c3b8d8e8f0060762222222222222222900000000000000000000000",
"000000000000000000000000005c5c5c5c5c0000000012121212129170709223242424242424245f930060762222222222222222000000000000000000000000",
"000000000000000000000000005c949595960000978f121212129899129a9b9c9d9e9f9f9f9fa0706f00a17622222222222222a2000000000000000000000000",
"0000000000000000000000000000a322a4000000121212121212a5a612121223a7a8a9a9a7aa7093120000000000202222220000000000000000000000000000",
"0000000000000000000000000000ab22a4ac00001212121212adaeaf12121223a7a9a9a9a7aa12b06512b1000000000000000000000000000000000000000000",
"00000000000000000000000000002022b2a400121212121212707e1212121223a7a9a9a9b3b412129312b5000000000000000000000000000000000000000000",
"0000000000000000000000000000b622b2b7b812b9121298ba70aebb12121223bca9a9a9b3bd231212121cbe0000000000000000000000000000000000000000",
"00000000000000000000000000000f22b2b2a4a4707012657070707012121223a7a9a9a9b3a9a75f127070bf0000000000000000000000c0c100000000000000",
"0000000000000000000000000000c222b2b2b2c3c47070707070707070701223c5a9a9a9b3a9a75f9370c6a4c7000000c7c7c8c8c9cacbcccd00000000000000",
"00000000000000000000000000000f22b2b2b2b2a4ce707070cf70707070d0d1a9a9a9a9b3a9a7d270b2b2b2a4a4a4a4a4b2d35c5c5cd3000000000000000000",
"00000000000000000000000000000f2200b2b2b2b2b270706f0000d47070d5a9a9a9a9a9b3a9a7d26f00b2b2b2b2b2b2b2b2d3d3d3d600000000000000000000",
"00000000000000000000000000000f2200d7b2b2b2d8d96f000000dadbdcdda9a9a9a9a9b3a9dedfe000e1e2b2b2b2e3e3e40000000000000000000000000000",
"00000000000000000000000000000f220000000000000000000000e5a9a7e6a9a9a9a9a7a9a9a9e7000000000000000000000000000000000000000000000000",
"00000000000000000000000000000f220000000000000000000000e5a9a9a9a9a9a9a9a7a9a9a9e8000000000000000000000000000000000000000000000000",
"00000000000000000000000000000f220000000000000000000000e5a9a9a9a9a9a9a9a7a9a9a900000000000000000000000000000000000000000000000000",
"00000000000000000000000000000f2200000000000000000000e9eaebeba9a9a9a9a9a7a9a9a900000000000000000000000000000000000000000000000000",
"00000000000000000000000000000f2200000000000000000000772222222222a9a9a9ecececa900000000000000000000000000000000000000000000000000",
"0000000000000000000000000000ed2200000000000000000000eeefefef2222222222ecf0f122f2000000000000000000000000000000000000000000000000",
"0000000000000000000000000000200b000000000000000000a9a9a9a9a9a722222222ec22f322f2000000000000000000000000000000000000000000000000",
"0000000000000000000000000000200b0000000000000000e7a9a9a9a9a9a9a7a7a7b2ecececa7f4f50000000000000000000000000000000000000000000000",
"000000000000000000000000000020f600000000000000f7a9a9a9a9a9a9a9a7a7f8b2b2f9a7faa9a9fb00000000000000000000000000000000000000000000",
"00000000000000000000000000002022000000000000a9a9a9a9a9a9a9a9a8a7a7fcb2b2f9a7a7f4a9a9fd000000000000000000000000000000000000000000",
"000000000000000000000000000020220000000000fea9a9a9a9a9a9a9ffa7a7a7b2b2b2b210a7a710a910100000000000000000000000000000000000000000",
"0000000000000000000000000000102200000000a9a9a9a9a9a9a9a9a7a7a7a7b2b2b2b2b210a7a7a7a7a9a90000000000000000000000000000000000000000",
"00000000000000000000000000001022000010a9a9a9a9a9a9a91010a7a7a7b2b2b2b2b21010f8a7a7a7bd10a910000000000000000000000000000000000000",
"000000000000000000000000000020220010a9a9a9a9a9a9a9a9a7a7a7a710b2b2b2b2b21010b210a7a7a711a9a9000000000000000000000000000000000000",
"000000000000000000000000000011220010a9a9a9a9a9a910a7a7a7a7a7b2b211b2b2b2101011b211a7a7a711a9100000000000000000000000000000000000",
"00000000000000000000000000000f220000000011a9a9a9f4a7a7a7a7b2b2b20011b2b2101010b2b2a7a7a7a7a7110000000000000000000000000000000000",
"00000000000000000000000000000f0b000000000000b2b211a7a7a7b2b2b2b20000b2b2111010b2b2b2a7a7a7a7110000000000000000000000000000000000",
"0000000000000000000000000000110b0000000000001111b2b21111b2b2b2000000001212121012b2b211a7a7a7110000000000000000000000000000000000",
"00000000000000000000000000002022000000000012101010b2b2b2b2b2110000000000b212101010b2b2b2a700000000000000000000000000000000000000",
"00000000000000000000000000002022000000001212101012b2b2b2b21200000000000012b2101012b2b2120000000000000000000000000000000000000000",
"0000000000000000000000000000200b0000000012101012b2b2b2b200000000000000000012b26012b212000000000000000000000000000000000000000000",
"0000000000000000000000000000200b000000001213131313b21200000000000000000000126084132213000000000000000000000000000000000000000000",
"0000000000000000000000000000100b000000006060602222b21200000000000000000000136022222213000000000000000000000000000000000000000000",
"0000000000000000000000000000200b000000006060132222220000000000000000000013131322222200000000000000000000000000000000000000000000",
"0000000000000000000000000000200b000000006060222222220000000000000000000013602222222200000000000000000000000000000000000000000000",
"0000000000000000000000000000200b000000006060602222220000000000000000000060602222222200000000000000000000000000000000000000000000",
"00000000000000000000000000002022000000006060222222000000000000000000000060602222222200000000000000000000000000000000000000000000",
"00000000000000000000000000000f22000000006019222213000000000000000000000060602222220000000000000000000000000000000000000000000000",
"00000000000000000000000000001022000000006019222213000000000000000000001360192222220000000000000000000000000000000000000000000000",
"00000000000000000000000000002022000000601322222213000000000000000000006060192222220000000000000000000000000000000000000000000000",
"00000000000000000000000000002022000013601322222213000000000000000000006060192222222214140000000000000000000000000000000000000000",
"0000000000000000000000000000202200142222222222f200000000000000000000002213222222222222222200000000000000000000000000000000000000",
"00000000000000000000000000001414001414141414141400000000000000000000000014141414141414141400000000000000000000000000000000000000",
"00000000000000000000000000000000000000000000000000000000000000000000000000000000000000000000000000000000000000000000000000000000",
};
