/* XPM */
static char *image[] = {
"64 64 215 2",
"00 c #ffffff",
"01 c #70609a",
"02 c #6e49cd",
"03 c #7059a9",
"04 c #8f9fba",
"05 c #c1fffa",
"06 c #a4f7fb",
"07 c #6e4cc7",
"08 c #483624",
"09 c #96f4fb",
"0a c #33daff",
"0b c #716494",
"0c c #7a55c2",
"0d c #dfb360",
"0e c #6c5d86",
"0f c #3b4239",
"10 c #34c7e7",
"11 c #36a8bd",
"12 c #3d2310",
"13 c #32cff2",
"14 c #6e4acb",
"15 c #e7bb62",
"16 c #d1cac8",
"17 c #712537",
"18 c #33d9fe",
"19 c #36a4b9",
"1a c #3c2614",
"1b c #9b695b",
"1c c #946d5c",
"1d c #9a695b",
"1e c #3c2210",
"1f c #1e1006",
"20 c #6f52ba",
"21 c #bb8f82",
"22 c #281609",
"23 c #385755",
"24 c #3b2e38",
"25 c #d4cecc",
"26 c #d4cecd",
"27 c #b4acba",
"28 c #6e4cc5",
"29 c #623fbd",
"2a c #876383",
"2b c #b3aaa9",
"2c c #9e94a2",
"2d c #61506b",
"2e c #2a170a",
"2f c #3f313e",
"30 c #472899",
"31 c #e8bc61",
"32 c #6f6290",
"33 c #a79d9b",
"34 c #aba19f",
"35 c #d2cccb",
"36 c #6b5c84",
"37 c #251408",
"38 c #271a16",
"39 c #6d48cc",
"3a c #a89e9c",
"3b c #b88c7f",
"3c c #b78c7f",
"3d c #a79d9a",
"3e c #968b98",
"3f c #997b8a",
"40 c #726492",
"41 c #675694",
"42 c #957e84",
"43 c #815d4d",
"44 c #a47567",
"45 c #5d3ab6",
"46 c #735449",
"47 c #6e4ac9",
"48 c #3c2a3b",
"49 c #835d50",
"4a c #7b6585",
"4b c #60548a",
"4c c #3b3377",
"4d c #644657",
"4e c #6945c6",
"4f c #6d49cc",
"50 c #251e53",
"51 c #2a2357",
"52 c #6e49cc",
"53 c #47289a",
"54 c #342c6b",
"55 c #462995",
"56 c #5332a9",
"57 c #5231a8",
"58 c #3f3081",
"59 c #2b245d",
"5a c #362e61",
"5b c #6f4fc1",
"5c c #5837b0",
"5d c #393173",
"5e c #5d3bb6",
"5f c #5130a6",
"60 c #422d8a",
"61 c #6e4ec1",
"62 c #68597f",
"63 c #361e0d",
"64 c #442684",
"65 c #543494",
"66 c #d6a564",
"67 c #422584",
"68 c #30285c",
"69 c #5c4b64",
"6a c #c7c4c4",
"6b c #a5656b",
"6c c #3e2211",
"6d c #3d3467",
"6e c #6f1f73",
"6f c #5e5173",
"70 c #544661",
"71 c #8d2f92",
"72 c #582441",
"73 c #6c5f8a",
"74 c #62568b",
"75 c #5e5389",
"76 c #3b336f",
"77 c #a78386",
"78 c #99369e",
"79 c #2c180b",
"7a c #736592",
"7b c #d6d4d4",
"7c c #2e1f26",
"7d c #3f367a",
"7e c #5b4f88",
"7f c #886774",
"80 c #a8796b",
"81 c #726592",
"82 c #e5e4e4",
"83 c #291709",
"84 c #1f1107",
"85 c #5a4f87",
"86 c #594b69",
"87 c #c4c2c0",
"88 c #221207",
"89 c #201313",
"8a c #3d3477",
"8b c #695c8f",
"8c c #332b68",
"8d c #5f548a",
"8e c #481d3a",
"8f c #6f6291",
"90 c #4c4280",
"91 c #282157",
"92 c #732571",
"93 c #1f1108",
"94 c #7b308b",
"95 c #272056",
"96 c #383063",
"97 c #6a5e8f",
"98 c #3a2010",
"99 c #592874",
"9a c #2d1e33",
"9b c #393070",
"9c c #321a12",
"9d c #852b8a",
"9e c #834f98",
"9f c #755f94",
"a0 c #483e70",
"a1 c #2d1e32",
"a2 c #302863",
"a3 c #3b3375",
"a4 c #473d7e",
"a5 c #3a3273",
"a6 c #4f1e65",
"a7 c #661f61",
"a8 c #2d131a",
"a9 c #651f61",
"aa c #401e20",
"ab c #321b0c",
"ac c #2b180a",
"ad c #231b40",
"ae c #482125",
"af c #544984",
"b0 c #2a235a",
"b1 c #482126",
"b2 c #704585",
"b3 c #442f2d",
"b4 c #3b2c4d",
"b5 c #5d1f6b",
"b6 c #70538b",
"b7 c #1f1106",
"b8 c #5c4f70",
"b9 c #5f5274",
"ba c #685a7f",
"bb c #2f1e57",
"bc c #5f5275",
"bd c #554353",
"be c #503d49",
"bf c #493f71",
"c0 c #715f91",
"c1 c #533f48",
"c2 c #2e1a0b",
"c3 c #685b83",
"c4 c #2b170a",
"c5 c #241308",
"c6 c #311b0b",
"c7 c #2e190b",
"c8 c #271916",
"c9 c #2e2021",
"ca c #675779",
"cb c #322019",
"cc c #5f4d65",
"cd c #4d4056",
"ce c #271508",
"cf c #321c0c",
"d0 c #4d3a42",
"d1 c #3b2d37",
"d2 c #2a1709",
"d3 c #47394b",
"d4 c #6a5b82",
"d5 c #564864",
"d6 c #62557a",
"00000000000000000000000000000000000000000000000000000000000000000000000000000000000000000000000000000000000000000000000000000000",
"00000000000000000000000000000000000000000000000000000000000000000000000000000000000000000000000000000000000000000000000000000000",
"00000000000000000000000000000000000000000000000000000000000000000000000000000000000000000000000000000000000000000000000000000000",
"00000000000000000000000000000000000000000000000000000000000000000000000000000000000000000000000000000000000000000000000000000000",
"00000000000000000000000000000000000000000000000000000000000000000000000000000000000000000000000000000000000000000000000000000000",
"00000000000000000000000000000000000000000000000000000000000000000000000000000000000000000000000000000000000000000000000000000000",
"00000000000000000000000000000000000000000000000000000000000000000000000000000000000000000000000000000000000000000000000000000000",
"00000000000000000000000000000000000000000000000000000000000000000000000000000000000000000000000000000000000000000000000000000000",
"00000000000000000000000000000000000000000000000000000000000000000000000000000000000000000000000000000000000000000000000000000000",
"00000000000000000000000000000000000000000000000000000000000000000000000000000000000000000000000000000000000000000000000000000000",
"00000000000000000000000000000000000000000000000000000000000000000000000000000000000000000000000000000000000000000000000000000000",
"00000000000000000000000000000000000000000000000000000000000001020202020203000000000000000000000404050600000000000000000000000000",
"000000000000000000000000000000000000000000000000000000000000020202020202020700000000000000000805090a0a00000000000000000000000000",
"000000000000000000000000000000000000000000000000000000000b020202020202020c0d000000000000000e0f1011121300000000000000000000000000",
"00000000000000000000000000000000000000000000000000000000140202020202020215161700000000000012181219121a00000000000000000000000000",
"0000000000000000000000000000000000000000000000000000000202020202020202021b1c1d0000000000001e0a1212121f00000000000000000000000000",
"00000000000000000000000000000000000000000000000000002002020202020202020221211d000000000022122322221f2400000000000000000000000000",
"00000000000000000000000000000000000000000000000000000202020202020202020225262627000000001f121f1f00000000000000000000000000000000",
"00000000000000000000000000000000000000000000000000280202020202020202292a25262b2c0000002d2e1f2f0000000000000000000000000000000000",
"00000000000000000000000000000000000000000000000000020202020202020230303126262626000000121f32000000000000000000000000000000000000",
"00000000000000000000000000000000000000000000000030303030303030303030303133342635000036373800000000000000000000000000000000000000",
"00000000000000000000000000000000000000000000000030303030303030303039393133333a3a00003b3c0000000000000000000000000000000000000000",
"0000000000000000000000000000000000000000000000000030303030303030020202023d33333e003f21211d40000000000000000000000000000000000000",
"00000000000000000000000000000000000000000000000000413030302929302902020242000000004321214440000000000000000000000000000000000000",
"000000000000000000000000000000000000000000000000000000303002023045020202020000001246211d1d00000000000000000000000000000000000000",
"0000000000000000000000000000000000000000000000000000000002020230450202020247000048491d4a0000000000000000000000000000000000000000",
"0000000000000000000000000000000000000000000000000000000202020230300202020202004b4c4d1d000000000000000000000000000000000000000000",
"0000000000000000000000000000000000000000000000000000000202020230304e0202024f304c505100000000000000000000000000000000000000000000",
"00000000000000000000000000000000000000000000000000000002020202523030020253304c54500000000000000000000000000000000000000000000000",
"00000000000000000000000000000000000000000000000000000202020202023030020230554c54000000000000000000000000000000000000000000000000",
"000000000000000000000000000000000000000000000000000002020202020256305730584c595a000000000000000000000000000000000000000000000000",
"000000000000000000000000000000000000000000000000005b0202020202025c3030304c5d5000000000000000000000000000000000000000000000000000",
"000000000000000000000000000000000000000000000000005b02020202025e5f3030604c505000000000000000000000000000000000000000000000000000",
"00000000000000000000000000000000000000000000000000610202020230303030304c50500000000000000000000000000000000000000000000000000000",
"00000000000000000000000000000000000000000000626262636363636430306566676850505000000000000000000000000000000000000000000000000000",
"000000000000000000000000000000000000000000696363636363636a6330306b6c374c4c50506d000000000000000000000000000000000000000000000000",
"0000000000000000000000000000000000000000006963631f1f1f636a6331316e6c6f004c5d50504c0000000000000000000000000000000000000000000000",
"000000000000000000000000000000000000000000701f1f1f1f1f636a637171721f730074754c50507677777700000000000000000000000000000000000000",
"000000000000000000000000000000000000000000701f1f1f1f1f636a63787879000000000000505050211d217a000000000000000000000000000000000000",
"000000000000000000000000000000000000000000701f1f1f1f1f637b63786c7c7d7e7e7e000000007f1d802181000000000000000000000000000000000000",
"000000000000000000000000000000000000000000701f1f1f1f1f63826383847d7d7d7d7d7d7d7d7d8500000000000000000000000000000000000000000000",
"000000000000000000000000000000000000000000861f1f1f1f1f63876388898a7d7d7d7d7d7d7d7d7d7d8b0000000000000000000000000000000000000000",
"000000000000000000000000000000000000000000007d7d6e6e6e6e6e6c84508c7d7d7d7d7d7d7d7d7d7d7d0000000000000000000000000000000000000000",
"0000000000000000000000000000000000000000008d7d7d6e6e6e6e786c8e5050505050507d7d7d7d7d7d7d7d8f000000000000000000000000000000000000",
"0000000000000000000000000000000000000000907d7d916e6e6e6e92937894505050505050509559597d7d7d96000000000000000000000000000000000000",
"00000000000000000000000000000000000000977d7d50506e6e6e6e987878789950505050505063639a509b7d50000000000000000000000000000000000000",
"0000000000000000000000000000000000007d7d8c5050506e6e6e6c9c6e9d78789e9fa0a0a1636363631fa25050000000000000000000000000000000000000",
"00000000000000000000000000000000007d7da3505050506e6e6e6c6e6e6e6e7878787863636363631f1f50508f000000000000000000000000000000000000",
"00000000000000000000000000000000a47da550505050a66e6ea7a86e6e6e6e6ea9aa6363ababac1f1f1fad508f000000000000000000000000000000000000",
"0000000000000000000000000000007d7d5050505050506e6eae6c6e6e6e6e6e6e6363631f1f1f1f1f1f1fad0000000000000000000000000000000000000000",
"0000000000000000000000000000af7db050505050506e6e6eb1846e6e6e6e6eb263631f1f1f1f1f000000000000000000000000000000000000000000000000",
"000000000000000000000000b363b47d50505050b56eb600b637b6b6b6b600006363b71fb8b90000000000000000000000000000000000000000000000000000",
"00000000000000000000ba6363632250505050bb6e00000012bc000000000063631f1f0000000000000000000000000000000000000000000000000000000000",
"0000000000000000bdbdbe63ab1f1f1f5050bfc0000000c1c2c30000000000c4c51f000000000000000000000000000000000000000000000000000000000000",
"0000000000000063636363631f1f1f1f50500000000000ac000000000000001f1f00000000000000000000000000000000000000000000000000000000000000",
"000000000000636363c6c71f1f1fc8c9000000000000cacb00000000000000000000000000000000000000000000000000000000000000000000000000000000",
"0000000000006363631f1f1f1f0000000000000000cc12cd00000000000000000000000000000000000000000000000000000000000000000000000000000000",
"00000000000063631f1f1f1f1f0000000000000000cc1f0000000000000000000000000000000000000000000000000000000000000000000000000000000000",
"00000000000063ce1f1f386f000000000000000000cf000000000000000000000000000000000000000000000000000000000000000000000000000000000000",
"0000000000d0631f1f1f0000000000000000000012d1000000000000000000000000000000000000000000000000000000000000000000000000000000000000",
"0000000000d0d21f1fd3000000000000000000d41fd5000000000000000000000000000000000000000000000000000000000000000000000000000000000000",
"0000000000d01f1f1f00000000000000000000000000000000000000000000000000000000000000000000000000000000000000000000000000000000000000",
"0000000000bd1fd60000000000000000000000000000000000000000000000000000000000000000000000000000000000000000000000000000000000000000",
"00000000000000000000000000000000000000000000000000000000000000000000000000000000000000000000000000000000000000000000000000000000",
};
