/* XPM */
static char *image[] = {
"64 64 229 2",
"00 c #ffffff",
"01 c #c1fffa",
"02 c #716199",
"03 c #716394",
"04 c #716392",
"05 c #79749d",
"06 c #b2fbfa",
"07 c #33daff",
"08 c #6e4aca",
"09 c #6e49cd",
"0a c #6e4acb",
"0b c #6c5e88",
"0c c #39dbff",
"0d c #3c2a19",
"0e c #378691",
"0f c #6e4cc7",
"10 c #3c3324",
"11 c #3d2310",
"12 c #3a5b59",
"13 c #38838d",
"14 c #1e1006",
"15 c #6f52ba",
"16 c #6f51bd",
"17 c #7651c5",
"18 c #c2a071",
"19 c #29180c",
"1a c #3c3224",
"1b c #3c3527",
"1c c #321c0c",
"1d c #281609",
"1e c #e0b460",
"1f c #712334",
"20 c #705ba5",
"21 c #9e76a2",
"22 c #c89c65",
"23 c #a4b5a5",
"24 c #7c4b5d",
"25 c #3c2310",
"26 c #3c2210",
"27 c #281a17",
"28 c #3f313e",
"29 c #6f4fc1",
"2a c #e7bb62",
"2b c #bb8f82",
"2c c #8d676d",
"2d c #6e4ec2",
"2e c #be968b",
"2f c #957378",
"30 c #6c5e87",
"31 c #1f1006",
"32 c #2e2021",
"33 c #48299a",
"34 c #e7bb61",
"35 c #d4cecd",
"36 c #493330",
"37 c #6d608c",
"38 c #472899",
"39 c #d4cecc",
"3a c #817573",
"3b c #503598",
"3c c #48299b",
"3d c #5332a9",
"3e c #623fbd",
"3f c #a79d9a",
"40 c #b5acaa",
"41 c #a48287",
"42 c #8d676c",
"43 c #a79d9b",
"44 c #55414c",
"45 c #9b6a5c",
"46 c #5d3ab6",
"47 c #8f7ab0",
"48 c #918598",
"49 c #443031",
"4a c #b18376",
"4b c #ad7f72",
"4c c #896772",
"4d c #2c190a",
"4e c #9a695b",
"4f c #4c2f99",
"50 c #4c2ca0",
"51 c #5a38b2",
"52 c #6a5d8f",
"53 c #664b67",
"54 c #966860",
"55 c #71619a",
"56 c #6e49cc",
"57 c #60548a",
"58 c #3b3377",
"59 c #251e53",
"5a c #261f53",
"5b c #5f548a",
"5c c #5232a8",
"5d c #5231a8",
"5e c #3e3081",
"5f c #675b8a",
"60 c #5837b0",
"61 c #6541c1",
"62 c #462996",
"63 c #342c6b",
"64 c #312a67",
"65 c #2f285c",
"66 c #361e0d",
"67 c #393173",
"68 c #3d3467",
"69 c #6e608c",
"6a c #4b3728",
"6b c #6844c5",
"6c c #362e6e",
"6d c #453b6e",
"6e c #5c4b64",
"6f c #c7c4c4",
"70 c #544661",
"71 c #613ebb",
"72 c #402530",
"73 c #201207",
"74 c #261e53",
"75 c #bc9370",
"76 c #2d190b",
"77 c #332a58",
"78 c #2e2166",
"79 c #3a3164",
"7a c #a07a7a",
"7b c #3e2211",
"7c c #e7e7e7",
"7d c #b27669",
"7e c #814757",
"7f c #301a0c",
"80 c #675a81",
"81 c #534983",
"82 c #2e2661",
"83 c #322a5e",
"84 c #594e86",
"85 c #e5e4e4",
"86 c #99369e",
"87 c #3e2311",
"88 c #584d86",
"89 c #2c1e1d",
"8a c #21130b",
"8b c #201109",
"8c c #462225",
"8d c #8a3387",
"8e c #321915",
"8f c #6c6091",
"90 c #443b7b",
"91 c #2f2763",
"92 c #b6897b",
"93 c #6f1f73",
"94 c #471d39",
"95 c #1f1108",
"96 c #4c3f54",
"97 c #b38678",
"98 c #736592",
"99 c #1f1107",
"9a c #69617b",
"9b c #726492",
"9c c #6c1f70",
"9d c #5a1b57",
"9e c #331d0e",
"9f c #231b40",
"a0 c #423870",
"a1 c #742278",
"a2 c #3e2412",
"a3 c #481d3a",
"a4 c #3f367a",
"a5 c #70528a",
"a6 c #6f2070",
"a7 c #301b0d",
"a8 c #46214f",
"a9 c #2d255f",
"aa c #544984",
"ab c #703c81",
"ac c #703d81",
"ad c #661f61",
"ae c #3c2012",
"af c #685b8e",
"b0 c #281214",
"b1 c #393071",
"b2 c #443a7c",
"b3 c #5c1b59",
"b4 c #842a88",
"b5 c #4b4180",
"b6 c #482326",
"b7 c #7d2781",
"b8 c #4f4582",
"b9 c #381c18",
"ba c #45183a",
"bb c #76237b",
"bc c #481e62",
"bd c #22172e",
"be c #241a36",
"bf c #4f3c46",
"c0 c #3c220f",
"c1 c #251409",
"c2 c #655679",
"c3 c #361f0d",
"c4 c #2e190b",
"c5 c #241b44",
"c6 c #601f6d",
"c7 c #651f6f",
"c8 c #6f2c79",
"c9 c #41356d",
"ca c #2f1a0b",
"cb c #8b2e8f",
"cc c #312326",
"cd c #412c27",
"ce c #331c0c",
"cf c #2b180a",
"d0 c #231307",
"d1 c #261914",
"d2 c #5e5173",
"d3 c #211207",
"d4 c #1e1008",
"d5 c #7f318d",
"d6 c #6f317b",
"d7 c #311b0b",
"d8 c #5f4d65",
"d9 c #2f2224",
"da c #3c251b",
"db c #2e2022",
"dc c #493539",
"dd c #47394b",
"de c #483b4d",
"df c #271509",
"e0 c #564456",
"e1 c #301b0b",
"e2 c #706392",
"e3 c #48312c",
"e4 c #46394b",
"00000000000000000000000000000000000000000000000000000000000000000000000000000000000000000000000000000000000000000000000000000000",
"00000000000000000000000000000000000000000000000000000000000000000000000000000000000000000000000000000000000000000000000000000000",
"00000000000000000000000000000000000000000000000000000000000000000000000000000000000000000000000000000000000000000000000000000000",
"00000000000000000000000000000000000000000000000000000000000000000000000000000000000000000000000000000000000000000000000000000000",
"00000000000000000000000000000000000000000000000000000000000000000000000000000000000000000000000000000000000000000000000000000000",
"00000000000000000000000000000000000000000000000000000000000000000000000000000000000000000000000000000000000000000000000000000000",
"00000000000000000000000000000000000000000000000000000000000000000000000000000000000000000000000000000000000000000000000000000000",
"00000000000000000000000000000000000000000000000000000000000000000000000000000000000000000000000000000000000000000000000000000000",
"00000000000000000000000000000000000000000000000000000000000000000000000000000000000000000000000000000000000000000000000000000000",
"00000000000000000000000000000000000000000000000000000000000000000000000000000000000000000000000000000000000000000000000000000000",
"00000000000000000000000000000000000000000000000000000000000000000000000000000000000000000000000000000000000000000000000000000000",
"00000000000000000000000000000000000000000000000000000000000000000000000000000000000000000000000000000000000000000000000000000000",
"00000000000000000000000000000000000000000000000000000000000000000000000000000000000000000000000000000101000000000000000000000000",
"00000000000000000000000000000000000000000000000000000000000000000202030000000000000000000000040501060607000000000000000000000000",
"000000000000000000000000000000000000000000000000000000000000080809090a08000000000000000000000b0c0c0d0e07000000000000000000000000",
"000000000000000000000000000000000000000000000000000000000009090909090909090f0000000000000000101112071314000000000000000000000000",
"000000000000000000000000000000000000000000000000000000151609090909090909091718000000000000191a071b111c1d000000000000000000000000",
"000000000000000000000000000000000000000000000000000000090909090909090909091e1f00000000000011101111111414000000000000000000000000",
"00000000000000000000000000000000000000000000000000200909090909090909090921222324000000000025261427282800000000000000000000000000",
"0000000000000000000000000000000000000000000000000029090909090909090909092a2b2b2c000000000026141400000000000000000000000000000000",
"000000000000000000000000000000000000000000000000002d090909090909090909092a2e2e2f000000301131320000000000000000000000000000000000",
"00000000000000000000000000000000000000000000000000330909090909090909090934353535000000363137000000000000000000000000000000000000",
"0000000000000000000000000000000000000000000000000038380909090909090909383935353a000000111400000000000000000000000000000000000000",
"000000000000000000000000000000000000000000000000003b38383c3d3d3d0909093e3f4035353500412b2b42000000000000000000000000000000000000",
"0000000000000000000000000000000000000000000000000000003838383838090909093f43433543442b2b2b45000000000000000000000000000000000000",
"0000000000000000000000000000000000000000000000000000003838383838460909094743434348492b4a4b4c000000000000000000000000000000000000",
"000000000000000000000000000000000000000000000000000000383838383846090909090f0000004d2b4e0000000000000000000000000000000000000000",
"000000000000000000000000000000000000000000000000000000004f500938510909090909000052534e540000000000000000000000000000000000000000",
"0000000000000000000000000000000000000000000000000000000055090956380909090909565758595a000000000000000000000000000000000000000000",
"0000000000000000000000000000000000000000000000000000000009090909380909090909095b585900000000000000000000000000000000000000000000",
"00000000000000000000000000000000000000000000000000000009090909093d3809095c5d5e58595f00000000000000000000000000000000000000000000",
"00000000000000000000000000000000000000000000000000000009090909096038610938625863590000000000000000000000000000000000000000000000",
"00000000000000000000000000000000000000000000000000000009090909090938383838586465000000000000000000000000000000000000000000000000",
"00000000000000000000000000000000000000000000000000666666660909090909383858675968000000000000000000000000000000000000000000000000",
"000000000000000000000000000000000000000000696666666666666a660909096b3838586c596d000000000000000000000000000000000000000000000000",
"0000000000000000000000000000000000000000006e6666141414666f6609093838383859590000000000000000000000000000000000000000000000000000",
"000000000000000000000000000000000000000000701414141414666f6671383838727374590000000000000000000000000000000000000000000000000000",
"000000000000000000000000000000000000000000701414141414666f6638383875767778597900000000000000000000000000000000000000000000000000",
"000000000000000000000000000000000000000000701414141414666f6638387a7b140059595900000000000000000000000000000000000000000000000000",
"000000000000000000000000000000000000000000701414141414667c667d7d7e7f808158825983840000000000000000000000000000000000000000000000",
"00000000000000000000000000000000000000000070141414141466856686868714000058585859598800000000000000000000000000000000000000000000",
"000000000000000000000000000000000000000000008989898a141c8b8c868d8e000000008f905959912b922b00000000000000000000000000000000000000",
"00000000000000000000000000000000000000000000000000931414141494959600000000000000004e4e972b98000000000000000000000000000000000000",
"0000000000000000000000000000000000000000000000000093931414141d999a0000000000000000004e4e2b9b000000000000000000000000000000000000",
"000000000000000000000000000000000000000000000000939393939c9d9e9fa000000000000000000000000000000000000000000000000000000000000000",
"00000000000000000000000000000000000000000000000093939393a1a2a359a4a4000000000000000000000000000000000000000000000000000000000000",
"0000000000000000000000000000000000000000000000a593939393a6a7a859a9a4aa0000000000000000000000000000000000000000000000000000000000",
"0000000000000000000000000000000000000000000000ab939393937b95865959a4a4a400000000000000000000000000000000000000000000000000000000",
"0000000000000000000000000000000000000000000000ac939393adae8686595959a4a4af000000000000000000000000000000000000000000000000000000",
"0000000000000000000000000000000000000000000000009393937bb08686595959b1a4a4000000000000000000000000000000000000000000000000000000",
"0000000000000000000000000000000000000000000000009393939993938659595959a4a4b20000000000000000000000000000000000000000000000000000",
"00000000000000000000000000000000000000000000000093937bb39393b45959595959a4a4b500000000000000000000000000000000000000000000000000",
"00000000000000000000000000000000000000000000000000b699939393b7865959595959a4a4b8000000000000000000000000000000000000000000000000",
"00000000000000000000000000000000000000000000000000b9ba939393bb86bc595959bdbea4a4000000000000000000000000000000000000000000000000",
"0000000000000000000000000000000000000000000000bfc0c1599393939393930059146666a4a4000000000000000000000000000000000000000000000000",
"0000000000000000000000000000000000c2666666666666c3c4c559c6c6c7c800000014666666c9000000000000000000000000000000000000000000000000",
"0000000000000000000000000000000000666666666666ca141414595959cb000000cc1466666600000000000000000000000000000000000000000000000000",
"00000000000000000000000000000000cd6666ce141414cf14141414595993000000cc1466666600000000000000000000000000000000000000000000000000",
"00000000000000000000000000000000cdd014d1d2d2c0d314141414d4d5d600000014d766660000000000000000000000000000000000000000000000000000",
"000000000000000000000000000000003214000000d8140000d91414270000000000146666da0000000000000000000000000000000000000000000000000000",
"00000000000000000000000000000000db14000000dcdd00000000000000000000dedf6666e00000000000000000000000000000000000000000000000000000",
"00000000000000000000000000000000000000001114000000000000000000000014e166e2000000000000000000000000000000000000000000000000000000",
"0000000000000000000000000000000000000000e3e4000000000000000000000014146666000000000000000000000000000000000000000000000000000000",
"00000000000000000000000000000000000000000000000000000000000000000000141466660000000000000000000000000000000000000000000000000000",
};
