/* XPM */
static char *image[] = {
"64 64 242 2",
"00 c #ffffff",
"01 c #c1fffa",
"02 c #716199",
"03 c #716394",
"04 c #6d5f88",
"05 c #bcfefa",
"06 c #b2fbfa",
"07 c #70eafd",
"08 c #6e4aca",
"09 c #6e49cd",
"0a c #6e4acb",
"0b c #3d3324",
"0c c #39dbff",
"0d c #3aa5b9",
"0e c #3c2a19",
"0f c #33daff",
"10 c #6e4cc7",
"11 c #3e2413",
"12 c #34caea",
"13 c #3d2310",
"14 c #28707d",
"15 c #6f52ba",
"16 c #6f51bd",
"17 c #7651c5",
"18 c #c2a071",
"19 c #3c2210",
"1a c #3b4c45",
"1b c #281609",
"1c c #e0b460",
"1d c #712334",
"1e c #1e1006",
"1f c #705ba5",
"20 c #9e76a2",
"21 c #c89c65",
"22 c #a4b5a5",
"23 c #7c4b5d",
"24 c #2f1a0b",
"25 c #3f313e",
"26 c #594c6b",
"27 c #6f4fc1",
"28 c #e7bb62",
"29 c #bb8f82",
"2a c #8d676d",
"2b c #1f1006",
"2c c #6e4ec2",
"2d c #be968b",
"2e c #957378",
"2f c #48312c",
"30 c #39210f",
"31 c #271916",
"32 c #48299a",
"33 c #e7bb61",
"34 c #d4cecd",
"35 c #261508",
"36 c #472899",
"37 c #d4cecc",
"38 c #817573",
"39 c #251408",
"3a c #503598",
"3b c #48299b",
"3c c #5332a9",
"3d c #623fbd",
"3e c #a79d9a",
"3f c #b5acaa",
"40 c #8d748d",
"41 c #8d676c",
"42 c #716492",
"43 c #a79d9b",
"44 c #815d4d",
"45 c #726492",
"46 c #5d3ab6",
"47 c #8f7ab0",
"48 c #7b6a61",
"49 c #7b594b",
"4a c #ad7f72",
"4b c #9a695b",
"4c c #735449",
"4d c #7b6585",
"4e c #4c2f99",
"4f c #4c2ca0",
"50 c #5a38b2",
"51 c #6e6292",
"52 c #3b3377",
"53 c #93645a",
"54 c #7a6587",
"55 c #71619a",
"56 c #251e53",
"57 c #6a46c8",
"58 c #4e4475",
"59 c #462996",
"5a c #342c6b",
"5b c #5b5080",
"5c c #5837b0",
"5d c #3a3275",
"5e c #53497a",
"5f c #68597f",
"60 c #361e0d",
"61 c #6642b0",
"62 c #383072",
"63 c #30285c",
"64 c #5c4b64",
"65 c #c7c4c4",
"66 c #281f5a",
"67 c #613ebb",
"68 c #26150a",
"69 c #e8bc61",
"6a c #544661",
"6b c #3f2511",
"6c c #4e1a44",
"6d c #492d76",
"6e c #2e2166",
"6f c #3a3164",
"70 c #43264d",
"71 c #1f1107",
"72 c #5e5173",
"73 c #d6d4d4",
"74 c #b27669",
"75 c #604422",
"76 c #421737",
"77 c #715b8f",
"78 c #534983",
"79 c #2e2661",
"7a c #322a5e",
"7b c #594e86",
"7c c #e5e4e4",
"7d c #99369e",
"7e c #3e2412",
"7f c #2d190c",
"80 c #584d86",
"81 c #594b69",
"82 c #c4c2c0",
"83 c #943596",
"84 c #392110",
"85 c #511a4b",
"86 c #6c6091",
"87 c #443b7b",
"88 c #2f2763",
"89 c #b6897b",
"8a c #6f1f73",
"8b c #1e1007",
"8c c #1f1108",
"8d c #704585",
"8e c #b38678",
"8f c #736592",
"90 c #321c0c",
"91 c #3f367a",
"92 c #69617b",
"93 c #583071",
"94 c #6c1f70",
"95 c #3d2210",
"96 c #321422",
"97 c #823695",
"98 c #423870",
"99 c #4c4280",
"9a c #685c8f",
"9b c #4f1e65",
"9c c #692068",
"9d c #332b68",
"9e c #706393",
"9f c #695c8f",
"a0 c #5a4f87",
"a1 c #412364",
"a2 c #53203f",
"a3 c #57224d",
"a4 c #3c3376",
"a5 c #61558b",
"a6 c #5f548a",
"a7 c #3e2211",
"a8 c #3a2010",
"a9 c #3f3679",
"aa c #5a4e87",
"ab c #662374",
"ac c #351525",
"ad c #582974",
"ae c #272056",
"af c #3a3273",
"b0 c #554a85",
"b1 c #685c8e",
"b2 c #7d2781",
"b3 c #65598d",
"b4 c #3a2221",
"b5 c #261509",
"b6 c #79247d",
"b7 c #3f2364",
"b8 c #362e6c",
"b9 c #4b4180",
"ba c #251409",
"bb c #862c8b",
"bc c #706392",
"bd c #554353",
"be c #3a2b46",
"bf c #302033",
"c0 c #241825",
"c1 c #852b89",
"c2 c #6d6090",
"c3 c #493f71",
"c4 c #392633",
"c5 c #3e2c3e",
"c6 c #3c2211",
"c7 c #7f2e7e",
"c8 c #70548c",
"c9 c #594e7e",
"ca c #211629",
"cb c #6f6290",
"cc c #311b0b",
"cd c #291d2f",
"ce c #3a2734",
"cf c #201316",
"d0 c #78247c",
"d1 c #6f2c79",
"d2 c #241b44",
"d3 c #706290",
"d4 c #2b180b",
"d5 c #70558c",
"d6 c #64265d",
"d7 c #65587e",
"d8 c #36282e",
"d9 c #625579",
"da c #564864",
"db c #5f4d65",
"dc c #251509",
"dd c #7b287c",
"de c #3c2e38",
"df c #301b0b",
"e0 c #64577e",
"e1 c #3c2f3a",
"e2 c #704685",
"e3 c #443747",
"e4 c #6b5d88",
"e5 c #47394b",
"e6 c #574452",
"e7 c #362522",
"e8 c #5a4d6c",
"e9 c #271508",
"ea c #6a5b82",
"eb c #3b2e38",
"ec c #6b5d85",
"ed c #2f2224",
"ee c #311b0c",
"ef c #645576",
"f0 c #322428",
"f1 c #201106",
"00000000000000000000000000000000000000000000000000000000000000000000000000000000000000000000000000000000000000000000000000000000",
"00000000000000000000000000000000000000000000000000000000000000000000000000000000000000000000000000000000000000000000000000000000",
"00000000000000000000000000000000000000000000000000000000000000000000000000000000000000000000000000000000000000000000000000000000",
"00000000000000000000000000000000000000000000000000000000000000000000000000000000000000000000000000000000000000000000000000000000",
"00000000000000000000000000000000000000000000000000000000000000000000000000000000000000000000000000000000000000000000000000000000",
"00000000000000000000000000000000000000000000000000000000000000000000000000000000000000000000000000000000000000000000000000000000",
"00000000000000000000000000000000000000000000000000000000000000000000000000000000000000000000000000000000000000000000000000000000",
"00000000000000000000000000000000000000000000000000000000000000000000000000000000000000000000000000000000000000000000000000000000",
"00000000000000000000000000000000000000000000000000000000000000000000000000000000000000000000000000000000000000000000000000000000",
"00000000000000000000000000000000000000000000000000000000000000000000000000000000000000000000000000000000000000000000000000000000",
"00000000000000000000000000000000000000000000000000000000000000000000000000000000000000000000000000000000000000000000000000000000",
"00000000000000000000000000000000000000000000000000000000000000000000000000000000000000000000000000000000000000000000000000000000",
"00000000000000000000000000000000000000000000000000000000000000000000000000000000000000000000000000010100000000000000000000000000",
"00000000000000000000000000000000000000000000000000000000000000000202030000000000000000000000040105060700000000000000000000000000",
"000000000000000000000000000000000000000000000000000000000000080809090a08000000000000000000000b0c0d0e0f00000000000000000000000000",
"0000000000000000000000000000000000000000000000000000000000090909090909090910000000000000001112130f131400000000000000000000000000",
"000000000000000000000000000000000000000000000000000000151609090909090909091718000000000000190f131a131b00000000000000000000000000",
"000000000000000000000000000000000000000000000000000000090909090909090909091c1d000000000013131213131e1e00000000000000000000000000",
"000000000000000000000000000000000000000000000000001f0909090909090909090920212223000000001e13241e25252600000000000000000000000000",
"0000000000000000000000000000000000000000000000000027090909090909090909092829292a000000001e2b1e0000000000000000000000000000000000",
"000000000000000000000000000000000000000000000000002c09090909090909090909282d2d2e0000002f3031000000000000000000000000000000000000",
"00000000000000000000000000000000000000000000000000320909090909090909090933343434000000351e00000000000000000000000000000000000000",
"00000000000000000000000000000000000000000000000000363609090909090909093637343438000013390000000000000000000000000000000000000000",
"000000000000000000000000000000000000000000000000003a36363b3c3c3c0909093d3e3f3434344029294142000000000000000000000000000000000000",
"0000000000000000000000000000000000000000000000000000003636363636090909093e434334434429292945000000000000000000000000000000000000",
"000000000000000000000000000000000000000000000000000000363636363646090909474343434849294a4b45000000000000000000000000000000000000",
"00000000000000000000000000000000000000000000000000000036363636364609090909100000134c4b4d0000000000000000000000000000000000000000",
"000000000000000000000000000000000000000000000000000000004e4f0936500909090909005152534b540000000000000000000000000000000000000000",
"00000000000000000000000000000000000000000000000000000000550909363609090909090052565642000000000000000000000000000000000000000000",
"00000000000000000000000000000000000000000000000000000000090909363636090909570052565800000000000000000000000000000000000000000000",
"0000000000000000000000000000000000000000000000000000000909090909363609093659525a5b0000000000000000000000000000000000000000000000",
"00000000000000000000000000000000000000000000000000000009090909093636093636525256000000000000000000000000000000000000000000000000",
"00000000000000000000000000000000000000000000000000000009090909095c363636525d565e000000000000000000000000000000000000000000000000",
"00000000000000000000000000000000000000000000000000000009090909090936363652565600000000000000000000000000000000000000000000000000",
"000000000000000000000000000000000000000000005f5f5f606060606109090936365262566300000000000000000000000000000000000000000000000000",
"00000000000000000000000000000000000000000064606060606060656009093636365656660000000000000000000000000000000000000000000000000000",
"0000000000000000000000000000000000000000006460601e1e1e60656067363636686956560000000000000000000000000000000000000000000000000000",
"0000000000000000000000000000000000000000006a1e1e1e1e1e6065603636366b6c6d6e566f00000000000000000000000000000000000000000000000000",
"0000000000000000000000000000000000000000006a1e1e1e1e1e60656036367071720056565600000000000000000000000000000000000000000000000000",
"0000000000000000000000000000000000000000006a1e1e1e1e1e6073607474757677785279567a7b0000000000000000000000000000000000000000000000",
"0000000000000000000000000000000000000000006a1e1e1e1e1e607c607d7e7f00000052525256568000000000000000000000000000000000000000000000",
"000000000000000000000000000000000000000000811e1e1e1e1e60826083848500000000868756568829892900000000000000000000000000000000000000",
"000000000000000000000000000000000000000000000000008a1e1e1e1e8b8c8d00000000000000004b4b8e298f000000000000000000000000000000000000",
"000000000000000000000000000000000000000000000000008a8a1e1e1e9091920000000000000000004b4b2945000000000000000000000000000000000000",
"0000000000000000000000000000000000000000000000938a8a8a8a9495969798999a0000000000000000000000000000000000000000000000000000000000",
"00000000000000000000000000000000000000000000009b8a8a8a8a9c8c7d7d9d9191919e000000000000000000000000000000000000000000000000000000",
"0000000000000000000000000000000000000000009fa0a18a8a8a8aa2a37d7d569da4919191a0a5000000000000000000000000000000000000000000000000",
"000000000000000000000000000000000000000000a691918a8a8aa7a87d7d7d56565656a9919191910000000000000000000000000000000000000000000000",
"000000000000000000000000000000000000000000aa9191ab8a8aa7ac8a7d7dad56565656aeaf9191b0b1000000000000000000000000000000000000000000",
"000000000000000000000000000000000000000000919191918a8a718a8ab27d7d56565656565656919191b30000000000000000000000000000000000000000",
"000000000000000000000000000000000000000091919191918aa78a8a8ab27d7d7d565656565656569191910000000000000000000000000000000000000000",
"00000000000000000000000000000000000000009191919191b4b58a8a8a8ab67d7db7565656565656b89191b900000000000000000000000000000000000000",
"00000000000000000000000000000000000000009191919191ba8a8a8a8a8a8abb7d7d56565656565656919191bc000000000000000000000000000000000000",
"000000000000000000000000000000000000bdbdbe919191bfc08a8a8a8a8a8a8ac1c10000c2c3565656569191bc000000000000000000000000000000000000",
"000000000000000000000000606060606060606060c491c5c6c78a8a8a8a8a8a8a8ac800000000c956ca1e6060cb000000000000000000000000000000000000",
"0000000000000000000000606060606060cccc241ecd91cecfd00000d1d1d1d10000000000000000d21ecc6060d3000000000000000000000000000000000000",
"000000000000000000005f6060601e1e1e1e1e1e1e1e91d47dd50000000000000000000000000000001e1e6060d3000000000000000000000000000000000000",
"000000000000000000005f601e1e1e1e1e1e1e1e1e1ec6d68a000000000000000000000000000000001e1e606060000000000000000000000000000000000000",
"00000000000000000000d71ed8720000d97272da1edbdcddc800000000000000000000000000000000de1edf6060000000000000000000000000000000000000",
"00000000000000000000e01ee10000000000000000907de20000000000000000000000000000000000e31edf6060000000000000000000000000000000000000",
"00000000000000000000e4e50000000000000000e6e700000000000000000000000000000000000000e8e5e96060000000000000000000000000000000000000",
"00000000000000000000000000000000000000ea1eeb0000000000000000000000000000000000000000001e6060600000000000000000000000000000000000",
"00000000000000000000000000000000000000eced000000000000000000000000000000000000000000001eee6060ef00000000000000000000000000000000",
"00000000000000000000000000000000000000000000000000000000000000000000000000000000000000f01e1ef16060000000000000000000000000000000",
};
