/* XPM */
static char *image[] = {
"64 64 204 2",
"00 c #ffffff",
"01 c #716199",
"02 c #6e49cd",
"03 c #756c98",
"04 c #79749d",
"05 c #736896",
"06 c #706199",
"07 c #6e4aca",
"08 c #8891b1",
"09 c #bef9f6",
"0a c #bffcf8",
"0b c #c1fffa",
"0c c #6283af",
"0d c #6e4cc7",
"0e c #3d2310",
"0f c #33daff",
"10 c #6182af",
"11 c #c09684",
"12 c #b07f5a",
"13 c #6e608b",
"14 c #369fb2",
"15 c #3a5e5c",
"16 c #3a5e5d",
"17 c #5d5f83",
"18 c #e7bb62",
"19 c #d4cecd",
"1a c #712334",
"1b c #36a2b6",
"1c c #635371",
"1d c #6e4cc5",
"1e c #a8796a",
"1f c #a37a6b",
"20 c #9a695b",
"21 c #5d4b60",
"22 c #2c180a",
"23 c #396f74",
"24 c #361f0e",
"25 c #1e1006",
"26 c #5b4e6f",
"27 c #bb8f82",
"28 c #201209",
"29 c #6945c7",
"2a c #6d48cb",
"2b c #d4cecc",
"2c c #b4acba",
"2d c #21130b",
"2e c #472899",
"2f c #48299a",
"30 c #5030a6",
"31 c #e4b862",
"32 c #837775",
"33 c #7d717f",
"34 c #3c2210",
"35 c #1f1006",
"36 c #6f6290",
"37 c #706291",
"38 c #e8bc61",
"39 c #d3cdcd",
"3a c #251712",
"3b c #675694",
"3c c #a79d9b",
"3d c #a89e9d",
"3e c #cac3c2",
"3f c #55424e",
"40 c #564966",
"41 c #5d3ab6",
"42 c #a98586",
"43 c #736593",
"44 c #5735ae",
"45 c #c2a983",
"46 c #918598",
"47 c #867b96",
"48 c #a8796c",
"49 c #966960",
"4a c #9b6a5c",
"4b c #966860",
"4c c #4c2ca0",
"4d c #6a5d8f",
"4e c #80647d",
"4f c #b68a7d",
"50 c #956862",
"51 c #60548a",
"52 c #3b3377",
"53 c #261f53",
"54 c #7b6585",
"55 c #716492",
"56 c #251e53",
"57 c #633fbe",
"58 c #5231a8",
"59 c #393174",
"5a c #2b245d",
"5b c #42396b",
"5c c #4e2ea3",
"5d c #3e307f",
"5e c #312a67",
"5f c #463c6e",
"60 c #361e0d",
"61 c #5837b0",
"62 c #6e608c",
"63 c #4b3728",
"64 c #6b46c9",
"65 c #2a1f5d",
"66 c #423555",
"67 c #8b3389",
"68 c #3a210f",
"69 c #5c4b64",
"6a c #c7c4c4",
"6b c #c39a6e",
"6c c #6f1f73",
"6d c #3d2311",
"6e c #261814",
"6f c #544661",
"70 c #99369e",
"71 c #261914",
"72 c #886382",
"73 c #904a6e",
"74 c #784f84",
"75 c #4b3534",
"76 c #5a4c6c",
"77 c #a5656b",
"78 c #49322e",
"79 c #706392",
"7a c #e7e7e7",
"7b c #b27669",
"7c c #77237b",
"7d c #703e81",
"7e c #39251d",
"7f c #e5e4e4",
"80 c #704585",
"81 c #251408",
"82 c #2c1e1d",
"83 c #321c0c",
"84 c #32161f",
"85 c #462225",
"86 c #923297",
"87 c #6b3f79",
"88 c #5e5173",
"89 c #2f131d",
"8a c #54404a",
"8b c #332a23",
"8c c #5e5e5e",
"8d c #8e3093",
"8e c #6c1f70",
"8f c #231a3f",
"90 c #292147",
"91 c #351e0d",
"92 c #403240",
"93 c #884a99",
"94 c #2d203c",
"95 c #4c3e54",
"96 c #301e26",
"97 c #211629",
"98 c #4f4576",
"99 c #3f367a",
"9a c #321c0d",
"9b c #652b7c",
"9c c #6e1f71",
"9d c #291d2d",
"9e c #4e1e65",
"9f c #691f67",
"a0 c #532832",
"a1 c #2c1512",
"a2 c #371e5b",
"a3 c #913e9c",
"a4 c #271213",
"a5 c #332b69",
"a6 c #8f3194",
"a7 c #3c251b",
"a8 c #554353",
"a9 c #7f2b7f",
"aa c #6d2d5a",
"ab c #44173a",
"ac c #572a76",
"ad c #622b7a",
"ae c #281e44",
"af c #661f6f",
"b0 c #362e6d",
"b1 c #332b68",
"b2 c #675a83",
"b3 c #221207",
"b4 c #311b0b",
"b5 c #3c220f",
"b6 c #2a235b",
"b7 c #2c255e",
"b8 c #3a3172",
"b9 c #302964",
"ba c #403340",
"bb c #241408",
"bc c #615377",
"bd c #231b43",
"be c #221939",
"bf c #3d3061",
"c0 c #473439",
"c1 c #251d4f",
"c2 c #2c2459",
"c3 c #605484",
"c4 c #2a1d1b",
"c5 c #281609",
"c6 c #574452",
"c7 c #3c2c30",
"c8 c #6c5f8b",
"c9 c #645474",
"ca c #4d4056",
"cb c #554352",
"00000000000000000000000000000000000000000000000000000000000000000000000000000000000000000000000000000000000000000000000000000000",
"00000000000000000000000000000000000000000000000000000000000000000000000000000000000000000000000000000000000000000000000000000000",
"00000000000000000000000000000000000000000000000000000000000000000000000000000000000000000000000000000000000000000000000000000000",
"00000000000000000000000000000000000000000000000000000000000000000000000000000000000000000000000000000000000000000000000000000000",
"00000000000000000000000000000000000000000000000000000000000000000000000000000000000000000000000000000000000000000000000000000000",
"00000000000000000000000000000000000000000000000000000000000000000000000000000000000000000000000000000000000000000000000000000000",
"00000000000000000000000000000000000000000000000000000000000000000000000000000000000000000000000000000000000000000000000000000000",
"00000000000000000000000000000000000000000000000000000000000000000000000000000000000000000000000000000000000000000000000000000000",
"00000000000000000000000000000000000000000000000000000000000000000000000000000000000000000000000000000000000000000000000000000000",
"00000000000000000000000000000000000000000000000000000000000000000000000000000000000000000000000000000000000000000000000000000000",
"00000000000000000000000000000000000000000000000000000000000000000000000000000000000000000000000000000000000000000000000000000000",
"00000000000000000000000000000000000000000000000000000000000000000000000000000000000000000000000000000000000000000000000000000000",
"00000000000000000000000000000000000000000000000000000000000000000000000000000000000000000000000000000000000000000000000000000000",
"00000000000000000000000000000000000000000000000000000000000101020202010100000000000000000000000000000304050000000000000000000000",
"00000000000000000000000000000000000000000000000000000000060202020202020207000000000000000000000008090a0b0c0000000000000000000000",
"000000000000000000000000000000000000000000000000000000020202020202020202020d0000000000000000000e0b0b0f0f100000000000000000000000",
"000000000000000000000000000000000000000000000000000000020202020202020202111200000000000000001314150f160f170000000000000000000000",
"00000000000000000000000000000000000000000000000000000202020202020202020218191a000000000000000e0f1b0f0e0e1c0000000000000000000000",
"000000000000000000000000000000000000000000000000001d020202020202020202021e1f2000000000000021220f230e2425260000000000000000000000",
"000000000000000000000000000000000000000000000000020202020202020202020202272720000000000000280e0e25252525000000000000000000000000",
"000000000000000000000000000000000000000000000000292a020202020202020202292b19192c0000000000280e252d000000000000000000000000000000",
"0000000000000000000000000000000000000000000000002e2f2f02020202020202303119193233000000000034353637000000000000000000000000000000",
"000000000000000000000000000000000000000000000000002e2e2e2e2e0202022e2e3839191919000000000e353a0000000000000000000000000000000000",
"000000000000000000000000000000000000000000000000003b2e2e2e2e2e2e2e2e2e383c3d193e0000003f0e40000000000000000000000000000000000000",
"0000000000000000000000000000000000000000000000000000002e2e2e2e2e410202383c3c3c3c000000422743000000000000000000000000000000000000",
"0000000000000000000000000000000000000000000000000000002e2e2e2e2e0202024445464647000000272748490000000000000000000000000000000000",
"0000000000000000000000000000000000000000000000000000002e2e02022e410202020200000000002727274a4b0000000000000000000000000000000000",
"000000000000000000000000000000000000000000000000000000004c02022e41020202020d00004d4e274f2050000000000000000000000000000000000000",
"000000000000000000000000000000000000000000000000000000000202022e2e02020202020051525320545500000000000000000000000000000000000000",
"000000000000000000000000000000000000000000000000000000020202022e2e02020202025252565620000000000000000000000000000000000000000000",
"00000000000000000000000000000000000000000000000000000002020202572e58020252595a56565b00000000000000000000000000000000000000000000",
"00000000000000000000000000000000000000000000000000000002020202022e2e025252565656560000000000000000000000000000000000000000000000",
"00000000000000000000000000000000000000000000000000000202020202025c2e5d5e5656565f000000000000000000000000000000000000000000000000",
"0000000000000000000000000000000000000000000000000060606060020202612e565656562500000000000000000000000000000000000000000000000000",
"0000000000000000000000000000000000000000006260606060606063600202642e656667680000000000000000000000000000000000000000000000000000",
"000000000000000000000000000000000000000000696060252525606a60022e2e2e6b6c6d6e0000000000000000000000000000000000000000000000000000",
"0000000000000000000000000000000000000000006f2525252525606a602e2e2e2e6b7025710000000000000000000000000000000000000000000000000000",
"0000000000000000000000000000000000000000006f2525252525606a602e2e7273747576000000000000000000000000000000000000000000000000000000",
"0000000000000000000000000000000000000000006f2525252525606a602e2e776c780e79000000000000000000000000000000000000000000000000000000",
"0000000000000000000000000000000000000000006f2525252525607a607b7b7c7d7e2500000000000000000000000000000000000000000000000000000000",
"0000000000000000000000000000000000000000006f2525252525607f6070708000810000000000000000000000000000000000000000000000000000000000",
"0000000000000000000000000000000000000000000082828225258384857086870e880000000000000000000000000000000000000000000000000000000000",
"000000000000000000000000000000000000000000000000008925252525706c8a25000000000000000000000000000000000000000000000000000000000000",
"000000000000000000000000000000000000000000000000706c6c2525258b8c2200000000000000000000000000000000000000000000000000000000000000",
"0000000000000000000000000000000000000000000000007070708d8e8f90919200000000000000000000000000000000000000000000000000000000000000",
"000000000000000000000000000000000000000000000093707070706c5694259500000000000000000000000000000000000000000000000000000000000000",
"000000000000000000000000000000000000000000000093707070706c5696979800000000000000000000000000000000000000000000000000000000000000",
"000000000000000000000000000000000000000000000093707070706c999a569b00000000000000000000000000000000000000000000000000000000000000",
"000000000000000000000000000000000000000000000093707070709c0e9d569e00000000000000000000000000000000000000000000000000000000000000",
"000000000000000000000000000000000000000000000093707070709f2599569e70000000000000000000000000000000000000000000000000000000000000",
"000000000000000000000000000000000000000000000000707070700e9999569e70000000000000000000000000000000000000000000000000000000000000",
"000000000000000000000000000000000000000000000000007070a0a199995656a2a30000000000000000000000000000000000000000000000000000000000",
"0000000000000000000000000000000000000000000000000070700ea4999956a556a60000000000000000000000000000000000000000000000000000000000",
"00000000000000000000000000000000a76060a8a860606060a9aaab6c999956a599acad00000000000000000000000000000000000000000000000000000000",
"00000000000000000000000000000060602525606060606060ae0e6caf99b056b199999900000000000000000000000000000000000000000000000000000000",
"0000000000000000000000000000b260b32525252581b4b4b4b525b6b7b85656b999999900000000000000000000000000000000000000000000000000000000",
"0000000000000000000000000000ba25252525252525252525bb5699565656565699999900000000000000000000000000000000000000000000000000000000",
"0000000000000000000000000000ba25bc000025252525250ebd56565656be252560bf0000000000000000000000000000000000000000000000000000000000",
"0000000000000000000000000000000000000000008888c081c15656c2c3c425c560600000000000000000000000000000000000000000000000000000000000",
"00000000000000000000000000000000000000000000000e25000000002525256060600000000000000000000000000000000000000000000000000000000000",
"00000000000000000000000000000000000000000000c6c700000000c825b3606060c90000000000000000000000000000000000000000000000000000000000",
"000000000000000000000000000000000000000000000eca00000000252525606060000000000000000000000000000000000000000000000000000000000000",
"000000000000000000000000000000000000000000cb250000000000252525606000000000000000000000000000000000000000000000000000000000000000",
"00000000000000000000000000000000000000000083000000000000252525256060c90000000000000000000000000000000000000000000000000000000000",
};
