/* XPM */
static char *image[] = {
"64 64 245 2",
"00 c #ffffff",
"01 c #7059a9",
"02 c #6e49cd",
"03 c #705e9f",
"04 c #716198",
"05 c #79749d",
"06 c #6e4aca",
"07 c #e3b765",
"08 c #bef9f6",
"09 c #c1fffa",
"0a c #3eddff",
"0b c #e7bb62",
"0c c #966257",
"0d c #82968a",
"0e c #57e3fe",
"0f c #33daff",
"10 c #6f52ba",
"11 c #b3845d",
"12 c #a88c80",
"13 c #8d524e",
"14 c #4d383a",
"15 c #387d85",
"16 c #3a5e5c",
"17 c #35aec6",
"18 c #3d2310",
"19 c #25565c",
"1a c #bb8f82",
"1b c #9a695b",
"1c c #61506b",
"1d c #3a524e",
"1e c #6e4cc5",
"1f c #c5a89f",
"20 c #c5a8a0",
"21 c #b19188",
"22 c #8c81a3",
"23 c #4d3b45",
"24 c #35b4cd",
"25 c #301b0c",
"26 c #1e1006",
"27 c #472899",
"28 c #d4cecc",
"29 c #d4cecd",
"2a c #b4acba",
"2b c #271609",
"2c c #2d190b",
"2d c #6e618d",
"2e c #623fbd",
"2f c #6945c7",
"30 c #4f2ea3",
"31 c #e8bc61",
"32 c #8b7f7e",
"33 c #867a87",
"34 c #39210f",
"35 c #271a16",
"36 c #706293",
"37 c #48299a",
"38 c #a89e9c",
"39 c #aca3a1",
"3a c #3e2413",
"3b c #331d0d",
"3c c #6f6290",
"3d c #503598",
"3e c #a79d9b",
"3f c #c5bebd",
"40 c #6c5e88",
"41 c #645295",
"42 c #785588",
"43 c #a79d9a",
"44 c #9b9099",
"45 c #4b3534",
"46 c #5f5275",
"47 c #e7bb61",
"48 c #a48287",
"49 c #584196",
"4a c #5735ae",
"4b c #5e3bb7",
"4c c #7058ab",
"4d c #b5887b",
"4e c #463d7d",
"4f c #3b3377",
"50 c #5d3ab6",
"51 c #6e4cc7",
"52 c #b98e82",
"53 c #b18376",
"54 c #5a38b2",
"55 c #6b5f90",
"56 c #b68a7d",
"57 c #956862",
"58 c #251e53",
"59 c #6e49cc",
"5a c #97675b",
"5b c #966960",
"5c c #716492",
"5d c #29225a",
"5e c #544984",
"5f c #2a235c",
"60 c #524883",
"61 c #5837b0",
"62 c #4f2fa5",
"63 c #4a417f",
"64 c #2b245d",
"65 c #706393",
"66 c #574659",
"67 c #31233e",
"68 c #2c1e35",
"69 c #361e0d",
"6a c #56367a",
"6b c #6441c0",
"6c c #412d88",
"6d c #312a67",
"6e c #463c6e",
"6f c #665a8a",
"70 c #5c4b64",
"71 c #c7c4c4",
"72 c #393173",
"73 c #4e4475",
"74 c #624f62",
"75 c #321c0c",
"76 c #5f3e91",
"77 c #512c93",
"78 c #261f54",
"79 c #30285c",
"7a c #2f2037",
"7b c #6e4a3d",
"7c c #a07a7a",
"7d c #6f1f73",
"7e c #70548c",
"7f c #544661",
"80 c #a5656b",
"81 c #e0dfdf",
"82 c #904a6e",
"83 c #7c2681",
"84 c #70518a",
"85 c #6d5f89",
"86 c #261509",
"87 c #615479",
"88 c #e5e4e4",
"89 c #99369e",
"8a c #704585",
"8b c #615477",
"8c c #8c8681",
"8d c #862c8b",
"8e c #5a4759",
"8f c #884a99",
"90 c #381826",
"91 c #3d2311",
"92 c #261814",
"93 c #775c95",
"94 c #2b1218",
"95 c #332a23",
"96 c #53514f",
"97 c #68597d",
"98 c #7f5497",
"99 c #706392",
"9a c #661f6f",
"9b c #383357",
"9c c #5e5e5e",
"9d c #49322e",
"9e c #8f429b",
"9f c #802885",
"a0 c #381e5b",
"a1 c #85358e",
"a2 c #281810",
"a3 c #5b4e6f",
"a4 c #765e94",
"a5 c #3f367a",
"a6 c #4e1e65",
"a7 c #864b99",
"a8 c #4d1e64",
"a9 c #362d6c",
"aa c #372a53",
"ab c #2f1a0b",
"ac c #754282",
"ad c #812985",
"ae c #351e5a",
"af c #3e2b3f",
"b0 c #5e1f6c",
"b1 c #785c95",
"b2 c #913296",
"b3 c #621f6d",
"b4 c #3a3273",
"b5 c #3e3367",
"b6 c #2c180a",
"b7 c #2e2761",
"b8 c #785b95",
"b9 c #451e61",
"ba c #2a235b",
"bb c #302546",
"bc c #6e1f73",
"bd c #953b9d",
"be c #342c69",
"bf c #685c8b",
"c0 c #2d1f3c",
"c1 c #953a9d",
"c2 c #442f2d",
"c3 c #4a3d70",
"c4 c #4b4180",
"c5 c #383070",
"c6 c #362e6d",
"c7 c #371e5b",
"c8 c #5e5383",
"c9 c #311d18",
"ca c #231a40",
"cb c #3b3273",
"cc c #1f1319",
"cd c #431e26",
"ce c #701f74",
"cf c #5b4a62",
"d0 c #615585",
"d1 c #321c0d",
"d2 c #3c251a",
"d3 c #5a495e",
"d4 c #2b170a",
"d5 c #3d3477",
"d6 c #322b67",
"d7 c #695c8c",
"d8 c #6e608b",
"d9 c #2e1a0b",
"da c #544762",
"db c #5b5080",
"dc c #493f71",
"dd c #402b25",
"de c #6b5c83",
"df c #311b0b",
"e0 c #342c5f",
"e1 c #675779",
"e2 c #655679",
"e3 c #281a16",
"e4 c #312326",
"e5 c #5e5173",
"e6 c #62557a",
"e7 c #231307",
"e8 c #48312c",
"e9 c #201106",
"ea c #564455",
"eb c #36221a",
"ec c #47394b",
"ed c #1f1106",
"ee c #504054",
"ef c #241408",
"f0 c #382b33",
"f1 c #361f0e",
"f2 c #2f2224",
"f3 c #36282f",
"f4 c #533f48",
"00000000000000000000000000000000000000000000000000000000000000000000000000000000000000000000000000000000000000000000000000000000",
"00000000000000000000000000000000000000000000000000000000000000000000000000000000000000000000000000000000000000000000000000000000",
"00000000000000000000000000000000000000000000000000000000000000000000000000000000000000000000000000000000000000000000000000000000",
"00000000000000000000000000000000000000000000000000000000000000000000000000000000000000000000000000000000000000000000000000000000",
"00000000000000000000000000000000000000000000000000000000000000000000000000000000000000000000000000000000000000000000000000000000",
"00000000000000000000000000000000000000000000000000000000000000000000000000000000000000000000000000000000000000000000000000000000",
"00000000000000000000000000000000000000000000000000000000000000000000000000000000000000000000000000000000000000000000000000000000",
"00000000000000000000000000000000000000000000000000000000000000000000000000000000000000000000000000000000000000000000000000000000",
"00000000000000000000000000000000000000000000000000000000000000000000000000000000000000000000000000000000000000000000000000000000",
"00000000000000000000000000000000000000000000000000000000000000000000000000000000000000000000000000000000000000000000000000000000",
"00000000000000000000000000000000000000000000000000000000000000000000000000000000000000000000000000000000000000000000000000000000",
"00000000000000000000000000000000000000000000000000000000000000010101000000000000000000000000000000000000000000000000000000000000",
"00000000000000000000000000000000000000000000000000000000000202020202020200000000000000000000000000000000000000000000000000000000",
"00000000000000000000000000000000000000000000000000000000030202020202020202040000000000000000000000000000000505000000000000000000",
"0000000000000000000000000000000000000000000000000000000602020202020202020207000000000000000000000000000808090a000000000000000000",
"0000000000000000000000000000000000000000000000000000000202020202020202020b0c0000000000000000000000000d090e0f0f000000000000000000",
"00000000000000000000000000000000000000000000000000001002020202020202020211121300000000000000000000141516171819000000000000000000",
"0000000000000000000000000000000000000000000000000000020202020202020202021a1a1b0000000000000000001c180f181d1818000000000000000000",
"000000000000000000000000000000000000000000000000001e020202020202020202021f202122000000000000000023182418182526000000000000000000",
"0000000000000000000000000000000000000000000000000202020202020202020202272829292a00000000000000002b182c2626262d000000000000000000",
"000000000000000000000000000000000000000000000000272e2f0202020202022f30312929323300000000000000002b342635000000000000000000000000",
"00000000000000000000000000000000000000000000000036272737373737373727273138392929000000000000003a3b263c00000000000000000000000000",
"000000000000000000000000000000000000000000000000003d272727272727272727313e3e293f000000000000401826000000000000000000000000000000",
"000000000000000000000000000000000000000000000000000041272727272727272742433e3e44000000000000452646000000000000000000000000000000",
"000000000000000000000000000000000000000000000000000000272727272702020227470000000000000000001a1a48000000000000000000000000000000",
"000000000000000000000000000000000000000000000000000000494a02024b020202024c0000000000000000001a1a4d1b0000000000000000000000000000",
"000000000000000000000000000000000000000000000000004e4f4f0202022750020202025100000000000000521a1a531b0000000000000000000000000000",
"000000000000000000000000000000000000000000000000004f4f02020202275402020202020000000000554f1a561b57000000000000000000000000000000",
"0000000000000000000000000000000000000000000000004f4f58020202025927270202020200000000004f585a5b5c00000000000000000000000000000000",
"0000000000000000000000000000000000000000000000004f5d5802020202022727020202020200005e4f5f585a000000000000000000000000000000000000",
"0000000000000000000000000000000000000000000000604f5802020202020261276202020202634f6458585865000000000000000000000000000000000000",
"00000000000000000000000000000000000000000000006058580202020202020227270227274f4f585858580000000000000000000000000000000000000000",
"00000000000000000000000000000000000000000000666768696969696a02026b272727276c6d5858586e6f0000000000000000000000000000000000000000",
"00000000000000000000000000000000000000000070696969696969716902272727272758725858587300000000000000000000000000000000000000000000",
"0000000000000000000000000000000000000000007475752626266971692727277677275878797a260000000000000000000000000000000000000000000000",
"0000000000000000000000000000000000000000007b262626262669716927277c7d7e000000003b000000000000000000000000000000000000000000000000",
"0000000000000000000000000000000000000000007f26262626266971692727807d000000001826000000000000000000000000000000000000000000000000",
"0000000000000000000000000000000000000000007f262626262669816982828384000000858687000000000000000000000000000000000000000000000000",
"0000000000000000000000000000000000000000007f262626262669886989898a00000000182600000000000000000000000000000000000000000000000000",
"0000000000000000000000000000000000000000008b2626262626698c69898d8a0000008e2c0000000000000000000000000000000000000000000000000000",
"00000000000000000000000000000000000000000000008f899026262626897d0000000091920000000000000000000000000000000000000000000000000000",
"00000000000000000000000000000000000000000000938989898994262695960000009726000000000000000000000000000000000000000000000000000000",
"0000000000000000000000000000000000000000009889898989897d7d2695260000001899000000000000000000000000000000000000000000000000000000",
"0000000000000000000000000000000000000000008989898989897d9a589b9c00009d2600000000000000000000000000000000000000000000000000000000",
"00000000000000000000000000000000000000009e898989899f7da0585858a0a100a2a300000000000000000000000000000000000000000000000000000000",
"00000000000000000000000000000000000000a489898989897d7d58585858a5a618260000000000000000000000000000000000000000000000000000000000",
"00000000000000000000000000000000000000a7898989897d7da8585858a9a5aaabac0000000000000000000000000000000000000000000000000000000000",
"0000000000000000000000000000000000008989898989ad7daea5585858a5a5af26b08900000000000000000000000000000000000000000000000000000000",
"0000000000000000000000000000000000b189898989b27db3b4b458585858b5b6a5b7b3b8000000000000000000000000000000000000000000000000000000",
"0000000000000000000000000000000000007d897d7d7db9a5ba585858585818bba5a5a5bcbd0000000000000000000000000000000000000000000000000000",
"000000000000000000000000000000000000587d7d7d7dbea5585800bf58c01858a5a5a5bcc10000000000000000000000000000000000000000000000000000",
"0000000000000000000000000000c2c2c3c4c5c6c7c7c5be5858c80000c8c9ca5858cbcccdce0000000000000000000000000000000000000000000000000000",
"000000000000000000000000cf69696969a5a5a5a5a5585858d000000018d1005858582669d20000000000000000000000000000000000000000000000000000",
"00000000000000d3696969696969d4d4d426a5d5d658585858d70000d8d9da00dbdc262669690000000000000000000000000000000000000000000000000000",
"00000000000000dd6969752626262626265858585858585800000000de2600000000262669690000000000000000000000000000000000000000000000000000",
"00000000000000dddf2626262626262626585858e0e00000000000e134000000000026266969e200000000000000000000000000000000000000000000000000",
"00000000000000262626002626262626265800000000000000000018e30000000000e42669696900000000000000000000000000000000000000000000000000",
"00000000000000262600000000000000000000000000000000000026000000000000e42669696900000000000000000000000000000000000000000000000000",
"00000000000000e50000000000000000000000000000000000009de5000000000000e626e7696900000000000000000000000000000000000000000000000000",
"00000000000000000000000000000000000000000000000000e81800000000000000002626e9696969ea00000000000000000000000000000000000000000000",
"00000000000000000000000000000000000000000000000000ebec00000000000000002626ed262626ee00000000000000000000000000000000000000000000",
"00000000000000000000000000000000000000000000000000ef00000000000000000000262626f0000000000000000000000000000000000000000000000000",
"0000000000000000000000000000000000000000000000def14600000000000000000000f2f30000000000000000000000000000000000000000000000000000",
"0000000000000000000000000000000000000000000000f426000000000000000000000000000000000000000000000000000000000000000000000000000000",
};
