/* XPM */
static char *image[] = {
"64 64 229 2",
"00 c #ffffff",
"01 c #7059a9",
"02 c #8f9eb9",
"03 c #8f9fba",
"04 c #c1fffa",
"05 c #b0fbfb",
"06 c #6e49cd",
"07 c #3d2310",
"08 c #b5fcfa",
"09 c #33daff",
"0a c #705e9f",
"0b c #716198",
"0c c #6d5f89",
"0d c #3c3528",
"0e c #34c7e7",
"0f c #34ccec",
"10 c #32d4f7",
"11 c #6e4aca",
"12 c #e3b765",
"13 c #3d2311",
"14 c #3d2715",
"15 c #34cbeb",
"16 c #3c2816",
"17 c #e7bb62",
"18 c #966257",
"19 c #351e0d",
"1a c #1e1006",
"1b c #6e4bc9",
"1c c #b3845d",
"1d c #a88c80",
"1e c #8d524e",
"1f c #281609",
"20 c #3a5e5c",
"21 c #2f2123",
"22 c #bb8f82",
"23 c #9a695b",
"24 c #7059aa",
"25 c #c5a89f",
"26 c #c5a8a0",
"27 c #b19188",
"28 c #8c81a3",
"29 c #665677",
"2a c #2a170a",
"2b c #221307",
"2c c #3f313e",
"2d c #706391",
"2e c #472899",
"2f c #6642c2",
"30 c #d4cecc",
"31 c #d4cecd",
"32 c #b4acba",
"33 c #5d5071",
"34 c #4c2f98",
"35 c #6945c7",
"36 c #4f2ea3",
"37 c #e8bc61",
"38 c #8b7f7e",
"39 c #867a87",
"3a c #6b5c84",
"3b c #2c190a",
"3c c #271a16",
"3d c #48299a",
"3e c #6d48cc",
"3f c #a89e9c",
"40 c #aca3a1",
"41 c #b88c7f",
"42 c #a79d9b",
"43 c #ccbab5",
"44 c #7b6585",
"45 c #645295",
"46 c #623fbd",
"47 c #a79c9b",
"48 c #987f76",
"49 c #a47567",
"4a c #5d3ab6",
"4b c #654534",
"4c c #584196",
"4d c #5735ae",
"4e c #3c2a3b",
"4f c #6f4c40",
"50 c #846679",
"51 c #613ebc",
"52 c #6b5f90",
"53 c #3b3377",
"54 c #4a3655",
"55 c #613ebb",
"56 c #251e53",
"57 c #282155",
"58 c #3c3478",
"59 c #393173",
"5a c #706393",
"5b c #402e86",
"5c c #2b245d",
"5d c #3e307f",
"5e c #6f4fc1",
"5f c #422d8a",
"60 c #362e64",
"61 c #90768c",
"62 c #ba8e80",
"63 c #b18476",
"64 c #91768c",
"65 c #6e4ec1",
"66 c #2a235b",
"67 c #2c255e",
"68 c #b88d82",
"69 c #a47467",
"6a c #6647a6",
"6b c #6642b0",
"6c c #6844c5",
"6d c #2a1f5d",
"6e c #30285c",
"6f c #373072",
"70 c #544984",
"71 c #8a5f5a",
"72 c #946863",
"73 c #361e0d",
"74 c #43265c",
"75 c #675694",
"76 c #261e53",
"77 c #312966",
"78 c #2b2458",
"79 c #5c4b64",
"7a c #c7c4c4",
"7b c #4b1842",
"7c c #6f1f73",
"7d c #6f6291",
"7e c #564862",
"7f c #251408",
"80 c #743d4e",
"81 c #722473",
"82 c #70518a",
"83 c #5c5181",
"84 c #4f4476",
"85 c #544661",
"86 c #321d0c",
"87 c #99369e",
"88 c #704585",
"89 c #584d7e",
"8a c #3c1d20",
"8b c #862c8b",
"8c c #473d6f",
"8d c #e9e9e9",
"8e c #e5e5e5",
"8f c #291d2d",
"90 c #3f367a",
"91 c #695c8f",
"92 c #7d2781",
"93 c #5a4f87",
"94 c #2c1418",
"95 c #473e7e",
"96 c #702074",
"97 c #4b266c",
"98 c #272056",
"99 c #493f7f",
"9a c #302864",
"9b c #332b68",
"9c c #564b85",
"9d c #472225",
"9e c #2f1a0b",
"9f c #76237b",
"a0 c #692c7f",
"a1 c #5a2975",
"a2 c #706392",
"a3 c #261e54",
"a4 c #393071",
"a5 c #3c3376",
"a6 c #291f47",
"a7 c #241512",
"a8 c #892e8e",
"a9 c #332a5e",
"aa c #352d6b",
"ab c #42397c",
"ac c #32212d",
"ad c #231b43",
"ae c #3e3470",
"af c #3d3164",
"b0 c #33212d",
"b1 c #78247c",
"b2 c #483336",
"b3 c #442f2d",
"b4 c #3c251a",
"b5 c #382427",
"b6 c #292259",
"b7 c #2b180a",
"b8 c #79247d",
"b9 c #716091",
"ba c #5e5383",
"bb c #1f1319",
"bc c #351d0d",
"bd c #3a2317",
"be c #4c1844",
"bf c #715c8f",
"c0 c #372f62",
"c1 c #412b25",
"c2 c #2b170a",
"c3 c #201107",
"c4 c #322b67",
"c5 c #312965",
"c6 c #5c2977",
"c7 c #792f6c",
"c8 c #2e1a0b",
"c9 c #5e5173",
"ca c #50435b",
"cb c #453849",
"cc c #1f1106",
"cd c #635474",
"ce c #402b25",
"cf c #321c0c",
"d0 c #554353",
"d1 c #20120a",
"d2 c #2e2021",
"d3 c #913195",
"d4 c #8c3192",
"d5 c #675779",
"d6 c #342015",
"d7 c #2d1f1f",
"d8 c #241308",
"d9 c #59485d",
"da c #655679",
"db c #412a25",
"dc c #6a5b82",
"dd c #3b2d38",
"de c #6e618d",
"df c #6a5b81",
"e0 c #584a68",
"e1 c #39200f",
"e2 c #6c5f8b",
"e3 c #291b19",
"e4 c #4c3f55",
"00000000000000000000000000000000000000000000000000000000000000000000000000000000000000000000000000000000000000000000000000000000",
"00000000000000000000000000000000000000000000000000000000000000000000000000000000000000000000000000000000000000000000000000000000",
"00000000000000000000000000000000000000000000000000000000000000000000000000000000000000000000000000000000000000000000000000000000",
"00000000000000000000000000000000000000000000000000000000000000000000000000000000000000000000000000000000000000000000000000000000",
"00000000000000000000000000000000000000000000000000000000000000000000000000000000000000000000000000000000000000000000000000000000",
"00000000000000000000000000000000000000000000000000000000000000000000000000000000000000000000000000000000000000000000000000000000",
"00000000000000000000000000000000000000000000000000000000000000000000000000000000000000000000000000000000000000000000000000000000",
"00000000000000000000000000000000000000000000000000000000000000000000000000000000000000000000000000000000000000000000000000000000",
"00000000000000000000000000000000000000000000000000000000000000000000000000000000000000000000000000000000000000000000000000000000",
"00000000000000000000000000000000000000000000000000000000000000000000000000000000000000000000000000000000000000000000000000000000",
"00000000000000000000000000000000000000000000000000000000000000000000000000000000000000000000000000000000000000000000000000000000",
"00000000000000000000000000000000000000000000000000000000000000010101000000000000000000000002030405000000000000000000000000000000",
"00000000000000000000000000000000000000000000000000000000000606060606060600000000000000000704080909000000000000000000000000000000",
"000000000000000000000000000000000000000000000000000000000a06060606060606060b00000000000c0d0e0f0710000000000000000000000000000000",
"00000000000000000000000000000000000000000000000000000011060606060606060606120000000000130914150716000000000000000000000000000000",
"0000000000000000000000000000000000000000000000000000060606060606060606061718000000000019091407071a000000000000000000000000000000",
"000000000000000000000000000000000000000000000000001b060606060606060606061c1d1e0000001f07201f1f1a21000000000000000000000000000000",
"0000000000000000000000000000000000000000000000000006060606060606060606062222230000001a071a1a000000000000000000000000000000000000",
"0000000000000000000000000000000000000000000000002406060606060606060606062526272800292a2b2c2d000000000000000000000000000000000000",
"0000000000000000000000000000000000000000000000002e2f0606060606060606062e3031313200071a330000000000000000000000000000000000000000",
"000000000000000000000000000000000000000000000000342e2e350606060606353637313138393a3b3c000000000000000000000000000000000000000000",
"000000000000000000000000000000000000000000000000002e2e2e3d3d3d3d3d3e3e373f403131414100000000000000000000000000000000000000000000",
"00000000000000000000000000000000000000000000000000002e2e2e2e2e2e0606060642423143222223440000000000000000000000000000000000000000",
"0000000000000000000000000000000000000000000000000000452e2e2e2e2e4606060647424248222249440000000000000000000000000000000000000000",
"0000000000000000000000000000000000000000000000000000002e2e2e2e2e4a0606060600004b222323000000000000000000000000000000000000000000",
"0000000000000000000000000000000000000000000000000000004c4d06062e4a06060600004e4f235000000000000000000000000000000000000000000000",
"000000000000000000000000000000000000000000000000000000000606512e4a06060600525354230000000000000000000000000000000000000000000000",
"000000000000000000000000000000000000000000000000000000060606552e4a06060600535657000000000000000000000000000000000000000000000000",
"000000000000000000000000000000000000000000000000000000060606552e2e0606065859565a000000000000000000000000000000000000000000000000",
"000000000000000000000000000000000000000000000000000000060606552e2e06060653590000000000000000000000000000000000000000000000000000",
"000000000000000000000000000000000000000000000000000006060606552e2e2e5b535c560000000000000000000000000000000000000000000000000000",
"000000000000000000000000000000000000000000000000000006060606552e2e2e5d5356565600000000000000000000000000000000000000000000000000",
"000000000000000000000000000000000000000000000000005e06060606062e2e5f535656565660000000000061622263640000000000000000000000000000",
"000000000000000000000000000000000000000000000000006506060606062e2e53665656565667000000005368412369220000000000000000000000000000",
"000000000000000000000000000000000000000000000000006a6b6b6b6c2e2e2e6d566e5656565c6f7053535656712372000000000000000000000000000000",
"0000000000000000000000000000000000000000000073737373737373732e07742e750076565656567753565656780000000000000000000000000000000000",
"000000000000000000000000000000000000000000797373737373737a732e077b7c00000056565656775656567d000000000000000000000000000000000000",
"0000000000000000000000000000000000000000007e7f7f1a1a1a737a73801a8182000000008356565656848300000000000000000000000000000000000000",
"000000000000000000000000000000000000000000851a1a1a1a1a737a7386878800000000000089565656000000000000000000000000000000000000000000",
"000000000000000000000000000000000000000000851a1a1a1a1a737a738a8b8800000000000000008c00000000000000000000000000000000000000000000",
"000000000000000000000000000000000000000000851a1a1a1a1a738d73877c0000000000000000000000000000000000000000000000000000000000000000",
"000000000000000000000000000000000000000000851a1a1a1a1a738e738f909090909090909152000000000000000000000000000000000000000000000000",
"000000000000000000000000000000000000000000001a1a1a1a1a731a7392909090909090909090909300000000000000000000000000000000000000000000",
"0000000000000000000000000000000000000000000000567c7c7c07947c87875656565656909090909090000000000000000000000000000000000000000000",
"0000000000000000000000000000000000000000009590567c7c7c1a9687878797565656565656985c9090990000000000000000000000000000000000000000",
"00000000000000000000000000000000000000009090909a567c077c7c7c87878787565656565656569b90909000000000000000000000000000000000000000",
"000000000000000000000000000000000000009c90909090569d9e7c7c7c9f878787a0a15656565656569b9090a2000000000000000000000000000000000000",
"00000000000000000000000000000000000090909090909090077c7c7c7c7c7c7c878787a3565656565656a49090000000000000000000000000000000000000",
"0000000000000000000000000000000000009090909090a5a6a77c7c7c7c7c7c7c7ca88787a9a956565656aa9090ab0000000000000000000000000000000000",
"0000000000000000000000000000000000909090909090ac07ad7c7c7c7c7c7c7c7c7c7c87000000565656565690ae7300000000000000000000000000000000",
"00000000000000000000000000000000af909090909056b01ab17c7c7c7c7c7c7c7c7c7c870000000056565656907373b2000000000000000000000000000000",
"0000000000000000000000b3b3b3b47373b5909090b656b7b8b9007c7c7c7c7c7c7c7c7c000000000000ba56bbbc7373bd000000000000000000000000000000",
"0000000000000000007373737373737373739090565607be00000000bf7c7c7c7c7c000000000000000000c01a1a737373730000000000000000000000000000",
"00000000000000c1737373737373c2c2c31ac4c5c6c7c8c900000000000000000000000000000000000000cacb1acc737373cd00000000000000000000000000",
"00000000000000ce7373cf1a1a1a1a1a1a1a56877ccf00000000000000000000000000000000000000000000001a1a1a7373d000000000000000000000000000",
"0000000000000073731ad1d2d2d2d2d2d2d2d3d4d5d6000000000000000000000000000000000000000000000000d71ad8737373d9dada000000000000000000",
"00000000000000db1a1a000000000000000000dc07dd00000000000000000000000000000000000000000000000000001a1a73731a1ade000000000000000000",
"00000000000000d71a00000000000000000000df1a000000000000000000000000000000000000000000000000000000e01a1a1a1a1ade000000000000000000",
"0000000000000000c900000000000000000000e10000000000000000000000000000000000000000000000000000000000c91a1ae20000000000000000000000",
"00000000000000000000000000000000000007e30000000000000000000000000000000000000000000000000000000000000000000000000000000000000000",
"0000000000000000000000000000000000001ae40000000000000000000000000000000000000000000000000000000000000000000000000000000000000000",
"00000000000000000000000000000000000000000000000000000000000000000000000000000000000000000000000000000000000000000000000000000000",
"00000000000000000000000000000000000000000000000000000000000000000000000000000000000000000000000000000000000000000000000000000000",
"00000000000000000000000000000000000000000000000000000000000000000000000000000000000000000000000000000000000000000000000000000000",
};
