/* XPM */
static char *image[] = {
"64 64 219 2",
"00 c #ffffff",
"01 c #716199",
"02 c #6e49cd",
"03 c #77709b",
"04 c #79749d",
"05 c #716593",
"06 c #706199",
"07 c #6e4aca",
"08 c #99b2c7",
"09 c #bef9f6",
"0a c #c0fdf9",
"0b c #c1fffa",
"0c c #6f6997",
"0d c #6e4cc7",
"0e c #3d2310",
"0f c #33daff",
"10 c #6e6997",
"11 c #c09684",
"12 c #b07f5a",
"13 c #665778",
"14 c #369fb2",
"15 c #3a5e5c",
"16 c #3b433a",
"17 c #6e6390",
"18 c #e7bb62",
"19 c #d4cecd",
"1a c #712334",
"1b c #387a82",
"1c c #6f618e",
"1d c #6e4cc5",
"1e c #a8796a",
"1f c #a37a6b",
"20 c #9a695b",
"21 c #5c4a5f",
"22 c #301b0c",
"23 c #3a5754",
"24 c #341d0d",
"25 c #1e1006",
"26 c #6e618d",
"27 c #bb8f82",
"28 c #6945c7",
"29 c #6d48cb",
"2a c #d4cecc",
"2b c #b4acba",
"2c c #3c2210",
"2d c #23150f",
"2e c #472899",
"2f c #48299a",
"30 c #5030a6",
"31 c #e4b862",
"32 c #837775",
"33 c #7d717f",
"34 c #6c5e88",
"35 c #6f6290",
"36 c #706391",
"37 c #e8bc61",
"38 c #d3cdcd",
"39 c #372a31",
"3a c #675694",
"3b c #a79d9b",
"3c c #a89e9d",
"3d c #cac3c2",
"3e c #4e383a",
"3f c #3a210f",
"40 c #584a68",
"41 c #5d3ab6",
"42 c #b98e82",
"43 c #5735ae",
"44 c #c2a983",
"45 c #918598",
"46 c #867b96",
"47 c #a7796b",
"48 c #8d676c",
"49 c #4c2ca0",
"4a c #5a38b2",
"4b c #6e4bc8",
"4c c #6a5d8f",
"4d c #9c797f",
"4e c #b68a7d",
"4f c #99695b",
"50 c #956862",
"51 c #6e49cc",
"52 c #544a84",
"53 c #3b3377",
"54 c #261f53",
"55 c #726491",
"56 c #716492",
"57 c #251e53",
"58 c #6844c5",
"59 c #5232a8",
"5a c #5132a6",
"5b c #362e6f",
"5c c #2b245d",
"5d c #4e4475",
"5e c #5837b0",
"5f c #6541c1",
"60 c #3f304d",
"61 c #56367a",
"62 c #5836b0",
"63 c #5d3bb6",
"64 c #302965",
"65 c #463c6e",
"66 c #361e0d",
"67 c #5c4b64",
"68 c #321c0c",
"69 c #c7c4c4",
"6a c #6b46c9",
"6b c #5f3e91",
"6c c #30285c",
"6d c #695a7f",
"6e c #331d0d",
"6f c #544661",
"70 c #6f1f73",
"71 c #382b33",
"72 c #c39a6e",
"73 c #99369e",
"74 c #6c5d86",
"75 c #392b33",
"76 c #886382",
"77 c #904a6e",
"78 c #784f84",
"79 c #47322f",
"7a c #5a4d6c",
"7b c #e9e9e9",
"7c c #a5656b",
"7d c #3d2311",
"7e c #e5e5e5",
"7f c #b27669",
"80 c #77237b",
"81 c #703e81",
"82 c #2f1b0c",
"83 c #261814",
"84 c #704585",
"85 c #775c95",
"86 c #853085",
"87 c #923297",
"88 c #6a5c82",
"89 c #706392",
"8a c #2f131d",
"8b c #49322e",
"8c c #78247c",
"8d c #332a23",
"8e c #5e5e5e",
"8f c #251408",
"90 c #8f429b",
"91 c #7a257e",
"92 c #361e5a",
"93 c #4a3432",
"94 c #4d4057",
"95 c #69346c",
"96 c #54404a",
"97 c #5e5173",
"98 c #7f5497",
"99 c #292259",
"9a c #852b8a",
"9b c #412e2d",
"9c c #443747",
"9d c #3f367a",
"9e c #2c180a",
"9f c #785c95",
"a0 c #641f6e",
"a1 c #2a225a",
"a2 c #3f3574",
"a3 c #241a34",
"a4 c #621f6d",
"a5 c #97359c",
"a6 c #351e5a",
"a7 c #3e3056",
"a8 c #5e1f6c",
"a9 c #493178",
"aa c #2b235c",
"ab c #953a9d",
"ac c #765e94",
"ad c #812985",
"ae c #3d3578",
"af c #372220",
"b0 c #25161b",
"b1 c #362e6d",
"b2 c #383070",
"b3 c #393171",
"b4 c #281e4b",
"b5 c #201520",
"b6 c #6d5f89",
"b7 c #554353",
"b8 c #622b7a",
"b9 c #852b89",
"ba c #5b1f6a",
"bb c #352d6b",
"bc c #493f71",
"bd c #53404c",
"be c #453849",
"bf c #41387b",
"c0 c #342c69",
"c1 c #2a235b",
"c2 c #39210f",
"c3 c #473d6f",
"c4 c #1f1317",
"c5 c #3c251a",
"c6 c #615377",
"c7 c #351d0d",
"c8 c #2d190a",
"c9 c #311b0b",
"ca c #281a16",
"cb c #3c2f3a",
"cc c #1f1210",
"cd c #615585",
"ce c #3c251b",
"cf c #605484",
"d0 c #513c43",
"d1 c #574452",
"d2 c #42323e",
"d3 c #271916",
"d4 c #5f5275",
"d5 c #312326",
"d6 c #4b373b",
"d7 c #311b0c",
"d8 c #645576",
"d9 c #2b180a",
"da c #564455",
"00000000000000000000000000000000000000000000000000000000000000000000000000000000000000000000000000000000000000000000000000000000",
"00000000000000000000000000000000000000000000000000000000000000000000000000000000000000000000000000000000000000000000000000000000",
"00000000000000000000000000000000000000000000000000000000000000000000000000000000000000000000000000000000000000000000000000000000",
"00000000000000000000000000000000000000000000000000000000000000000000000000000000000000000000000000000000000000000000000000000000",
"00000000000000000000000000000000000000000000000000000000000000000000000000000000000000000000000000000000000000000000000000000000",
"00000000000000000000000000000000000000000000000000000000000000000000000000000000000000000000000000000000000000000000000000000000",
"00000000000000000000000000000000000000000000000000000000000000000000000000000000000000000000000000000000000000000000000000000000",
"00000000000000000000000000000000000000000000000000000000000000000000000000000000000000000000000000000000000000000000000000000000",
"00000000000000000000000000000000000000000000000000000000000000000000000000000000000000000000000000000000000000000000000000000000",
"00000000000000000000000000000000000000000000000000000000000000000000000000000000000000000000000000000000000000000000000000000000",
"00000000000000000000000000000000000000000000000000000000000000000000000000000000000000000000000000000000000000000000000000000000",
"00000000000000000000000000000000000000000000000000000000000000000000000000000000000000000000000000000000000000000000000000000000",
"00000000000000000000000000000000000000000000000000000000000000000000000000000000000000000000000000000000000000000000000000000000",
"00000000000000000000000000000000000000000000000000000000000101020202010100000000000000000000000000000000030405000000000000000000",
"000000000000000000000000000000000000000000000000000000000602020202020202070000000000000000000000000008090a0b0c000000000000000000",
"000000000000000000000000000000000000000000000000000000020202020202020202020d00000000000000000000000e0b0b0f0f10000000000000000000",
"0000000000000000000000000000000000000000000000000000000202020202020202021112000000000000000000001314150f160f17000000000000000000",
"00000000000000000000000000000000000000000000000000000202020202020202020218191a0000000000000000000e0f1b0f0e0e1c000000000000000000",
"000000000000000000000000000000000000000000000000001d020202020202020202021e1f20000000000000000021220f230e242526000000000000000000",
"0000000000000000000000000000000000000000000000000202020202020202020202022727200000000000000000250e0e2525252500000000000000000000",
"0000000000000000000000000000000000000000000000002829020202020202020202282a19192b00000000000000252c252d00000000000000000000000000",
"0000000000000000000000000000000000000000000000002e2f2f02020202020202303119193233000000000000342c25353600000000000000000000000000",
"000000000000000000000000000000000000000000000000002e2e2e2e2e0202022e2e37381919190000000000000e2539000000000000000000000000000000",
"000000000000000000000000000000000000000000000000003a2e2e2e2e2e2e2e2e2e373b3c193d00000000003e3f4000000000000000000000000000000000",
"0000000000000000000000000000000000000000000000000000002e2e2e2e2e410202373b3b3b3b000000000042270000000000000000000000000000000000",
"0000000000000000000000000000000000000000000000000000002e2e2e2e2e0202024344454546000000000027274748000000000000000000000000000000",
"0000000000000000000000000000000000000000000000000000002e2e02022e4102020202000000000000002727272048000000000000000000000000000000",
"000000000000000000000000000000000000000000000000000000004902022e4a020202024b000000004c4d274e4f5000000000000000000000000000000000",
"00000000000000000000000000000000000000000000000000000000020202512e2e020202020000005253542055560000000000000000000000000000000000",
"00000000000000000000000000000000000000000000000000000002020202022e2e020202020000535357572000000000000000000000000000000000000000",
"00000000000000000000000000000000000000000000000000000002020202022e2e5802595a535b5c57575d0000000000000000000000000000000000000000",
"00000000000000000000000000000000000000000000000000005302020202025e2e5f022e535357575757000000000000000000000000000000000000000000",
"00000000000000000000000000000000000000000000000000606161610202025e2e626353645757576500000000000000000000000000000000000000000000",
"0000000000000000000000000000000000000000000066666666666666660202022e2e2e57575757250000000000000000000000000000000000000000000000",
"00000000000000000000000000000000000000000067666668686866696602026a2e2e6b6c6c6d6e000000000000000000000000000000000000000000000000",
"0000000000000000000000000000000000000000006f2525252525666966022e2e2e2e7000000e71000000000000000000000000000000000000000000000000",
"0000000000000000000000000000000000000000006f25252525256669662e2e2e2e727300742575000000000000000000000000000000000000000000000000",
"0000000000000000000000000000000000000000006f25252525256669662e2e7677780000797a00000000000000000000000000000000000000000000000000",
"0000000000000000000000000000000000000000006f2525252525667b662e2e7c7000007d3f0000000000000000000000000000000000000000000000000000",
"0000000000000000000000000000000000000000006f2525252525667e667f7f8081000082830000000000000000000000000000000000000000000000000000",
"00000000000000000000000000000000000000000000252525252566256673738400000025000000000000000000000000000000000000000000000000000000",
"00000000000000000000000000000000000000000000000085252586737373878400880e89000000000000000000000000000000000000000000000000000000",
"000000000000000000000000000000000000000000000073738a25252525737000008b2500000000000000000000000000000000000000000000000000000000",
"000000000000000000000000000000000000000000000073738c702525258d8e00008f0000000000000000000000000000000000000000000000000000000000",
"0000000000000000000000000000000000000000000090737373917092258d250093940000000000000000000000000000000000000000000000000000000000",
"000000000000000000000000000000000000000000007373737370575770958e9625970000000000000000000000000000000000000000000000000000000000",
"000000000000000000000000000000000000000000987373738c70575757999a9b9c000000000000000000000000000000000000000000000000000000000000",
"0000000000000000000000000000000000000000007373737370575757579d579e73000000000000000000000000000000000000000000000000000000000000",
"00000000000000000000000000000000000000009f73737373a0a15757a1a20ea3a4a59f00000000000000000000000000000000000000000000000000000000",
"00000000000000000000000000000000000000007373737373a69d57579da7259d9da87073000000000000000000000000000000000000000000000000000000",
"00000000000000000000000000000000000000007373737370a99d5757570e9d9d9daa5770ab0000000000000000000000000000000000000000000000000000",
"00000000000000000000000000000000000000ac737373ad70ae9d5757afb057b19d9d9db2b30000000000000000000000000000000000000000000000000000",
"000000000000000000000000000000000000007373737370579d5757b40eb55757579d9d9d9d0000000000000000000000000000000000000000000000000000",
"00000000000000000000b6666666b7b766666666b8b970ba9dbb57bcbdbebcbc5757579d9dbf0000000000000000000000000000000000000000000000000000",
"00000000000000000000666625256666666666669d5757c09dc15700c2000000c357c46666c50000000000000000000000000000000000000000000000000000",
"000000000000000000c6c72525252525c8c9c9c9259d9d9d9d57570eca0000000025256666c50000000000000000000000000000000000000000000000000000",
"000000000000000000252525cb252525252525255757575757570025000000000025252566c50000000000000000000000000000000000000000000000000000",
"00000000000000000025250000002525252525cc5757575757cd0e00000000000025252566ce0000000000000000000000000000000000000000000000000000",
"00000000000000000000000000000000979797cc575757cfcfd08f00000000000097252566660000000000000000000000000000000000000000000000000000",
"000000000000000000000000000000000000000000000000000e2500000000000000252566660000000000000000000000000000000000000000000000000000",
"000000000000000000000000000000000000000000000000d1d20000000000000000d32566660000000000000000000000000000000000000000000000000000",
"0000000000000000000000000000000000000000000000000ed40000000000000000d52525666600000000000000000000000000000000000000000000000000",
"0000000000000000000000000000000000000000000000d625000000000000000000d52525d76666d80000000000000000000000000000000000000000000000",
"0000000000000000000000000000000000000000000000d90000000000000000000000252525256666da00000000000000000000000000000000000000000000",
};
